<?xml version="1.0" encoding="UTF-8" standalone="no"?>
<!-- Generator: Adobe Illustrator 13.0.1, SVG Export Plug-In . SVG Version: 6.00 Build 14948)  -->

<svg
   xmlns:dc="http://purl.org/dc/elements/1.1/"
   xmlns:cc="http://creativecommons.org/ns#"
   xmlns:rdf="http://www.w3.org/1999/02/22-rdf-syntax-ns#"
   xmlns:svg="http://www.w3.org/2000/svg"
   xmlns="http://www.w3.org/2000/svg"
   xmlns:sodipodi="http://sodipodi.sourceforge.net/DTD/sodipodi-0.dtd"
   xmlns:inkscape="http://www.inkscape.org/namespaces/inkscape"
   version="1.1"
   id="_0.SFG-U----------"
   x="0px"
   y="0px"
   width="400px"
   height="400px"
   viewBox="0 0 400 400"
   enable-background="new 0 0 400 400"
   xml:space="preserve"
   inkscape:version="0.48.2 r9819"
   sodipodi:docname="-a.svg"><metadata
   id="metadata9"><rdf:RDF><cc:Work
       rdf:about=""><dc:format>image/svg+xml</dc:format><dc:type
         rdf:resource="http://purl.org/dc/dcmitype/StillImage" /></cc:Work></rdf:RDF></metadata><defs
   id="defs7" /><sodipodi:namedview
   pagecolor="#ffffff"
   bordercolor="#666666"
   borderopacity="1"
   objecttolerance="10"
   gridtolerance="10"
   guidetolerance="10"
   inkscape:pageopacity="0"
   inkscape:pageshadow="2"
   inkscape:window-width="640"
   inkscape:window-height="480"
   id="namedview5"
   showgrid="false"
   inkscape:zoom="9.66125"
   inkscape:cx="209.32203"
   inkscape:cy="191.52542"
   inkscape:window-x="0"
   inkscape:window-y="0"
   inkscape:window-maximized="0"
   inkscape:current-layer="_0.SFG-U----------" />
<path
   d="m 207.883,187.294 3.016,-3.421 2.648,2.374 -3.186,3.613 c 0.852,1.163 1.52,2.585 1.988,4.278 0.471,1.697 0.709,3.495 0.709,5.399 0,4.499 -1.232,8.038 -3.68,10.631 -2.461,2.559 -5.701,3.852 -9.73,3.852 -3.497,0 -6.295,-0.793 -8.392,-2.402 l -3.094,3.508 -2.71,-2.404 3.259,-3.709 c -1.849,-2.512 -2.783,-5.783 -2.783,-9.817 0,-4.462 1.23,-7.984 3.681,-10.6 2.454,-2.578 5.731,-3.872 9.827,-3.872 3.386,0.007 6.21,0.856 8.447,2.57 z m -3.504,3.977 c -1.293,-1.107 -2.92,-1.666 -4.888,-1.666 -2.313,0 -4.181,0.809 -5.609,2.42 -1.431,1.611 -2.136,4.064 -2.136,7.314 0,2.047 0.293,3.813 0.876,5.274 l 11.757,-13.342 z m 2.07,3.033 -11.726,13.346 c 1.312,1.152 2.88,1.76 4.73,1.76 2.259,0 4.121,-0.826 5.58,-2.492 1.451,-1.66 2.184,-4.139 2.184,-7.435 0,-2.124 -0.262,-3.827 -0.768,-5.179 z"
   id="path3"
   style="fill:#ffffff"
   inkscape:connector-curvature="0" />
</svg>