<?xml version="1.0" encoding="UTF-8" standalone="no"?>
<!-- Generator: Adobe Illustrator 13.0.1, SVG Export Plug-In . SVG Version: 6.00 Build 14948)  -->

<svg
   xmlns:dc="http://purl.org/dc/elements/1.1/"
   xmlns:cc="http://creativecommons.org/ns#"
   xmlns:rdf="http://www.w3.org/1999/02/22-rdf-syntax-ns#"
   xmlns:svg="http://www.w3.org/2000/svg"
   xmlns="http://www.w3.org/2000/svg"
   xmlns:sodipodi="http://sodipodi.sourceforge.net/DTD/sodipodi-0.dtd"
   xmlns:inkscape="http://www.inkscape.org/namespaces/inkscape"
   version="1.1"
   id="_0.SFG-U----------"
   x="0px"
   y="0px"
   width="400px"
   height="400px"
   viewBox="0 0 400 400"
   enable-background="new 0 0 400 400"
   xml:space="preserve"
   inkscape:version="0.48.2 r9819"
   sodipodi:docname="-l.svg"><metadata
   id="metadata3135"><rdf:RDF><cc:Work
       rdf:about=""><dc:format>image/svg+xml</dc:format><dc:type
         rdf:resource="http://purl.org/dc/dcmitype/StillImage" /></cc:Work></rdf:RDF></metadata><defs
   id="defs3133" /><sodipodi:namedview
   pagecolor="#ffffff"
   bordercolor="#666666"
   borderopacity="1"
   objecttolerance="10"
   gridtolerance="10"
   guidetolerance="10"
   inkscape:pageopacity="0"
   inkscape:pageshadow="2"
   inkscape:window-width="640"
   inkscape:window-height="480"
   id="namedview3131"
   showgrid="false"
   inkscape:zoom="0.59"
   inkscape:cx="200"
   inkscape:cy="200"
   inkscape:window-x="0"
   inkscape:window-y="0"
   inkscape:window-maximized="0"
   inkscape:current-layer="g3119" />
<g
   id="g3119">
	<path
   fill="#010101"
   d="M94.815,216.65l11.716-17.905l-10.616-16.393h8.097l6.873,11.016l6.736-11.016h8.026l-10.669,16.643   l11.719,17.637h-8.354l-7.602-11.854l-7.625,11.859h-8.304L94.815,216.65L94.815,216.65z"
   id="path3121"
   style="fill:#ffffff" />
	<path
   fill="#010101"
   d="M139.197,216.65l11.713-17.902l-10.616-16.398h8.09l6.878,11.016l6.731-11.016h8.024l-10.666,16.646   l11.716,17.637h-8.35l-7.604-11.859l-7.625,11.859h-8.299v0.018H139.197L139.197,216.65z"
   id="path3123"
   style="fill:#ffffff" />
	<path
   fill="#010101"
   d="M183.581,216.65l11.726-17.902l-10.626-16.398h8.075l6.879,11.016l6.738-11.016h8.025l-10.662,16.651   l11.706,17.631h-8.337l-7.621-11.842l-7.622,11.842h-8.301v0.018H183.581z"
   id="path3125"
   style="fill:#ffffff" />
	<path
   fill="#010101"
   d="M227.942,216.65l11.713-17.902l-10.611-16.398h8.087l6.885,11.016l6.717-11.016h8.039l-10.657,16.646   l11.707,17.637h-8.344l-7.611-11.854l-7.636,11.854h-8.294v0.012h0.006V216.65L227.942,216.65z"
   id="path3127"
   style="fill:#ffffff" />
	<path
   fill="#010101"
   d="M272.333,216.65l11.719-17.899l-10.638-16.401h8.09l6.875,11.024l6.721-11.024h8.038l-10.663,16.651   l11.713,17.631h-8.344l-7.599-11.854l-7.63,11.859h-8.294v0.012H272.333L272.333,216.65z"
   id="path3129"
   style="fill:#ffffff" />
</g>
</svg>