<?xml version="1.0" encoding="UTF-8" standalone="no"?>
<!-- Generator: Adobe Illustrator 13.0.1, SVG Export Plug-In . SVG Version: 6.00 Build 14948)  -->

<svg
   xmlns:dc="http://purl.org/dc/elements/1.1/"
   xmlns:cc="http://creativecommons.org/ns#"
   xmlns:rdf="http://www.w3.org/1999/02/22-rdf-syntax-ns#"
   xmlns:svg="http://www.w3.org/2000/svg"
   xmlns="http://www.w3.org/2000/svg"
   xmlns:sodipodi="http://sodipodi.sourceforge.net/DTD/sodipodi-0.dtd"
   xmlns:inkscape="http://www.inkscape.org/namespaces/inkscape"
   version="1.1"
   id="_0.SFG-U----------"
   x="0px"
   y="0px"
   width="400px"
   height="400px"
   viewBox="0 0 400 400"
   enable-background="new 0 0 400 400"
   xml:space="preserve"
   inkscape:version="0.48.2 r9819"
   sodipodi:docname="-m.svg"><metadata
   id="metadata3156"><rdf:RDF><cc:Work
       rdf:about=""><dc:format>image/svg+xml</dc:format><dc:type
         rdf:resource="http://purl.org/dc/dcmitype/StillImage" /></cc:Work></rdf:RDF></metadata><defs
   id="defs3154" /><sodipodi:namedview
   pagecolor="#ffffff"
   bordercolor="#666666"
   borderopacity="1"
   objecttolerance="10"
   gridtolerance="10"
   guidetolerance="10"
   inkscape:pageopacity="0"
   inkscape:pageshadow="2"
   inkscape:window-width="640"
   inkscape:window-height="480"
   id="namedview3152"
   showgrid="false"
   inkscape:zoom="0.59"
   inkscape:cx="200"
   inkscape:cy="200"
   inkscape:window-x="0"
   inkscape:window-y="0"
   inkscape:window-maximized="0"
   inkscape:current-layer="g3138" />
<g
   id="g3138">
	<path
   fill="#010101"
   d="M72.938,216.641l11.716-17.899l-10.619-16.394h8.093l6.875,11.02l6.74-11.02h8.019l-10.667,16.647   l11.719,17.634h-8.348l-7.605-11.848l-7.626,11.848h-8.296V216.641z"
   id="path3140"
   style="fill:#ffffff" />
	<path
   fill="#010101"
   d="M117.188,216.646l11.716-17.902l-10.616-16.397h8.096l6.876,11.017l6.733-11.017h8.021l-10.666,16.644   l11.722,17.637h-8.356l-7.603-11.854l-7.625,11.859h-8.302L117.188,216.646L117.188,216.646z"
   id="path3142"
   style="fill:#ffffff" />
	<path
   fill="#010101"
   d="M161.443,216.646l11.716-17.902l-10.619-16.4h8.095l6.874,11.017l6.735-11.017h8.025l-10.666,16.647   l11.716,17.637h-8.35l-7.607-11.859l-7.625,11.859h-8.301v0.018H161.443L161.443,216.646z"
   id="path3144"
   style="fill:#ffffff" />
	<path
   fill="#010101"
   d="M205.701,216.646l11.725-17.902l-10.623-16.4h8.078l6.876,11.017l6.735-11.017h8.031l-10.668,16.653   l11.712,17.631h-8.337l-7.62-11.842l-7.624,11.842h-8.297v0.018H205.701L205.701,216.646z"
   id="path3146"
   style="fill:#ffffff" />
	<path
   fill="#010101"
   d="M249.939,216.646l11.719-17.902l-10.617-16.4h8.09l6.882,11.017l6.724-11.017h8.032l-10.651,16.647   l11.704,17.637h-8.344l-7.614-11.854l-7.632,11.854h-8.292V216.646L249.939,216.646L249.939,216.646L249.939,216.646z"
   id="path3148"
   style="fill:#ffffff" />
	<path
   fill="#010101"
   d="M294.208,216.656l11.719-17.903l-10.638-16.398h8.09l6.875,11.021l6.721-11.021h8.038l-10.663,16.648   l11.713,17.631h-8.344l-7.599-11.848l-7.63,11.854h-8.294v0.016H294.208L294.208,216.656z"
   id="path3150"
   style="fill:#ffffff" />
</g>
</svg>