<?xml version="1.0" encoding="UTF-8" standalone="no"?>
<!-- Generator: Adobe Illustrator 13.0.1, SVG Export Plug-In . SVG Version: 6.00 Build 14948)  -->

<svg
   xmlns:dc="http://purl.org/dc/elements/1.1/"
   xmlns:cc="http://creativecommons.org/ns#"
   xmlns:rdf="http://www.w3.org/1999/02/22-rdf-syntax-ns#"
   xmlns:svg="http://www.w3.org/2000/svg"
   xmlns="http://www.w3.org/2000/svg"
   xmlns:sodipodi="http://sodipodi.sourceforge.net/DTD/sodipodi-0.dtd"
   xmlns:inkscape="http://www.inkscape.org/namespaces/inkscape"
   version="1.1"
   id="_0.SHG-U----------"
   x="0px"
   y="0px"
   width="128px"
   height="128px"
   viewBox="0 0 128 128"
   enable-background="new 0 0 128 128"
   xml:space="preserve"
   inkscape:version="0.48.2 r9819"
   sodipodi:docname="ea.svg"><metadata
   id="metadata3201"><rdf:RDF><cc:Work
       rdf:about=""><dc:format>image/svg+xml</dc:format><dc:type
         rdf:resource="http://purl.org/dc/dcmitype/StillImage" /></cc:Work></rdf:RDF></metadata><defs
   id="defs3199" /><sodipodi:namedview
   pagecolor="#ffffff"
   bordercolor="#666666"
   borderopacity="1"
   objecttolerance="10"
   gridtolerance="10"
   guidetolerance="10"
   inkscape:pageopacity="0"
   inkscape:pageshadow="2"
   inkscape:window-width="640"
   inkscape:window-height="480"
   id="namedview3197"
   showgrid="false"
   inkscape:zoom="7.2098881"
   inkscape:cx="65.898305"
   inkscape:cy="63.728814"
   inkscape:window-x="0"
   inkscape:window-y="0"
   inkscape:window-maximized="0"
   inkscape:current-layer="_0.SHG-U----------" />
<path
   d="m 66.184,59.594 0.965,-1.095 0.85,0.76 -1.021,1.156 c 0.272,0.372 0.486,0.827 0.637,1.369 0.15,0.543 0.229,1.119 0.229,1.728 0,1.439 -0.396,2.572 -1.178,3.402 -0.787,0.818 -1.824,1.232 -3.113,1.232 -1.119,0 -2.015,-0.254 -2.686,-0.771 l -0.99,1.122 -0.867,-0.771 1.043,-1.187 c -0.592,-0.804 -0.891,-1.851 -0.891,-3.142 0,-1.427 0.394,-2.554 1.178,-3.391 0.785,-0.825 1.834,-1.239 3.145,-1.239 1.079,0.006 1.983,0.278 2.699,0.827 z m -1.121,1.272 c -0.414,-0.354 -0.935,-0.533 -1.563,-0.533 -0.74,0 -1.338,0.259 -1.795,0.775 -0.458,0.515 -0.684,1.3 -0.684,2.34 0,0.655 0.094,1.22 0.281,1.688 l 3.761,-4.27 z m 0.662,0.971 -3.75,4.271 c 0.42,0.369 0.923,0.563 1.514,0.563 0.723,0 1.321,-0.265 1.788,-0.798 0.465,-0.531 0.699,-1.324 0.699,-2.379 -0.005,-0.679 -0.089,-1.225 -0.251,-1.657 z"
   id="path3189"
   style="fill:#ffffff"
   inkscape:connector-curvature="0" />
<rect
   x="54.5"
   y="54.5"
   width="2"
   height="16"
   id="rect3191"
   style="fill:#ffffff" />
<rect
   x="70.5"
   y="54.5"
   width="2"
   height="16"
   id="rect3193"
   style="fill:#ffffff" />
<rect
   x="54.5"
   y="54.5"
   width="18"
   height="2"
   id="rect3195"
   style="fill:#ffffff" />
</svg>