<?xml version="1.0" encoding="UTF-8" standalone="no"?>
<!-- Generator: Adobe Illustrator 13.0.1, SVG Export Plug-In . SVG Version: 6.00 Build 14948)  -->

<svg
   xmlns:dc="http://purl.org/dc/elements/1.1/"
   xmlns:cc="http://creativecommons.org/ns#"
   xmlns:rdf="http://www.w3.org/1999/02/22-rdf-syntax-ns#"
   xmlns:svg="http://www.w3.org/2000/svg"
   xmlns="http://www.w3.org/2000/svg"
   xmlns:sodipodi="http://sodipodi.sourceforge.net/DTD/sodipodi-0.dtd"
   xmlns:inkscape="http://www.inkscape.org/namespaces/inkscape"
   version="1.1"
   id="_0.SHG-U----------"
   x="0px"
   y="0px"
   width="128px"
   height="128px"
   viewBox="0 0 128 128"
   enable-background="new 0 0 128 128"
   xml:space="preserve"
   inkscape:version="0.48.2 r9819"
   sodipodi:docname="ei.svg"><metadata
   id="metadata3349"><rdf:RDF><cc:Work
       rdf:about=""><dc:format>image/svg+xml</dc:format><dc:type
         rdf:resource="http://purl.org/dc/dcmitype/StillImage" /></cc:Work></rdf:RDF></metadata><defs
   id="defs3347" /><sodipodi:namedview
   pagecolor="#ffffff"
   bordercolor="#666666"
   borderopacity="1"
   objecttolerance="10"
   gridtolerance="10"
   guidetolerance="10"
   inkscape:pageopacity="0"
   inkscape:pageshadow="2"
   inkscape:window-width="640"
   inkscape:window-height="480"
   id="namedview3345"
   showgrid="false"
   inkscape:zoom="1.84375"
   inkscape:cx="64"
   inkscape:cy="64"
   inkscape:window-x="0"
   inkscape:window-y="0"
   inkscape:window-maximized="0"
   inkscape:current-layer="_0.SHG-U----------" />
<g
   id="g3333">
	<path
   fill="#010101"
   d="M51.001,68.988l3.749-5.729l-3.397-5.248h2.589l2.202,3.525l2.151-3.525h2.571l-3.409,5.327l3.746,5.645   h-2.67l-2.437-3.793l-2.442,3.793H51v0.004h0.001V68.988L51.001,68.988z"
   id="path3335"
   style="fill:#ffffff" />
	<path
   fill="#010101"
   d="M65.807,68.988l3.75-5.729l-3.404-5.249h2.591l2.198,3.528l2.15-3.528h2.572l-3.412,5.329L76,68.982h-2.67   l-2.432-3.793l-2.441,3.795h-2.654v0.004H65.807L65.807,68.988z"
   id="path3337"
   style="fill:#ffffff" />
</g>
<rect
   x="46.5"
   y="53.5"
   width="2"
   height="18"
   id="rect3339"
   style="fill:#ffffff" />
<rect
   x="78.5"
   y="53.5"
   width="2"
   height="18"
   id="rect3341"
   style="fill:#ffffff" />
<rect
   x="46.5"
   y="53.5"
   width="34"
   height="2"
   id="rect3343"
   style="fill:#ffffff" />
</svg>