<?xml version="1.0" encoding="UTF-8" standalone="no"?>
<!-- Generator: Adobe Illustrator 13.0.1, SVG Export Plug-In . SVG Version: 6.00 Build 14948)  -->

<svg
   xmlns:dc="http://purl.org/dc/elements/1.1/"
   xmlns:cc="http://creativecommons.org/ns#"
   xmlns:rdf="http://www.w3.org/1999/02/22-rdf-syntax-ns#"
   xmlns:svg="http://www.w3.org/2000/svg"
   xmlns="http://www.w3.org/2000/svg"
   xmlns:sodipodi="http://sodipodi.sourceforge.net/DTD/sodipodi-0.dtd"
   xmlns:inkscape="http://www.inkscape.org/namespaces/inkscape"
   version="1.1"
   id="_0.SHG-U----------"
   x="0px"
   y="0px"
   width="128px"
   height="128px"
   viewBox="0 0 128 128"
   enable-background="new 0 0 128 128"
   xml:space="preserve"
   inkscape:version="0.48.2 r9819"
   sodipodi:docname="el.svg"><metadata
   id="metadata3418"><rdf:RDF><cc:Work
       rdf:about=""><dc:format>image/svg+xml</dc:format><dc:type
         rdf:resource="http://purl.org/dc/dcmitype/StillImage" /></cc:Work></rdf:RDF></metadata><defs
   id="defs3416" /><sodipodi:namedview
   pagecolor="#ffffff"
   bordercolor="#666666"
   borderopacity="1"
   objecttolerance="10"
   gridtolerance="10"
   guidetolerance="10"
   inkscape:pageopacity="0"
   inkscape:pageshadow="2"
   inkscape:window-width="721"
   inkscape:window-height="480"
   id="namedview3414"
   showgrid="false"
   inkscape:zoom="5.0455309"
   inkscape:cx="32.894249"
   inkscape:cy="65.084746"
   inkscape:window-x="0"
   inkscape:window-y="0"
   inkscape:window-maximized="0"
   inkscape:current-layer="_0.SHG-U----------" />
<g
   id="g3396">
	<path
   fill="#010101"
   d="M30.001,68.988l3.749-5.729l-3.397-5.246h2.591l2.199,3.525l2.156-3.525h2.568l-3.414,5.326l3.75,5.644   H37.53l-2.433-3.793l-2.44,3.795H30L30.001,68.988L30.001,68.988z"
   id="path3398"
   style="fill:#ffffff" />
	<path
   fill="#010101"
   d="M44.203,68.988l3.748-5.729l-3.397-5.248h2.589l2.201,3.525l2.154-3.525h2.568l-3.413,5.327l3.749,5.645   H51.73l-2.433-3.795l-2.44,3.795h-2.656v0.007L44.203,68.988L44.203,68.988z"
   id="path3400"
   style="fill:#ffffff" />
	<path
   fill="#010101"
   d="M58.406,68.988l3.752-5.729l-3.4-5.248h2.584l2.201,3.525l2.156-3.525h2.568l-3.412,5.329l3.746,5.643   h-2.668l-2.438-3.789l-2.439,3.789H58.4v0.007L58.406,68.988L58.406,68.988z"
   id="path3402"
   style="fill:#ffffff" />
	<path
   fill="#010101"
   d="M72.602,68.988l3.748-5.729l-3.396-5.248h2.588l2.203,3.525l2.149-3.525h2.57l-3.408,5.327l3.744,5.645   h-2.67l-2.438-3.793l-2.441,3.793H72.6v0.004h0.002V68.988L72.602,68.988z"
   id="path3404"
   style="fill:#ffffff" />
	<path
   fill="#010101"
   d="M86.807,68.988l3.75-5.729l-3.404-5.249h2.591l2.198,3.528l2.15-3.528h2.572l-3.412,5.329L97,68.982h-2.67   l-2.432-3.793l-2.441,3.795h-2.654v0.004H86.807L86.807,68.988z"
   id="path3406"
   style="fill:#ffffff" />
</g>
<rect
   x="25.5"
   y="53.5"
   width="2"
   height="18"
   id="rect3408"
   style="fill:#ffffff" />
<rect
   x="99.5"
   y="53.5"
   width="2"
   height="18"
   id="rect3410"
   style="fill:#ffffff" />
<rect
   x="25.5"
   y="53.5"
   width="76"
   height="2"
   id="rect3412"
   style="fill:#ffffff" />
</svg>