<?xml version="1.0" encoding="UTF-8" standalone="no"?>
<!-- Generator: Adobe Illustrator 13.0.1, SVG Export Plug-In . SVG Version: 6.00 Build 14948)  -->

<svg
   xmlns:dc="http://purl.org/dc/elements/1.1/"
   xmlns:cc="http://creativecommons.org/ns#"
   xmlns:rdf="http://www.w3.org/1999/02/22-rdf-syntax-ns#"
   xmlns:svg="http://www.w3.org/2000/svg"
   xmlns="http://www.w3.org/2000/svg"
   xmlns:sodipodi="http://sodipodi.sourceforge.net/DTD/sodipodi-0.dtd"
   xmlns:inkscape="http://www.inkscape.org/namespaces/inkscape"
   version="1.1"
   id="_0.SFG-U----------"
   x="0px"
   y="0px"
   width="400px"
   height="400px"
   viewBox="0 0 400 400"
   enable-background="new 0 0 400 400"
   xml:space="preserve"
   inkscape:version="0.48.2 r9819"
   sodipodi:docname="f-_119.svg"><metadata
   id="metadata3502"><rdf:RDF><cc:Work
       rdf:about=""><dc:format>image/svg+xml</dc:format><dc:type
         rdf:resource="http://purl.org/dc/dcmitype/StillImage" /></cc:Work></rdf:RDF></metadata><defs
   id="defs3500" /><sodipodi:namedview
   pagecolor="#ffffff"
   bordercolor="#666666"
   borderopacity="1"
   objecttolerance="10"
   gridtolerance="10"
   guidetolerance="10"
   inkscape:pageopacity="0"
   inkscape:pageshadow="2"
   inkscape:window-width="640"
   inkscape:window-height="480"
   id="namedview3498"
   showgrid="false"
   inkscape:zoom="0.59"
   inkscape:cx="200"
   inkscape:cy="200"
   inkscape:window-x="0"
   inkscape:window-y="0"
   inkscape:window-maximized="0"
   inkscape:current-layer="_0.SFG-U----------" />
<path
   d="M376.168,279.557l-36.471-31.109c-2.104-1.793-2.354-4.949-0.559-7.049l0,0c1.791-2.1,4.945-2.352,7.047-0.559l0,0  l36.473,31.108c2.1,1.791,2.352,4.946,0.559,7.049l0,0c-0.988,1.159-2.393,1.755-3.807,1.755l0,0  C378.264,280.752,377.109,280.359,376.168,279.557L376.168,279.557z M15.782,278.997c-1.791-2.103-1.541-5.258,0.559-7.049l0,0  l49.455-42.184c2.1-1.791,5.255-1.54,7.049,0.56l0,0c1.791,2.102,1.541,5.258-0.56,7.049l0,0l-49.455,42.184  c-0.941,0.803-2.094,1.195-3.242,1.195l0,0C18.176,280.752,16.771,280.156,15.782,278.997L15.782,278.997z M324.479,235.469  l-49.455-42.182c-2.1-1.791-2.35-4.949-0.559-7.049l0,0c1.791-2.1,4.949-2.353,7.049-0.559l0,0l49.455,42.181  c2.1,1.791,2.352,4.948,0.559,7.049l0,0c-0.988,1.159-2.393,1.755-3.807,1.755l0,0C326.574,236.664,325.42,236.271,324.479,235.469  L324.479,235.469z M80.453,223.836c-1.791-2.102-1.541-5.257,0.559-7.049l0,0l49.455-42.181c2.1-1.793,5.255-1.543,7.049,0.56l0,0  c1.791,2.1,1.541,5.255-0.56,7.048l0,0l-49.455,42.181c-0.941,0.803-2.094,1.196-3.242,1.196l0,0  C82.847,225.591,81.442,224.996,80.453,223.836L80.453,223.836z M259.809,180.308l-49.455-42.181  c-2.1-1.791-2.352-4.948-0.559-7.049l0,0c1.791-2.1,4.947-2.352,7.047-0.559l0,0l49.455,42.181c2.102,1.791,2.352,4.949,0.561,7.049  l0,0c-0.99,1.159-2.395,1.755-3.809,1.755l0,0C261.902,181.504,260.748,181.111,259.809,180.308L259.809,180.308z M145.124,168.676  c-1.792-2.102-1.541-5.258,0.559-7.049l0,0l49.455-42.183c2.1-1.792,5.255-1.541,7.048,0.559l0,0  c1.791,2.102,1.541,5.258-0.559,7.049l0,0l-49.455,42.183c-0.941,0.803-2.094,1.195-3.242,1.195l0,0  C147.518,170.431,146.113,169.835,145.124,168.676L145.124,168.676z"
   id="path3496"
   style="fill:#ffffff" />
</svg>