<?xml version="1.0" encoding="UTF-8" standalone="no"?>
<!-- Generator: Adobe Illustrator 13.0.1, SVG Export Plug-In . SVG Version: 6.00 Build 14948)  -->

<svg
   xmlns:dc="http://purl.org/dc/elements/1.1/"
   xmlns:cc="http://creativecommons.org/ns#"
   xmlns:rdf="http://www.w3.org/1999/02/22-rdf-syntax-ns#"
   xmlns:svg="http://www.w3.org/2000/svg"
   xmlns="http://www.w3.org/2000/svg"
   xmlns:sodipodi="http://sodipodi.sourceforge.net/DTD/sodipodi-0.dtd"
   xmlns:inkscape="http://www.inkscape.org/namespaces/inkscape"
   version="1.1"
   id="_0.SNG-U----------"
   x="0px"
   y="0px"
   width="400px"
   height="400px"
   viewBox="0 0 400 400"
   enable-background="new 0 0 400 400"
   xml:space="preserve"
   inkscape:version="0.48.2 r9819"
   sodipodi:docname="f-_88.svg"><metadata
   id="metadata3475"><rdf:RDF><cc:Work
       rdf:about=""><dc:format>image/svg+xml</dc:format><dc:type
         rdf:resource="http://purl.org/dc/dcmitype/StillImage" /></cc:Work></rdf:RDF></metadata><defs
   id="defs3473" /><sodipodi:namedview
   pagecolor="#ffffff"
   bordercolor="#666666"
   borderopacity="1"
   objecttolerance="10"
   gridtolerance="10"
   guidetolerance="10"
   inkscape:pageopacity="0"
   inkscape:pageshadow="2"
   inkscape:window-width="640"
   inkscape:window-height="480"
   id="namedview3471"
   showgrid="false"
   inkscape:zoom="0.59"
   inkscape:cx="200"
   inkscape:cy="200"
   inkscape:window-x="0"
   inkscape:window-y="0"
   inkscape:window-maximized="0"
   inkscape:current-layer="_0.SNG-U----------" />
<path
   d="M327.646,279.487l-42.218-49.099c-1.8-2.094-1.562-5.25,0.533-7.052l0,0c2.094-1.8,5.25-1.562,7.05,0.533l0,0l42.216,49.101  c1.799,2.092,1.563,5.248-0.531,7.05l0,0c-0.943,0.811-2.103,1.208-3.257,1.208l0,0  C330.033,281.229,328.635,280.638,327.646,279.487L327.646,279.487z M64.304,280.021c-2.094-1.802-2.332-4.958-0.532-7.05l0,0  l42.376-49.289c1.8-2.095,4.956-2.333,7.05-0.533l0,0c2.095,1.802,2.333,4.958,0.531,7.053l0,0l-42.374,49.286  c-0.989,1.15-2.388,1.741-3.795,1.741l0,0C66.406,281.229,65.247,280.831,64.304,280.021L64.304,280.021z M272.39,215.223  l-42.376-49.287c-1.8-2.094-1.562-5.25,0.533-7.052l0,0c2.094-1.8,5.25-1.562,7.05,0.533l0,0l42.376,49.286  c1.8,2.095,1.563,5.251-0.532,7.051l0,0c-0.943,0.812-2.103,1.21-3.257,1.209l0,0C274.777,216.963,273.379,216.373,272.39,215.223  L272.39,215.223z M119.717,215.565c-2.094-1.8-2.33-4.956-0.531-7.05l0,0l42.377-49.287c1.8-2.095,4.956-2.333,7.05-0.533l0,0  c2.095,1.802,2.333,4.958,0.531,7.053l0,0l-42.374,49.286c-0.99,1.15-2.388,1.741-3.795,1.741l0,0  C121.821,216.775,120.661,216.378,119.717,215.565L119.717,215.565z M216.975,150.77l-17.476-20.327l-17.316,20.139h0.002  c-1.802,2.095-4.958,2.333-7.053,0.533l0,0c-2.095-1.802-2.333-4.958-0.531-7.052l0,0l21.107-24.55  c0.955-1.111,2.326-1.741,3.791-1.741l0,0c1.465,0,2.834,0.632,3.791,1.741l0,0l21.268,24.739c1.802,2.093,1.563,5.251-0.532,7.051  l0,0c-0.944,0.811-2.104,1.208-3.257,1.208l0,0C219.362,152.511,217.964,151.92,216.975,150.77L216.975,150.77z"
   id="path3469"
   style="fill:#ffffff" />
</svg>