<?xml version="1.0" encoding="UTF-8" standalone="no"?>
<!-- Generator: Adobe Illustrator 13.0.1, SVG Export Plug-In . SVG Version: 6.00 Build 14948)  -->

<svg
   xmlns:dc="http://purl.org/dc/elements/1.1/"
   xmlns:cc="http://creativecommons.org/ns#"
   xmlns:rdf="http://www.w3.org/1999/02/22-rdf-syntax-ns#"
   xmlns:svg="http://www.w3.org/2000/svg"
   xmlns="http://www.w3.org/2000/svg"
   xmlns:sodipodi="http://sodipodi.sourceforge.net/DTD/sodipodi-0.dtd"
   xmlns:inkscape="http://www.inkscape.org/namespaces/inkscape"
   version="1.1"
   id="_0.SFG-E----------"
   x="0px"
   y="0px"
   width="400px"
   height="400px"
   viewBox="0 0 400 400"
   enable-background="new 0 0 400 400"
   xml:space="preserve"
   inkscape:version="0.48.2 r9819"
   sodipodi:docname="f-_93.svg"><metadata
   id="metadata3484"><rdf:RDF><cc:Work
       rdf:about=""><dc:format>image/svg+xml</dc:format><dc:type
         rdf:resource="http://purl.org/dc/dcmitype/StillImage" /></cc:Work></rdf:RDF></metadata><defs
   id="defs3482" /><sodipodi:namedview
   pagecolor="#ffffff"
   bordercolor="#666666"
   borderopacity="1"
   objecttolerance="10"
   gridtolerance="10"
   guidetolerance="10"
   inkscape:pageopacity="0"
   inkscape:pageshadow="2"
   inkscape:window-width="640"
   inkscape:window-height="480"
   id="namedview3480"
   showgrid="false"
   inkscape:zoom="0.59"
   inkscape:cx="200"
   inkscape:cy="200"
   inkscape:window-x="0"
   inkscape:window-y="0"
   inkscape:window-maximized="0"
   inkscape:current-layer="_0.SFG-E----------" />
<path
   d="M57.547,279.874c-2.013-1.888-2.116-5.053-0.226-7.066l0,0l44.466-47.409c1.89-2.016,5.055-2.116,7.068-0.227l0,0  c2.013,1.888,2.116,5.053,0.226,7.066l0,0l-44.466,47.409c-0.984,1.05-2.314,1.58-3.647,1.58l0,0  C59.742,281.228,58.513,280.779,57.547,279.874L57.547,279.874z M334.387,268.136l-44.469-47.41  c-1.889-2.013-1.787-5.178,0.227-7.067l0,0c2.014-1.888,5.178-1.787,7.066,0.226l0,0l44.469,47.41  c1.887,2.015,1.787,5.178-0.227,7.067l0,0c-0.965,0.905-2.193,1.354-3.42,1.354l0,0  C336.701,269.716,335.371,269.186,334.387,268.136L334.387,268.136z M115.696,217.877c-2.013-1.891-2.114-5.053-0.226-7.068l0,0  l44.469-47.407c1.888-2.016,5.053-2.116,7.066-0.227l0,0c2.015,1.888,2.115,5.053,0.228,7.066l0,0l-44.468,47.409  c-0.984,1.05-2.314,1.58-3.647,1.58l0,0C117.89,219.23,116.661,218.782,115.696,217.877L115.696,217.877z M276.236,206.139  l-44.467-47.41c-1.891-2.013-1.791-5.178,0.225-7.065l0,0c2.014-1.89,5.178-1.79,7.068,0.226l0,0l44.469,47.408  c1.887,2.015,1.787,5.178-0.229,7.067l0,0c-0.965,0.905-2.193,1.354-3.42,1.354l0,0  C278.551,207.719,277.219,207.188,276.236,206.139L276.236,206.139z M173.846,155.88c-2.015-1.888-2.115-5.053-0.226-7.068l0,0  l27.631-29.459c0.941-1.003,2.273-1.58,3.648-1.58l0,0c1.371,0,2.705,0.577,3.645,1.58l0,0l16.836,17.949  c1.889,2.013,1.787,5.178-0.229,7.067l0,0c-2.014,1.888-5.178,1.787-7.066-0.228l0,0l-13.188-14.061l-23.984,25.572  c-0.984,1.05-2.314,1.58-3.648,1.58l0,0C176.04,157.233,174.811,156.785,173.846,155.88L173.846,155.88z"
   id="path3478"
   style="fill:#ffffff" />
</svg>