<?xml version="1.0" encoding="UTF-8" standalone="no"?>
<!-- Generator: Adobe Illustrator 13.0.1, SVG Export Plug-In . SVG Version: 6.00 Build 14948)  -->

<svg
   xmlns:dc="http://purl.org/dc/elements/1.1/"
   xmlns:cc="http://creativecommons.org/ns#"
   xmlns:rdf="http://www.w3.org/1999/02/22-rdf-syntax-ns#"
   xmlns:svg="http://www.w3.org/2000/svg"
   xmlns="http://www.w3.org/2000/svg"
   xmlns:sodipodi="http://sodipodi.sourceforge.net/DTD/sodipodi-0.dtd"
   xmlns:inkscape="http://www.inkscape.org/namespaces/inkscape"
   version="1.1"
   id="_0.SNG-U----------"
   x="0px"
   y="0px"
   width="400px"
   height="400px"
   viewBox="0 0 400 400"
   enable-background="new 0 0 400 400"
   xml:space="preserve"
   inkscape:version="0.48.2 r9819"
   sodipodi:docname="mo.svg"><metadata
   id="metadata3526"><rdf:RDF><cc:Work
       rdf:about=""><dc:format>image/svg+xml</dc:format><dc:type
         rdf:resource="http://purl.org/dc/dcmitype/StillImage" /></cc:Work></rdf:RDF></metadata><defs
   id="defs3524" /><sodipodi:namedview
   pagecolor="#ffffff"
   bordercolor="#666666"
   borderopacity="1"
   objecttolerance="10"
   gridtolerance="10"
   guidetolerance="10"
   inkscape:pageopacity="0"
   inkscape:pageshadow="2"
   inkscape:window-width="640"
   inkscape:window-height="480"
   id="namedview3522"
   showgrid="false"
   inkscape:zoom="0.59"
   inkscape:cx="200"
   inkscape:cy="200"
   inkscape:window-x="0"
   inkscape:window-y="0"
   inkscape:window-maximized="0"
   inkscape:current-layer="_0.SNG-U----------" />
<g
   id="g3514">
	<path
   d="m 70.874,199.865 c 0,-10.771 -8.652,-18.661 -19.443,-18.661 -10.788,0 -18.707,7.89 -18.707,18.661 0,10.036 7.922,18.646 18.707,18.646 10.794,0.001 19.443,-8.61 19.443,-18.646 z"
   id="path3516"
   style="fill:none;stroke:#ffffff;stroke-width:10;stroke-linecap:round"
   inkscape:connector-curvature="0" />
	<path
   d="m 366.765,199.865 c 0,-10.771 -8.648,-18.661 -18.724,-18.661 -10.806,0 -18.727,7.89 -18.727,18.661 0,10.036 7.927,18.646 18.727,18.646 10.075,0.001 18.724,-8.61 18.724,-18.646 z"
   id="path3518"
   style="fill:none;stroke:#ffffff;stroke-width:10;stroke-linecap:round"
   inkscape:connector-curvature="0" />
	
		<line
   x1="31.996"
   y1="180.489"
   x2="366.03299"
   y2="180.489"
   id="line3520"
   style="fill:none;stroke:#ffffff;stroke-width:10;stroke-linecap:round" />
</g>
</svg>