<?xml version="1.0" encoding="UTF-8" standalone="no"?>
<!-- Generator: Adobe Illustrator 13.0.1, SVG Export Plug-In . SVG Version: 6.00 Build 14948)  -->

<svg
   xmlns:dc="http://purl.org/dc/elements/1.1/"
   xmlns:cc="http://creativecommons.org/ns#"
   xmlns:rdf="http://www.w3.org/1999/02/22-rdf-syntax-ns#"
   xmlns:svg="http://www.w3.org/2000/svg"
   xmlns="http://www.w3.org/2000/svg"
   xmlns:sodipodi="http://sodipodi.sourceforge.net/DTD/sodipodi-0.dtd"
   xmlns:inkscape="http://www.inkscape.org/namespaces/inkscape"
   version="1.1"
   id="_0.SNG-U----------"
   x="0px"
   y="0px"
   width="400px"
   height="400px"
   viewBox="0 0 400 400"
   enable-background="new 0 0 400 400"
   xml:space="preserve"
   inkscape:version="0.48.2 r9819"
   sodipodi:docname="mp.svg"><metadata
   id="metadata3543"><rdf:RDF><cc:Work
       rdf:about=""><dc:format>image/svg+xml</dc:format><dc:type
         rdf:resource="http://purl.org/dc/dcmitype/StillImage" /></cc:Work></rdf:RDF></metadata><defs
   id="defs3541" /><sodipodi:namedview
   pagecolor="#ffffff"
   bordercolor="#666666"
   borderopacity="1"
   objecttolerance="10"
   gridtolerance="10"
   guidetolerance="10"
   inkscape:pageopacity="0"
   inkscape:pageshadow="2"
   inkscape:window-width="640"
   inkscape:window-height="480"
   id="namedview3539"
   showgrid="false"
   inkscape:zoom="0.59"
   inkscape:cx="200"
   inkscape:cy="200"
   inkscape:window-x="0"
   inkscape:window-y="0"
   inkscape:window-maximized="0"
   inkscape:current-layer="_0.SNG-U----------" />
<g
   id="g3529">
	<path
   d="m 366.413,199.882 c 0,-11.048 -8.631,-19.147 -18.685,-19.147 -10.777,0 -18.685,8.099 -18.685,19.147 0,10.306 7.907,19.125 18.685,19.125 10.054,0 18.685,-8.819 18.685,-19.125 z"
   id="path3531"
   style="fill:none;stroke:#ffffff;stroke-width:10;stroke-linecap:round"
   inkscape:connector-curvature="0" />
	
		<line
   x1="32.351002"
   y1="179.994"
   x2="365.68799"
   y2="179.994"
   id="line3533"
   style="fill:none;stroke:#ffffff;stroke-width:10;stroke-linecap:round" />
	<path
   d="m 218.416,199.882 c 0,-11.048 -8.618,-19.147 -18.672,-19.147 -10.781,0 -18.683,8.099 -18.683,19.147 0,10.306 7.906,19.125 18.683,19.125 10.06,0 18.672,-8.819 18.672,-19.125 z"
   id="path3535"
   style="fill:none;stroke:#ffffff;stroke-width:10;stroke-linecap:round"
   inkscape:connector-curvature="0" />
	<path
   d="m 71.148,199.882 c 0,-11.048 -8.632,-19.147 -19.4,-19.147 -10.769,0 -18.674,8.099 -18.674,19.147 0,10.306 7.908,19.125 18.674,19.125 10.766,0 19.4,-8.819 19.4,-19.125 z"
   id="path3537"
   style="fill:none;stroke:#ffffff;stroke-width:10;stroke-linecap:round"
   inkscape:connector-curvature="0" />
</g>
</svg>