<?xml version="1.0" encoding="UTF-8" standalone="no"?>
<!-- Generator: Adobe Illustrator 13.0.1, SVG Export Plug-In . SVG Version: 6.00 Build 14948)  -->

<svg
   xmlns:dc="http://purl.org/dc/elements/1.1/"
   xmlns:cc="http://creativecommons.org/ns#"
   xmlns:rdf="http://www.w3.org/1999/02/22-rdf-syntax-ns#"
   xmlns:svg="http://www.w3.org/2000/svg"
   xmlns="http://www.w3.org/2000/svg"
   xmlns:sodipodi="http://sodipodi.sourceforge.net/DTD/sodipodi-0.dtd"
   xmlns:inkscape="http://www.inkscape.org/namespaces/inkscape"
   version="1.1"
   id="_0.SNG-U----------"
   x="0px"
   y="0px"
   width="400px"
   height="400px"
   viewBox="0 0 400 400"
   enable-background="new 0 0 400 400"
   xml:space="preserve"
   inkscape:version="0.48.2 r9819"
   sodipodi:docname="ms.svg"><metadata
   id="metadata3580"><rdf:RDF><cc:Work
       rdf:about=""><dc:format>image/svg+xml</dc:format><dc:type
         rdf:resource="http://purl.org/dc/dcmitype/StillImage" /></cc:Work></rdf:RDF></metadata><defs
   id="defs3578" /><sodipodi:namedview
   pagecolor="#ffffff"
   bordercolor="#666666"
   borderopacity="1"
   objecttolerance="10"
   gridtolerance="10"
   guidetolerance="10"
   inkscape:pageopacity="0"
   inkscape:pageshadow="2"
   inkscape:window-width="640"
   inkscape:window-height="480"
   id="namedview3576"
   showgrid="false"
   inkscape:zoom="0.59"
   inkscape:cx="200"
   inkscape:cy="200"
   inkscape:window-x="0"
   inkscape:window-y="0"
   inkscape:window-maximized="0"
   inkscape:current-layer="_0.SNG-U----------" />
<g
   id="g3568">
	<path
   d="m 70.088,199.136 c 0,-10.811 -8.655,-18.744 -18.744,-18.744 -10.811,0 -18.737,7.933 -18.737,18.744 0,10.815 7.93,19.473 18.737,19.473 10.089,-0.006 18.744,-8.658 18.744,-19.473 z"
   id="path3570"
   style="fill:none;stroke:#ffffff;stroke-width:10"
   inkscape:connector-curvature="0" />
	<path
   d="m 366.394,199.136 c 0,-10.811 -8.646,-18.744 -18.753,-18.744 -10.812,0 -18.725,7.933 -18.725,18.744 0,10.815 7.917,19.473 18.725,19.473 10.107,-0.006 18.753,-8.658 18.753,-19.473 z"
   id="path3572"
   style="fill:none;stroke:#ffffff;stroke-width:10"
   inkscape:connector-curvature="0" />
	<line
   x1="70.811996"
   y1="199.136"
   x2="328.91599"
   y2="199.136"
   id="line3574"
   style="fill:none;stroke:#ffffff;stroke-width:10" />
</g>
</svg>