<?xml version="1.0" encoding="UTF-8" standalone="no"?>
<!-- Generator: Adobe Illustrator 13.0.1, SVG Export Plug-In . SVG Version: 6.00 Build 14948)  -->

<svg
   xmlns:dc="http://purl.org/dc/elements/1.1/"
   xmlns:cc="http://creativecommons.org/ns#"
   xmlns:rdf="http://www.w3.org/1999/02/22-rdf-syntax-ns#"
   xmlns:svg="http://www.w3.org/2000/svg"
   xmlns="http://www.w3.org/2000/svg"
   xmlns:sodipodi="http://sodipodi.sourceforge.net/DTD/sodipodi-0.dtd"
   xmlns:inkscape="http://www.inkscape.org/namespaces/inkscape"
   version="1.1"
   id="_0.SNG-U----------"
   x="0px"
   y="0px"
   width="400px"
   height="400px"
   viewBox="0 0 400 400"
   enable-background="new 0 0 400 400"
   xml:space="preserve"
   inkscape:version="0.48.2 r9819"
   sodipodi:docname="mt.svg"><metadata
   id="metadata3599"><rdf:RDF><cc:Work
       rdf:about=""><dc:format>image/svg+xml</dc:format><dc:type
         rdf:resource="http://purl.org/dc/dcmitype/StillImage" /></cc:Work></rdf:RDF></metadata><defs
   id="defs3597" /><sodipodi:namedview
   pagecolor="#ffffff"
   bordercolor="#666666"
   borderopacity="1"
   objecttolerance="10"
   gridtolerance="10"
   guidetolerance="10"
   inkscape:pageopacity="0"
   inkscape:pageshadow="2"
   inkscape:window-width="640"
   inkscape:window-height="480"
   id="namedview3595"
   showgrid="false"
   inkscape:zoom="0.59"
   inkscape:cx="200"
   inkscape:cy="200"
   inkscape:window-x="0"
   inkscape:window-y="0"
   inkscape:window-maximized="0"
   inkscape:current-layer="_0.SNG-U----------" />
<g
   id="g3583">
	
		<line
   stroke-miterlimit="10"
   x1="32.528999"
   y1="180.431"
   x2="366.47198"
   y2="180.431"
   id="line3585"
   style="fill:none;stroke:#ffffff;stroke-width:10;stroke-linecap:round;stroke-linejoin:round;stroke-miterlimit:10" />
	<path
   stroke-miterlimit="10"
   d="m 71.392,199.854 c 0,-10.782 -8.648,-18.697 -19.436,-18.697 -10.786,0 -18.708,7.916 -18.708,18.697 0,10.068 7.919,18.714 18.708,18.714 10.792,0 19.436,-8.639 19.436,-18.714 z"
   id="path3587"
   style="fill:none;stroke:#ffffff;stroke-width:10;stroke-linecap:round;stroke-linejoin:round;stroke-miterlimit:10"
   inkscape:connector-curvature="0" />
	<path
   stroke-miterlimit="10"
   d="m 111.692,199.854 c 0,-10.782 -8.639,-18.697 -18.708,-18.697 -10.791,0 -18.708,7.916 -18.708,18.697 0,10.068 7.917,18.714 18.708,18.714 10.07,0 18.708,-8.639 18.708,-18.714 z"
   id="path3589"
   style="fill:none;stroke:#ffffff;stroke-width:10;stroke-linecap:round;stroke-linejoin:round;stroke-miterlimit:10"
   inkscape:connector-curvature="0" />
	<path
   stroke-miterlimit="10"
   d="m 326.173,199.854 c 0,-10.782 -8.646,-18.697 -18.717,-18.697 -10.805,0 -18.718,7.916 -18.718,18.697 0,10.068 7.913,18.714 18.718,18.714 10.078,0 18.717,-8.639 18.717,-18.714 z"
   id="path3591"
   style="fill:none;stroke:#ffffff;stroke-width:10;stroke-linecap:round;stroke-linejoin:round;stroke-miterlimit:10"
   inkscape:connector-curvature="0" />
	<path
   stroke-miterlimit="10"
   d="m 366.472,199.854 c 0,-10.782 -8.633,-18.697 -18.72,-18.697 -10.792,0 -18.69,7.916 -18.69,18.697 0,10.068 7.898,18.714 18.69,18.714 10.09,0 18.72,-8.639 18.72,-18.714 z"
   id="path3593"
   style="fill:none;stroke:#ffffff;stroke-width:10;stroke-linecap:round;stroke-linejoin:round;stroke-miterlimit:10"
   inkscape:connector-curvature="0" />
</g>
</svg>