<?xml version="1.0" encoding="UTF-8" standalone="no"?>
<!-- Generator: Adobe Illustrator 13.0.1, SVG Export Plug-In . SVG Version: 6.00 Build 14948)  -->

<svg
   xmlns:dc="http://purl.org/dc/elements/1.1/"
   xmlns:cc="http://creativecommons.org/ns#"
   xmlns:rdf="http://www.w3.org/1999/02/22-rdf-syntax-ns#"
   xmlns:svg="http://www.w3.org/2000/svg"
   xmlns="http://www.w3.org/2000/svg"
   xmlns:sodipodi="http://sodipodi.sourceforge.net/DTD/sodipodi-0.dtd"
   xmlns:inkscape="http://www.inkscape.org/namespaces/inkscape"
   version="1.1"
   id="_0.SNG-U----------"
   x="0px"
   y="0px"
   width="400px"
   height="400px"
   viewBox="0 0 400 400"
   enable-background="new 0 0 400 400"
   xml:space="preserve"
   inkscape:version="0.48.2 r9819"
   sodipodi:docname="my.svg"><metadata
   id="metadata3654"><rdf:RDF><cc:Work
       rdf:about=""><dc:format>image/svg+xml</dc:format><dc:type
         rdf:resource="http://purl.org/dc/dcmitype/StillImage" /></cc:Work></rdf:RDF></metadata><defs
   id="defs3652" /><sodipodi:namedview
   pagecolor="#ffffff"
   bordercolor="#666666"
   borderopacity="1"
   objecttolerance="10"
   gridtolerance="10"
   guidetolerance="10"
   inkscape:pageopacity="0"
   inkscape:pageshadow="2"
   inkscape:window-width="640"
   inkscape:window-height="480"
   id="namedview3650"
   showgrid="false"
   inkscape:zoom="0.59"
   inkscape:cx="200"
   inkscape:cy="200"
   inkscape:window-x="0"
   inkscape:window-y="0"
   inkscape:window-maximized="0"
   inkscape:current-layer="_0.SNG-U----------" />
<g
   id="g3646">
	<path
   d="m 32.613,199.5 c 0,-13.165 10.672,-23.841 23.841,-23.841 13.167,0 23.84,10.677 23.84,23.841 0,13.167 10.674,23.843 23.841,23.843 13.17,0 23.844,-10.676 23.844,-23.843 0,-13.165 10.67,-23.841 23.839,-23.841 13.167,0 23.84,10.677 23.84,23.841 0,13.167 10.677,23.843 23.844,23.843 13.164,0 23.843,-10.676 23.843,-23.843 0,-13.165 10.676,-23.841 23.841,-23.841 13.17,0 23.842,10.677 23.842,23.841 0,13.167 10.67,23.843 23.84,23.843 13.171,0 23.844,-10.676 23.844,-23.843 0,-13.165 10.673,-23.841 23.836,-23.841 13.165,0 23.846,10.677 23.846,23.841"
   id="path3648"
   style="fill:none;stroke:#ffffff;stroke-width:10;stroke-linecap:round"
   inkscape:connector-curvature="0" />
</g>
</svg>