<?xml version="1.0" encoding="UTF-8" standalone="no"?>
<!-- SVG content generated using Symbology Configuration Management System (SCMS) -->

<!-- Systematic Software Engineering Ltd. - www.systematic.co.uk - do not remove  -->

<svg
    xmlns:dc="http://purl.org/dc/elements/1.1/"
    xmlns:cc="http://creativecommons.org/ns#"
    xmlns:rdf="http://www.w3.org/1999/02/22-rdf-syntax-ns#"
    xmlns:svg="http://www.w3.org/2000/svg"
    xmlns="http://www.w3.org/2000/svg"
    xmlns:sodipodi="http://sodipodi.sourceforge.net/DTD/sodipodi-0.dtd"
    xmlns:inkscape="http://www.inkscape.org/namespaces/inkscape"
    id="WAS-WSPLH-P----"
    width="230"
    height="360"
    viewBox="0 0 230 360"
    version="1.1"
    inkscape:version="0.48.2 r9819"
    sodipodi:docname="was-wsplh-p----.svg">
    <metadata
        id="metadata35">
        <rdf:RDF>
            <cc:Work
                rdf:about="">
                <dc:format>image/svg+xml</dc:format>
                <dc:type
                    rdf:resource="http://purl.org/dc/dcmitype/StillImage"/>
            </cc:Work>
        </rdf:RDF>
    </metadata>
    <defs
        id="defs33"/>
    <sodipodi:namedview
        pagecolor="#ffffff"
        bordercolor="#666666"
        borderopacity="1"
        objecttolerance="10"
        gridtolerance="10"
        guidetolerance="10"
        inkscape:pageopacity="0"
        inkscape:pageshadow="2"
        inkscape:window-width="640"
        inkscape:window-height="480"
        id="namedview31"
        showgrid="false"
        inkscape:zoom="0.59"
        inkscape:cx="115"
        inkscape:cy="180"
        inkscape:window-x="0"
        inkscape:window-y="0"
        inkscape:window-maximized="0"
        inkscape:current-layer="WAS-WSPLH-P----"/>
    <g
        transform="translate(-25,-20)"
        id="g3">
        <svg
            viewBox="0 0 400 400"
            id="_0.WAS-WSPLL-P----"
            width="400"
            height="400"
            version="1.1"
            inkscape:version="0.48.2 r9819">
            <polygon
                points="150,250 200,150 250,250 "
                style="fill:none;stroke:#c61021;stroke-width:10"
                id="polygon6"/>
            <circle
                cx="200"
                cy="210"
                r="7.5"
                style="fill:#c61021;stroke:#c61021;stroke-width:1"
                id="circle8"
                d="m 207.5,210 c 0,4.14214 -3.35786,7.5 -7.5,7.5 -4.14214,0 -7.5,-3.35786 -7.5,-7.5 0,-4.14214 3.35786,-7.5 7.5,-7.5 4.14214,0 7.5,3.35786 7.5,7.5 z"
                sodipodi:cx="200"
                sodipodi:cy="210"
                sodipodi:rx="7.5"
                sodipodi:ry="7.5"/>
        </svg>
    </g>
    <g
        transform="translate(-145,-20)"
        id="g10">
        <svg
            viewBox="0 0 400 400"
            id="_1.WAS-WSPLL-P----"
            width="400"
            height="400"
            version="1.1"
            inkscape:version="0.48.2 r9819">
            <polygon
                points="150,250 200,150 250,250 "
                style="fill:none;stroke:#c61021;stroke-width:10"
                id="polygon13"/>
            <circle
                cx="200"
                cy="210"
                r="7.5"
                style="fill:#c61021;stroke:#c61021;stroke-width:1"
                id="circle15"
                d="m 207.5,210 c 0,4.14214 -3.35786,7.5 -7.5,7.5 -4.14214,0 -7.5,-3.35786 -7.5,-7.5 0,-4.14214 3.35786,-7.5 7.5,-7.5 4.14214,0 7.5,3.35786 7.5,7.5 z"
                sodipodi:cx="200"
                sodipodi:cy="210"
                sodipodi:rx="7.5"
                sodipodi:ry="7.5"/>
        </svg>
    </g>
    <g
        transform="translate(-85,105)"
        id="g17">
        <svg
            viewBox="0 0 400 400"
            id="_2.WAS-WSPLL-P----"
            width="400"
            height="400"
            version="1.1"
            inkscape:version="0.48.2 r9819">
            <polygon
                points="150,250 200,150 250,250 "
                style="fill:none;stroke:#c61021;stroke-width:10"
                id="polygon20"/>
            <circle
                cx="200"
                cy="210"
                r="7.5"
                style="fill:#c61021;stroke:#c61021;stroke-width:1"
                id="circle22"
                d="m 207.5,210 c 0,4.14214 -3.35786,7.5 -7.5,7.5 -4.14214,0 -7.5,-3.35786 -7.5,-7.5 0,-4.14214 3.35786,-7.5 7.5,-7.5 4.14214,0 7.5,3.35786 7.5,7.5 z"
                sodipodi:cx="200"
                sodipodi:cy="210"
                sodipodi:rx="7.5"
                sodipodi:ry="7.5"/>
        </svg>
    </g>
    <g
        transform="translate(-85,-145)"
        id="g24">
        <svg
            viewBox="0 0 400 400"
            id="_3.WAS-WSPLL-P----"
            width="400"
            height="400"
            version="1.1"
            inkscape:version="0.48.2 r9819">
            <polygon
                points="150,250 200,150 250,250 "
                style="fill:none;stroke:#c61021;stroke-width:10"
                id="polygon27"/>
            <circle
                cx="200"
                cy="210"
                r="7.5"
                style="fill:#c61021;stroke:#c61021;stroke-width:1"
                id="circle29"
                d="m 207.5,210 c 0,4.14214 -3.35786,7.5 -7.5,7.5 -4.14214,0 -7.5,-3.35786 -7.5,-7.5 0,-4.14214 3.35786,-7.5 7.5,-7.5 4.14214,0 7.5,3.35786 7.5,7.5 z"
                sodipodi:cx="200"
                sodipodi:cy="210"
                sodipodi:rx="7.5"
                sodipodi:ry="7.5"/>
        </svg>
    </g>
</svg>
