<?xml version="1.0" encoding="UTF-8" standalone="no"?>
<!--
Copyright (C) 2012 United States Government as represented by the Administrator of the
National Aeronautics and Space Administration.
All Rights Reserved.
-->

<!--
MIL-STD-2525 tactical symbol icon image. During icon composition this image is multiplied by the desired frame color 
(e.g. black), then drawn on top of the frame and fill.
-->

<svg
   xmlns:dc="http://purl.org/dc/elements/1.1/"
   xmlns:cc="http://creativecommons.org/ns#"
   xmlns:rdf="http://www.w3.org/1999/02/22-rdf-syntax-ns#"
   xmlns:svg="http://www.w3.org/2000/svg"
   xmlns="http://www.w3.org/2000/svg"
   xmlns:sodipodi="http://sodipodi.sourceforge.net/DTD/sodipodi-0.dtd"
   xmlns:inkscape="http://www.inkscape.org/namespaces/inkscape"
   height="400px"
   viewBox="0 0 400 400"
   width="400px"
   id="svg2"
   version="1.1"
   inkscape:version="0.48.2 r9819"
   sodipodi:docname="ofgac----------.svg">
  <metadata
     id="metadata32">
    <rdf:RDF>
      <cc:Work
         rdf:about="">
        <dc:format>image/svg+xml</dc:format>
        <dc:type
           rdf:resource="http://purl.org/dc/dcmitype/StillImage" />
      </cc:Work>
    </rdf:RDF>
  </metadata>
  <defs
     id="defs30" />
  <sodipodi:namedview
     pagecolor="#ffffff"
     bordercolor="#666666"
     borderopacity="1"
     objecttolerance="10"
     gridtolerance="10"
     guidetolerance="10"
     inkscape:pageopacity="0"
     inkscape:pageshadow="2"
     inkscape:window-width="640"
     inkscape:window-height="480"
     id="namedview28"
     showgrid="false"
     inkscape:zoom="0.59"
     inkscape:cx="200"
     inkscape:cy="200"
     inkscape:window-x="0"
     inkscape:window-y="0"
     inkscape:window-maximized="0"
     inkscape:current-layer="svg2" />
  <ellipse
     cx="200"
     cy="195"
     rx="20"
     ry="20"
     style="fill:none;stroke:rgb(255,255,255);stroke-width:10;stroke-dasharray:10"
     id="ellipse4" />
  <line
     style="stroke:rgb(255,255,255);stroke-width:10;stroke-dasharray:10"
     x1="200"
     x2="200"
     y1="215"
     y2="310"
     id="line6" />
  <line
     style="stroke:rgb(255,255,255);stroke-width:10;stroke-dasharray:10"
     x1="175"
     x2="225"
     y1="240"
     y2="240"
     id="line8" />
  <g
     transform="translate(-60 -20)"
     id="g10">
    <ellipse
       cx="200"
       cy="195"
       rx="20"
       ry="20"
       style="fill:none;stroke:rgb(255,255,255);stroke-width:10;stroke-dasharray:10"
       id="ellipse12"
       d="m 220,195 c 0,11.04569 -8.95431,20 -20,20 -11.04569,0 -20,-8.95431 -20,-20 0,-11.04569 8.95431,-20 20,-20 11.04569,0 20,8.95431 20,20 z" />
    <line
       style="stroke:rgb(255,255,255);stroke-width:10;stroke-dasharray:10"
       x1="200"
       x2="200"
       y1="215"
       y2="310"
       id="line14" />
    <line
       style="stroke:rgb(255,255,255);stroke-width:10;stroke-dasharray:10"
       x1="175"
       x2="225"
       y1="240"
       y2="240"
       id="line16" />
  </g>
  <g
     transform="translate(60 -20)"
     id="g18">
    <ellipse
       cx="200"
       cy="195"
       rx="20"
       ry="20"
       style="fill:none;stroke:rgb(255,255,255);stroke-width:10;stroke-dasharray:10"
       id="ellipse20"
       d="m 220,195 c 0,11.04569 -8.95431,20 -20,20 -11.04569,0 -20,-8.95431 -20,-20 0,-11.04569 8.95431,-20 20,-20 11.04569,0 20,8.95431 20,20 z" />
    <line
       style="stroke:rgb(255,255,255);stroke-width:10;stroke-dasharray:10"
       x1="200"
       x2="200"
       y1="215"
       y2="310"
       id="line22" />
    <line
       style="stroke:rgb(255,255,255);stroke-width:10;stroke-dasharray:10"
       x1="175"
       x2="225"
       y1="240"
       y2="240"
       id="line24" />
  </g>
  <g
     style="font-size:55px;font-weight:bold;text-anchor:middle;fill:#ffffff;font-family:Arial"
     id="text26">
    <path
       inkscape:connector-curvature="0"
       d="m 157.81006,145 0,-32.70996 -11.68213,0 0,-6.66016 31.28662,0 0,6.66016 -11.65527,0 0,32.70996 z"
       style="font-size:55px;font-weight:bold;text-anchor:middle;fill:#ffffff;font-family:Arial"
       id="path3010" />
    <path
       inkscape:connector-curvature="0"
       d="m 182.5708,145 0,-39.37012 29.1919,0 0,6.66016 -21.24268,0 0,8.72803 19.76562,0 0,6.6333 -19.76562,0 0,10.71533 21.99463,0 0,6.6333 z"
       style="font-size:55px;font-weight:bold;text-anchor:middle;fill:#ffffff;font-family:Arial"
       id="path3012" />
    <path
       inkscape:connector-curvature="0"
       d="m 219.33594,145 0,-39.37012 16.73095,0 c 4.20734,4e-5 7.26438,0.35364 9.17115,1.06079 1.9067,0.70724 3.43299,1.96497 4.57885,3.7732 1.1458,1.8083 1.71872,3.87617 1.71875,6.20361 -3e-5,2.95413 -0.86836,5.3935 -2.60498,7.31812 -1.73668,1.92466 -4.33271,3.13763 -7.78808,3.63891 1.71872,1.00262 3.13758,2.1037 4.25659,3.30322 1.11895,1.19956 2.62733,3.33009 4.52515,6.39161 l 4.80713,7.68066 -9.50684,0 -5.74707,-8.56689 c -2.04104,-3.06152 -3.43752,-4.99063 -4.18945,-5.78736 -0.75198,-0.7967 -1.54869,-1.34276 -2.39014,-1.63818 -0.84149,-0.2954 -2.17531,-0.4431 -4.00147,-0.44312 l -1.61132,0 0,16.43555 z m 7.94922,-22.71973 5.88134,0 c 3.81346,3e-5 6.19464,-0.16111 7.14356,-0.48339 0.94887,-0.32225 1.69187,-0.87726 2.229,-1.66504 0.53708,-0.78774 0.80564,-1.77244 0.80567,-2.95411 -3e-5,-1.32484 -0.35363,-2.39458 -1.06079,-3.20922 -0.70722,-0.81459 -1.70535,-1.32932 -2.99439,-1.54419 -0.64455,-0.0895 -2.57815,-0.13425 -5.80078,-0.13428 l -6.20361,0 z"
       style="font-size:55px;font-weight:bold;text-anchor:middle;fill:#ffffff;font-family:Arial"
       id="path3014" />
  </g>
</svg>
