<?xml version="1.0" encoding="UTF-8" standalone="no"?>
<!--
Copyright (C) 2012 United States Government as represented by the Administrator of the
National Aeronautics and Space Administration.
All Rights Reserved.
-->

<!--
MIL-STD-2525 tactical symbol icon image. During icon composition this image is multiplied by the desired frame color 
(e.g. black), then drawn on top of the frame and fill.
-->

<svg
   xmlns:dc="http://purl.org/dc/elements/1.1/"
   xmlns:cc="http://creativecommons.org/ns#"
   xmlns:rdf="http://www.w3.org/1999/02/22-rdf-syntax-ns#"
   xmlns:svg="http://www.w3.org/2000/svg"
   xmlns="http://www.w3.org/2000/svg"
   xmlns:sodipodi="http://sodipodi.sourceforge.net/DTD/sodipodi-0.dtd"
   xmlns:inkscape="http://www.inkscape.org/namespaces/inkscape"
   height="400px"
   viewBox="0 0 400 400"
   width="400px"
   id="svg2"
   version="1.1"
   inkscape:version="0.48.2 r9819"
   sodipodi:docname="ofgae----------.svg">
  <metadata
     id="metadata32">
    <rdf:RDF>
      <cc:Work
         rdf:about="">
        <dc:format>image/svg+xml</dc:format>
        <dc:type
           rdf:resource="http://purl.org/dc/dcmitype/StillImage" />
      </cc:Work>
    </rdf:RDF>
  </metadata>
  <defs
     id="defs30" />
  <sodipodi:namedview
     pagecolor="#ffffff"
     bordercolor="#666666"
     borderopacity="1"
     objecttolerance="10"
     gridtolerance="10"
     guidetolerance="10"
     inkscape:pageopacity="0"
     inkscape:pageshadow="2"
     inkscape:window-width="640"
     inkscape:window-height="480"
     id="namedview28"
     showgrid="false"
     inkscape:zoom="0.59"
     inkscape:cx="200"
     inkscape:cy="200"
     inkscape:window-x="0"
     inkscape:window-y="0"
     inkscape:window-maximized="0"
     inkscape:current-layer="svg2" />
  <ellipse
     cx="200"
     cy="195"
     rx="20"
     ry="20"
     style="fill:none;stroke:rgb(255,255,255);stroke-width:10;stroke-dasharray:10"
     id="ellipse4" />
  <line
     style="stroke:rgb(255,255,255);stroke-width:10;stroke-dasharray:10"
     x1="200"
     x2="200"
     y1="215"
     y2="310"
     id="line6" />
  <line
     style="stroke:rgb(255,255,255);stroke-width:10;stroke-dasharray:10"
     x1="175"
     x2="225"
     y1="240"
     y2="240"
     id="line8" />
  <g
     transform="translate(-60 -20)"
     id="g10">
    <ellipse
       cx="200"
       cy="195"
       rx="20"
       ry="20"
       style="fill:none;stroke:rgb(255,255,255);stroke-width:10;stroke-dasharray:10"
       id="ellipse12"
       d="m 220,195 c 0,11.04569 -8.95431,20 -20,20 -11.04569,0 -20,-8.95431 -20,-20 0,-11.04569 8.95431,-20 20,-20 11.04569,0 20,8.95431 20,20 z" />
    <line
       style="stroke:rgb(255,255,255);stroke-width:10;stroke-dasharray:10"
       x1="200"
       x2="200"
       y1="215"
       y2="310"
       id="line14" />
    <line
       style="stroke:rgb(255,255,255);stroke-width:10;stroke-dasharray:10"
       x1="175"
       x2="225"
       y1="240"
       y2="240"
       id="line16" />
  </g>
  <g
     transform="translate(60 -20)"
     id="g18">
    <ellipse
       cx="200"
       cy="195"
       rx="20"
       ry="20"
       style="fill:none;stroke:rgb(255,255,255);stroke-width:10;stroke-dasharray:10"
       id="ellipse20"
       d="m 220,195 c 0,11.04569 -8.95431,20 -20,20 -11.04569,0 -20,-8.95431 -20,-20 0,-11.04569 8.95431,-20 20,-20 11.04569,0 20,8.95431 20,20 z" />
    <line
       style="stroke:rgb(255,255,255);stroke-width:10;stroke-dasharray:10"
       x1="200"
       x2="200"
       y1="215"
       y2="310"
       id="line22" />
    <line
       style="stroke:rgb(255,255,255);stroke-width:10;stroke-dasharray:10"
       x1="175"
       x2="225"
       y1="240"
       y2="240"
       id="line24" />
  </g>
  <g
     style="font-size:55px;font-weight:bold;text-anchor:middle;fill:#ffffff;font-family:Arial"
     id="text26">
    <path
       inkscape:connector-curvature="0"
       d="m 170.43213,145 0,-39.37012 26.98974,0 0,6.66016 -19.04052,0 0,9.31885 16.43554,0 0,6.66015 -16.43554,0 0,16.73096 z"
       style="font-size:55px;font-weight:bold;text-anchor:middle;fill:#ffffff;font-family:Arial"
       id="path3010" />
    <path
       inkscape:connector-curvature="0"
       d="m 204.05518,145 0,-39.37012 26.98974,0 0,6.66016 -19.04053,0 0,9.31885 16.43555,0 0,6.66015 -16.43555,0 0,16.73096 z"
       style="font-size:55px;font-weight:bold;text-anchor:middle;fill:#ffffff;font-family:Arial"
       id="path3012" />
  </g>
</svg>
