<?xml version="1.0" encoding="UTF-8" standalone="no"?>
<!--
Copyright (C) 2012 United States Government as represented by the Administrator of the
National Aeronautics and Space Administration.
All Rights Reserved.
-->

<!--
MIL-STD-2525 tactical symbol icon image. During icon composition this image is multiplied by the desired frame color 
(e.g. black), then drawn on top of the frame and fill.
-->

<svg
   xmlns:dc="http://purl.org/dc/elements/1.1/"
   xmlns:cc="http://creativecommons.org/ns#"
   xmlns:rdf="http://www.w3.org/1999/02/22-rdf-syntax-ns#"
   xmlns:svg="http://www.w3.org/2000/svg"
   xmlns="http://www.w3.org/2000/svg"
   xmlns:sodipodi="http://sodipodi.sourceforge.net/DTD/sodipodi-0.dtd"
   xmlns:inkscape="http://www.inkscape.org/namespaces/inkscape"
   height="400px"
   viewBox="0 0 400 400"
   width="400px"
   id="svg2"
   version="1.1"
   inkscape:version="0.48.2 r9819"
   sodipodi:docname="ofoaca---------.svg">
  <metadata
     id="metadata16">
    <rdf:RDF>
      <cc:Work
         rdf:about="">
        <dc:format>image/svg+xml</dc:format>
        <dc:type
           rdf:resource="http://purl.org/dc/dcmitype/StillImage" />
      </cc:Work>
    </rdf:RDF>
  </metadata>
  <defs
     id="defs14" />
  <sodipodi:namedview
     pagecolor="#ffffff"
     bordercolor="#666666"
     borderopacity="1"
     objecttolerance="10"
     gridtolerance="10"
     guidetolerance="10"
     inkscape:pageopacity="0"
     inkscape:pageshadow="2"
     inkscape:window-width="640"
     inkscape:window-height="480"
     id="namedview12"
     showgrid="false"
     inkscape:zoom="0.59"
     inkscape:cx="200"
     inkscape:cy="200"
     inkscape:window-x="0"
     inkscape:window-y="0"
     inkscape:window-maximized="0"
     inkscape:current-layer="svg2" />
  <line
     style="stroke:#ffffff;stroke-width:10;stroke-dasharray:10"
     x1="200"
     x2="200"
     y1="170"
     y2="230"
     id="line4" />
  <line
     style="stroke:#ffffff;stroke-width:10;stroke-dasharray:10"
     x1="115"
     x2="250"
     y1="200"
     y2="200"
     id="line6" />
  <ellipse
     sodipodi:ry="25"
     sodipodi:rx="25"
     sodipodi:cy="200"
     sodipodi:cx="270"
     cx="270"
     cy="200"
     rx="25"
     ry="25"
     style="fill:none;stroke:#ffffff;stroke-width:10;stroke-dasharray:10"
     id="ellipse8" />
  <g
     style="font-size:55px;font-weight:bold;text-anchor:middle;fill:#ffffff;font-family:Arial"
     id="text10">
    <path
       inkscape:connector-curvature="0"
       d="m 172.63428,130.5249 7.70752,2.44385 c -1.18168,4.29688 -3.1466,7.4882 -5.89478,9.57397 -2.74824,2.08578 -6.23497,3.12867 -10.4602,3.12867 -5.22788,0 -9.52475,-1.78589 -12.89063,-5.35767 -3.36589,-3.57177 -5.04883,-8.45498 -5.04883,-14.64966 0,-6.55271 1.69189,-11.64181 5.07569,-15.26733 3.38377,-3.62545 7.83283,-5.43819 13.34716,-5.43823 4.81606,4e-5 8.728,1.42337 11.73584,4.27002 1.79033,1.68297 3.13311,4.09996 4.02832,7.25097 l -7.86865,1.87989 c -0.46552,-2.04099 -1.43679,-3.65232 -2.91382,-4.83399 -1.47707,-1.18161 -3.27191,-1.77243 -5.38452,-1.77246 -2.91831,3e-5 -5.28606,1.0474 -7.10327,3.14209 -1.81723,2.09475 -2.72584,5.48749 -2.72583,10.17822 -1e-5,4.97723 0.89517,8.52215 2.68555,10.63477 1.79035,2.11264 4.11782,3.16895 6.98242,3.16894 2.11261,1e-5 3.92983,-0.67138 5.45166,-2.01416 1.52178,-1.34276 2.6139,-3.45539 3.27637,-6.33789 z"
       style="font-size:55px;font-weight:bold;text-anchor:middle;fill:#ffffff;font-family:Arial"
       id="path2994" />
    <path
       inkscape:connector-curvature="0"
       d="m 187.2168,105.62988 15.7373,0 c 3.11521,4e-5 5.43821,0.12984 6.969,0.38941 1.53073,0.25964 2.90036,0.80122 4.10888,1.62475 1.20847,0.82361 2.21555,1.9202 3.02124,3.2898 0.80563,1.36966 1.20846,2.9049 1.2085,4.60571 -4e-5,1.8441 -0.49686,3.536 -1.49048,5.07568 -0.99368,1.53974 -2.34093,2.69452 -4.04175,3.46436 2.39906,0.69826 4.24313,1.88885 5.53223,3.57178 1.28902,1.68296 1.93356,3.66131 1.93359,5.93506 -3e-5,1.79037 -0.41629,3.5315 -1.24878,5.22338 -0.83255,1.6919 -1.96943,3.04363 -3.41064,4.05518 -1.44128,1.01156 -3.21821,1.63371 -5.33081,1.86646 -1.3249,0.14322 -4.52069,0.23274 -9.5874,0.26855 l -13.40088,0 z m 7.94922,6.55274 0,9.104 5.20996,0 c 3.09731,2e-5 5.02195,-0.0447 5.77392,-0.13428 1.36066,-0.16111 2.4304,-0.63108 3.20923,-1.40991 0.77878,-0.77878 1.16819,-1.80376 1.16821,-3.07495 -2e-5,-1.21742 -0.33572,-2.20659 -1.00708,-2.96753 -0.67141,-0.76087 -1.66954,-1.22189 -2.99438,-1.38306 -0.78778,-0.0895 -3.05259,-0.13424 -6.79443,-0.13427 z m 0,15.65674 0,10.52734 7.35839,0 c 2.86457,1e-5 4.68178,-0.0806 5.45166,-0.2417 1.18162,-0.21484 2.14394,-0.73852 2.88697,-1.57104 0.74297,-0.83252 1.11447,-1.94702 1.1145,-3.34351 -3e-5,-1.18163 -0.28649,-2.18423 -0.85938,-3.00781 -0.57294,-0.82356 -1.40098,-1.42333 -2.48413,-1.79932 -1.08319,-0.37596 -3.43304,-0.56395 -7.04956,-0.56396 z"
       style="font-size:55px;font-weight:bold;text-anchor:middle;fill:#ffffff;font-family:Arial"
       id="path2996" />
    <path
       inkscape:connector-curvature="0"
       d="m 235.79834,145 0,-32.70996 -11.68213,0 0,-6.66016 31.28662,0 0,6.66016 -11.65527,0 0,32.70996 z"
       style="font-size:55px;font-weight:bold;text-anchor:middle;fill:#ffffff;font-family:Arial"
       id="path2998" />
  </g>
</svg>
