<?xml version="1.0"?>
<!--
Copyright (C) 2012 United States Government as represented by the Administrator of the
National Aeronautics and Space Administration.
All Rights Reserved.
-->

<!DOCTYPE svg PUBLIC "-//W3C//DTD SVG 1.1//EN" "http://www.w3.org/Graphics/SVG/1.1/DTD/svg11.dtd" >
<!--
MIL-STD-2525 tactical symbol icon image. During icon composition this image is multiplied by the desired frame color 
(e.g. black), then drawn on top of the frame and fill.
-->
<svg xmlns:xlink="http://www.w3.org/1999/xlink" height="400px" viewBox="0 0 400 400" width="400px"><g transform="translate(370 21) rotate(90)"><path d="M95 200 C95 230 137 230 137 200 C137 170 179 170 179 200 C179 230 221 230 221 200     C221 170 263 170 263 200" style="fill:none;stroke:rgb(255,255,255);stroke-width:10"/></g><g transform="translate(430 21) rotate(90)"><path d="M95 200 C95 230 137 230 137 200 C137 170 179 170 179 200 C179 230 221 230 221 200     C221 170 263 170 263 200" style="fill:none;stroke:rgb(255,255,255);stroke-width:10"/></g></svg>