<?xml version="1.0" encoding="UTF-8" standalone="no"?>
<!--
Copyright (C) 2012 United States Government as represented by the Administrator of the
National Aeronautics and Space Administration.
All Rights Reserved.
-->

<!--
MIL-STD-2525 tactical symbol icon image. During icon composition this image is multiplied by the desired frame color 
(e.g. black), then drawn on top of the frame and fill.
-->

<svg
   xmlns:dc="http://purl.org/dc/elements/1.1/"
   xmlns:cc="http://creativecommons.org/ns#"
   xmlns:rdf="http://www.w3.org/1999/02/22-rdf-syntax-ns#"
   xmlns:svg="http://www.w3.org/2000/svg"
   xmlns="http://www.w3.org/2000/svg"
   xmlns:sodipodi="http://sodipodi.sourceforge.net/DTD/sodipodi-0.dtd"
   xmlns:inkscape="http://www.inkscape.org/namespaces/inkscape"
   height="400px"
   viewBox="0 0 400 400"
   width="400px"
   id="svg2"
   version="1.1"
   inkscape:version="0.48.2 r9819"
   sodipodi:docname="ouias----------.svg">
  <metadata
     id="metadata10">
    <rdf:RDF>
      <cc:Work
         rdf:about="">
        <dc:format>image/svg+xml</dc:format>
        <dc:type
           rdf:resource="http://purl.org/dc/dcmitype/StillImage" />
      </cc:Work>
    </rdf:RDF>
  </metadata>
  <defs
     id="defs8" />
  <sodipodi:namedview
     pagecolor="#ffffff"
     bordercolor="#666666"
     borderopacity="1"
     objecttolerance="10"
     gridtolerance="10"
     guidetolerance="10"
     inkscape:pageopacity="0"
     inkscape:pageshadow="2"
     inkscape:window-width="640"
     inkscape:window-height="480"
     id="namedview6"
     showgrid="false"
     inkscape:zoom="0.59"
     inkscape:cx="200"
     inkscape:cy="200"
     inkscape:window-x="256"
     inkscape:window-y="118"
     inkscape:window-maximized="0"
     inkscape:current-layer="svg2" />
  <g
     style="font-size:80px;font-weight:bold;text-anchor:middle;fill:#ffffff;stroke:#000000;stroke-width:4;stroke-miterlimit:4;stroke-opacity:1;stroke-dasharray:8, 4;stroke-dashoffset:0;font-family:Arial"
     id="text4">
    <path
       inkscape:connector-curvature="0"
       d="m 96.09375,210.36719 11.25,-1.09375 c 0.67707,3.77606 2.05077,6.54949 4.12109,8.32031 2.0703,1.77084 4.86326,2.65626 8.37891,2.65625 3.72393,1e-5 6.52991,-0.78775 8.41797,-2.36328 1.88798,-1.57551 2.83199,-3.41796 2.83203,-5.52735 -4e-5,-1.35414 -0.39717,-2.50649 -1.19141,-3.45703 -0.7943,-0.9505 -2.18102,-1.77732 -4.16015,-2.48047 -1.3542,-0.46872 -4.44013,-1.30205 -9.25781,-2.5 -6.19794,-1.53643 -10.54689,-3.42445 -13.04688,-5.66406 -3.515632,-3.15101 -5.273442,-6.99215 -5.273438,-11.52344 -4e-6,-2.91662 0.826818,-5.64448 2.480468,-8.18359 1.65364,-2.53901 4.03645,-4.4726 7.14844,-5.80078 3.11196,-1.32807 6.86847,-1.99213 11.26953,-1.99219 7.18747,6e-5 12.59762,1.57558 16.23047,4.72656 3.63277,3.1511 5.54032,7.35682 5.72265,12.61719 l -11.5625,0.50781 c -0.49482,-2.94266 -1.55602,-5.05854 -3.18359,-6.34765 -1.62763,-1.28902 -4.06904,-1.93355 -7.32422,-1.9336 -3.35939,5e-5 -5.9896,0.69016 -7.89062,2.07032 -1.22398,0.88546 -1.83596,2.07035 -1.83594,3.55468 -2e-5,1.35421 0.5729,2.51307 1.71875,3.47657 1.45831,1.22399 4.99998,2.50003 10.625,3.82812 5.62497,1.32816 9.78512,2.70186 12.48047,4.1211 2.69527,1.4193 4.80464,3.3594 6.32812,5.82031 1.52339,2.46096 2.28511,5.50132 2.28516,9.12109 -5e-5,3.28127 -0.91151,6.35418 -2.73438,9.21875 -1.82296,2.86459 -4.40108,4.99349 -7.73437,6.38672 -3.33337,1.39323 -7.48701,2.08984 -12.46094,2.08984 -7.2396,0 -12.79949,-1.67317 -16.67968,-5.01953 -3.880219,-3.34634 -6.197925,-8.22264 -6.95313,-14.6289 z"
       style="font-size:80px;font-weight:bold;text-anchor:middle;fill:#ffffff;stroke:#000000;stroke-width:4;stroke-miterlimit:4;stroke-opacity:1;stroke-dasharray:8, 4;stroke-dashoffset:0;font-family:Arial"
       id="path2988" />
    <path
       inkscape:connector-curvature="0"
       d="m 204.10156,229 -12.57812,0 -5,-13.00781 -22.89063,0 -4.72656,13.00781 -12.26563,0 22.30469,-57.26563 12.22656,0 z m -21.28906,-22.65625 -7.89063,-21.25 -7.73437,21.25 z"
       style="font-size:80px;font-weight:bold;text-anchor:middle;fill:#ffffff;stroke:#000000;stroke-width:4;stroke-miterlimit:4;stroke-opacity:1;stroke-dasharray:8, 4;stroke-dashoffset:0;font-family:Arial"
       id="path2990" />
    <path
       inkscape:connector-curvature="0"
       d="m 210.35156,229 0,-57.26563 39.25781,0 0,9.6875 -27.69531,0 0,13.55469 23.90625,0 0,9.6875 -23.90625,0 0,24.33594 z"
       style="font-size:80px;font-weight:bold;text-anchor:middle;fill:#ffffff;stroke:#000000;stroke-width:4;stroke-miterlimit:4;stroke-opacity:1;stroke-dasharray:8, 4;stroke-dashoffset:0;font-family:Arial"
       id="path2992" />
    <path
       inkscape:connector-curvature="0"
       d="m 259.17969,229 0,-57.26563 42.46093,0 0,9.6875 -30.89843,0 0,12.69532 28.75,0 0,9.64843 -28.75,0 0,15.58594 31.99218,0 0,9.64844 z"
       style="font-size:80px;font-weight:bold;text-anchor:middle;fill:#ffffff;stroke:#000000;stroke-width:4;stroke-miterlimit:4;stroke-opacity:1;stroke-dasharray:8, 4;stroke-dashoffset:0;font-family:Arial"
       id="path2994" />
  </g>
</svg>
