<?xml version="1.0" encoding="UTF-8" standalone="no"?>
<!--
Copyright (C) 2012 United States Government as represented by the Administrator of the
National Aeronautics and Space Administration.
All Rights Reserved.
-->

<!--
MIL-STD-2525 tactical symbol icon image. During icon composition this image is multiplied by the desired frame color 
(e.g. black), then drawn on top of the frame and fill.
-->

<svg
   xmlns:dc="http://purl.org/dc/elements/1.1/"
   xmlns:cc="http://creativecommons.org/ns#"
   xmlns:rdf="http://www.w3.org/1999/02/22-rdf-syntax-ns#"
   xmlns:svg="http://www.w3.org/2000/svg"
   xmlns="http://www.w3.org/2000/svg"
   xmlns:sodipodi="http://sodipodi.sourceforge.net/DTD/sodipodi-0.dtd"
   xmlns:inkscape="http://www.inkscape.org/namespaces/inkscape"
   height="400px"
   viewBox="0 0 400 400"
   width="400px"
   id="svg2"
   version="1.1"
   inkscape:version="0.48.2 r9819"
   sodipodi:docname="ouoacb---------.svg">
  <metadata
     id="metadata16">
    <rdf:RDF>
      <cc:Work
         rdf:about="">
        <dc:format>image/svg+xml</dc:format>
        <dc:type
           rdf:resource="http://purl.org/dc/dcmitype/StillImage" />
      </cc:Work>
    </rdf:RDF>
  </metadata>
  <defs
     id="defs14" />
  <sodipodi:namedview
     pagecolor="#ffffff"
     bordercolor="#666666"
     borderopacity="1"
     objecttolerance="10"
     gridtolerance="10"
     guidetolerance="10"
     inkscape:pageopacity="0"
     inkscape:pageshadow="2"
     inkscape:window-width="640"
     inkscape:window-height="480"
     id="namedview12"
     showgrid="false"
     inkscape:zoom="0.59"
     inkscape:cx="200"
     inkscape:cy="200"
     inkscape:window-x="154"
     inkscape:window-y="63"
     inkscape:window-maximized="0"
     inkscape:current-layer="svg2" />
  <line
     style="stroke:rgb(255,255,255);stroke-width:10;stroke-dasharray:10"
     x1="200"
     x2="200"
     y1="170"
     y2="230"
     id="line4" />
  <line
     style="stroke:rgb(255,255,255);stroke-width:10;stroke-dasharray:10"
     x1="115"
     x2="250"
     y1="200"
     y2="200"
     id="line6" />
  <ellipse
     cx="270"
     cy="200"
     rx="25"
     ry="25"
     style="fill:none;stroke:rgb(255,255,255);stroke-width:10;stroke-dasharray:10"
     id="ellipse8" />
  <g
     style="font-size:55px;font-weight:bold;text-anchor:middle;fill:#ffffff;font-family:Arial"
     id="text10">
    <path
       d="m 179.88525,145 -8.64746,0 -3.4375,-8.94287 -15.7373,0 -3.24951,8.94287 -8.43262,0 15.33447,-39.37012 8.40576,0 z m -14.63623,-15.57617 -5.4248,-14.60938 -5.31738,14.60938 z"
       style="font-size:55px;font-weight:bold;text-anchor:middle;fill:#ffffff;font-family:Arial"
       id="path2994" />
    <path
       d="m 209.31885,130.5249 7.70752,2.44385 c -1.18168,4.29688 -3.1466,7.4882 -5.89478,9.57397 -2.74824,2.08578 -6.23497,3.12867 -10.4602,3.12867 -5.22788,0 -9.52475,-1.78589 -12.89063,-5.35767 -3.36589,-3.57177 -5.04883,-8.45498 -5.04883,-14.64966 0,-6.55271 1.69189,-11.64181 5.07569,-15.26733 3.38378,-3.62545 7.83283,-5.43819 13.34717,-5.43823 4.81605,4e-5 8.72799,1.42337 11.73583,4.27002 1.79034,1.68297 3.13311,4.09996 4.02833,7.25097 l -7.86866,1.87989 c -0.46552,-2.04099 -1.43679,-3.65232 -2.91382,-4.83399 -1.47707,-1.18161 -3.27191,-1.77243 -5.38452,-1.77246 -2.91831,3e-5 -5.28606,1.0474 -7.10327,3.14209 -1.81723,2.09475 -2.72584,5.48749 -2.72583,10.17822 -1e-5,4.97723 0.89517,8.52215 2.68555,10.63477 1.79035,2.11264 4.11782,3.16895 6.98242,3.16894 2.11261,1e-5 3.92983,-0.67138 5.45166,-2.01416 1.52178,-1.34276 2.6139,-3.45539 3.27637,-6.33789 z"
       style="font-size:55px;font-weight:bold;text-anchor:middle;fill:#ffffff;font-family:Arial"
       id="path2996" />
    <path
       d="m 249.06494,130.5249 7.70752,2.44385 c -1.18168,4.29688 -3.1466,7.4882 -5.89477,9.57397 -2.74824,2.08578 -6.23497,3.12867 -10.46021,3.12867 -5.22788,0 -9.52475,-1.78589 -12.89062,-5.35767 -3.36589,-3.57177 -5.04884,-8.45498 -5.04883,-14.64966 -1e-5,-6.55271 1.69189,-11.64181 5.07568,-15.26733 3.38378,-3.62545 7.83283,-5.43819 13.34717,-5.43823 4.81605,4e-5 8.728,1.42337 11.73584,4.27002 1.79033,1.68297 3.1331,4.09996 4.02832,7.25097 l -7.86865,1.87989 c -0.46553,-2.04099 -1.4368,-3.65232 -2.91382,-4.83399 -1.47708,-1.18161 -3.27192,-1.77243 -5.38452,-1.77246 -2.91832,3e-5 -5.28607,1.0474 -7.10327,3.14209 -1.81724,2.09475 -2.72585,5.48749 -2.72583,10.17822 -2e-5,4.97723 0.89517,8.52215 2.68554,10.63477 1.79035,2.11264 4.11782,3.16895 6.98242,3.16894 2.11261,1e-5 3.92983,-0.67138 5.45166,-2.01416 1.52179,-1.34276 2.61391,-3.45539 3.27637,-6.33789 z"
       style="font-size:55px;font-weight:bold;text-anchor:middle;fill:#ffffff;font-family:Arial"
       id="path2998" />
  </g>
</svg>
