<?xml version="1.0" encoding="UTF-8" standalone="no"?>
<!--
Copyright (C) 2012 United States Government as represented by the Administrator of the
National Aeronautics and Space Administration.
All Rights Reserved.
-->

<!--
MIL-STD-2525 tactical symbol icon image. During icon composition this image is multiplied by the desired frame color 
(e.g. black), then drawn on top of the frame and fill.
-->

<svg
   xmlns:dc="http://purl.org/dc/elements/1.1/"
   xmlns:cc="http://creativecommons.org/ns#"
   xmlns:rdf="http://www.w3.org/1999/02/22-rdf-syntax-ns#"
   xmlns:svg="http://www.w3.org/2000/svg"
   xmlns="http://www.w3.org/2000/svg"
   xmlns:sodipodi="http://sodipodi.sourceforge.net/DTD/sodipodi-0.dtd"
   xmlns:inkscape="http://www.inkscape.org/namespaces/inkscape"
   height="400px"
   viewBox="0 0 400 400"
   width="400px"
   id="svg2"
   version="1.1"
   inkscape:version="0.48.2 r9819"
   sodipodi:docname="ofoae----------.svg">
  <metadata
     id="metadata14">
    <rdf:RDF>
      <cc:Work
         rdf:about="">
        <dc:format>image/svg+xml</dc:format>
        <dc:type
           rdf:resource="http://purl.org/dc/dcmitype/StillImage" />
      </cc:Work>
    </rdf:RDF>
  </metadata>
  <defs
     id="defs12" />
  <sodipodi:namedview
     pagecolor="#ffffff"
     bordercolor="#666666"
     borderopacity="1"
     objecttolerance="10"
     gridtolerance="10"
     guidetolerance="10"
     inkscape:pageopacity="0"
     inkscape:pageshadow="2"
     inkscape:window-width="640"
     inkscape:window-height="480"
     id="namedview10"
     showgrid="false"
     inkscape:zoom="0.59"
     inkscape:cx="200"
     inkscape:cy="200"
     inkscape:window-x="0"
     inkscape:window-y="0"
     inkscape:window-maximized="0"
     inkscape:current-layer="svg2" />
  <path
     inkscape:connector-curvature="0"
     style="font-size:250px;text-anchor:middle;fill:#ffffff;stroke:#000000;stroke-width:6;stroke-miterlimit:4;stroke-opacity:1;stroke-dasharray:12, 6;stroke-dashoffset:0;font-family:Arial"
     d="m 185,90 0,18.78125 c -7.21,0.93682 -13.97305,2.70591 -20.28125,5.3125 -9.84704,4.06918 -17.34183,10.02198 -22.46875,17.875 -5.12697,7.85334 -7.68752,16.31069 -7.6875,25.34375 -2e-5,8.21953 2.09015,15.64888 6.28125,22.28125 4.19106,6.63259 10.58004,12.18044 19.125,16.65625 5.23098,2.77703 13.59909,5.69121 25.03125,8.75 l 0,64.71875 c -3.31378,-0.82747 -6.4998,-1.90005 -9.53125,-3.21875 -8.13807,-3.54001 -14.13449,-8.16891 -18,-13.90625 -3.8656,-5.73726 -6.34834,-13.07938 -7.40625,-22.03125 L 127.75,232.5 c 0.3255,11.96294 3.58689,22.67549 9.8125,32.15625 6.22555,9.48081 14.80433,16.59246 25.75,21.3125 6.34388,2.73566 13.58035,4.66238 21.6875,5.8125 L 185,310 l 10,0 0,-17.1875 c 2.9108,0.17335 5.92767,0.25 9.03125,0.25 0.32566,0 0.64475,0.003 0.96875,0 l 0,16.9375 10,0 0,-17.5625 c 8.47219,-0.9735 16.30124,-3.10804 23.5,-6.40625 10.21309,-4.67935 18.04738,-11.23338 23.5,-19.65625 5.45232,-8.42281 8.18735,-17.38472 8.1875,-26.90625 -1.5e-4,-9.6028 -2.47346,-18.10377 -7.4375,-25.46875 -4.96433,-7.36483 -12.64597,-13.44848 -23.0625,-18.25 -5.12013,-2.32723 -13.39029,-4.95486 -24.6875,-7.84375 l 0,-57.28125 c 5.92715,1.42906 10.83506,3.71861 14.71875,6.90625 7.03927,5.77814 11.18542,14.31328 12.40625,25.625 l 22.6875,-1.6875 c -0.40705,-10.49791 -3.32892,-19.91782 -8.78125,-28.21875 -5.4526,-8.30062 -13.24329,-14.57112 -23.375,-18.84375 C 227.2245,112.11587 221.33217,110.43755 215,109.375 L 215,90 l -10,0 0,18.21875 c -2.42637,-0.15684 -4.89613,-0.21871 -7.4375,-0.21875 -0.86338,1e-5 -1.71041,0.0416 -2.5625,0.0625 L 195,90 185,90 z m 13.53125,38.875 c 2.25098,3e-5 4.39762,0.0952 6.46875,0.25 l 0,56.375 c -1.61656,-0.37864 -3.22529,-0.76891 -4.9375,-1.15625 -1.77084,-0.40058 -3.41601,-0.78864 -5.0625,-1.1875 l 0,-54.21875 c 1.15613,-0.0376 2.3195,-0.0625 3.53125,-0.0625 z M 185,129.8125 185,180.5 c -10.50011,-3.02471 -17.44586,-5.98239 -20.65625,-8.90625 -4.63872,-4.15027 -6.93754,-9.44584 -6.9375,-15.875 -4e-5,-7.40546 3.26135,-13.71958 9.8125,-18.96875 4.27014,-3.42134 10.20901,-5.74621 17.78125,-6.9375 z m 10,77.71875 c 3.624,0.87192 6.95058,1.6993 10,2.46875 l 0,61.78125 c -0.68386,0.016 -1.36607,0.0312 -2.0625,0.0312 -2.7203,10e-6 -5.3627,-0.1531 -7.9375,-0.40625 l 0,-63.875 z m 20,5.09375 c 5.2046,1.42932 9.00517,2.60748 11.375,3.53125 7.48686,2.84838 12.83842,6.37149 16.09375,10.5625 3.25508,4.19114 4.90612,9.07232 4.90625,14.6875 -1.3e-4,5.53389 -1.68535,10.66443 -5.0625,15.34375 -3.3774,4.67939 -8.55155,8.34573 -15.46875,11.03125 -3.6546,1.41884 -7.59862,2.45577 -11.84375,3.125 l 0,-58.28125 z"
     id="path3768" />
</svg>
