<?xml version="1.0" encoding="UTF-8" standalone="no"?>
<!--
Copyright (C) 2012 United States Government as represented by the Administrator of the
National Aeronautics and Space Administration.
All Rights Reserved.
-->

<!--
MIL-STD-2525 tactical symbol icon image. During icon composition this image is multiplied by the desired frame color 
(e.g. black), then drawn on top of the frame and fill.
-->

<svg
   xmlns:dc="http://purl.org/dc/elements/1.1/"
   xmlns:cc="http://creativecommons.org/ns#"
   xmlns:rdf="http://www.w3.org/1999/02/22-rdf-syntax-ns#"
   xmlns:svg="http://www.w3.org/2000/svg"
   xmlns="http://www.w3.org/2000/svg"
   xmlns:sodipodi="http://sodipodi.sourceforge.net/DTD/sodipodi-0.dtd"
   xmlns:inkscape="http://www.inkscape.org/namespaces/inkscape"
   height="400px"
   viewBox="0 0 400 400"
   width="400px"
   id="svg2"
   version="1.1"
   inkscape:version="0.48.2 r9819"
   sodipodi:docname="ofoad----------.svg">
  <metadata
     id="metadata10">
    <rdf:RDF>
      <cc:Work
         rdf:about="">
        <dc:format>image/svg+xml</dc:format>
        <dc:type
           rdf:resource="http://purl.org/dc/dcmitype/StillImage" />
      </cc:Work>
    </rdf:RDF>
  </metadata>
  <defs
     id="defs8" />
  <sodipodi:namedview
     pagecolor="#ffffff"
     bordercolor="#666666"
     borderopacity="1"
     objecttolerance="10"
     gridtolerance="10"
     guidetolerance="10"
     inkscape:pageopacity="0"
     inkscape:pageshadow="2"
     inkscape:window-width="640"
     inkscape:window-height="480"
     id="namedview6"
     showgrid="false"
     inkscape:zoom="0.59"
     inkscape:cx="200"
     inkscape:cy="200"
     inkscape:window-x="117"
     inkscape:window-y="368"
     inkscape:window-maximized="0"
     inkscape:current-layer="svg2" />
  <g
     style="font-size:75px;font-weight:bold;text-anchor:middle;fill:#ffffff;stroke:#000000;stroke-width:4;stroke-miterlimit:4;stroke-opacity:1;stroke-dasharray:8, 4;stroke-dashoffset:0;font-family:Arial"
     id="text4">
    <path
       inkscape:connector-curvature="0"
       d="m 96.838379,227 0,-53.68652 16.223141,0 9.74121,36.62109 9.63135,-36.62109 16.25977,0 0,53.68652 -10.0708,0 0,-42.26074 L 127.96631,227 l -10.43701,0 -10.62012,-42.26074 0,42.26074 z"
       style="font-size:75px;font-weight:bold;text-anchor:middle;fill:#ffffff;stroke:#000000;stroke-width:4;stroke-miterlimit:4;stroke-opacity:1;stroke-dasharray:8, 4;stroke-dashoffset:0;font-family:Arial"
       id="path2988" />
    <path
       inkscape:connector-curvature="0"
       d="m 207.94678,227 -11.79199,0 -4.6875,-12.19482 -21.45997,0 -4.43115,12.19482 -11.49902,0 20.91064,-53.68652 11.46241,0 z m -19.9585,-21.24023 -7.39746,-19.92188 -7.25098,19.92188 z"
       style="font-size:75px;font-weight:bold;text-anchor:middle;fill:#ffffff;stroke:#000000;stroke-width:4;stroke-miterlimit:4;stroke-opacity:1;stroke-dasharray:8, 4;stroke-dashoffset:0;font-family:Arial"
       id="path2990" />
    <path
       inkscape:connector-curvature="0"
       d="m 210.98633,209.53174 10.54687,-1.02539 c 0.63475,3.54005 1.9226,6.14015 3.86353,7.80029 1.9409,1.66017 4.5593,2.49024 7.85522,2.49023 3.49119,10e-6 6.1218,-0.73851 7.89185,-2.21557 1.76998,-1.47704 2.65499,-3.20433 2.65503,-5.18189 -4e-5,-1.26951 -0.37235,-2.34983 -1.11695,-3.24096 -0.74466,-0.8911 -2.04471,-1.66624 -3.90014,-2.32544 -1.26956,-0.43943 -4.16263,-1.22068 -8.6792,-2.34375 -5.81056,-1.44041 -9.88771,-3.21042 -12.23145,-5.31006 -3.2959,-2.95407 -4.94385,-6.55514 -4.94384,-10.80322 -10e-6,-2.73434 0.77514,-5.29171 2.32544,-7.67212 1.55028,-2.38032 3.78416,-4.19307 6.70166,-5.43824 2.91746,-1.24506 6.43918,-1.86762 10.56518,-1.86767 6.73825,5e-5 11.81027,1.4771 15.21607,4.43115 3.40571,2.95415 5.19404,6.89702 5.36499,11.82861 l -10.83985,0.47608 c -0.4639,-2.75875 -1.45877,-4.74239 -2.98462,-5.95093 -1.52591,-1.20845 -3.81472,-1.8127 -6.86645,-1.81274 -3.14944,4e-5 -5.61525,0.64701 -7.39746,1.94092 -1.14748,0.83012 -1.72121,1.94095 -1.72119,3.33251 -2e-5,1.26958 0.53709,2.356 1.61132,3.25928 1.36717,1.1475 4.68748,2.34379 9.96094,3.58887 5.27341,1.24515 9.17355,2.53299 11.70044,3.86352 2.52682,1.3306 4.50435,3.14945 5.93262,5.45655 1.42817,2.30715 2.14229,5.15749 2.14233,8.55102 -4e-5,3.07619 -0.85454,5.95704 -2.56347,8.64258 -1.70903,2.68555 -4.12602,4.6814 -7.25098,5.98755 -3.12503,1.30615 -7.01907,1.95923 -11.68213,1.95923 -6.78713,0 -11.99952,-1.5686 -15.63721,-4.70581 -3.6377,-3.1372 -5.81055,-7.70873 -6.51855,-13.7146 z"
       style="font-size:75px;font-weight:bold;text-anchor:middle;fill:#ffffff;stroke:#000000;stroke-width:4;stroke-miterlimit:4;stroke-opacity:1;stroke-dasharray:8, 4;stroke-dashoffset:0;font-family:Arial"
       id="path2992" />
    <path
       inkscape:connector-curvature="0"
       d="m 261.08398,209.53174 10.54688,-1.02539 c 0.63475,3.54005 1.92259,6.14015 3.86352,7.80029 1.9409,1.66017 4.55931,2.49024 7.85523,2.49023 3.49118,10e-6 6.12179,-0.73851 7.89185,-2.21557 1.76998,-1.47704 2.65499,-3.20433 2.65502,-5.18189 -3e-5,-1.26951 -0.37235,-2.34983 -1.11694,-3.24096 -0.74466,-0.8911 -2.04471,-1.66624 -3.90015,-2.32544 -1.26956,-0.43943 -4.16262,-1.22068 -8.67919,-2.34375 -5.81057,-1.44041 -9.88771,-3.21042 -12.23145,-5.31006 -3.2959,-2.95407 -4.94385,-6.55514 -4.94385,-10.80322 0,-2.73434 0.77514,-5.29171 2.32544,-7.67212 1.55029,-2.38032 3.78417,-4.19307 6.70166,-5.43824 2.91747,-1.24506 6.43919,-1.86762 10.56519,-1.86767 6.73825,5e-5 11.81026,1.4771 15.21606,4.43115 3.40572,2.95415 5.19405,6.89702 5.36499,11.82861 l -10.83984,0.47608 c -0.4639,-2.75875 -1.45877,-4.74239 -2.98462,-5.95093 -1.52591,-1.20845 -3.81473,-1.8127 -6.86646,-1.81274 -3.14943,4e-5 -5.61525,0.64701 -7.39746,1.94092 -1.14747,0.83012 -1.7212,1.94095 -1.72119,3.33251 -10e-6,1.26958 0.5371,2.356 1.61133,3.25928 1.36717,1.1475 4.68748,2.34379 9.96094,3.58887 5.2734,1.24515 9.17355,2.53299 11.70044,3.86352 2.52681,1.3306 4.50435,3.14945 5.93261,5.45655 1.42818,2.30715 2.14229,5.15749 2.14234,8.55102 -5e-5,3.07619 -0.85454,5.95704 -2.56348,8.64258 -1.70902,2.68555 -4.12601,4.6814 -7.25098,5.98755 -3.12503,1.30615 -7.01907,1.95923 -11.68212,1.95923 -6.78713,0 -11.99953,-1.5686 -15.63721,-4.70581 -3.6377,-3.1372 -5.81055,-7.70873 -6.51856,-13.7146 z"
       style="font-size:75px;font-weight:bold;text-anchor:middle;fill:#ffffff;stroke:#000000;stroke-width:4;stroke-miterlimit:4;stroke-opacity:1;stroke-dasharray:8, 4;stroke-dashoffset:0;font-family:Arial"
       id="path2994" />
  </g>
</svg>
