<?xml version="1.0" encoding="UTF-8" standalone="no"?>
<!--
Copyright (C) 2012 United States Government as represented by the Administrator of the
National Aeronautics and Space Administration.
All Rights Reserved.
-->

<!--
MIL-STD-2525 tactical symbol icon image. During icon composition this image is multiplied by the desired frame color 
(e.g. black), then drawn on top of the frame and fill.
-->

<svg
   xmlns:dc="http://purl.org/dc/elements/1.1/"
   xmlns:cc="http://creativecommons.org/ns#"
   xmlns:rdf="http://www.w3.org/1999/02/22-rdf-syntax-ns#"
   xmlns:svg="http://www.w3.org/2000/svg"
   xmlns="http://www.w3.org/2000/svg"
   xmlns:sodipodi="http://sodipodi.sourceforge.net/DTD/sodipodi-0.dtd"
   xmlns:inkscape="http://www.inkscape.org/namespaces/inkscape"
   height="400px"
   viewBox="0 0 400 400"
   width="400px"
   id="svg2"
   version="1.1"
   inkscape:version="0.48.2 r9819"
   sodipodi:docname="ofvaa----------.svg">
  <metadata
     id="metadata14">
    <rdf:RDF>
      <cc:Work
         rdf:about="">
        <dc:format>image/svg+xml</dc:format>
        <dc:type
           rdf:resource="http://purl.org/dc/dcmitype/StillImage" />
      </cc:Work>
    </rdf:RDF>
  </metadata>
  <defs
     id="defs12" />
  <sodipodi:namedview
     pagecolor="#ffffff"
     bordercolor="#666666"
     borderopacity="1"
     objecttolerance="10"
     gridtolerance="10"
     guidetolerance="10"
     inkscape:pageopacity="0"
     inkscape:pageshadow="2"
     inkscape:window-width="640"
     inkscape:window-height="480"
     id="namedview10"
     showgrid="false"
     inkscape:zoom="0.59"
     inkscape:cx="200"
     inkscape:cy="200"
     inkscape:window-x="148"
     inkscape:window-y="77"
     inkscape:window-maximized="0"
     inkscape:current-layer="svg2" />
  <g
     style="font-size:52px;font-weight:bold;text-anchor:middle;fill:#ffffff;font-family:Arial"
     id="text4">
    <path
       inkscape:connector-curvature="0"
       d="m 182.4043,148 -8.17578,0 -3.25,-8.45508 -14.87891,0 -3.07227,8.45508 -7.97265,0 14.49804,-37.22266 7.94727,0 z m -13.83789,-14.72656 -5.12891,-13.8125 -5.02734,13.8125 z"
       style="font-size:52px;font-weight:bold;text-anchor:middle;fill:#ffffff;font-family:Arial"
       id="path2992" />
    <path
       inkscape:connector-curvature="0"
       d="m 184.51172,135.88867 7.3125,-0.71094 c 0.44009,2.45444 1.333,4.25717 2.67871,5.40821 1.34569,1.15105 3.16112,1.72657 5.44629,1.72656 2.42055,1e-5 4.24444,-0.51204 5.47168,-1.53613 1.22719,-1.02408 1.84079,-2.22167 1.84082,-3.59278 -3e-5,-0.88019 -0.25816,-1.62922 -0.77442,-2.24707 -0.51629,-0.61782 -1.41766,-1.15526 -2.7041,-1.6123 -0.88023,-0.30467 -2.88608,-0.84634 -6.01758,-1.625 -4.02865,-0.99868 -6.85547,-2.22589 -8.48046,-3.68164 -2.28516,-2.04816 -3.42774,-4.5449 -3.42774,-7.49024 0,-1.8958 0.53743,-3.66891 1.61231,-5.31933 1.07486,-1.65036 2.62369,-2.90719 4.64648,-3.77051 2.02278,-0.86324 4.46451,-1.29488 7.3252,-1.29492 4.67185,4e-5 8.18845,1.02412 10.5498,3.07226 2.3613,2.04821 3.60121,4.78193 3.71973,8.20118 l -7.51563,0.33007 c -0.32164,-1.91273 -1.01141,-3.28805 -2.06933,-4.12597 -1.05797,-0.83786 -2.64488,-1.25681 -4.76075,-1.25684 -2.1836,3e-5 -3.89324,0.4486 -5.1289,1.3457 -0.79559,0.57555 -1.19337,1.34574 -1.19336,2.31055 -1e-5,0.88024 0.37238,1.63349 1.11719,2.25977 0.9479,0.79559 3.24998,1.62502 6.90625,2.48828 3.65622,0.8633 6.36032,1.7562 8.1123,2.67871 1.75193,0.92254 3.12302,2.18361 4.11328,3.7832 0.9902,1.59963 1.48532,3.57586 1.48535,5.92871 -3e-5,2.13282 -0.59248,4.13022 -1.77734,5.99219 -1.18493,1.86198 -2.8607,3.24577 -5.02734,4.15137 -2.16669,0.9056 -4.86656,1.3584 -8.09961,1.3584 -4.70574,0 -8.31967,-1.08757 -10.8418,-3.2627 -2.52214,-2.17512 -4.02865,-5.34472 -4.51953,-9.50879 z"
       style="font-size:52px;font-weight:bold;text-anchor:middle;fill:#ffffff;font-family:Arial"
       id="path2994" />
    <path
       inkscape:connector-curvature="0"
       d="m 221.22656,148 0,-37.22266 7.3125,0 15.23438,24.85743 0,-24.85743 6.98242,0 0,37.22266 -7.54102,0 -15.00586,-24.27344 0,24.27344 z"
       style="font-size:52px;font-weight:bold;text-anchor:middle;fill:#ffffff;font-family:Arial"
       id="path2996" />
  </g>
  <g
     transform="matrix(80,0,0,80,96.4,133.2)"
     id="g6"
     style="stroke:#000000;stroke-width:0.075;stroke-miterlimit:4;stroke-opacity:1;stroke-dasharray:0.15, 0.075;stroke-dashoffset:0">
    <path
       inkscape:connector-curvature="0"
       d="m 1.1607,0.756886 c 0,-0.117102 0.09378,-0.223862 0.09378,-0.301079 l 0,-0.009874 c 0,-0.029606 -0.001,-0.087457 -0.02468,-0.09378 C 1.20567,0.455728 1.14929,0.536468 1.09294,0.610149 1.06405,0.647925 1.0387,0.685539 1.00966,0.724306 0.986641,0.755047 0.93859,0.803921 0.93859,0.850664 c 0,0.033201 0.14111,0.409666 0.0691,0.409666 -0.0025,0 -0.086588,-0.05848 -0.096758,-0.06612 C 0.878889,1.17014 0.856133,1.14159 0.833952,1.10831 0.763267,1.00225 0.777712,1.0061 0.746098,0.870408 0.711629,0.879609 0.687176,0.985388 0.678968,1.03032 0.668932,1.08524 0.672724,1.18408 0.684759,1.23776 0.699468,1.3034 0.715917,1.35349 0.74281,1.40675 0.756948,1.43475 0.813299,1.53365 0.815196,1.55648 0.765047,1.54479 0.6522,1.45075 0.61646,1.41465 0.581578,1.37942 0.489405,1.22312 0.479566,1.21591 c 0,0.22816 0.115102,0.52626 0.225736,0.63802 C 0.776216,1.92557 0.851034,2.00119 0.939471,2.0541 0.996144,2.08802 1.18166,2.1537 1.26929,2.1537 l 0.05429,0 c 0.06599,0 0.24946,-0.07029 0.29784,-0.09702 C 1.70011,2.01321 1.77989,1.94722 1.82908,1.87442 1.93041,1.72447 2.01459,1.52865 2.01459,1.28007 l 0,-0.02961 -0.01025,-0.1337 C 1.98844,1.1255 1.95335,1.21782 1.94618,1.23635 1.93442,1.26679 1.8991,1.31521 1.88037,1.34328 1.84764,1.39232 1.75915,1.4881 1.6987,1.50218 l 0,-0.02468 c 0,-0.10146 0.06416,-0.20303 0.06416,-0.28627 l 0,-0.04442 L 1.73347,0.865446 1.71844,0.86547 C 1.71098,0.955159 1.6802,1.04807 1.64047,1.10832 1.61009,1.1544 1.5187,1.2372 1.46178,1.25046 1.45665,1.24076 1.45191,1.2359 1.45191,1.22084 l 0,-0.05429 c 0,-0.11717 0.0691,-0.205258 0.0691,-0.296144 l 0,-0.019744 C 1.52101,0.815544 1.47282,0.761304 1.45391,0.730201 1.43814,0.70426 1.39838,0.63041 1.37294,0.623618 l 0,0.029614 c 0,0.142138 -0.03152,0.244752 -0.12833,0.291209 C 1.21904,0.906256 1.1607,0.872583 1.1607,0.801303 l 0,-0.044421 z"
       style="fill:#ffffff;stroke:#000000;stroke-width:0.075;stroke-miterlimit:4;stroke-opacity:1;stroke-dasharray:0.15, 0.075;stroke-dashoffset:0"
       id="path8" />
  </g>
</svg>
