<?xml version="1.0" encoding="UTF-8" standalone="no"?>
<!--
Copyright (C) 2012 United States Government as represented by the Administrator of the
National Aeronautics and Space Administration.
All Rights Reserved.
-->

<!--
MIL-STD-2525 tactical symbol icon image. During icon composition this image is multiplied by the desired frame color 
(e.g. black), then drawn on top of the frame and fill.
-->

<svg
   xmlns:dc="http://purl.org/dc/elements/1.1/"
   xmlns:cc="http://creativecommons.org/ns#"
   xmlns:rdf="http://www.w3.org/1999/02/22-rdf-syntax-ns#"
   xmlns:svg="http://www.w3.org/2000/svg"
   xmlns="http://www.w3.org/2000/svg"
   xmlns:sodipodi="http://sodipodi.sourceforge.net/DTD/sodipodi-0.dtd"
   xmlns:inkscape="http://www.inkscape.org/namespaces/inkscape"
   height="400px"
   viewBox="0 0 400 400"
   width="400px"
   id="svg2"
   version="1.1"
   inkscape:version="0.48.2 r9819"
   sodipodi:docname="ongaa----------.svg">
  <metadata
     id="metadata32">
    <rdf:RDF>
      <cc:Work
         rdf:about="">
        <dc:format>image/svg+xml</dc:format>
        <dc:type
           rdf:resource="http://purl.org/dc/dcmitype/StillImage" />
      </cc:Work>
    </rdf:RDF>
  </metadata>
  <defs
     id="defs30" />
  <sodipodi:namedview
     pagecolor="#ffffff"
     bordercolor="#666666"
     borderopacity="1"
     objecttolerance="10"
     gridtolerance="10"
     guidetolerance="10"
     inkscape:pageopacity="0"
     inkscape:pageshadow="2"
     inkscape:window-width="640"
     inkscape:window-height="480"
     id="namedview28"
     showgrid="false"
     inkscape:zoom="0.59"
     inkscape:cx="200"
     inkscape:cy="200"
     inkscape:window-x="105"
     inkscape:window-y="68"
     inkscape:window-maximized="0"
     inkscape:current-layer="svg2" />
  <ellipse
     cx="200"
     cy="195"
     rx="20"
     ry="20"
     style="fill:none;stroke:rgb(255,255,255);stroke-width:10;stroke-dasharray:10"
     id="ellipse4" />
  <line
     style="stroke:rgb(255,255,255);stroke-width:10;stroke-dasharray:10"
     x1="200"
     x2="200"
     y1="215"
     y2="310"
     id="line6" />
  <line
     style="stroke:rgb(255,255,255);stroke-width:10;stroke-dasharray:10"
     x1="175"
     x2="225"
     y1="240"
     y2="240"
     id="line8" />
  <g
     transform="translate(-60 -20)"
     id="g10">
    <ellipse
       cx="200"
       cy="195"
       rx="20"
       ry="20"
       style="fill:none;stroke:rgb(255,255,255);stroke-width:10;stroke-dasharray:10"
       id="ellipse12" />
    <line
       style="stroke:rgb(255,255,255);stroke-width:10;stroke-dasharray:10"
       x1="200"
       x2="200"
       y1="215"
       y2="310"
       id="line14" />
    <line
       style="stroke:rgb(255,255,255);stroke-width:10;stroke-dasharray:10"
       x1="175"
       x2="225"
       y1="240"
       y2="240"
       id="line16" />
  </g>
  <g
     transform="translate(60 -20)"
     id="g18">
    <ellipse
       cx="200"
       cy="195"
       rx="20"
       ry="20"
       style="fill:none;stroke:rgb(255,255,255);stroke-width:10;stroke-dasharray:10"
       id="ellipse20" />
    <line
       style="stroke:rgb(255,255,255);stroke-width:10;stroke-dasharray:10"
       x1="200"
       x2="200"
       y1="215"
       y2="310"
       id="line22" />
    <line
       style="stroke:rgb(255,255,255);stroke-width:10;stroke-dasharray:10"
       x1="175"
       x2="225"
       y1="240"
       y2="240"
       id="line24" />
  </g>
  <g
     style="font-size:50px;font-weight:bold;text-anchor:middle;fill:#ffffff;font-family:Arial"
     id="text26">
    <path
       d="m 134.08203,109.20898 13.20801,0 c 2.97849,4e-5 5.249,0.2279 6.81152,0.6836 2.09959,0.61852 3.89809,1.71715 5.39551,3.2959 1.49737,1.5788 2.63669,3.51158 3.41797,5.79834 0.78122,2.2868 1.17184,5.10663 1.17187,8.45947 -3e-5,2.94598 -0.36624,5.48504 -1.09863,7.61719 -0.89521,2.60417 -2.17288,4.71192 -3.83301,6.32324 -1.25328,1.2207 -2.94599,2.17285 -5.07812,2.85644 C 152.48207,144.74772 150.34992,145 147.68066,145 l -13.59863,0 z m 7.22656,6.05469 0,23.70606 5.39551,0 c 2.01821,0 3.47492,-0.11393 4.37012,-0.3418 1.17185,-0.29296 2.14434,-0.78938 2.91748,-1.48926 0.77309,-0.69986 1.40378,-1.85139 1.89209,-3.45459 0.48825,-1.60318 0.73239,-3.78823 0.73242,-6.55517 -3e-5,-2.76691 -0.24417,-4.89093 -0.73242,-6.37207 -0.48831,-1.4811 -1.1719,-2.6367 -2.05078,-3.4668 -0.87893,-0.83005 -1.99384,-1.39157 -3.34473,-1.68457 -1.00913,-0.22784 -2.98667,-0.34177 -5.93262,-0.3418 z"
       style="font-size:50px;font-weight:bold;text-anchor:middle;fill:#ffffff;font-family:Arial"
       id="path3010" />
    <path
       d="m 170.23926,145 0,-35.79102 11.59668,0 c 4.39451,4e-5 7.25909,0.17908 8.59375,0.53711 2.05075,0.53715 3.76787,1.70495 5.15136,3.50342 1.38344,1.79853 2.07517,4.12194 2.0752,6.97022 -3e-5,2.19728 -0.39879,4.04461 -1.19629,5.54199 -0.79755,1.49741 -1.81074,2.67336 -3.03955,3.52783 -1.22887,0.85451 -2.47805,1.4201 -3.74756,1.69678 -1.72528,0.34181 -4.22365,0.51271 -7.49512,0.51269 l -4.71191,0 0,13.50098 z m 7.22656,-29.73633 0,10.15625 3.95508,0 c 2.84829,2e-5 4.75258,-0.18715 5.71289,-0.56152 0.96026,-0.37433 1.71303,-0.96027 2.2583,-1.75781 0.54522,-0.79751 0.81785,-1.72524 0.81787,-2.78321 -2e-5,-1.30205 -0.38251,-2.37627 -1.14746,-3.22265 -0.765,-0.84633 -1.73342,-1.3753 -2.90527,-1.58692 -0.86265,-0.16273 -2.59605,-0.24411 -5.2002,-0.24414 z"
       style="font-size:50px;font-weight:bold;text-anchor:middle;fill:#ffffff;font-family:Arial"
       id="path3012" />
    <path
       d="m 203.66211,145 0,-35.79102 15.20996,0 c 3.82485,4e-5 6.60398,0.32149 8.3374,0.96436 1.73337,0.64294 3.1209,1.78633 4.1626,3.43018 1.04163,1.64391 1.56247,3.52379 1.5625,5.63964 -3e-5,2.68557 -0.78942,4.90318 -2.36816,6.65284 -1.57881,1.74969 -3.93883,2.85239 -7.08008,3.3081 1.56247,0.91147 2.85235,1.91245 3.86963,3.00293 1.01722,1.09051 2.38848,3.02735 4.11377,5.81055 l 4.37011,6.98242 -8.64257,0 -5.22461,-7.78809 c -1.85549,-2.78319 -3.12502,-4.53693 -3.8086,-5.26123 -0.68361,-0.72427 -1.40789,-1.22069 -2.17285,-1.48925 -0.76499,-0.26854 -1.97755,-0.40282 -3.63769,-0.40284 l -1.46485,0 0,14.94141 z m 7.22656,-20.6543 5.34668,0 c 3.46678,2e-5 5.63149,-0.14646 6.49414,-0.43945 0.86261,-0.29295 1.53806,-0.7975 2.02637,-1.51367 0.48826,-0.71612 0.7324,-1.61131 0.73242,-2.68555 -2e-5,-1.2044 -0.32148,-2.17689 -0.96435,-2.91748 -0.64293,-0.74053 -1.55032,-1.20847 -2.72217,-1.40381 -0.58596,-0.0814 -2.34377,-0.12204 -5.27344,-0.12207 l -5.63965,0 z"
       style="font-size:50px;font-weight:bold;text-anchor:middle;fill:#ffffff;font-family:Arial"
       id="path3014" />
    <path
       d="m 239.77051,145 0,-35.79102 26.53808,0 0,6.05469 -19.31152,0 0,7.93457 17.96875,0 0,6.03028 -17.96875,0 0,9.74121 19.99512,0 0,6.03027 z"
       style="font-size:50px;font-weight:bold;text-anchor:middle;fill:#ffffff;font-family:Arial"
       id="path3016" />
  </g>
</svg>
