<?xml version="1.0" encoding="UTF-8" standalone="no"?>
<!--
Copyright (C) 2012 United States Government as represented by the Administrator of the
National Aeronautics and Space Administration.
All Rights Reserved.
-->

<!--
MIL-STD-2525 tactical symbol icon image. During icon composition this image is multiplied by the desired frame color 
(e.g. black), then drawn on top of the frame and fill.
-->

<svg
   xmlns:dc="http://purl.org/dc/elements/1.1/"
   xmlns:cc="http://creativecommons.org/ns#"
   xmlns:rdf="http://www.w3.org/1999/02/22-rdf-syntax-ns#"
   xmlns:svg="http://www.w3.org/2000/svg"
   xmlns="http://www.w3.org/2000/svg"
   xmlns:sodipodi="http://sodipodi.sourceforge.net/DTD/sodipodi-0.dtd"
   xmlns:inkscape="http://www.inkscape.org/namespaces/inkscape"
   height="400px"
   viewBox="0 0 400 400"
   width="400px"
   id="svg2"
   version="1.1"
   inkscape:version="0.48.2 r9819"
   sodipodi:docname="onpaa----------.svg">
  <metadata
     id="metadata16">
    <rdf:RDF>
      <cc:Work
         rdf:about="">
        <dc:format>image/svg+xml</dc:format>
        <dc:type
           rdf:resource="http://purl.org/dc/dcmitype/StillImage" />
      </cc:Work>
    </rdf:RDF>
  </metadata>
  <defs
     id="defs14" />
  <sodipodi:namedview
     pagecolor="#ffffff"
     bordercolor="#666666"
     borderopacity="1"
     objecttolerance="10"
     gridtolerance="10"
     guidetolerance="10"
     inkscape:pageopacity="0"
     inkscape:pageshadow="2"
     inkscape:window-width="640"
     inkscape:window-height="480"
     id="namedview12"
     showgrid="false"
     inkscape:zoom="0.59"
     inkscape:cx="200"
     inkscape:cy="200"
     inkscape:window-x="0"
     inkscape:window-y="0"
     inkscape:window-maximized="0"
     inkscape:current-layer="svg2" />
  <ellipse
     sodipodi:ry="20"
     sodipodi:rx="20"
     sodipodi:cy="180"
     sodipodi:cx="200"
     cx="200"
     cy="180"
     rx="20"
     ry="20"
     style="fill:none;stroke:#ffffff;stroke-width:10;stroke-dasharray:10"
     id="ellipse4" />
  <line
     style="stroke:#ffffff;stroke-width:10;stroke-dasharray:10"
     x1="200"
     x2="200"
     y1="200"
     y2="310"
     id="line6" />
  <line
     style="stroke:#ffffff;stroke-width:10;stroke-dasharray:10"
     x1="170"
     x2="230"
     y1="230"
     y2="230"
     id="line8" />
  <g
     style="font-size:55px;font-weight:bold;text-anchor:middle;fill:#ffffff;font-family:Arial"
     id="text10">
    <path
       inkscape:connector-curvature="0"
       d="m 147.65869,145 0,-39.04785 7.94922,0 0,32.41455 19.76563,0 0,6.6333 z"
       style="font-size:55px;font-weight:bold;text-anchor:middle;fill:#ffffff;font-family:Arial"
       id="path2994" />
    <path
       inkscape:connector-curvature="0"
       d="m 181.04004,105.62988 14.52881,0 c 3.27634,4e-5 5.7739,0.25069 7.49267,0.75196 2.30955,0.68037 4.2879,1.88887 5.93506,3.62548 1.6471,1.73669 2.90036,3.86275 3.75977,6.37818 0.85934,2.51549 1.28902,5.61729 1.28906,9.30542 -4e-5,3.24057 -0.40287,6.03354 -1.2085,8.3789 -0.98473,2.8646 -2.39017,5.18312 -4.2163,6.95557 -1.37862,1.34278 -3.24059,2.39014 -5.58594,3.14209 C 201.28009,144.72249 198.93471,145 195.99854,145 l -14.9585,0 z m 7.94922,6.66016 0,26.07666 5.93506,0 c 2.22003,1e-5 3.8224,-0.12532 4.80713,-0.37598 1.28903,-0.32226 2.35878,-0.86832 3.20922,-1.63818 0.8504,-0.76985 1.54417,-2.03653 2.0813,-3.80005 0.53708,-1.76349 0.80564,-4.16706 0.80567,-7.21069 -3e-5,-3.0436 -0.26859,-5.38002 -0.80567,-7.00928 -0.53713,-1.6292 -1.28909,-2.90036 -2.25586,-3.81348 -0.96682,-0.91305 -2.19322,-1.53073 -3.6792,-1.85302 -1.11004,-0.25062 -3.28533,-0.37595 -6.52587,-0.37598 z"
       style="font-size:55px;font-weight:bold;text-anchor:middle;fill:#ffffff;font-family:Arial"
       id="path2996" />
    <path
       inkscape:connector-curvature="0"
       d="m 220.83984,145 0,-39.37012 16.73096,0 c 4.20733,4e-5 7.26438,0.35364 9.17114,1.06079 1.90671,0.70724 3.43299,1.96497 4.57886,3.7732 1.1458,1.8083 1.71871,3.87617 1.71875,6.20361 -4e-5,2.95413 -0.86836,5.3935 -2.60498,7.31812 -1.73669,1.92466 -4.33271,3.13763 -7.78809,3.63891 1.71873,1.00262 3.13759,2.1037 4.2566,3.30322 1.11894,1.19956 2.62732,3.33009 4.52514,6.39161 l 4.80713,7.68066 -9.50683,0 -5.74707,-8.56689 c -2.04104,-3.06152 -3.43753,-4.99063 -4.18946,-5.78736 -0.75197,-0.7967 -1.54868,-1.34276 -2.39013,-1.63818 -0.84149,-0.2954 -2.17531,-0.4431 -4.00147,-0.44312 l -1.61133,0 0,16.43555 z m 7.94922,-22.71973 5.88135,0 c 3.81346,3e-5 6.19464,-0.16111 7.14355,-0.48339 0.94887,-0.32225 1.69187,-0.87726 2.22901,-1.66504 0.53708,-0.78774 0.80563,-1.77244 0.80566,-2.95411 -3e-5,-1.32484 -0.35362,-2.39458 -1.06079,-3.20922 -0.70722,-0.81459 -1.70535,-1.32932 -2.99438,-1.54419 -0.64456,-0.0895 -2.57815,-0.13425 -5.80078,-0.13428 l -6.20362,0 z"
       style="font-size:55px;font-weight:bold;text-anchor:middle;fill:#ffffff;font-family:Arial"
       id="path2998" />
  </g>
</svg>
