<?xml version="1.0" encoding="UTF-8" standalone="no"?>
<!--
Copyright (C) 2012 United States Government as represented by the Administrator of the
National Aeronautics and Space Administration.
All Rights Reserved.
-->

<!--
MIL-STD-2525 tactical symbol icon image. During icon composition this image is multiplied by the desired frame color 
(e.g. black), then drawn on top of the frame and fill.
-->

<svg
   xmlns:dc="http://purl.org/dc/elements/1.1/"
   xmlns:cc="http://creativecommons.org/ns#"
   xmlns:rdf="http://www.w3.org/1999/02/22-rdf-syntax-ns#"
   xmlns:svg="http://www.w3.org/2000/svg"
   xmlns="http://www.w3.org/2000/svg"
   xmlns:sodipodi="http://sodipodi.sourceforge.net/DTD/sodipodi-0.dtd"
   xmlns:inkscape="http://www.inkscape.org/namespaces/inkscape"
   height="400px"
   viewBox="0 0 400 400"
   width="400px"
   id="svg2"
   version="1.1"
   inkscape:version="0.48.2 r9819"
   sodipodi:docname="oulag----------.svg">
  <metadata
     id="metadata10">
    <rdf:RDF>
      <cc:Work
         rdf:about="">
        <dc:format>image/svg+xml</dc:format>
        <dc:type
           rdf:resource="http://purl.org/dc/dcmitype/StillImage" />
      </cc:Work>
    </rdf:RDF>
  </metadata>
  <defs
     id="defs8" />
  <sodipodi:namedview
     pagecolor="#ffffff"
     bordercolor="#666666"
     borderopacity="1"
     objecttolerance="10"
     gridtolerance="10"
     guidetolerance="10"
     inkscape:pageopacity="0"
     inkscape:pageshadow="2"
     inkscape:window-width="640"
     inkscape:window-height="480"
     id="namedview6"
     showgrid="false"
     inkscape:zoom="0.59"
     inkscape:cx="200"
     inkscape:cy="200"
     inkscape:window-x="66"
     inkscape:window-y="334"
     inkscape:window-maximized="0"
     inkscape:current-layer="svg2" />
  <g
     style="font-size:70px;font-weight:bold;text-anchor:middle;fill:#ffffff;stroke:#000000;stroke-width:4;stroke-miterlimit:4;stroke-opacity:1;stroke-dasharray:8, 4;stroke-dashoffset:0;font-family:Arial"
     id="text4">
    <path
       inkscape:connector-curvature="0"
       d="m 127.23145,206.57715 0,-8.44238 21.80664,0 0,19.96093 c -2.11919,2.05079 -5.18966,3.85661 -9.21143,5.41748 -4.02185,1.56088 -8.09492,2.34131 -12.21924,2.34131 -5.24091,0 -9.80959,-1.09944 -13.70605,-3.29834 -3.8965,-2.19889 -6.82456,-5.34341 -8.78418,-9.43359 -1.95964,-4.09015 -2.93946,-8.53921 -2.93946,-13.34717 0,-5.21807 1.09375,-9.85511 3.28125,-13.91113 2.1875,-4.05595 5.38899,-7.1663 9.6045,-9.33106 3.21287,-1.66336 7.21189,-2.49506 11.99707,-2.49511 6.22067,5e-5 11.07987,1.30457 14.57763,3.91357 3.49768,2.60909 5.74784,6.21505 6.75049,10.81787 l -10.04883,1.87988 c -0.70642,-2.4609 -2.03373,-4.40344 -3.98193,-5.82763 -1.94828,-1.42411 -4.38073,-2.13619 -7.29736,-2.13623 -4.4206,4e-5 -7.93541,1.4014 -10.54444,4.2041 -2.60906,2.80277 -3.91358,6.96129 -3.91357,12.47558 -1e-5,5.94729 1.3216,10.40773 3.96484,13.38135 2.64321,2.97364 6.10675,4.46046 10.39063,4.46045 2.11911,1e-5 4.24394,-0.41584 6.37451,-1.24756 2.1305,-0.83169 3.95911,-1.83999 5.48584,-3.0249 l 0,-6.35742 z"
       style="font-size:70px;font-weight:bold;text-anchor:middle;fill:#ffffff;stroke:#000000;stroke-width:4;stroke-miterlimit:4;stroke-opacity:1;stroke-dasharray:8, 4;stroke-dashoffset:0;font-family:Arial"
       id="path2988" />
    <path
       inkscape:connector-curvature="0"
       d="m 158.36914,225 0,-50.10742 21.29395,0 c 5.35478,5e-5 9.24557,0.45008 11.67236,1.3501 2.42672,0.90011 4.36926,2.50086 5.82764,4.80224 1.45828,2.30148 2.18745,4.93331 2.1875,7.89551 -5e-5,3.7598 -1.10519,6.86445 -3.31543,9.31396 -2.21033,2.44957 -5.51436,3.99335 -9.91211,4.63135 2.18746,1.27606 3.99329,2.67743 5.41748,4.2041 1.42411,1.52671 3.34387,4.2383 5.75927,8.13477 l 6.11817,9.77539 -12.09961,0 -7.31445,-10.90332 c -2.59769,-3.89647 -4.37503,-6.35171 -5.33204,-7.36572 -0.95705,-1.01398 -1.97105,-1.70897 -3.04199,-2.08496 -1.07098,-0.37596 -2.76857,-0.56395 -5.09277,-0.56397 l -2.05078,0 0,20.91797 z m 10.11719,-28.91602 7.48535,0 c 4.85349,3e-5 7.88408,-0.20504 9.0918,-0.61523 1.20765,-0.41013 2.15328,-1.11651 2.83691,-2.11914 0.68356,-1.00257 1.02536,-2.25583 1.02539,-3.75977 -3e-5,-1.68616 -0.45007,-3.04765 -1.3501,-4.08447 -0.90009,-1.03674 -2.17044,-1.69185 -3.81103,-1.96533 -0.82034,-0.11389 -3.28128,-0.17086 -7.38281,-0.1709 l -7.89551,0 z"
       style="font-size:70px;font-weight:bold;text-anchor:middle;fill:#ffffff;stroke:#000000;stroke-width:4;stroke-miterlimit:4;stroke-opacity:1;stroke-dasharray:8, 4;stroke-dashoffset:0;font-family:Arial"
       id="path2990" />
    <path
       inkscape:connector-curvature="0"
       d="m 254.10645,225 -11.00586,0 -4.375,-11.38184 -20.0293,0 -4.13574,11.38184 -10.73243,0 19.51661,-50.10742 10.69824,0 z m -18.62793,-19.82422 -6.9043,-18.59375 -6.76758,18.59375 z"
       style="font-size:70px;font-weight:bold;text-anchor:middle;fill:#ffffff;stroke:#000000;stroke-width:4;stroke-miterlimit:4;stroke-opacity:1;stroke-dasharray:8, 4;stroke-dashoffset:0;font-family:Arial"
       id="path2992" />
    <path
       inkscape:connector-curvature="0"
       d="m 272.66602,225 0,-21.08887 -18.3545,-29.01855 11.86035,0 11.792,19.82422 11.55273,-19.82422 11.65527,0 -18.42285,29.08691 0,21.02051 z"
       style="font-size:70px;font-weight:bold;text-anchor:middle;fill:#ffffff;stroke:#000000;stroke-width:4;stroke-miterlimit:4;stroke-opacity:1;stroke-dasharray:8, 4;stroke-dashoffset:0;font-family:Arial"
       id="path2994" />
  </g>
</svg>
