<?xml version="1.0" encoding="UTF-8" standalone="no"?>
<!--
Copyright (C) 2012 United States Government as represented by the Administrator of the
National Aeronautics and Space Administration.
All Rights Reserved.
-->

<!--
MIL-STD-2525 tactical symbol icon image. During icon composition this image is multiplied by the desired frame color 
(e.g. black), then drawn on top of the frame and fill.
-->

<svg
   xmlns:dc="http://purl.org/dc/elements/1.1/"
   xmlns:cc="http://creativecommons.org/ns#"
   xmlns:rdf="http://www.w3.org/1999/02/22-rdf-syntax-ns#"
   xmlns:svg="http://www.w3.org/2000/svg"
   xmlns="http://www.w3.org/2000/svg"
   xmlns:sodipodi="http://sodipodi.sourceforge.net/DTD/sodipodi-0.dtd"
   xmlns:inkscape="http://www.inkscape.org/namespaces/inkscape"
   height="400px"
   viewBox="0 0 400 400"
   width="400px"
   id="svg2"
   version="1.1"
   inkscape:version="0.48.2 r9819"
   sodipodi:docname="ouoae----------.svg">
  <metadata
     id="metadata14">
    <rdf:RDF>
      <cc:Work
         rdf:about="">
        <dc:format>image/svg+xml</dc:format>
        <dc:type
           rdf:resource="http://purl.org/dc/dcmitype/StillImage" />
      </cc:Work>
    </rdf:RDF>
  </metadata>
  <defs
     id="defs12" />
  <sodipodi:namedview
     pagecolor="#ffffff"
     bordercolor="#666666"
     borderopacity="1"
     objecttolerance="10"
     gridtolerance="10"
     guidetolerance="10"
     inkscape:pageopacity="0"
     inkscape:pageshadow="2"
     inkscape:window-width="705"
     inkscape:window-height="480"
     id="namedview10"
     showgrid="false"
     inkscape:zoom="0.59"
     inkscape:cx="200"
     inkscape:cy="200"
     inkscape:window-x="132"
     inkscape:window-y="113"
     inkscape:window-maximized="0"
     inkscape:current-layer="svg2" />
  <path
     style="font-size:250px;text-anchor:middle;fill:#ffffff;font-family:Arial;stroke:#000000;stroke-opacity:1;stroke-width:6;stroke-miterlimit:4;stroke-dasharray:12,6;stroke-dashoffset:0"
     d="M 185 90 L 185 108.78125 C 177.79 109.71807 171.02695 111.48716 164.71875 114.09375 C 154.87171 118.16293 147.37692 124.11573 142.25 131.96875 C 137.12303 139.82209 134.56248 148.27944 134.5625 157.3125 C 134.56248 165.53203 136.65265 172.96138 140.84375 179.59375 C 145.03481 186.22634 151.42379 191.77419 159.96875 196.25 C 165.19973 199.02703 173.56784 201.94121 185 205 L 185 269.71875 C 181.68622 268.89128 178.5002 267.8187 175.46875 266.5 C 167.33068 262.95999 161.33426 258.33109 157.46875 252.59375 C 153.60315 246.85649 151.12041 239.51437 150.0625 230.5625 L 127.75 232.5 C 128.0755 244.46294 131.33689 255.17549 137.5625 264.65625 C 143.78805 274.13706 152.36683 281.24871 163.3125 285.96875 C 169.65638 288.70441 176.89285 290.63113 185 291.78125 L 185 310 L 195 310 L 195 292.8125 C 197.9108 292.98585 200.92767 293.0625 204.03125 293.0625 C 204.35691 293.0625 204.676 293.06554 205 293.0625 L 205 310 L 215 310 L 215 292.4375 C 223.47219 291.464 231.30124 289.32946 238.5 286.03125 C 248.71309 281.3519 256.54738 274.79787 262 266.375 C 267.45232 257.95219 270.18735 248.99028 270.1875 239.46875 C 270.18735 229.86595 267.71404 221.36498 262.75 214 C 257.78567 206.63517 250.10403 200.55152 239.6875 195.75 C 234.56737 193.42277 226.29721 190.79514 215 187.90625 L 215 130.625 C 220.92715 132.05406 225.83506 134.34361 229.71875 137.53125 C 236.75802 143.30939 240.90417 151.84453 242.125 163.15625 L 264.8125 161.46875 C 264.40545 150.97084 261.48358 141.55093 256.03125 133.25 C 250.57865 124.94938 242.78796 118.67888 232.65625 114.40625 C 227.2245 112.11587 221.33217 110.43755 215 109.375 L 215 90 L 205 90 L 205 108.21875 C 202.57363 108.06191 200.10387 108.00004 197.5625 108 C 196.69912 108.00001 195.85209 108.04158 195 108.0625 L 195 90 L 185 90 z M 198.53125 128.875 C 200.78223 128.87503 202.92887 128.9702 205 129.125 L 205 185.5 C 203.38344 185.12136 201.77471 184.73109 200.0625 184.34375 C 198.29166 183.94317 196.64649 183.55511 195 183.15625 L 195 128.9375 C 196.15613 128.89992 197.3195 128.87501 198.53125 128.875 z M 185 129.8125 L 185 180.5 C 174.49989 177.47529 167.55414 174.51761 164.34375 171.59375 C 159.70503 167.44348 157.40621 162.14791 157.40625 155.71875 C 157.40621 148.31329 160.6676 141.99917 167.21875 136.75 C 171.48889 133.32866 177.42776 131.00379 185 129.8125 z M 195 207.53125 C 198.624 208.40317 201.95058 209.23055 205 210 L 205 271.78125 C 204.31614 271.79721 203.63393 271.8125 202.9375 271.8125 C 200.2172 271.81251 197.5748 271.6594 195 271.40625 L 195 207.53125 z M 215 212.625 C 220.2046 214.05432 224.00517 215.23248 226.375 216.15625 C 233.86186 219.00463 239.21342 222.52774 242.46875 226.71875 C 245.72383 230.90989 247.37487 235.79107 247.375 241.40625 C 247.37487 246.94014 245.68965 252.07068 242.3125 256.75 C 238.9351 261.42939 233.76095 265.09573 226.84375 267.78125 C 223.18915 269.20009 219.24513 270.23702 215 270.90625 L 215 212.625 z "
     id="path3768" />
</svg>
