<?xml version="1.0" encoding="UTF-8" standalone="no"?>
<!-- Generator: Adobe Illustrator 13.0.1, SVG Export Plug-In . SVG Version: 6.00 Build 14948)  -->

<svg
    xmlns:dc="http://purl.org/dc/elements/1.1/"
    xmlns:cc="http://creativecommons.org/ns#"
    xmlns:rdf="http://www.w3.org/1999/02/22-rdf-syntax-ns#"
    xmlns:svg="http://www.w3.org/2000/svg"
    xmlns="http://www.w3.org/2000/svg"
    xmlns:sodipodi="http://sodipodi.sourceforge.net/DTD/sodipodi-0.dtd"
    xmlns:inkscape="http://www.inkscape.org/namespaces/inkscape"
    version="1.1"
    id="_0.G-GPGPUUL-----X"
    x="0px"
    y="0px"
    width="297.60001"
    height="327.25"
    viewBox="0 0 297.60001 327.25"
    enable-background="new 0 0 400 400"
    xml:space="preserve"
    inkscape:version="0.48.2 r9819"
    sodipodi:docname="g-gagpuul-----x.svg">
    <metadata
        id="metadata17">
        <rdf:RDF>
            <cc:Work
                rdf:about="">
                <dc:format>image/svg+xml</dc:format>
                <dc:type
                    rdf:resource="http://purl.org/dc/dcmitype/StillImage"/>
            </cc:Work>
        </rdf:RDF>
    </metadata>
    <defs
        id="defs15"/>
    <sodipodi:namedview
        pagecolor="#ffffff"
        bordercolor="#666666"
        borderopacity="1"
        objecttolerance="10"
        gridtolerance="10"
        guidetolerance="10"
        inkscape:pageopacity="0"
        inkscape:pageshadow="2"
        inkscape:window-width="640"
        inkscape:window-height="480"
        id="namedview13"
        showgrid="false"
        inkscape:zoom="0.59"
        inkscape:cx="153"
        inkscape:cy="167.75"
        inkscape:window-x="0"
        inkscape:window-y="0"
        inkscape:window-maximized="0"
        inkscape:current-layer="_0.G-GPGPUUL-----X"/>
    <polygon
        points="341.6,278.35 194.366,364.75 50,278.35 "
        id="polygon3"
        style="fill:none;stroke:#ffffff;stroke-width:6;stroke-dasharray:27"
        transform="translate(-47,-40.5)"/>
    <polygon
        points="129.5,201.25 165.5,201.25 165.5,209.5 120.5,209.5 120.5,133.75 129.5,133.75 "
        id="polygon5"
        style="fill:#ffffff"
        transform="translate(-47,-40.5)"/>
    <path
        d="m 222.996,142.096 10.044,2.508 c -4.524,16.266 -14.532,24.396 -30,24.396 -15,0 -25.128,-6.246 -30.366,-18.762 -2.628,-6.246 -3.924,-12.858 -3.924,-19.842 0,-15.87 5.473,-26.802 16.428,-32.826 5.227,-2.88 11.178,-4.326 17.85,-4.326 15.234,0 24.75,7.158 28.572,21.456 l -9.689,2.178 C 218.79,106.63 212.46,101.5 202.896,101.5 c -16.267,0 -24.396,9.63 -24.396,28.896 0,20.238 7.77,30.354 23.322,30.354 11.718,0 18.785,-6.21 21.174,-18.654 z"
        id="path7"
        style="fill:#ffffff"
        inkscape:connector-curvature="0"/>
    <line
        x1="51"
        y1="3"
        x2="240.5"
        y2="3"
        id="line9"
        style="fill:none;stroke:#ffffff;stroke-width:6;stroke-dasharray:27"/>
    <line
        x1="148.5"
        y1="3"
        x2="148.5"
        y2="238.5"
        id="line11"
        style="fill:none;stroke:#ffffff;stroke-width:6;stroke-dasharray:27"/>
</svg>