<?xml version="1.0" encoding="UTF-8" standalone="no"?>
<!-- SVG content generated using Symbology Configuration Management System (SCMS) -->

<!-- Systematic Software Engineering Ltd. - www.systematic.co.uk - do not remove  -->

<svg
    xmlns:dc="http://purl.org/dc/elements/1.1/"
    xmlns:cc="http://creativecommons.org/ns#"
    xmlns:rdf="http://www.w3.org/1999/02/22-rdf-syntax-ns#"
    xmlns:svg="http://www.w3.org/2000/svg"
    xmlns="http://www.w3.org/2000/svg"
    xmlns:sodipodi="http://sodipodi.sourceforge.net/DTD/sodipodi-0.dtd"
    xmlns:inkscape="http://www.inkscape.org/namespaces/inkscape"
    id="G*GPGPUUB-****X"
    width="340.20001"
    height="378.875"
    viewBox="0 0 340.20001 378.875"
    version="1.1"
    inkscape:version="0.48.2 r9819"
    sodipodi:docname="g-gpgpuub-----x.svg">
    <metadata
        id="metadata14">
        <rdf:RDF>
            <cc:Work
                rdf:about="">
                <dc:format>image/svg+xml</dc:format>
                <dc:type
                    rdf:resource="http://purl.org/dc/dcmitype/StillImage"/>
            </cc:Work>
        </rdf:RDF>
    </metadata>
    <defs
        id="defs12"/>
    <sodipodi:namedview
        pagecolor="#ffffff"
        bordercolor="#666666"
        borderopacity="1"
        objecttolerance="10"
        gridtolerance="10"
        guidetolerance="10"
        inkscape:pageopacity="0"
        inkscape:pageshadow="2"
        inkscape:window-width="640"
        inkscape:window-height="480"
        id="namedview10"
        showgrid="false"
        inkscape:zoom="0.59"
        inkscape:cx="170"
        inkscape:cy="188.875"
        inkscape:window-x="0"
        inkscape:window-y="0"
        inkscape:window-maximized="0"
        inkscape:current-layer="G*GPGPUUB-****X"/>
    <g
        id="g3"
        style="fill:#ffffff"
        transform="translate(-30,-10)">
        <svg
            viewBox="0 0 400 400"
            id="_0.G-GPGPUUB-----X"
            width="400"
            height="400"
            version="1.1"
            style="fill:#ffffff"
            inkscape:version="0.48.2 r9819">
            <g
                transform="matrix(7,0,0,7,30,10)"
                id="g6"
                style="fill:#ffffff">
                <path
                    d="M 48.6,39.725 24.061,54.125 0,39.725 z M 7.875,1.25 l 0,-1.25 31.75,0 0,1.25 z m 4,26.875 0,-12.125 4.518,0 c 2.656,0 3.982,1.021 3.982,3.061 0,1.121 -0.551,1.982 -1.654,2.582 1.519,0.48 2.279,1.482 2.279,3.002 0,2.32 -1.51,3.48 -4.533,3.48 z m 1.5,-7 2.721,0 c 0.605,0 1.107,-0.039 1.51,-0.121 0.848,-0.281 1.27,-0.846 1.27,-1.693 0,-0.887 -0.402,-1.471 -1.209,-1.754 -0.361,-0.121 -0.965,-0.182 -1.813,-0.182 l -2.479,0 z m 0,5.5 3.063,0 1.141,0 c 0.602,-0.119 1.123,-0.457 1.563,-1.016 0.121,-0.398 0.18,-0.717 0.18,-0.957 0,-0.438 -0.119,-0.857 -0.359,-1.256 C 18.52,22.799 17.6,22.5 16.197,22.5 l -2.822,0 z m 10.25,13.221 0,-39.846 1.125,0 0,39.846 z m 13.041,-16.08 1.674,0.418 c -0.754,2.711 -2.422,4.066 -5,4.066 -2.5,0 -4.188,-1.041 -5.061,-3.127 -0.438,-1.041 -0.654,-2.143 -0.654,-3.307 0,-2.645 0.912,-4.467 2.738,-5.471 0.871,-0.48 1.863,-0.721 2.975,-0.721 2.539,0 4.125,1.193 4.762,3.576 l -1.615,0.363 C 35.965,17.855 34.91,17 33.316,17 c -2.711,0 -4.066,1.605 -4.066,4.816 0,3.373 1.295,5.059 3.887,5.059 1.953,0 3.131,-1.035 3.529,-3.109 z"
                    id="path8"
                    style="fill:#ffffff"
                    inkscape:connector-curvature="0"/>
            </g>
        </svg>
    </g>
</svg>
