<?xml version="1.0" encoding="UTF-8" standalone="no"?>
<!-- Generator: Adobe Illustrator 13.0.1, SVG Export Plug-In . SVG Version: 6.00 Build 14948)  -->

<svg
    xmlns:dc="http://purl.org/dc/elements/1.1/"
    xmlns:cc="http://creativecommons.org/ns#"
    xmlns:rdf="http://www.w3.org/1999/02/22-rdf-syntax-ns#"
    xmlns:svg="http://www.w3.org/2000/svg"
    xmlns="http://www.w3.org/2000/svg"
    xmlns:sodipodi="http://sodipodi.sourceforge.net/DTD/sodipodi-0.dtd"
    xmlns:inkscape="http://www.inkscape.org/namespaces/inkscape"
    version="1.1"
    id="_0.G-MPOAOF------X"
    x="0px"
    y="0px"
    width="356.51599"
    height="308.75299"
    viewBox="0 0 356.51599 308.75299"
    enable-background="new 0 0 400 400"
    xml:space="preserve"
    inkscape:version="0.48.2 r9819"
    sodipodi:docname="g-gpdpon------x.svg">
    <metadata
        id="metadata17">
        <rdf:RDF>
            <cc:Work
                rdf:about="">
                <dc:format>image/svg+xml</dc:format>
                <dc:type
                    rdf:resource="http://purl.org/dc/dcmitype/StillImage"/>
            </cc:Work>
        </rdf:RDF>
    </metadata>
    <defs
        id="defs15"/>
    <sodipodi:namedview
        pagecolor="#ffffff"
        bordercolor="#666666"
        borderopacity="1"
        objecttolerance="10"
        gridtolerance="10"
        guidetolerance="10"
        inkscape:pageopacity="0"
        inkscape:pageshadow="2"
        inkscape:window-width="640"
        inkscape:window-height="480"
        id="namedview13"
        showgrid="false"
        inkscape:zoom="0.59"
        inkscape:cx="178.758"
        inkscape:cy="154.268"
        inkscape:window-x="0"
        inkscape:window-y="0"
        inkscape:window-maximized="0"
        inkscape:current-layer="_0.G-MPOAOF------X"/>
    <path
        d="M 267.387,154.376 178.258,0 89.129,154.376 0,308.753 H 178.258 356.516 L 267.387,154.376 z M 7.923,303.889 93.09,156.375 178.258,8.861 263.425,156.376 348.593,303.89 H 178.258 7.923 l 0,-10e-4 z"
        id="path3"
        style="fill:#ffffff"
        inkscape:connector-curvature="0"/>
    <rect
        x="264.55737"
        y="-151.65222"
        transform="matrix(0.500086,0.86597575,-0.86597575,0.500086,0,0)"
        width="4.9991403"
        height="298.23438"
        id="rect5"
        style="fill:#ffffff"/>
    <g
        id="g7"
        style="fill:#ffffff"
        transform="translate(-21.242,-45.515)">
        <path
            d="m 202.307,246.78 c -15.24,-21.01 -35.04,-35.63 -56.588,-38.885 -1.441,-0.359 -2.941,-0.572 -4.494,-0.572 -10.217,0 -18.5,8.283 -18.5,18.5 0,10.217 8.283,18.5 18.5,18.5 10.217,0 18.5,-8.283 18.5,-18.5 0,-2.554 -0.518,-4.986 -1.453,-7.199 14.096,5.803 27.369,17.085 38.369,32.266 15.401,21.232 26.215,49.923 28.658,80.787 l 6.977,-0.554 c -2.559,-32.138 -13.745,-61.948 -29.969,-84.343 z"
            id="path9"
            style="fill:#ffffff"
            inkscape:connector-curvature="0"/>
        <path
            d="m 196.693,246.78 c 15.24,-21.01 35.039,-35.63 56.588,-38.885 1.441,-0.359 2.941,-0.572 4.494,-0.572 10.217,0 18.5,8.283 18.5,18.5 0,10.217 -8.283,18.5 -18.5,18.5 -10.217,0 -18.5,-8.283 -18.5,-18.5 0,-2.554 0.518,-4.986 1.453,-7.199 -14.096,5.803 -27.369,17.085 -38.369,32.266 -15.401,21.232 -26.215,49.923 -28.657,80.787 l -6.977,-0.554 c 2.558,-32.138 13.745,-61.948 29.968,-84.343 z"
            id="path11"
            style="fill:#ffffff"
            inkscape:connector-curvature="0"/>
    </g>
</svg>