<?xml version="1.0" encoding="UTF-8" standalone="no"?>
<!-- SVG content generated using Symbology Configuration Management System (SCMS) -->

<!-- Systematic Software Engineering Ltd. - www.systematic.co.uk - do not remove  -->

<svg
    xmlns:dc="http://purl.org/dc/elements/1.1/"
    xmlns:cc="http://creativecommons.org/ns#"
    xmlns:rdf="http://www.w3.org/1999/02/22-rdf-syntax-ns#"
    xmlns:svg="http://www.w3.org/2000/svg"
    xmlns="http://www.w3.org/2000/svg"
    xmlns:sodipodi="http://sodipodi.sourceforge.net/DTD/sodipodi-0.dtd"
    xmlns:inkscape="http://www.inkscape.org/namespaces/inkscape"
    id="G*GPGPWA--****X"
    width="353.5"
    height="355.25"
    viewBox="0 0 353.5 355.25"
    version="1.1"
    inkscape:version="0.48.2 r9819"
    sodipodi:docname="g-gpgpwa------x.svg">
    <metadata
        id="metadata14">
        <rdf:RDF>
            <cc:Work
                rdf:about="">
                <dc:format>image/svg+xml</dc:format>
                <dc:type
                    rdf:resource="http://purl.org/dc/dcmitype/StillImage"/>
            </cc:Work>
        </rdf:RDF>
    </metadata>
    <defs
        id="defs12"/>
    <sodipodi:namedview
        pagecolor="#ffffff"
        bordercolor="#666666"
        borderopacity="1"
        objecttolerance="10"
        gridtolerance="10"
        guidetolerance="10"
        inkscape:pageopacity="0"
        inkscape:pageshadow="2"
        inkscape:window-width="640"
        inkscape:window-height="480"
        id="namedview10"
        showgrid="false"
        inkscape:zoom="0.59"
        inkscape:cx="175"
        inkscape:cy="180.25"
        inkscape:window-x="0"
        inkscape:window-y="0"
        inkscape:window-maximized="0"
        inkscape:current-layer="g6"/>
    <g
        id="g3"
        transform="translate(-25,-25)">
        <svg
            viewBox="0 0 400 400"
            id="_0.G-GPGPWA------X"
            width="400"
            height="400"
            version="1.1"
            inkscape:version="0.48.2 r9819">
            <g
                transform="matrix(7,0,0,7,25,25)"
                id="g6">
                <path
                    d="M 25.25,50.75 C 18.174,50.75 12.197,48.293 7.316,43.385 2.439,38.473 0,32.469 0,25.375 0,18.24 2.43,12.227 7.287,7.336 12.146,2.445 18.133,0 25.25,0 c 7.076,0 13.053,2.457 17.932,7.367 4.879,4.91 7.318,10.914 7.318,18.008 0,7.135 -2.43,13.148 -7.287,18.039 -4.859,4.891 -10.846,7.336 -17.963,7.336 z m 0,-49.5 c -6.738,0 -12.443,2.338 -17.117,7.01 -4.67,4.672 -7.008,10.377 -7.008,17.115 0,6.738 2.338,12.443 7.008,17.117 4.674,4.67 10.379,7.008 17.117,7.008 6.738,0 12.443,-2.338 17.115,-7.008 4.672,-4.674 7.01,-10.379 7.01,-17.117 0,-6.738 -2.338,-12.443 -7.01,-17.115 C 37.693,3.588 31.988,1.25 25.25,1.25 z m 0.279,43.5 C 20.041,44.75 15.414,42.869 11.648,39.111 7.883,35.35 6,30.73 6,25.25 6,19.77 7.883,15.15 11.648,11.391 15.413,7.632 20.041,5.75 25.529,5.75 c 5.449,0 10.057,1.891 13.822,5.67 3.766,3.781 5.649,8.391 5.649,13.83 0,5.48 -1.873,10.1 -5.619,13.861 -3.746,3.758 -8.363,5.639 -13.852,5.639 z M 43.75,25.342 C 43.75,20.27 41.988,15.965 38.467,12.43 34.946,8.895 30.645,7.125 25.563,7.125 c -5.121,0 -9.434,1.758 -12.936,5.273 -3.5,3.516 -5.252,7.83 -5.252,12.943 0,5.074 1.762,9.369 5.281,12.885 3.524,3.516 7.824,5.274 12.907,5.274 5.083,0 9.383,-1.758 12.904,-5.273 3.521,-3.515 5.283,-7.811 5.283,-12.885 z m -18.283,6.783 c -1.963,0 -3.635,-0.68 -5.02,-2.033 -1.381,-1.357 -2.072,-3.014 -2.072,-4.967 0,-1.994 0.682,-3.66 2.043,-4.996 1.365,-1.336 3.047,-2.004 5.049,-2.004 1.963,0 3.625,0.68 4.988,2.035 1.363,1.355 2.045,3.012 2.045,4.965 0,1.953 -0.682,3.609 -2.045,4.967 -1.363,1.353 -3.025,2.033 -4.988,2.033 z"
                    id="path8"
                    style="fill:#ffffff"
                    inkscape:connector-curvature="0"/>
            </g>
        </svg>
    </g>
</svg>
