<?xml version="1.0" encoding="UTF-8" standalone="no"?>
<!-- Generator: Adobe Illustrator 13.0.1, SVG Export Plug-In . SVG Version: 6.00 Build 14948)  -->

<svg
    xmlns:dc="http://purl.org/dc/elements/1.1/"
    xmlns:cc="http://creativecommons.org/ns#"
    xmlns:rdf="http://www.w3.org/1999/02/22-rdf-syntax-ns#"
    xmlns:svg="http://www.w3.org/2000/svg"
    xmlns="http://www.w3.org/2000/svg"
    xmlns:sodipodi="http://sodipodi.sourceforge.net/DTD/sodipodi-0.dtd"
    xmlns:inkscape="http://www.inkscape.org/namespaces/inkscape"
    version="1.1"
    id="_0.G-OPHI--------X"
    x="0px"
    y="0px"
    width="370.07999"
    height="282.927"
    viewBox="0 0 370.07999 282.927"
    enable-background="new 0 0 400 400"
    xml:space="preserve"
    inkscape:version="0.48.2 r9819"
    sodipodi:docname="g-oahi--------x.svg">
    <metadata
        id="metadata17">
        <rdf:RDF>
            <cc:Work
                rdf:about="">
                <dc:format>image/svg+xml</dc:format>
                <dc:type
                    rdf:resource="http://purl.org/dc/dcmitype/StillImage"/>
            </cc:Work>
        </rdf:RDF>
    </metadata>
    <defs
        id="defs15"/>
    <sodipodi:namedview
        pagecolor="#ffffff"
        bordercolor="#666666"
        borderopacity="1"
        objecttolerance="10"
        gridtolerance="10"
        guidetolerance="10"
        inkscape:pageopacity="0"
        inkscape:pageshadow="2"
        inkscape:window-width="640"
        inkscape:window-height="480"
        id="namedview13"
        showgrid="false"
        inkscape:zoom="0.59"
        inkscape:cx="185"
        inkscape:cy="134.905"
        inkscape:window-x="0"
        inkscape:window-y="0"
        inkscape:window-maximized="0"
        inkscape:current-layer="_0.G-OPHI--------X"/>
    <polygon
        points="343.609,200.792 385.08,200.792 385.08,190.24 349.99,190.24 "
        id="polygon3"
        style="fill:#ffffff"
        transform="translate(-15,-51.978)"/>
    <polygon
        points="49.015,190.24 15,190.24 15,200.792 55.044,200.792 "
        id="polygon5"
        style="fill:#ffffff"
        transform="translate(-15,-51.978)"/>
    <g
        id="g7"
        transform="translate(-15,-51.978)">
        <g
            id="g9">
            <path
                d="m 190.991,51.978 -20.311,17.79 6.588,7.522 20.088,-17.595 c 0.001,-10e-4 0.003,-0.002 0.004,-0.003 l 0.008,-0.008 c 0.001,-10e-4 0.002,-10e-4 0.003,-0.002 l 0.088,-0.078 c 0.002,-0.002 0.004,-0.003 0.006,-0.005 l 0.017,-0.014 c 0,0 0.001,-10e-4 0.001,-10e-4 l 0.007,-0.006 c 0.001,-0.001 0.002,-0.002 0.003,-0.003 l 0.003,-0.002 c 0.003,-0.002 0.005,-0.004 0.008,-0.007 l 0.04,-0.035 c 10e-4,-10e-4 0.003,-0.002 0.004,-0.004 l 0.029,-0.025 c -0.001,10e-4 -0.001,0 0,0 l 0,0 0,0 -6.586,-7.524 0,0 z m -40.622,35.579 -20.311,17.79 6.589,7.522 c 0,0 5.856,-5.129 11.279,-9.879 l 9.032,-7.91 -6.589,-7.523 0,0 z m -40.621,35.579 -20.311,17.79 6.589,7.522 20.311,-17.79 -6.589,-7.522 0,0 z m -40.623,35.579 -20.311,17.79 6.589,7.522 20.311,-17.79 -6.589,-7.522 0,0 z m -11.319,46.911 -8.683,4.961 13.394,23.444 8.683,-4.961 -13.394,-23.444 0,0 z m 44.086,45.729 -10.864,10.863 0,0 c 0,0 -0.024,-0.038 -0.069,-0.109 l -0.001,-0.003 c -0.017,-0.026 -0.037,-0.057 -0.059,-0.093 l -0.001,-10e-4 c -0.006,-0.009 -0.011,-0.018 -0.017,-0.027 h 0 c -0.001,-0.002 -0.002,-0.004 -0.003,-0.006 l -0.005,-0.008 c -0.005,-0.009 -0.011,-0.017 -0.017,-0.025 l 0,-0.001 c -10e-4,-0.003 -0.003,-0.005 -0.005,-0.008 l -0.003,-0.005 c -0.003,-0.006 -0.007,-0.012 -0.01,-0.017 l -0.002,-0.004 c -0.002,-0.003 -0.003,-0.006 -0.005,-0.009 l -0.001,-10e-4 c -0.001,-0.002 -0.002,-0.005 -0.004,-0.007 l -0.01,-0.016 c -0.001,-0.003 -0.003,-0.006 -0.005,-0.008 l -0.004,-0.007 c -0.001,-0.002 -0.002,-0.004 -0.003,-0.006 L 90.8,261.852 c 0,-0.002 -10e-4,-0.003 -0.002,-0.004 l -5.991,-9.463 -8.449,5.349 6.224,9.831 6.684,10.559 8.836,-8.836 10.864,-10.864 -7.074,-7.069 0,0 z m 29.936,-29.935 -10.844,10.844 7.071,7.071 5.521,-5.521 3.958,-2.22 c 0,0 -0.241,-0.431 -0.625,-1.113 l 0,0 -5.081,-9.061 0,0 z m 18.915,33.723 -8.722,4.892 13.208,23.549 8.722,-4.893 c 0,0 -0.799,-1.424 -2.003,-3.572 l -0.008,-0.014 c -0.005,-0.009 -0.01,-0.017 -0.015,-0.025 l -0.229,-0.408 c -0.001,-0.002 -0.001,-0.002 -0.001,-0.003 l -10.952,-19.526 0,0 z m 26.417,47.096 -8.722,4.892 13.208,23.549 8.722,-4.892 -10.922,-19.474 c -0.002,-0.003 -0.004,-0.007 -0.006,-0.011 l -0.011,-0.02 c -0.027,-0.048 -0.054,-0.097 -0.081,-0.144 l -0.013,-0.023 c -0.033,-0.06 -0.066,-0.118 -0.099,-0.177 l -0.024,-0.043 c -1.232,-2.195 -2.052,-3.657 -2.052,-3.657 l 0,0 z m 40.435,4.343 c 0,0 -4.146,6.987 -7.891,13.296 l -5.889,9.923 8.6,5.104 13.779,-23.22 -8.599,-5.103 0,0 z m 27.557,-46.439 c 0,0 -6.163,10.386 -10.246,17.266 l -0.017,0.029 c -0.002,0.003 -0.004,0.005 -0.006,0.009 l -0.028,0.048 c -0.018,0.029 -0.034,0.058 -0.052,0.087 l -3.431,5.781 8.6,5.104 13.779,-23.22 -8.599,-5.104 0,0 z m 22.979,-38.723 -9.2,15.504 8.6,5.103 7.368,-12.416 -6.768,-8.191 0,0 z m 22.913,27.73 -7.709,6.37 13.467,16.298 0.052,0.063 8.985,10.813 7.267,-12.035 3,-4.969 -8.561,-5.169 -2.989,4.95 c 0,10e-4 -10e-4,0.002 -10e-4,0.003 l 0,0 c -0.001,0 -0.001,0.001 -0.002,0.002 l -10e-4,0.003 c -0.002,0.002 -0.003,0.004 -0.004,0.005 l -0.003,0.006 0,0 c 0,0 -0.001,-0.001 -0.002,-0.002 l 0,0 c -0.001,-10e-4 -0.002,-0.003 -0.004,-0.005 l 0,0 c -10e-4,-10e-4 -0.003,-0.004 -0.005,-0.006 l 0,0 c -0.002,-0.003 -0.004,-0.005 -0.007,-0.008 l 0,0 c -0.002,-0.003 -0.004,-0.005 -0.006,-0.008 l 0,0 c -0.002,-0.002 -0.004,-0.004 -0.006,-0.006 l 0,0 c -10e-4,-0.002 -0.003,-0.004 -0.004,-0.005 l 0,0 c 0,-10e-4 -0.001,-0.002 -0.001,-0.002 l 0,0 0,0 -13.466,-16.298 0,0 z m 44.413,-34.856 -6.935,11.484 c -3.503,5.802 -7.021,11.63 -7.021,11.63 l 8.561,5.168 13.956,-23.113 -8.561,-5.169 0,0 z m 1.904,-48.567 -6.494,7.604 19.354,16.528 0,0 0,0 0,0 0,0 0,0 -10e-4,0.002 h -0.001 l -0.004,0.007 c 0,0.001 -10e-4,0.002 -0.002,0.003 l -0.024,0.04 c 0,0 -0.001,0.001 -0.001,0.002 l -0.003,0.005 c -10e-4,0.002 -0.003,0.004 -0.004,0.007 l -0.063,0.104 c -10e-4,0.001 -0.002,0.003 -0.003,0.004 l -0.056,0.091 c -0.001,0.002 -0.002,0.004 -0.003,0.005 l -0.018,0.029 v 0 l -0.049,0.081 0,0 0,0 -10e-4,0.002 c 0,0 -10e-4,0 -10e-4,10e-4 l -0.569,0.941 8.558,5.175 0.57,-0.944 0.229,-0.378 4.396,-7.267 -6.458,-5.515 -19.352,-16.527 0,0 z m -41.063,-35.069 -6.494,7.604 20.532,17.534 6.494,-7.604 -20.532,-17.534 0,0 z m -41.063,-35.069 -6.494,7.604 6.941,5.929 c 0.007,0.006 0.015,0.012 0.021,0.018 l 0.089,0.076 c 0.011,0.01 0.021,0.019 0.033,0.028 l 0.021,0.018 c 5.933,5.067 13.426,11.466 13.426,11.466 l 6.494,-7.604 -20.531,-17.535 0,0 z m -41.063,-35.069 -6.494,7.604 c 0,0 6.38,5.448 12.026,10.271 l 0.01,0.008 c 0.063,0.055 0.128,0.11 0.191,0.164 l 8.304,7.092 6.494,-7.604 -20.531,-17.535 0,0 z"
                id="path11"
                style="fill:#ffffff"
                inkscape:connector-curvature="0"/>
        </g>
    </g>
</svg>