<?xml version="1.0" encoding="UTF-8" standalone="no"?>
<!-- Generator: Adobe Illustrator 13.0.1, SVG Export Plug-In . SVG Version: 6.00 Build 14948)  -->

<svg
    xmlns:dc="http://purl.org/dc/elements/1.1/"
    xmlns:cc="http://creativecommons.org/ns#"
    xmlns:rdf="http://www.w3.org/1999/02/22-rdf-syntax-ns#"
    xmlns:svg="http://www.w3.org/2000/svg"
    xmlns="http://www.w3.org/2000/svg"
    xmlns:sodipodi="http://sodipodi.sourceforge.net/DTD/sodipodi-0.dtd"
    xmlns:inkscape="http://www.inkscape.org/namespaces/inkscape"
    version="1.1"
    id="_0.G-MPOAOF------X"
    x="0px"
    y="0px"
    width="359.12799"
    height="311.68399"
    viewBox="0 0 359.12799 311.68399"
    enable-background="new 0 0 400 400"
    xml:space="preserve"
    inkscape:version="0.48.2 r9819"
    sodipodi:docname="g-gadpon------x.svg">
    <metadata
        id="metadata17">
        <rdf:RDF>
            <cc:Work
                rdf:about="">
                <dc:format>image/svg+xml</dc:format>
                <dc:type
                    rdf:resource="http://purl.org/dc/dcmitype/StillImage"/>
            </cc:Work>
        </rdf:RDF>
    </metadata>
    <defs
        id="defs15"/>
    <sodipodi:namedview
        pagecolor="#ffffff"
        bordercolor="#666666"
        borderopacity="1"
        objecttolerance="10"
        gridtolerance="10"
        guidetolerance="10"
        inkscape:pageopacity="0"
        inkscape:pageshadow="2"
        inkscape:window-width="483"
        inkscape:window-height="435"
        id="namedview13"
        showgrid="false"
        inkscape:zoom="0.59"
        inkscape:cx="180.064"
        inkscape:cy="156.592"
        inkscape:window-x="0"
        inkscape:window-y="0"
        inkscape:window-maximized="0"
        inkscape:current-layer="g3"/>
    <g
        id="g3"
        transform="translate(-19.936,-44.908)">
        <path
            d="m 202.307,246.78 c -15.24,-21.011 -35.04,-35.63 -56.587,-38.886 -1.441,-0.358 -2.941,-0.571 -4.494,-0.571 -10.217,0 -18.5,8.282 -18.5,18.5 0,10.217 8.283,18.5 18.5,18.5 10.217,0 18.5,-8.283 18.5,-18.5 0,-2.554 -0.518,-4.986 -1.453,-7.199 14.096,5.803 27.369,17.085 38.369,32.267 15.401,21.231 26.214,49.922 28.658,80.786 l 6.977,-0.554 c -2.56,-32.139 -13.746,-61.948 -29.97,-84.343 z"
            id="path5"
            style="fill:#ffffff"
            inkscape:connector-curvature="0"/>
        <path
            d="m 196.693,246.78 c 15.241,-21.011 35.04,-35.63 56.588,-38.886 1.441,-0.358 2.941,-0.571 4.494,-0.571 10.217,0 18.5,8.282 18.5,18.5 0,10.217 -8.283,18.5 -18.5,18.5 -10.217,0 -18.5,-8.283 -18.5,-18.5 0,-2.554 0.518,-4.986 1.453,-7.199 -14.097,5.803 -27.369,17.085 -38.369,32.267 -15.401,21.231 -26.215,49.922 -28.657,80.786 l -6.977,-0.554 c 2.558,-32.139 13.745,-61.948 29.968,-84.343 z"
            id="path7"
            style="fill:#ffffff"
            inkscape:connector-curvature="0"/>
    </g>
    <polygon
        points="288.032,200.751 376.564,354.091 199.5,354.091 22.436,354.092 110.968,200.749 199.501,47.408 "
        id="polygon9"
        style="fill:none;stroke:#ffffff;stroke-width:5;stroke-dasharray:25, 26"
        transform="translate(-19.936,-44.908)"/>
    <line
        x1="7.6309996"
        y1="306.22101"
        x2="265.996"
        y2="157.05499"
        id="line11"
        style="fill:none;stroke:#ffffff;stroke-width:5;stroke-dasharray:24, 24"/>
</svg>