<?xml version="1.0" encoding="UTF-8" standalone="no"?>
<!-- Generator: Adobe Illustrator 13.0.1, SVG Export Plug-In . SVG Version: 6.00 Build 14948)  -->

<svg
    xmlns:dc="http://purl.org/dc/elements/1.1/"
    xmlns:cc="http://creativecommons.org/ns#"
    xmlns:rdf="http://www.w3.org/1999/02/22-rdf-syntax-ns#"
    xmlns:svg="http://www.w3.org/2000/svg"
    xmlns="http://www.w3.org/2000/svg"
    xmlns:sodipodi="http://sodipodi.sourceforge.net/DTD/sodipodi-0.dtd"
    xmlns:inkscape="http://www.inkscape.org/namespaces/inkscape"
    version="1.1"
    id="_0.G-GPGPUUB-----X"
    x="0px"
    y="0px"
    width="297.60001"
    height="327.25"
    viewBox="0 0 297.60001 327.25"
    enable-background="new 0 0 400 400"
    xml:space="preserve"
    inkscape:version="0.48.2 r9819"
    sodipodi:docname="g-gagpuub-----x.svg">
    <metadata
        id="metadata15">
        <rdf:RDF>
            <cc:Work
                rdf:about="">
                <dc:format>image/svg+xml</dc:format>
                <dc:type
                    rdf:resource="http://purl.org/dc/dcmitype/StillImage"/>
            </cc:Work>
        </rdf:RDF>
    </metadata>
    <defs
        id="defs13"/>
    <sodipodi:namedview
        pagecolor="#ffffff"
        bordercolor="#666666"
        borderopacity="1"
        objecttolerance="10"
        gridtolerance="10"
        guidetolerance="10"
        inkscape:pageopacity="0"
        inkscape:pageshadow="2"
        inkscape:window-width="640"
        inkscape:window-height="480"
        id="namedview11"
        showgrid="false"
        inkscape:zoom="0.59"
        inkscape:cx="149"
        inkscape:cy="163.75"
        inkscape:window-x="0"
        inkscape:window-y="0"
        inkscape:window-maximized="0"
        inkscape:current-layer="_0.G-GPGPUUB-----X"/>
    <path
        d="M 62.125,170.375 V 85.5 h 31.626 c 18.592,0 27.874,7.147 27.874,21.427 0,7.847 -3.857,13.874 -11.578,18.074 10.633,3.36 15.953,10.374 15.953,21.014 0,16.24 -10.57,24.36 -31.731,24.36 H 62.125 z m 10.5,-49 h 19.047 c 4.235,0 7.749,-0.273 10.57,-0.847 5.936,-1.967 8.89,-5.922 8.89,-11.851 0,-6.209 -2.814,-10.297 -8.463,-12.278 -2.527,-0.847 -6.755,-1.274 -12.691,-1.274 H 72.625 v 26.25 z m 0,38.5 h 21.441 7.987 c 4.214,-0.833 7.861,-3.199 10.941,-7.112 0.847,-2.786 1.26,-5.019 1.26,-6.699 0,-3.066 -0.833,-5.999 -2.513,-8.792 C 108.64,133.093 102.2,131 92.379,131 H 72.625 v 28.875 z m 163.037,-20.013 11.718,2.926 c -5.278,18.977 -16.954,28.462 -35,28.462 -17.5,0 -29.315,-7.287 -35.427,-21.889 -3.066,-7.287 -4.578,-15.001 -4.578,-23.149 0,-18.515 6.384,-31.269 19.166,-38.297 6.098,-3.36 13.041,-5.047 20.825,-5.047 17.772,0 28.875,8.351 33.334,25.032 l -11.306,2.541 C 230.755,98.485 223.37,92.5 212.212,92.5 c -18.978,0 -28.462,11.235 -28.462,33.712 0,23.611 9.064,35.413 27.209,35.413 13.671,0 21.917,-7.245 24.703,-21.763 z"
        id="path3"
        style="fill:#ffffff"
        inkscape:connector-curvature="0"/>
    <polygon
        points="345.6,274.35 198.366,360.75 54,274.35 "
        id="polygon5"
        style="fill:none;stroke:#ffffff;stroke-width:6;stroke-dasharray:27"
        transform="translate(-51,-36.5)"/>
    <line
        x1="51"
        y1="3"
        x2="240.5"
        y2="3"
        id="line7"
        style="fill:none;stroke:#ffffff;stroke-width:6;stroke-dasharray:27"/>
    <line
        x1="148.5"
        y1="3"
        x2="148.5"
        y2="238.5"
        id="line9"
        style="fill:none;stroke:#ffffff;stroke-width:6;stroke-dasharray:27"/>
</svg>