<?xml version="1.0" encoding="UTF-8" standalone="no"?>
<!-- Generator: Adobe Illustrator 13.0.1, SVG Export Plug-In . SVG Version: 6.00 Build 14948)  -->

<svg
    xmlns:dc="http://purl.org/dc/elements/1.1/"
    xmlns:cc="http://creativecommons.org/ns#"
    xmlns:rdf="http://www.w3.org/1999/02/22-rdf-syntax-ns#"
    xmlns:svg="http://www.w3.org/2000/svg"
    xmlns="http://www.w3.org/2000/svg"
    xmlns:sodipodi="http://sodipodi.sourceforge.net/DTD/sodipodi-0.dtd"
    xmlns:inkscape="http://www.inkscape.org/namespaces/inkscape"
    version="1.1"
    id="_3.GAR2----------X"
    x="0px"
    y="0px"
    width="174.75"
    height="339.75"
    viewBox="0 0 174.75 339.75"
    enable-background="new 0 0 400 400"
    xml:space="preserve"
    inkscape:version="0.48.2 r9819"
    sodipodi:docname="g-gpgpuys-----x.svg">
    <metadata
        id="metadata19">
        <rdf:RDF>
            <cc:Work
                rdf:about="">
                <dc:format>image/svg+xml</dc:format>
                <dc:type
                    rdf:resource="http://purl.org/dc/dcmitype/StillImage"/>
            </cc:Work>
        </rdf:RDF>
    </metadata>
    <defs
        id="defs17"/>
    <sodipodi:namedview
        pagecolor="#ffffff"
        bordercolor="#666666"
        borderopacity="1"
        objecttolerance="10"
        gridtolerance="10"
        guidetolerance="10"
        inkscape:pageopacity="0"
        inkscape:pageshadow="2"
        inkscape:window-width="640"
        inkscape:window-height="480"
        id="namedview15"
        showgrid="false"
        inkscape:zoom="0.59"
        inkscape:cx="87.876"
        inkscape:cy="169.372"
        inkscape:window-x="0"
        inkscape:window-y="0"
        inkscape:window-maximized="0"
        inkscape:current-layer="g3"/>
    <g
        id="g3"
        transform="translate(-112.124,-29.622)">
        <g
            id="g5">
            <g
                transform="matrix(6,0,0,6,110,30)"
                id="g7">
                <path
                    d="m 29.479,41.966 c 0,4.125 -1.398,7.588 -4.195,10.393 -2.797,2.801 -6.254,4.203 -10.367,4.203 -4.074,0 -7.521,-1.412 -10.338,-4.234 C 1.762,49.503 0.354,46.05 0.354,41.966 c 0,-4.123 1.398,-7.596 4.195,-10.42 2.797,-2.822 6.254,-4.234 10.367,-4.234 4.074,0 7.521,1.422 10.338,4.266 2.817,2.844 4.225,6.306 4.225,10.388 z m -1.125,0 c 0,-3.809 -1.291,-7.016 -3.869,-9.621 -2.58,-2.605 -5.77,-3.908 -9.568,-3.908 -3.798,0 -6.988,1.303 -9.568,3.908 -2.578,2.605 -3.869,5.813 -3.869,9.621 0,3.77 1.301,6.957 3.898,9.563 2.602,2.605 5.781,3.908 9.539,3.908 3.758,0 6.938,-1.303 9.537,-3.908 2.599,-2.605 3.9,-5.793 3.9,-9.563 z M 18.229,-0.063 v 17.77 l -4.016,-5.039 0.061,14.586 1.205,0.059 V 16.386 l 4.074,4.621 v -21.07 h -1.324 z"
                    id="path9"
                    style="fill:#ffffff"
                    inkscape:connector-curvature="0"/>
            </g>
        </g>
        <g
            id="g11">
            <text
                transform="translate(162.7812,320.8789)"
                font-size="110"
                id="text13"
                style="font-size:110px;fill:#ffffff;font-family:ArialMT">S
            </text>

        </g>
    </g>
</svg>