<?xml version="1.0" encoding="UTF-8" standalone="no"?>
<!-- Generator: Adobe Illustrator 13.0.1, SVG Export Plug-In . SVG Version: 6.00 Build 14948)  -->

<svg
    xmlns:dc="http://purl.org/dc/elements/1.1/"
    xmlns:cc="http://creativecommons.org/ns#"
    xmlns:rdf="http://www.w3.org/1999/02/22-rdf-syntax-ns#"
    xmlns:svg="http://www.w3.org/2000/svg"
    xmlns="http://www.w3.org/2000/svg"
    xmlns:sodipodi="http://sodipodi.sourceforge.net/DTD/sodipodi-0.dtd"
    xmlns:inkscape="http://www.inkscape.org/namespaces/inkscape"
    version="1.1"
    id="_0.G-MPOAOF------X"
    x="0px"
    y="0px"
    width="380.47168"
    height="354.069"
    viewBox="0 0 380.47168 354.069"
    enable-background="new 0 0 400 400"
    xml:space="preserve"
    inkscape:version="0.48.2 r9819"
    sodipodi:docname="g-gpdpoc------x.svg">
    <metadata
        id="metadata53">
        <rdf:RDF>
            <cc:Work
                rdf:about="">
                <dc:format>image/svg+xml</dc:format>
                <dc:type
                    rdf:resource="http://purl.org/dc/dcmitype/StillImage"/>
            </cc:Work>
        </rdf:RDF>
    </metadata>
    <defs
        id="defs51">

    </defs>
    <sodipodi:namedview
        pagecolor="#ffffff"
        bordercolor="#666666"
        borderopacity="1"
        objecttolerance="10"
        gridtolerance="10"
        guidetolerance="10"
        inkscape:pageopacity="0"
        inkscape:pageshadow="2"
        inkscape:window-width="705"
        inkscape:window-height="480"
        id="namedview49"
        showgrid="false"
        inkscape:zoom="0.59"
        inkscape:cx="230.13298"
        inkscape:cy="199.584"
        inkscape:window-x="154"
        inkscape:window-y="203"
        inkscape:window-maximized="0"
        inkscape:current-layer="_0.G-MPOAOF------X"/>
    <path
        d="M 279.34946,154.376 190.22046,0 101.09146,154.376 11.962464,308.753 h 178.257996 178.258 l -89.129,-154.377 z M 19.885464,303.889 105.05246,156.375 l 85.168,-147.514 85.167,147.515 85.168,147.514 H 190.22046 19.885464 l 0,-10e-4 z"
        id="path3"
        style="fill:#ffffff"
        inkscape:connector-curvature="0"/>
    <rect
        id="rect7"
        height="45.666"
        width="5.3330002"
        y="308.40298"
        x="63.804462"
        style="fill:#ffffff"/>
    <rect
        id="rect9"
        height="45.666"
        width="5.3319998"
        y="308.40298"
        x="311.30447"
        style="fill:#ffffff"/>
    <rect
        id="rect11"
        height="45.666"
        width="5.3340001"
        y="308.40298"
        x="261.80347"
        style="fill:#ffffff"/>
    <rect
        id="rect13"
        height="45.666"
        width="5.3330002"
        y="308.40298"
        x="212.30345"
        style="fill:#ffffff"/>
    <rect
        id="rect15"
        height="45.666"
        width="5.3330002"
        y="308.40298"
        x="162.80446"
        style="fill:#ffffff"/>
    <rect
        id="rect17"
        height="45.666"
        width="5.3330002"
        y="308.40298"
        x="113.30447"
        style="fill:#ffffff"/>
    <rect
        x="202.1424"
        y="-165.45285"
        transform="matrix(-0.500011,0.86601905,-0.86601905,-0.500011,0,0)"
        width="5.3318825"
        height="45.663998"
        id="rect23"
        style="fill:#ffffff"/>
    <rect
        x="-45.383865"
        y="-165.44766"
        transform="matrix(-0.500011,0.86601905,-0.86601905,-0.500011,0,0)"
        width="5.3318825"
        height="45.663998"
        id="rect25"
        style="fill:#ffffff"/>
    <rect
        x="4.1152744"
        y="-165.44804"
        transform="matrix(-0.500011,0.86601905,-0.86601905,-0.500011,0,0)"
        width="5.3338828"
        height="45.663998"
        id="rect27"
        style="fill:#ffffff"/>
    <rect
        x="53.602993"
        y="-165.45503"
        transform="matrix(-0.500086,0.86597575,-0.86597575,-0.500086,0,0)"
        width="5.3331494"
        height="45.668278"
        id="rect29"
        style="fill:#ffffff"/>
    <rect
        x="103.12618"
        y="-165.45326"
        transform="matrix(-0.500011,0.86601905,-0.86601905,-0.500011,0,0)"
        width="5.3318825"
        height="45.663998"
        id="rect31"
        style="fill:#ffffff"/>
    <rect
        x="152.63931"
        y="-165.45401"
        transform="matrix(-0.500011,0.86601905,-0.86601905,-0.500011,0,0)"
        width="5.3318825"
        height="45.663998"
        id="rect33"
        style="fill:#ffffff"/>
    <rect
        x="392.36111"
        y="-209.71916"
        transform="matrix(0.500011,0.86601905,-0.86601905,0.500011,0,0)"
        width="5.3318825"
        height="45.663998"
        id="rect37"
        style="fill:#ffffff"/>
    <rect
        x="144.8653"
        y="-209.73366"
        transform="matrix(0.500011,0.86601905,-0.86601905,0.500011,0,0)"
        width="5.3318825"
        height="45.663998"
        id="rect39"
        style="fill:#ffffff"/>
    <rect
        x="194.38634"
        y="-209.69279"
        transform="matrix(0.500086,0.86597575,-0.86597575,0.500086,0,0)"
        width="5.3351493"
        height="45.666279"
        id="rect41"
        style="fill:#ffffff"/>
    <rect
        x="243.84683"
        y="-209.69452"
        transform="matrix(0.500011,0.86601905,-0.86601905,0.500011,0,0)"
        width="5.3318825"
        height="45.663998"
        id="rect43"
        style="fill:#ffffff"/>
    <rect
        x="293.38632"
        y="-209.65758"
        transform="matrix(0.50020429,0.86590743,-0.86590743,0.50020429,0,0)"
        width="5.3329544"
        height="45.668606"
        id="rect45"
        style="fill:#ffffff"/>
    <rect
        x="342.86166"
        y="-209.71971"
        transform="matrix(0.500011,0.86601905,-0.86601905,0.500011,0,0)"
        width="5.3318825"
        height="45.663998"
        id="rect47"
        style="fill:#ffffff"/>
</svg>