<?xml version="1.0" encoding="UTF-8" standalone="no"?>
<!-- Generator: Adobe Illustrator 13.0.1, SVG Export Plug-In . SVG Version: 6.00 Build 14948)  -->

<svg
   xmlns:dc="http://purl.org/dc/elements/1.1/"
   xmlns:cc="http://creativecommons.org/ns#"
   xmlns:rdf="http://www.w3.org/1999/02/22-rdf-syntax-ns#"
   xmlns:svg="http://www.w3.org/2000/svg"
   xmlns="http://www.w3.org/2000/svg"
   xmlns:sodipodi="http://sodipodi.sourceforge.net/DTD/sodipodi-0.dtd"
   xmlns:inkscape="http://www.inkscape.org/namespaces/inkscape"
   version="1.1"
   id="_0.SFG-U----------"
   x="0px"
   y="0px"
   width="400px"
   height="400px"
   viewBox="0 0 400 400"
   enable-background="new 0 0 400 400"
   xml:space="preserve"
   inkscape:version="0.48.2 r9819"
   sodipodi:docname="-k.svg"><metadata
   id="metadata3116"><rdf:RDF><cc:Work
       rdf:about=""><dc:format>image/svg+xml</dc:format><dc:type
         rdf:resource="http://purl.org/dc/dcmitype/StillImage" /></cc:Work></rdf:RDF></metadata><defs
   id="defs3114" /><sodipodi:namedview
   pagecolor="#ffffff"
   bordercolor="#666666"
   borderopacity="1"
   objecttolerance="10"
   gridtolerance="10"
   guidetolerance="10"
   inkscape:pageopacity="0"
   inkscape:pageshadow="2"
   inkscape:window-width="640"
   inkscape:window-height="480"
   id="namedview3112"
   showgrid="false"
   inkscape:zoom="0.59"
   inkscape:cx="200"
   inkscape:cy="200"
   inkscape:window-x="0"
   inkscape:window-y="0"
   inkscape:window-maximized="0"
   inkscape:current-layer="g3102" />
<g
   id="g3102">
	<path
   fill="#010101"
   d="M116.693,216.65l11.716-17.902l-10.619-16.398h8.09l6.875,11.016l6.734-11.016h8.026l-10.669,16.646   l11.719,17.637h-8.348l-7.602-11.859l-7.629,11.859h-8.299v0.018H116.693L116.693,216.65z"
   id="path3104"
   style="fill:#ffffff" />
	<path
   fill="#010101"
   d="M161.288,216.65l11.725-17.902l-10.625-16.398h8.078l6.875,11.016l6.737-11.016h8.03l-10.667,16.651   l11.711,17.631h-8.34l-7.616-11.842l-7.622,11.842h-8.299v0.018H161.288z"
   id="path3106"
   style="fill:#ffffff" />
	<path
   fill="#010101"
   d="M205.856,216.65l11.716-17.902l-10.613-16.398h8.087l6.882,11.016l6.723-11.016h8.032l-10.65,16.646   l11.706,17.637h-8.344l-7.617-11.854l-7.629,11.854h-8.295v0.012h0.003V216.65L205.856,216.65z"
   id="path3108"
   style="fill:#ffffff" />
	<path
   fill="#010101"
   d="M250.458,216.65l11.719-17.899l-10.638-16.401h8.09l6.875,11.024l6.721-11.024h8.038L270.6,199.001   l11.713,17.631h-8.344l-7.599-11.854l-7.63,11.859h-8.294v0.012H250.458L250.458,216.65z"
   id="path3110"
   style="fill:#ffffff" />
</g>
</svg>