<?xml version="1.0" encoding="UTF-8" standalone="no"?>
<!-- Generator: Adobe Illustrator 13.0.1, SVG Export Plug-In . SVG Version: 6.00 Build 14948)  -->

<svg
   xmlns:dc="http://purl.org/dc/elements/1.1/"
   xmlns:cc="http://creativecommons.org/ns#"
   xmlns:rdf="http://www.w3.org/1999/02/22-rdf-syntax-ns#"
   xmlns:svg="http://www.w3.org/2000/svg"
   xmlns="http://www.w3.org/2000/svg"
   xmlns:sodipodi="http://sodipodi.sourceforge.net/DTD/sodipodi-0.dtd"
   xmlns:inkscape="http://www.inkscape.org/namespaces/inkscape"
   version="1.1"
   id="_0.SHG-U----------"
   x="0px"
   y="0px"
   width="400px"
   height="400px"
   viewBox="0 0 400 400"
   enable-background="new 0 0 400 400"
   xml:space="preserve"
   inkscape:version="0.48.2 r9819"
   sodipodi:docname="f-_114.svg"><metadata
   id="metadata3493"><rdf:RDF><cc:Work
       rdf:about=""><dc:format>image/svg+xml</dc:format><dc:type
         rdf:resource="http://purl.org/dc/dcmitype/StillImage" /></cc:Work></rdf:RDF></metadata><defs
   id="defs3491" /><sodipodi:namedview
   pagecolor="#ffffff"
   bordercolor="#666666"
   borderopacity="1"
   objecttolerance="10"
   gridtolerance="10"
   guidetolerance="10"
   inkscape:pageopacity="0"
   inkscape:pageshadow="2"
   inkscape:window-width="640"
   inkscape:window-height="480"
   id="namedview3489"
   showgrid="false"
   inkscape:zoom="0.59"
   inkscape:cx="200"
   inkscape:cy="200"
   inkscape:window-x="0"
   inkscape:window-y="0"
   inkscape:window-maximized="0"
   inkscape:current-layer="_0.SHG-U----------" />
<path
   d="M368.896,279.967l-27.721-24.631c-2.064-1.833-2.252-4.994-0.418-7.059l0,0c1.834-2.064,4.994-2.25,7.059-0.416l0,0  l27.723,24.629c2.064,1.834,2.25,4.995,0.418,7.059l0,0c-0.99,1.111-2.363,1.68-3.742,1.68l0,0  C371.035,281.228,369.85,280.813,368.896,279.967L368.896,279.967z M23.044,279.549c-1.833-2.063-1.649-5.225,0.416-7.059l0,0  l48.591-43.174c2.065-1.834,5.226-1.646,7.06,0.418l0,0c1.834,2.064,1.649,5.225-0.416,7.061l0,0l-48.591,43.172  c-0.953,0.846-2.138,1.262-3.319,1.262l0,0C25.406,281.228,24.032,280.66,23.044,279.549L23.044,279.549z M326.225,242.054  l-48.594-43.174c-2.064-1.833-2.248-4.993-0.416-7.057l0,0c1.834-2.065,4.994-2.252,7.059-0.418l0,0l48.592,43.172  c2.063,1.836,2.25,4.994,0.416,7.06l0,0c-0.986,1.112-2.359,1.68-3.74,1.68l0,0C328.361,243.315,327.176,242.899,326.225,242.054  L326.225,242.054z M86.586,223.094c-1.834-2.065-1.647-5.227,0.418-7.061l0,0l48.591-43.173c2.065-1.834,5.224-1.647,7.06,0.418l0,0  c1.833,2.064,1.647,5.224-0.418,7.059l0,0L93.646,223.51c-0.953,0.846-2.139,1.262-3.321,1.262l0,0  C88.947,224.771,87.575,224.205,86.586,223.094L86.586,223.094z M262.682,185.597l-48.592-43.172  c-2.064-1.834-2.252-4.995-0.418-7.06l0,0c1.834-2.063,4.994-2.25,7.059-0.416l0,0l48.592,43.172  c2.064,1.834,2.252,4.995,0.418,7.06l0,0c-0.988,1.112-2.361,1.679-3.738,1.679l0,0C264.82,186.859,263.633,186.443,262.682,185.597  L262.682,185.597z M150.13,166.636c-1.836-2.065-1.649-5.226,0.416-7.06l0,0l45.632-40.542c1.895-1.684,4.744-1.682,6.641,0l0,0  l2.961,2.632c2.064,1.834,2.25,4.995,0.418,7.06l0,0c-1.729,1.94-4.627,2.221-6.682,0.721l0,0l-42.328,37.605l0.002,0.002  c-0.953,0.846-2.139,1.262-3.32,1.262l0,0C152.491,168.316,151.118,167.749,150.13,166.636L150.13,166.636z"
   id="path3487"
   style="fill:#ffffff" />
</svg>