<?xml version="1.0" encoding="UTF-8" standalone="no"?>
<!--
Copyright (C) 2012 United States Government as represented by the Administrator of the
National Aeronautics and Space Administration.
All Rights Reserved.
-->

<!--
MIL-STD-2525 tactical symbol icon image. During icon composition this image is multiplied by the desired frame color 
(e.g. black), then drawn on top of the frame and fill.
-->

<svg
   xmlns:dc="http://purl.org/dc/elements/1.1/"
   xmlns:cc="http://creativecommons.org/ns#"
   xmlns:rdf="http://www.w3.org/1999/02/22-rdf-syntax-ns#"
   xmlns:svg="http://www.w3.org/2000/svg"
   xmlns="http://www.w3.org/2000/svg"
   xmlns:sodipodi="http://sodipodi.sourceforge.net/DTD/sodipodi-0.dtd"
   xmlns:inkscape="http://www.inkscape.org/namespaces/inkscape"
   height="400px"
   viewBox="0 0 400 400"
   width="400px"
   id="svg2"
   version="1.1"
   inkscape:version="0.48.2 r9819"
   sodipodi:docname="sfaamfqp-------.svg">
  <metadata
     id="metadata14">
    <rdf:RDF>
      <cc:Work
         rdf:about="">
        <dc:format>image/svg+xml</dc:format>
        <dc:type
           rdf:resource="http://purl.org/dc/dcmitype/StillImage" />
      </cc:Work>
    </rdf:RDF>
  </metadata>
  <defs
     id="defs12" />
  <sodipodi:namedview
     pagecolor="#ffffff"
     bordercolor="#666666"
     borderopacity="1"
     objecttolerance="10"
     gridtolerance="10"
     guidetolerance="10"
     inkscape:pageopacity="0"
     inkscape:pageshadow="2"
     inkscape:window-width="640"
     inkscape:window-height="480"
     id="namedview10"
     showgrid="false"
     inkscape:zoom="0.59"
     inkscape:cx="200"
     inkscape:cy="200"
     inkscape:window-x="21"
     inkscape:window-y="29"
     inkscape:window-maximized="0"
     inkscape:current-layer="svg2" />
  <g
     transform="matrix(0.5,0,0,0.5,100,42.499995)"
     id="g6"
     style="stroke:none">
    <g
       style="font-size:150px;font-weight:bold;text-anchor:middle;fill:#ffffff;stroke:none;font-family:Arial"
       id="text8">
      <path
         inkscape:connector-curvature="0"
         d="m 160.81543,230 0,-107.37305 34.79004,0 c 13.18353,1.1e-4 21.77728,0.53722 25.78125,1.61133 6.15226,1.61143 11.30363,5.11485 15.4541,10.51026 4.1503,5.39559 6.22549,12.3658 6.22559,20.91064 -1e-4,6.59186 -1.19638,12.13385 -3.58887,16.62598 -2.39267,4.49224 -5.43221,8.02007 -9.11865,10.58349 -3.6866,2.56352 -7.43416,4.2603 -11.24268,5.09033 -5.17584,1.02544 -12.67095,1.53813 -22.48535,1.53809 l -14.13574,0 0,40.50293 z m 21.67969,-89.20898 0,30.46875 11.86523,0 c 8.54487,5e-5 14.25776,-0.56147 17.13867,-1.68457 2.8808,-1.12299 5.1391,-2.8808 6.77491,-5.27344 1.63567,-2.39251 2.45354,-5.17571 2.45361,-8.34961 -7e-5,-3.90617 -1.14753,-7.12883 -3.44238,-9.66797 -2.29499,-2.53898 -5.20026,-4.12589 -8.71582,-4.76074 -2.58795,-0.48819 -7.78814,-0.73234 -15.60059,-0.73242 z"
         style="font-size:150px;font-weight:bold;text-anchor:middle;fill:#ffffff;stroke:none;font-family:Arial"
         id="path2999" />
    </g>
  </g>
  <path
     inkscape:connector-curvature="0"
     style="fill:#ffffff;fill-opacity:1;stroke:#000000;stroke-width:6;stroke-miterlimit:4;stroke-opacity:1;stroke-dasharray:12, 6;stroke-dashoffset:0"
     d="m 100,160 0,40 100,59.99999 L 300,200 l 0,-40 -100,59.99999 z"
     id="polyline4" />
</svg>
