<?xml version="1.0" encoding="UTF-8" standalone="no"?>
<!--
Copyright (C) 2012 United States Government as represented by the Administrator of the
National Aeronautics and Space Administration.
All Rights Reserved.
-->

<!--
MIL-STD-2525 tactical symbol icon image. During icon composition this image is multiplied by the desired frame color 
(e.g. black), then drawn on top of the frame and fill.
-->

<svg
   xmlns:dc="http://purl.org/dc/elements/1.1/"
   xmlns:cc="http://creativecommons.org/ns#"
   xmlns:rdf="http://www.w3.org/1999/02/22-rdf-syntax-ns#"
   xmlns:svg="http://www.w3.org/2000/svg"
   xmlns="http://www.w3.org/2000/svg"
   xmlns:sodipodi="http://sodipodi.sourceforge.net/DTD/sodipodi-0.dtd"
   xmlns:inkscape="http://www.inkscape.org/namespaces/inkscape"
   height="400px"
   viewBox="0 0 400 400"
   width="400px"
   id="svg2"
   version="1.1"
   inkscape:version="0.48.2 r9819"
   sodipodi:docname="sfgaucrv-------.svg">
  <metadata
     id="metadata14">
    <rdf:RDF>
      <cc:Work
         rdf:about="">
        <dc:format>image/svg+xml</dc:format>
        <dc:type
           rdf:resource="http://purl.org/dc/dcmitype/StillImage" />
      </cc:Work>
    </rdf:RDF>
  </metadata>
  <defs
     id="defs12" />
  <sodipodi:namedview
     pagecolor="#ffffff"
     bordercolor="#666666"
     borderopacity="1"
     objecttolerance="10"
     gridtolerance="10"
     guidetolerance="10"
     inkscape:pageopacity="0"
     inkscape:pageshadow="2"
     inkscape:window-width="705"
     inkscape:window-height="480"
     id="namedview10"
     showgrid="false"
     inkscape:zoom="0.59"
     inkscape:cx="200"
     inkscape:cy="200"
     inkscape:window-x="164"
     inkscape:window-y="64"
     inkscape:window-maximized="0"
     inkscape:current-layer="svg2" />
  <line
     style="stroke:rgb(255,255,255);stroke-width:10;stroke-dasharray:10"
     x1="380"
     x2="20"
     y1="80"
     y2="320"
     id="line4" />
  <g
     transform="matrix(0.7,0,0,0.7,80.000002,117)"
     id="g6"
     style="stroke:none">
    <g
       style="font-size:90px;font-weight:bold;text-anchor:middle;fill:#ffffff;stroke:none;font-family:Arial"
       id="text8">
      <path
         inkscape:connector-curvature="0"
         d="m 152.6709,208.31348 12.6123,3.99902 c -1.93365,7.03126 -5.14898,12.25343 -9.64599,15.6665 -4.49712,3.41309 -10.20268,5.11963 -17.1167,5.11963 -8.55471,0 -15.58596,-2.92236 -21.09375,-8.76709 -5.50782,-5.84471 -8.26173,-13.83542 -8.26172,-23.97217 -1e-5,-10.72261 2.76855,-19.05024 8.30566,-24.98291 5.53709,-5.93255 12.81736,-8.89886 21.84082,-8.89892 7.88082,6e-5 14.28218,2.32916 19.2041,6.9873 2.92964,2.75397 5.1269,6.70904 6.5918,11.86524 l -12.87597,3.07617 c -0.76177,-3.3398 -2.35112,-5.97651 -4.76807,-7.91016 -2.41703,-1.93354 -5.35404,-2.90033 -8.81104,-2.90039 -4.77542,6e-5 -8.64992,1.71392 -11.62353,5.1416 -2.97365,3.42778 -4.46047,8.97954 -4.46045,16.65528 -2e-5,8.14455 1.46482,13.94533 4.39453,17.40234 2.92966,3.45704 6.73825,5.18556 11.42578,5.18555 3.457,1e-5 6.43063,-1.09862 8.9209,-3.2959 2.49019,-2.19725 4.2773,-5.65428 5.36133,-10.37109 z"
         style="font-size:90px;font-weight:bold;text-anchor:middle;fill:#ffffff;stroke:none;font-family:Arial"
         id="path2992" />
      <path
         inkscape:connector-curvature="0"
         d="m 234.58496,232 -14.15039,0 -5.625,-14.63379 -25.75195,0 -5.31739,14.63379 -13.79882,0 25.09277,-64.42383 13.75488,0 z m -23.95019,-25.48828 -8.87696,-23.90625 -8.70117,23.90625 z"
         style="font-size:90px;font-weight:bold;text-anchor:middle;fill:#ffffff;stroke:none;font-family:Arial"
         id="path2994" />
      <path
         inkscape:connector-curvature="0"
         d="m 257.96387,232 -23.02735,-64.42383 14.10645,0 16.30371,47.68067 15.77637,-47.68067 13.79882,0 L 271.85059,232 z"
         style="font-size:90px;font-weight:bold;text-anchor:middle;fill:#ffffff;stroke:none;font-family:Arial"
         id="path2996" />
    </g>
  </g>
</svg>
