<?xml version="1.0" encoding="UTF-8" standalone="no"?>
<!--
Copyright (C) 2012 United States Government as represented by the Administrator of the
National Aeronautics and Space Administration.
All Rights Reserved.
-->

<!--
MIL-STD-2525 tactical symbol icon image. During icon composition this image is multiplied by the desired frame color 
(e.g. black), then drawn on top of the frame and fill.
-->

<svg
   xmlns:dc="http://purl.org/dc/elements/1.1/"
   xmlns:cc="http://creativecommons.org/ns#"
   xmlns:rdf="http://www.w3.org/1999/02/22-rdf-syntax-ns#"
   xmlns:svg="http://www.w3.org/2000/svg"
   xmlns="http://www.w3.org/2000/svg"
   xmlns:sodipodi="http://sodipodi.sourceforge.net/DTD/sodipodi-0.dtd"
   xmlns:inkscape="http://www.inkscape.org/namespaces/inkscape"
   height="400px"
   viewBox="0 0 400 400"
   width="400px"
   id="svg2"
   version="1.1"
   inkscape:version="0.48.2 r9819"
   sodipodi:docname="sfgaucvruh-----.svg">
  <metadata
     id="metadata16">
    <rdf:RDF>
      <cc:Work
         rdf:about="">
        <dc:format>image/svg+xml</dc:format>
        <dc:type
           rdf:resource="http://purl.org/dc/dcmitype/StillImage" />
      </cc:Work>
    </rdf:RDF>
  </metadata>
  <defs
     id="defs14" />
  <sodipodi:namedview
     pagecolor="#ffffff"
     bordercolor="#666666"
     borderopacity="1"
     objecttolerance="10"
     gridtolerance="10"
     guidetolerance="10"
     inkscape:pageopacity="0"
     inkscape:pageshadow="2"
     inkscape:window-width="640"
     inkscape:window-height="480"
     id="namedview12"
     showgrid="false"
     inkscape:zoom="0.59"
     inkscape:cx="200"
     inkscape:cy="200"
     inkscape:window-x="0"
     inkscape:window-y="0"
     inkscape:window-maximized="0"
     inkscape:current-layer="svg2" />
  <polyline
     transform="translate(0,-5e-6)"
     points="200,200 110,150 110,250 200,200 290,150 290,250 200,200"
     style="fill:#ffffff;stroke:#000000;stroke-width:6;stroke-miterlimit:4;stroke-opacity:1;stroke-dasharray:12, 6;stroke-dashoffset:0"
     id="polyline4" />
  <g
     transform="translate(0,-5e-6)"
     style="font-size:65px;font-weight:bold;text-anchor:middle;fill:#ffffff;stroke:none;font-family:Arial"
     id="text6">
    <path
       inkscape:connector-curvature="0"
       d="m 181.27441,307 0,-46.52832 9.39454,0 0,18.31299 18.4082,0 0,-18.31299 9.39453,0 0,46.52832 -9.39453,0 0,-20.34424 -18.4082,0 0,20.34424 z"
       style="font-size:65px;font-weight:bold;text-anchor:middle;fill:#ffffff;stroke:none;font-family:Arial"
       id="path3765" />
  </g>
  <g
     transform="matrix(0.5,0,0,0.5,100,29.999995)"
     id="g8"
     style="stroke:none">
    <g
       style="font-size:150px;font-weight:bold;text-anchor:middle;fill:#ffffff;stroke:none;font-family:Arial"
       id="text10">
      <path
         inkscape:connector-curvature="0"
         d="m 156.56738,122.62695 21.67969,0 0,58.1543 c -3e-5,9.22856 0.26852,15.20999 0.80566,17.94434 0.9277,4.39455 3.13718,7.92238 6.62842,10.58349 3.49117,2.66115 8.26411,3.99172 14.31885,3.9917 6.15228,2e-5 10.79095,-1.25731 13.91602,-3.77197 3.12492,-2.51463 5.00481,-5.603 5.63964,-9.26514 0.6347,-3.66207 0.95208,-9.74117 0.95215,-18.2373 l 0,-59.39942 21.67969,0 0,56.39649 c -1e-4,12.89066 -0.58603,21.9971 -1.75781,27.31933 -1.17197,5.32229 -3.33261,9.81447 -6.48194,13.47657 -3.1495,3.66211 -7.36092,6.57959 -12.63427,8.75244 -5.27351,2.17285 -12.15827,3.25927 -20.6543,3.25927 -10.25395,0 -18.02982,-1.18408 -23.32764,-3.55224 -5.29787,-2.36816 -9.48488,-5.44433 -12.56103,-9.22852 -3.07619,-3.78416 -5.10256,-7.75144 -6.0791,-11.90185 -1.41603,-6.15232 -2.12404,-15.23434 -2.12403,-27.2461 z"
         style="font-size:150px;font-weight:bold;text-anchor:middle;fill:#ffffff;stroke:none;font-family:Arial"
         id="path3762" />
    </g>
  </g>
</svg>
