<?xml version="1.0" encoding="UTF-8" standalone="no"?>
<!--
Copyright (C) 2012 United States Government as represented by the Administrator of the
National Aeronautics and Space Administration.
All Rights Reserved.
-->

<!--
MIL-STD-2525 tactical symbol icon image. During icon composition this image is multiplied by the desired frame color 
(e.g. black), then drawn on top of the frame and fill.
-->

<svg
   xmlns:dc="http://purl.org/dc/elements/1.1/"
   xmlns:cc="http://creativecommons.org/ns#"
   xmlns:rdf="http://www.w3.org/1999/02/22-rdf-syntax-ns#"
   xmlns:svg="http://www.w3.org/2000/svg"
   xmlns="http://www.w3.org/2000/svg"
   xmlns:sodipodi="http://sodipodi.sourceforge.net/DTD/sodipodi-0.dtd"
   xmlns:inkscape="http://www.inkscape.org/namespaces/inkscape"
   height="400px"
   viewBox="0 0 400 400"
   width="400px"
   id="svg2"
   version="1.1"
   inkscape:version="0.48.2 r9819"
   sodipodi:docname="sfgair---------.svg">
  <metadata
     id="metadata12">
    <rdf:RDF>
      <cc:Work
         rdf:about="">
        <dc:format>image/svg+xml</dc:format>
        <dc:type
           rdf:resource="http://purl.org/dc/dcmitype/StillImage" />
      </cc:Work>
    </rdf:RDF>
  </metadata>
  <defs
     id="defs10" />
  <sodipodi:namedview
     pagecolor="#ffffff"
     bordercolor="#666666"
     borderopacity="1"
     objecttolerance="10"
     gridtolerance="10"
     guidetolerance="10"
     inkscape:pageopacity="0"
     inkscape:pageshadow="2"
     inkscape:window-width="640"
     inkscape:window-height="480"
     id="namedview8"
     showgrid="false"
     inkscape:zoom="0.59"
     inkscape:cx="200"
     inkscape:cy="200"
     inkscape:window-x="0"
     inkscape:window-y="0"
     inkscape:window-maximized="0"
     inkscape:current-layer="svg2" />
  <g
     style="font-size:75px;font-weight:bold;text-anchor:middle;fill:#ffffff;stroke:#000000;stroke-width:4;stroke-miterlimit:4;stroke-opacity:1;stroke-dasharray:8, 4;stroke-dashoffset:0;font-family:Arial"
     id="text4">
    <path
       inkscape:connector-curvature="0"
       d="m 155.35889,175 0,-53.68652 17.39502,0 c 6.59176,5e-5 10.88863,0.2686 12.89062,0.80566 3.07613,0.80572 5.65182,2.55742 7.72705,5.25513 2.07515,2.6978 3.11275,6.1829 3.11279,10.45532 -4e-5,3.29593 -0.59819,6.06693 -1.79443,8.31299 -1.19633,2.24612 -2.71611,4.01003 -4.55932,5.29175 -1.8433,1.28176 -3.71708,2.13014 -5.62134,2.54516 -2.58793,0.51272 -6.33548,0.76907 -11.24268,0.76905 l -7.06787,0 0,20.25146 z m 10.83984,-44.60449 0,15.23437 5.93262,0 c 4.27243,3e-5 7.12887,-0.28073 8.56933,-0.84228 1.4404,-0.5615 2.56955,-1.4404 3.38745,-2.63672 0.81784,-1.19626 1.22678,-2.58786 1.22681,-4.17481 -3e-5,-1.95308 -0.57376,-3.56441 -1.72119,-4.83398 -1.14749,-1.26949 -2.60013,-2.06294 -4.35791,-2.38037 -1.29397,-0.2441 -3.89407,-0.36617 -7.80029,-0.36621 z"
       style="font-size:75px;font-weight:bold;text-anchor:middle;fill:#ffffff;stroke:#000000;stroke-width:4;stroke-miterlimit:4;stroke-opacity:1;stroke-dasharray:8, 4;stroke-dashoffset:0;font-family:Arial"
       id="path2990" />
    <path
       inkscape:connector-curvature="0"
       d="m 202.70996,157.53174 10.54688,-1.02539 c 0.63475,3.54005 1.92259,6.14015 3.86352,7.80029 1.9409,1.66017 4.55931,2.49024 7.85523,2.49023 3.49118,10e-6 6.12179,-0.73851 7.89184,-2.21557 1.76999,-1.47704 2.655,-3.20433 2.65503,-5.18189 -3e-5,-1.26951 -0.37235,-2.34983 -1.11694,-3.24096 -0.74466,-0.8911 -2.04471,-1.66624 -3.90015,-2.32544 -1.26956,-0.43943 -4.16262,-1.22068 -8.6792,-2.34375 -5.81056,-1.44041 -9.88771,-3.21042 -12.23144,-5.31006 -3.29591,-2.95407 -4.94386,-6.55514 -4.94385,-10.80322 -1e-5,-2.73434 0.77514,-5.29171 2.32544,-7.67212 1.55028,-2.38032 3.78417,-4.19307 6.70166,-5.43823 2.91746,-1.24507 6.43919,-1.86763 10.56518,-1.86768 6.73825,5e-5 11.81027,1.4771 15.21607,4.43115 3.40572,2.95415 5.19405,6.89702 5.36499,11.82861 l -10.83985,0.47608 c -0.4639,-2.75875 -1.45877,-4.74239 -2.98461,-5.95093 -1.52591,-1.20845 -3.81473,-1.8127 -6.86646,-1.81274 -3.14943,4e-5 -5.61525,0.64701 -7.39746,1.94092 -1.14748,0.83012 -1.72121,1.94095 -1.72119,3.33251 -2e-5,1.26958 0.53709,2.356 1.61133,3.25928 1.36717,1.1475 4.68748,2.34379 9.96093,3.58887 5.27341,1.24515 9.17355,2.53299 11.70044,3.86352 2.52682,1.3306 4.50436,3.14945 5.93262,5.45655 1.42818,2.30715 2.14229,5.15749 2.14233,8.55102 -4e-5,3.07619 -0.85453,5.95704 -2.56347,8.64258 -1.70903,2.68555 -4.12602,4.6814 -7.25098,5.98755 -3.12503,1.30615 -7.01907,1.95923 -11.68213,1.95923 -6.78712,0 -11.99952,-1.5686 -15.6372,-4.70581 -3.63771,-3.1372 -5.81055,-7.70873 -6.51856,-13.7146 z"
       style="font-size:75px;font-weight:bold;text-anchor:middle;fill:#ffffff;stroke:#000000;stroke-width:4;stroke-miterlimit:4;stroke-opacity:1;stroke-dasharray:8, 4;stroke-dashoffset:0;font-family:Arial"
       id="path2992" />
  </g>
  <g
     style="font-size:75px;font-weight:bold;text-anchor:middle;fill:#ffffff;stroke:#000000;stroke-width:4;stroke-miterlimit:4;stroke-opacity:1;stroke-dasharray:8, 4;stroke-dashoffset:0;font-family:Arial"
     id="text6">
    <path
       inkscape:connector-curvature="0"
       d="m 147.11914,280 0,-53.68652 22.81494,0 c 5.73727,5e-5 9.90597,0.48223 12.50611,1.44653 2.60005,0.96441 4.68135,2.67949 6.24389,5.14526 1.56245,2.46587 2.3437,5.28569 2.34375,8.45948 -5e-5,4.02835 -1.18413,7.35476 -3.55224,9.97924 -2.36821,2.62454 -5.90825,4.27859 -10.62012,4.96216 2.34371,1.36721 4.27852,2.86868 5.80444,4.5044 1.52584,1.63576 3.58272,4.54103 6.17066,8.71582 L 195.38574,280 l -12.96387,0 -7.83691,-11.68213 c -2.78323,-4.17479 -4.68753,-6.8054 -5.71289,-7.89184 -1.02542,-1.08641 -2.11184,-1.83104 -3.25928,-2.23389 -1.14748,-0.40281 -2.96633,-0.60423 -5.45654,-0.60425 l -2.19727,0 0,22.41211 z m 10.83984,-30.98145 8.02002,0 c 5.20017,4e-5 8.44724,-0.21969 9.74121,-0.65918 1.29391,-0.43942 2.3071,-1.19625 3.03956,-2.2705 0.73238,-1.07419 1.09859,-2.41696 1.09863,-4.02832 -4e-5,-1.8066 -0.48222,-3.26534 -1.44653,-4.37622 -0.9644,-1.1108 -2.32548,-1.8127 -4.08326,-2.10572 -0.87893,-0.12202 -3.51565,-0.18306 -7.91015,-0.1831 l -8.45948,0 z"
       style="font-size:75px;font-weight:bold;text-anchor:middle;fill:#ffffff;stroke:#000000;stroke-width:4;stroke-miterlimit:4;stroke-opacity:1;stroke-dasharray:8, 4;stroke-dashoffset:0;font-family:Arial"
       id="path2995" />
    <path
       inkscape:connector-curvature="0"
       d="m 201.13525,280 0,-53.68652 16.22315,0 9.74121,36.62109 9.63135,-36.62109 16.25976,0 0,53.68652 -10.0708,0 0,-42.26074 L 232.26318,280 l -10.43701,0 -10.62012,-42.26074 0,42.26074 z"
       style="font-size:75px;font-weight:bold;text-anchor:middle;fill:#ffffff;stroke:#000000;stroke-width:4;stroke-miterlimit:4;stroke-opacity:1;stroke-dasharray:8, 4;stroke-dashoffset:0;font-family:Arial"
       id="path2997" />
  </g>
</svg>
