<?xml version="1.0"?>
<!--
Copyright (C) 2012 United States Government as represented by the Administrator of the
National Aeronautics and Space Administration.
All Rights Reserved.
-->

<!DOCTYPE svg PUBLIC "-//W3C//DTD SVG 1.1//EN" "http://www.w3.org/Graphics/SVG/1.1/DTD/svg11.dtd" >
<!--
MIL-STD-2525 tactical symbol icon image. During icon composition this image is multiplied by the desired frame color 
(e.g. black), then drawn on top of the frame and fill.
-->
<svg xmlns:xlink="http://www.w3.org/1999/xlink" height="400px" viewBox="0 0 400 400" width="400px"><g transform="translate(122 86) scale(5.5 5.5)"><path d="M23.615 35.928 L4.895 35.928 C1.631 35.928 0 34.92 0 32.904 C0 31.513 0.814 30.625    2.447 30.24 C3.215 30.049 4.582 29.953 6.551 29.953 L24.551 29.953 C27.719    29.953 29.303 30.937 29.303 32.904 C29.303 34.92 27.406 35.928 23.615 35.928    zM4.752 30.889 C3.072 30.889 2.232 31.561 2.232 32.905 C2.232 34.249 3.671 34.921    6.55 34.921 L24.335 34.921 C26.159 34.921 27.071 34.249 27.071 32.905 C27.071    31.897 26.591 31.274 25.63 31.034 C25.294 30.987 24.405 30.962 22.966 30.962    zM8.064 3.529 L9.648 3.529 L9.648 19.728 L8.064 19.728 zM17.531 28.729    C16.642 29.499 15.527 29.881 14.183 29.881 C12.839 29.881 11.71 29.498 10.798    28.729 C9.887 27.961 9.432 27 9.432 25.848 C9.432 24.746 9.899 23.811 10.836    23.041 C11.772 22.273 12.863 21.865 14.111 21.816 C15.406 21.816 16.547 22.201    17.531 22.968 C18.515 23.738 18.982 24.697 18.935 25.847 C18.887 27 18.418    27.961 17.531 28.729 zM13.391 8.281 L13.391 6.697 L9.648 6.697 L9.648 8.281    zM13.391 12.24 L13.391 10.656 L9.648 10.656 L9.648 12.24 zM13.391 16.201 L13.391    14.617 L9.648 14.617 L9.648 16.201 zM14.256 23.041 C13.295 23.041 12.492    23.307 11.844 23.834 C11.196 24.361 10.871 25.033 10.871 25.848 C10.871 26.618    11.195 27.278 11.844 27.828 C12.492 28.381 13.295 28.656 14.256 28.656 C15.166    28.656 15.947 28.381 16.596 27.828 C17.244 27.277 17.569 26.617 17.569 25.848    C17.569 24.985 17.231 24.301 16.559 23.797 C15.887 23.293 15.119 23.041    14.256 23.041 zM15.119 0 L15.119 21.816 L13.32 21.888 L13.32 0 zM18.432 8.281    L18.432 6.697 L15.119 6.697 L15.119 8.353 zM18.432 12.24 L18.432 10.584 L15.119    10.656 L15.119 12.312 zM18.432 16.201 L18.432 14.617 L15.119 14.617 L15.119    16.273 zM18.432 3.457 L20.161 3.457 L20.161 19.656 L18.432 19.656 z" style="fill:rgb(255,255,255)"/></g></svg>