<?xml version="1.0" encoding="UTF-8" standalone="no"?>
<!--
Copyright (C) 2012 United States Government as represented by the Administrator of the
National Aeronautics and Space Administration.
All Rights Reserved.
-->

<!--
MIL-STD-2525 tactical symbol icon image. During icon composition this image is multiplied by the desired frame color 
(e.g. black), then drawn on top of the frame and fill.
-->

<svg
   xmlns:dc="http://purl.org/dc/elements/1.1/"
   xmlns:cc="http://creativecommons.org/ns#"
   xmlns:rdf="http://www.w3.org/1999/02/22-rdf-syntax-ns#"
   xmlns:svg="http://www.w3.org/2000/svg"
   xmlns="http://www.w3.org/2000/svg"
   xmlns:sodipodi="http://sodipodi.sourceforge.net/DTD/sodipodi-0.dtd"
   xmlns:inkscape="http://www.inkscape.org/namespaces/inkscape"
   height="400px"
   viewBox="0 0 400 400"
   width="400px"
   id="svg2"
   version="1.1"
   inkscape:version="0.48.2 r9819"
   sodipodi:docname="sfpat----------.svg">
  <metadata
     id="metadata18">
    <rdf:RDF>
      <cc:Work
         rdf:about="">
        <dc:format>image/svg+xml</dc:format>
        <dc:type
           rdf:resource="http://purl.org/dc/dcmitype/StillImage" />
      </cc:Work>
    </rdf:RDF>
  </metadata>
  <defs
     id="defs16" />
  <sodipodi:namedview
     pagecolor="#ffffff"
     bordercolor="#666666"
     borderopacity="1"
     objecttolerance="10"
     gridtolerance="10"
     guidetolerance="10"
     inkscape:pageopacity="0"
     inkscape:pageshadow="2"
     inkscape:window-width="640"
     inkscape:window-height="480"
     id="namedview14"
     showgrid="false"
     inkscape:zoom="0.59"
     inkscape:cx="200"
     inkscape:cy="200"
     inkscape:window-x="235"
     inkscape:window-y="151"
     inkscape:window-maximized="0"
     inkscape:current-layer="svg2" />
  <path
     inkscape:connector-curvature="0"
     d="m 200,175 c -110,20 -110,35 0,68 120,-43 120,-33 0,-68"
     style="fill:none;stroke:#ffffff;stroke-width:20"
     id="path4" />
  <path
     inkscape:connector-curvature="0"
     d="M 100,205 C 200,180 200,180 280,190"
     style="fill:none;stroke:#ffffff;stroke-width:15"
     id="path6" />
  <path
     inkscape:connector-curvature="0"
     d="m 105,225 c 75,42 95,42 193,5"
     style="fill:none;stroke:#ffffff;stroke-width:20"
     id="path8" />
  <path
     inkscape:connector-curvature="0"
     id="path12"
     style="fill:#ffffff;stroke:#000000;stroke-width:6;stroke-miterlimit:4;stroke-dasharray:12, 6;stroke-dashoffset:0"
     d="m 207.13,145.92 c 0,0.87 0,1.878 0,3.024 l -7.344,3.456 c 2.298,3.468 4.608,7.932 6.912,13.392 13.83,0.87 27.642,2.448 41.472,4.746 29.952,4.62 47.226,14.262 51.846,28.944 0.282,0.588 0.432,6.342 0.432,17.286 0,0.294 0,1.23 0,2.814 0,1.584 0,3.096 0,4.536 0.282,4.608 0.126,8.064 -0.432,10.362 -0.87,4.326 -3.888,8.358 -9.072,12.108 -7.206,5.766 -14.124,9.504 -20.742,11.226 -3.456,0.87 -16.416,3.468 -38.88,7.782 -6.63,1.146 -16.854,1.722 -30.666,1.722 -14.976,0 -33.702,-2.016 -56.154,-6.048 -2.88,-0.576 -7.35,-1.722 -13.392,-3.456 -17.862,-6.048 -28.092,-14.112 -30.666,-24.186 -0.306,-1.74 -0.444,-4.902 -0.444,-9.504 0,-1.146 0.138,-2.592 0.432,-4.326 0,-1.722 0,-2.658 0,-2.802 0,-0.144 0,-1.08 0,-2.814 -0.294,-1.722 -0.432,-3.162 -0.432,-4.32 -0.294,-4.608 -0.012,-7.77 0.858,-9.504 4.314,-12.96 17.13,-21.888 38.448,-26.79 2.592,-0.564 6.342,-1.29 11.238,-2.154 18.714,-3.444 31.242,-5.178 37.584,-5.178 2.88,-5.754 4.464,-10.65 4.746,-14.694 L 155.29,167.52 c -4.902,-0.858 -9.21,-3.444 -12.96,-7.77 l 45.798,-19.008 c 0.87,-0.282 1.584,-0.714 2.154,-1.302 l 1.734,-1.29 c -0.588,-0.576 -1.302,-1.146 -2.166,-1.734 l 0,-4.308 3.888,0 c 0.282,-1.44 0.432,-4.896 0.432,-10.374 1.722,0.588 4.17,1.44 7.35,2.592 0,0.294 0,3.612 0,9.936 L 238.234,120 c 2.592,1.158 6.762,3.318 12.528,6.48 -2.886,1.452 -17.424,7.932 -43.632,19.44 z m 88.998,70.422 c -15.564,18.138 -47.532,27.21 -95.904,27.21 -47.814,0 -79.782,-9.21 -95.904,-27.642 0,2.016 -0.15,4.686 -0.432,7.992 -0.282,3.318 -0.42,5.262 -0.42,5.838 0,1.44 1.794,4.254 5.388,8.424 3.594,4.17 6.258,6.846 7.992,7.992 6.624,3.75 12.096,6.342 16.416,7.77 3.162,0.87 7.626,2.028 13.392,3.456 l 34.128,6.048 c 0.576,0 7.194,0 19.878,0 11.226,0 16.266,0 15.12,0 4.032,-0.282 11.52,-1.44 22.464,-3.456 6.912,-1.146 16.854,-3.162 29.814,-6.048 6.912,-2.016 13.464,-5.544 19.65,-10.584 6.186,-5.04 9.294,-9.576 9.294,-13.608 0,-1.722 -0.15,-4.032 -0.432,-6.912 -0.306,-2.886 -0.444,-5.04 -0.444,-6.48 z m -36.732,-38.886 c -4.032,-0.858 -11.952,-2.298 -23.754,-4.314 -14.112,-2.298 -22.896,-3.456 -26.358,-3.456 l -0.432,0 c 1.44,2.88 2.31,4.896 2.604,6.048 1.428,0.294 7.044,1.302 16.842,3.024 8.928,1.146 16.128,2.592 21.6,4.314 13.83,4.62 20.742,11.238 20.742,19.878 0,11.238 -11.1,19.02 -33.27,23.334 -11.52,2.31 -23.754,3.456 -36.714,3.456 -7.488,0 -14.112,-0.354 -19.878,-1.08 -5.766,-0.726 -13.674,-2.1 -23.754,-4.116 -2.016,-1.146 -4.968,-2.37 -8.862,-3.666 -3.888,-1.29 -7.638,-3.876 -11.238,-7.77 -3.6,-3.894 -5.388,-7.278 -5.388,-10.158 0,-8.064 7.338,-14.682 22.032,-19.878 9.492,-3.444 20.436,-5.754 32.826,-6.9 0.282,-1.44 0.714,-3.318 1.302,-5.628 l -7.776,0 c 2.016,0 -2.604,0.87 -13.83,2.604 -11.232,1.728 -19.518,3.09 -24.84,4.098 -5.334,1.008 -12.174,3.96 -20.52,8.862 -10.944,6.342 -16.416,12.678 -16.416,19.008 0,8.064 8.064,15.408 24.198,22.032 11.226,4.896 19.29,7.488 24.186,7.77 1.146,0.294 8.064,1.302 20.742,3.024 8.346,1.158 17.274,1.734 26.778,1.734 18.714,0 37.008,-2.016 54.87,-6.048 6.33,-1.44 13.674,-4.326 22.032,-8.646 12.96,-6.33 19.44,-13.104 19.44,-20.298 0,-5.472 -4.62,-11.238 -13.83,-17.286 -7.782,-5.184 -15.552,-8.49 -23.334,-9.942 z m -123.972,25.488 c 0,0.588 0.858,1.878 2.592,3.888 6.33,-5.46 20.73,-10.5 43.194,-15.12 0.87,-2.88 2.154,-7.056 3.888,-12.528 l 0.87,0.858 c -33.702,5.772 -50.544,13.41 -50.544,22.902 z m 41.46,-6.48 c -2.88,0 -10.362,2.016 -22.452,6.048 -5.484,1.734 -10.092,4.476 -13.83,8.214 7.476,5.766 18.138,9.936 31.968,12.528 l 7.35,-26.79 z m 11.676,-50.976 -38.016,15.552 c 2.592,1.734 4.032,2.604 4.314,2.604 0.576,0 12.96,-5.616 37.158,-16.854 z m 27.642,51.408 c -8.064,-1.146 -15.846,-1.722 -23.334,-1.722 -7.488,0 -10.218,0.15 -8.202,0.432 l -7.782,28.932 c 0.282,0 3.456,0.432 9.504,1.302 0.87,0 5.616,0 14.262,0 9.504,0 19.008,-0.858 28.512,-2.592 -2.88,-6.324 -7.206,-15.114 -12.96,-26.352 z m -18.138,-11.658 c 0,-2.592 0,-4.464 0,-5.616 l -6.048,0.42 c -1.158,0 -2.028,0 -2.592,0 -0.87,3.75 -1.884,7.5 -3.036,11.238 4.314,-0.282 8.202,-0.138 11.67,0.432 0.006,-1.716 0.006,-3.87 0.006,-6.474 z m -2.172,-15.552 -3.444,0 c -0.294,1.146 -0.588,2.31 -0.87,3.456 l -0.87,2.592 c 2.592,-0.282 4.608,-0.432 6.048,-0.432 -0.288,-2.298 -0.582,-4.176 -0.864,-5.616 z m -0.852,-9.066 c -0.294,1.44 -0.87,3.162 -1.734,5.178 l 2.166,0 0.42,-0.432 c -0.276,-0.87 -0.57,-2.454 -0.852,-4.746 z m 3.888,-18.156 c -0.87,0.294 -1.734,0.726 -2.604,1.302 l 0.432,0 1.302,0.87 c 0.858,0.576 1.722,1.29 2.592,2.154 l 0.432,0 c -0.864,-1.722 -1.59,-3.162 -2.154,-4.326 z m 0.858,20.31 c -0.576,-1.428 -1.44,-3.444 -2.592,-6.048 l 1.734,-0.432 c 0,0.294 0.072,0.726 0.21,1.302 0.138,0.576 0.354,2.016 0.642,4.314 l 0,0.864 z m 0,0 c 0.282,1.146 0.282,2.154 0,3.024 l 1.302,0 z m 3.888,7.35 -3.024,0 c 0.282,1.146 0.432,2.73 0.432,4.746 l 5.178,0 c -1.14,-1.434 -2.01,-3.012 -2.586,-4.746 z m 37.152,-44.076 c -1.146,-0.564 -2.016,-0.858 -2.592,-0.858 -1.44,0 -13.392,4.896 -35.862,14.682 l 0.87,1.302 0.432,0.858 0.432,0.432 37.584,-16.416 z m -34.56,53.142 -3.456,0 c -0.576,5.178 -0.576,9.366 0,12.528 4.314,0 8.064,0.15 11.238,0.432 -3.468,-8.634 -6.06,-12.96 -7.782,-12.96 z m 41.04,8.202 c -0.576,-0.282 -7.488,-1.866 -20.73,-4.746 l -11.238,-2.604 -2.154,0 6.48,12.54 c 20.73,1.44 35.85,6.186 45.366,14.25 1.146,-1.722 1.722,-3.024 1.722,-3.888 -0.006,-6.048 -6.486,-11.226 -19.446,-15.552 z m -25.926,9.504 c 1.146,1.734 5.334,10.08 12.54,25.056 9.786,-0.282 19.29,-4.032 28.512,-11.226 -7.206,-6.618 -20.892,-11.226 -41.052,-13.83 z" />
</svg>
