<?xml version="1.0" encoding="UTF-8" standalone="no"?>
<!--
Copyright (C) 2012 United States Government as represented by the Administrator of the
National Aeronautics and Space Administration.
All Rights Reserved.
-->

<!--
MIL-STD-2525 tactical symbol icon image. During icon composition this image is multiplied by the desired frame color 
(e.g. black), then drawn on top of the frame and fill.
-->

<svg
   xmlns:dc="http://purl.org/dc/elements/1.1/"
   xmlns:cc="http://creativecommons.org/ns#"
   xmlns:rdf="http://www.w3.org/1999/02/22-rdf-syntax-ns#"
   xmlns:svg="http://www.w3.org/2000/svg"
   xmlns="http://www.w3.org/2000/svg"
   xmlns:sodipodi="http://sodipodi.sourceforge.net/DTD/sodipodi-0.dtd"
   xmlns:inkscape="http://www.inkscape.org/namespaces/inkscape"
   height="400px"
   viewBox="0 0 400 400"
   width="400px"
   id="svg2"
   version="1.1"
   inkscape:version="0.48.2 r9819"
   sodipodi:docname="sfsaclcc-------.svg">
  <metadata
     id="metadata10">
    <rdf:RDF>
      <cc:Work
         rdf:about="">
        <dc:format>image/svg+xml</dc:format>
        <dc:type
           rdf:resource="http://purl.org/dc/dcmitype/StillImage" />
      </cc:Work>
    </rdf:RDF>
  </metadata>
  <defs
     id="defs8" />
  <sodipodi:namedview
     pagecolor="#ffffff"
     bordercolor="#666666"
     borderopacity="1"
     objecttolerance="10"
     gridtolerance="10"
     guidetolerance="10"
     inkscape:pageopacity="0"
     inkscape:pageshadow="2"
     inkscape:window-width="640"
     inkscape:window-height="480"
     id="namedview6"
     showgrid="false"
     inkscape:zoom="0.59"
     inkscape:cx="200"
     inkscape:cy="200"
     inkscape:window-x="0"
     inkscape:window-y="0"
     inkscape:window-maximized="0"
     inkscape:current-layer="svg2" />
  <g
     style="font-size:140px;font-weight:bold;text-anchor:middle;fill:#ffffff;stroke:#000000;stroke-width:6;stroke-miterlimit:4;stroke-opacity:1;stroke-dasharray:12, 6;stroke-dashoffset:0;font-family:Arial"
     id="text4">
    <path
       inkscape:connector-curvature="0"
       d="m 173.13477,213.1543 19.61914,6.2207 c -3.00791,10.93752 -8.00953,19.06088 -15.00489,24.37012 -6.99551,5.30924 -15.87083,7.96386 -26.62597,7.96386 -13.30733,0 -24.24482,-4.54589 -32.8125,-13.63769 -8.56772,-9.09178 -12.85157,-21.52178 -12.85157,-37.29004 0,-16.67962 4.30663,-29.63371 12.91993,-38.8623 8.61325,-9.22842 19.93811,-13.84268 33.97461,-13.84278 12.25904,1e-4 22.21672,3.62315 29.87304,10.86914 4.55721,4.28394 7.97517,10.43628 10.25391,18.45703 l -20.0293,4.78516 c -1.18497,-5.19524 -3.65729,-9.2968 -7.41699,-12.30469 -3.75983,-3.00773 -8.32851,-4.51163 -13.70606,-4.51172 -7.42843,9e-5 -13.45544,2.6661 -18.08105,7.99805 -4.62568,5.3321 -6.9385,13.96816 -6.93848,25.9082 -2e-5,12.66931 2.27862,21.69274 6.83594,27.07032 4.55725,5.37762 10.48173,8.06642 17.77344,8.0664 5.37755,2e-5 10.00319,-1.70896 13.87695,-5.12695 3.87363,-3.41795 6.65358,-8.79554 8.33985,-16.13281 z"
       style="font-size:140px;font-weight:bold;text-anchor:middle;fill:#ffffff;stroke:#000000;stroke-width:6;stroke-miterlimit:4;stroke-opacity:1;stroke-dasharray:12, 6;stroke-dashoffset:0;font-family:Arial"
       id="path2988" />
    <path
       inkscape:connector-curvature="0"
       d="m 274.30664,213.1543 19.61914,6.2207 c -3.0079,10.93752 -8.00952,19.06088 -15.00488,24.37012 -6.99552,5.30924 -15.87083,7.96386 -26.62598,7.96386 -13.30733,0 -24.24482,-4.54589 -32.8125,-13.63769 -8.56772,-9.09178 -12.85157,-21.52178 -12.85156,-37.29004 -1e-5,-16.67962 4.30663,-29.63371 12.91992,-38.8623 8.61325,-9.22842 19.93811,-13.84268 33.97461,-13.84278 12.25905,1e-4 22.21672,3.62315 29.87305,10.86914 4.5572,4.28394 7.97517,10.43628 10.2539,18.45703 l -20.02929,4.78516 c -1.18497,-5.19524 -3.6573,-9.2968 -7.417,-12.30469 -3.75982,-3.00773 -8.3285,-4.51163 -13.70605,-4.51172 -7.42843,9e-5 -13.45544,2.6661 -18.08105,7.99805 -4.62569,5.3321 -6.93851,13.96816 -6.93848,25.9082 -3e-5,12.66931 2.27861,21.69274 6.83594,27.07032 4.55725,5.37762 10.48172,8.06642 17.77343,8.0664 5.37755,2e-5 10.0032,-1.70896 13.87696,-5.12695 3.87362,-3.41795 6.65357,-8.79554 8.33984,-16.13281 z"
       style="font-size:140px;font-weight:bold;text-anchor:middle;fill:#ffffff;stroke:#000000;stroke-width:6;stroke-miterlimit:4;stroke-opacity:1;stroke-dasharray:12, 6;stroke-dashoffset:0;font-family:Arial"
       id="path2990" />
  </g>
</svg>
