<?xml version="1.0" encoding="UTF-8" standalone="no"?>
<!--
Copyright (C) 2012 United States Government as represented by the Administrator of the
National Aeronautics and Space Administration.
All Rights Reserved.
-->

<!--
MIL-STD-2525 tactical symbol icon image. During icon composition this image is multiplied by the desired frame color 
(e.g. black), then drawn on top of the frame and fill.
-->

<svg
   xmlns:dc="http://purl.org/dc/elements/1.1/"
   xmlns:cc="http://creativecommons.org/ns#"
   xmlns:rdf="http://www.w3.org/1999/02/22-rdf-syntax-ns#"
   xmlns:svg="http://www.w3.org/2000/svg"
   xmlns="http://www.w3.org/2000/svg"
   xmlns:sodipodi="http://sodipodi.sourceforge.net/DTD/sodipodi-0.dtd"
   xmlns:inkscape="http://www.inkscape.org/namespaces/inkscape"
   height="400px"
   viewBox="0 0 400 400"
   width="400px"
   id="svg2"
   version="1.1"
   inkscape:version="0.48.2 r9819"
   sodipodi:docname="sfuasl---------.svg">
  <metadata
     id="metadata12">
    <rdf:RDF>
      <cc:Work
         rdf:about="">
        <dc:format>image/svg+xml</dc:format>
        <dc:type
           rdf:resource="http://purl.org/dc/dcmitype/StillImage" />
      </cc:Work>
    </rdf:RDF>
  </metadata>
  <defs
     id="defs10" />
  <sodipodi:namedview
     pagecolor="#ffffff"
     bordercolor="#666666"
     borderopacity="1"
     objecttolerance="10"
     gridtolerance="10"
     guidetolerance="10"
     inkscape:pageopacity="0"
     inkscape:pageshadow="2"
     inkscape:window-width="640"
     inkscape:window-height="480"
     id="namedview8"
     showgrid="false"
     inkscape:zoom="0.59"
     inkscape:cx="200"
     inkscape:cy="200"
     inkscape:window-x="0"
     inkscape:window-y="0"
     inkscape:window-maximized="0"
     inkscape:current-layer="svg2" />
  <polygon
     points="140,230 90,180 140,130 260,130 310,180 260,230 "
     style="fill:#ffffff;stroke:#000000;stroke-width:6;stroke-miterlimit:4;stroke-opacity:1;stroke-dasharray:12, 6;stroke-dashoffset:0"
     id="polygon4" />
  <g
     style="font-size:75px;font-weight:bold;text-anchor:middle;fill:#ffffff;stroke:none;font-family:Arial"
     id="text6">
    <path
       inkscape:connector-curvature="0"
       d="m 153.30811,297 0,-53.68652 17.39501,0 c 6.59177,5e-5 10.88864,0.2686 12.89063,0.80566 3.07613,0.80572 5.65181,2.55742 7.72705,5.25513 2.07515,2.6978 3.11275,6.1829 3.11279,10.45532 -4e-5,3.29593 -0.59819,6.06693 -1.79443,8.31299 -1.19633,2.24612 -2.71611,4.01003 -4.55933,5.29175 -1.8433,1.28176 -3.71707,2.13014 -5.62133,2.54516 -2.58793,0.51272 -6.33548,0.76907 -11.24268,0.76905 l -7.06787,0 0,20.25146 z m 10.83984,-44.60449 0,15.23437 5.93262,0 c 4.27243,3e-5 7.12887,-0.28073 8.56933,-0.84228 1.4404,-0.5615 2.56955,-1.4404 3.38745,-2.63672 0.81784,-1.19626 1.22677,-2.58786 1.22681,-4.17481 -4e-5,-1.95308 -0.57377,-3.56441 -1.72119,-4.83398 -1.14749,-1.26949 -2.60013,-2.06294 -4.35791,-2.38037 -1.29397,-0.2441 -3.89407,-0.36617 -7.80029,-0.36621 z"
       style="font-size:75px;font-weight:bold;text-anchor:middle;fill:#ffffff;stroke:none;font-family:Arial"
       id="path3758" />
    <path
       inkscape:connector-curvature="0"
       d="m 203.44238,243.31348 21.45996,0 c 4.24802,5e-5 7.41574,0.17705 9.50318,0.531 2.08736,0.35406 3.95504,1.09258 5.60302,2.21558 1.64791,1.1231 3.0212,2.61846 4.11988,4.48608 1.09858,1.86772 1.6479,3.96123 1.64795,6.28052 -5e-5,2.51469 -0.67754,4.82181 -2.03247,6.92139 -1.35503,2.09964 -3.19218,3.67434 -5.51148,4.72412 3.27144,0.95217 5.78609,2.57571 7.54395,4.8706 1.75776,2.29495 2.63667,4.9927 2.63672,8.09327 -5e-5,2.44141 -0.56768,4.81568 -1.70288,7.1228 -1.13531,2.30713 -2.6856,4.15039 -4.65088,5.52978 -1.96538,1.3794 -4.38847,2.22779 -7.26929,2.54517 -1.80668,0.19531 -6.16458,0.31738 -13.07373,0.36621 l -18.27393,0 z m 10.83985,8.93554 0,12.41455 7.10449,0 c 4.2236,4e-5 6.84811,-0.061 7.87353,-0.1831 1.85544,-0.2197 3.31418,-0.86056 4.37622,-1.92261 1.06198,-1.06197 1.59298,-2.45968 1.59302,-4.19311 -4e-5,-1.66012 -0.4578,-3.009 -1.37329,-4.04663 -0.91556,-1.03756 -2.27664,-1.66622 -4.08325,-1.88599 -1.07425,-0.12203 -4.16263,-0.18306 -9.26514,-0.18311 z m 0,21.3501 0,14.35547 10.03418,0 c 3.90622,1e-5 6.38424,-0.10985 7.43408,-0.32959 1.61129,-0.29296 2.92355,-1.00707 3.93677,-2.14233 1.01314,-1.13525 1.51973,-2.65502 1.51977,-4.55933 -4e-5,-1.61131 -0.39066,-2.9785 -1.17187,-4.10156 -0.78129,-1.12303 -1.91044,-1.9409 -3.38745,-2.45362 -1.47709,-0.51267 -4.68143,-0.76902 -9.61304,-0.76904 z"
       style="font-size:75px;font-weight:bold;text-anchor:middle;fill:#ffffff;stroke:none;font-family:Arial"
       id="path3760" />
  </g>
</svg>
