<?xml version="1.0" encoding="UTF-8" standalone="no"?>
<!--
Copyright (C) 2012 United States Government as represented by the Administrator of the
National Aeronautics and Space Administration.
All Rights Reserved.
-->

<!--
MIL-STD-2525 tactical symbol icon image. During icon composition this image is multiplied by the desired frame color 
(e.g. black), then drawn on top of the frame and fill.
-->

<svg
   xmlns:dc="http://purl.org/dc/elements/1.1/"
   xmlns:cc="http://creativecommons.org/ns#"
   xmlns:rdf="http://www.w3.org/1999/02/22-rdf-syntax-ns#"
   xmlns:svg="http://www.w3.org/2000/svg"
   xmlns="http://www.w3.org/2000/svg"
   xmlns:sodipodi="http://sodipodi.sourceforge.net/DTD/sodipodi-0.dtd"
   xmlns:inkscape="http://www.inkscape.org/namespaces/inkscape"
   height="400px"
   viewBox="0 0 400 400"
   width="400px"
   id="svg2"
   version="1.1"
   inkscape:version="0.48.2 r9819"
   sodipodi:docname="sfuasnb--------.svg">
  <metadata
     id="metadata14">
    <rdf:RDF>
      <cc:Work
         rdf:about="">
        <dc:format>image/svg+xml</dc:format>
        <dc:type
           rdf:resource="http://purl.org/dc/dcmitype/StillImage" />
      </cc:Work>
    </rdf:RDF>
  </metadata>
  <defs
     id="defs12" />
  <sodipodi:namedview
     pagecolor="#ffffff"
     bordercolor="#666666"
     borderopacity="1"
     objecttolerance="10"
     gridtolerance="10"
     guidetolerance="10"
     inkscape:pageopacity="0"
     inkscape:pageshadow="2"
     inkscape:window-width="640"
     inkscape:window-height="480"
     id="namedview10"
     showgrid="false"
     inkscape:zoom="0.59"
     inkscape:cx="200"
     inkscape:cy="200"
     inkscape:window-x="0"
     inkscape:window-y="0"
     inkscape:window-maximized="0"
     inkscape:current-layer="svg2" />
  <path
     inkscape:connector-curvature="0"
     style="fill:#000000;stroke:#000000;stroke-width:6;stroke-miterlimit:4;stroke-dasharray:12, 6;stroke-dashoffset:0"
     d="m 140,150 0,20 -50,50 50,50 120,0 50,-50 -50,-50 0,-20 -120,0 z"
     id="polygon4" />
  <g
     style="font-size:100px;font-weight:bold;text-anchor:middle;fill:#ffffff;stroke:none;font-family:Arial"
     id="text8">
    <path
       inkscape:connector-curvature="0"
       d="m 171.19141,183.41797 28.61328,0 c 5.66402,7e-5 9.88765,0.23607 12.6709,0.70801 2.78315,0.47207 5.27338,1.45677 7.4707,2.9541 2.19721,1.49746 4.02826,3.49127 5.49316,5.98144 1.46478,2.4903 2.1972,5.28164 2.19727,8.37403 -7e-5,3.35291 -0.90338,6.42908 -2.70996,9.22851 -1.8067,2.79952 -4.25624,4.89913 -7.34864,6.29883 4.36193,1.26957 7.71479,3.43428 10.0586,6.49414 2.34368,3.05993 3.51556,6.65693 3.51562,10.79102 -6e-5,3.25522 -0.7569,6.42091 -2.2705,9.49707 -1.51374,3.07618 -3.58079,5.53386 -6.20118,7.37304 -2.62049,1.8392 -5.85129,2.97038 -9.69238,3.39356 -2.4089,0.26042 -8.21944,0.42318 -17.43164,0.48828 l -24.36523,0 z m 14.45312,11.91406 0,16.55274 9.47266,0 c 5.63147,4e-5 9.13082,-0.0813 10.49804,-0.24415 2.47392,-0.29292 4.4189,-1.14741 5.83497,-2.56347 1.41596,-1.41597 2.12397,-3.27957 2.12402,-5.59082 -5e-5,-2.21349 -0.6104,-4.01199 -1.83106,-5.39551 -1.22075,-1.3834 -3.03552,-2.22162 -5.44433,-2.51465 -1.43233,-0.1627 -5.55017,-0.24408 -12.35352,-0.24414 z m 0,28.4668 0,19.14062 13.37891,0 c 5.20829,2e-5 8.51232,-0.14647 9.91211,-0.43945 2.14839,-0.39061 3.89806,-1.34276 5.24902,-2.85645 1.35086,-1.51365 2.02632,-3.54002 2.02637,-6.0791 -5e-5,-2.14841 -0.52089,-3.97133 -1.5625,-5.46875 -1.04172,-1.49736 -2.54725,-2.58786 -4.5166,-3.27148 -1.96945,-0.68356 -6.24191,-1.02536 -12.81739,-1.02539 z"
       style="font-size:100px;font-weight:bold;text-anchor:middle;fill:#ffffff;stroke:none;font-family:Arial"
       id="path3764" />
  </g>
</svg>
