<?xml version="1.0" encoding="UTF-8" standalone="no"?>
<!--
Copyright (C) 2012 United States Government as represented by the Administrator of the
National Aeronautics and Space Administration.
All Rights Reserved.
-->

<!--
MIL-STD-2525 tactical symbol icon image. During icon composition this image is multiplied by the desired frame color 
(e.g. black), then drawn on top of the frame and fill.
-->

<svg
   xmlns:dc="http://purl.org/dc/elements/1.1/"
   xmlns:cc="http://creativecommons.org/ns#"
   xmlns:rdf="http://www.w3.org/1999/02/22-rdf-syntax-ns#"
   xmlns:svg="http://www.w3.org/2000/svg"
   xmlns="http://www.w3.org/2000/svg"
   xmlns:sodipodi="http://sodipodi.sourceforge.net/DTD/sodipodi-0.dtd"
   xmlns:inkscape="http://www.inkscape.org/namespaces/inkscape"
   height="400px"
   viewBox="0 0 400 400"
   width="400px"
   id="svg2"
   version="1.1"
   inkscape:version="0.48.2 r9819"
   sodipodi:docname="shfaav---------.svg">
  <metadata
     id="metadata14">
    <rdf:RDF>
      <cc:Work
         rdf:about="">
        <dc:format>image/svg+xml</dc:format>
        <dc:type
           rdf:resource="http://purl.org/dc/dcmitype/StillImage" />
      </cc:Work>
    </rdf:RDF>
  </metadata>
  <defs
     id="defs12" />
  <sodipodi:namedview
     pagecolor="#ffffff"
     bordercolor="#666666"
     borderopacity="1"
     objecttolerance="10"
     gridtolerance="10"
     guidetolerance="10"
     inkscape:pageopacity="0"
     inkscape:pageshadow="2"
     inkscape:window-width="640"
     inkscape:window-height="480"
     id="namedview10"
     showgrid="false"
     inkscape:zoom="0.59"
     inkscape:cx="200"
     inkscape:cy="200"
     inkscape:window-x="107"
     inkscape:window-y="84"
     inkscape:window-maximized="0"
     inkscape:current-layer="svg2" />
  <g
     style="font-size:60px;fill:#ffffff;stroke:none;font-family:Arial"
     id="text4">
    <path
       inkscape:connector-curvature="0"
       d="m 138.69531,133.20117 5.36133,-0.46875 c 0.2539,2.14845 0.84472,3.91115 1.77246,5.28809 0.92773,1.37696 2.36815,2.49024 4.32129,3.33984 1.95311,0.84962 4.15037,1.27442 6.5918,1.27442 2.16794,0 4.082,-0.32227 5.74218,-0.9668 1.66013,-0.64453 2.89548,-1.52831 3.70606,-2.65137 0.81052,-1.12304 1.21579,-2.34862 1.21582,-3.67676 -3e-5,-1.34764 -0.39066,-2.5244 -1.17188,-3.53027 -0.78127,-1.00584 -2.07034,-1.85057 -3.86718,-2.53418 -1.15237,-0.4492 -3.7012,-1.14744 -7.64649,-2.09473 -3.94532,-0.94724 -6.70899,-1.84079 -8.29101,-2.68066 -2.05079,-1.0742 -3.57911,-2.4072 -4.58496,-3.99902 -1.00587,-1.59177 -1.5088,-3.374 -1.50879,-5.34668 -1e-5,-2.16794 0.61523,-4.1943 1.8457,-6.0791 1.23046,-1.88473 3.02734,-3.31539 5.39063,-4.292 2.36326,-0.97652 4.99021,-1.4648 7.88085,-1.46484 3.18358,4e-5 5.99119,0.51274 8.42286,1.53809 2.43161,1.02543 4.30172,2.53421 5.61035,4.52636 1.30856,1.99223 2.01168,4.24808 2.10937,6.76758 l -5.44922,0.41016 c -0.29299,-2.71481 -1.2842,-4.76559 -2.97363,-6.15235 -1.68948,-1.38668 -4.18459,-2.08004 -7.48535,-2.08007 -3.43752,3e-5 -5.9424,0.62992 -7.51465,1.88964 -1.57227,1.2598 -2.35841,2.77836 -2.3584,4.55567 -1e-5,1.543 0.55663,2.81253 1.66992,3.80859 1.09374,0.99612 3.95018,2.01663 8.56934,3.06152 4.61912,1.04495 7.78806,1.95804 9.50684,2.73926 2.49996,1.15237 4.34567,2.61233 5.53711,4.37989 1.19137,1.76759 1.78707,3.80372 1.78711,6.10839 -4e-5,2.28517 -0.65434,4.43849 -1.9629,6.45996 -1.30862,2.02149 -3.1885,3.59376 -5.63964,4.7168 -2.4512,1.12305 -5.20999,1.68457 -8.27637,1.68457 -3.88674,0 -7.14357,-0.5664 -9.77051,-1.69922 -2.62696,-1.13281 -4.6875,-2.83691 -6.18164,-5.1123 -1.49414,-2.27538 -2.28028,-4.84862 -2.3584,-7.71973 z"
       style="font-size:60px;fill:#ffffff;stroke:none;font-family:Arial"
       id="path3760" />
    <path
       inkscape:connector-curvature="0"
       d="m 178.97852,126.08203 c -1e-5,-7.12888 1.91405,-12.70993 5.74218,-16.74316 3.82812,-4.03316 8.76952,-6.04976 14.82422,-6.04981 3.96482,5e-5 7.53903,0.94731 10.72266,2.8418 3.18355,1.89457 5.61031,4.53617 7.28027,7.9248 1.66988,3.38871 2.50484,7.23148 2.50488,11.52832 -4e-5,4.35549 -0.87894,8.25197 -2.63671,11.68946 -1.75786,3.4375 -4.24809,6.04004 -7.47071,7.80761 -3.22268,1.76758 -6.69924,2.65137 -10.42969,2.65137 -4.04298,0 -7.65626,-0.97656 -10.83984,-2.92969 -3.1836,-1.95312 -5.59571,-4.61913 -7.23633,-7.99804 -1.64063,-3.3789 -2.46094,-6.95311 -2.46093,-10.72266 z m 5.85937,0.0879 c -10e-6,5.1758 1.39159,9.25294 4.17481,12.23145 2.78318,2.97852 6.27439,4.46777 10.47363,4.46777 4.27731,0 7.79782,-1.5039 10.56152,-4.51172 2.76364,-3.0078 4.14547,-7.27537 4.14551,-12.80273 -4e-5,-3.49607 -0.59086,-6.54783 -1.77246,-9.15528 -1.18168,-2.60738 -2.91019,-4.62887 -5.18555,-6.06445 -2.27542,-1.43551 -4.82913,-2.15328 -7.66113,-2.15332 -4.02346,4e-5 -7.48537,1.38187 -10.38574,4.14551 -2.9004,2.7637 -4.3506,7.37796 -4.35059,13.84277 z"
       style="font-size:60px;fill:#ffffff;stroke:none;font-family:Arial"
       id="path3762" />
    <path
       inkscape:connector-curvature="0"
       d="m 227.64062,147 0,-42.94922 28.97461,0 0,5.06836 -23.29101,0 0,13.30078 20.15625,0 0,5.06836 -20.15625,0 0,19.51172 z"
       style="font-size:60px;fill:#ffffff;stroke:none;font-family:Arial"
       id="path3764" />
  </g>
  <path
     inkscape:connector-curvature="0"
     d="m 200,200 -55,-25 c -55,-25 -55,75 0,50 l 55,-25 55,-25 c 55,-25 55,75 0,50 l -55,-25"
     style="fill:#ffffff;stroke:#000000;stroke-width:6;stroke-miterlimit:4;stroke-opacity:1;stroke-dasharray:12, 6;stroke-dashoffset:0"
     id="path6" />
  <g
     style="font-size:45px;fill:#ffffff;stroke:none;font-family:Arial"
     id="text8">
    <path
       inkscape:connector-curvature="0"
       d="m 137.67822,290 -12.48047,-32.21191 4.61426,0 8.37158,23.40087 c 0.67382,1.87501 1.23778,3.63282 1.6919,5.27344 0.49803,-1.7578 1.07664,-3.51562 1.73584,-5.27344 l 8.70117,-23.40087 4.35059,0 L 142.05078,290 z"
       style="font-size:45px;fill:#ffffff;stroke:none;font-family:Arial"
       id="path3767" />
    <path
       inkscape:connector-curvature="0"
       d="m 157.08008,279.65088 4.02099,-0.35156 c 0.19043,1.61133 0.63354,2.93335 1.32935,3.96606 0.69579,1.03272 1.77611,1.86768 3.24097,2.50488 1.46483,0.63721 3.11278,0.95582 4.94384,0.95581 1.62596,1e-5 3.06151,-0.24169 4.30664,-0.72509 1.2451,-0.4834 2.17161,-1.14624 2.77955,-1.98853 0.60788,-0.84228 0.91184,-1.76147 0.91186,-2.75757 -2e-5,-1.01073 -0.29299,-1.8933 -0.87891,-2.6477 -0.58595,-0.75438 -1.55275,-1.38793 -2.90039,-1.90064 -0.86427,-0.3369 -2.77589,-0.86058 -5.73486,-1.57104 -2.95899,-0.71044 -5.03175,-1.3806 -6.21826,-2.0105 -1.53809,-0.80565 -2.68433,-1.8054 -3.43872,-2.99927 -0.7544,-1.19382 -1.1316,-2.53049 -1.13159,-4.01001 -1e-5,-1.62595 0.46142,-3.14572 1.38427,-4.55932 0.92285,-1.41355 2.27051,-2.48654 4.04297,-3.219 1.77245,-0.73239 3.74267,-1.0986 5.91065,-1.09863 2.38768,3e-5 4.49339,0.38455 6.31714,1.15356 1.8237,0.76908 3.22629,1.90067 4.20776,3.39478 0.98142,1.49417 1.50876,3.18606 1.58203,5.07568 l -4.08691,0.30762 c -0.21975,-2.03611 -0.96316,-3.57419 -2.23023,-4.61426 -1.26711,-1.04001 -3.13844,-1.56003 -5.61401,-1.56006 -2.57814,3e-5 -4.4568,0.47244 -5.63599,1.41724 -1.1792,0.94485 -1.7688,2.08377 -1.7688,3.41675 0,1.15725 0.41748,2.1094 1.25244,2.85644 0.82031,0.74709 2.96264,1.51247 6.42701,2.29615 3.46433,0.78371 5.84104,1.46852 7.13012,2.05444 1.87498,0.86427 3.25926,1.95924 4.15284,3.28491 0.89352,1.3257 1.3403,2.8528 1.34033,4.5813 -3e-5,1.71387 -0.49075,3.32886 -1.47217,4.84497 -0.98147,1.51612 -2.39138,2.69532 -4.22974,3.5376 -1.8384,0.84228 -3.90749,1.26343 -6.20727,1.26343 -2.91505,0 -5.35768,-0.42481 -7.32788,-1.27442 -1.97022,-0.84961 -3.51563,-2.12768 -4.63623,-3.83423 -1.12061,-1.70653 -1.71021,-3.63646 -1.7688,-5.78979 z"
       style="font-size:45px;fill:#ffffff;stroke:none;font-family:Arial"
       id="path3769" />
    <path
       inkscape:connector-curvature="0"
       d="m 196.78467,290 0,-28.41064 -10.6128,0 0,-3.80127 25.53223,0 0,3.80127 -10.65674,0 0,28.41064 z"
       style="font-size:45px;fill:#ffffff;stroke:none;font-family:Arial"
       id="path3771" />
    <path
       inkscape:connector-curvature="0"
       d="m 214.80225,274.31152 c -10e-6,-5.34666 1.43554,-9.53244 4.30664,-12.55737 2.87108,-3.02487 6.57713,-4.53732 11.11816,-4.53735 2.97361,3e-5 5.65427,0.71048 8.04199,2.13134 2.38767,1.42093 4.20774,3.40213 5.46021,5.94361 1.25241,2.54152 1.87863,5.4236 1.87866,8.64624 -3e-5,3.26661 -0.65921,6.18897 -1.97754,8.76709 -1.31839,2.57813 -3.18606,4.53003 -5.60303,5.85571 -2.41701,1.32568 -5.02443,1.98853 -7.82226,1.98853 -3.03224,0 -5.7422,-0.73243 -8.12988,-2.19727 -2.38771,-1.46484 -4.19679,-3.46435 -5.42725,-5.99853 -1.23047,-2.53417 -1.84571,-5.21484 -1.8457,-8.042 z m 4.39453,0.0659 c -1e-5,3.88185 1.04369,6.93971 3.1311,9.17359 2.08739,2.23389 4.7058,3.35083 7.85523,3.35083 3.20798,0 5.84836,-1.12793 7.92114,-3.38379 2.07272,-2.25585 3.1091,-5.45653 3.10913,-9.60205 -3e-5,-2.62206 -0.44314,-4.91087 -1.32935,-6.86646 -0.88625,-1.95554 -2.18264,-3.47165 -3.88916,-4.54834 -1.70656,-1.07663 -3.62184,-1.61496 -5.74585,-1.61499 -3.01759,3e-5 -5.61402,1.03641 -7.7893,3.10913 -2.1753,2.07278 -3.26295,5.53347 -3.26294,10.38208 z"
       style="font-size:45px;fill:#ffffff;stroke:none;font-family:Arial"
       id="path3773" />
    <path
       inkscape:connector-curvature="0"
       d="m 250.90332,290 0,-32.21191 4.2627,0 0,28.41064 15.86425,0 0,3.80127 z"
       style="font-size:45px;fill:#ffffff;stroke:none;font-family:Arial"
       id="path3775" />
  </g>
</svg>
