<?xml version="1.0" encoding="UTF-8" standalone="no"?>
<!--
Copyright (C) 2012 United States Government as represented by the Administrator of the
National Aeronautics and Space Administration.
All Rights Reserved.
-->

<!--
MIL-STD-2525 tactical symbol icon image. During icon composition this image is multiplied by the desired frame color 
(e.g. black), then drawn on top of the frame and fill.
-->

<svg
   xmlns:dc="http://purl.org/dc/elements/1.1/"
   xmlns:cc="http://creativecommons.org/ns#"
   xmlns:rdf="http://www.w3.org/1999/02/22-rdf-syntax-ns#"
   xmlns:svg="http://www.w3.org/2000/svg"
   xmlns="http://www.w3.org/2000/svg"
   xmlns:sodipodi="http://sodipodi.sourceforge.net/DTD/sodipodi-0.dtd"
   xmlns:inkscape="http://www.inkscape.org/namespaces/inkscape"
   height="400px"
   viewBox="0 0 400 400"
   width="400px"
   id="svg2"
   version="1.1"
   inkscape:version="0.48.2 r9819"
   sodipodi:docname="shgausmp-------.svg">
  <metadata
     id="metadata16">
    <rdf:RDF>
      <cc:Work
         rdf:about="">
        <dc:format>image/svg+xml</dc:format>
        <dc:type
           rdf:resource="http://purl.org/dc/dcmitype/StillImage" />
      </cc:Work>
    </rdf:RDF>
  </metadata>
  <defs
     id="defs14" />
  <sodipodi:namedview
     pagecolor="#ffffff"
     bordercolor="#666666"
     borderopacity="1"
     objecttolerance="10"
     gridtolerance="10"
     guidetolerance="10"
     inkscape:pageopacity="0"
     inkscape:pageshadow="2"
     inkscape:window-width="640"
     inkscape:window-height="480"
     id="namedview12"
     showgrid="false"
     inkscape:zoom="0.59"
     inkscape:cx="200"
     inkscape:cy="200"
     inkscape:window-x="386"
     inkscape:window-y="70"
     inkscape:window-maximized="0"
     inkscape:current-layer="svg2" />
  <line
     style="stroke:rgb(255,255,255);stroke-width:10;stroke-dasharray:10"
     x1="200"
     x2="200"
     y1="30"
     y2="370"
     id="line4" />
  <line
     style="stroke:rgb(255,255,255);stroke-width:10;stroke-dasharray:10"
     x1="30"
     x2="370"
     y1="200"
     y2="200"
     id="line6" />
  <g
     transform="translate(50,105)"
     id="g8">
    <g
       style="font-size:60px;font-weight:bold;text-anchor:middle;fill:#ffffff;font-family:Arial"
       id="text10">
      <path
         inkscape:connector-curvature="0"
         d="m 184.32617,165 0,-42.94922 13.91602,0 c 5.27341,4e-5 8.71091,0.21489 10.3125,0.64453 2.4609,0.64458 4.52145,2.04594 6.18164,4.2041 1.66012,2.15824 2.4902,4.94633 2.49023,8.36426 -3e-5,2.63675 -0.47855,4.85354 -1.43554,6.65039 -0.95707,1.7969 -2.17289,3.20803 -3.64747,4.2334 -1.47464,1.02541 -2.97366,1.70412 -4.49707,2.03613 -2.07033,0.41018 -5.06838,0.61525 -8.99414,0.61524 l -5.65429,0 0,16.20117 z m 8.67188,-35.68359 0,12.1875 4.74609,0 c 3.41795,2e-5 5.7031,-0.22459 6.85547,-0.67383 1.15232,-0.4492 2.05564,-1.15232 2.70996,-2.10938 0.65427,-0.957 0.98142,-2.07028 0.98145,-3.33984 -3e-5,-1.56247 -0.45902,-2.85153 -1.37696,-3.86719 -0.91799,-1.01559 -2.0801,-1.65035 -3.48633,-1.9043 -1.03517,-0.19527 -3.11525,-0.29293 -6.24023,-0.29296 z"
         style="font-size:60px;font-weight:bold;text-anchor:middle;fill:#ffffff;font-family:Arial"
         id="path2994" />
    </g>
  </g>
</svg>
