<?xml version="1.0" encoding="UTF-8" standalone="no"?>
<!--
Copyright (C) 2012 United States Government as represented by the Administrator of the
National Aeronautics and Space Administration.
All Rights Reserved.
-->

<!--
MIL-STD-2525 tactical symbol icon image. During icon composition this image is multiplied by the desired frame color 
(e.g. black), then drawn on top of the frame and fill.
-->

<svg
   xmlns:dc="http://purl.org/dc/elements/1.1/"
   xmlns:cc="http://creativecommons.org/ns#"
   xmlns:rdf="http://www.w3.org/1999/02/22-rdf-syntax-ns#"
   xmlns:svg="http://www.w3.org/2000/svg"
   xmlns="http://www.w3.org/2000/svg"
   xmlns:sodipodi="http://sodipodi.sourceforge.net/DTD/sodipodi-0.dtd"
   xmlns:inkscape="http://www.inkscape.org/namespaces/inkscape"
   height="400px"
   viewBox="0 0 400 400"
   width="400px"
   id="svg2"
   version="1.1"
   inkscape:version="0.48.2 r9819"
   sodipodi:docname="shgaimfpw------.svg">
  <metadata
     id="metadata22">
    <rdf:RDF>
      <cc:Work
         rdf:about="">
        <dc:format>image/svg+xml</dc:format>
        <dc:type
           rdf:resource="http://purl.org/dc/dcmitype/StillImage" />
      </cc:Work>
    </rdf:RDF>
  </metadata>
  <defs
     id="defs20" />
  <sodipodi:namedview
     pagecolor="#ffffff"
     bordercolor="#666666"
     borderopacity="1"
     objecttolerance="10"
     gridtolerance="10"
     guidetolerance="10"
     inkscape:pageopacity="0"
     inkscape:pageshadow="2"
     inkscape:window-width="705"
     inkscape:window-height="480"
     id="namedview18"
     showgrid="false"
     inkscape:zoom="0.59"
     inkscape:cx="200"
     inkscape:cy="200"
     inkscape:window-x="134"
     inkscape:window-y="323"
     inkscape:window-maximized="0"
     inkscape:current-layer="svg2" />
  <g
     transform="translate(2.0593017e-6,0)"
     style="font-size:65px;font-weight:bold;text-anchor:middle;fill:#ffffff;stroke:none;font-family:Arial"
     id="text4">
    <path
       inkscape:connector-curvature="0"
       d="m 183.02002,307 0,-46.52832 15.07568,0 c 5.71287,5e-5 9.43682,0.23279 11.17188,0.69824 2.66598,0.69829 4.89824,2.21644 6.69678,4.55445 1.79846,2.33809 2.69771,5.35851 2.69775,9.06127 -4e-5,2.85648 -0.51843,5.25801 -1.55518,7.20459 -1.03682,1.94664 -2.35396,3.47537 -3.95141,4.58619 -1.59753,1.11086 -3.22147,1.84612 -4.87183,2.20581 -2.24286,0.44435 -5.49075,0.66652 -9.74365,0.6665 l -6.12549,0 0,17.55127 z m 9.39453,-38.65723 0,13.20313 5.1416,0 c 3.70278,2e-5 6.17836,-0.2433 7.42676,-0.72998 1.24834,-0.48663 2.22694,-1.24835 2.93579,-2.28516 0.70879,-1.03675 1.0632,-2.24281 1.06323,-3.61816 -3e-5,-1.69268 -0.49726,-3.08916 -1.4917,-4.18946 -0.99449,-1.10022 -2.25344,-1.78788 -3.77685,-2.06298 -1.12144,-0.21155 -3.37486,-0.31735 -6.76026,-0.31739 z"
       style="font-size:65px;font-weight:bold;text-anchor:middle;fill:#ffffff;stroke:none;font-family:Arial"
       id="path3768" />
  </g>
  <g
     transform="translate(200,200)"
     id="g6"
     style="stroke:#000000;stroke-opacity:1">
    <path
       inkscape:connector-curvature="0"
       d="m 0,0 -45,-80 c 0,-30 90,-30 90,0 z"
       style="fill:#ffffff;stroke:#000000;stroke-width:10;stroke-opacity:1;stroke-dasharray:10"
       id="path8" />
  </g>
  <g
     transform="matrix(-0.5,0.8660254,-0.8660254,-0.5,200,200)"
     id="g10"
     style="stroke:#000000;stroke-opacity:1">
    <path
       inkscape:connector-curvature="0"
       d="m 0,0 -45,-80 c 0,-30 90,-30 90,0 z"
       style="fill:#ffffff;stroke:#000000;stroke-width:10;stroke-opacity:1;stroke-dasharray:10"
       id="path12" />
  </g>
  <g
     transform="matrix(-0.5,-0.8660254,0.8660254,-0.5,200,200)"
     id="g14"
     style="stroke:#000000;stroke-opacity:1">
    <path
       inkscape:connector-curvature="0"
       d="m 0,0 -45,-80 c 0,-30 90,-30 90,0 z"
       style="fill:#ffffff;stroke:#000000;stroke-width:10;stroke-opacity:1;stroke-dasharray:10"
       id="path16" />
  </g>
</svg>
