<?xml version="1.0" encoding="UTF-8" standalone="no"?>
<!--
Copyright (C) 2012 United States Government as represented by the Administrator of the
National Aeronautics and Space Administration.
All Rights Reserved.
-->

<!--
MIL-STD-2525 tactical symbol icon image. During icon composition this image is multiplied by the desired frame color 
(e.g. black), then drawn on top of the frame and fill.
-->

<svg
   xmlns:dc="http://purl.org/dc/elements/1.1/"
   xmlns:cc="http://creativecommons.org/ns#"
   xmlns:rdf="http://www.w3.org/1999/02/22-rdf-syntax-ns#"
   xmlns:svg="http://www.w3.org/2000/svg"
   xmlns="http://www.w3.org/2000/svg"
   xmlns:sodipodi="http://sodipodi.sourceforge.net/DTD/sodipodi-0.dtd"
   xmlns:inkscape="http://www.inkscape.org/namespaces/inkscape"
   height="400px"
   viewBox="0 0 400 400"
   width="400px"
   id="svg2"
   version="1.1"
   inkscape:version="0.48.2 r9819"
   sodipodi:docname="shgausapb------.svg">
  <metadata
     id="metadata10">
    <rdf:RDF>
      <cc:Work
         rdf:about="">
        <dc:format>image/svg+xml</dc:format>
        <dc:type
           rdf:resource="http://purl.org/dc/dcmitype/StillImage" />
      </cc:Work>
    </rdf:RDF>
  </metadata>
  <defs
     id="defs8" />
  <sodipodi:namedview
     pagecolor="#ffffff"
     bordercolor="#666666"
     borderopacity="1"
     objecttolerance="10"
     gridtolerance="10"
     guidetolerance="10"
     inkscape:pageopacity="0"
     inkscape:pageshadow="2"
     inkscape:window-width="705"
     inkscape:window-height="480"
     id="namedview6"
     showgrid="false"
     inkscape:zoom="0.59"
     inkscape:cx="200"
     inkscape:cy="200"
     inkscape:window-x="179"
     inkscape:window-y="96"
     inkscape:window-maximized="0"
     inkscape:current-layer="svg2" />
  <g
     style="font-size:83px;font-weight:bold;text-anchor:middle;fill:#ffffff;stroke:#000000;stroke-width:6;stroke-miterlimit:4;stroke-opacity:1;stroke-dasharray:12, 6;stroke-dashoffset:0;font-family:Arial"
     id="text4">
    <path
       inkscape:connector-curvature="0"
       d="m 88.387695,170.58691 23.749025,0 c 4.70114,6e-5 8.20675,0.19595 10.51684,0.58765 2.31002,0.39182 4.37691,1.20912 6.20069,2.4519 1.82368,1.2429 3.34345,2.89776 4.55932,4.9646 1.21577,2.06695 1.82368,4.38376 1.82373,6.95044 -5e-5,2.78292 -0.7498,5.33614 -2.24926,7.65967 -1.49956,2.3236 -3.53268,4.06628 -6.09937,5.22803 3.6204,1.05374 6.40327,2.85045 8.34863,5.39014 1.94526,2.53973 2.91792,5.52524 2.91797,8.95654 -5e-5,2.70184 -0.62823,5.32936 -1.88452,7.88257 -1.2564,2.55323 -2.97205,4.5931 -5.14697,6.11963 -2.17501,1.52653 -4.85657,2.46541 -8.04468,2.81665 -1.99939,0.21614 -6.82214,0.35123 -14.46826,0.40527 l -20.223145,0 z m 11.996095,9.88868 0,13.73877 7.8623,0 c 4.67413,3e-5 7.57858,-0.0675 8.71338,-0.20264 2.05335,-0.24313 3.66769,-0.95236 4.84302,-2.12769 1.17525,-1.17525 1.7629,-2.72204 1.76294,-4.64038 -4e-5,-1.83719 -0.50663,-3.32995 -1.51978,-4.47827 -1.01322,-1.14823 -2.51948,-1.84394 -4.51879,-2.08716 -1.18884,-0.13504 -4.60664,-0.20258 -10.25342,-0.20263 z m 0,23.62744 0,15.88672 11.10449,0 c 4.32288,1e-5 7.06523,-0.12158 8.22705,-0.36475 1.78317,-0.32421 3.23539,-1.11449 4.35669,-2.37085 1.12122,-1.25633 1.68184,-2.93822 1.68189,-5.04565 -5e-5,-1.78319 -0.43234,-3.29621 -1.29688,-4.53907 -0.86462,-1.24281 -2.11422,-2.14792 -3.74878,-2.71533 -1.63464,-0.56736 -5.18078,-0.85105 -10.63843,-0.85107 z"
       style="font-size:83px;font-weight:bold;text-anchor:middle;fill:#ffffff;stroke:#000000;stroke-width:6;stroke-miterlimit:4;stroke-opacity:1;stroke-dasharray:12, 6;stroke-dashoffset:0;font-family:Arial"
       id="path2988" />
    <path
       inkscape:connector-curvature="0"
       d="m 148.32764,230 0,-59.41309 19.25048,0 c 7.29489,6e-5 12.0501,0.29726 14.26563,0.89161 3.40425,0.89165 6.25467,2.83021 8.55127,5.81567 2.2965,2.98556 3.44477,6.84241 3.44482,11.57056 -5e-5,3.64749 -0.66199,6.71406 -1.98584,9.1997 -1.32394,2.48571 -3.00582,4.43777 -5.04565,5.8562 -2.03992,1.41849 -4.11357,2.35737 -6.22095,2.81665 -2.86397,0.56741 -7.01126,0.8511 -12.44189,0.85108 l -7.82178,0 0,22.41162 z m 11.99609,-49.3623 0,16.85937 6.56543,0 c 4.72816,3e-5 7.88929,-0.31068 9.4834,-0.93213 1.59404,-0.62138 2.84363,-1.59404 3.74878,-2.91797 0.90507,-1.32385 1.35762,-2.86389 1.35766,-4.62011 -4e-5,-2.16142 -0.63496,-3.94462 -1.90478,-5.34961 -1.26989,-1.4049 -2.87748,-2.283 -4.82276,-2.63428 -1.43199,-0.27013 -4.30943,-0.40523 -8.63232,-0.40527 z"
       style="font-size:83px;font-weight:bold;text-anchor:middle;fill:#ffffff;stroke:#000000;stroke-width:6;stroke-miterlimit:4;stroke-opacity:1;stroke-dasharray:12, 6;stroke-dashoffset:0;font-family:Arial"
       id="path2990" />
    <path
       inkscape:connector-curvature="0"
       d="m 257.34619,230 -13.0498,0 -5.1875,-13.49561 -23.74903,0 -4.90381,13.49561 -12.72558,0 23.14111,-59.41309 12.68506,0 z m -22.0874,-23.50586 -8.18652,-22.04687 -8.02442,22.04687 z"
       style="font-size:83px;font-weight:bold;text-anchor:middle;fill:#ffffff;stroke:#000000;stroke-width:6;stroke-miterlimit:4;stroke-opacity:1;stroke-dasharray:12, 6;stroke-dashoffset:0;font-family:Arial"
       id="path2992" />
    <path
       inkscape:connector-curvature="0"
       d="m 263.70898,170.58691 21.9253,0 c 4.9443,6e-5 8.71334,0.37832 11.30713,1.13477 3.48531,1.02675 6.47082,2.85048 8.95654,5.47119 2.48563,2.62082 4.3769,5.82923 5.67383,9.62525 1.29682,3.7961 1.94525,8.477 1.94531,14.04272 -6e-5,4.89032 -0.60797,9.10516 -1.82373,12.64453 -1.48606,4.32293 -3.60698,7.82179 -6.36279,10.49658 -2.08045,2.02637 -4.89035,3.60694 -8.42969,4.7417 C 294.25306,229.58122 290.71367,230 286.28271,230 l -22.57373,0 z m 11.9961,10.05079 0,39.35205 8.95654,0 c 3.35023,1e-5 5.76836,-0.18912 7.2544,-0.56739 1.94527,-0.48631 3.55961,-1.31037 4.84301,-2.47216 1.28333,-1.16177 2.33028,-3.07331 3.14087,-5.73462 0.81051,-2.66128 1.21578,-6.28847 1.21582,-10.8816 -4e-5,-4.59306 -0.40531,-8.11894 -1.21582,-10.57763 -0.81059,-2.45862 -1.94535,-4.37691 -3.40429,-5.75489 -1.45903,-1.37788 -3.30977,-2.31001 -5.55225,-2.79638 -1.67516,-0.37821 -4.95787,-0.56734 -9.84815,-0.56738 z"
       style="font-size:83px;font-weight:bold;text-anchor:middle;fill:#ffffff;stroke:#000000;stroke-width:6;stroke-miterlimit:4;stroke-opacity:1;stroke-dasharray:12, 6;stroke-dashoffset:0;font-family:Arial"
       id="path2994" />
  </g>
</svg>
