<?xml version="1.0" encoding="UTF-8" standalone="no"?>
<!--
Copyright (C) 2012 United States Government as represented by the Administrator of the
National Aeronautics and Space Administration.
All Rights Reserved.
-->

<!--
MIL-STD-2525 tactical symbol icon image. During icon composition this image is multiplied by the desired frame color 
(e.g. black), then drawn on top of the frame and fill.
-->

<svg
   xmlns:dc="http://purl.org/dc/elements/1.1/"
   xmlns:cc="http://creativecommons.org/ns#"
   xmlns:rdf="http://www.w3.org/1999/02/22-rdf-syntax-ns#"
   xmlns:svg="http://www.w3.org/2000/svg"
   xmlns="http://www.w3.org/2000/svg"
   xmlns:sodipodi="http://sodipodi.sourceforge.net/DTD/sodipodi-0.dtd"
   xmlns:inkscape="http://www.inkscape.org/namespaces/inkscape"
   height="400px"
   viewBox="0 0 400 400"
   width="400px"
   id="svg2"
   version="1.1"
   inkscape:version="0.48.2 r9819"
   sodipodi:docname="shgaese--------.svg">
  <metadata
     id="metadata12">
    <rdf:RDF>
      <cc:Work
         rdf:about="">
        <dc:format>image/svg+xml</dc:format>
        <dc:type
           rdf:resource="http://purl.org/dc/dcmitype/StillImage" />
      </cc:Work>
    </rdf:RDF>
  </metadata>
  <defs
     id="defs10" />
  <sodipodi:namedview
     pagecolor="#ffffff"
     bordercolor="#666666"
     borderopacity="1"
     objecttolerance="10"
     gridtolerance="10"
     guidetolerance="10"
     inkscape:pageopacity="0"
     inkscape:pageshadow="2"
     inkscape:window-width="705"
     inkscape:window-height="480"
     id="namedview8"
     showgrid="false"
     inkscape:zoom="0.59"
     inkscape:cx="200"
     inkscape:cy="200"
     inkscape:window-x="277"
     inkscape:window-y="137"
     inkscape:window-maximized="0"
     inkscape:current-layer="g4" />
  <g
     transform="translate(120 107) scale(5 5)"
     id="g4">
    <path
       d="M32.184 21.35 C31.993 21.303 31.127 21.639 29.592 22.358 C28.584 22.792 27.432 23.463     26.135 24.376 C21.432 27.497 18.096 31.747 16.127 37.126 C16.031 37.126     15.912 37.005 15.768 36.767 C13.991 31.486 10.391 27.091 4.969 23.583 C3.768     22.814 2.111 22.047 0 21.277 C-0.049 21.181 -0.049 21.109 0 21.062 C0.527     20.822 1.271 20.509 2.232 20.124 C4.679 19.261 7.295 17.364 10.08 14.435 C12.863     11.505 14.687 8.769 15.553 6.222 C15.696 5.886 15.887 5.527 16.127 5.142     C16.943 7.689 18.479 10.353 20.736 13.138 C23.183 16.115 25.679 18.204 28.224     19.404 C28.751 19.693 29.662 20.127 30.958 20.701 C31.342 20.75 31.75 20.967     32.184 21.35 zM28.656 3.631 L27.291 4.563 L25.174 2.27 L20.664 6.817 L16.18     2.229 L11.418 6.842 L6.639 1.959 L4.18 4.422 L2.951 3.559 L6.623 0 L11.375     4.854 L16.127 0.247 L20.809 4.854 L25.272 0.247 z"
       style="fill:rgb(255, 255, 255);stroke:#000000;stroke-opacity:1;stroke-width:1;stroke-miterlimit:4;stroke-dasharray:2,1;stroke-dashoffset:0"
       id="path6" />
  </g>
</svg>
