<?xml version="1.0" encoding="UTF-8" standalone="no"?>
<!--
Copyright (C) 2012 United States Government as represented by the Administrator of the
National Aeronautics and Space Administration.
All Rights Reserved.
-->

<!--
MIL-STD-2525 tactical symbol icon image. During icon composition this image is multiplied by the desired frame color 
(e.g. black), then drawn on top of the frame and fill.
-->

<svg
   xmlns:dc="http://purl.org/dc/elements/1.1/"
   xmlns:cc="http://creativecommons.org/ns#"
   xmlns:rdf="http://www.w3.org/1999/02/22-rdf-syntax-ns#"
   xmlns:svg="http://www.w3.org/2000/svg"
   xmlns="http://www.w3.org/2000/svg"
   xmlns:sodipodi="http://sodipodi.sourceforge.net/DTD/sodipodi-0.dtd"
   xmlns:inkscape="http://www.inkscape.org/namespaces/inkscape"
   height="400px"
   viewBox="0 0 400 400"
   width="400px"
   id="svg2"
   version="1.1"
   inkscape:version="0.48.2 r9819"
   sodipodi:docname="shgaig---------.svg">
  <metadata
     id="metadata10">
    <rdf:RDF>
      <cc:Work
         rdf:about="">
        <dc:format>image/svg+xml</dc:format>
        <dc:type
           rdf:resource="http://purl.org/dc/dcmitype/StillImage" />
      </cc:Work>
    </rdf:RDF>
  </metadata>
  <defs
     id="defs8" />
  <sodipodi:namedview
     pagecolor="#ffffff"
     bordercolor="#666666"
     borderopacity="1"
     objecttolerance="10"
     gridtolerance="10"
     guidetolerance="10"
     inkscape:pageopacity="0"
     inkscape:pageshadow="2"
     inkscape:window-width="640"
     inkscape:window-height="480"
     id="namedview6"
     showgrid="false"
     inkscape:zoom="0.59"
     inkscape:cx="200"
     inkscape:cy="200"
     inkscape:window-x="55"
     inkscape:window-y="18"
     inkscape:window-maximized="0"
     inkscape:current-layer="svg2" />
  <g
     style="font-size:90px;font-weight:bold;text-anchor:middle;fill:#ffffff;stroke:#000000;stroke-width:6;stroke-miterlimit:4;stroke-opacity:1;stroke-dasharray:12, 6;stroke-dashoffset:0;font-family:Arial"
     id="text4">
    <path
       inkscape:connector-curvature="0"
       d="m 136.49902,208.31348 0,-10.8545 28.03711,0 0,25.66407 c -2.72467,2.63672 -6.67242,4.9585 -11.84326,6.96533 -5.17094,2.00683 -10.40776,3.01025 -15.71045,3.01025 -6.73831,0 -12.61233,-1.41357 -17.62207,-4.24072 -5.00978,-2.82714 -8.77442,-6.87011 -11.29394,-12.12891 -2.51954,-5.25876 -3.7793,-10.97897 -3.7793,-17.16064 0,-6.70895 1.40624,-12.67085 4.21875,-17.88574 2.81249,-5.21479 6.92869,-9.21381 12.34863,-11.99707 4.13084,-2.13861 9.27243,-3.20795 15.42481,-3.20801 7.998,6e-5 14.24555,1.67731 18.74267,5.03174 4.49701,3.35455 7.39008,7.99077 8.6792,13.90869 l -12.91992,2.41699 c -0.90825,-3.16401 -2.61479,-5.66157 -5.11963,-7.49267 -2.50492,-1.83101 -5.63236,-2.74653 -9.38232,-2.74659 -5.68363,6e-5 -10.20267,1.80181 -13.55713,5.40528 -3.35451,3.60356 -5.03176,8.95023 -5.03174,16.04004 -2e-5,7.64651 1.6992,13.38136 5.09766,17.20459 3.39841,3.82325 7.85153,5.73487 13.35937,5.73486 2.72457,1e-5 5.4565,-0.53466 8.1958,-1.60401 2.73921,-1.06932 5.09028,-2.3657 7.05322,-3.88916 l 0,-8.17382 z"
       style="font-size:90px;font-weight:bold;text-anchor:middle;fill:#ffffff;stroke:#000000;stroke-width:6;stroke-miterlimit:4;stroke-opacity:1;stroke-dasharray:12, 6;stroke-dashoffset:0;font-family:Arial"
       id="path2988" />
    <path
       inkscape:connector-curvature="0"
       d="m 173.85254,200.18359 c 0,-6.56246 0.98144,-12.07026 2.94433,-16.52343 1.46484,-3.2812 3.46435,-6.22554 5.99854,-8.83301 2.53416,-2.60736 5.31004,-4.54096 8.32764,-5.80078 4.01364,-1.69916 8.64255,-2.54877 13.88672,-2.54883 9.49214,6e-5 17.08735,2.9444 22.78564,8.83301 5.69818,5.88872 8.5473,14.07719 8.54736,24.56543 -6e-5,10.40041 -2.82721,18.53761 -8.48144,24.41162 -5.65435,5.87402 -13.21294,8.81103 -22.67578,8.81103 -9.58011,0 -17.19729,-2.92236 -22.85157,-8.76709 -5.6543,-5.84471 -8.48144,-13.89402 -8.48144,-24.14795 z m 13.40332,-0.43945 c -2e-5,7.29495 1.68455,12.82473 5.05371,16.58936 3.36912,3.76466 7.64645,5.64698 12.83203,5.64697 5.18551,1e-5 9.44087,-1.86767 12.76611,-5.60303 3.32515,-3.73533 4.98774,-9.33835 4.9878,-16.80908 -6e-5,-7.38277 -1.61871,-12.89058 -4.85596,-16.52344 -3.23735,-3.63276 -7.53666,-5.44916 -12.89795,-5.44922 -5.36136,6e-5 -9.68264,1.83843 -12.96387,5.51514 -3.28126,3.6768 -4.92189,9.22123 -4.92187,16.6333 z"
       style="font-size:90px;font-weight:bold;text-anchor:middle;fill:#ffffff;stroke:#000000;stroke-width:6;stroke-miterlimit:4;stroke-opacity:1;stroke-dasharray:12, 6;stroke-dashoffset:0;font-family:Arial"
       id="path2990" />
    <path
       inkscape:connector-curvature="0"
       d="m 262.88574,232 -23.02734,-64.42383 14.10644,0 16.30371,47.68067 15.77637,-47.68067 13.79883,0 L 276.77246,232 z"
       style="font-size:90px;font-weight:bold;text-anchor:middle;fill:#ffffff;stroke:#000000;stroke-width:6;stroke-miterlimit:4;stroke-opacity:1;stroke-dasharray:12, 6;stroke-dashoffset:0;font-family:Arial"
       id="path2992" />
  </g>
</svg>
