<?xml version="1.0"?>
<!--
Copyright (C) 2012 United States Government as represented by the Administrator of the
National Aeronautics and Space Administration.
All Rights Reserved.
-->

<!DOCTYPE svg PUBLIC "-//W3C//DTD SVG 1.1//EN" "http://www.w3.org/Graphics/SVG/1.1/DTD/svg11.dtd" >
<!--
MIL-STD-2525 tactical symbol icon image. During icon composition this image is multiplied by the desired frame color 
(e.g. black), then drawn on top of the frame and fill.
-->
<svg xmlns:xlink="http://www.w3.org/1999/xlink" height="400px" viewBox="0 0 400 400" width="400px"><g transform="translate(60 109) scale(0.7 0.7)"><ellipse cx="200" cy="200" rx="80" ry="80" style="fill:none;stroke:rgb(255,255,255);stroke-width:10"/><line style="stroke:rgb(255,255,255);stroke-width:10" x1="136" x2="264" y1="156" y2="244"/><line style="stroke:rgb(255,255,255);stroke-width:10" x1="136" x2="264" y1="244" y2="156"/><line style="stroke:rgb(255,255,255);stroke-width:10" x1="200" x2="200" y1="120" y2="280"/></g><g transform="translate(80 19) scale(0.6 0.6)"><path d="M170 276 L170 144 C170 119 230 119 230 144 L230 276" style="fill:none;stroke:rgb(255,255,255);stroke-width:10" transform="translate(0 0) translate(0 0)"/><line style="stroke:rgb(255,255,255);stroke-width:10" transform="translate(200 184) scale(1 1) translate(-200 -184)" x1="200" x2="200" y1="276" y2="124"/></g><polyline xmlns="http://www.w3.org/2000/svg" points="70,155 100,200 70,245" style="fill:none;stroke:rgb(255,255,255);stroke-width:10"/><polyline xmlns="http://www.w3.org/2000/svg" points="330,155 300,200 330,245" style="fill:none;stroke:rgb(255,255,255);stroke-width:10"/></svg>