<?xml version="1.0" encoding="UTF-8" standalone="no"?>
<!--
Copyright (C) 2012 United States Government as represented by the Administrator of the
National Aeronautics and Space Administration.
All Rights Reserved.
-->

<!--
MIL-STD-2525 tactical symbol icon image. During icon composition this image is multiplied by the desired frame color 
(e.g. black), then drawn on top of the frame and fill.
-->

<svg
   xmlns:dc="http://purl.org/dc/elements/1.1/"
   xmlns:cc="http://creativecommons.org/ns#"
   xmlns:rdf="http://www.w3.org/1999/02/22-rdf-syntax-ns#"
   xmlns:svg="http://www.w3.org/2000/svg"
   xmlns="http://www.w3.org/2000/svg"
   xmlns:sodipodi="http://sodipodi.sourceforge.net/DTD/sodipodi-0.dtd"
   xmlns:inkscape="http://www.inkscape.org/namespaces/inkscape"
   height="400px"
   viewBox="0 0 400 400"
   width="400px"
   id="svg2"
   version="1.1"
   inkscape:version="0.48.2 r9819"
   sodipodi:docname="shsacus--------.svg">
  <metadata
     id="metadata12">
    <rdf:RDF>
      <cc:Work
         rdf:about="">
        <dc:format>image/svg+xml</dc:format>
        <dc:type
           rdf:resource="http://purl.org/dc/dcmitype/StillImage" />
      </cc:Work>
    </rdf:RDF>
  </metadata>
  <defs
     id="defs10" />
  <sodipodi:namedview
     pagecolor="#ffffff"
     bordercolor="#666666"
     borderopacity="1"
     objecttolerance="10"
     gridtolerance="10"
     guidetolerance="10"
     inkscape:pageopacity="0"
     inkscape:pageshadow="2"
     inkscape:window-width="640"
     inkscape:window-height="480"
     id="namedview8"
     showgrid="false"
     inkscape:zoom="0.59"
     inkscape:cx="200"
     inkscape:cy="200"
     inkscape:window-x="137"
     inkscape:window-y="58"
     inkscape:window-maximized="0"
     inkscape:current-layer="svg2" />
  <g
     style="font-size:60px;font-weight:bold;text-anchor:middle;fill:#ffffff;stroke:none;font-family:Arial"
     id="text6">
    <path
       inkscape:connector-curvature="0"
       d="m 173.07617,150 -9.43359,0 -3.75,-9.75586 -17.16797,0 -3.54492,9.75586 -9.19922,0 16.72851,-42.94922 9.16993,0 z m -15.9668,-16.99219 -5.91796,-15.9375 -5.80079,15.9375 z"
       style="font-size:60px;font-weight:bold;text-anchor:middle;fill:#ffffff;stroke:none;font-family:Arial"
       id="path2997" />
    <path
       inkscape:connector-curvature="0"
       d="m 175.50781,136.02539 8.4375,-0.82031 c 0.5078,2.83204 1.53808,4.91212 3.09082,6.24023 1.55272,1.32813 3.64745,1.9922 6.28418,1.99219 2.79295,1e-5 4.89744,-0.59081 6.31348,-1.77246 1.41599,-1.18163 2.12399,-2.56347 2.12402,-4.14551 -3e-5,-1.01561 -0.29788,-1.87987 -0.89355,-2.59277 -0.59573,-0.71288 -1.63577,-1.33299 -3.12012,-1.86035 -1.01565,-0.35155 -3.3301,-0.97655 -6.94336,-1.875 -4.64845,-1.15233 -7.91016,-2.56834 -9.78516,-4.24805 -2.63672,-2.36326 -3.95508,-5.24411 -3.95507,-8.64258 -1e-5,-2.18746 0.62011,-4.23336 1.86035,-6.13769 1.24023,-1.90426 3.02733,-3.35446 5.36133,-4.35059 2.33397,-0.99605 5.15135,-1.4941 8.45214,-1.49414 5.39061,4e-5 9.44822,1.18168 12.17286,3.54492 2.72457,2.36332 4.15523,5.51761 4.29199,9.46289 l -8.67188,0.38086 c -0.37112,-2.207 -1.16701,-3.79391 -2.38769,-4.76074 -1.22073,-0.96676 -3.05178,-1.45016 -5.49317,-1.4502 -2.51954,4e-5 -4.4922,0.51762 -5.91796,1.55274 -0.91799,0.66409 -1.37697,1.55277 -1.37696,2.66601 -1e-5,1.01566 0.42968,1.8848 1.28906,2.60743 1.09374,0.91799 3.74999,1.87502 7.96875,2.87109 4.21873,0.99612 7.33884,2.02639 9.36036,3.09082 2.02145,1.06448 3.60348,2.51955 4.74609,4.36523 1.14254,1.84572 1.71383,4.126 1.71387,6.84082 -4e-5,2.46095 -0.68363,4.76564 -2.05078,6.91407 -1.36722,2.14844 -3.30082,3.74512 -5.80079,4.79004 -2.50002,1.04492 -5.61525,1.56738 -9.3457,1.56738 -5.4297,0 -9.59962,-1.25488 -12.50976,-3.76465 -2.91016,-2.50976 -4.64844,-6.16698 -5.21485,-10.97168 z"
       style="font-size:60px;font-weight:bold;text-anchor:middle;fill:#ffffff;stroke:none;font-family:Arial"
       id="path2999" />
    <path
       inkscape:connector-curvature="0"
       d="m 223.87695,150 -10.2539,-42.94922 8.87695,0 6.47461,29.50195 7.85156,-29.50195 10.3125,0 7.5293,30 6.5918,-30 8.73046,0 L 259.56055,150 250.36133,150 241.80664,117.89063 233.28125,150 z"
       style="font-size:60px;font-weight:bold;text-anchor:middle;fill:#ffffff;stroke:none;font-family:Arial"
       id="path3001" />
  </g>
  <path
     inkscape:connector-curvature="0"
     style="fill:#ffffff;fill-opacity:1;stroke:#000000;stroke-width:6;stroke-miterlimit:4;stroke-opacity:1;stroke-dasharray:12, 6;stroke-dashoffset:0"
     d="m 100,160 0,40 100,60 100,-60 0,-40 -100,60 z"
     id="polyline4" />
</svg>
