<?xml version="1.0" encoding="UTF-8" standalone="no"?>
<!--
Copyright (C) 2012 United States Government as represented by the Administrator of the
National Aeronautics and Space Administration.
All Rights Reserved.
-->

<!--
MIL-STD-2525 tactical symbol icon image. During icon composition this image is multiplied by the desired frame color 
(e.g. black), then drawn on top of the frame and fill.
-->

<svg
   xmlns:dc="http://purl.org/dc/elements/1.1/"
   xmlns:cc="http://creativecommons.org/ns#"
   xmlns:rdf="http://www.w3.org/1999/02/22-rdf-syntax-ns#"
   xmlns:svg="http://www.w3.org/2000/svg"
   xmlns="http://www.w3.org/2000/svg"
   xmlns:sodipodi="http://sodipodi.sourceforge.net/DTD/sodipodi-0.dtd"
   xmlns:inkscape="http://www.inkscape.org/namespaces/inkscape"
   height="400px"
   viewBox="0 0 400 400"
   width="400px"
   id="svg2"
   version="1.1"
   inkscape:version="0.48.2 r9819"
   sodipodi:docname="snfaahh--------.svg">
  <metadata
     id="metadata14">
    <rdf:RDF>
      <cc:Work
         rdf:about="">
        <dc:format>image/svg+xml</dc:format>
        <dc:type
           rdf:resource="http://purl.org/dc/dcmitype/StillImage" />
      </cc:Work>
    </rdf:RDF>
  </metadata>
  <defs
     id="defs12" />
  <sodipodi:namedview
     pagecolor="#ffffff"
     bordercolor="#666666"
     borderopacity="1"
     objecttolerance="10"
     gridtolerance="10"
     guidetolerance="10"
     inkscape:pageopacity="0"
     inkscape:pageshadow="2"
     inkscape:window-width="640"
     inkscape:window-height="480"
     id="namedview10"
     showgrid="false"
     inkscape:zoom="0.59"
     inkscape:cx="200"
     inkscape:cy="200"
     inkscape:window-x="190"
     inkscape:window-y="140"
     inkscape:window-maximized="0"
     inkscape:current-layer="svg2" />
  <g
     style="font-size:60px;fill:#ffffff;stroke:none;font-family:Arial"
     id="text4">
    <path
       inkscape:connector-curvature="0"
       d="m 138.69531,133.20117 5.36133,-0.46875 c 0.2539,2.14845 0.84472,3.91115 1.77246,5.28809 0.92773,1.37696 2.36815,2.49024 4.32129,3.33984 1.95311,0.84962 4.15037,1.27442 6.5918,1.27442 2.16794,0 4.082,-0.32227 5.74218,-0.9668 1.66013,-0.64453 2.89548,-1.52831 3.70606,-2.65137 0.81052,-1.12304 1.21579,-2.34862 1.21582,-3.67676 -3e-5,-1.34764 -0.39066,-2.5244 -1.17188,-3.53027 -0.78127,-1.00584 -2.07034,-1.85057 -3.86718,-2.53418 -1.15237,-0.4492 -3.7012,-1.14744 -7.64649,-2.09473 -3.94532,-0.94724 -6.70899,-1.84079 -8.29101,-2.68066 -2.05079,-1.0742 -3.57911,-2.4072 -4.58496,-3.99902 -1.00587,-1.59177 -1.5088,-3.374 -1.50879,-5.34668 -1e-5,-2.16794 0.61523,-4.1943 1.8457,-6.0791 1.23046,-1.88473 3.02734,-3.31539 5.39063,-4.292 2.36326,-0.97652 4.99021,-1.4648 7.88085,-1.46484 3.18358,4e-5 5.99119,0.51274 8.42286,1.53809 2.43161,1.02543 4.30172,2.53421 5.61035,4.52636 1.30856,1.99223 2.01168,4.24808 2.10937,6.76758 l -5.44922,0.41016 c -0.29299,-2.71481 -1.2842,-4.76559 -2.97363,-6.15235 -1.68948,-1.38668 -4.18459,-2.08004 -7.48535,-2.08007 -3.43752,3e-5 -5.9424,0.62992 -7.51465,1.88964 -1.57227,1.2598 -2.35841,2.77836 -2.3584,4.55567 -1e-5,1.543 0.55663,2.81253 1.66992,3.80859 1.09374,0.99612 3.95018,2.01663 8.56934,3.06152 4.61912,1.04495 7.78806,1.95804 9.50684,2.73926 2.49996,1.15237 4.34567,2.61233 5.53711,4.37989 1.19137,1.76759 1.78707,3.80372 1.78711,6.10839 -4e-5,2.28517 -0.65434,4.43849 -1.9629,6.45996 -1.30862,2.02149 -3.1885,3.59376 -5.63964,4.7168 -2.4512,1.12305 -5.20999,1.68457 -8.27637,1.68457 -3.88674,0 -7.14357,-0.5664 -9.77051,-1.69922 -2.62696,-1.13281 -4.6875,-2.83691 -6.18164,-5.1123 -1.49414,-2.27538 -2.28028,-4.84862 -2.3584,-7.71973 z"
       style="font-size:60px;fill:#ffffff;stroke:none;font-family:Arial"
       id="path3760" />
    <path
       inkscape:connector-curvature="0"
       d="m 178.97852,126.08203 c -1e-5,-7.12888 1.91405,-12.70993 5.74218,-16.74316 3.82812,-4.03316 8.76952,-6.04976 14.82422,-6.04981 3.96482,5e-5 7.53903,0.94731 10.72266,2.8418 3.18355,1.89457 5.61031,4.53617 7.28027,7.9248 1.66988,3.38871 2.50484,7.23148 2.50488,11.52832 -4e-5,4.35549 -0.87894,8.25197 -2.63671,11.68946 -1.75786,3.4375 -4.24809,6.04004 -7.47071,7.80761 -3.22268,1.76758 -6.69924,2.65137 -10.42969,2.65137 -4.04298,0 -7.65626,-0.97656 -10.83984,-2.92969 -3.1836,-1.95312 -5.59571,-4.61913 -7.23633,-7.99804 -1.64063,-3.3789 -2.46094,-6.95311 -2.46093,-10.72266 z m 5.85937,0.0879 c -10e-6,5.1758 1.39159,9.25294 4.17481,12.23145 2.78318,2.97852 6.27439,4.46777 10.47363,4.46777 4.27731,0 7.79782,-1.5039 10.56152,-4.51172 2.76364,-3.0078 4.14547,-7.27537 4.14551,-12.80273 -4e-5,-3.49607 -0.59086,-6.54783 -1.77246,-9.15528 -1.18168,-2.60738 -2.91019,-4.62887 -5.18555,-6.06445 -2.27542,-1.43551 -4.82913,-2.15328 -7.66113,-2.15332 -4.02346,4e-5 -7.48537,1.38187 -10.38574,4.14551 -2.9004,2.7637 -4.3506,7.37796 -4.35059,13.84277 z"
       style="font-size:60px;fill:#ffffff;stroke:none;font-family:Arial"
       id="path3762" />
    <path
       inkscape:connector-curvature="0"
       d="m 227.64062,147 0,-42.94922 28.97461,0 0,5.06836 -23.29101,0 0,13.30078 20.15625,0 0,5.06836 -20.15625,0 0,19.51172 z"
       style="font-size:60px;fill:#ffffff;stroke:none;font-family:Arial"
       id="path3764" />
  </g>
  <polyline
     points="200,200 110,150 110,250 200,200 290,150 290,250 200,200"
     style="fill:#ffffff;stroke:#000000;stroke-width:6;stroke-miterlimit:4;stroke-opacity:1;stroke-dasharray:12, 6;stroke-dashoffset:0"
     id="polyline6" />
  <g
     style="font-size:45px;fill:#ffffff;stroke:none;font-family:Arial"
     id="text8">
    <path
       inkscape:connector-curvature="0"
       d="m 161.45508,283.70605 4.26269,1.07666 c -0.89358,3.50099 -2.50125,6.17066 -4.82299,8.00904 -2.32181,1.83838 -5.15994,2.75757 -8.51441,2.75757 -3.47169,0 -6.29518,-0.70679 -8.47046,-2.12036 -2.1753,-1.41358 -3.83057,-3.46069 -4.96582,-6.14136 -1.13525,-2.68066 -1.70288,-5.55907 -1.70288,-8.63526 0,-3.35447 0.64087,-6.28049 1.92261,-8.77807 1.28173,-2.49753 3.10546,-4.3945 5.47119,-5.69092 2.36571,-1.29635 4.96947,-1.94455 7.81128,-1.94458 3.22263,3e-5 5.93259,0.82034 8.12988,2.46094 2.19724,1.64065 3.728,3.94778 4.59229,6.92138 l -4.19678,0.98877 c -0.7471,-2.34372 -1.83108,-4.05026 -3.25195,-5.11963 -1.42092,-1.0693 -3.20803,-1.60397 -5.36133,-1.604 -2.4756,3e-5 -4.54469,0.59329 -6.20728,1.77979 -1.6626,1.18655 -2.83082,2.77956 -3.50464,4.77905 -0.67383,1.99953 -1.01074,4.0613 -1.01074,6.1853 0,2.73927 0.39917,5.13063 1.19751,7.17407 0.79833,2.04347 2.03979,3.57057 3.72437,4.5813 1.68455,1.01075 3.50828,1.51612 5.47119,1.51612 2.38767,0 4.40916,-0.68848 6.06445,-2.06543 1.65525,-1.37695 2.77585,-3.42041 3.36182,-6.13038 z"
       style="font-size:45px;fill:#ffffff;stroke:none;font-family:Arial"
       id="path3767" />
    <path
       inkscape:connector-curvature="0"
       d="m 169.54102,284.65088 4.02099,-0.35156 c 0.19043,1.61133 0.63354,2.93335 1.32935,3.96606 0.69579,1.03272 1.77611,1.86768 3.24096,2.50488 1.46484,0.63721 3.11278,0.95582 4.94385,0.95581 1.62596,1e-5 3.06151,-0.24169 4.30664,-0.72509 1.2451,-0.4834 2.17161,-1.14624 2.77954,-1.98853 0.60789,-0.84228 0.91185,-1.76147 0.91187,-2.75757 -2e-5,-1.01073 -0.29299,-1.8933 -0.87891,-2.6477 -0.58596,-0.75438 -1.55275,-1.38793 -2.90039,-1.90064 -0.86427,-0.3369 -2.77589,-0.86058 -5.73486,-1.57104 -2.959,-0.71044 -5.03175,-1.3806 -6.21826,-2.0105 -1.5381,-0.80565 -2.68433,-1.8054 -3.43872,-2.99927 -0.7544,-1.19382 -1.1316,-2.53049 -1.1316,-4.01001 0,-1.62595 0.46143,-3.14572 1.38428,-4.55932 0.92285,-1.41355 2.2705,-2.48654 4.04297,-3.219 1.77245,-0.73239 3.74266,-1.0986 5.91064,-1.09863 2.38768,3e-5 4.49339,0.38455 6.31714,1.15356 1.82371,0.76908 3.2263,1.90067 4.20777,3.39478 0.98142,1.49417 1.50876,3.18606 1.58203,5.07568 l -4.08692,0.30762 c -0.21974,-2.03611 -0.96315,-3.57419 -2.23022,-4.61426 -1.26711,-1.04001 -3.13845,-1.56003 -5.61401,-1.56006 -2.57814,3e-5 -4.4568,0.47244 -5.63599,1.41724 -1.17921,0.94485 -1.76881,2.08377 -1.7688,3.41675 -1e-5,1.15725 0.41747,2.1094 1.25244,2.85644 0.82031,0.74709 2.96264,1.51247 6.427,2.29615 3.46434,0.78371 5.84105,1.46852 7.13013,2.05444 1.87498,0.86427 3.25925,1.95924 4.15283,3.28491 0.89353,1.3257 1.34031,2.8528 1.34034,4.5813 -3e-5,1.71387 -0.49075,3.32886 -1.47217,4.84497 -0.98147,1.51612 -2.39138,2.69532 -4.22974,3.5376 -1.8384,0.84228 -3.90749,1.26343 -6.20727,1.26343 -2.91506,0 -5.35768,-0.42481 -7.32789,-1.27442 -1.97022,-0.84961 -3.51562,-2.12768 -4.63623,-3.83423 -1.1206,-1.70653 -1.7102,-3.63646 -1.76879,-5.78979 z"
       style="font-size:45px;fill:#ffffff;stroke:none;font-family:Arial"
       id="path3769" />
    <path
       inkscape:connector-curvature="0"
       d="m 197.51221,295 12.3706,-32.21191 4.59229,0 13.18359,32.21191 -4.85596,0 -3.75732,-9.75586 -13.46924,0 -3.5376,9.75586 z m 9.29443,-13.22754 10.92041,0 -3.36182,-8.9209 c -1.0254,-2.70993 -1.78712,-4.93649 -2.28515,-6.67969 -0.41017,2.06546 -0.98878,4.11624 -1.73584,6.15235 z"
       style="font-size:45px;fill:#ffffff;stroke:none;font-family:Arial"
       id="path3771" />
    <path
       inkscape:connector-curvature="0"
       d="m 231.17432,295 0,-32.21191 14.28222,0 c 2.87108,3e-5 5.05369,0.28933 6.54785,0.86792 1.49412,0.57864 2.68797,1.60037 3.58155,3.06518 0.89352,1.46487 1.3403,3.08352 1.34033,4.85596 -3e-5,2.28518 -0.73978,4.21144 -2.21924,5.77881 -1.47952,1.5674 -3.76467,2.56349 -6.85547,2.98828 1.12791,0.542 1.98484,1.07667 2.5708,1.604 1.2451,1.14259 2.42429,2.57081 3.5376,4.28467 l 5.60303,8.76709 -5.36133,0 -4.2627,-6.70166 c -1.24513,-1.93359 -2.27052,-3.41308 -3.07617,-4.43848 -0.80568,-1.02538 -1.52711,-1.74315 -2.1643,-2.15332 -0.63723,-0.41014 -1.28542,-0.69578 -1.94458,-0.85693 -0.48342,-0.10253 -1.27443,-0.15379 -2.37305,-0.15381 l -4.94385,0 0,14.3042 z m 4.26269,-17.99561 9.1626,0 c 1.94822,2e-5 3.47166,-0.20139 4.57031,-0.60424 1.09861,-0.40282 1.93357,-1.04735 2.50488,-1.9336 0.57127,-0.88621 0.85691,-1.84934 0.85694,-2.8894 -3e-5,-1.52341 -0.553,-2.77585 -1.65894,-3.75733 -1.10598,-0.98141 -2.8528,-1.47214 -5.24048,-1.47216 l -10.19531,0 z"
       style="font-size:45px;fill:#ffffff;stroke:none;font-family:Arial"
       id="path3773" />
  </g>
</svg>
