<?xml version="1.0" encoding="UTF-8" standalone="no"?>
<!--
Copyright (C) 2012 United States Government as represented by the Administrator of the
National Aeronautics and Space Administration.
All Rights Reserved.
-->

<!--
MIL-STD-2525 tactical symbol icon image. During icon composition this image is multiplied by the desired frame color 
(e.g. black), then drawn on top of the frame and fill.
-->

<svg
   xmlns:dc="http://purl.org/dc/elements/1.1/"
   xmlns:cc="http://creativecommons.org/ns#"
   xmlns:rdf="http://www.w3.org/1999/02/22-rdf-syntax-ns#"
   xmlns:svg="http://www.w3.org/2000/svg"
   xmlns="http://www.w3.org/2000/svg"
   xmlns:sodipodi="http://sodipodi.sourceforge.net/DTD/sodipodi-0.dtd"
   xmlns:inkscape="http://www.inkscape.org/namespaces/inkscape"
   height="400px"
   viewBox="0 0 400 400"
   width="400px"
   id="svg2"
   version="1.1"
   inkscape:version="0.48.2 r9819"
   sodipodi:docname="sngaip---------.svg">
  <metadata
     id="metadata12">
    <rdf:RDF>
      <cc:Work
         rdf:about="">
        <dc:format>image/svg+xml</dc:format>
        <dc:type
           rdf:resource="http://purl.org/dc/dcmitype/StillImage" />
      </cc:Work>
    </rdf:RDF>
  </metadata>
  <defs
     id="defs10" />
  <sodipodi:namedview
     pagecolor="#ffffff"
     bordercolor="#666666"
     borderopacity="1"
     objecttolerance="10"
     gridtolerance="10"
     guidetolerance="10"
     inkscape:pageopacity="0"
     inkscape:pageshadow="2"
     inkscape:window-width="640"
     inkscape:window-height="480"
     id="namedview8"
     showgrid="false"
     inkscape:zoom="0.59"
     inkscape:cx="200"
     inkscape:cy="200"
     inkscape:window-x="199"
     inkscape:window-y="111"
     inkscape:window-maximized="0"
     inkscape:current-layer="svg2" />
  <g
     style="font-size:65px;font-weight:bold;text-anchor:middle;fill:#ffffff;stroke:#000000;stroke-width:4;stroke-miterlimit:4;stroke-opacity:1;stroke-dasharray:8, 4;stroke-dashoffset:0;font-family:Arial"
     id="text4">
    <path
       inkscape:connector-curvature="0"
       d="m 110.78369,175 0,-46.52832 15.07569,0 c 5.71286,5e-5 9.43681,0.23279 11.17187,0.69824 2.66598,0.69829 4.89824,2.21644 6.69678,4.55445 1.79846,2.33809 2.69771,5.35851 2.69775,9.06127 -4e-5,2.85648 -0.51843,5.25801 -1.55517,7.20459 -1.03683,1.94664 -2.35396,3.47537 -3.95142,4.58619 -1.59753,1.11086 -3.22147,1.84612 -4.87183,2.20581 -2.24286,0.44435 -5.49074,0.66652 -9.74365,0.6665 l -6.12549,0 0,17.55127 z m 9.39453,-38.65723 0,13.20313 5.1416,0 c 3.70278,2e-5 6.17836,-0.2433 7.42676,-0.72998 1.24835,-0.48663 2.22694,-1.24835 2.93579,-2.28516 0.70879,-1.03675 1.0632,-2.24281 1.06324,-3.61816 -4e-5,-1.69268 -0.49727,-3.08916 -1.4917,-4.18946 -0.9945,-1.10022 -2.25345,-1.78788 -3.77686,-2.06298 -1.12144,-0.21155 -3.37486,-0.31735 -6.76025,-0.31739 z"
       style="font-size:65px;font-weight:bold;text-anchor:middle;fill:#ffffff;stroke:#000000;stroke-width:4;stroke-miterlimit:4;stroke-opacity:1;stroke-dasharray:8, 4;stroke-dashoffset:0;font-family:Arial"
       id="path2990" />
    <path
       inkscape:connector-curvature="0"
       d="m 154.2334,175 0,-46.52832 19.77295,0 c 4.9723,5e-5 8.58517,0.41793 10.83862,1.25366 2.25338,0.83582 4.05717,2.32223 5.41138,4.45923 1.35412,2.13708 2.0312,4.58093 2.03125,7.33154 -5e-5,3.49124 -1.02625,6.37414 -3.07862,8.64868 -2.05244,2.2746 -5.12047,3.70812 -9.2041,4.30054 2.03122,1.18492 3.70806,2.48619 5.03052,3.90381 1.32239,1.41766 3.10502,3.93556 5.3479,7.55371 l 5.68115,9.07715 -11.23535,0 -6.79199,-10.12451 c -2.41214,-3.61815 -4.06253,-5.89802 -4.95117,-6.8396 -0.8887,-0.94155 -1.83027,-1.5869 -2.82471,-1.93604 -0.99449,-0.3491 -2.57082,-0.52366 -4.729,-0.52368 l -1.9043,0 0,19.42383 z m 9.39453,-26.85059 6.95068,0 c 4.50681,3e-5 7.32094,-0.1904 8.44239,-0.57129 1.12138,-0.38083 1.99948,-1.03675 2.63427,-1.96777 0.63474,-0.93096 0.95212,-2.09469 0.95215,-3.49121 -3e-5,-1.56572 -0.41792,-2.82996 -1.25366,-3.79272 -0.83581,-0.96269 -2.01541,-1.57101 -3.53882,-1.82496 -0.76174,-0.10575 -3.0469,-0.15865 -6.85547,-0.15869 l -7.33154,0 z"
       style="font-size:65px;font-weight:bold;text-anchor:middle;fill:#ffffff;stroke:#000000;stroke-width:4;stroke-miterlimit:4;stroke-opacity:1;stroke-dasharray:8, 4;stroke-dashoffset:0;font-family:Arial"
       id="path2992" />
    <path
       inkscape:connector-curvature="0"
       d="m 199.27002,152.02148 c 0,-4.73955 0.70882,-8.71741 2.12646,-11.93359 1.05794,-2.36975 2.50203,-4.49622 4.33228,-6.37939 1.83023,-1.8831 3.83503,-3.27958 6.0144,-4.18946 2.89875,-1.22716 6.24184,-1.84077 10.0293,-1.84082 6.85544,5e-5 12.34086,2.12651 16.4563,6.3794 4.11535,4.25296 6.17305,10.16686 6.1731,17.7417 -5e-5,7.51141 -2.04188,13.38827 -6.12549,17.63061 -4.0837,4.24235 -9.54268,6.36353 -16.37696,6.36353 -6.91896,0 -12.42026,-2.1106 -16.5039,-6.33179 -4.08367,-4.22118 -6.12549,-10.03457 -6.12549,-17.44019 z m 9.68018,-0.31738 c -2e-5,5.26857 1.21662,9.2623 3.6499,11.9812 2.43325,2.71892 5.52244,4.07838 9.26758,4.07837 3.74508,1e-5 6.8184,-1.34887 9.21997,-4.04663 2.40149,-2.69774 3.60225,-6.74437 3.60229,-12.13989 -4e-5,-5.332 -1.16906,-9.30986 -3.50708,-11.9336 -2.33808,-2.62366 -5.44314,-3.9355 -9.31518,-3.93554 -3.8721,4e-5 -6.99302,1.32775 -9.3628,3.98315 -2.3698,2.65547 -3.5547,6.65978 -3.55468,12.01294 z"
       style="font-size:65px;font-weight:bold;text-anchor:middle;fill:#ffffff;stroke:#000000;stroke-width:4;stroke-miterlimit:4;stroke-opacity:1;stroke-dasharray:8, 4;stroke-dashoffset:0;font-family:Arial"
       id="path2994" />
    <path
       inkscape:connector-curvature="0"
       d="m 281.47217,157.89307 9.10888,2.88818 c -1.39652,5.07813 -3.7187,8.8497 -6.96655,11.3147 -3.24792,2.465 -7.3686,3.69751 -12.36206,3.69751 -6.1784,0 -11.25652,-2.1106 -15.23437,-6.33179 -3.97787,-4.22118 -5.9668,-9.99225 -5.9668,-17.31323 0,-7.74411 1.99951,-13.75851 5.99853,-18.04322 3.99902,-4.28462 9.25699,-6.42695 15.77393,-6.427 5.6917,5e-5 10.31491,1.68218 13.86963,5.04639 2.11584,1.98897 3.70276,4.84541 4.76074,8.56934 l -9.29931,2.22167 c -0.55017,-2.41207 -1.69804,-4.31637 -3.44361,-5.71289 -1.74563,-1.39644 -3.86681,-2.09468 -6.36352,-2.09472 -3.44892,4e-5 -6.24717,1.23783 -8.39478,3.71338 -2.14764,2.47562 -3.22145,6.48521 -3.22143,12.02881 -2e-5,5.88217 1.05792,10.07162 3.17382,12.56835 2.11587,2.49676 4.86652,3.74513 8.25196,3.74512 2.49671,1e-5 4.64434,-0.79345 6.44287,-2.38037 1.79847,-1.5869 3.08916,-4.08364 3.87207,-7.49023 z"
       style="font-size:65px;font-weight:bold;text-anchor:middle;fill:#ffffff;stroke:#000000;stroke-width:4;stroke-miterlimit:4;stroke-opacity:1;stroke-dasharray:8, 4;stroke-dashoffset:0;font-family:Arial"
       id="path2996" />
  </g>
  <g
     style="font-size:65px;font-weight:bold;text-anchor:middle;fill:#ffffff;stroke:#000000;stroke-width:4;stroke-miterlimit:4;stroke-opacity:1;stroke-dasharray:8, 4;stroke-dashoffset:0;font-family:Arial"
     id="text6">
    <path
       inkscape:connector-curvature="0"
       d="m 137.95166,280 0,-46.52832 31.89697,0 0,7.87109 -22.50244,0 0,11.01319 19.42383,0 0,7.87109 -19.42383,0 0,19.77295 z"
       style="font-size:65px;font-weight:bold;text-anchor:middle;fill:#ffffff;stroke:#000000;stroke-width:4;stroke-miterlimit:4;stroke-opacity:1;stroke-dasharray:8, 4;stroke-dashoffset:0;font-family:Arial"
       id="path2999" />
    <path
       inkscape:connector-curvature="0"
       d="m 219.58252,280 -10.21973,0 -4.0625,-10.56885 -18.59863,0 -3.84033,10.56885 -9.96582,0 18.12256,-46.52832 9.93408,0 z m -17.29736,-18.4082 -6.41114,-17.26563 -6.28418,17.26563 z"
       style="font-size:65px;font-weight:bold;text-anchor:middle;fill:#ffffff;stroke:#000000;stroke-width:4;stroke-miterlimit:4;stroke-opacity:1;stroke-dasharray:8, 4;stroke-dashoffset:0;font-family:Arial"
       id="path3001" />
    <path
       inkscape:connector-curvature="0"
       d="m 254.36768,262.89307 9.10888,2.88818 c -1.39652,5.07813 -3.71871,8.8497 -6.96655,11.3147 -3.24792,2.465 -7.3686,3.69751 -12.36206,3.69751 -6.1784,0 -11.25652,-2.1106 -15.23438,-6.33179 -3.97787,-4.22118 -5.9668,-9.99225 -5.96679,-17.31323 -1e-5,-7.74411 1.9995,-13.75851 5.99853,-18.04322 3.99901,-4.28462 9.25698,-6.42695 15.77393,-6.427 5.6917,5e-5 10.3149,1.68218 13.86963,5.04639 2.11584,1.98897 3.70275,4.84541 4.76074,8.56934 l -9.29932,2.22167 c -0.55016,-2.41207 -1.69803,-4.31637 -3.4436,-5.71289 -1.74564,-1.39644 -3.86681,-2.09468 -6.36353,-2.09472 -3.44891,4e-5 -6.24717,1.23783 -8.39477,3.71338 -2.14764,2.47562 -3.22145,6.48521 -3.22144,12.02881 -1e-5,5.88217 1.05793,10.07162 3.17383,12.56835 2.11587,2.49676 4.86652,3.74513 8.25195,3.74512 2.49672,1e-5 4.64434,-0.79345 6.44288,-2.38037 1.79847,-1.5869 3.08915,-4.08364 3.87207,-7.49023 z"
       style="font-size:65px;font-weight:bold;text-anchor:middle;fill:#ffffff;stroke:#000000;stroke-width:4;stroke-miterlimit:4;stroke-opacity:1;stroke-dasharray:8, 4;stroke-dashoffset:0;font-family:Arial"
       id="path3003" />
  </g>
</svg>
