<?xml version="1.0" encoding="UTF-8" standalone="no"?>
<!--
Copyright (C) 2012 United States Government as represented by the Administrator of the
National Aeronautics and Space Administration.
All Rights Reserved.
-->

<!--
MIL-STD-2525 tactical symbol icon image. During icon composition this image is multiplied by the desired frame color 
(e.g. black), then drawn on top of the frame and fill.
-->

<svg
   xmlns:dc="http://purl.org/dc/elements/1.1/"
   xmlns:cc="http://creativecommons.org/ns#"
   xmlns:rdf="http://www.w3.org/1999/02/22-rdf-syntax-ns#"
   xmlns:svg="http://www.w3.org/2000/svg"
   xmlns="http://www.w3.org/2000/svg"
   xmlns:sodipodi="http://sodipodi.sourceforge.net/DTD/sodipodi-0.dtd"
   xmlns:inkscape="http://www.inkscape.org/namespaces/inkscape"
   height="400px"
   viewBox="0 0 400 400"
   width="400px"
   id="svg2"
   version="1.1"
   inkscape:version="0.48.2 r9819"
   sodipodi:docname="sngaexi--------.svg">
  <metadata
     id="metadata10">
    <rdf:RDF>
      <cc:Work
         rdf:about="">
        <dc:format>image/svg+xml</dc:format>
        <dc:type
           rdf:resource="http://purl.org/dc/dcmitype/StillImage" />
      </cc:Work>
    </rdf:RDF>
  </metadata>
  <defs
     id="defs8" />
  <sodipodi:namedview
     pagecolor="#ffffff"
     bordercolor="#666666"
     borderopacity="1"
     objecttolerance="10"
     gridtolerance="10"
     guidetolerance="10"
     inkscape:pageopacity="0"
     inkscape:pageshadow="2"
     inkscape:window-width="640"
     inkscape:window-height="480"
     id="namedview6"
     showgrid="false"
     inkscape:zoom="0.59"
     inkscape:cx="200"
     inkscape:cy="200"
     inkscape:window-x="231"
     inkscape:window-y="157"
     inkscape:window-maximized="0"
     inkscape:current-layer="svg2" />
  <g
     style="font-size:125px;font-weight:bold;text-anchor:middle;fill:#ffffff;stroke:#000000;stroke-width:6;stroke-miterlimit:4;stroke-opacity:1;stroke-dasharray:12, 6;stroke-dashoffset:0;font-family:arial"
     id="text4">
    <path
       inkscape:connector-curvature="0"
       d="m 104.29688,245 0,-89.47754 18.0664,0 0,89.47754 z"
       style="font-size:125px;font-weight:bold;text-anchor:middle;fill:#ffffff;stroke:#000000;stroke-width:6;stroke-miterlimit:4;stroke-opacity:1;stroke-dasharray:12, 6;stroke-dashoffset:0;font-family:arial"
       id="path2988" />
    <path
       inkscape:connector-curvature="0"
       d="m 139.51416,245 0,-89.47754 66.34521,0 0,15.13672 -48.2788,0 0,19.83643 44.92187,0 0,15.07568 -44.92187,0 0,24.35303 49.98779,0 0,15.07568 z"
       style="font-size:125px;font-weight:bold;text-anchor:middle;fill:#ffffff;stroke:#000000;stroke-width:6;stroke-miterlimit:4;stroke-opacity:1;stroke-dasharray:12, 6;stroke-dashoffset:0;font-family:arial"
       id="path2990" />
    <path
       inkscape:connector-curvature="0"
       d="m 222.94922,155.52246 33.02002,0 c 7.44624,9e-5 13.1225,0.56975 17.02881,1.70899 5.24896,1.54631 9.74521,4.29288 13.48877,8.23974 3.74341,3.94702 6.59171,8.77896 8.54492,14.49585 1.95304,5.71702 2.9296,12.76657 2.92969,21.14868 -9e-5,7.36495 -0.91561,13.7126 -2.74659,19.04297 -2.23803,6.51044 -5.4322,11.7798 -9.58252,15.80811 -3.1332,3.05176 -7.36497,5.43213 -12.69531,7.14111 C 268.94933,244.3693 263.61893,245 256.9458,245 l -33.99658,0 z m 18.0664,15.13672 0,59.26514 13.48877,0 c 5.04553,1e-5 8.68729,-0.28482 10.9253,-0.8545 2.92963,-0.7324 5.36086,-1.97345 7.2937,-3.72314 1.93272,-1.74965 3.50946,-4.62848 4.73022,-8.63647 1.22064,-4.00795 1.83099,-9.47059 1.83106,-16.38794 -7e-5,-6.91727 -0.61042,-12.22732 -1.83106,-15.93018 -1.22076,-3.70274 -2.92974,-6.59173 -5.12695,-8.66699 -2.19732,-2.07513 -4.98459,-3.47893 -8.36182,-4.21143 -2.52283,-0.56959 -7.46667,-0.85442 -14.83154,-0.85449 z"
       style="font-size:125px;font-weight:bold;text-anchor:middle;fill:#ffffff;stroke:#000000;stroke-width:6;stroke-miterlimit:4;stroke-opacity:1;stroke-dasharray:12, 6;stroke-dashoffset:0;font-family:arial"
       id="path2992" />
  </g>
</svg>
