<?xml version="1.0" encoding="UTF-8" standalone="no"?>
<!--
Copyright (C) 2012 United States Government as represented by the Administrator of the
National Aeronautics and Space Administration.
All Rights Reserved.
-->

<!--
MIL-STD-2525 tactical symbol icon image. During icon composition this image is multiplied by the desired frame color 
(e.g. black), then drawn on top of the frame and fill.
-->

<svg
   xmlns:dc="http://purl.org/dc/elements/1.1/"
   xmlns:cc="http://creativecommons.org/ns#"
   xmlns:rdf="http://www.w3.org/1999/02/22-rdf-syntax-ns#"
   xmlns:svg="http://www.w3.org/2000/svg"
   xmlns="http://www.w3.org/2000/svg"
   xmlns:sodipodi="http://sodipodi.sourceforge.net/DTD/sodipodi-0.dtd"
   xmlns:inkscape="http://www.inkscape.org/namespaces/inkscape"
   height="400px"
   viewBox="0 0 400 400"
   width="400px"
   id="svg2"
   version="1.1"
   inkscape:version="0.48.2 r9819"
   sodipodi:docname="sngauuld-------.svg">
  <metadata
     id="metadata10">
    <rdf:RDF>
      <cc:Work
         rdf:about="">
        <dc:format>image/svg+xml</dc:format>
        <dc:type
           rdf:resource="http://purl.org/dc/dcmitype/StillImage" />
      </cc:Work>
    </rdf:RDF>
  </metadata>
  <defs
     id="defs8" />
  <sodipodi:namedview
     pagecolor="#ffffff"
     bordercolor="#666666"
     borderopacity="1"
     objecttolerance="10"
     gridtolerance="10"
     guidetolerance="10"
     inkscape:pageopacity="0"
     inkscape:pageshadow="2"
     inkscape:window-width="640"
     inkscape:window-height="480"
     id="namedview6"
     showgrid="false"
     inkscape:zoom="0.59"
     inkscape:cx="200"
     inkscape:cy="200"
     inkscape:window-x="136"
     inkscape:window-y="54"
     inkscape:window-maximized="0"
     inkscape:current-layer="svg2" />
  <g
     style="font-size:90px;font-weight:bold;text-anchor:middle;fill:#ffffff;stroke:#000000;stroke-width:6;stroke-miterlimit:4;stroke-opacity:1;stroke-dasharray:12, 6;stroke-dashoffset:0;font-family:Arial"
     id="text4">
    <path
       inkscape:connector-curvature="0"
       d="m 170.24902,208.31348 12.61231,3.99902 c -1.93365,7.03126 -5.14898,12.25343 -9.646,15.6665 -4.49711,3.41309 -10.20268,5.11963 -17.1167,5.11963 -8.55471,0 -15.58595,-2.92236 -21.09375,-8.76709 -5.50782,-5.84471 -8.26172,-13.83542 -8.26172,-23.97217 0,-10.72261 2.76855,-19.05024 8.30567,-24.98291 5.53709,-5.93255 12.81736,-8.89886 21.84082,-8.89892 7.88082,6e-5 14.28218,2.32916 19.2041,6.9873 2.92963,2.75397 5.12689,6.70904 6.5918,11.86524 l -12.87598,3.07617 c -0.76177,-3.3398 -2.35112,-5.97651 -4.76807,-7.91016 -2.41703,-1.93354 -5.35404,-2.90033 -8.81103,-2.90039 -4.77542,6e-5 -8.64993,1.71392 -11.62354,5.1416 -2.97365,3.42778 -4.46046,8.97954 -4.46045,16.65528 -1e-5,8.14455 1.46483,13.94533 4.39454,17.40234 2.92966,3.45704 6.73825,5.18556 11.42578,5.18555 3.45699,1e-5 6.43062,-1.09862 8.9209,-3.2959 2.49018,-2.19725 4.27729,-5.65428 5.36132,-10.37109 z"
       style="font-size:90px;font-weight:bold;text-anchor:middle;fill:#ffffff;stroke:#000000;stroke-width:6;stroke-miterlimit:4;stroke-opacity:1;stroke-dasharray:12, 6;stroke-dashoffset:0;font-family:Arial"
       id="path2988" />
    <path
       inkscape:connector-curvature="0"
       d="m 193.67187,232 0,-64.42383 13.00782,0 0,64.42383 z"
       style="font-size:90px;font-weight:bold;text-anchor:middle;fill:#ffffff;stroke:#000000;stroke-width:6;stroke-miterlimit:4;stroke-opacity:1;stroke-dasharray:12, 6;stroke-dashoffset:0;font-family:Arial"
       id="path2990" />
    <path
       inkscape:connector-curvature="0"
       d="m 218.98437,167.57617 23.77442,0 c 5.36129,7e-5 9.4482,0.41022 12.26074,1.23047 3.77925,1.11334 7.01655,3.09088 9.71192,5.93262 2.69525,2.84185 4.74603,6.32085 6.15234,10.43701 1.40619,4.11625 2.10931,9.19193 2.10937,15.22705 -6e-5,5.30276 -0.65924,9.87307 -1.97754,13.71094 -1.61138,4.68751 -3.91118,8.48145 -6.89941,11.38183 -2.25591,2.19727 -5.30278,3.91114 -9.14062,5.14161 -2.87114,0.9082 -6.70902,1.3623 -11.51368,1.3623 l -24.47754,0 z m 13.00782,10.89844 0,42.6709 9.71191,0 c 3.63278,1e-5 6.25485,-0.20507 7.86621,-0.61524 2.10934,-0.52733 3.85982,-1.42088 5.25147,-2.68066 1.39156,-1.25975 2.52681,-3.3325 3.40576,-6.21826 0.87886,-2.88572 1.31831,-6.81882 1.31836,-11.79932 -5e-5,-4.98043 -0.4395,-8.80367 -1.31836,-11.46973 -0.87895,-2.66596 -2.10942,-4.74604 -3.69141,-6.24023 -1.58207,-1.49409 -3.5889,-2.50483 -6.02051,-3.03223 -1.81644,-0.4101 -5.376,-0.61518 -10.67871,-0.61523 z"
       style="font-size:90px;font-weight:bold;text-anchor:middle;fill:#ffffff;stroke:#000000;stroke-width:6;stroke-miterlimit:4;stroke-opacity:1;stroke-dasharray:12, 6;stroke-dashoffset:0;font-family:Arial"
       id="path2992" />
  </g>
</svg>
