<?xml version="1.0" encoding="UTF-8" standalone="no"?>
<!--
Copyright (C) 2012 United States Government as represented by the Administrator of the
National Aeronautics and Space Administration.
All Rights Reserved.
-->

<!--
MIL-STD-2525 tactical symbol icon image. During icon composition this image is multiplied by the desired frame color 
(e.g. black), then drawn on top of the frame and fill.
-->

<svg
   xmlns:dc="http://purl.org/dc/elements/1.1/"
   xmlns:cc="http://creativecommons.org/ns#"
   xmlns:rdf="http://www.w3.org/1999/02/22-rdf-syntax-ns#"
   xmlns:svg="http://www.w3.org/2000/svg"
   xmlns="http://www.w3.org/2000/svg"
   xmlns:sodipodi="http://sodipodi.sourceforge.net/DTD/sodipodi-0.dtd"
   xmlns:inkscape="http://www.inkscape.org/namespaces/inkscape"
   height="400px"
   viewBox="0 0 400 400"
   width="400px"
   id="svg2"
   version="1.1"
   inkscape:version="0.48.2 r9819"
   sodipodi:docname="sngauumrss-----.svg">
  <metadata
     id="metadata20">
    <rdf:RDF>
      <cc:Work
         rdf:about="">
        <dc:format>image/svg+xml</dc:format>
        <dc:type
           rdf:resource="http://purl.org/dc/dcmitype/StillImage" />
      </cc:Work>
    </rdf:RDF>
  </metadata>
  <defs
     id="defs18" />
  <sodipodi:namedview
     pagecolor="#ffffff"
     bordercolor="#666666"
     borderopacity="1"
     objecttolerance="10"
     gridtolerance="10"
     guidetolerance="10"
     inkscape:pageopacity="0"
     inkscape:pageshadow="2"
     inkscape:window-width="640"
     inkscape:window-height="480"
     id="namedview16"
     showgrid="false"
     inkscape:zoom="0.59"
     inkscape:cx="200"
     inkscape:cy="200"
     inkscape:window-x="0"
     inkscape:window-y="0"
     inkscape:window-maximized="0"
     inkscape:current-layer="svg2" />
  <g
     transform="translate(40 115) scale(0.8 0.8)"
     id="g4">
    <g
       style="font-size:90px;font-weight:bold;text-anchor:middle;fill:#000000;font-family:Arial"
       id="text6">
      <path
         d="m 156.3623,232 0,-64.42383 19.46778,0 11.68945,43.94531 11.55762,-43.94531 19.51172,0 0,64.42383 -12.08496,0 0,-50.71289 L 193.71582,232 l -12.52441,0 -12.74414,-50.71289 0,50.71289 z"
         style="font-size:90px;font-weight:bold;text-anchor:middle;fill:#000000;font-family:Arial"
         id="path2998" />
      <path
         d="m 231.20117,232 0,-64.42383 13.00781,0 0,64.42383 z"
         style="font-size:90px;font-weight:bold;text-anchor:middle;fill:#000000;font-family:Arial"
         id="path3000" />
    </g>
  </g>
  <line
     style="stroke:rgb(0,0,0);stroke-width:10;stroke-dasharray:10"
     x1="68"
     x2="332"
     y1="200"
     y2="200"
     id="line8" />
  <path
     d="M110 165 L290 165 L250 235 L150 235 z"
     style="fill:rgb(255,255,255);stroke:rgb(0,0,0);stroke-width:10;stroke-dasharray:10"
     id="path10" />
  <g
     transform="translate(82 10) scale(0.6 0.6)"
     id="g12">
    <g
       style="font-size:90px;font-weight:bold;text-anchor:middle;fill:#000000;font-family:Arial"
       id="text14">
      <path
         d="m 103.14453,211.03809 12.65625,-1.23047 c 0.7617,4.24806 2.30711,7.36818 4.63623,9.36035 2.32908,1.9922 5.47117,2.98829 9.42627,2.98828 4.18942,1e-5 7.34616,-0.88622 9.47022,-2.65869 2.12398,-1.77245 3.18599,-3.8452 3.18603,-6.21826 -4e-5,-1.52342 -0.44682,-2.81981 -1.34033,-3.88916 -0.8936,-1.06932 -2.45365,-1.99949 -4.68018,-2.79053 -1.52347,-0.52732 -4.99515,-1.46482 -10.41504,-2.8125 -6.97267,-1.72849 -11.86524,-3.85251 -14.67773,-6.37207 -3.95509,-3.54488 -5.93262,-7.86617 -5.93262,-12.96387 0,-3.2812 0.93017,-6.35004 2.79053,-9.20654 1.86034,-2.85639 4.541,-5.03168 8.04199,-6.52588 3.50096,-1.49408 7.72703,-2.24115 12.67822,-2.24121 8.08591,6e-5 14.17233,1.77252 18.25928,5.31738 4.08686,3.54498 6.23286,8.27642 6.43799,14.19434 l -13.00781,0.57129 c -0.55668,-3.3105 -1.75053,-5.69087 -3.58154,-7.14112 -1.83109,-1.45014 -4.57767,-2.17523 -8.23975,-2.17529 -3.77932,6e-5 -6.7383,0.77642 -8.87695,2.3291 -1.37698,0.99615 -2.06545,2.32915 -2.06543,3.99903 -2e-5,1.52348 0.64451,2.82719 1.93359,3.91113 1.6406,1.37699 5.62497,2.81254 11.95312,4.30664 6.32809,1.49418 11.00826,3.03959 14.04053,4.63623 3.03218,1.59671 5.40522,3.77933 7.11914,6.54785 1.71382,2.76858 2.57075,6.18899 2.5708,10.26123 -5e-5,3.69142 -1.02544,7.14845 -3.07617,10.3711 -2.05083,3.22266 -4.95122,5.61767 -8.70117,7.18505 -3.75004,1.56739 -8.42289,2.35108 -14.01855,2.35108 -8.14456,0 -14.39943,-1.88233 -18.76465,-5.64697 -4.36524,-3.76464 -6.97266,-9.25048 -7.82227,-16.45752 z"
         style="font-size:90px;font-weight:bold;text-anchor:middle;fill:#000000;font-family:Arial"
         id="path3003" />
      <path
         d="m 207.77832,208.31348 12.6123,3.99902 c -1.93365,7.03126 -5.14898,12.25343 -9.64599,15.6665 -4.49712,3.41309 -10.20268,5.11963 -17.1167,5.11963 -8.55471,0 -15.58596,-2.92236 -21.09375,-8.76709 -5.50782,-5.84471 -8.26172,-13.83542 -8.26172,-23.97217 0,-10.72261 2.76855,-19.05024 8.30566,-24.98291 5.5371,-5.93255 12.81736,-8.89886 21.84083,-8.89892 7.88081,6e-5 14.28217,2.32916 19.2041,6.9873 2.92963,2.75397 5.12689,6.70904 6.59179,11.86524 l -12.87597,3.07617 c -0.76177,-3.3398 -2.35112,-5.97651 -4.76807,-7.91016 -2.41703,-1.93354 -5.35404,-2.90033 -8.81103,-2.90039 -4.77542,6e-5 -8.64993,1.71392 -11.62354,5.1416 -2.97365,3.42778 -4.46047,8.97954 -4.46045,16.65528 -2e-5,8.14455 1.46483,13.94533 4.39453,17.40234 2.92967,3.45704 6.73825,5.18556 11.42578,5.18555 3.457,1e-5 6.43063,-1.09862 8.9209,-3.2959 2.49019,-2.19725 4.2773,-5.65428 5.36133,-10.37109 z"
         style="font-size:90px;font-weight:bold;text-anchor:middle;fill:#000000;font-family:Arial"
         id="path3005" />
      <path
         d="m 231.4209,232 0,-64.42383 19.46777,0 11.68945,43.94531 11.55762,-43.94531 19.51172,0 0,64.42383 -12.08496,0 0,-50.71289 L 268.77441,232 256.25,232 l -12.74414,-50.71289 0,50.71289 z"
         style="font-size:90px;font-weight:bold;text-anchor:middle;fill:#000000;font-family:Arial"
         id="path3007" />
    </g>
  </g>
</svg>
