<?xml version="1.0" encoding="UTF-8" standalone="no"?>
<!--
Copyright (C) 2012 United States Government as represented by the Administrator of the
National Aeronautics and Space Administration.
All Rights Reserved.
-->

<!--
MIL-STD-2525 tactical symbol icon image. During icon composition this image is multiplied by the desired frame color 
(e.g. black), then drawn on top of the frame and fill.
-->

<svg
   xmlns:dc="http://purl.org/dc/elements/1.1/"
   xmlns:cc="http://creativecommons.org/ns#"
   xmlns:rdf="http://www.w3.org/1999/02/22-rdf-syntax-ns#"
   xmlns:svg="http://www.w3.org/2000/svg"
   xmlns="http://www.w3.org/2000/svg"
   xmlns:sodipodi="http://sodipodi.sourceforge.net/DTD/sodipodi-0.dtd"
   xmlns:inkscape="http://www.inkscape.org/namespaces/inkscape"
   height="400px"
   viewBox="0 0 400 400"
   width="400px"
   id="svg2"
   version="1.1"
   inkscape:version="0.48.2 r9819"
   sodipodi:docname="sngauumrx------.svg">
  <metadata
     id="metadata16">
    <rdf:RDF>
      <cc:Work
         rdf:about="">
        <dc:format>image/svg+xml</dc:format>
        <dc:type
           rdf:resource="http://purl.org/dc/dcmitype/StillImage" />
      </cc:Work>
    </rdf:RDF>
  </metadata>
  <defs
     id="defs14" />
  <sodipodi:namedview
     pagecolor="#ffffff"
     bordercolor="#666666"
     borderopacity="1"
     objecttolerance="10"
     gridtolerance="10"
     guidetolerance="10"
     inkscape:pageopacity="0"
     inkscape:pageshadow="2"
     inkscape:window-width="705"
     inkscape:window-height="480"
     id="namedview12"
     showgrid="false"
     inkscape:zoom="0.59"
     inkscape:cx="200"
     inkscape:cy="200"
     inkscape:window-x="307"
     inkscape:window-y="135"
     inkscape:window-maximized="0"
     inkscape:current-layer="svg2" />
  <g
     transform="matrix(0.9,0,0,0.9,19.999998,90.000008)"
     id="g4"
     style="stroke:#000000;stroke-width:4.44444444;stroke-miterlimit:4;stroke-opacity:1;stroke-dasharray:8.88888889,4.44444444;stroke-dashoffset:0">
    <g
       style="font-size:90px;font-weight:bold;text-anchor:middle;fill:#ffffff;stroke:#000000;stroke-width:4.44444444;stroke-miterlimit:4;stroke-opacity:1;stroke-dasharray:8.88888889,4.44444444;stroke-dashoffset:0;font-family:Arial"
       id="text6">
      <path
         inkscape:connector-curvature="0"
         d="m 156.3623,232 0,-64.42383 19.46778,0 11.68945,43.94531 11.55762,-43.94531 19.51172,0 0,64.42383 -12.08496,0 0,-50.71289 L 193.71582,232 l -12.52441,0 -12.74414,-50.71289 0,50.71289 z"
         style="font-size:90px;font-weight:bold;text-anchor:middle;fill:#ffffff;stroke:#000000;stroke-width:4.44444444;stroke-miterlimit:4;stroke-opacity:1;stroke-dasharray:8.88888889,4.44444444;stroke-dashoffset:0;font-family:Arial"
         id="path2994" />
      <path
         inkscape:connector-curvature="0"
         d="m 231.20117,232 0,-64.42383 13.00781,0 0,64.42383 z"
         style="font-size:90px;font-weight:bold;text-anchor:middle;fill:#ffffff;stroke:#000000;stroke-width:4.44444444;stroke-miterlimit:4;stroke-opacity:1;stroke-dasharray:8.88888889,4.44444444;stroke-dashoffset:0;font-family:Arial"
         id="path2996" />
    </g>
  </g>
  <g
     transform="matrix(0.9,0,0,0.9,21.999998,-19.999996)"
     id="g8"
     style="stroke:#000000;stroke-width:4.44444444;stroke-miterlimit:4;stroke-opacity:1;stroke-dasharray:8.88888889,4.44444444;stroke-dashoffset:0">
    <g
       style="font-size:90px;font-weight:bold;text-anchor:middle;fill:#ffffff;stroke:#000000;stroke-width:4.44444444;stroke-miterlimit:4;stroke-opacity:1;stroke-dasharray:8.88888889,4.44444444;stroke-dashoffset:0;font-family:Arial"
       id="text10">
      <path
         inkscape:connector-curvature="0"
         d="m 133.9502,208.31348 0,-10.8545 28.0371,0 0,25.66407 c -2.72467,2.63672 -6.67242,4.9585 -11.84326,6.96533 -5.17094,2.00683 -10.40775,3.01025 -15.71045,3.01025 -6.73831,0 -12.61233,-1.41357 -17.62207,-4.24072 -5.00978,-2.82714 -8.77442,-6.87011 -11.29394,-12.12891 -2.51954,-5.25876 -3.7793,-10.97897 -3.7793,-17.16064 0,-6.70895 1.40625,-12.67085 4.21875,-17.88574 2.81249,-5.21479 6.9287,-9.21381 12.34863,-11.99707 4.13084,-2.13861 9.27243,-3.20795 15.42481,-3.20801 7.998,6e-5 14.24555,1.67731 18.74267,5.03174 4.49702,3.35455 7.39008,7.99077 8.6792,13.90869 l -12.91992,2.41699 c -0.90825,-3.16401 -2.61479,-5.66157 -5.11963,-7.49267 -2.50492,-1.83101 -5.63236,-2.74653 -9.38232,-2.74659 -5.68363,6e-5 -10.20266,1.80181 -13.55713,5.40528 -3.35451,3.60356 -5.03176,8.95023 -5.03174,16.04004 -2e-5,7.64651 1.6992,13.38136 5.09766,17.20459 3.39841,3.82325 7.85153,5.73487 13.35937,5.73486 2.72457,1e-5 5.4565,-0.53466 8.1958,-1.60401 2.73921,-1.06932 5.09029,-2.3657 7.05323,-3.88916 l 0,-8.17382 z"
         style="font-size:90px;font-weight:bold;text-anchor:middle;fill:#ffffff;stroke:#000000;stroke-width:4.44444444;stroke-miterlimit:4;stroke-opacity:1;stroke-dasharray:8.88888889,4.44444444;stroke-dashoffset:0;font-family:Arial"
         id="path2999" />
      <path
         inkscape:connector-curvature="0"
         d="m 170.64453,211.03809 12.65625,-1.23047 c 0.7617,4.24806 2.30711,7.36818 4.63623,9.36035 2.32908,1.9922 5.47117,2.98829 9.42627,2.98828 4.18942,1e-5 7.34616,-0.88622 9.47022,-2.65869 2.12398,-1.77245 3.18599,-3.8452 3.18603,-6.21826 -4e-5,-1.52342 -0.44682,-2.81981 -1.34033,-3.88916 -0.8936,-1.06932 -2.45365,-1.99949 -4.68018,-2.79053 -1.52347,-0.52732 -4.99515,-1.46482 -10.41504,-2.8125 -6.97267,-1.72849 -11.86524,-3.85251 -14.67773,-6.37207 -3.95509,-3.54488 -5.93262,-7.86617 -5.93262,-12.96387 0,-3.2812 0.93017,-6.35004 2.79053,-9.20654 1.86034,-2.85639 4.541,-5.03168 8.04199,-6.52588 3.50096,-1.49408 7.72703,-2.24115 12.67822,-2.24121 8.08591,6e-5 14.17233,1.77252 18.25928,5.31738 4.08686,3.54498 6.23286,8.27642 6.43799,14.19434 l -13.00781,0.57129 c -0.55668,-3.3105 -1.75053,-5.69087 -3.58154,-7.14112 -1.83109,-1.45014 -4.57767,-2.17523 -8.23975,-2.17529 -3.77932,6e-5 -6.7383,0.77642 -8.87695,2.3291 -1.37698,0.99615 -2.06545,2.32915 -2.06543,3.99903 -2e-5,1.52348 0.64451,2.82719 1.93359,3.91113 1.6406,1.37699 5.62497,2.81254 11.95312,4.30664 6.32809,1.49418 11.00826,3.03959 14.04053,4.63623 3.03218,1.59671 5.40522,3.77933 7.11914,6.54785 1.71382,2.76858 2.57075,6.18899 2.5708,10.26123 -5e-5,3.69142 -1.02544,7.14845 -3.07617,10.3711 -2.05083,3.22266 -4.95122,5.61767 -8.70117,7.18505 -3.75004,1.56739 -8.42289,2.35108 -14.01855,2.35108 -8.14456,0 -14.39943,-1.88233 -18.76465,-5.64697 -4.36524,-3.76464 -6.97266,-9.25048 -7.82227,-16.45752 z"
         style="font-size:90px;font-weight:bold;text-anchor:middle;fill:#ffffff;stroke:#000000;stroke-width:4.44444444;stroke-miterlimit:4;stroke-opacity:1;stroke-dasharray:8.88888889,4.44444444;stroke-dashoffset:0;font-family:Arial"
         id="path3001" />
      <path
         inkscape:connector-curvature="0"
         d="m 233.88184,232 0,-64.42383 19.46777,0 11.68945,43.94531 11.55762,-43.94531 19.51172,0 0,64.42383 -12.08496,0 0,-50.71289 L 271.23535,232 l -12.52441,0 -12.74414,-50.71289 0,50.71289 z"
         style="font-size:90px;font-weight:bold;text-anchor:middle;fill:#ffffff;stroke:#000000;stroke-width:4.44444444;stroke-miterlimit:4;stroke-opacity:1;stroke-dasharray:8.88888889,4.44444444;stroke-dashoffset:0;font-family:Arial"
         id="path3003" />
    </g>
  </g>
</svg>
