<?xml version="1.0"?>
<!--
Copyright (C) 2012 United States Government as represented by the Administrator of the
National Aeronautics and Space Administration.
All Rights Reserved.
-->

<!DOCTYPE svg PUBLIC "-//W3C//DTD SVG 1.1//EN" "http://www.w3.org/Graphics/SVG/1.1/DTD/svg11.dtd" >
<!--
MIL-STD-2525 tactical symbol icon image. During icon composition this image is multiplied by the desired frame color 
(e.g. black), then drawn on top of the frame and fill.
-->
<svg xmlns:xlink="http://www.w3.org/1999/xlink" height="400px" viewBox="0 0 400 400" width="400px"><g transform="translate(147 89) scale(5.5 5.5)"><path d="M19.375 36.25 L19.375 37.625 L0 37.625 L0 36.25 C0 34.121 1.148 32.404 3.445 31.098    C5.309 30.033 7.391 29.5 9.688 29.5 C12.032 29.5 14.161 30.082 16.075 31.242    C17.317 32.015 18.132 32.67 18.514 33.201 C19.039 33.928 19.326 34.945 19.375    36.25 zM18.07 36.25 C18.07 34.508 17.062 33.127 15.047 32.109 C13.461 31.287    11.686 30.875 9.719 30.875 C7.799 30.875 6.047 31.287 4.463 32.109 C2.494    33.127 1.512 34.507 1.512 36.25 zM2.875 7.625 L4.625 7.625 L4.625 21 L2.875    21 zM8.625 14.875 L8.625 12.926 L4.625 12.926 L4.625 14.875 zM10.5 0 L10.5 29.486    L8.625 29.486 L8.625 0.072 C9.18 -0.023 9.805 -0.047 10.5 0 zM14.125 14.875    L14.125 12.926 L10.5 12.926 L10.5 14.875 zM14.125 7.625 L16 7.625 L16 21    L14.125 21 z" style="fill:rgb(255,255,255)"/></g></svg>