<?xml version="1.0"?>
<!--
Copyright (C) 2012 United States Government as represented by the Administrator of the
National Aeronautics and Space Administration.
All Rights Reserved.
-->

<!DOCTYPE svg PUBLIC "-//W3C//DTD SVG 1.1//EN" "http://www.w3.org/Graphics/SVG/1.1/DTD/svg11.dtd" >
<!--
MIL-STD-2525 tactical symbol icon image. During icon composition this image is multiplied by the desired frame color 
(e.g. black), then drawn on top of the frame and fill.
-->
<svg xmlns:xlink="http://www.w3.org/1999/xlink" height="400px" viewBox="0 0 400 400" width="400px"><g transform="translate(155 88) scale(6 5.5)"><path d="M2.053 21.998 C0.684 20.631 0 18.938 0 16.92 C0 15.193 0.648 13.609 1.945 12.168    C3.48 10.537 5.302 9.721 7.416 9.721 C9.287 9.721 10.824 10.25 12.025 11.305    C13.511 12.602 14.255 14.473 14.255 16.92 C14.255 18.938 13.569 20.631 12.202    21.998 C10.835 23.365 9.143 24.049 7.128 24.049 C5.113 24.049 3.42 23.365 2.053    21.998 zM11.34 20.988 C12.469 19.861 13.033 18.482 13.033 16.849 C13.033    15.216 12.469 13.837 11.34 12.708 C10.211 11.581 8.832 11.017 7.201 11.017 C5.568    11.017 4.187 11.581 3.06 12.708 C1.931 13.837 1.369 15.216 1.369 16.849    C1.369 18.482 1.932 19.861 3.06 20.988 C4.187 22.117 5.568 22.679 7.201 22.679    C8.832 22.68 10.211 22.117 11.34 20.988 zM7.488 0 L2.016 5.617 L3.385 6.984    L6.48 3.961 L6.48 9.721 L8.423 9.649 L8.423 3.889 L11.376 6.985 L13.032 5.546    zM2.305 28.441 L2.305 26.423 L6.336 26.423 L6.336 28.441 zM2.305 32.76 L2.305    30.744 L6.336 30.744 L6.336 32.76 zM6.408 22.609 L8.351 22.609 L8.423 11.088    L6.408 11.088 zM6.408 41.76 L8.424 41.76 L8.424 24.049 L6.408 24.049 zM8.281    28.512 L8.281 26.424 L12.385 26.354 L12.385 28.442 zM8.281 32.832 L8.281 30.744    L12.385 30.672 L12.385 32.76 z" style="fill:rgb(255,255,255)"/></g></svg>