<?xml version="1.0"?>
<!--
Copyright (C) 2012 United States Government as represented by the Administrator of the
National Aeronautics and Space Administration.
All Rights Reserved.
-->

<!DOCTYPE svg PUBLIC "-//W3C//DTD SVG 1.1//EN" "http://www.w3.org/Graphics/SVG/1.1/DTD/svg11.dtd" >
<!--
MIL-STD-2525 tactical symbol icon image. During icon composition this image is multiplied by the desired frame color 
(e.g. black), then drawn on top of the frame and fill.
-->
<svg xmlns:xlink="http://www.w3.org/1999/xlink" height="400px" viewBox="0 0 400 400" width="400px"><path d="M200 175 C90 195 90 210 200 243 C320 200 320 210 200 175" style="fill:none;stroke:rgb(255,255,255);stroke-width:20"/><path d="M100 205 C200 180 200 180 280 190" style="fill:none;stroke:rgb(255,255,255);stroke-width:15"/><path d="M105 225 C180 267 200 267 298 230" style="fill:none;stroke:rgb(255,255,255);stroke-width:20" transform="translate(0 0)"/><g transform="translate(100 120) scale(6 6)"><path d="M17.855 4.32 C17.855 4.465 17.855 4.633 17.855 4.824 L16.631 5.4 C17.014 5.978 17.399      6.722 17.783 7.632 C20.088 7.777 22.39 8.04 24.695 8.423 C29.687 9.193      32.566 10.8 33.336 13.247 C33.383 13.345 33.408 14.304 33.408 16.128 C33.408      16.177 33.408 16.333 33.408 16.597 C33.408 16.861 33.408 17.113 33.408 17.353      C33.455 18.121 33.429 18.697 33.336 19.08 C33.191 19.801 32.688 20.473 31.824      21.098 C30.623 22.059 29.47 22.682 28.367 22.969 C27.791 23.114 25.631      23.547 21.887 24.266 C20.782 24.457 19.078 24.553 16.776 24.553 C14.28 24.553      11.159 24.217 7.417 23.545 C6.937 23.449 6.192 23.258 5.185 22.969 C2.208      21.961 0.503 20.617 0.074 18.938 C0.023 18.648 0 18.121 0 17.354 C0 17.163 0.023      16.922 0.072 16.633 C0.072 16.346 0.072 16.19 0.072 16.166 C0.072 16.142      0.072 15.986 0.072 15.697 C0.023 15.41 0 15.17 0 14.977 C-0.049 14.209 -0.002      13.682 0.143 13.393 C0.862 11.233 2.998 9.745 6.551 8.928 C6.983 8.834 7.608      8.713 8.424 8.569 C11.543 7.995 13.631 7.706 14.688 7.706 C15.168 6.747      15.432 5.931 15.479 5.257 L9.215 7.92 C8.398 7.777 7.68 7.346 7.055 6.625 L14.688      3.457 C14.833 3.41 14.952 3.338 15.047 3.24 L15.336 3.025 C15.238 2.929      15.119 2.834 14.975 2.736 L14.975 2.018 L15.623 2.018 C15.67 1.778 15.695      1.202 15.695 0.289 C15.982 0.387 16.39 0.529 16.92 0.721 C16.92 0.77 16.92      1.323 16.92 2.377 L23.039 0 C23.471 0.193 24.166 0.553 25.127 1.08 C24.646 1.322      22.223 2.402 17.855 4.32 zM32.688 16.057 C30.094 19.08 24.766 20.592 16.704      20.592 C8.735 20.592 3.407 19.057 0.72 15.985 C0.72 16.321 0.695 16.766      0.648 17.317 C0.601 17.87 0.578 18.194 0.578 18.29 C0.578 18.53 0.877 18.999      1.476 19.694 C2.075 20.389 2.519 20.835 2.808 21.026 C3.912 21.651 4.824 22.083      5.544 22.321 C6.071 22.466 6.815 22.659 7.776 22.897 L13.464 23.905 C13.56      23.905 14.663 23.905 16.777 23.905 C18.648 23.905 19.488 23.905 19.297      23.905 C19.969 23.858 21.217 23.665 23.041 23.329 C24.193 23.138 25.85 22.802      28.01 22.321 C29.162 21.985 30.254 21.397 31.285 20.557 C32.316 19.717 32.834      18.961 32.834 18.289 C32.834 18.002 32.809 17.617 32.762 17.137 C32.711      16.656 32.688 16.297 32.688 16.057 zM26.566 9.576 C25.894 9.433 24.574 9.193      22.607 8.857 C20.255 8.474 18.791 8.281 18.214 8.281 L18.142 8.281 C18.382      8.761 18.527 9.097 18.576 9.289 C18.814 9.338 19.75 9.506 21.383 9.793 C22.871      9.984 24.071 10.225 24.983 10.512 C27.288 11.282 28.44 12.385 28.44 13.825      C28.44 15.698 26.59 16.995 22.895 17.714 C20.975 18.099 18.936 18.29 16.776      18.29 C15.528 18.29 14.424 18.231 13.463 18.11 C12.502 17.989 11.184 17.76      9.504 17.424 C9.168 17.233 8.676 17.029 8.027 16.813 C7.379 16.598 6.754 16.167      6.154 15.518 C5.554 14.869 5.256 14.305 5.256 13.825 C5.256 12.481 6.479      11.378 8.928 10.512 C10.51 9.938 12.334 9.553 14.399 9.362 C14.446 9.122 14.518      8.809 14.616 8.424 L13.32 8.424 C13.656 8.424 12.886 8.569 11.015 8.858      C9.143 9.146 7.762 9.373 6.875 9.541 C5.986 9.709 4.846 10.201 3.455 11.018      C1.631 12.075 0.719 13.131 0.719 14.186 C0.719 15.53 2.063 16.754 4.752 17.858      C6.623 18.674 7.967 19.106 8.783 19.153 C8.974 19.202 10.127 19.37 12.24      19.657 C13.631 19.85 15.119 19.946 16.703 19.946 C19.822 19.946 22.871 19.61      25.848 18.938 C26.903 18.698 28.127 18.217 29.52 17.497 C31.68 16.442 32.76      15.313 32.76 14.114 C32.76 13.202 31.99 12.241 30.455 11.233 C29.158 10.369      27.863 9.818 26.566 9.576 zM5.904 13.824 C5.904 13.922 6.047 14.137 6.336      14.472 C7.391 13.562 9.791 12.722 13.535 11.952 C13.68 11.472 13.894 10.776      14.183 9.864 L14.328 10.007 C8.711 10.969 5.904 12.242 5.904 13.824 zM12.814      12.744 C12.334 12.744 11.087 13.08 9.072 13.752 C8.158 14.041 7.39 14.498      6.767 15.121 C8.013 16.082 9.79 16.777 12.095 17.209 L13.32 12.744 zM14.76 4.248      L8.424 6.84 C8.856 7.129 9.096 7.274 9.143 7.274 C9.239 7.274 11.303 6.338      15.336 4.465 zM19.367 12.816 C18.023 12.625 16.726 12.529 15.478 12.529      C14.23 12.529 13.775 12.554 14.111 12.601 L12.814 17.423 C12.861 17.423 13.39      17.495 14.398 17.64 C14.543 17.64 15.334 17.64 16.775 17.64 C18.359 17.64      19.943 17.497 21.527 17.208 C21.047 16.154 20.326 14.689 19.367 12.816 zM16.344      10.873 C16.344 10.441 16.344 10.129 16.344 9.937 L15.336 10.007 C15.143      10.007 14.998 10.007 14.904 10.007 C14.759 10.632 14.59 11.257 14.398 11.88      C15.117 11.833 15.765 11.857 16.343 11.952 C16.344 11.666 16.344 11.307 16.344      10.873 zM15.982 8.281 L15.408 8.281 C15.359 8.472 15.31 8.666 15.263 8.857      L15.118 9.289 C15.55 9.242 15.886 9.217 16.126 9.217 C16.078 8.834 16.029      8.521 15.982 8.281 zM15.84 6.77 C15.791 7.01 15.695 7.297 15.551 7.633 L15.912      7.633 L15.982 7.561 C15.936 7.416 15.887 7.152 15.84 6.77 zM16.488 3.744      C16.343 3.793 16.199 3.865 16.054 3.961 L16.126 3.961 L16.343 4.106 C16.486      4.202 16.63 4.321 16.775 4.465 L16.847 4.465 C16.703 4.178 16.582 3.938 16.488      3.744 zM16.631 7.129 C16.535 6.891 16.391 6.555 16.199 6.121 L16.488 6.049      C16.488 6.098 16.5 6.17 16.523 6.266 C16.546 6.362 16.582 6.602 16.63 6.985      L16.63 7.129 zM16.631 7.129 C16.678 7.32 16.678 7.488 16.631 7.633 L16.848      7.633 zM17.279 8.354 L16.775 8.354 C16.822 8.545 16.847 8.809 16.847 9.145      L17.71 9.145 C17.52 8.906 17.375 8.643 17.279 8.354 zM23.471 1.008 C23.28 0.914      23.135 0.865 23.039 0.865 C22.799 0.865 20.807 1.681 17.062 3.312 L17.207      3.529 L17.279 3.672 L17.351 3.744 L23.615 1.008 zM17.711 9.865 L17.135 9.865      C17.039 10.728 17.039 11.426 17.135 11.953 C17.854 11.953 18.479 11.978 19.008      12.025 C18.43 10.586 17.998 9.865 17.711 9.865 zM24.551 11.232 C24.455      11.185 23.303 10.921 21.096 10.441 L19.223 10.007 L18.864 10.007 L19.944 12.097      C23.399 12.337 25.919 13.128 27.505 14.472 C27.696 14.185 27.792 13.968      27.792 13.824 C27.791 12.816 26.711 11.953 24.551 11.232 zM20.23 12.816 C20.421      13.105 21.119 14.496 22.32 16.992 C23.951 16.945 25.535 16.32 27.072 15.121      C25.871 14.018 23.59 13.25 20.23 12.816 z" style="fill:rgb(255,255,255);stroke:rgb(0,0,0);stroke-width:1"/></g></svg>