<?xml version="1.0" encoding="UTF-8" standalone="no"?>
<!--
Copyright (C) 2012 United States Government as represented by the Administrator of the
National Aeronautics and Space Administration.
All Rights Reserved.
-->

<!--
MIL-STD-2525 tactical symbol icon image. During icon composition this image is multiplied by the desired frame color 
(e.g. black), then drawn on top of the frame and fill.
-->

<svg
   xmlns:dc="http://purl.org/dc/elements/1.1/"
   xmlns:cc="http://creativecommons.org/ns#"
   xmlns:rdf="http://www.w3.org/1999/02/22-rdf-syntax-ns#"
   xmlns:svg="http://www.w3.org/2000/svg"
   xmlns="http://www.w3.org/2000/svg"
   xmlns:sodipodi="http://sodipodi.sourceforge.net/DTD/sodipodi-0.dtd"
   xmlns:inkscape="http://www.inkscape.org/namespaces/inkscape"
   height="400px"
   viewBox="0 0 400 400"
   width="400px"
   id="svg2"
   version="1.1"
   inkscape:version="0.48.2 r9819"
   sodipodi:docname="snsacals-------.svg">
  <metadata
     id="metadata10">
    <rdf:RDF>
      <cc:Work
         rdf:about="">
        <dc:format>image/svg+xml</dc:format>
        <dc:type
           rdf:resource="http://purl.org/dc/dcmitype/StillImage" />
      </cc:Work>
    </rdf:RDF>
  </metadata>
  <defs
     id="defs8" />
  <sodipodi:namedview
     pagecolor="#ffffff"
     bordercolor="#666666"
     borderopacity="1"
     objecttolerance="10"
     gridtolerance="10"
     guidetolerance="10"
     inkscape:pageopacity="0"
     inkscape:pageshadow="2"
     inkscape:window-width="705"
     inkscape:window-height="480"
     id="namedview6"
     showgrid="false"
     inkscape:zoom="0.59"
     inkscape:cx="200"
     inkscape:cy="200"
     inkscape:window-x="125"
     inkscape:window-y="80"
     inkscape:window-maximized="0"
     inkscape:current-layer="svg2" />
  <g
     style="font-size:140px;font-weight:bold;text-anchor:middle;fill:#ffffff;font-family:Arial;stroke:#000000;stroke-opacity:1;stroke-width:6;stroke-miterlimit:4;stroke-dasharray:12,6;stroke-dashoffset:0"
     id="text4">
    <path
       d="m 121.18164,250 0,-99.39453 20.23438,0 0,82.50976 50.3125,0 0,16.88477 z"
       style="font-size:140px;font-weight:bold;text-anchor:middle;fill:#ffffff;font-family:Arial;stroke:#000000;stroke-opacity:1;stroke-width:6;stroke-miterlimit:4;stroke-dasharray:12,6;stroke-dashoffset:0"
       id="path2988" />
    <path
       d="m 201.09375,217.39258 19.6875,-1.91406 c 1.18487,6.6081 3.58884,11.46161 7.21191,14.56054 3.62302,3.09898 8.51071,4.64846 14.66309,4.64844 6.51687,2e-5 11.42735,-1.37856 14.73145,-4.13574 3.30397,-2.75714 4.95598,-5.98142 4.95605,-9.67285 -7e-5,-2.36976 -0.69505,-4.38636 -2.08496,-6.04981 -1.39004,-1.66337 -3.81679,-3.11031 -7.28027,-4.34082 -2.36985,-0.82027 -7.77024,-2.2786 -16.20118,-4.375 -10.84638,-2.68875 -18.45705,-5.99279 -22.83203,-9.91211 -6.15235,-5.51426 -9.22852,-12.23626 -9.22851,-20.16601 -1e-5,-5.10409 1.44693,-9.87785 4.34082,-14.32129 2.89386,-4.44327 7.06378,-7.82706 12.50976,-10.15137 5.44594,-2.32412 12.01982,-3.48623 19.72168,-3.48633 12.57807,1e-4 22.04583,2.75726 28.40332,8.27149 6.35734,5.51441 9.69556,12.87443 10.01465,22.08007 l -20.23437,0.88868 c -0.86595,-5.14967 -2.72305,-8.85246 -5.57129,-11.1084 -2.84837,-2.25578 -7.12082,-3.38371 -12.81739,-3.38379 -5.87894,8e-5 -10.4818,1.20777 -13.80859,3.62305 -2.14196,1.54955 -3.21292,3.62312 -3.21289,6.2207 -3e-5,2.36986 1.00258,4.39786 3.00781,6.08398 2.55205,2.142 8.74996,4.37507 18.59375,6.69922 9.84369,2.32428 17.12396,4.72825 21.84082,7.21192 4.71672,2.48377 8.40813,5.87895 11.07422,10.18554 2.66593,4.30668 3.99894,9.62732 3.99902,15.96192 -8e-5,5.74221 -1.59513,11.11981 -4.78515,16.13281 -3.19018,5.01303 -7.7019,8.73861 -13.53516,11.17676 -5.83339,2.43815 -13.10227,3.65722 -21.80664,3.65722 -12.6693,0 -22.39911,-2.92805 -29.18945,-8.78418 -6.79038,-5.8561 -10.84636,-14.38962 -12.16797,-25.60058 z"
       style="font-size:140px;font-weight:bold;text-anchor:middle;fill:#ffffff;font-family:Arial;stroke:#000000;stroke-opacity:1;stroke-width:6;stroke-miterlimit:4;stroke-dasharray:12,6;stroke-dashoffset:0"
       id="path2990" />
  </g>
</svg>
