<?xml version="1.0" encoding="UTF-8" standalone="no"?>
<!--
Copyright (C) 2012 United States Government as represented by the Administrator of the
National Aeronautics and Space Administration.
All Rights Reserved.
-->

<!--
MIL-STD-2525 tactical symbol icon image. During icon composition this image is multiplied by the desired frame color 
(e.g. black), then drawn on top of the frame and fill.
-->

<svg
   xmlns:dc="http://purl.org/dc/elements/1.1/"
   xmlns:cc="http://creativecommons.org/ns#"
   xmlns:rdf="http://www.w3.org/1999/02/22-rdf-syntax-ns#"
   xmlns:svg="http://www.w3.org/2000/svg"
   xmlns="http://www.w3.org/2000/svg"
   xmlns:sodipodi="http://sodipodi.sourceforge.net/DTD/sodipodi-0.dtd"
   xmlns:inkscape="http://www.inkscape.org/namespaces/inkscape"
   height="400px"
   viewBox="0 0 400 400"
   width="400px"
   id="svg2"
   version="1.1"
   inkscape:version="0.48.2 r9819"
   sodipodi:docname="snsanr---------.svg">
  <metadata
     id="metadata10">
    <rdf:RDF>
      <cc:Work
         rdf:about="">
        <dc:format>image/svg+xml</dc:format>
        <dc:type
           rdf:resource="http://purl.org/dc/dcmitype/StillImage" />
      </cc:Work>
    </rdf:RDF>
  </metadata>
  <defs
     id="defs8" />
  <sodipodi:namedview
     pagecolor="#ffffff"
     bordercolor="#666666"
     borderopacity="1"
     objecttolerance="10"
     gridtolerance="10"
     guidetolerance="10"
     inkscape:pageopacity="0"
     inkscape:pageshadow="2"
     inkscape:window-width="705"
     inkscape:window-height="480"
     id="namedview6"
     showgrid="false"
     inkscape:zoom="0.59"
     inkscape:cx="200"
     inkscape:cy="200"
     inkscape:window-x="187"
     inkscape:window-y="91"
     inkscape:window-maximized="0"
     inkscape:current-layer="svg2" />
  <g
     style="font-size:140px;font-weight:bold;text-anchor:middle;fill:#ffffff;font-family:Arial;stroke:#000000;stroke-opacity:1;stroke-width:6;stroke-miterlimit:4;stroke-dasharray:12,6;stroke-dashoffset:0"
     id="text4">
    <path
       d="m 199.38477,250 -22.01172,0 -8.75,-22.76367 -40.0586,0 -8.27148,22.76367 -21.464845,0 39.033205,-100.21484 21.39648,0 z m -37.25586,-39.64844 -13.8086,-37.1875 -13.53515,37.1875 z"
       style="font-size:140px;font-weight:bold;text-anchor:middle;fill:#ffffff;font-family:Arial;stroke:#000000;stroke-opacity:1;stroke-width:6;stroke-miterlimit:4;stroke-dasharray:12,6;stroke-dashoffset:0"
       id="path2988" />
    <path
       d="m 210.25391,250 0,-100.21484 42.58789,0 c 10.70957,1e-4 18.49114,0.90016 23.34472,2.70019 4.85344,1.80023 8.73853,5.00172 11.65528,9.60449 2.91657,4.60295 4.3749,9.86662 4.375,15.79102 -10e-5,7.5196 -2.21038,13.7289 -6.63086,18.62793 -4.42066,4.89914 -11.02872,7.9867 -19.82422,9.26269 4.37493,2.55213 7.98658,5.35486 10.83496,8.40821 2.84823,3.05342 6.68774,8.47659 11.51855,16.26953 L 300.35156,250 l -24.19922,0 -14.6289,-21.80664 c -5.19537,-7.79294 -8.75006,-12.70342 -10.66407,-14.73145 -1.91411,-2.02795 -3.9421,-3.41792 -6.08398,-4.16992 -2.14197,-0.75191 -5.53715,-1.12789 -10.18555,-1.12793 l -4.10156,0 0,41.83594 z m 20.23437,-57.83203 14.9707,0 c 9.70698,6e-5 15.76817,-0.4101 18.1836,-1.23047 2.4153,-0.82025 4.30657,-2.23301 5.67383,-4.23828 1.36711,-2.00514 2.05071,-4.51165 2.05078,-7.51953 -7e-5,-3.37232 -0.90014,-6.0953 -2.7002,-8.16895 -1.80019,-2.07348 -4.34088,-3.3837 -7.62207,-3.93066 -1.64068,-0.22778 -6.56255,-0.34172 -14.76562,-0.3418 l -15.79102,0 z"
       style="font-size:140px;font-weight:bold;text-anchor:middle;fill:#ffffff;font-family:Arial;stroke:#000000;stroke-opacity:1;stroke-width:6;stroke-miterlimit:4;stroke-dasharray:12,6;stroke-dashoffset:0"
       id="path2990" />
  </g>
</svg>
