<?xml version="1.0" encoding="UTF-8" standalone="no"?>
<!--
Copyright (C) 2012 United States Government as represented by the Administrator of the
National Aeronautics and Space Administration.
All Rights Reserved.
-->

<!--
MIL-STD-2525 tactical symbol icon image. During icon composition this image is multiplied by the desired frame color 
(e.g. black), then drawn on top of the frame and fill.
-->

<svg
   xmlns:dc="http://purl.org/dc/elements/1.1/"
   xmlns:cc="http://creativecommons.org/ns#"
   xmlns:rdf="http://www.w3.org/1999/02/22-rdf-syntax-ns#"
   xmlns:svg="http://www.w3.org/2000/svg"
   xmlns="http://www.w3.org/2000/svg"
   xmlns:sodipodi="http://sodipodi.sourceforge.net/DTD/sodipodi-0.dtd"
   xmlns:inkscape="http://www.inkscape.org/namespaces/inkscape"
   height="400px"
   viewBox="0 0 400 400"
   width="400px"
   id="svg2"
   version="1.1"
   inkscape:version="0.48.2 r9819"
   sodipodi:docname="sugauuscl------.svg">
  <metadata
     id="metadata18">
    <rdf:RDF>
      <cc:Work
         rdf:about="">
        <dc:format>image/svg+xml</dc:format>
        <dc:type
           rdf:resource="http://purl.org/dc/dcmitype/StillImage" />
      </cc:Work>
    </rdf:RDF>
  </metadata>
  <defs
     id="defs16" />
  <sodipodi:namedview
     pagecolor="#ffffff"
     bordercolor="#666666"
     borderopacity="1"
     objecttolerance="10"
     gridtolerance="10"
     guidetolerance="10"
     inkscape:pageopacity="0"
     inkscape:pageshadow="2"
     inkscape:window-width="640"
     inkscape:window-height="480"
     id="namedview14"
     showgrid="false"
     inkscape:zoom="0.59"
     inkscape:cx="200"
     inkscape:cy="200"
     inkscape:window-x="0"
     inkscape:window-y="0"
     inkscape:window-maximized="0"
     inkscape:current-layer="svg2" />
  <polyline
     points="80,121 200,220 200,180 320,279"
     style="fill:none;stroke:rgb(255,255,255);stroke-width:10;stroke-dasharray:10"
     id="polyline4" />
  <g
     transform="translate(85 3) scale(0.7 0.7)"
     id="g6">
    <g
       style="font-size:65px;font-weight:bold;text-anchor:middle;fill:#ffffff;font-family:Arial"
       id="text8">
      <path
         d="m 116.43311,223 0,-46.14746 9.39453,0 0,38.3081 23.35937,0 0,7.83936 z"
         style="font-size:65px;font-weight:bold;text-anchor:middle;fill:#ffffff;font-family:Arial"
         id="path2996" />
      <path
         d="m 185.68604,205.89307 9.10888,2.88818 c -1.39652,5.07813 -3.71871,8.8497 -6.96655,11.3147 -3.24792,2.465 -7.3686,3.69751 -12.36206,3.69751 -6.1784,0 -11.25652,-2.1106 -15.23438,-6.33179 -3.97787,-4.22118 -5.9668,-9.99225 -5.96679,-17.31323 -1e-5,-7.74411 1.9995,-13.75851 5.99853,-18.04322 3.99901,-4.28462 9.25698,-6.42695 15.77393,-6.427 5.6917,5e-5 10.3149,1.68218 13.86963,5.04639 2.11584,1.98897 3.70275,4.84541 4.76074,8.56934 l -9.29932,2.22167 c -0.55016,-2.41207 -1.69803,-4.31637 -3.4436,-5.71289 -1.74564,-1.39644 -3.86681,-2.09468 -6.36353,-2.09472 -3.44891,4e-5 -6.24717,1.23783 -8.39477,3.71338 -2.14764,2.47562 -3.22145,6.48521 -3.22144,12.02881 -1e-5,5.88217 1.05793,10.07162 3.17383,12.56835 2.11587,2.49676 4.86652,3.74513 8.25195,3.74512 2.49672,1e-5 4.64434,-0.79345 6.44287,-2.38037 1.79848,-1.5869 3.08916,-4.08364 3.87208,-7.49023 z"
         style="font-size:65px;font-weight:bold;text-anchor:middle;fill:#ffffff;font-family:Arial"
         id="path2998" />
      <path
         d="m 232.65869,205.89307 9.10889,2.88818 c -1.39653,5.07813 -3.71871,8.8497 -6.96655,11.3147 -3.24792,2.465 -7.3686,3.69751 -12.36207,3.69751 -6.1784,0 -11.25652,-2.1106 -15.23437,-6.33179 -3.97787,-4.22118 -5.9668,-9.99225 -5.9668,-17.31323 0,-7.74411 1.99951,-13.75851 5.99854,-18.04322 3.99901,-4.28462 9.25698,-6.42695 15.77392,-6.427 5.69171,5e-5 10.31491,1.68218 13.86963,5.04639 2.11585,1.98897 3.70276,4.84541 4.76074,8.56934 l -9.29931,2.22167 c -0.55017,-2.41207 -1.69803,-4.31637 -3.4436,-5.71289 -1.74564,-1.39644 -3.86681,-2.09468 -6.36353,-2.09472 -3.44891,4e-5 -6.24717,1.23783 -8.39478,3.71338 -2.14763,2.47562 -3.22144,6.48521 -3.22143,12.02881 -1e-5,5.88217 1.05793,10.07162 3.17383,12.56835 2.11586,2.49676 4.86651,3.74513 8.25195,3.74512 2.49672,1e-5 4.64434,-0.79345 6.44287,-2.38037 1.79847,-1.5869 3.08916,-4.08364 3.87207,-7.49023 z"
         style="font-size:65px;font-weight:bold;text-anchor:middle;fill:#ffffff;font-family:Arial"
         id="path3000" />
      <path
         d="m 249.86084,223 0,-46.52832 15.07568,0 c 5.71287,5e-5 9.43682,0.23279 11.17188,0.69824 2.66598,0.69829 4.89824,2.21644 6.69678,4.55445 1.79846,2.33809 2.69771,5.35851 2.69775,9.06127 -4e-5,2.85648 -0.51843,5.25801 -1.55518,7.20459 -1.03682,1.94664 -2.35396,3.47537 -3.95141,4.58619 -1.59753,1.11086 -3.22147,1.84612 -4.87183,2.20581 -2.24286,0.44435 -5.49075,0.66652 -9.74365,0.6665 l -6.12549,0 0,17.55127 z m 9.39453,-38.65723 0,13.20313 5.1416,0 c 3.70278,2e-5 6.17836,-0.2433 7.42676,-0.72998 1.24834,-0.48663 2.22694,-1.24835 2.93579,-2.28516 0.70879,-1.03675 1.0632,-2.24281 1.06323,-3.61816 -3e-5,-1.69268 -0.49726,-3.08916 -1.4917,-4.18946 -0.99449,-1.10022 -2.25344,-1.78788 -3.77685,-2.06298 -1.12144,-0.21155 -3.37486,-0.31735 -6.76025,-0.31739 z"
         style="font-size:65px;font-weight:bold;text-anchor:middle;fill:#ffffff;font-family:Arial"
         id="path3002" />
    </g>
  </g>
  <g
     transform="translate(40 70) scale(0.8 0.8)"
     id="g10">
    <path
       d="M120 270 C120 230 200 230 200 270 C200 230 280 230 280 270"
       style="fill:none;stroke:rgb(255,255,255);stroke-width:10;stroke-dasharray:10"
       id="path12" />
  </g>
</svg>
