<?xml version="1.0" encoding="UTF-8" standalone="no"?>
<!--
Copyright (C) 2012 United States Government as represented by the Administrator of the
National Aeronautics and Space Administration.
All Rights Reserved.
-->

<!--
MIL-STD-2525 tactical symbol icon image. During icon composition this image is multiplied by the desired frame color 
(e.g. black), then drawn on top of the frame and fill.
-->

<svg
   xmlns:dc="http://purl.org/dc/elements/1.1/"
   xmlns:cc="http://creativecommons.org/ns#"
   xmlns:rdf="http://www.w3.org/1999/02/22-rdf-syntax-ns#"
   xmlns:svg="http://www.w3.org/2000/svg"
   xmlns="http://www.w3.org/2000/svg"
   xmlns:sodipodi="http://sodipodi.sourceforge.net/DTD/sodipodi-0.dtd"
   xmlns:inkscape="http://www.inkscape.org/namespaces/inkscape"
   height="400px"
   viewBox="0 0 400 400"
   width="400px"
   id="svg2"
   version="1.1"
   inkscape:version="0.48.2 r9819"
   sodipodi:docname="susanh---------.svg">
  <metadata
     id="metadata12">
    <rdf:RDF>
      <cc:Work
         rdf:about="">
        <dc:format>image/svg+xml</dc:format>
        <dc:type
           rdf:resource="http://purl.org/dc/dcmitype/StillImage" />
      </cc:Work>
    </rdf:RDF>
  </metadata>
  <defs
     id="defs10" />
  <sodipodi:namedview
     pagecolor="#ffffff"
     bordercolor="#666666"
     borderopacity="1"
     objecttolerance="10"
     gridtolerance="10"
     guidetolerance="10"
     inkscape:pageopacity="0"
     inkscape:pageshadow="2"
     inkscape:window-width="705"
     inkscape:window-height="480"
     id="namedview8"
     showgrid="false"
     inkscape:zoom="0.59"
     inkscape:cx="200"
     inkscape:cy="200"
     inkscape:window-x="153"
     inkscape:window-y="84"
     inkscape:window-maximized="0"
     inkscape:current-layer="svg2" />
  <polygon
     points="310,200 280,265 120,265 90,200 110,200 110,145 120,175 280,175 290,145 290,200"
     style="fill:rgb(0, 0, 0);stroke:rgb(0, 0, 0);stroke-width:6;stroke-miterlimit:4;stroke-dasharray:12,6;stroke-dashoffset:0"
     id="polygon4" />
  <g
     transform="matrix(1 0 0 1 0 0)"
     style="font-size:60px;fill:#ffffff;stroke:none;font-family:Arial"
     id="text6">
    <path
       d="m 159.57031,250 0,-42.94922 5.83008,0 22.55859,33.7207 0,-33.7207 5.44922,0 0,42.94922 -5.83008,0 -22.55859,-33.75 0,33.75 z"
       style="font-size:60px;fill:#ffffff;stroke:none;font-family:Arial"
       id="path3758" />
    <path
       d="m 233.63281,234.94141 5.6836,1.43554 c -1.19145,4.66798 -3.335,8.22755 -6.43067,10.67871 -3.09573,2.45118 -6.87991,3.67676 -11.35254,3.67676 -4.62892,0 -8.39357,-0.94238 -11.29394,-2.82715 -2.9004,-1.88476 -5.10743,-4.61425 -6.6211,-8.18847 -1.51367,-3.57421 -2.27051,-7.41209 -2.2705,-11.51368 -1e-5,-4.47262 0.85448,-8.37399 2.56347,-11.7041 1.70898,-3.33004 4.14062,-5.85933 7.29492,-7.58789 3.15429,-1.72847 6.62596,-2.59273 10.41504,-2.59277 4.29685,4e-5 7.91013,1.09379 10.83985,3.28125 2.92965,2.18754 4.97066,5.26371 6.12304,9.22851 l -5.5957,1.31836 c -0.99613,-3.12496 -2.44144,-5.40035 -4.33594,-6.82617 -1.89456,-1.42574 -4.27737,-2.13863 -7.14843,-2.13867 -3.3008,4e-5 -6.05959,0.79105 -8.27637,2.37305 -2.21681,1.58206 -3.77443,3.70608 -4.67285,6.37207 -0.89845,2.66604 -1.34767,5.41506 -1.34766,8.24707 -1e-5,3.65236 0.53222,6.84083 1.59668,9.56543 1.06444,2.72462 2.71971,4.76075 4.96582,6.1084 2.24608,1.34766 4.67772,2.02148 7.29492,2.02148 3.18357,0 5.87888,-0.91796 8.08594,-2.75391 2.207,-1.83592 3.70114,-4.56053 4.48242,-8.17382 z"
       style="font-size:60px;fill:#ffffff;stroke:none;font-family:Arial"
       id="path3760" />
  </g>
</svg>
