<?xml version="1.0" encoding="UTF-8" standalone="no"?>
<!--
Copyright (C) 2012 United States Government as represented by the Administrator of the
National Aeronautics and Space Administration.
All Rights Reserved.
-->

<!--
MIL-STD-2525 tactical symbol icon image. During icon composition this image is multiplied by the desired frame color 
(e.g. black), then drawn on top of the frame and fill.
-->

<svg
   xmlns:dc="http://purl.org/dc/elements/1.1/"
   xmlns:cc="http://creativecommons.org/ns#"
   xmlns:rdf="http://www.w3.org/1999/02/22-rdf-syntax-ns#"
   xmlns:svg="http://www.w3.org/2000/svg"
   xmlns="http://www.w3.org/2000/svg"
   xmlns:sodipodi="http://sodipodi.sourceforge.net/DTD/sodipodi-0.dtd"
   xmlns:inkscape="http://www.inkscape.org/namespaces/inkscape"
   height="400px"
   viewBox="0 0 400 400"
   width="400px"
   id="svg2"
   version="1.1"
   inkscape:version="0.48.2 r9819"
   sodipodi:docname="susagg---------.svg">
  <metadata
     id="metadata16">
    <rdf:RDF>
      <cc:Work
         rdf:about="">
        <dc:format>image/svg+xml</dc:format>
        <dc:type
           rdf:resource="http://purl.org/dc/dcmitype/StillImage" />
      </cc:Work>
    </rdf:RDF>
  </metadata>
  <defs
     id="defs14" />
  <sodipodi:namedview
     pagecolor="#ffffff"
     bordercolor="#666666"
     borderopacity="1"
     objecttolerance="10"
     gridtolerance="10"
     guidetolerance="10"
     inkscape:pageopacity="0"
     inkscape:pageshadow="2"
     inkscape:window-width="705"
     inkscape:window-height="423"
     id="namedview12"
     showgrid="false"
     inkscape:zoom="0.59"
     inkscape:cx="197.47215"
     inkscape:cy="200"
     inkscape:window-x="110"
     inkscape:window-y="145"
     inkscape:window-maximized="0"
     inkscape:current-layer="svg2" />
  <polyline
     points="120,255 120,165 181,105"
     style="fill:none;stroke:#ffffff;stroke-width:5;stroke-miterlimit:4;stroke-dasharray:10, 5;stroke-dashoffset:0"
     id="polyline6" />
  <polyline
     points="280,255 280,165 219,105"
     style="fill:none;stroke:#ffffff;stroke-width:5;stroke-miterlimit:4;stroke-dasharray:10, 5;stroke-dashoffset:0"
     id="polyline8" />
  <g
     style="font-size:60px;fill:#ffffff;stroke:none;font-family:Arial"
     id="text10">
    <path
       inkscape:connector-curvature="0"
       d="m 175.55664,310 0,-37.88086 -14.15039,0 0,-5.06836 34.04297,0 0,5.06836 -14.20899,0 0,37.88086 z"
       style="font-size:60px;fill:#ffffff;stroke:none;font-family:Arial"
       id="path2993" />
    <path
       inkscape:connector-curvature="0"
       d="m 221.40625,293.1543 0,-5.03907 18.19336,-0.0293 0,15.9375 c -2.79301,2.22656 -5.67387,3.90137 -8.64258,5.02441 -2.96878,1.12305 -6.01565,1.68457 -9.14062,1.68457 -4.21877,0 -8.05178,-0.90332 -11.49903,-2.70996 -3.44727,-1.80664 -6.04981,-4.41894 -7.80761,-7.83691 -1.75782,-3.41796 -2.63673,-7.23631 -2.63672,-11.45508 -1e-5,-4.17966 0.87402,-8.08103 2.62207,-11.7041 1.74804,-3.62301 4.26268,-6.31344 7.54394,-8.07129 3.28124,-1.75777 7.06053,-2.63668 11.33789,-2.63672 3.10544,4e-5 5.91306,0.50297 8.42285,1.50879 2.50973,1.0059 4.47751,2.40726 5.90332,4.2041 1.42575,1.79691 2.50973,4.14066 3.25196,7.03125 l -5.12696,1.40625 c -0.64456,-2.18747 -1.44534,-3.90622 -2.40234,-5.15625 -0.95706,-1.24996 -2.32425,-2.25094 -4.10156,-3.00293 -1.77737,-0.75191 -3.75003,-1.12789 -5.91797,-1.12793 -2.59768,4e-5 -4.84377,0.39555 -6.73828,1.18652 -1.89455,0.79106 -3.42287,1.83109 -4.58496,3.12012 -1.16212,1.2891 -2.06544,2.70511 -2.70996,4.24805 -1.09376,2.65628 -1.64064,5.53713 -1.64063,8.64258 -1e-5,3.82814 0.65917,7.03126 1.97754,9.60937 1.31835,2.57814 3.23729,4.4922 5.75684,5.74219 2.51951,1.25 5.19529,1.875 8.02734,1.875 2.46091,0 4.86325,-0.47363 7.20703,-1.4209 2.34372,-0.94726 4.12106,-1.958 5.33203,-3.03223 l 0,-7.99804 z"
       style="font-size:60px;fill:#ffffff;stroke:none;font-family:Arial"
       id="path2995" />
  </g>
  <path
     inkscape:connector-curvature="0"
     style="fill:#ffffff;stroke:#000000;stroke-width:6;stroke-miterlimit:4;stroke-opacity:1;stroke-dasharray:12, 6;stroke-dashoffset:0"
     d="m 135,255 0,-85 65,-65 65,65 0,85 z"
     id="polyline4" />
</svg>
