<?xml version="1.0" encoding="UTF-8" standalone="no"?>
<!--
Copyright (C) 2012 United States Government as represented by the Administrator of the
National Aeronautics and Space Administration.
All Rights Reserved.
-->

<!--
MIL-STD-2525 tactical symbol icon image. During icon composition this image is multiplied by the desired frame color 
(e.g. black), then drawn on top of the frame and fill.
-->

<svg
   xmlns:dc="http://purl.org/dc/elements/1.1/"
   xmlns:cc="http://creativecommons.org/ns#"
   xmlns:rdf="http://www.w3.org/1999/02/22-rdf-syntax-ns#"
   xmlns:svg="http://www.w3.org/2000/svg"
   xmlns="http://www.w3.org/2000/svg"
   xmlns:sodipodi="http://sodipodi.sourceforge.net/DTD/sodipodi-0.dtd"
   xmlns:inkscape="http://www.inkscape.org/namespaces/inkscape"
   height="400px"
   viewBox="0 0 400 400"
   width="400px"
   id="svg2"
   version="1.1"
   inkscape:version="0.48.2 r9819"
   sodipodi:docname="suuasum--------.svg">
  <metadata
     id="metadata12">
    <rdf:RDF>
      <cc:Work
         rdf:about="">
        <dc:format>image/svg+xml</dc:format>
        <dc:type
           rdf:resource="http://purl.org/dc/dcmitype/StillImage" />
      </cc:Work>
    </rdf:RDF>
  </metadata>
  <defs
     id="defs10" />
  <sodipodi:namedview
     pagecolor="#ffffff"
     bordercolor="#666666"
     borderopacity="1"
     objecttolerance="10"
     gridtolerance="10"
     guidetolerance="10"
     inkscape:pageopacity="0"
     inkscape:pageshadow="2"
     inkscape:window-width="705"
     inkscape:window-height="480"
     id="namedview8"
     showgrid="false"
     inkscape:zoom="0.59"
     inkscape:cx="200"
     inkscape:cy="200"
     inkscape:window-x="178"
     inkscape:window-y="123"
     inkscape:window-maximized="0"
     inkscape:current-layer="svg2" />
  <g
     style="font-size:60px;font-weight:bold;text-anchor:middle;fill:#ffffff;stroke:none;font-family:Arial"
     id="text6">
    <path
       inkscape:connector-curvature="0"
       d="m 132.5293,150 0,-42.94922 12.97851,0 7.79297,29.29688 7.70508,-29.29688 13.00781,0 0,42.94922 -8.05664,0 0,-33.80859 -8.52539,33.80859 -8.34961,0 -8.49609,-33.80859 0,33.80859 z"
       style="font-size:60px;font-weight:bold;text-anchor:middle;fill:#ffffff;stroke:none;font-family:Arial"
       id="path2997" />
    <path
       inkscape:connector-curvature="0"
       d="m 210.16602,134.20898 8.4082,2.66602 c -1.2891,4.68751 -3.43266,8.16895 -6.43067,10.44434 -2.99807,2.27539 -6.80178,3.41308 -11.41113,3.41308 -5.70314,0 -10.39064,-1.94824 -14.0625,-5.84472 -3.67188,-3.89648 -5.50781,-9.22362 -5.50781,-15.98145 0,-7.14841 1.8457,-12.70016 5.53711,-16.65527 3.69139,-3.95504 8.5449,-5.93258 14.56055,-5.93262 5.25387,4e-5 9.52145,1.55278 12.80273,4.6582 1.95309,1.83598 3.41793,4.47269 4.39453,7.91016 l -8.58398,2.05078 c -0.50785,-2.22653 -1.56742,-3.98434 -3.17871,-5.27344 -1.61136,-1.28902 -3.56936,-1.93355 -5.87403,-1.93359 -3.18361,4e-5 -5.76662,1.14261 -7.74902,3.42773 -1.98244,2.28519 -2.97365,5.98636 -2.97363,11.10352 -2e-5,5.4297 0.97655,9.29689 2.92968,11.60156 1.95311,2.3047 4.49217,3.45704 7.61719,3.45703 2.30466,1e-5 4.28708,-0.73241 5.94727,-2.19726 1.66012,-1.46484 2.85153,-3.76952 3.57422,-6.91407 z"
       style="font-size:60px;font-weight:bold;text-anchor:middle;fill:#ffffff;stroke:none;font-family:Arial"
       id="path2999" />
    <path
       inkscape:connector-curvature="0"
       d="m 225.92773,150 0,-42.94922 12.97852,0 7.79297,29.29688 7.70508,-29.29688 13.00781,0 0,42.94922 -8.05664,0 0,-33.80859 -8.52539,33.80859 -8.34961,0 -8.4961,-33.80859 0,33.80859 z"
       style="font-size:60px;font-weight:bold;text-anchor:middle;fill:#ffffff;stroke:none;font-family:Arial"
       id="path3001" />
  </g>
  <path
     inkscape:connector-curvature="0"
     style="fill:#ffffff;stroke:#000000;stroke-width:6;stroke-miterlimit:4;stroke-opacity:1;stroke-dasharray:12, 6;stroke-dashoffset:0"
     d="m 100,160 0,40 100,60 100,-60 0,-40 -100,60 z"
     id="polyline4" />
</svg>
