<?xml version="1.0" encoding="UTF-8" standalone="no"?>
<!-- SVG content generated using Symbology Configuration Management System (SCMS) -->

<!-- Systematic Software Engineering Ltd. - www.systematic.co.uk - do not remove  -->

<svg
   xmlns:dc="http://purl.org/dc/elements/1.1/"
   xmlns:cc="http://creativecommons.org/ns#"
   xmlns:rdf="http://www.w3.org/1999/02/22-rdf-syntax-ns#"
   xmlns:svg="http://www.w3.org/2000/svg"
   xmlns="http://www.w3.org/2000/svg"
   xmlns:sodipodi="http://sodipodi.sourceforge.net/DTD/sodipodi-0.dtd"
   xmlns:inkscape="http://www.inkscape.org/namespaces/inkscape"
   id="E-NPCD---------"
   width="329.96719"
   height="197.17346"
   viewBox="0 0 329.96719 197.17346"
   version="1.1"
   inkscape:version="0.48.2 r9819"
   sodipodi:docname="e-npcd---------.svg">
  <metadata
     id="metadata14">
    <rdf:RDF>
      <cc:Work
         rdf:about="">
        <dc:format>image/svg+xml</dc:format>
        <dc:type
           rdf:resource="http://purl.org/dc/dcmitype/StillImage" />
      </cc:Work>
    </rdf:RDF>
  </metadata>
  <defs
     id="defs12" />
  <sodipodi:namedview
     pagecolor="#ffffff"
     bordercolor="#666666"
     borderopacity="1"
     objecttolerance="10"
     gridtolerance="10"
     guidetolerance="10"
     inkscape:pageopacity="0"
     inkscape:pageshadow="2"
     inkscape:window-width="721"
     inkscape:window-height="480"
     id="namedview10"
     showgrid="false"
     inkscape:zoom="0.59"
     inkscape:cx="152.172"
     inkscape:cy="96.632988"
     inkscape:window-x="0"
     inkscape:window-y="0"
     inkscape:window-maximized="0"
     inkscape:current-layer="g6" />
  <g
     id="g3"
     transform="translate(-47.828,-99.45952)">
    <svg
       viewBox="0 0 400 400"
       id="_0.REPT___________"
       width="400"
       height="400"
       version="1.1"
       inkscape:version="0.48.2 r9819">
      <g
         transform="scale(160,160)"
         id="g6">
        <path
           d="m 1.16327,0.78337 c 0,-0.053342 0.04549,-0.07 0.04549,-0.111201 0,-0.02676 -0.01423,-0.039768 -0.03032,-0.050547 C 1.10795,0.627488 1.01268,0.637637 0.989608,0.690582 0.97651,0.720645 0.97723,0.753665 0.959392,0.791783 0.947112,0.81802 0.930758,0.854193 0.930758,0.88952 c 0,0.022078 0.01011,0.018354 0.01011,0.040437 l 0,0.020216 c 0,0.055257 -0.0605,0.088997 -0.015165,0.156697 C 0.920738,1.11428 0.87397,1.14775 0.865155,1.15251 0.820624,1.17657 0.818053,1.1372 0.799337,1.1372 l -0.020221,0 L 0.772848,1.10711 C 0.759112,1.09896 0.747663,1.08665 0.728573,1.08665 c -0.019347,0 -0.020768,0.01316 -0.015166,0.02527 l -0.055448,0.0108 -0.021414,0.0595 0.026315,4.7e-4 c 0.022803,0 0.035555,0.01204 0.040437,0.03033 L 0.664754,1.24061 0.66286,1.25345 C 0.73549,1.2595 0.782687,1.23799 0.848769,1.22201 0.887057,1.21275 1.02317,1.20512 1.03691,1.19785 L 1.0392,1.14209 c 0.02388,0.0058 0.05068,0.03079 0.07786,0.04132 0.02925,0.01132 0.04328,0.02053 0.08062,0.03058 0.06229,0.01676 0.11588,0.02935 0.1981,0.02935 l 0.01517,0 L 1.56777,1.2293 C 1.56764,1.29725 1.62645,1.2931 1.63841,1.34444 1.60206,1.33597 1.57721,1.29389 1.54742,1.29389 c -0.00138,0 -0.00923,0.00348 -0.01516,0.00506 l 0.00627,0.03008 -0.04163,0.00542 -2e-5,0.0201 0.01769,0.01263 -0.02426,0.01574 0.02464,0.0247 C 1.51056,1.42956 1.49688,1.42199 1.49688,1.44047 c 0,0.01165 0.00352,0.01517 0.01516,0.01517 0.01668,0 0.04169,-0.02527 0.07077,-0.02527 0.04703,0 0.21229,0.02119 0.21229,-0.02022 l 0,-0.00506 C 1.7951,1.36637 1.70693,1.364 1.70917,1.26356 1.83893,1.33222 1.94995,1.45557 1.82637,1.61328 1.78657,1.66407 1.72125,1.70539 1.65429,1.72931 1.61837,1.74215 1.46273,1.77609 1.41301,1.76707 1.30503,1.74748 1.27428,1.74648 1.18692,1.70494 1.12025,1.67323 1.06611,1.6408 1.00556,1.60324 0.905859,1.54137 0.748228,1.44553 0.592094,1.44553 0.462775,1.44553 0.298925,1.52701 0.298925,1.64772 0.329075,1.63176 0.331232,1.61476 0.353099,1.59069 0.366122,1.57635 0.398386,1.55798 0.415162,1.5466 0.454236,1.52011 0.515729,1.50113 0.581985,1.50113 l 0.025275,0 c 0.112236,0 0.299929,0.12245 0.374043,0.17186 C 1.09769,1.75057 1.18993,1.81253 1.35828,1.84191 1.54011,1.87364 1.6859,1.84021 1.80687,1.77068 1.85607,1.74241 1.91776,1.68607 1.94888,1.63974 1.97503,1.60083 2.02532,1.50209 2.0175,1.43542 L 2.00965,1.37003 c 0.00653,0.00241 0.0728,0.09612 0.09311,0.1166 0.02049,0.02066 0.09819,0.06505 0.13715,0.06505 0.02493,0 0.11139,-0.05707 0.12131,-0.07582 L 2.32657,1.45917 2.35775,1.43226 C 2.3195,1.40581 2.33821,1.4152 2.29551,1.4152 l -0.02527,0 c 0,-0.03624 -0.00757,-0.04633 -0.03539,-0.04044 L 2.24051,1.37755 2.19755,1.4648 C 2.16062,1.46575 2.12102,1.44284 2.10524,1.41845 2.10458,1.41742 2.07135,1.32196 2.07003,1.31718 2.05635,1.26792 2.05494,1.26066 2.02398,1.22675 1.99256,1.19233 1.9758,1.19643 1.93663,1.17763 L 1.93435,1.19333 C 1.91942,1.14727 1.77562,1.02757 1.72777,1.00234 1.67238,0.973128 1.64609,0.970703 1.57473,0.958247 1.52025,0.948731 1.4366,0.964699 1.39578,0.945117 1.40617,0.906223 1.43622,0.930955 1.43622,0.889518 1.43622,0.876951 1.41857,0.879408 1.40589,0.879408 1.42026,0.849455 1.39942,0.854132 1.37051,0.854132 1.37389,0.847751 1.38062,0.83742 1.38062,0.828861 c 0,-0.007083 -0.00689,-0.01011 -0.01516,-0.01011 -0.01206,0 -2.2e-4,0.014381 -0.03538,0.015165 C 1.32395,0.807652 1.32559,0.799219 1.29469,0.798534 l 0,0.040437 -0.03538,0 0,0.015161 c 0,0.020323 0.01703,0.04002 0.02527,0.055603 C 1.27539,0.928892 1.27742,0.960282 1.2492,0.960282 1.23485,0.960282 1.2026,0.921506 1.17039,0.912479 1.13528,0.90264 1.0925,0.926522 1.0925,0.874353 c 0,-0.02428 0.05356,-0.065276 0.07077,-0.090984 z"
           id="path8"
           inkscape:connector-curvature="0"
           style="fill:#ffffff;fill-opacity:1" />
      </g>
    </svg>
  </g>
</svg>
