<?xml version="1.0" encoding="UTF-8" standalone="no"?>
<!-- SVG content generated using Symbology Configuration Management System (SCMS) -->

<!-- Systematic Software Engineering Ltd. - www.systematic.co.uk - do not remove  -->

<svg
   xmlns:dc="http://purl.org/dc/elements/1.1/"
   xmlns:cc="http://creativecommons.org/ns#"
   xmlns:rdf="http://www.w3.org/1999/02/22-rdf-syntax-ns#"
   xmlns:svg="http://www.w3.org/2000/svg"
   xmlns="http://www.w3.org/2000/svg"
   xmlns:sodipodi="http://sodipodi.sourceforge.net/DTD/sodipodi-0.dtd"
   xmlns:inkscape="http://www.inkscape.org/namespaces/inkscape"
   id="E-NPAA---------"
   width="183.3936"
   height="183.71136"
   viewBox="0 0 183.3936 183.71136"
   version="1.1"
   inkscape:version="0.48.2 r9819"
   sodipodi:docname="e-npaa---------.svg">
  <metadata
     id="metadata43">
    <rdf:RDF>
      <cc:Work
         rdf:about="">
        <dc:format>image/svg+xml</dc:format>
        <dc:type
           rdf:resource="http://purl.org/dc/dcmitype/StillImage" />
      </cc:Work>
    </rdf:RDF>
  </metadata>
  <defs
     id="defs41" />
  <sodipodi:namedview
     pagecolor="#ffffff"
     bordercolor="#666666"
     borderopacity="1"
     objecttolerance="10"
     gridtolerance="10"
     guidetolerance="10"
     inkscape:pageopacity="0"
     inkscape:pageshadow="2"
     inkscape:window-width="875"
     inkscape:window-height="903"
     id="namedview39"
     showgrid="false"
     inkscape:zoom="0.59"
     inkscape:cx="124.9292"
     inkscape:cy="93.33724"
     inkscape:window-x="0"
     inkscape:window-y="0"
     inkscape:window-maximized="0"
     inkscape:current-layer="g6" />
  <g
     id="g3"
     transform="translate(-108.30444,-109.62588)">
    <svg
       viewBox="0 0 400 400"
       id="_0.AFTSHK_________"
       width="400"
       height="400"
       version="1.1"
       inkscape:version="0.48.2 r9819">
      <g
         transform="matrix(120,0,0,120,50.00004,50.00004)"
         id="g6">
        <path
           id="_64255576"
           d="M 1.51931,0.587894 1.53881,0.54287 1.35439,0.498366 c 0,0.064296 0.00718,0.044229 0.06787,0.059355 0.0297,0.007405 0.07384,0.019035 0.09705,0.030173 z"
           inkscape:connector-curvature="0"
           style="fill:#ffffff;fill-opacity:1" />
        <path
           id="_64530752"
           d="M 0.962866,0.548717 0.98213,0.587894 C 0.998201,0.580186 1.05736,0.562627 1.07912,0.557658 1.13957,0.543859 1.14706,0.561666 1.14664,0.496882 z"
           inkscape:connector-curvature="0"
           style="fill:#ffffff;fill-opacity:1" />
        <polygon
           id="_64583720"
           points="1.26969,0.761157 1.32987,0.766717 1.34487,0.702193 1.25067,0.69552 1.15656,0.702193 1.17069,0.767752 1.2413,0.76224 "
           style="fill:#ffffff;fill-opacity:1" />
        <path
           id="_65194448"
           d="M 0.647571,0.790516 0.68087,0.80967 0.798421,0.69152 0.779512,0.658575 C 0.756933,0.664602 0.65378,0.767264 0.647571,0.790516 z"
           inkscape:connector-curvature="0"
           style="fill:#ffffff;fill-opacity:1" />
        <polygon
           id="_65650032"
           points="1.72638,0.653701 1.70077,0.694835 1.82146,0.810232 1.86065,0.783736 "
           style="fill:#ffffff;fill-opacity:1" />
        <path
           id="_65631368"
           d="m 0.88789,0.8235 c 0.002976,0.004445 0.044681,0.042405 0.047118,0.042405 0.007343,0 0.109332,-0.068405 0.137062,-0.070803 L 1.05281,0.733969 C 1.02208,0.74113 0.992831,0.759457 0.964854,0.77324 0.939213,0.785874 0.905351,0.818835 0.88789,0.8235 z"
           inkscape:connector-curvature="0"
           style="fill:#ffffff;fill-opacity:1" />
        <path
           id="_65739864"
           d="M 1.431,0.795516 1.56755,0.871737 1.60884,0.828209 C 1.58896,0.798528 1.48595,0.74376 1.44563,0.734378 z"
           inkscape:connector-curvature="0"
           style="fill:#ffffff;fill-opacity:1" />
        <path
           id="_65194784"
           d="M 1.11878,0.922453 1.16569,0.996642 1.25072,0.983709 C 1.27104,0.980193 1.32236,0.997343 1.34283,0.996658 L 1.38266,0.922453 C 1.34287,0.919142 1.30332,0.900894 1.25072,0.900894 c -0.0521,0 -0.09092,0.018146 -0.13194,0.021559 z"
           inkscape:connector-curvature="0"
           style="fill:#ffffff;fill-opacity:1" />
        <path
           id="_230848"
           d="M 0.722965,1.06853 0.784516,1.08145 0.778756,1.07952 0.858615,0.94703 0.812497,0.903609 C 0.790363,0.93666 0.724004,1.02199 0.722965,1.06853 z"
           inkscape:connector-curvature="0"
           style="fill:#ffffff;fill-opacity:1" />
        <path
           id="_65102040"
           d="M 1.64071,0.944898 1.71693,1.08145 1.77847,1.06853 C 1.77569,1.03504 1.70596,0.918154 1.68312,0.902489 z"
           inkscape:connector-curvature="0"
           style="fill:#ffffff;fill-opacity:1" />
        <polygon
           id="_65630984"
           points="0.536933,0.97365 0.486488,1.1531 0.530709,1.15233 0.575803,0.995122 "
           style="fill:#ffffff;fill-opacity:1" />
        <polygon
           id="_92078288"
           points="2.01415,1.15213 1.967,0.974386 1.92529,0.994654 1.96696,1.15335 2.00937,1.15335 "
           style="fill:#ffffff;fill-opacity:1" />
        <path
           id="_64232240"
           d="m 0.892602,1.20518 0.089528,0 C 0.98846,1.1291 1.0376,1.09822 1.06704,1.05434 L 1.02454,0.978998 C 0.999641,0.995672 0.955913,1.0467 0.939716,1.07323 0.910826,1.12057 0.911531,1.16573 0.892602,1.20518 z"
           inkscape:connector-curvature="0"
           style="fill:#ffffff;fill-opacity:1" />
        <path
           id="_65630792"
           d="m 1.43449,1.05439 c 0,0.00314 0.04593,0.05419 0.05286,0.06494 0.00994,0.01544 0.03017,0.06436 0.03196,0.08585 l 0.08953,0 C 1.58937,1.1646 1.59119,1.11985 1.56091,1.07405 1.53588,1.0362 1.50911,1.00372 1.47219,0.978996 1.46637,1.00396 1.43449,1.04002 1.43449,1.05439 z"
           inkscape:connector-curvature="0"
           style="fill:#ffffff;fill-opacity:1" />
        <path
           id="_64111192"
           d="M 0.685268,1.26172 0.694402,1.35474 0.757236,1.34172 0.750748,1.26168 0.755681,1.18269 0.694693,1.16748 C 0.693016,1.18763 0.683335,1.24241 0.685268,1.26172 z"
           inkscape:connector-curvature="0"
           style="fill:#ffffff;fill-opacity:1" />
        <polygon
           id="_65650536"
           points="1.7459,1.34011 1.81062,1.35589 1.81617,1.27586 1.81728,1.2475 1.81122,1.16652 1.74572,1.18257 1.7502,1.24287 1.75129,1.28069 "
           style="fill:#ffffff;fill-opacity:1" />
        <path
           id="_64483584"
           d="m 1.11407,1.25701 0,0.00942 c 0,0.0709 0.06134,0.13194 0.13194,0.13194 l 0.00943,0 c 0.06798,0 0.13193,-0.06186 0.13193,-0.12723 l 0,-0.01884 c 0,-0.06748 -0.06801,-0.12723 -0.13665,-0.12723 -0.0704,0 -0.13665,0.05976 -0.13665,0.13194 z"
           inkscape:connector-curvature="0"
           style="fill:#ffffff;fill-opacity:1" />
        <path
           id="_65630504"
           d="M 1.02454,1.54445 1.07166,1.46906 C 1.03551,1.44993 0.983331,1.37218 0.98213,1.31827 l -0.089527,0 c 0.021299,0.04439 0.018228,0.07727 0.049917,0.12914 0.016492,0.027 0.05915,0.08172 0.08202,0.09704 z"
           inkscape:connector-curvature="0"
           style="fill:#ffffff;fill-opacity:1" />
        <path
           id="_65473312"
           d="M 1.42978,1.46906 1.47219,1.54445 C 1.50432,1.52745 1.53862,1.48224 1.55708,1.45029 1.58732,1.39796 1.58686,1.36408 1.60884,1.31827 l -0.08953,0 C 1.51806,1.37439 1.46745,1.44913 1.42978,1.46906 z"
           inkscape:connector-curvature="0"
           style="fill:#ffffff;fill-opacity:1" />
        <path
           id="_65150464"
           d="M 1.92455,1.53031 1.96546,1.55004 2.01408,1.36539 c -0.06662,0 -0.04323,0.00784 -0.05841,0.06882 -0.00421,0.01692 -0.02514,0.08365 -0.03112,0.0961 z"
           inkscape:connector-curvature="0"
           style="fill:#ffffff;fill-opacity:1" />
        <polygon
           id="_65101200"
           points="0.53448,1.36539 0.48587,1.36581 0.53772,1.54957 0.574874,1.53087 0.529421,1.36679 "
           style="fill:#ffffff;fill-opacity:1" />
        <path
           id="_65520928"
           d="m 0.722965,1.46434 c 0,0.0302 0.074634,0.13206 0.089858,0.16051 L 0.856398,1.57928 0.778709,1.44394 0.784225,1.44078 C 0.771548,1.44686 0.722965,1.45234 0.722965,1.46434 z"
           inkscape:connector-curvature="0"
           style="fill:#ffffff;fill-opacity:1" />
        <path
           id="_65085224"
           d="M 1.64459,1.57433 1.68895,1.62455 C 1.69481,1.60261 1.76599,1.51323 1.77873,1.45879 L 1.72114,1.44307 z"
           inkscape:connector-curvature="0"
           style="fill:#ffffff;fill-opacity:1" />
        <path
           id="_65650760"
           d="m 1.11696,1.59996 c 0.03988,0.0042 0.0797,0.02467 0.13376,0.02467 0.05405,0 0.09387,-0.02047 0.13319,-0.02432 L 1.34496,1.5256 C 1.3153,1.52626 1.29902,1.53974 1.26014,1.53974 l -0.01885,0 c -0.03888,0 -0.05516,-0.01348 -0.08255,-0.01284 z"
           inkscape:connector-curvature="0"
           style="fill:#ffffff;fill-opacity:1" />
        <path
           id="_65041424"
           d="M 0.887587,1.69962 C 0.911776,1.71258 1.0221,1.78947 1.04339,1.78947 1.06401,1.78947 1.06285,1.74656 1.07166,1.72822 1.03437,1.72512 0.962729,1.67138 0.936599,1.65455 z"
           inkscape:connector-curvature="0"
           style="fill:#ffffff;fill-opacity:1" />
        <path
           id="_65630120"
           d="M 1.42978,1.72822 1.44392,1.78948 C 1.48933,1.7857 1.57527,1.72243 1.60884,1.69995 1.60374,1.69031 1.57669,1.65283 1.56643,1.65283 c -2.8e-4,0 -0.10241,0.06741 -0.13665,0.07539 z"
           inkscape:connector-curvature="0"
           style="fill:#ffffff;fill-opacity:1" />
        <path
           id="_65105872"
           d="M 1.15769,1.81804 1.25072,1.82717 C 1.27351,1.82957 1.32265,1.81961 1.34506,1.81773 L 1.33072,1.75528 1.25538,1.76191 1.17232,1.7569 z"
           inkscape:connector-curvature="0"
           style="fill:#ffffff;fill-opacity:1" />
        <polygon
           id="_65650928"
           points="1.8542,1.73233 1.81726,1.71209 1.81964,1.71763 1.70297,1.83177 1.72169,1.86501 1.72546,1.86836 "
           style="fill:#ffffff;fill-opacity:1" />
        <path
           id="_65100976"
           d="M 0.648445,1.73033 C 0.654209,1.75308 0.759343,1.85823 0.782114,1.864 L 0.799157,1.82279 0.7945,1.82632 0.686122,1.71794 0.689649,1.71329 z"
           inkscape:connector-curvature="0"
           style="fill:#ffffff;fill-opacity:1" />
        <polygon
           id="_65629832"
           points="1.14567,1.98309 0.984055,1.93666 0.963071,1.97313 1.14663,2.02657 1.14706,1.97796 "
           style="fill:#ffffff;fill-opacity:1" />
        <polygon
           id="_64519936"
           points="1.35439,1.97796 1.35515,2.02781 1.53907,1.97655 1.51732,1.93664 1.35576,1.98295 "
           style="fill:#ffffff;fill-opacity:1" />
      </g>
    </svg>
  </g>
</svg>
