<?xml version="1.0" encoding="UTF-8" standalone="no"?>
<!-- SVG content generated using Symbology Configuration Management System (SCMS) -->

<!-- Systematic Software Engineering Ltd. - www.systematic.co.uk - do not remove  -->

<svg
   xmlns:dc="http://purl.org/dc/elements/1.1/"
   xmlns:cc="http://creativecommons.org/ns#"
   xmlns:rdf="http://www.w3.org/1999/02/22-rdf-syntax-ns#"
   xmlns:svg="http://www.w3.org/2000/svg"
   xmlns="http://www.w3.org/2000/svg"
   xmlns:sodipodi="http://sodipodi.sourceforge.net/DTD/sodipodi-0.dtd"
   xmlns:inkscape="http://www.inkscape.org/namespaces/inkscape"
   id="E-NPAD---------"
   width="187.149"
   height="146.7081"
   viewBox="0 0 187.149 146.7081"
   version="1.1"
   inkscape:version="0.48.2 r9819"
   sodipodi:docname="e-npad---------.svg">
  <metadata
     id="metadata18">
    <rdf:RDF>
      <cc:Work
         rdf:about="">
        <dc:format>image/svg+xml</dc:format>
        <dc:type
           rdf:resource="http://purl.org/dc/dcmitype/StillImage" />
      </cc:Work>
    </rdf:RDF>
  </metadata>
  <defs
     id="defs16" />
  <sodipodi:namedview
     pagecolor="#ffffff"
     bordercolor="#666666"
     borderopacity="1"
     objecttolerance="10"
     gridtolerance="10"
     guidetolerance="10"
     inkscape:pageopacity="0"
     inkscape:pageshadow="2"
     inkscape:window-width="721"
     inkscape:window-height="480"
     id="namedview14"
     showgrid="false"
     inkscape:zoom="0.59"
     inkscape:cx="93.627"
     inkscape:cy="48.777"
     inkscape:window-x="0"
     inkscape:window-y="0"
     inkscape:window-maximized="0"
     inkscape:current-layer="g6" />
  <g
     id="g3"
     transform="translate(-106.373,-102.0689)">
    <svg
       viewBox="0 0 400 400"
       id="_0.LNDSLD_________"
       width="400"
       height="400"
       version="1.1"
       inkscape:version="0.48.2 r9819">
      <g
         transform="matrix(100,0,0,100,73,61)"
         id="g6">
        <path
           id="_64583336"
           d="M 1.47063,0.769563 C 1.46847,0.795583 1.4643,0.783705 1.4643,0.807555 c 0,0.024402 0.01993,0.075992 0.04433,0.075992 l 0.00633,0 c 0.07799,0 0.07731,-0.00648 0.12032,-0.037996 C 1.6083,0.789323 1.62272,0.756894 1.52763,0.756894 c -0.02724,0 -0.03433,0.007385 -0.057,0.012669 z"
           inkscape:connector-curvature="0"
           style="fill:#ffffff;fill-opacity:1" />
        <path
           id="_65170960"
           d="m 1.55296,1.11152 c 0.02063,0 0.02442,-0.01797 0.03166,-0.03167 C 1.56852,1.04629 1.57241,1.01653 1.52129,1.01653 l -0.00633,0 c -0.02468,0 -0.05066,0.01351 -0.05066,0.038 0,0.0171 0.04138,0.05699 0.06966,0.05699 z"
           inkscape:connector-curvature="0"
           style="fill:#ffffff;fill-opacity:1" />
        <path
           id="_65102432"
           d="m 1.76193,0.978535 c -0.05511,0 -0.17496,0.159095 -0.09985,0.213845 0.04164,0.03035 0.06616,0.03923 0.13178,0.0144 0.04955,-0.01876 0.06939,-0.03947 0.06939,-0.10792 0,-0.05909 -0.05124,-0.120324 -0.10132,-0.120325 z"
           inkscape:connector-curvature="0"
           style="fill:#ffffff;fill-opacity:1" />
        <path
           id="_63613312"
           d="m 1.69227,1.39016 c 0,0.09094 0.15198,0.06929 0.15198,-0.019 0,-0.10424 -0.15198,-0.04748 -0.15198,0.019 z"
           inkscape:connector-curvature="0"
           style="fill:#ffffff;fill-opacity:1" />
        <path
           id="_65492976"
           d="M 1.44903,0.540941 1.3165,0.410689 0.33373,1.86917 l 1.39654,0.00226 0,-0.03166 c 0,-0.01774 -0.02639,-0.03655 -0.038,-0.04433 0,-0.0489 -0.01378,-0.03935 -0.02301,-0.07197 C 1.66292,1.70109 1.66692,1.65614 1.66694,1.63079 1.667,1.56142 1.66418,1.5225 1.62431,1.48978 1.56787,1.44347 1.59185,1.45245 1.51694,1.4135 1.46749,1.3878 1.48018,1.36054 1.38831,1.35849 l 0,-0.03799 C 1.38831,1.27392 1.33849,1.22981 1.31865,1.20018 1.31865,1.14342 1.30561,1.0827 1.30585,1.02932 1.30603,0.990527 1.30132,0.980744 1.29972,0.946803 1.2977,0.904102 1.28065,0.909307 1.28065,0.877212 l 0,-0.006334 C 1.28065,0.796133 1.2936,0.759224 1.3329,0.720488 1.38645,0.667708 1.35476,0.66511 1.42867,0.622921 L 1.44903,0.540936 z"
           inkscape:connector-curvature="0"
           style="fill:#ffffff;fill-opacity:1" />
        <path
           id="_66340648"
           d="m 2.00257,1.41549 c -0.06781,0 -0.1555,0.10289 -0.10765,0.12665 -0.02577,0.03848 -0.08866,0.04987 -0.08866,0.10133 0,0.04366 0.06602,0.11685 0.08638,0.15425 0.02726,0.05006 0.07891,0.08005 0.15426,0.08005 l 0.04433,0 c 0.06777,0 0.11399,-0.0638 0.11399,-0.13298 l 0,-0.02533 C 2.20522,1.63324 2.17889,1.59307 2.15253,1.5315 2.12686,1.47151 2.10964,1.41549 2.0279,1.41549 z"
           inkscape:connector-curvature="0"
           style="fill:#ffffff;fill-opacity:1" />
      </g>
    </svg>
  </g>
</svg>
