<?xml version="1.0" encoding="UTF-8" standalone="no"?>
<!-- SVG content generated using Symbology Configuration Management System (SCMS) -->

<!-- Systematic Software Engineering Ltd. - www.systematic.co.uk - do not remove  -->

<svg
   xmlns:dc="http://purl.org/dc/elements/1.1/"
   xmlns:cc="http://creativecommons.org/ns#"
   xmlns:rdf="http://www.w3.org/1999/02/22-rdf-syntax-ns#"
   xmlns:svg="http://www.w3.org/2000/svg"
   xmlns="http://www.w3.org/2000/svg"
   xmlns:sodipodi="http://sodipodi.sourceforge.net/DTD/sodipodi-0.dtd"
   xmlns:inkscape="http://www.inkscape.org/namespaces/inkscape"
   id="E-NPCB---------"
   width="311.12039"
   height="181.65298"
   viewBox="0 0 311.12039 181.65298"
   version="1.1"
   inkscape:version="0.48.2 r9819"
   sodipodi:docname="e-npcb---------.svg">
  <metadata
     id="metadata15">
    <rdf:RDF>
      <cc:Work
         rdf:about="">
        <dc:format>image/svg+xml</dc:format>
        <dc:type
           rdf:resource="http://purl.org/dc/dcmitype/StillImage" />
      </cc:Work>
    </rdf:RDF>
  </metadata>
  <defs
     id="defs13" />
  <sodipodi:namedview
     pagecolor="#ffffff"
     bordercolor="#666666"
     borderopacity="1"
     objecttolerance="10"
     gridtolerance="10"
     guidetolerance="10"
     inkscape:pageopacity="0"
     inkscape:pageshadow="2"
     inkscape:window-width="721"
     inkscape:window-height="480"
     id="namedview11"
     showgrid="false"
     inkscape:zoom="0.59"
     inkscape:cx="152.4784"
     inkscape:cy="86.340707"
     inkscape:window-x="0"
     inkscape:window-y="0"
     inkscape:window-maximized="0"
     inkscape:current-layer="g6" />
  <g
     id="g3"
     transform="translate(-47.521596,-104.68772)">
    <svg
       viewBox="0 0 400 400"
       id="_0.INSCT__________"
       width="400"
       height="400"
       version="1.1"
       inkscape:version="0.48.2 r9819">
      <g
         transform="matrix(170,0,0,170,-9.000004,-13.999993)"
         id="g6">
        <path
           id="_65025864"
           d="m 1.78671,1.23426 c 0,0.01411 0.00209,0.00717 0.00617,0.02465 L 1.81719,1.25873 1.82707,1.23519 1.82368,1.22194 l -0.01848,0 c -0.01009,0 -0.01849,0.00369 -0.01849,0.01232 z"
           inkscape:connector-curvature="0"
           style="fill:#ffffff" />
        <path
           id="_64068888"
           d="m 1.78671,1.23426 c 0,-0.00863 0.0084,-0.01232 0.01849,-0.01232 l 0.01848,0 0.00339,0.01325 -0.00988,0.02354 -0.02431,1.8e-4 C 1.7888,1.24143 1.78671,1.24837 1.78671,1.23426 z M 1.87298,1.19113 c -0.00546,0 -0.03771,-0.04314 -0.0801,-0.04314 l -0.01233,0 c -0.04846,0 -0.04787,0.0547 -0.06083,0.09322 -0.01134,0.03372 -0.0316,0.08738 -0.0316,0.12862 0,0.01442 0.01022,0.02464 0.02465,0.02464 0.05797,0 0.15361,-0.12392 0.16637,-0.17869 0.0949,0 0.26597,-0.02694 0.28346,-0.09243 C 2.10125,1.13972 2.09425,1.18092 1.97158,1.19113 2.01389,1.15434 2.10755,1.08771 2.1133,1.01859 l -0.01232,0 C 2.08159,1.09118 1.96522,1.19113 1.87298,1.19113 z"
           inkscape:connector-curvature="0"
           style="fill:#ffffff;fill-opacity:1" />
        <path
           id="_64006504"
           d="M 0.704425,0.964035 0.706441,0.957807 0.853941,1.07537 0.850086,1.08021 C 0.795716,1.11662 0.665149,1.29588 0.609767,1.29588 L 0.570181,1.29482 z M 0.874736,1.04324 C 0.863886,1.00261 0.753834,0.889563 0.714519,0.870701 0.70394,0.876299 0.671389,0.89487 0.671389,0.907673 c 0,0.018799 0.005917,0.024866 0.011291,0.036567 l -0.134531,0.35164 -0.024645,0 c 0.005661,0.02123 0.012319,0.01631 0.012319,0.02465 0,0.0081 -0.071264,0.18776 -0.080103,0.20951 C 0.441649,1.56465 0.430897,1.59471 0.416287,1.63233 0.409267,1.65041 0.401819,1.67111 0.395252,1.68524 0.382799,1.71203 0.381047,1.69365 0.363027,1.72583 L 0.33248,1.73338 C 0.340539,1.74439 0.37733,1.7452 0.393523,1.74238 0.420059,1.73774 0.401878,1.71757 0.412201,1.69017 0.428299,1.64741 0.445724,1.60491 0.462736,1.5617 0.474708,1.53131 0.551673,1.31436 0.572799,1.31436 l 0.030807,0 c 0.018803,0 0.024866,0.00592 0.03676,0.01217 L 0.696039,1.25891 c 0.06448,0.04317 0.204315,0.11091 0.308101,0.11091 l 0.01849,0 L 1.02784,1.36608 0.942519,1.24658 0.706617,1.24474 0.862412,1.09253 c 0.102976,0.06896 0.281838,0.4067 0.357398,0.4067 l 0.00616,0 c 0.03373,0 0.03176,-0.01548 0.04314,-0.03698 C 1.24812,1.37222 1.15546,1.31059 1.09199,1.25732 1.03427,1.20887 0.944877,1.10248 0.893219,1.06788 0.920471,1.02719 1.1413,0.807846 1.18664,0.796235 L 1.20749,0.981617 1.21156,1.04998 1.18283,1.22809 1.1392,1.22871 1.26289,1.33276 1.43548,1.24042 C 1.42365,1.29119 1.42731,1.30048 1.38214,1.32265 1.36816,1.32952 1.29375,1.36718 1.29375,1.37598 c 0,0.01339 0.01849,0.04071 0.01849,0.07395 0,0.06925 -0.07498,0.10511 -0.13952,0.0779 C 1.12215,1.50651 1.05632,1.40679 1.04111,1.40679 l -0.02465,0 c -0.109756,0 -0.161343,0.03698 -0.252638,0.03698 l -0.012327,0 C 0.706101,1.44377 0.690231,1.42528 0.6529,1.42528 l -0.012319,0 c -0.014429,0 -0.024649,0.01023 -0.024649,0.02465 0,0.07651 0.295079,0.11333 0.406698,0.11105 L 1.33674,1.55419 1.33688,1.56084 C 1.31552,1.59274 1.19744,1.67792 1.14586,1.67792 1.14242,1.68288 1.13354,1.69314 1.13354,1.69641 c 0,0.01664 0.00294,0.01699 0.00616,0.03081 0.01653,0.00396 0.01162,0.00616 0.02465,0.00616 0.01381,0 0.01353,-0.00488 0.02465,-0.01232 L 1.18882,1.68999 1.37416,1.56093 1.33688,1.70873 c -0.02144,0.00179 -0.0308,0.00964 -0.0308,0.03081 0,0.02195 0.01354,0.01636 0.03333,0.02717 L 1.3677,1.73338 C 1.36539,1.72903 1.34921,1.70312 1.34921,1.70257 c 0,-0.03024 0.05735,-0.18322 0.06777,-0.22884 L 1.79195,1.46238 1.81944,1.6645 1.81136,1.6656 c 0.00719,0.01359 0.00537,0.02465 0.02465,0.02465 0.02206,0 0.02666,-0.00762 0.03697,-0.01849 C 1.86212,1.64912 1.86063,1.62671 1.8319,1.64069 L 1.8131,1.47926 1.92933,1.61088 1.91359,1.63115 1.94692,1.65944 C 1.96051,1.65225 1.97157,1.65406 1.97157,1.63479 l 0,-0.01233 c 0,-0.02194 -0.02109,-0.02415 -0.04,-0.02734 l -0.10923,-0.12089 0.00751,-0.0243 -0.20335,0 c 0,-0.1193 0.0468,-0.19794 0.05556,-0.29889 l -0.22104,0.00957 -0.01938,0.06132 -0.11092,0 C 1.28758,1.22193 1.2635,1.03134 1.26271,0.975687 1.26188,0.91773 1.2544,0.875761 1.25655,0.821167 1.25784,0.788296 1.28095,0.698163 1.23213,0.698163 l -0.01849,0 c -0.02399,0 -0.03073,0.024358 -0.03686,0.043236 C 1.16933,0.764296 1.15421,0.773029 1.13817,0.78906 1.10791,0.819308 1.08216,0.845076 1.0519,0.875328 1.02222,0.905013 0.903578,1.03554 0.874736,1.04323 z"
           inkscape:connector-curvature="0"
           style="fill:#ffffff;fill-opacity:1" />
      </g>
    </svg>
  </g>
</svg>
