<?xml version="1.0" encoding="UTF-8" standalone="no"?>
<!-- SVG content generated using Symbology Configuration Management System (SCMS) -->

<!-- Systematic Software Engineering Ltd. - www.systematic.co.uk - do not remove  -->

<svg
   xmlns:dc="http://purl.org/dc/elements/1.1/"
   xmlns:cc="http://creativecommons.org/ns#"
   xmlns:rdf="http://www.w3.org/1999/02/22-rdf-syntax-ns#"
   xmlns:svg="http://www.w3.org/2000/svg"
   xmlns="http://www.w3.org/2000/svg"
   xmlns:sodipodi="http://sodipodi.sourceforge.net/DTD/sodipodi-0.dtd"
   xmlns:inkscape="http://www.inkscape.org/namespaces/inkscape"
   id="E-NPCA---------"
   width="308.3732"
   height="232.96193"
   viewBox="0 0 308.3732 232.96193"
   version="1.1"
   inkscape:version="0.48.2 r9819"
   sodipodi:docname="e-npca---------.svg">
  <metadata
     id="metadata14">
    <rdf:RDF>
      <cc:Work
         rdf:about="">
        <dc:format>image/svg+xml</dc:format>
        <dc:type
           rdf:resource="http://purl.org/dc/dcmitype/StillImage" />
      </cc:Work>
    </rdf:RDF>
  </metadata>
  <defs
     id="defs12" />
  <sodipodi:namedview
     pagecolor="#ffffff"
     bordercolor="#666666"
     borderopacity="1"
     objecttolerance="10"
     gridtolerance="10"
     guidetolerance="10"
     inkscape:pageopacity="0"
     inkscape:pageshadow="2"
     inkscape:window-width="721"
     inkscape:window-height="480"
     id="namedview10"
     showgrid="false"
     inkscape:zoom="0.59"
     inkscape:cx="150.8245"
     inkscape:cy="127.7929"
     inkscape:window-x="0"
     inkscape:window-y="0"
     inkscape:window-maximized="0"
     inkscape:current-layer="g6" />
  <g
     id="g3"
     transform="translate(-49.175501,-94.830964)">
    <svg
       viewBox="0 0 400 400"
       id="_0.BIRD___________"
       width="400"
       height="400"
       version="1.1"
       inkscape:version="0.48.2 r9819">
      <g
         transform="matrix(170,0,0,170,-0.9999995,-7.000005)"
         id="g6">
        <path
           d="M 0.765087,1.10551 0.327154,1.17525 0.327725,1.18409 0.483127,1.1948 C 0.465422,1.2071 0.404021,1.22027 0.376784,1.22944 0.314985,1.25025 0.329355,1.2377 0.29515,1.28879 L 0.376386,1.29047 0.351544,1.31228 c 0.04274,0 0.077622,0.00152 0.113346,0.0046 C 0.499016,1.31982 0.509453,1.28639 0.548874,1.28404 0.619587,1.27983 0.684614,1.28879 0.770626,1.29036 L 0.750988,1.30288 c 0.014701,0.00122 0.016697,0.0047 0.032898,0.0047 l 0.037594,0 0.001256,0.02015 0.069036,0.02947 0.037795,-0.00262 c 0.039275,0.0263 0.044929,0.05467 0.122183,0.05639 0.00532,0.06401 0.01418,0.09027 0.07049,0.10339 l 0,0.01879 c 0,0.05121 0.00511,0.11361 0.05011,0.11786 l 0.02978,0.12651 -0.0094,0 0,0.0094 C 1.18417,1.78119 1.15964,1.75872 1.15044,1.75872 l -0.0047,0 c -0.0127,0 -0.01296,0.00225 -0.0235,0.0047 0.01473,0.02011 0.06272,0.04104 0.07148,0.06481 0.01338,0.03632 0.00456,0.08966 0.00524,0.12584 L 1.22071,1.96937 1.23972,1.96549 1.24139,1.94666 1.23972,1.88091 C 1.25645,1.89211 1.30417,1.9514 1.31961,1.9514 l 0.0235,0 C 1.33212,1.9042 1.29926,1.89488 1.27802,1.85972 L 1.36661,1.88561 C 1.34335,1.85088 1.34699,1.84438 1.29894,1.83109 1.22633,1.811 1.25613,1.78567 1.22691,1.77727 L 1.20213,1.65064 C 1.22523,1.64525 1.23503,1.6269 1.23503,1.59894 L 1.23611,1.56123 1.23033,1.50026 l 0.02349,0 c 0.01708,0 0.01649,-0.00558 0.0329,-0.0094 8.3e-4,0.0374 0.02789,0.07904 0.06414,0.08065 L 1.423,1.72113 C 1.41732,1.72961 1.4136,1.72939 1.4136,1.73993 L 1.41426,1.75537 1.31113,1.73527 1.31022,1.73993 C 1.33038,1.75746 1.39715,1.78052 1.43159,1.80653 1.45803,1.8265 1.46062,1.82176 1.48035,1.85176 1.48853,1.8642 1.51178,1.9044 1.52639,1.9044 l 0.01879,0 L 1.54957,1.90216 1.50892,1.82628 1.61098,1.87151 C 1.60987,1.82168 1.56059,1.83544 1.52639,1.80572 l 0.07049,0 C 1.56655,1.77936 1.56033,1.78346 1.51255,1.77726 1.47358,1.7722 1.47177,1.7495 1.45005,1.72698 1.42355,1.69951 1.40182,1.61066 1.38071,1.57075 1.40972,1.52742 1.4042,1.53749 1.4042,1.46736 1.51843,1.41255 1.53699,1.41681 1.62624,1.32755 1.69104,1.26275 1.71951,1.18381 1.76294,1.0977 1.78472,1.05453 1.79781,1.01898 1.81639,0.972562 1.83346,0.929893 1.83189,0.860361 1.85059,0.823491 1.90617,0.713928 2.06392,0.747786 2.09494,0.70016 L 1.99162,0.706061 1.99169,0.701794 2.10911,0.687266 C 2.05642,0.641463 1.9949,0.655172 1.9114,0.645302 1.86088,0.639329 1.84345,0.663613 1.80635,0.637565 1.77242,0.613743 1.7696,0.61018 1.72023,0.601475 1.64739,0.588632 1.58644,0.628451 1.54313,0.661711 1.50327,0.692317 1.46729,0.783813 1.44253,0.805479 1.43659,0.81068 1.29712,0.870066 1.2742,0.881522 1.20514,0.916066 1.19075,0.940546 1.10293,0.954613 0.951471,0.978869 0.869007,1.03592 0.765085,1.10551 z"
           id="path8"
           inkscape:connector-curvature="0"
           style="fill:#ffffff;fill-opacity:1" />
      </g>
    </svg>
  </g>
</svg>
