<?xml version="1.0" encoding="UTF-8" standalone="no"?>
<!-- SVG content generated using Symbology Configuration Management System (SCMS) -->

<!-- Systematic Software Engineering Ltd. - www.systematic.co.uk - do not remove  -->

<svg
   xmlns:dc="http://purl.org/dc/elements/1.1/"
   xmlns:cc="http://creativecommons.org/ns#"
   xmlns:rdf="http://www.w3.org/1999/02/22-rdf-syntax-ns#"
   xmlns:svg="http://www.w3.org/2000/svg"
   xmlns="http://www.w3.org/2000/svg"
   xmlns:sodipodi="http://sodipodi.sourceforge.net/DTD/sodipodi-0.dtd"
   xmlns:inkscape="http://www.inkscape.org/namespaces/inkscape"
   id="E-NPAG---------"
   width="248.11227"
   height="273.60785"
   viewBox="0 0 248.11227 273.60785"
   version="1.1"
   inkscape:version="0.48.2 r9819"
   sodipodi:docname="e-npag---------.svg">
  <metadata
     id="metadata18">
    <rdf:RDF>
      <cc:Work
         rdf:about="">
        <dc:format>image/svg+xml</dc:format>
        <dc:type
           rdf:resource="http://purl.org/dc/dcmitype/StillImage" />
      </cc:Work>
    </rdf:RDF>
  </metadata>
  <defs
     id="defs16" />
  <sodipodi:namedview
     pagecolor="#ffffff"
     bordercolor="#666666"
     borderopacity="1"
     objecttolerance="10"
     gridtolerance="10"
     guidetolerance="10"
     inkscape:pageopacity="0"
     inkscape:pageshadow="2"
     inkscape:window-width="721"
     inkscape:window-height="480"
     id="namedview14"
     showgrid="false"
     inkscape:zoom="0.59"
     inkscape:cx="119.37478"
     inkscape:cy="131.4694"
     inkscape:window-x="0"
     inkscape:window-y="0"
     inkscape:window-maximized="0"
     inkscape:current-layer="_64124992" />
  <g
     id="g3"
     transform="translate(-80.62522,-57.86154)">
    <svg
       viewBox="0 0 400 400"
       id="_0.VLCTHT_________"
       width="400"
       height="400"
       version="1.1"
       inkscape:version="0.48.2 r9819">
      <g
         transform="scale(170,170)"
         id="g6">
        <g
           id="_64124992">
          <path
             id="_65373472"
             d="m 0.474268,1.80388 0.437846,0.01327 0,-0.03981 L 0.540606,1.76407 0.7927,0.981258 l 0.82262,0 0.25209,0.782812 -0.37151,0.01327 0,0.03981 0.43785,-0.01327 C 1.90721,1.6712 1.82761,1.49871 1.7878,1.35277 1.76127,1.28642 1.68166,0.928187 1.61532,0.928187 l -0.822621,0 C 0.72636,0.928187 0.64675,1.28642 0.620215,1.35277 0.580412,1.49871 0.500802,1.6712 0.474266,1.80388 z"
             inkscape:connector-curvature="0"
             style="fill:#ffffff;fill-opacity:1" />
          <path
             id="_64119160"
             d="m 1.05806,1.77734 0,0.03981 c 0,0.06634 0.06634,0.13267 0.13268,0.13267 l 0.02654,0 c 0.06634,0 0.13268,-0.06633 0.13268,-0.13267 l 0,-0.03981 C 1.34996,1.711 1.28361,1.64466 1.21728,1.64466 l -0.02654,0 c -0.06634,0 -0.13268,0.06634 -0.13268,0.13268 z"
             inkscape:connector-curvature="0"
             style="fill:#ffffff;fill-opacity:1" />
        </g>
        <g
           id="_63611392">
          <path
             id="_65601640"
             d="m 1.07719,0.370488 0,0.063594 C 1.10204,0.433523 1.1415,0.40061 1.18764,0.40061 l 0.01005,0 c 0.04164,0 0.068,0.006209 0.08649,0.03065 C 1.30104,0.453551 1.30427,0.493972 1.29191,0.521618 1.26742,0.576413 1.16756,0.62422 1.16756,0.634905 l 0,0.10376 0.06695,0 0,-0.076984 c 0,-0.013028 0.14057,-0.076016 0.14057,-0.167354 l 0,-0.036815 c 0,-0.062906 -0.07739,-0.11715 -0.14392,-0.11715 l -0.03682,0 c -0.02346,0 -0.11715,0.0147 -0.11715,0.030126 z"
             inkscape:connector-curvature="0"
             style="fill:#ffffff;fill-opacity:1" />
          <polygon
             id="_66123952"
             points="1.1642,0.80226 1.1642,0.879236 1.23783,0.879236 1.23783,0.80226 "
             style="fill:#ffffff;fill-opacity:1" />
        </g>
      </g>
    </svg>
  </g>
</svg>
