<?xml version="1.0" encoding="UTF-8" standalone="no"?>
<!-- SVG content generated using Symbology Configuration Management System (SCMS) -->

<!-- Systematic Software Engineering Ltd. - www.systematic.co.uk - do not remove  -->

<svg
   xmlns:dc="http://purl.org/dc/elements/1.1/"
   xmlns:cc="http://creativecommons.org/ns#"
   xmlns:rdf="http://www.w3.org/1999/02/22-rdf-syntax-ns#"
   xmlns:svg="http://www.w3.org/2000/svg"
   xmlns="http://www.w3.org/2000/svg"
   xmlns:sodipodi="http://sodipodi.sourceforge.net/DTD/sodipodi-0.dtd"
   xmlns:inkscape="http://www.inkscape.org/namespaces/inkscape"
   id="E-NPCE---------"
   width="279.56192"
   height="203.60719"
   viewBox="0 0 279.56192 203.60719"
   version="1.1"
   inkscape:version="0.48.2 r9819"
   sodipodi:docname="e-npce---------.svg">
  <metadata
     id="metadata16">
    <rdf:RDF>
      <cc:Work
         rdf:about="">
        <dc:format>image/svg+xml</dc:format>
        <dc:type
           rdf:resource="http://purl.org/dc/dcmitype/StillImage" />
      </cc:Work>
    </rdf:RDF>
  </metadata>
  <defs
     id="defs14" />
  <sodipodi:namedview
     pagecolor="#ffffff"
     bordercolor="#666666"
     borderopacity="1"
     objecttolerance="10"
     gridtolerance="10"
     guidetolerance="10"
     inkscape:pageopacity="0"
     inkscape:pageshadow="2"
     inkscape:window-width="721"
     inkscape:window-height="480"
     id="namedview12"
     showgrid="false"
     inkscape:zoom="0.59"
     inkscape:cx="131.91392"
     inkscape:cy="122.2416"
     inkscape:window-x="0"
     inkscape:window-y="0"
     inkscape:window-maximized="0"
     inkscape:current-layer="g6" />
  <g
     id="g3"
     transform="translate(-68.08608,-118.6344)">
    <svg
       viewBox="0 0 400 400"
       id="_0.RDNT___________"
       width="400"
       height="400"
       version="1.1"
       inkscape:version="0.48.2 r9819">
      <g
         transform="scale(160,160)"
         id="g6">
        <path
           id="_119733392"
           d="m 1.09559,1.30454 c 0.0306,0.0457 0.11574,0.06757 0.19145,0.06757 0.01757,0 0.03259,-0.0103 0.04504,-0.01689 C 1.28332,1.28867 1.19065,1.29663 1.09559,1.30454 z"
           inkscape:connector-curvature="0"
           style="fill:#ffffff;fill-opacity:1" />
        <path
           id="_65792248"
           d="M 0.875996,1.34958 C 0.903331,1.3904 1.01202,1.4453 1.07871,1.4453 1.10041,1.4453 1.11583,1.42649 1.12375,1.41152 1.10371,1.3816 1.05508,1.34814 1.01559,1.33949 0.930249,1.3208 0.948205,1.34357 0.875997,1.34958 z"
           inkscape:connector-curvature="0"
           style="fill:#ffffff;fill-opacity:1" />
        <path
           id="_65581296"
           d="m 1.91768,1.49035 0.02815,0 C 1.9409,1.43106 1.82681,1.42485 1.82196,1.36648 L 1.77128,1.37211 c 0.00444,0.03462 0.02585,0.06939 0.05516,0.07998 0.02022,0.0073 0.03349,2.4e-4 0.05304,0.01453 0.00916,0.0067 0.02537,0.02373 0.0382,0.02373 z"
           inkscape:connector-curvature="0"
           style="fill:#ffffff;fill-opacity:1" />
        <path
           id="_65580432"
           d="M 1.69808,0.92165 C 1.71189,0.94776 1.71143,0.959693 1.73314,0.982311 1.74821,0.998004 1.77488,1.00981 1.77691,1.03426 1.73256,1.03057 1.67944,0.957063 1.67556,0.910386 1.62749,0.899189 1.48156,0.827926 1.42217,0.803402 1.35017,0.77367 1.23027,0.741465 1.12938,0.741465 l -0.05068,0 c -0.092017,0 -0.207489,0.057004 -0.262473,0.097894 C 0.746719,0.891048 0.695814,0.960509 0.695814,1.07931 l 0,0.01689 C 0.590279,1.12079 0.425538,1.29128 0.425538,1.41715 l 0,0.05631 c 0,0.14314 0.179583,0.23277 0.273657,0.29504 0.057393,0.038 0.10874,0.07688 0.163291,0.11825 C 0.912938,1.92501 0.969848,1.9826 1.01677,2.01401 0.968136,1.80527 0.498738,1.72089 0.498738,1.43404 0.498738,1.32837 0.610604,1.21741 0.695813,1.19756 0.692872,1.21018 0.690179,1.2105 0.690179,1.22571 l 0,0.01126 c 0,0.10425 0.180303,0.09399 0.266823,0.06974 C 1.07343,1.27409 1.14344,1.25602 1.27059,1.28157 1.39465,1.3065 1.4626,1.31672 1.56293,1.36648 1.64863,1.40898 1.60971,1.3946 1.66001,1.45522 1.68512,1.4855 1.68278,1.47983 1.72597,1.48498 1.7446,1.48721 1.76712,1.50818 1.78254,1.5185 l 0.03941,0 C 1.79099,1.45998 1.70851,1.45228 1.69245,1.38337 1.71085,1.34859 1.73125,1.34395 1.78254,1.34395 c 0.01941,0 0.0218,0.00417 0.03941,0.00563 C 1.81541,1.33593 1.80734,1.31017 1.83322,1.31017 l 0.04505,0 c 0.10548,0 0.20737,0.0572 0.29279,0 0,-0.06953 0.01061,-0.05185 -0.02057,-0.11456 C 2.14059,1.17571 2.10395,1.1329 2.08819,1.11713 2.05178,1.08073 1.95703,1.02275 1.93457,0.989217 1.93457,0.924827 1.92562,0.911469 1.87263,0.899126 L 1.86106,0.921481 1.87318,0.983485 1.85043,0.990449 1.85011,1.01174 l -0.01689,0 C 1.8286,0.956244 1.80587,0.876602 1.74876,0.876602 l -0.00563,0 c -0.04112,0 -0.03416,0.022347 -0.04505,0.045048 z"
           inkscape:connector-curvature="0"
           style="fill:#ffffff;fill-opacity:1" />
      </g>
    </svg>
  </g>
</svg>
