<?xml version="1.0" encoding="UTF-8" standalone="no"?>
<!-- SVG content generated using Symbology Configuration Management System (SCMS) -->

<!-- Systematic Software Engineering Ltd. - www.systematic.co.uk - do not remove  -->

<svg
   xmlns:dc="http://purl.org/dc/elements/1.1/"
   xmlns:cc="http://creativecommons.org/ns#"
   xmlns:rdf="http://www.w3.org/1999/02/22-rdf-syntax-ns#"
   xmlns:svg="http://www.w3.org/2000/svg"
   xmlns="http://www.w3.org/2000/svg"
   xmlns:sodipodi="http://sodipodi.sourceforge.net/DTD/sodipodi-0.dtd"
   xmlns:inkscape="http://www.inkscape.org/namespaces/inkscape"
   id="E-NPAB---------"
   width="155.7666"
   height="184.8232"
   viewBox="0 0 155.7666 184.8232"
   version="1.1"
   inkscape:version="0.48.2 r9819"
   sodipodi:docname="e-npab---------.svg">
  <metadata
     id="metadata15">
    <rdf:RDF>
      <cc:Work
         rdf:about="">
        <dc:format>image/svg+xml</dc:format>
        <dc:type
           rdf:resource="http://purl.org/dc/dcmitype/StillImage" />
      </cc:Work>
    </rdf:RDF>
  </metadata>
  <defs
     id="defs13" />
  <sodipodi:namedview
     pagecolor="#ffffff"
     bordercolor="#666666"
     borderopacity="1"
     objecttolerance="10"
     gridtolerance="10"
     guidetolerance="10"
     inkscape:pageopacity="0"
     inkscape:pageshadow="2"
     inkscape:window-width="973"
     inkscape:window-height="925"
     id="namedview11"
     showgrid="false"
     inkscape:zoom="0.59"
     inkscape:cx="76.3976"
     inkscape:cy="83.05"
     inkscape:window-x="0"
     inkscape:window-y="0"
     inkscape:window-maximized="0"
     inkscape:current-layer="g6" />
  <g
     id="g3"
     transform="translate(-123.6024,-98.2268)">
    <svg
       viewBox="0 0 400 400"
       id="_0.AVL____________"
       width="400"
       height="400"
       version="1.1"
       inkscape:version="0.48.2 r9819">
      <g
         transform="matrix(100,0,0,100,80,71)"
         id="g6">
        <polygon
           id="_65492976"
           points="1.35972,0.516772 1.17996,0.618807 1.19507,0.654339 1.38075,0.543524 1.38075,0.754496 1.42094,0.754496 1.42243,0.546055 1.60017,0.653087 1.61923,0.619717 1.43491,0.516567 1.62267,0.407272 1.59711,0.378374 1.42094,0.47822 1.42094,0.272268 1.38075,0.272268 1.38075,0.47822 1.1965,0.378705 1.18126,0.405551 "
           style="fill:#ffffff;fill-opacity:1" />
        <polygon
           id="_66340648"
           points="1.57765,1.75887 1.29841,0.743138 0.436024,2.0402 1.68278,2.0399 1.47125,1.78956 "
           style="fill:#ffffff;fill-opacity:1" />
        <polygon
           id="_65105008"
           points="1.91693,2.1205 1.99369,1.79466 1.88014,1.82886 1.6065,0.878957 1.51694,0.902323 1.79212,1.8529 1.67609,1.89083 "
           style="fill:#ffffff;fill-opacity:1" />
      </g>
    </svg>
  </g>
</svg>
