<?xml version="1.0" encoding="UTF-8" standalone="no"?>
<!--
Copyright (C) 2012 United States Government as represented by the Administrator of the
National Aeronautics and Space Administration.
All Rights Reserved.
-->

<!--
MIL-STD-2525 tactical symbol icon image. During icon composition this image is multiplied by the desired frame color 
(e.g. black), then drawn on top of the frame and fill.
-->

<svg
   xmlns:dc="http://purl.org/dc/elements/1.1/"
   xmlns:cc="http://creativecommons.org/ns#"
   xmlns:rdf="http://www.w3.org/1999/02/22-rdf-syntax-ns#"
   xmlns:svg="http://www.w3.org/2000/svg"
   xmlns="http://www.w3.org/2000/svg"
   xmlns:sodipodi="http://sodipodi.sourceforge.net/DTD/sodipodi-0.dtd"
   xmlns:inkscape="http://www.inkscape.org/namespaces/inkscape"
   height="400px"
   viewBox="0 0 400 400"
   width="400px"
   id="svg2"
   version="1.1"
   inkscape:version="0.48.2 r9819"
   sodipodi:docname="effabb---------.svg">
  <metadata
     id="metadata22">
    <rdf:RDF>
      <cc:Work
         rdf:about="">
        <dc:format>image/svg+xml</dc:format>
        <dc:type
           rdf:resource="http://purl.org/dc/dcmitype/StillImage" />
      </cc:Work>
    </rdf:RDF>
  </metadata>
  <defs
     id="defs20" />
  <sodipodi:namedview
     pagecolor="#ffffff"
     bordercolor="#666666"
     borderopacity="1"
     objecttolerance="10"
     gridtolerance="10"
     guidetolerance="10"
     inkscape:pageopacity="0"
     inkscape:pageshadow="2"
     inkscape:window-width="640"
     inkscape:window-height="480"
     id="namedview18"
     showgrid="false"
     inkscape:zoom="0.59"
     inkscape:cx="200"
     inkscape:cy="200"
     inkscape:window-x="0"
     inkscape:window-y="0"
     inkscape:window-maximized="0"
     inkscape:current-layer="svg2" />
  <path
     inkscape:connector-curvature="0"
     d="m 136.27965,223.3815 0,-6.042 c 0,-5.5365 6.38565,-18.504 7.80765,-23.502 1.88625,-6.6315 7.8387,-14.8455 11.8647,-19.995 8.8665,-11.343 21.3285,-22.419 41.2995,-22.419 l 10.986,0 c 8.607,0 22.065,10.8225 26.046,16.251 3.2265,4.4025 5.5365,7.7295 8.4495,12.423 1.1175,1.8015 6.702,12.93 6.702,14.721 l 0,1.647 1.098,0 0,1.6485 c 0,1.1055 2.1975,3.7215 2.118,7.7565 l 1.1775,1.581 c 0,5.163 2.694,16.908 3.3075,22.5105 0.885,8.076 3.27,14.0745 -1.659,21.4335 0,5.991 -12.933,21.819 -15.45,21.8505 l -23.001,-3.723 c -4.536,-0.735 -16.9785,4.9425 -23.07,4.9425 -5.0475,0 -13.9875,-4.3935 -18.6765,-4.3935 -4.0515,0 -8.0595,3.2955 -13.7325,3.2955 l -1.647,0 c -4.8,0 -14.8707,-15.3705 -17.5872,-19.2165 -4.49295,-6.36 -6.03315,-20.061 -6.03315,-30.7695 z m 76.76985,-77.54475 -15.249,-2.65215 c -1.827,-0.3036 -12.9675,2.6652 -14.361,3.3402 l -15.8025,-28.76745 4.347,1.25835 0.0675,-7.31385 22.3125,8.4 0.7635,-8.8725 8.139,6.0768 14.3085,-6.5298 0.0705,6.4104 18.651,-3.6312 -23.2455,32.28135 z m 29.421,-36.03135 -22.746,4.0152 0.048,-6.88935 c -2.256,1.1934 -14.2365,7.1403 -16.479,7.1403 -0.1275,0 -8.4405,-6.375 -9.888,-7.1403 l -1.7025,9.8763 -21.834,-8.9835 -0.0825,7.34655 -7.6275,-2.39355 20.31,37.77045 -0.597,0.327 c -11.6325,2.709 -25.6725,16.8945 -31.7505,25.926 -1.9539,2.904 -3.18525,6.555 -5.1381,9.144 -3.4128,4.5225 -2.2512,6.102 -4.32,9.9615 -1.48575,2.772 -7.12965,17.8845 -7.12965,21.4335 l 0,9.3375 c 0,2.586 1.73205,14.3595 2.4201,16.806 0.94185,3.348 0.7884,4.8015 1.8921,7.995 0.7731,2.235 2.21985,3.948 3.4872,5.85 3.3537,5.0295 12.06735,18.786 19.11585,18.786 6.237,0 10.6515,-3.297 14.2815,-3.297 5.7675,0 12.9885,4.395 18.1275,4.395 l 1.647,0 c 5.1405,0 14.2395,-3.5685 20.1045,-4.656 4.419,-0.819 14.6625,2.4585 21.093,2.4585 l 4.3935,0 c 4.1655,0 12.0495,-10.449 14.4375,-13.578 2.6145,-3.4275 3.0945,-5.448 4.239,-10.041 0.2805,-1.1235 2.7465,-10.8105 2.7465,-10.986 0,-7.5375 -2.196,-10.2735 -2.721,-14.856 -0.687,-5.9955 -0.885,-10.1145 -1.6845,-15.3435 -0.66,-4.3125 -7.0365,-21.5175 -9.024,-25.5825 -6.0135,-12.306 -19.212,-32.9955 -34.8915,-34.29 z"
     style="fill:#000000;stroke:#000000;stroke-width:6;stroke-miterlimit:4;stroke-opacity:1;stroke-dasharray:12, 6;stroke-dashoffset:0"
     id="path6" />
  <path
     inkscape:connector-curvature="0"
     d="m 236.2965,113.55585 -18.651,3.63135 -0.0705,-6.41055 -14.31,6.5298 -8.1375,-6.0768 -0.7635,8.8725 -22.3125,-8.4 -0.0675,7.314 -4.347,-1.2585 15.8025,28.76745 c 1.3935,-0.675 12.534,-3.64365 14.361,-3.3402 l 15.249,2.65215 23.247,-32.28135 z"
     style="fill:#ffffff;stroke:#000000;stroke-width:6;stroke-miterlimit:4;stroke-opacity:1;stroke-dasharray:12, 6;stroke-dashoffset:0"
     id="path8" />
  <path
     inkscape:connector-curvature="0"
     d="m 199.449,209.1 c 9,2.097 22.521,6.4635 22.521,17.028 l 0,4.395 c 0,11.8065 -10.3545,20.3235 -22.521,20.3235 l 0,9.8865 -4.944,0 0,-9.8865 c -5.1015,0 -10.437,-1.857 -13.6335,-3.942 -4.9875,-3.255 -4.347,-6.021 -7.164,-10.3455 l -0.624,-8.7825 8.238,0 c 0,8.766 4.5165,15.1875 13.1835,15.3795 l 0,-26.3655 c -3.291,-0.2745 -10.3545,-3.309 -12.7545,-4.8225 -2.4915,-1.5735 -7.569,-7.4775 -7.569,-10.557 l 0,-6.5925 c 0,-8.7915 10.5735,-17.361 20.3235,-17.577 l 0,-6.042 4.944,0 0,6.042 c 11.0115,2.565 20.3235,5.904 20.3235,19.224 l -8.7885,0 0,-2.196 c 0,-4.7085 -6.1485,-8.79 -11.535,-8.79 z m -63.1689,14.2815 c 0,10.7085 1.5402,24.4095 6.03315,30.7695 2.7165,3.846 12.78825,19.2165 17.58675,19.2165 l 1.647,0 c 5.673,0 9.681,-3.2955 13.7325,-3.2955 4.689,0 13.6305,4.395 18.6765,4.395 6.0915,0 18.5355,-5.6775 23.0715,-4.944 l 22.9995,3.7245 c 2.517,-0.033 15.45,-15.861 15.45,-21.852 4.929,-7.359 2.544,-13.356 1.659,-21.4335 -0.6135,-5.6025 -3.306,-17.3475 -3.306,-22.509 l -1.179,-1.5825 c 0.0795,-4.035 -2.118,-6.651 -2.118,-7.7565 l 0,-1.647 -1.098,0 0,-1.6485 c 0,-1.791 -5.583,-12.9195 -6.702,-14.721 -2.913,-4.692 -5.223,-8.0205 -8.4495,-12.423 -3.9795,-5.427 -17.439,-16.2495 -26.046,-16.2495 l -10.986,0 c -19.9695,0 -32.4315,11.0745 -41.2995,22.4175 -4.026,5.151 -9.978,13.3635 -11.86425,19.995 -1.422,4.998 -7.80765,17.9655 -7.80765,23.502 z"
     style="fill:#ffffff;stroke:#000000;stroke-width:6;stroke-miterlimit:4;stroke-opacity:1;stroke-dasharray:12, 6;stroke-dashoffset:0"
     id="path10" />
  <path
     inkscape:connector-curvature="0"
     d="m 182.97,196.467 0,2.1975 c 0,5.4075 6.9,8.2575 11.535,9.3375 l 0,-22.521 -1.647,0 c -5.709,0 -9.888,5.1825 -9.888,10.986 z"
     style="fill:#ffffff;stroke:#000000;stroke-width:6;stroke-miterlimit:4;stroke-opacity:1;stroke-dasharray:12, 6;stroke-dashoffset:0"
     id="path12" />
  <path
     inkscape:connector-curvature="0"
     d="m 199.449,243.156 c 7.9125,0 13.1835,-4.3395 13.1835,-12.084 l 0,-1.6485 c 0,-6.2145 -7.128,-10.851 -13.1835,-10.986 z"
     style="fill:#ffffff;stroke:#000000;stroke-width:6;stroke-miterlimit:4;stroke-opacity:1;stroke-dasharray:12, 6;stroke-dashoffset:0"
     id="path14" />
  <path
     inkscape:connector-curvature="0"
     d="m 199.449,218.439 c 6.0555,0.135 13.1835,4.7715 13.1835,10.986 l 0,1.647 c 0,7.746 -5.271,12.0855 -13.1835,12.0855 z M 182.97,196.467 c 0,-5.8035 4.179,-10.986 9.888,-10.986 l 1.647,0 0,22.521 c -4.635,-1.08 -11.535,-3.93 -11.535,-9.3375 z m 16.479,-10.986 c 5.3865,0 11.535,4.08 11.535,8.7885 l 0,2.1975 8.7885,0 c 0,-13.3215 -9.312,-16.6605 -20.3235,-19.224 l 0,-6.0435 -4.944,0 0,6.0435 c -9.75,0.216 -20.3235,8.7855 -20.3235,17.577 l 0,6.591 c 0,3.0795 5.0775,8.985 7.569,10.557 2.4,1.515 9.4635,4.5495 12.7545,4.8225 l 0,26.367 c -8.667,-0.1935 -13.1835,-6.615 -13.1835,-15.381 l -8.238,0 0.624,8.7825 c 2.817,4.326 2.1765,7.092 7.164,10.3455 3.1965,2.0865 8.532,3.9435 13.6335,3.9435 l 0,9.8865 4.944,0 0,-9.8865 c 12.1665,0 22.521,-8.517 22.521,-20.325 l 0,-4.3935 c 0,-10.5645 -13.521,-14.931 -22.521,-17.028 z"
     style="fill:#000000;stroke:none"
     id="path16" />
</svg>
