<?xml version="1.0" encoding="UTF-8" standalone="no"?>
<!--
Copyright (C) 2012 United States Government as represented by the Administrator of the
National Aeronautics and Space Administration.
All Rights Reserved.
-->

<!--
MIL-STD-2525 tactical symbol icon image. During icon composition this image is multiplied by the desired frame color 
(e.g. black), then drawn on top of the frame and fill.
-->

<svg
   xmlns:dc="http://purl.org/dc/elements/1.1/"
   xmlns:cc="http://creativecommons.org/ns#"
   xmlns:rdf="http://www.w3.org/1999/02/22-rdf-syntax-ns#"
   xmlns:svg="http://www.w3.org/2000/svg"
   xmlns="http://www.w3.org/2000/svg"
   xmlns:sodipodi="http://sodipodi.sourceforge.net/DTD/sodipodi-0.dtd"
   xmlns:inkscape="http://www.inkscape.org/namespaces/inkscape"
   height="400px"
   viewBox="0 0 400 400"
   width="400px"
   id="svg2"
   version="1.1"
   inkscape:version="0.48.2 r9819"
   sodipodi:docname="effami---------.svg">
  <metadata
     id="metadata28">
    <rdf:RDF>
      <cc:Work
         rdf:about="">
        <dc:format>image/svg+xml</dc:format>
        <dc:type
           rdf:resource="http://purl.org/dc/dcmitype/StillImage" />
      </cc:Work>
    </rdf:RDF>
  </metadata>
  <defs
     id="defs26" />
  <sodipodi:namedview
     pagecolor="#ffffff"
     bordercolor="#666666"
     borderopacity="1"
     objecttolerance="10"
     gridtolerance="10"
     guidetolerance="10"
     inkscape:pageopacity="0"
     inkscape:pageshadow="2"
     inkscape:window-width="640"
     inkscape:window-height="480"
     id="namedview24"
     showgrid="false"
     inkscape:zoom="0.59"
     inkscape:cx="200"
     inkscape:cy="200"
     inkscape:window-x="212"
     inkscape:window-y="89"
     inkscape:window-maximized="0"
     inkscape:current-layer="svg2" />
  <g
     id="g3005"
     transform="matrix(100,0,0,100,347.41485,72.6667)">
    <path
       id="path3017"
       style="fill:#000000;stroke:#000000;stroke-width:0.06;stroke-miterlimit:4;stroke-opacity:1;stroke-dasharray:0.12, 0.06;stroke-dashoffset:0"
       d="m -1.5530433,1.10048 0.16838,0 0,0.33209 -0.16838,0 z m 0,0.43032 0.16838,0 0,0.25258 0.88871,0 0,-1.033711 -0.8887,-0.005827 -10e-6,0.258408 -0.16838,0 0,-0.252582 -0.884028,-0.005838 -8e-6,1.03955 0.884036,0 z"
       inkscape:connector-curvature="0"
       sodipodi:nodetypes="cccccccccccccccccc" />
  </g>
  <g
     transform="matrix(100,0,0,100,74.6667,72.6667)"
     id="g4">
    <path
       inkscape:connector-curvature="0"
       d="m 0.383303,0.997571 0,0.037419 c 0.074555,0 0.076846,-0.0246 0.116937,-0.05145 0.030965,0.02269 0.042331,0.05145 0.102902,0.05145 l 0.014032,0 c 0.072854,0 0.073295,-0.02536 0.11226,-0.05145 0.034425,0.02305 0.040889,0.05145 0.107579,0.05145 l 0.014031,0 c 0.066693,0 0.073158,-0.0284 0.107583,-0.05145 0.040894,0.02739 0.039894,0.05145 0.116933,0.05145 l 0,-0.037419 c -0.04983,0 -0.093547,-0.036106 -0.093547,-0.084193 l -0.046772,0 0,0.018709 c 0,0.028634 -0.046752,0.065484 -0.084197,0.065484 l -0.004673,0 c -0.050972,0 -0.092465,-0.03539 -0.093551,-0.084193 l -0.046776,0 C 0.705107,0.955595 0.663017,0.997571 0.617174,0.997571 l -0.009354,0 c -0.048733,0 -0.080347,-0.037953 -0.084193,-0.084193 l -0.046776,0 C 0.473028,0.959323 0.433981,0.997571 0.383304,0.997571 z"
       style="fill:#ffffff"
       id="path6" />
    <path
       inkscape:connector-curvature="0"
       d="m 1.52459,0.927409 c 0,0.033843 -0.04522,0.070161 -0.08887,0.070161 l 0,0.03742 C 1.48086,1.03499 1.5344,1.0122 1.5433,0.978862 1.5841,1.00618 1.5865,1.03499 1.66491,1.03499 l 0.00936,0 c 0.06566,0 0.073,-0.03298 0.10758,-0.056128 C 1.79032,1.0106 1.8425,1.03499 1.88475,1.03499 l 0.01871,0 c 0.06823,0 0.07634,-0.03208 0.11226,-0.056128 0.0087,0.032598 0.06681,0.056128 0.11226,0.056128 l 0,-0.03742 c -0.04253,0 -0.09355,-0.039015 -0.09355,-0.070161 l 0,-0.014031 -0.0421,0 C 1.9886,0.958263 1.9517,0.99757 1.90346,0.99757 l -0.01403,0 c -0.03893,0 -0.0842,-0.035098 -0.0842,-0.070161 l 0,-0.014031 -0.04677,0 C 1.7575,0.956374 1.71495,0.99757 1.66959,0.99757 l -0.00936,0 C 1.6134,0.99757 1.5724,0.959834 1.57136,0.913378 l -0.04677,0 z"
       style="fill:#000000"
       id="path8" />
    <path
       inkscape:connector-curvature="0"
       d="m 0.383303,1.29693 0,0.03742 c 0.057965,0 0.089075,-0.02151 0.11226,-0.05613 0.035909,0.02405 0.044024,0.05613 0.112256,0.05613 l 0.014031,0 c 0.077406,0 0.087252,-0.04945 0.112261,-0.05613 0.008476,0.03174 0.060649,0.05613 0.102901,0.05613 l 0.014032,0 c 0.042256,0 0.094429,-0.02439 0.102906,-0.05613 0.027043,0.00722 0.031307,0.05613 0.12161,0.05613 l 0,-0.03742 c -0.04983,0 -0.093547,-0.03611 -0.093547,-0.08419 l -0.046772,0 0,0.01871 c 0,0.02863 -0.046752,0.06548 -0.084197,0.06548 l -0.004673,0 c -0.050972,0 -0.092465,-0.03539 -0.093551,-0.08419 l -0.046776,0 C 0.705131,1.25379 0.662828,1.29693 0.617174,1.29693 l -0.009354,0 c -0.048733,0 -0.080347,-0.03795 -0.084193,-0.08419 l -0.046776,0 C 0.473028,1.25868 0.433981,1.29693 0.383304,1.29693 z"
       style="fill:#ffffff"
       id="path10" />
    <path
       inkscape:connector-curvature="0"
       d="m 1.52459,1.22676 c 0,0.03384 -0.04522,0.07016 -0.08887,0.07016 l 0,0.03742 c 0.08649,0 0.08819,-0.04845 0.11693,-0.05613 0.00871,0.0326 0.06681,0.05613 0.11226,0.05613 l 0.00468,0 c 0.07157,0 0.07466,-0.03201 0.10758,-0.05613 0.03137,0.02298 0.04222,0.05613 0.10758,0.05613 l 0.01871,0 c 0.06536,0 0.07621,-0.03315 0.10758,-0.05613 0.0379,0.02538 0.03915,0.05613 0.11694,0.05613 l 0,-0.03742 c -0.04253,0 -0.09355,-0.03901 -0.09355,-0.07016 l 0,-0.01403 -0.0421,0 C 1.98859,1.25761 1.9517,1.29692 1.90346,1.29692 l -0.01403,0 c -0.03498,0 -0.0842,-0.03631 -0.0842,-0.06081 l 0,-0.02338 -0.04677,0 C 1.7575,1.25572 1.71495,1.29692 1.66959,1.29692 l -0.00936,0 C 1.6134,1.29692 1.5724,1.25919 1.57136,1.21273 l -0.04677,0 z"
       style="fill:#000000"
       id="path12" />
    <polygon
       points="1.3375,1.43257 1.3375,1.10048 1.16911,1.10048 1.16911,1.43257 "
       style="fill:#ffffff"
       id="polygon14" />
    <path
       inkscape:connector-curvature="0"
       d="m 1.37959,0.801118 0.79984,0 0,0.926132 -0.79984,0 z M 0.383299,1.6337 l 0,-0.03742 c 0.049437,0 0.092535,-0.03868 0.093547,-0.08419 l 0.046776,0 c 0.001,0.04491 0.037945,0.08419 0.084193,0.08419 l 0.009354,0 c 0.04589,0 0.087866,-0.03907 0.08887,-0.08419 l 0.046776,0 c 0.00111,0.04976 0.04172,0.08419 0.093551,0.08419 l 0.004673,0 c 0.053681,0 0.07861,-0.04015 0.088874,-0.08419 l 0.042095,0 C 0.983102,1.56128 1.02372,1.59628 1.07556,1.59628 l 0,0.03742 c -0.05,0 -0.102773,-0.02528 -0.112261,-0.06081 C 0.930708,1.59472 0.922015,1.6337 0.851039,1.6337 l -0.014032,0 C 0.765362,1.6337 0.760338,1.59672 0.724751,1.57289 0.716031,1.60555 0.665885,1.6337 0.621845,1.6337 l -0.014031,0 C 0.549133,1.6337 0.524019,1.6029 0.495558,1.57289 0.486282,1.60763 0.430581,1.6337 0.383298,1.6337 z m 0.785811,-0.53322 0.16838,0 0,0.33209 -0.16838,0 z M 0.383299,1.29693 c 0.050677,0 0.089724,-0.03825 0.093547,-0.0842 l 0.046776,0 c 0.003846,0.04624 0.03546,0.0842 0.084193,0.0842 l 0.009354,0 c 0.045654,0 0.087957,-0.04315 0.08887,-0.0842 l 0.046776,0 c 0.001086,0.04881 0.042578,0.0842 0.093551,0.0842 l 0.004673,0 c 0.037445,0 0.084197,-0.03685 0.084197,-0.06549 l 0,-0.01871 0.046772,0 c 0,0.04809 0.043712,0.0842 0.093552,0.0842 l 0,0.03742 C 0.985252,1.33435 0.980988,1.28544 0.953945,1.27822 0.945469,1.30995 0.893295,1.33435 0.851039,1.33435 l -0.014032,0 c -0.042252,0 -0.094425,-0.0244 -0.102902,-0.05613 -0.025007,0.00667 -0.034854,0.05613 -0.11226,0.05613 l -0.014031,0 C 0.539582,1.33435 0.531467,1.30226 0.495558,1.27822 0.472373,1.31284 0.441263,1.33435 0.383298,1.33435 l 0,-0.03742 z m 0,-0.299358 c 0.050677,0 0.089724,-0.038248 0.093547,-0.084193 l 0.046776,0 c 0.003846,0.04624 0.03546,0.084193 0.084193,0.084193 l 0.009354,0 c 0.045843,0 0.087933,-0.041976 0.08887,-0.084193 l 0.046776,0 c 0.001086,0.048803 0.042578,0.084193 0.093551,0.084193 l 0.004673,0 c 0.037445,0 0.084197,-0.03685 0.084197,-0.065484 l 0,-0.018709 0.046772,0 c 0,0.048087 0.043712,0.084193 0.093552,0.084193 l 0,0.037418 C 0.998516,1.03499 0.999516,1.01093 0.958622,0.98354 0.924197,1.00659 0.917732,1.03499 0.851039,1.03499 l -0.014032,0 c -0.066689,0 -0.073153,-0.0284 -0.107579,-0.05145 -0.038964,0.02609 -0.039405,0.05145 -0.11226,0.05145 l -0.014031,0 C 0.542566,1.03499 0.5312,1.00623 0.500235,0.98354 0.460144,1.01039 0.457853,1.03499 0.383298,1.03499 l 0,-0.037418 z M 1.16911,1.5308 l 0.16838,0 0,0.25258 0.88871,0 0,-1.033711 -0.8887,-0.005827 -10e-6,0.258408 -0.16838,0 0,-0.252582 -0.884028,-0.005838 -8e-6,1.03955 0.884036,0 z"
       style="fill:#000000"
       id="path16" />
    <path
       inkscape:connector-curvature="0"
       d="m 1.43572,1.6337 0,-0.03742 c 0.05392,0 0.08474,-0.03453 0.08887,-0.08419 l 0.03274,0 c 0.02429,0 0.02045,0.08419 0.10291,0.08419 l 0.00935,0 c 0.05511,0 0.05889,-0.03451 0.083,-0.05165 l 0.00587,-0.03254 0.0421,0 c 0.00413,0.04959 0.0392,0.08419 0.09355,0.08419 l 0.00935,0 c 0.04558,0 0.08789,-0.0401 0.08887,-0.08419 l 0.03743,0 c 0.01042,0.04476 0.04315,0.08419 0.09822,0.08419 l 0,0.03742 C 2.0807,1.6337 2.025,1.60763 2.01572,1.57289 1.97947,1.59717 1.9718,1.6337 1.90346,1.6337 l -0.00935,0 c -0.04888,0 -0.10265,-0.0248 -0.11226,-0.06081 l -0.00935,0 C 1.76355,1.60641 1.71514,1.6337 1.66959,1.6337 l -0.00935,0 C 1.58738,1.6337 1.58217,1.59892 1.5433,1.57289 1.53399,1.60778 1.48303,1.6337 1.43572,1.6337 z m 0.08887,-0.42097 0.04678,0 C 1.5724,1.25919 1.61341,1.29692 1.66024,1.29692 l 0.00935,0 c 0.04537,0 0.08791,-0.04119 0.08887,-0.08419 l 0.04678,0 0,0.02339 c 0,0.02449 0.04921,0.0608 0.08419,0.0608 l 0.01403,0 c 0.04824,0 0.08514,-0.0393 0.08887,-0.08419 l 0.0421,0 0,0.01403 c 0,0.03115 0.05102,0.07016 0.09355,0.07016 l 0,0.03743 C 2.0502,1.33435 2.04894,1.30359 2.01104,1.27822 1.97968,1.3012 1.96882,1.33435 1.90346,1.33435 l -0.0187,0 C 1.8194,1.33435 1.80854,1.3012 1.77717,1.27822 1.74425,1.30234 1.74116,1.33435 1.66959,1.33435 l -0.00468,0 C 1.61947,1.33435 1.56136,1.31081 1.55266,1.27822 1.52391,1.28589 1.52222,1.33435 1.43572,1.33435 l 0,-0.03743 c 0.04365,0 0.08887,-0.03631 0.08887,-0.07016 z m 0,-0.299353 0.04678,0 C 1.5724,0.959834 1.61341,0.99757 1.66024,0.99757 l 0.00935,0 c 0.04537,0 0.08791,-0.041197 0.08887,-0.084193 l 0.04678,0 0,0.014031 c 0,0.035063 0.04526,0.070162 0.08419,0.070162 l 0.01403,0 c 0.04824,0 0.08514,-0.039307 0.08887,-0.084193 l 0.0421,0 0,0.014031 c 0,0.031146 0.05102,0.070162 0.09355,0.070162 l 0,0.03742 C 2.08253,1.03499 2.02442,1.01146 2.01572,0.978861 1.97981,1.00291 1.97169,1.03499 1.90346,1.03499 l -0.0187,0 C 1.8425,1.03499 1.79033,1.0106 1.78185,0.978861 1.74727,1.00201 1.73993,1.03499 1.67427,1.03499 l -0.00936,0 C 1.58651,1.03499 1.5841,1.00618 1.5433,0.978861 1.5344,1.0122 1.48087,1.03499 1.43572,1.03499 l 0,-0.03742 c 0.04365,0 0.08887,-0.036319 0.08887,-0.070161 z m -0.145,0.813873 0.79984,0 0,-0.926133 -0.79984,0 z"
       style="fill:#ffffff"
       id="path18" />
    <path
       inkscape:connector-curvature="0"
       d="m 0.383303,1.6337 c 0.047283,0 0.102984,-0.02607 0.11226,-0.06081 C 0.524024,1.6029 0.549138,1.6337 0.607819,1.6337 l 0.014031,0 c 0.04404,0 0.094185,-0.02815 0.102907,-0.06081 0.035586,0.02383 0.04061,0.06081 0.112256,0.06081 l 0.014031,0 c 0.070976,0 0.079669,-0.03898 0.11226,-0.06081 C 0.972792,1.60842 1.02556,1.6337 1.07556,1.6337 l 0,-0.03742 c -0.05183,0 -0.092453,-0.035 -0.093547,-0.08419 l -0.042095,0 C 0.929654,1.55613 0.904725,1.59628 0.851044,1.59628 l -0.004673,0 C 0.79454,1.59628 0.75393,1.56185 0.75282,1.51209 l -0.046776,0 C 0.70504,1.55721 0.663064,1.59628 0.617174,1.59628 l -0.009354,0 C 0.561572,1.59628 0.524627,1.557 0.523627,1.51209 l -0.046776,0 C 0.47584,1.5576 0.432741,1.59628 0.383304,1.59628 l 0,0.03742 z"
       style="fill:#ffffff"
       id="path20" />
    <path
       inkscape:connector-curvature="0"
       d="m 1.43572,1.6337 c 0.04731,0 0.09827,-0.02592 0.10758,-0.06081 0.03887,0.02603 0.04408,0.06081 0.11694,0.06081 l 0.00935,0 c 0.04555,0 0.09396,-0.02729 0.10291,-0.06081 l 0.00935,0 C 1.79146,1.6089 1.84523,1.6337 1.89411,1.6337 l 0.00935,0 C 1.9718,1.6337 1.97947,1.59717 2.01572,1.57289 2.025,1.60763 2.0807,1.6337 2.12798,1.6337 l 0,-0.03742 c -0.05507,0 -0.0878,-0.03943 -0.09822,-0.08419 l -0.03742,0 C 1.99135,1.55618 1.94904,1.59628 1.90347,1.59628 l -0.00936,0 c -0.05435,0 -0.08942,-0.0346 -0.09355,-0.08419 l -0.04209,0 L 1.7526,1.54463 C 1.72848,1.56177 1.7247,1.59628 1.6696,1.59628 l -0.00936,0 c -0.08246,0 -0.07862,-0.08419 -0.10291,-0.08419 l -0.03274,0 C 1.52046,1.56175 1.48964,1.59628 1.43572,1.59628 z"
       style="fill:#000000"
       id="path22" />
  </g>
</svg>
