<?xml version="1.0" encoding="UTF-8" standalone="no"?>
<!--
Copyright (C) 2012 United States Government as represented by the Administrator of the
National Aeronautics and Space Administration.
All Rights Reserved.
-->

<!--
MIL-STD-2525 tactical symbol icon image. During icon composition this image is multiplied by the desired frame color 
(e.g. black), then drawn on top of the frame and fill.
-->

<svg
   xmlns:dc="http://purl.org/dc/elements/1.1/"
   xmlns:cc="http://creativecommons.org/ns#"
   xmlns:rdf="http://www.w3.org/1999/02/22-rdf-syntax-ns#"
   xmlns:svg="http://www.w3.org/2000/svg"
   xmlns="http://www.w3.org/2000/svg"
   xmlns:sodipodi="http://sodipodi.sourceforge.net/DTD/sodipodi-0.dtd"
   xmlns:inkscape="http://www.inkscape.org/namespaces/inkscape"
   height="400px"
   viewBox="0 0 400 400"
   width="400px"
   id="svg2"
   version="1.1"
   inkscape:version="0.48.2 r9819"
   sodipodi:docname="effamb---------.svg">
  <metadata
     id="metadata12">
    <rdf:RDF>
      <cc:Work
         rdf:about="">
        <dc:format>image/svg+xml</dc:format>
        <dc:type
           rdf:resource="http://purl.org/dc/dcmitype/StillImage" />
      </cc:Work>
    </rdf:RDF>
  </metadata>
  <defs
     id="defs10" />
  <sodipodi:namedview
     pagecolor="#ffffff"
     bordercolor="#666666"
     borderopacity="1"
     objecttolerance="10"
     gridtolerance="10"
     guidetolerance="10"
     inkscape:pageopacity="0"
     inkscape:pageshadow="2"
     inkscape:window-width="640"
     inkscape:window-height="480"
     id="namedview8"
     showgrid="false"
     inkscape:zoom="0.59"
     inkscape:cx="200"
     inkscape:cy="200"
     inkscape:window-x="0"
     inkscape:window-y="0"
     inkscape:window-maximized="0"
     inkscape:current-layer="svg2" />
  <g
     transform="matrix(100,0,0,100,74,73)"
     id="g4"
     style="stroke:#000000;stroke-width:0.04;stroke-miterlimit:4;stroke-opacity:1;stroke-dasharray:0.08, 0.04;stroke-dashoffset:0">
    <path
       inkscape:connector-curvature="0"
       d="m 0.503327,1.00066 c 0.058197,0 0.078591,-0.042512 0.113673,-0.066004 0.027,0.01978 0.055772,0.066004 0.110008,0.066004 l 0.003665,0 c 0.065099,0 0.082658,-0.042779 0.117339,-0.066004 C 0.883048,0.958113 0.903481,1.00066 0.965355,1.00066 1.02576,1.00066 1.04698,0.956117 1.07903,0.934656 1.09544,0.945644 1.10711,0.962703 1.12674,0.974944 1.13656,0.981069 1.1817,0.996786 1.1817,1.00799 l 0,0.16868 C 1.14945,1.16916 1.09059,1.11821 1.08269,1.08866 l -0.00733,0 C 1.0677,1.11736 1.00125,1.18033 0.961686,1.18033 0.924131,1.18033 0.859536,1.11442 0.851682,1.08499 0.82769,1.10106 0.785647,1.18033 0.738009,1.18033 l -0.011,0 C 0.69721,1.18033 0.62708,1.11267 0.62067,1.08866 0.60141,1.09381 0.557072,1.18033 0.503327,1.18033 l -0.007331,0 C 0.46928,1.18033 0.453866,1.16208 0.437323,1.151 L 0.410717,1.17955 c 0.025492,0.01722 0.039165,0.04479 0.08161,0.04479 l 0.011,0 c 0.056854,0 0.078492,-0.04611 0.113673,-0.06967 0.018339,0.02738 0.0705,0.06967 0.117339,0.06967 0.05702,0 0.08252,-0.04881 0.113673,-0.06967 0.031441,0.02105 0.064382,0.06967 0.117343,0.06967 0.052885,0 0.084375,-0.05223 0.117335,-0.06967 0.01702,0.02541 0.06431,0.05792 0.09901,0.066 l 0,0.17601 C 1.14835,1.3939 1.09698,1.33567 1.08269,1.30868 1.05552,1.32687 1.0195,1.40035 0.965355,1.40035 l -0.003669,0 C 0.905016,1.40035 0.859422,1.3127 0.844347,1.30868 0.838028,1.33235 0.769555,1.40035 0.741674,1.40035 l -0.011,0 c -0.0535,0 -0.090099,-0.07343 -0.117339,-0.09167 C 0.599933,1.334 0.543591,1.40035 0.510662,1.40035 l -0.022,0 c -0.017878,0 -0.041985,-0.02428 -0.055004,-0.033 L 0.41104,1.40359 c 0.027334,0.01832 0.042878,0.04076 0.088622,0.04076 0.06674,0 0.078295,-0.04534 0.117339,-0.066 0.034027,0.02278 0.051071,0.066 0.117339,0.066 0.055138,0 0.083527,-0.04582 0.113673,-0.066 0.035334,0.02366 0.062866,0.066 0.121008,0.066 0.044689,0 0.084819,-0.04913 0.110009,-0.066 C 1.10106,1.39001 1.1041,1.40257 1.12814,1.41724 1.13946,1.42416 1.1817,1.43572 1.1817,1.44802 l 0,0.16867 C 1.14749,1.60872 1.09134,1.56106 1.08269,1.52869 1.05594,1.5466 1.02006,1.62403 0.961686,1.62403 0.925765,1.62403 0.859434,1.55773 0.851682,1.52869 0.822462,1.54825 0.787804,1.62403 0.730674,1.62403 0.680194,1.62403 0.637855,1.54511 0.613335,1.52869 0.606185,1.55547 0.539016,1.62403 0.506996,1.62403 l -0.014669,0 c -0.020693,0 -0.044925,-0.0238 -0.05867,-0.033 L 0.410783,1.62337 C 0.437618,1.64141 0.456457,1.66803 0.499661,1.66803 0.556043,1.66803 0.581886,1.62187 0.617,1.59836 0.645851,1.61768 0.680563,1.66999 0.734063,1.66782 0.79113,1.6655 0.815579,1.62008 0.848012,1.59836 0.877772,1.61829 0.916268,1.66803 0.965355,1.66803 1.0122,1.66803 1.05135,1.61689 1.07903,1.59836 1.1185,1.62479 1.12267,1.64694 1.1817,1.6607 l 0,0.12467 0.42536,0 -0.03377,-0.1318 c 0.02144,0.00461 0.02558,0.01446 0.05577,0.01446 0.04983,0 0.082,-0.04846 0.11367,-0.06967 0.03281,0.02197 0.0589,0.06967 0.11734,0.06967 0.0399,0 0.09633,-0.04383 0.11001,-0.06967 0.03313,0.00772 0.06198,0.06967 0.12834,0.06967 0.02854,0 0.06498,-0.03376 0.08434,-0.044 L 2.1568,1.59128 C 2.14032,1.60226 2.1205,1.62403 2.09108,1.62403 2.03862,1.62403 1.99935,1.54745 1.97374,1.52869 1.95665,1.56432 1.90635,1.62403 1.85641,1.62403 1.82391,1.62403 1.74894,1.55921 1.7464,1.52869 1.72063,1.54595 1.68091,1.62403 1.62906,1.62403 l -0.00367,0 C 1.59796,1.62403 1.57114,1.60148 1.557,1.58607 1.54839,1.57668 1.53565,1.52278 1.53005,1.50669 1.52135,1.48168 1.48605,1.36564 1.48605,1.34168 L 1.47818,1.33112 1.47872,1.31601 1.47085,1.30545 1.47138,1.29034 1.46352,1.27978 1.33249,0.814577 1.33624,0.813206 1.32784,0.803088 1.32837,0.787978 C 1.32394,0.78136 1.32104,0.781533 1.32104,0.773313 l 0,-0.011 -0.13934,0 0,0.194343 C 1.14701,0.938297 1.15162,0.943648 1.12207,0.917282 1.11888,0.914439 1.09724,0.894018 1.09585,0.892168 1.08617,0.879313 1.09327,0.86977 1.07536,0.864983 1.07293,0.894164 0.998727,0.960321 0.969018,0.960321 l -0.003665,0 C 0.902616,0.960321 0.859861,0.869128 0.844345,0.864983 0.837026,0.8924 0.769632,0.960321 0.738006,0.960321 l -0.011,0 C 0.69714,0.960321 0.622908,0.891904 0.620667,0.864983 0.609486,0.867971 0.551076,0.960321 0.510659,0.960321 l -0.022,0 c -0.017878,0 -0.041985,-0.024279 -0.055004,-0.033 l -0.02215,0.03289 C 0.437237,0.977455 0.451241,1.00066 0.495993,1.00066 l 0.007331,0 z"
       style="fill:#ffffff;stroke:#000000;stroke-width:0.04;stroke-miterlimit:4;stroke-opacity:1;stroke-dasharray:0.08, 0.04;stroke-dashoffset:0"
       id="path6" />
  </g>
</svg>
