<?xml version="1.0" encoding="UTF-8" standalone="no"?>
<!--
Copyright (C) 2012 United States Government as represented by the Administrator of the
National Aeronautics and Space Administration.
All Rights Reserved.
-->

<!--
MIL-STD-2525 tactical symbol icon image. During icon composition this image is multiplied by the desired frame color 
(e.g. black), then drawn on top of the frame and fill.
-->

<svg
   xmlns:dc="http://purl.org/dc/elements/1.1/"
   xmlns:cc="http://creativecommons.org/ns#"
   xmlns:rdf="http://www.w3.org/1999/02/22-rdf-syntax-ns#"
   xmlns:svg="http://www.w3.org/2000/svg"
   xmlns="http://www.w3.org/2000/svg"
   xmlns:sodipodi="http://sodipodi.sourceforge.net/DTD/sodipodi-0.dtd"
   xmlns:inkscape="http://www.inkscape.org/namespaces/inkscape"
   height="400px"
   viewBox="0 0 400 400"
   width="400px"
   id="svg2"
   version="1.1"
   inkscape:version="0.48.2 r9819"
   sodipodi:docname="effacj---------.svg">
  <metadata
     id="metadata38">
    <rdf:RDF>
      <cc:Work
         rdf:about="">
        <dc:format>image/svg+xml</dc:format>
        <dc:type
           rdf:resource="http://purl.org/dc/dcmitype/StillImage" />
      </cc:Work>
    </rdf:RDF>
  </metadata>
  <defs
     id="defs36" />
  <sodipodi:namedview
     pagecolor="#ffffff"
     bordercolor="#666666"
     borderopacity="1"
     objecttolerance="10"
     gridtolerance="10"
     guidetolerance="10"
     inkscape:pageopacity="0"
     inkscape:pageshadow="2"
     inkscape:window-width="640"
     inkscape:window-height="480"
     id="namedview34"
     showgrid="false"
     inkscape:zoom="0.59"
     inkscape:cx="200"
     inkscape:cy="200"
     inkscape:window-x="574"
     inkscape:window-y="114"
     inkscape:window-maximized="0"
     inkscape:current-layer="svg2" />
  <text
     style="font-size:52px;font-weight:bold;text-anchor:middle;fill:#000000;font-family:Arial"
     x="200"
     y="140"
     id="text4">REL</text>
  <path
     inkscape:connector-curvature="0"
     d="m 157.81,232.467 c -4.079,1.019 -30.313,-2.496 -31.81,0 -3.522,5.87 12.62,9.849 12,16.666 -0.62,6.821 -26.769,5 -27.333,8.667 -1.73,11.244 54.028,18.209 60,20 11.033,3.31 14.489,13.345 26.666,16.667 13.019,3.55 30.872,-12.56 46,-11.334 3.214,0.261 23.762,7.096 27.334,4 13.535,-11.73 -22.724,-20.95 -27.334,-27.333 -6.435,-8.91 35.087,-10.044 -4.285,-18.19"
     style="fill:#ffffff;stroke:#000000;stroke-width:4;stroke-dasharray:10"
     id="path6" />
  <g
     transform="matrix(0,1,-1,0,324.25,68.582996)"
     id="g8">
    <rect
       height="78"
       style="fill:#ffffff;stroke:#000000;stroke-width:3;stroke-dasharray:10"
       width="105"
       x="86"
       y="87"
       id="rect10" />
    <ellipse
       sodipodi:ry="39"
       sodipodi:rx="10"
       sodipodi:cy="126"
       sodipodi:cx="82"
       cx="82"
       cy="126"
       rx="10"
       ry="39"
       style="fill:#ffffff;stroke:#000000;stroke-width:3;stroke-dasharray:10"
       transform="translate(4,0)"
       id="ellipse12"
       d="m 92,126 c 0,21.53911 -4.477153,39 -10,39 -5.522847,0 -10,-17.46089 -10,-39 0,-21.53911 4.477153,-39 10,-39 5.522847,0 10,17.46089 10,39 z" />
    <ellipse
       sodipodi:ry="39"
       sodipodi:rx="10"
       sodipodi:cy="126"
       sodipodi:cx="82"
       cx="82"
       cy="126"
       rx="10"
       ry="39"
       style="fill:#ffffff;stroke:#000000;stroke-width:3;stroke-dasharray:10"
       transform="translate(109,-0.5)"
       id="ellipse14"
       d="m 92,126 c 0,21.53911 -4.477153,39 -10,39 -5.522847,0 -10,-17.46089 -10,-39 0,-21.53911 4.477153,-39 10,-39 5.522847,0 10,17.46089 10,39 z" />
    <rect
       height="75"
       style="fill:#ffffff;stroke:none"
       transform="matrix(1.08571,0,0,0.994805,-15.08496,0.85198)"
       width="14"
       x="176"
       y="88"
       id="rect16" />
  </g>
  <g
     transform="matrix(71.276665,0,0,71.276665,106.88966,113.25586)"
     id="g18">
    <path
       inkscape:connector-curvature="0"
       d="m 0.906547,1.24253 0,0.10719 0.089323,0 0,-0.19652 C 0.984102,1.16109 0.906547,1.23159 0.906547,1.24253 z"
       style="fill:#ffffff;stroke-dasharray:10"
       id="path20" />
    <polygon
       points="1.10306,1.34972 1.21025,1.34972 1.20934,0.94237 1.10605,1.04457 "
       style="fill:#ffffff;stroke-dasharray:10"
       id="polygon22" />
    <path
       inkscape:connector-curvature="0"
       d="m 1.33531,1.34972 0.10719,0 0,-0.29924 c 0,-0.01102 -0.09409,-0.098413 -0.10719,-0.107189 z"
       style="fill:#ffffff;stroke-dasharray:10"
       id="path24" />
    <path
       inkscape:connector-curvature="0"
       d="m 1.54969,1.34972 0.08932,0 0,-0.09826 c 0,-0.01707 -0.00137,-0.00162 0.00359,-0.0125 L 1.54969,1.1532 z"
       style="fill:#ffffff;stroke-dasharray:10"
       id="path26" />
    <polygon
       points="0.790134,1.36342 1.27167,1.82876 1.75513,1.36312 "
       style="fill:#ffffff;stroke-dasharray:10"
       id="polygon28" />
    <path
       inkscape:connector-curvature="0"
       d="M 0.790134,1.36342 1.75513,1.36312 1.27167,1.82876 z M 1.33531,0.94329 C 1.34841,0.952066 1.4425,1.03946 1.4425,1.05048 l 0,0.29924 -0.10719,0 z m -0.12597,-9.17e-4 9.1e-4,0.407347 -0.10719,0 L 1.10605,1.04457 1.20934,0.942372 z M 0.906547,1.24253 c 0,-0.01094 0.077555,-0.08144 0.089323,-0.08933 l 0,0.19652 -0.089323,0 z M 1.54969,1.1532 1.6426,1.23895 C 1.63764,1.24984 1.63901,1.23439 1.63901,1.25146 l 0,0.09826 -0.08932,0 z M 1.78608,1.35832 1.27338,0.857813 0.761902,1.35689 1.27335,1.85499 z"
       style="fill:#000000;stroke-dasharray:10"
       id="path30" />
  </g>
  <path
     inkscape:connector-curvature="0"
     d="m 250.707,244.61 -4.572,-1.429"
     style="fill:none;stroke:#000000;stroke-width:1;stroke-dasharray:10"
     id="path32" />
</svg>
