<?xml version="1.0"?>
<!--
Copyright (C) 2012 United States Government as represented by the Administrator of the
National Aeronautics and Space Administration.
All Rights Reserved.
-->

<!DOCTYPE svg PUBLIC "-//W3C//DTD SVG 1.1//EN" "http://www.w3.org/Graphics/SVG/1.1/DTD/svg11.dtd" >
<!--
MIL-STD-2525 tactical symbol icon image. During icon composition this image is multiplied by the desired frame color 
(e.g. black), then drawn on top of the frame and fill.
-->
<svg xmlns:xlink="http://www.w3.org/1999/xlink" height="400px" viewBox="0 0 400 400" width="400px"><g transform="scale(120) translate(0.4 0.383333)"><path d="M1.76298 1.5234 L1.65849 1.85053 L0.87285 1.84959 L0.690555 1.30282 C0.690555 1.25475     0.629173 1.13059 0.629173 1.10923 L0.629173 1.09507 C0.648776 1.08983 0.904657     0.897053 0.945586 0.868494 C0.975007 0.847966 1.26027 0.637069 1.26187     0.637069 C1.27606 0.637069 1.83642 1.05453 1.90105 1.09882 zM0.53946 1.07618     C0.53946 1.07637 0.665862 1.46506 0.677791 1.49501 C0.697803 1.54524 0.810303     1.88516 0.813315 1.92136 L1.71043 1.92136 C1.72409 1.8627 1.7585 1.77495     1.77948 1.71183 C1.8037 1.63897 1.82309 1.56945 1.84926 1.49831 C1.86226     1.46297 1.98901 1.07714 1.98901 1.07618 C1.98901 1.06647 1.66464 0.835734 1.62888     0.808325 C1.59329 0.781046 1.27407 0.547356 1.26187 0.547356 C1.26021     0.547356 0.93263 0.784915 0.900256 0.808998 C0.86396 0.835998 0.539461 1.06612     0.53946 1.07618 z" style="fill:rgb(255,255,255)"/><path d="M0.851087 1.16589 L0.868646 1.24307 L0.874693 1.24144 C0.874693 1.27506 0.926095     1.41206 0.939012 1.4557 C0.949969 1.49272 0.962457 1.52593 0.974449 1.56191     C0.9798 1.57796 1.00104 1.66166 1.01634 1.66166 L1.51211 1.66166 C1.53182 1.66166     1.58013 1.4824 1.59054 1.45207 C1.60393 1.41312 1.65849 1.26458 1.65849     1.23199 C1.66833 1.2173 1.67737 1.19949 1.67737 1.17533 C1.67737 1.15804 1.50071     1.04018 1.47527 1.02331 C1.45387 1.00913 1.2678 0.87315 1.26659 0.87315     C1.25596 0.87315 1.08227 1.00305 1.05877 1.01946 C1.03039 1.03928 0.867745     1.16144 0.851087 1.16589 z" style="fill:rgb(255,255,255)"/><path d="M0.851087 1.16589 C0.867745 1.16144 1.03039 1.03928 1.05877 1.01946 C1.08227 1.00305     1.25596 0.87315 1.26659 0.87315 C1.2678 0.87315 1.45387 1.00913 1.47527     1.02332 C1.50071 1.04018 1.67737 1.15804 1.67737 1.17534 C1.67737 1.19949 1.66833     1.2173 1.65849 1.23199 C1.65849 1.26458 1.60393 1.41312 1.59054 1.45207     C1.58013 1.4824 1.53181 1.66166 1.51211 1.66166 L1.01634 1.66166 C1.00104     1.66166 0.979799 1.57796 0.974448 1.56191 C0.962456 1.52593 0.949968 1.49272     0.939011 1.4557 C0.926094 1.41206 0.874693 1.27506 0.874693 1.24144 L0.868645     1.24307 zM0.784985 1.15172 L0.969127 1.7136 L1.55726 1.71293 L1.73876 1.147     C1.67141 1.11137 1.28596 0.807043 1.26187 0.807043 C1.2551 0.807043 0.832946     1.11961 0.784985 1.15172 z" style="fill:rgb(0,0,0)"/><path d="M0.784984 1.15173 C0.832945 1.11962 1.2551 0.807049 1.26187 0.807049 C1.28596 0.807049     1.67141 1.11138 1.73876 1.14701 L1.55726 1.71293 L0.969126 1.71361 zM0.710748     1.12521 L0.728516 1.19573 L0.799145 1.39726 C0.799145 1.42971 0.846106     1.55504 0.85874 1.59263 C0.867917 1.61993 0.912878 1.77499 0.931354 1.77499     L1.60963 1.77445 L1.72459 1.41142 C1.73348 1.39814 1.81902 1.14883 1.81902     1.13284 C1.81902 1.11246 1.32135 0.774379 1.2644 0.723765 z" style="fill:rgb(255,255,255)"/><path d="M1.2644 0.723764 C1.32135 0.774378 1.81902 1.11246 1.81902 1.13284 C1.81902 1.14883     1.73348 1.39814 1.72459 1.41142 L1.60962 1.77445 L0.931352 1.77499 C0.912875     1.77499 0.867915 1.61993 0.858738 1.59263 C0.846104 1.55504 0.799143 1.42971     0.799143 1.39726 L0.728513 1.19573 L0.710746 1.12521 zM1.90105 1.09883     C1.83642 1.05453 1.27605 0.637071 1.26187 0.637071 C1.26026 0.637071 0.975003     0.847969 0.945582 0.868496 C0.904653 0.897055 0.648771 1.08983 0.629169 1.09507     L0.629169 1.10924 C0.629169 1.13059 0.690551 1.25475 0.690551 1.30282     L0.872846 1.8496 L1.65849 1.85053 L1.76298 1.5234 z" style="fill:rgb(0,0,0)"/><path d="M0.539457 1.07618 C0.539457 1.06612 0.863957 0.835999 0.900252 0.808999 C0.932626     0.784916 1.26021 0.547357 1.26187 0.547357 C1.27407 0.547357 1.59328 0.781046     1.62888 0.808326 C1.66463 0.835735 1.989 1.06647 1.989 1.07618 C1.989 1.07714     1.86226 1.46297 1.84926 1.49831 C1.82309 1.56945 1.80369 1.63897 1.77948     1.71183 C1.7585 1.77495 1.72409 1.8627 1.71043 1.92136 L0.813311 1.92136 C0.810299     1.88516 0.697799 1.54524 0.677787 1.49501 C0.665858 1.46506 0.539456     1.07637 0.539457 1.07618 zM0.713571 1.87751 L0.755299 2.00521 L1.77653 2.00635     L1.95241 1.45748 L2.09046 1.02971 L1.263 0.432488 L0.436635 1.03334 L0.713572     1.87751 z" style="fill:rgb(0,0,0)"/></g></svg>