<?xml version="1.0" encoding="UTF-8" standalone="no"?>
<!--
Copyright (C) 2012 United States Government as represented by the Administrator of the
National Aeronautics and Space Administration.
All Rights Reserved.
-->

<!--
MIL-STD-2525 tactical symbol icon image. During icon composition this image is multiplied by the desired frame color 
(e.g. black), then drawn on top of the frame and fill.
-->

<svg
   xmlns:dc="http://purl.org/dc/elements/1.1/"
   xmlns:cc="http://creativecommons.org/ns#"
   xmlns:rdf="http://www.w3.org/1999/02/22-rdf-syntax-ns#"
   xmlns:svg="http://www.w3.org/2000/svg"
   xmlns="http://www.w3.org/2000/svg"
   xmlns:sodipodi="http://sodipodi.sourceforge.net/DTD/sodipodi-0.dtd"
   xmlns:inkscape="http://www.inkscape.org/namespaces/inkscape"
   height="400px"
   viewBox="0 0 400 400"
   width="400px"
   id="svg2"
   version="1.1"
   inkscape:version="0.48.2 r9819"
   sodipodi:docname="efiadc---------.svg">
  <metadata
     id="metadata38">
    <rdf:RDF>
      <cc:Work
         rdf:about="">
        <dc:format>image/svg+xml</dc:format>
        <dc:type
           rdf:resource="http://purl.org/dc/dcmitype/StillImage" />
      </cc:Work>
    </rdf:RDF>
  </metadata>
  <defs
     id="defs36" />
  <sodipodi:namedview
     pagecolor="#ffffff"
     bordercolor="#666666"
     borderopacity="1"
     objecttolerance="10"
     gridtolerance="10"
     guidetolerance="10"
     inkscape:pageopacity="0"
     inkscape:pageshadow="2"
     inkscape:window-width="640"
     inkscape:window-height="480"
     id="namedview34"
     showgrid="false"
     inkscape:zoom="0.59"
     inkscape:cx="200"
     inkscape:cy="200"
     inkscape:window-x="0"
     inkscape:window-y="0"
     inkscape:window-maximized="0"
     inkscape:current-layer="svg2" />
  <path
     inkscape:connector-curvature="0"
     d="m 233.046,237.677 c 0.372,4.029 2.297,2.772 3.763,4.962 l -1.864,0.73 c -2.663,-0.609 -4.203,-1.831 -4.436,-4.774 z m 4.878,-27.731 c -0.744,8.93 -5.668,13.839 -9.164,20.186 -4.22,7.66 -0.84,16.965 8.049,16.965 l 3.343,0 c 5.437,0 9.288,-4.3 9.288,-9.659 l 0,-2.229 c 0,-3.582 -4.724,-9.523 -6.402,-12.174 -2.236,-3.533 -1.84,-10.895 -5.114,-13.089 z"
     style="fill:#000000;stroke-width:4"
     id="path18" />
  <path
     inkscape:connector-curvature="0"
     d="m 237.924,209.946 c 3.275,2.193 2.879,9.556 5.115,13.089 1.677,2.651 6.401,8.592 6.401,12.174 l 0,2.228 c 0,5.36 -3.85,9.659 -9.287,9.659 l -3.344,0 c -8.889,0 -12.268,-9.305 -8.049,-16.965 3.497,-6.346 8.421,-11.255 9.164,-20.185 z m -12.26,24.52 0,3.343 c 0,5.174 5.661,10.774 10.774,10.774 l 4.086,0 c 5.564,0 10.402,-6.215 10.402,-11.889 l 0,-1.485 c 0,-3.397 -5.265,-10.901 -6.928,-14.247 -2.783,-5.6 -1.865,-10.603 -7.56,-13.616 0,12.999 -10.774,21.45 -10.774,27.12 z"
     style="fill:#000000"
     id="path20" />
  <path
     inkscape:connector-curvature="0"
     d="m 157.9646,237.659 c 1.0689,2.198 1.148,3.618 3.8012,4.236 l -1.3831,1.605 c -4.1307,-1.057 -3.1275,-1.589 -4.5756,-4.602 z m 4.1724,9.437 3.7154,0 c 5.6796,0 9.2876,-5.635 9.2876,-11.516 0,-3.141 -4.8187,-9.691 -6.3916,-12.184 -2.2881,-3.626 -2.9031,-11.713 -5.4964,-13.45 -0.6299,7.568 -5.6543,14.767 -8.9969,19.981 -4.6145,7.199 -0.8118,17.169 7.8819,17.169 z"
     style="fill:#000000"
     id="path22" />
  <path
     inkscape:connector-curvature="0"
     d="m 162.137,247.096 c -8.6937,0 -12.4965,-9.971 -7.8819,-17.169 3.3425,-5.214 8.3669,-12.414 8.9969,-19.981 2.5933,1.737 3.2082,9.823 5.4964,13.45 1.5729,2.492 6.3916,9.043 6.3916,12.184 0,5.881 -3.608,11.516 -9.2876,11.516 z m -11.1449,-12.631 0,2.229 c 0,5.967 5.3791,11.888 11.1449,11.888 l 3.7153,0 c 5.5997,0 10.4017,-5.803 10.4017,-11.516 l 0,-1.486 c 0,-4.877 -5.215,-10.097 -7.0087,-14.167 -2.7492,-6.238 -1.1642,-10.726 -7.4795,-14.067 0,13.612 -10.7736,21.238 -10.7736,27.119 z"
     style="fill:#000000"
     id="path24" />
  <path
     inkscape:connector-curvature="0"
     d="m 195.565,263.799 c 0.619,2.64 1.467,3.861 4.094,4.473 l -1.918,1.393 c -3.28,-1.51 -3.352,-0.253 -4.389,-4.721 z m -5.936,-2.585 c 0,7.317 3.272,12.259 10.402,12.259 l 2.229,0 c 4.746,0 7.4,-2.477 9.047,-5.813 2.243,-4.543 1.314,-7.675 -0.746,-11.404 -1.841,-3.332 -4.057,-5.643 -5.553,-9.307 -1.276,-3.129 -2.087,-9.424 -4.234,-10.998 -0.831,9.978 -11.145,21.056 -11.145,25.263 z"
     style="fill:#000000"
     id="path26" />
  <path
     inkscape:connector-curvature="0"
     d="m 189.629,261.214 c 0,-4.207 10.314,-15.284 11.145,-25.262 2.147,1.573 2.958,7.869 4.234,10.997 1.495,3.665 3.712,5.975 5.553,9.307 2.06,3.73 2.989,6.861 0.746,11.404 -1.647,3.336 -4.301,5.813 -9.047,5.813 l -2.229,0 c -7.13,0 -10.402,-4.942 -10.402,-12.259 z m -1.115,-0.371 0,2.972 c 0,13.405 25.263,16.299 25.263,-1.858 l 0,-0.743 c 0,-4.965 -5.888,-9.965 -7.285,-13.891 -2.185,-6.138 -1.654,-11.035 -7.204,-13.972 0,13.755 -10.774,20.272 -10.774,27.492 z"
     style="fill:#000000"
     id="path28" />
  <path
     inkscape:connector-curvature="0"
     d="m 102.2327,201.866 196.9893,-0.093 -98.541,98.541 z M 269.874,170.1959 c 1.549,1.0374 15.231,14.7151 15.231,15.6031 l 0,14.489 -15.231,0 z m -30.835,-30.835 c 1.549,1.0378 15.232,14.715 15.232,15.6031 l 0,45.324 -15.232,0 z m -61.298,-14.8598 c 0,-0.8882 13.682,-14.5657 15.232,-15.6031 l 0,91.39 -15.232,0 z m -30.4633,30.463 c 0,-0.8882 13.6823,-14.5654 15.2315,-15.6031 l 0,60.927 -15.2315,0 z m -15.6929,15.1421 0.0898,30.1818 -14.8602,0 0,-14.118 c 0,-0.717 -0.117,-0.661 -0.2819,-1.024 z m 76.9912,-61.2083 15.513,15.3209 c -0.396,0.8898 -0.281,-0.3953 -0.281,1.0252 l 0,75.044 -15.232,0 z M 92.5737,200.566 200.867,308.859 308.974,200.566 200.681,92.4594 z"
     style="fill:#000000;stroke:#000000;stroke-width:6;stroke-miterlimit:4;stroke-opacity:1;stroke-dasharray:12, 6;stroke-dashoffset:0"
     id="path32" />
</svg>
