<?xml version="1.0" encoding="UTF-8" standalone="no"?>
<!--
Copyright (C) 2012 United States Government as represented by the Administrator of the
National Aeronautics and Space Administration.
All Rights Reserved.
-->

<!--
MIL-STD-2525 tactical symbol icon image. During icon composition this image is multiplied by the desired frame color 
(e.g. black), then drawn on top of the frame and fill.
-->

<svg
   xmlns:dc="http://purl.org/dc/elements/1.1/"
   xmlns:cc="http://creativecommons.org/ns#"
   xmlns:rdf="http://www.w3.org/1999/02/22-rdf-syntax-ns#"
   xmlns:svg="http://www.w3.org/2000/svg"
   xmlns="http://www.w3.org/2000/svg"
   xmlns:sodipodi="http://sodipodi.sourceforge.net/DTD/sodipodi-0.dtd"
   xmlns:inkscape="http://www.inkscape.org/namespaces/inkscape"
   height="400px"
   viewBox="0 0 400 400"
   width="400px"
   id="svg2"
   version="1.1"
   inkscape:version="0.48.2 r9819"
   sodipodi:docname="efiace---------.svg">
  <metadata
     id="metadata14">
    <rdf:RDF>
      <cc:Work
         rdf:about="">
        <dc:format>image/svg+xml</dc:format>
        <dc:type
           rdf:resource="http://purl.org/dc/dcmitype/StillImage" />
      </cc:Work>
    </rdf:RDF>
  </metadata>
  <defs
     id="defs12" />
  <sodipodi:namedview
     pagecolor="#ffffff"
     bordercolor="#666666"
     borderopacity="1"
     objecttolerance="10"
     gridtolerance="10"
     guidetolerance="10"
     inkscape:pageopacity="0"
     inkscape:pageshadow="2"
     inkscape:window-width="640"
     inkscape:window-height="480"
     id="namedview10"
     showgrid="false"
     inkscape:zoom="0.59"
     inkscape:cx="200"
     inkscape:cy="200"
     inkscape:window-x="322"
     inkscape:window-y="136"
     inkscape:window-maximized="0"
     inkscape:current-layer="svg2" />
  <g
     transform="matrix(100,0,0,100,56,68)"
     id="g4"
     style="fill:#ffffff;fill-opacity:1;stroke:#ffffff;stroke-width:0.06;stroke-miterlimit:4;stroke-opacity:1;stroke-dasharray:0.12, 0.06;stroke-dashoffset:0">
    <path
       inkscape:connector-curvature="0"
       d="m 0.975957,0.979055 c 0,-0.064185 0.076933,-0.168492 0.076933,-0.210276 0,-0.038165 -0.01761,-0.08176 -0.04103,-0.097445 C 1.00437,0.686948 1.00395,0.745527 0.992201,0.774763 0.986217,0.789653 0.954811,0.831157 0.943138,0.848791 0.910764,0.8977 0.871831,0.936759 0.836595,0.983295 0.791465,1.0429 0.836166,1.08786 0.860016,1.15654 0.876508,1.20402 0.889126,1.32212 0.904158,1.35344 0.762583,1.35029 0.734312,1.12757 0.673367,1.08676 L 0.661056,1.24559 0.663111,1.25087 c 0,0.10582 0.075028,0.25854 0.12439,0.31667 0.023622,0.02782 0.090075,0.07598 0.123783,0.09676 0.023504,0.01448 0.052921,0.02153 0.0785,0.03433 0.007902,0.00394 0.068026,0.03946 0.068236,0.03946 0.0445,0 0.20826,-0.15479 0.24233,-0.18846 0.03842,-0.03797 0.1218,-0.23043 0.1218,-0.30389 l 0,-0.13334 c 0,-0.04377 -0.00806,-0.05573 -0.01539,-0.08719 l -0.01539,0 C 1.388,1.06581 1.34545,1.17504 1.32823,1.20824 1.31405,1.23558 1.19649,1.32908 1.19649,1.28678 l 0,-0.02565 c 0,-0.08 0.05129,-0.151 0.05129,-0.21028 l 0,-0.01538 c 0,-0.03206 -0.09087,-0.144278 -0.11283,-0.15899 0,0.053189 0.00233,0.100736 -0.01697,0.13689 -0.00992,0.01856 -0.05247,0.07339 -0.07535,0.07339 -0.02247,0 -0.066673,-0.07291 -0.066673,-0.107705 z"
       style="fill:#ffffff;fill-opacity:1;stroke:#ffffff;stroke-width:0.06;stroke-miterlimit:4;stroke-opacity:1;stroke-dasharray:0.12, 0.06;stroke-dashoffset:0"
       id="path6" />
    <path
       inkscape:connector-curvature="0"
       d="M 2.01307,0.730319 C 1.928,0.708197 1.65489,0.57902 1.59652,0.57902 l -0.05128,0 0,0.63595 -0.01539,0 c 0,0.11755 -0.07889,0.32224 -0.13026,0.39286 C 1.35818,1.66476 1.32114,1.69444 1.26737,1.73717 1.24978,1.75115 1.11956,1.84144 1.11956,1.85093 l 0,0.16924 0.92829,0 0,-0.8052 -0.43081,0 7.2e-4,-0.311214 z"
       style="fill:#ffffff;fill-opacity:1;stroke:#ffffff;stroke-width:0.06;stroke-miterlimit:4;stroke-opacity:1;stroke-dasharray:0.12, 0.06;stroke-dashoffset:0"
       id="path8" />
  </g>
</svg>
