<?xml version="1.0" encoding="UTF-8" standalone="no"?>
<!--
Copyright (C) 2012 United States Government as represented by the Administrator of the
National Aeronautics and Space Administration.
All Rights Reserved.
-->

<!--
MIL-STD-2525 tactical symbol icon image. During icon composition this image is multiplied by the desired frame color 
(e.g. black), then drawn on top of the frame and fill.
-->

<svg
   xmlns:dc="http://purl.org/dc/elements/1.1/"
   xmlns:cc="http://creativecommons.org/ns#"
   xmlns:rdf="http://www.w3.org/1999/02/22-rdf-syntax-ns#"
   xmlns:svg="http://www.w3.org/2000/svg"
   xmlns="http://www.w3.org/2000/svg"
   xmlns:sodipodi="http://sodipodi.sourceforge.net/DTD/sodipodi-0.dtd"
   xmlns:inkscape="http://www.inkscape.org/namespaces/inkscape"
   height="400px"
   viewBox="0 0 400 400"
   width="400px"
   id="svg2"
   version="1.1"
   inkscape:version="0.48.2 r9819"
   sodipodi:docname="efiadi---------.svg">
  <metadata
     id="metadata26">
    <rdf:RDF>
      <cc:Work
         rdf:about="">
        <dc:format>image/svg+xml</dc:format>
        <dc:type
           rdf:resource="http://purl.org/dc/dcmitype/StillImage" />
      </cc:Work>
    </rdf:RDF>
  </metadata>
  <defs
     id="defs24" />
  <sodipodi:namedview
     pagecolor="#ffffff"
     bordercolor="#666666"
     borderopacity="1"
     objecttolerance="10"
     gridtolerance="10"
     guidetolerance="10"
     inkscape:pageopacity="0"
     inkscape:pageshadow="2"
     inkscape:window-width="640"
     inkscape:window-height="480"
     id="namedview22"
     showgrid="false"
     inkscape:zoom="0.59"
     inkscape:cx="200"
     inkscape:cy="200"
     inkscape:window-x="0"
     inkscape:window-y="0"
     inkscape:window-maximized="0"
     inkscape:current-layer="svg2" />
  <path
     inkscape:connector-curvature="0"
     d="m 205.44722,173.24967 c -14.9798,0 -25.8049,-9.2499 -25.8049,-24.12245 l 0,-2.805 c 0,-12.82149 24.1219,-33.59499 24.1219,-56.66001 7.447,8.5679 6.028,20.44834 11.5511,29.4008 3.1471,5.09982 14.2549,20.87492 14.2549,26.69843 l 0,2.805 c 0,14.10123 -9.9407,24.68323 -24.123,24.68323 z m -29.1709,-26.92745 0,2.805 c 0,36.74825 56.6588,35.27865 56.6588,2.24422 l 0,-5.61 c 0,-9.4666 -12.1,-22.32307 -15.8917,-31.23087 -5.8509,-13.74868 -2.8622,-23.7457 -16.6452,-31.03903 0,29.89613 -24.1219,47.12719 -24.1219,62.83068 z"
     style="fill:#000000;stroke:#000000;stroke-width:5.99999952;stroke-miterlimit:4;stroke-opacity:1;stroke-dasharray:12.0000001, 5.9999995;stroke-dashoffset:0"
     id="path6" />
  <path
     inkscape:connector-curvature="0"
     d="m 195.09512,213.56137 -6.8486,-10.56 -1.8007,20.1091 -13.5311,-13.959 4.4792,15.8433 -18.18168,-0.3663 16.51298,12.1781 -27.49868,1.518 c 4.04921,2.8138 46.24928,13.3012 55.02948,12.8183 l 38.6991,-4.5496 -21.8141,-6.9311 24.574,-12.5697 -22.5654,2.1736 10.076,-15.8862 -20.7889,11.4235 6.6418,-22.0341 -14.5046,18.2391 -2.9216,-25.2395 z"
     style="fill:#ffffff;stroke:#000000;stroke-width:5.99999952;stroke-miterlimit:4;stroke-opacity:1;stroke-dasharray:12.0000001, 5.9999995;stroke-dashoffset:0"
     id="path10" />
  <path
     inkscape:connector-curvature="0"
     d="m 268.83912,257.95847 c -1.6082,-1.1176 -26.2702,-10.0166 -27.9565,-9.9528 -10.2091,0.3795 -22.0462,3.7818 -34.8744,3.7818 l -5.049,0 c -10.8372,0 -54.53932,-10.5435 -60.01545,-13.9568 l 5.03888,-0.6281 3.36578,0 -0.0403,-0.9713 -5.57755,-1.9921 24.1307,-1.5246 c -3.31386,-4.9489 -18.99018,-2.805 -26.92745,-2.805 -10.09789,0 -20.19534,0 -30.29334,0 1.71798,1.4927 60.49219,30.3853 65.42789,32.1838 4.2845,1.5609 80.2725,-4.1349 92.7707,-4.1349 z"
     style="fill:#ffffff;stroke:#000000;stroke-width:5.99999952;stroke-miterlimit:4;stroke-opacity:1;stroke-dasharray:12.0000001, 5.9999995;stroke-dashoffset:0"
     id="path12" />
  <path
     inkscape:connector-curvature="0"
     d="m 105.03064,243.37357 69.80798,39.2667 0.3157,-0.5588 0,-15.708 c 0,-2.8193 -63.20281,-30.7076 -70.12368,-35.3419 z"
     style="fill:#ffffff;stroke:#000000;stroke-width:5.99999952;stroke-miterlimit:4;stroke-opacity:1;stroke-dasharray:12.0000001, 5.9999995;stroke-dashoffset:0"
     id="path14" />
  <polygon
     transform="matrix(110,0,0,110,57.00002,51.99997)"
     points="1.11504,1.94099 1.09963,1.93865 1.09969,2.10285 1.99211,2.05085 1.99219,1.89959 "
     style="fill:#ffffff;stroke:#000000;stroke-width:0.05454545;stroke-miterlimit:4;stroke-opacity:1;stroke-dasharray:0.10909091, 0.05454545;stroke-dashoffset:0"
     id="polygon16" />
</svg>
