<?xml version="1.0" encoding="UTF-8" standalone="no"?>
<!--
Copyright (C) 2012 United States Government as represented by the Administrator of the
National Aeronautics and Space Administration.
All Rights Reserved.
-->

<!--
MIL-STD-2525 tactical symbol icon image. During icon composition this image is multiplied by the desired frame color 
(e.g. black), then drawn on top of the frame and fill.
-->

<svg
   xmlns:dc="http://purl.org/dc/elements/1.1/"
   xmlns:cc="http://creativecommons.org/ns#"
   xmlns:rdf="http://www.w3.org/1999/02/22-rdf-syntax-ns#"
   xmlns:svg="http://www.w3.org/2000/svg"
   xmlns="http://www.w3.org/2000/svg"
   xmlns:sodipodi="http://sodipodi.sourceforge.net/DTD/sodipodi-0.dtd"
   xmlns:inkscape="http://www.inkscape.org/namespaces/inkscape"
   height="400px"
   viewBox="0 0 400 400"
   width="400px"
   id="svg2"
   version="1.1"
   inkscape:version="0.48.2 r9819"
   sodipodi:docname="efoabe---------.svg">
  <metadata
     id="metadata14">
    <rdf:RDF>
      <cc:Work
         rdf:about="">
        <dc:format>image/svg+xml</dc:format>
        <dc:type
           rdf:resource="http://purl.org/dc/dcmitype/StillImage" />
      </cc:Work>
    </rdf:RDF>
  </metadata>
  <defs
     id="defs12" />
  <sodipodi:namedview
     pagecolor="#ffffff"
     bordercolor="#666666"
     borderopacity="1"
     objecttolerance="10"
     gridtolerance="10"
     guidetolerance="10"
     inkscape:pageopacity="0"
     inkscape:pageshadow="2"
     inkscape:window-width="640"
     inkscape:window-height="480"
     id="namedview10"
     showgrid="false"
     inkscape:zoom="0.59"
     inkscape:cx="200"
     inkscape:cy="200"
     inkscape:window-x="0"
     inkscape:window-y="0"
     inkscape:window-maximized="0"
     inkscape:current-layer="svg2" />
  <ellipse
     sodipodi:ry="80"
     sodipodi:rx="80"
     sodipodi:cy="230"
     sodipodi:cx="200"
     cx="200"
     cy="230"
     rx="80"
     ry="80"
     style="fill:#000000;stroke:#000000;stroke-width:6;stroke-miterlimit:4;stroke-dasharray:12, 6;stroke-dashoffset:0"
     id="ellipse4" />
  <polygon
     points="131,270 200,150 269,270 "
     style="fill:#ffffff;stroke:#000000;stroke-width:6;stroke-linejoin:bevel;stroke-miterlimit:4;stroke-dasharray:12, 6;stroke-dashoffset:0"
     id="polygon6" />
  <g
     style="font-size:52px;font-weight:bold;text-anchor:middle;fill:#000000;font-family:Arial"
     id="text8">
    <path
       inkscape:connector-curvature="0"
       d="m 141.62695,148 0,-37.22266 27.59961,0 0,6.29688 -20.08398,0 0,8.25195 18.6875,0 0,6.27149 -18.6875,0 0,10.13086 20.79492,0 0,6.27148 z"
       style="font-size:52px;font-weight:bold;text-anchor:middle;fill:#000000;font-family:Arial"
       id="path3779" />
    <path
       inkscape:connector-curvature="0"
       d="m 176.13281,148 0,-37.22266 7.51563,0 0,37.22266 z"
       style="font-size:52px;font-weight:bold;text-anchor:middle;fill:#000000;font-family:Arial"
       id="path3781" />
    <path
       inkscape:connector-curvature="0"
       d="m 214.59961,134.31445 7.28711,2.31055 c -1.11722,4.06251 -2.97497,7.07976 -5.57324,9.05176 -2.59834,1.972 -5.89488,2.958 -9.88965,2.95801 -4.94272,-1e-5 -9.00522,-1.68848 -12.1875,-5.06543 -3.1823,-3.37695 -4.77344,-7.99381 -4.77344,-13.85059 0,-6.19529 1.59961,-11.00681 4.79883,-14.43457 3.19921,-3.4277 7.40558,-5.14156 12.61914,-5.1416 4.55336,4e-5 8.25192,1.34574 11.0957,4.03711 1.69268,1.59118 2.96221,3.87633 3.8086,6.85547 l -7.43946,1.77734 c -0.44013,-1.92966 -1.35842,-3.4531 -2.75488,-4.57031 -1.39651,-1.11716 -3.09345,-1.67575 -5.09082,-1.67578 -2.75913,3e-5 -4.99774,0.99026 -6.71582,2.9707 -1.71811,1.98049 -2.57716,5.18817 -2.57715,9.62305 -1e-5,4.70574 0.84634,8.0573 2.53906,10.05468 1.6927,1.99741 3.89322,2.9961 6.60157,2.9961 1.99737,0 3.71547,-0.63476 5.15429,-1.9043 1.43878,-1.26952 2.47133,-3.26692 3.09766,-5.99219 z"
       style="font-size:52px;font-weight:bold;text-anchor:middle;fill:#000000;font-family:Arial"
       id="path3783" />
    <path
       inkscape:connector-curvature="0"
       d="m 252.17773,134.31445 7.28711,2.31055 c -1.11722,4.06251 -2.97496,7.07976 -5.57324,9.05176 -2.59833,1.972 -5.89488,2.958 -9.88965,2.95801 -4.94272,-1e-5 -9.00522,-1.68848 -12.1875,-5.06543 -3.18229,-3.37695 -4.77344,-7.99381 -4.77343,-13.85059 -1e-5,-6.19529 1.5996,-11.00681 4.79882,-14.43457 3.19921,-3.4277 7.40559,-5.14156 12.61914,-5.1416 4.55337,4e-5 8.25193,1.34574 11.09571,4.03711 1.69267,1.59118 2.9622,3.87633 3.80859,6.85547 l -7.43945,1.77734 c -0.44013,-1.92966 -1.35843,-3.4531 -2.75488,-4.57031 -1.39651,-1.11716 -3.09345,-1.67575 -5.09083,-1.67578 -2.75913,3e-5 -4.99773,0.99026 -6.71582,2.9707 -1.71811,1.98049 -2.57715,5.18817 -2.57714,9.62305 -1e-5,4.70574 0.84634,8.0573 2.53906,10.05468 1.69269,1.99741 3.89321,2.9961 6.60156,2.9961 1.99738,0 3.71547,-0.63476 5.1543,-1.9043 1.43877,-1.26952 2.47133,-3.26692 3.09765,-5.99219 z"
       style="font-size:52px;font-weight:bold;text-anchor:middle;fill:#000000;font-family:Arial"
       id="path3785" />
  </g>
</svg>
