<?xml version="1.0" encoding="UTF-8" standalone="no"?>
<!--
Copyright (C) 2012 United States Government as represented by the Administrator of the
National Aeronautics and Space Administration.
All Rights Reserved.
-->

<!--
MIL-STD-2525 tactical symbol icon image. During icon composition this image is multiplied by the desired frame color 
(e.g. black), then drawn on top of the frame and fill.
-->

<svg
   xmlns:dc="http://purl.org/dc/elements/1.1/"
   xmlns:cc="http://creativecommons.org/ns#"
   xmlns:rdf="http://www.w3.org/1999/02/22-rdf-syntax-ns#"
   xmlns:svg="http://www.w3.org/2000/svg"
   xmlns="http://www.w3.org/2000/svg"
   xmlns:sodipodi="http://sodipodi.sourceforge.net/DTD/sodipodi-0.dtd"
   xmlns:inkscape="http://www.inkscape.org/namespaces/inkscape"
   height="400px"
   viewBox="0 0 400 400"
   width="400px"
   id="svg2"
   version="1.1"
   inkscape:version="0.48.2 r9819"
   sodipodi:docname="efoadma--------.svg">
  <metadata
     id="metadata10">
    <rdf:RDF>
      <cc:Work
         rdf:about="">
        <dc:format>image/svg+xml</dc:format>
        <dc:type
           rdf:resource="http://purl.org/dc/dcmitype/StillImage" />
      </cc:Work>
    </rdf:RDF>
  </metadata>
  <defs
     id="defs8" />
  <sodipodi:namedview
     pagecolor="#ffffff"
     bordercolor="#666666"
     borderopacity="1"
     objecttolerance="10"
     gridtolerance="10"
     guidetolerance="10"
     inkscape:pageopacity="0"
     inkscape:pageshadow="2"
     inkscape:window-width="640"
     inkscape:window-height="480"
     id="namedview6"
     showgrid="false"
     inkscape:zoom="0.59"
     inkscape:cx="200"
     inkscape:cy="200"
     inkscape:window-x="0"
     inkscape:window-y="0"
     inkscape:window-maximized="0"
     inkscape:current-layer="svg2" />
  <g
     style="font-size:95px;font-weight:bold;text-anchor:middle;fill:#ffffff;stroke:#000000;stroke-width:6;stroke-miterlimit:4;stroke-opacity:1;stroke-dasharray:12, 6;stroke-dashoffset:0;font-family:arial"
     id="text4">
    <path
       inkscape:connector-curvature="0"
       d="m 127.12646,235 0,-56.49902 -20.17822,0 0,-11.50391 54.04053,0 0,11.50391 -20.13184,0 0,56.49902 z"
       style="font-size:95px;font-weight:bold;text-anchor:middle;fill:#ffffff;stroke:#000000;stroke-width:6;stroke-miterlimit:4;stroke-opacity:1;stroke-dasharray:12, 6;stroke-dashoffset:0;font-family:arial"
       id="path2992" />
    <path
       inkscape:connector-curvature="0"
       d="m 166.41602,212.87354 13.35937,-1.29883 c 0.80402,4.48407 2.43528,7.77752 4.8938,9.88037 2.45847,2.10287 5.77512,3.15431 9.94995,3.15429 4.42217,2e-5 7.75427,-0.93545 9.99634,-2.80639 2.24198,-1.87092 3.36299,-4.05882 3.36304,-6.56372 -5e-5,-1.60805 -0.47165,-2.97646 -1.4148,-4.10523 -0.94324,-1.12872 -2.58997,-2.11057 -4.94018,-2.94555 -1.60811,-0.55662 -5.27266,-1.5462 -10.99366,-2.96875 -7.36004,-1.82452 -12.52443,-4.06654 -15.49316,-6.72608 -4.17481,-3.74182 -6.26221,-8.30318 -6.26221,-13.68408 0,-3.46349 0.98185,-6.70282 2.94556,-9.71802 1.96369,-3.01507 4.79328,-5.31121 8.48877,-6.88843 3.69545,-1.57708 8.1563,-2.36565 13.38257,-2.36572 8.53511,7e-5 14.95967,1.871 19.27368,5.6128 4.31391,3.74192 6.57912,8.73622 6.79565,14.98291 l -13.73047,0.60302 c -0.5876,-3.49441 -1.84778,-6.00702 -3.78051,-7.53784 -1.93282,-1.5307 -4.83199,-2.29608 -8.69751,-2.29614 -3.98929,6e-5 -7.11266,0.81955 -9.37012,2.45849 -1.45347,1.05149 -2.1802,2.45855 -2.18018,4.2212 -2e-5,1.60812 0.68032,2.98426 2.04102,4.12841 1.73175,1.4535 5.93747,2.9688 12.61719,4.5459 6.67964,1.57719 11.61982,3.20846 14.82055,4.8938 3.20063,1.68542 5.70552,3.98929 7.51465,6.91162 1.80903,2.92239 2.71357,6.53282 2.71362,10.8313 -5e-5,3.8965 -1.08241,7.54559 -3.24707,10.94727 -2.16476,3.40169 -5.22628,5.92977 -9.18457,7.58423 -3.95837,1.65445 -8.89082,2.48168 -14.79736,2.48168 -8.59703,0 -15.1994,-1.98689 -19.80713,-5.96069 -4.60775,-3.97379 -7.36003,-9.76439 -8.25683,-17.37182 z"
       style="font-size:95px;font-weight:bold;text-anchor:middle;fill:#ffffff;stroke:#000000;stroke-width:6;stroke-miterlimit:4;stroke-opacity:1;stroke-dasharray:12, 6;stroke-dashoffset:0;font-family:arial"
       id="path2994" />
    <path
       inkscape:connector-curvature="0"
       d="m 294.67529,235 -14.93652,0 -5.9375,-15.44678 -27.18262,0 -5.61279,15.44678 -14.56543,0 26.48682,-68.00293 14.51904,0 z m -25.28076,-26.9043 -9.37012,-25.23437 -9.18457,25.23437 z"
       style="font-size:95px;font-weight:bold;text-anchor:middle;fill:#ffffff;stroke:#000000;stroke-width:6;stroke-miterlimit:4;stroke-opacity:1;stroke-dasharray:12, 6;stroke-dashoffset:0;font-family:arial"
       id="path2996" />
  </g>
</svg>
