<?xml version="1.0" encoding="UTF-8" standalone="no"?>
<!--
Copyright (C) 2012 United States Government as represented by the Administrator of the
National Aeronautics and Space Administration.
All Rights Reserved.
-->

<!--
MIL-STD-2525 tactical symbol icon image. During icon composition this image is multiplied by the desired frame color 
(e.g. black), then drawn on top of the frame and fill.
-->

<svg
   xmlns:dc="http://purl.org/dc/elements/1.1/"
   xmlns:cc="http://creativecommons.org/ns#"
   xmlns:rdf="http://www.w3.org/1999/02/22-rdf-syntax-ns#"
   xmlns:svg="http://www.w3.org/2000/svg"
   xmlns="http://www.w3.org/2000/svg"
   xmlns:sodipodi="http://sodipodi.sourceforge.net/DTD/sodipodi-0.dtd"
   xmlns:inkscape="http://www.inkscape.org/namespaces/inkscape"
   height="400px"
   viewBox="0 0 400 400"
   width="400px"
   id="svg2"
   version="1.1"
   inkscape:version="0.48.2 r9819"
   sodipodi:docname="ehfaj----------.svg">
  <metadata
     id="metadata14">
    <rdf:RDF>
      <cc:Work
         rdf:about="">
        <dc:format>image/svg+xml</dc:format>
        <dc:type
           rdf:resource="http://purl.org/dc/dcmitype/StillImage" />
      </cc:Work>
    </rdf:RDF>
  </metadata>
  <defs
     id="defs12" />
  <sodipodi:namedview
     pagecolor="#ffffff"
     bordercolor="#666666"
     borderopacity="1"
     objecttolerance="10"
     gridtolerance="10"
     guidetolerance="10"
     inkscape:pageopacity="0"
     inkscape:pageshadow="2"
     inkscape:window-width="640"
     inkscape:window-height="480"
     id="namedview10"
     showgrid="false"
     inkscape:zoom="0.59"
     inkscape:cx="200"
     inkscape:cy="200"
     inkscape:window-x="237"
     inkscape:window-y="50"
     inkscape:window-maximized="0"
     inkscape:current-layer="svg2" />
  <g
     transform="matrix(120,0,0,120,42,59.000037)"
     id="g4"
     style="stroke:#000000;stroke-width:0.05;stroke-miterlimit:4;stroke-opacity:1;stroke-dasharray:0.1, 0.05;stroke-dashoffset:0">
    <path
       inkscape:connector-curvature="0"
       d="m 0.956079,0.593748 c 0.010823,0.009043 0.010323,0.060189 0.010323,0.082587 l 0.051618,0.614225 0.5298,8e-4 0.2083,0.47923 C 1.78756,1.76797 1.86997,1.73869 1.90387,1.72736 1.92913,1.7189 2.04001,1.69837 2.04001,1.67252 l 0,-0.00516 c 0,-0.01505 -0.03885,-0.09968 -0.04209,-0.1314 L 1.84083,1.59123 1.65289,1.14087 1.15563,1.14101 1.14705,1.017 l 0.36132,0 0,-0.113556 L 1.139,0.903243 1.11609,0.635038 C 1.1702,0.630538 1.22448,0.553932 1.22448,0.495676 l 0,-0.046453 -0.01032,0 0,-0.015484 C 1.21416,0.417818 1.17127,0.370074 1.15847,0.360389 1.13828,0.345109 1.09061,0.327361 1.05725,0.333353 1.01235,0.34142 0.990973,0.349499 0.964945,0.375503 c -0.013712,0.013705 -0.045,0.066028 -0.045,0.089205 l 0,0.025807 c 0,0.049551 0.01654,0.073968 0.036134,0.103232 z"
       style="fill:#ffffff;stroke:#000000;stroke-width:0.05;stroke-miterlimit:4;stroke-opacity:1;stroke-dasharray:0.1, 0.05;stroke-dashoffset:0"
       id="path6" />
    <path
       inkscape:connector-curvature="0"
       d="m 0.77026,1.38347 c 0,-0.08011 0.020283,-0.12042 0.048146,-0.1738 C 0.848835,1.15136 0.886906,1.1309 0.914784,1.08926 L 0.892441,0.919155 C 0.837134,0.934151 0.731205,1.05496 0.700988,1.10774 0.65248,1.19247 0.620575,1.27199 0.620575,1.40412 l 0,0.0671 c 0,0.04531 0.04489,0.16801 0.063996,0.19924 C 0.725283,1.73701 0.747059,1.76485 0.799933,1.81834 0.874886,1.89417 1.0225,1.96673 1.17286,1.96673 l 0.02065,0 c 0.10314,0 0.20612,-0.03442 0.27151,-0.07432 C 1.5001,1.871 1.64257,1.76322 1.64257,1.7293 1.64257,1.70529 1.57896,1.59095 1.57031,1.55381 1.54744,1.58672 1.53726,1.61728 1.50978,1.65329 1.48571,1.68486 1.4615,1.71006 1.43009,1.73361 1.37496,1.77494 1.28791,1.81705 1.19351,1.81705 l -0.02581,0 c -0.213181,0 -0.397441,-0.18655 -0.397441,-0.40261 z"
       style="fill:#ffffff;stroke:#000000;stroke-width:0.05;stroke-miterlimit:4;stroke-opacity:1;stroke-dasharray:0.1, 0.05;stroke-dashoffset:0"
       id="path8" />
  </g>
</svg>
