<?xml version="1.0" encoding="UTF-8" standalone="no"?>
<!--
Copyright (C) 2012 United States Government as represented by the Administrator of the
National Aeronautics and Space Administration.
All Rights Reserved.
-->

<!--
MIL-STD-2525 tactical symbol icon image. During icon composition this image is multiplied by the desired frame color 
(e.g. black), then drawn on top of the frame and fill.
-->

<svg
   xmlns:dc="http://purl.org/dc/elements/1.1/"
   xmlns:cc="http://creativecommons.org/ns#"
   xmlns:rdf="http://www.w3.org/1999/02/22-rdf-syntax-ns#"
   xmlns:svg="http://www.w3.org/2000/svg"
   xmlns="http://www.w3.org/2000/svg"
   xmlns:sodipodi="http://sodipodi.sourceforge.net/DTD/sodipodi-0.dtd"
   xmlns:inkscape="http://www.inkscape.org/namespaces/inkscape"
   height="400px"
   viewBox="0 0 400 400"
   width="400px"
   id="svg2"
   version="1.1"
   inkscape:version="0.48.2 r9819"
   sodipodi:docname="ehfaad---------.svg">
  <metadata
     id="metadata18">
    <rdf:RDF>
      <cc:Work
         rdf:about="">
        <dc:format>image/svg+xml</dc:format>
        <dc:type
           rdf:resource="http://purl.org/dc/dcmitype/StillImage" />
      </cc:Work>
    </rdf:RDF>
  </metadata>
  <defs
     id="defs16" />
  <sodipodi:namedview
     pagecolor="#ffffff"
     bordercolor="#666666"
     borderopacity="1"
     objecttolerance="10"
     gridtolerance="10"
     guidetolerance="10"
     inkscape:pageopacity="0"
     inkscape:pageshadow="2"
     inkscape:window-width="705"
     inkscape:window-height="480"
     id="namedview14"
     showgrid="false"
     inkscape:zoom="0.59"
     inkscape:cx="200"
     inkscape:cy="200"
     inkscape:window-x="209"
     inkscape:window-y="113"
     inkscape:window-maximized="0"
     inkscape:current-layer="g4" />
  <g
     transform="scale(100) translate(0.78 0.7)"
     id="g4">
    <path
       d="M0.969453 1.04854 C0.969453 1.06111 0.971311 1.05492 0.974937 1.07048 L0.991398 1.07048     C1.01376 1.07048 1.20413 0.910997 1.24376 0.900414 L1.24376 0.883953     C1.24376 0.871312 1.23994 0.867497 1.2273 0.867497 L1.21633 0.867497 C1.20626     0.867497 0.969453 1.03926 0.969453 1.04854 z"
       style="fill:rgb(0,0,0)"
       id="path6" />
    <path
       d="M0.464724 1.45452 C0.464724 1.48958 0.453752 1.49627 0.453752 1.53133 C0.453752 1.66626     0.55602 1.77272 0.689658 1.77272 L0.706114 1.77272 C0.825307 1.77272     0.925563 1.66593 0.925563 1.5423 L0.925563 1.51487 C0.925563 1.39768 0.817654     1.29542 0.70063 1.29542 L0.68417 1.29542 C0.628603 1.29542 0.577615 1.31865     0.54595 1.34373 C0.492202 1.38629 0.497682 1.4053 0.464724 1.45452 z"
       style="fill:rgb(255,255,255)"
       id="path8" />
    <path
       d="M1.76494 1.72334 L1.76494 1.71785 C1.76494 1.66726 1.80181 1.62459 1.85272 1.62459     L1.86369 1.62459 C1.92005 1.62459 1.95696 1.66568 1.95696 1.72334 L1.95696     1.7398 C1.95696 1.77028 1.90486 1.81112 1.86369 1.81112 L1.85272 1.81112 C1.80495     1.81112 1.76494 1.77111 1.76494 1.72334 zM0.46472 1.45452 C0.497677 1.4053     0.492196 1.38629 0.545944 1.34373 C0.57761 1.31865 0.628598 1.29542 0.684164     1.29542 L0.700625 1.29542 C0.817649 1.29542 0.925558 1.39768 0.925558     1.51486 L0.925558 1.5423 C0.925558 1.66593 0.825302 1.77271 0.706109 1.77271     L0.689652 1.77271 C0.556014 1.77271 0.453746 1.66626 0.453746 1.53132 C0.453746     1.49626 0.464719 1.48958 0.464719 1.45452 zM0.66222 0.949789 C0.641031     0.949789 0.624385 0.838974 0.618519 0.817935 C0.611696 0.793467 0.585413 0.70312     0.585413 0.680966 L1.18889 0.680966 C1.2021 0.680966 1.22181 0.661261     1.22181 0.648053 L1.22181 0.59319 C1.22181 0.575454 1.20189 0.565757 1.18341     0.565757 L0.387913 0.565757 C0.369424 0.565757 0.349507 0.575454 0.349507 0.59319     L0.349507 0.648053 C0.349507 0.661261 0.369216 0.680966 0.382424 0.680966     L0.470204 0.680966 L0.536531 1.08137 L0.366618 1.14357 L0.437838 1.2291     C0.413141 1.26254 0.380834 1.28177 0.348318 1.33263 C0.335531 1.35264 0.300134     1.44267 0.300134 1.47098 L0.300134 1.52584 C0.300134 1.65941 0.341307 1.74443     0.408401 1.81257 C0.466154 1.87123 0.569985 1.93181 0.684165 1.93181 L0.695138     1.93181 C0.914721 1.93181 1.09014 1.74831 1.09014 1.53132 L1.4248 1.53132     C1.43902 1.53132 1.47266 1.56685 1.48515 1.57521 L1.69911 1.57521 C1.67106     1.6171 1.64424 1.64843 1.64424 1.71785 C1.64424 1.83417 1.74159 1.93181     1.85821 1.93181 C1.9676 1.93181 2.07765 1.83603 2.07765 1.73431 L2.07765 1.68493     C2.07765 1.65409 2.0406 1.59849 2.02828 1.57521 L2.20932 1.57521 L2.23492     1.45959 L2.05571 1.46 L2.05571 1.44355 L2.08581 1.24099 L2.08314 1.15827     C2.08314 1.1422 2.04026 1.10594 2.02828 1.09792 L1.62785 1.08523 L1.62779     0.702911 C1.62779 0.690073 1.61869 0.680967 1.60584 0.680967 C1.593 0.680967     1.5839 0.690073 1.5839 0.702911 L1.5839 1.08694 C1.53037 1.08249 1.43485 1.07588     1.38104 1.07584 C1.34835 1.07581 1.30838 1.07814 1.27661 1.07604 C1.22395     1.07255 1.22604 1.04305 1.20535 1.04305 L1.09014 1.04305 L1.14007 1.35019     L1.04625 1.35028 L1.04625 1.21312 C1.04625 1.19409 0.944071 1.10889 0.920071     1.10889 L0.73354 1.10889 L0.73354 0.993679 L0.704607 0.950616 z"
       style="fill:rgb(0, 0, 0);stroke:#000000;stroke-opacity:1;stroke-width:0.06;stroke-miterlimit:4;stroke-dasharray:0.12,0.06;stroke-dashoffset:0"
       id="path10" />
    <path
       d="M1.76494 1.72334 C1.76494 1.77111 1.80495 1.81112 1.85272 1.81112 L1.86369 1.81112     C1.90486 1.81112 1.95696 1.77028 1.95696 1.7398 L1.95696 1.72334 C1.95696     1.66568 1.92005 1.62459 1.86369 1.62459 L1.85272 1.62459 C1.80181 1.62459 1.76494     1.66726 1.76494 1.71785 z"
       style="fill:rgb(255,255,255)"
       id="path12" />
  </g>
</svg>
