<?xml version="1.0"?>
<!--
Copyright (C) 2012 United States Government as represented by the Administrator of the
National Aeronautics and Space Administration.
All Rights Reserved.
-->

<!DOCTYPE svg PUBLIC "-//W3C//DTD SVG 1.1//EN" "http://www.w3.org/Graphics/SVG/1.1/DTD/svg11.dtd" >
<!--
MIL-STD-2525 tactical symbol icon image. During icon composition this image is multiplied by the desired frame color 
(e.g. black), then drawn on top of the frame and fill.
-->
<svg xmlns:xlink="http://www.w3.org/1999/xlink" height="400px" viewBox="0 0 400 400" width="400px"><g transform="scale(95) translate(0.852632 0.884211)"><path d="M0.42998 0.678079 L2.09747 0.678591 C2.08662 0.669162 1.91519 0.589874 1.88506 0.574808     C1.81432 0.539442 1.74643 0.503048 1.67587 0.467796 C1.60468 0.432225     1.53904 0.396965 1.46669 0.36078 C1.43089 0.34287 1.27809 0.26874 1.25977 0.253571     L0.429983 0.678079 z" style="fill:rgb(255,255,255)"/><polygon points="0.353591,0.84148 2.16454,0.84148 2.16454,0.721709 0.353591,0.721709" style="fill:rgb(255,255,255)"/><path d="M1.28302 1.50262 L1.28302 1.29182 C1.32804 1.30231 1.38842 1.31903 1.38842 1.37327     L1.38842 1.41159 C1.38842 1.44982 1.32843 1.50262 1.28302 1.50262 zM1.1345     1.13372 L1.1345 1.08102 C1.1345 1.0471 1.19615 1.01712 1.23032 1.00916 L1.23032     1.20558 C1.19215 1.20241 1.1345 1.17494 1.1345 1.13372 zM1.23032 0.956458     L1.21116 0.956458 C1.13233 0.956458 1.04827 1.01676 1.04827 1.0954 L1.04827     1.1433 C1.04827 1.21017 1.17006 1.27611 1.23032 1.27745 L1.23032 1.50262     C1.1686 1.50262 1.11534 1.43602 1.11565 1.37504 L1.03389 1.38764 L1.03389 1.41159     C1.03389 1.44664 1.07607 1.50267 1.0974 1.52056 C1.12389 1.54276 1.18573     1.56391 1.23032 1.5649 L1.23032 1.63197 L1.28302 1.63197 L1.28302 1.5649     C1.38542 1.5649 1.47465 1.49295 1.47465 1.38764 L1.47465 1.35889 C1.47465 1.28093     1.36234 1.22656 1.28302 1.21996 L1.28302 1.01395 C1.30418 1.01571 1.33257     1.03051 1.34351 1.04449 C1.35261 1.05613 1.374 1.10572 1.37909 1.1066 L1.45549     1.0954 C1.45549 1.01786 1.37323 0.956458 1.29739 0.956458 L1.28302 0.956458     L1.28302 0.918131 L1.23032 0.918131 z" style="fill:rgb(255,255,255)"/><path d="M1.1345 1.13372 C1.1345 1.17494 1.19215 1.20241 1.23032 1.20558 L1.23032 1.00916     C1.19615 1.01712 1.1345 1.0471 1.1345 1.08102 z" style="fill:rgb(0,0,0)"/><path d="M1.28302 1.50262 C1.32843 1.50262 1.38842 1.44982 1.38842 1.41159 L1.38842 1.37327     C1.38842 1.31903 1.32804 1.30231 1.28302 1.29182 z" style="fill:rgb(0,0,0)"/><path d="M0.353591 1.70384 L2.16454 1.70384 L2.16454 1.81882 L0.353591 1.81882 zM1.88188 0.879809     L2.02082 0.879809 L2.02082 1.66551 L1.88188 1.66551 zM1.60401 0.879809     L1.73816 0.879809 L1.73816 1.66551 L1.60401 1.66551 zM0.77998 0.879809 L0.918917     0.879809 L0.918917 1.66551 L0.77998 1.66551 zM0.50211 0.879809 L0.636256     0.879809 L0.636256 1.66551 L0.50211 1.66551 zM1.23032 0.918136 L1.28302     0.918136 L1.28302 0.956463 L1.2974 0.956463 C1.37323 0.956463 1.4555 1.01787     1.4555 1.0954 L1.37909 1.1066 C1.37401 1.10572 1.35262 1.05614 1.34351 1.04449     C1.33257 1.03051 1.30418 1.01571 1.28302 1.01395 L1.28302 1.21996 C1.36234     1.22656 1.47466 1.28094 1.47466 1.3589 L1.47466 1.38764 C1.47466 1.49295     1.38543 1.5649 1.28302 1.5649 L1.28302 1.63198 L1.23032 1.63198 L1.23032 1.5649     C1.18573 1.56391 1.12389 1.54276 1.09741 1.52056 C1.07607 1.50268 1.0339     1.44665 1.0339 1.4116 L1.0339 1.38764 L1.11565 1.37504 C1.11534 1.43603 1.1686     1.50262 1.23032 1.50262 L1.23032 1.27745 C1.17007 1.27611 1.04827 1.21018     1.04827 1.14331 L1.04827 1.0954 C1.04827 1.01677 1.13234 0.956463 1.21116     0.956463 L1.23032 0.956463 zM0.353595 0.721715 L2.16454 0.721715 L2.16454 0.841487     L0.353595 0.841487 zM1.25977 0.253573 C1.27809 0.268742 1.43089 0.342872     1.46669 0.360782 C1.53904 0.396967 1.60468 0.432227 1.67587 0.467798 C1.74643     0.50305 1.81432 0.539443 1.88506 0.57481 C1.91519 0.589877 2.08662 0.669164     2.09747 0.678593 L0.429982 0.678081 L1.25976 0.253573 zM0.315268 0.702549     L0.315268 0.860647 C0.315268 0.871859 0.323217 0.879808 0.334429 0.879808     L0.463783 0.879808 L0.463783 1.66551 L0.315267 1.66551 L0.315267 1.86194     L2.20287 1.86194 L2.20287 1.66551 L2.05914 1.66551 L2.05914 0.879808 L2.1885     0.879808 C2.19953 0.879808 2.20287 0.876477 2.20287 0.865438 L2.20287 0.688174     C2.15014 0.669087 2.02749 0.598068 1.96812 0.568402 C1.88934 0.52904 1.81273     0.488284 1.73336 0.44863 C1.68976 0.426843 1.26573 0.209087 1.26386 0.209087     C1.25339 0.209087 0.835694 0.425583 0.786387 0.450244 C0.733565 0.476665     0.315265 0.677811 0.315265 0.702547 L0.315269 0.702547 z" style="fill:rgb(0,0,0)"/><polygon points="0.502106,1.66551 0.636252,1.66551 0.636252,0.879807 0.502106,0.879807" style="fill:rgb(255,255,255)"/><polygon points="0.779976,1.66551 0.918913,1.66551 0.918913,0.879807 0.779976,0.879807" style="fill:rgb(255,255,255)"/><polygon points="1.60401,1.66551 1.73815,1.66551 1.73815,0.879807 1.60401,0.879807" style="fill:rgb(255,255,255)"/><polygon points="1.88188,1.66551 2.02081,1.66551 2.02081,0.879807 1.88188,0.879807" style="fill:rgb(255,255,255)"/><polygon points="0.353591,1.81882 2.16454,1.81882 2.16454,1.70384 0.353591,1.70384" style="fill:rgb(255,255,255)"/></g></svg>