<?xml version="1.0"?>
<!--
Copyright (C) 2012 United States Government as represented by the Administrator of the
National Aeronautics and Space Administration.
All Rights Reserved.
-->

<!DOCTYPE svg PUBLIC "-//W3C//DTD SVG 1.1//EN" "http://www.w3.org/Graphics/SVG/1.1/DTD/svg11.dtd" >
<!--
MIL-STD-2525 tactical symbol icon image. During icon composition this image is multiplied by the desired frame color 
(e.g. black), then drawn on top of the frame and fill.
-->
<svg xmlns:xlink="http://www.w3.org/1999/xlink" height="400px" viewBox="0 0 400 400" width="400px"><g transform="scale(100) translate(0.76 0.66)"><path d="M1.33011 0.671772 L1.33011 0.687989 L1.56796 0.687989 C1.56816 0.687989 1.68209 0.58643     1.68689 0.579874 C1.65592 0.53363 1.59776 0.487973 1.51931 0.487973 L1.50309     0.487973 C1.42553 0.487973 1.33011 0.602107 1.33011 0.671772 z" style="fill:rgb(255,255,255)"/><path d="M1.33011 0.855567 C1.3571 0.861854 1.42135 0.898618 1.4509 0.913165 C1.50727 0.940921     1.49428 0.988335 1.53012 1.01233 C1.53012 0.963693 1.53035 0.914996 1.5301     0.866359 C1.52978 0.804197 1.54835 0.782831 1.55175 0.742048 L1.33011 0.742048     z" style="fill:rgb(255,255,255)"/><path d="M1.62742 0.855567 L2.00583 0.855567 C2.00583 0.741724 1.92949 0.650146 1.81662 0.650146     L1.80581 0.650146 C1.70018 0.650146 1.62742 0.747221 1.62742 0.855567 z" style="fill:rgb(255,255,255)"/><path d="M1.62202 1.17992 C1.62202 1.18306 1.75489 1.40905 1.76798 1.42859 L1.7031 1.42859     L1.7031 1.89889 L2.00583 1.89889 L2.00583 0.904223 L1.62202 0.904223 z" style="fill:rgb(255,255,255)"/><path d="M0.686815 1.88807 L0.492205 1.88807 L0.492205 1.3529 C0.492205 1.32788 0.661485 1.0208     0.675819 1.01215 C0.70091 0.997019 1.02398 0.83394 1.02738 0.83394 C1.04056     0.83394 1.35823 0.992263 1.38609 1.0104 C1.39742 1.01778 1.57877 1.33844     1.57877 1.3529 L1.57877 1.88807 L1.38957 1.88807 L1.38957 1.4502 L0.686815     1.4502 zM1.62202 0.904216 L2.00583 0.904216 L2.00583 1.89888 L1.7031 1.89888     L1.7031 1.42858 L1.76798 1.42858 C1.75489 1.40905 1.62202 1.18305 1.62202     1.17991 zM1.62742 0.855562 C1.62742 0.747216 1.70019 0.650141 1.80582 0.650141     L1.81663 0.650141 C1.92949 0.650141 2.00583 0.74172 2.00583 0.855562 zM1.33011     0.742042 L1.55174 0.742042 C1.54835 0.782826 1.52978 0.804192 1.5301     0.866354 C1.53035 0.914991 1.53012 0.963688 1.53012 1.01233 C1.49428 0.988329     1.50727 0.940916 1.4509 0.91316 C1.42135 0.898613 1.35709 0.861849 1.33011     0.855562 zM1.33011 0.671767 C1.33011 0.602101 1.42553 0.487968 1.50309 0.487968     L1.51931 0.487968 C1.59776 0.487968 1.65592 0.533625 1.68689 0.579869 C1.68208     0.586425 1.56815 0.687983 1.56796 0.687983 L1.33011 0.687983 zM1.03278     0.709605 C0.952595 0.752039 0.869099 0.788767 0.785941 0.830357 C0.743149     0.851759 0.704409 0.868413 0.661606 0.889822 C0.591546 0.924861 0.604995 0.907255     0.561547 0.968149 C0.538858 0.999944 0.516334 1.04885 0.495066 1.08547     C0.472015 1.12515 0.448251 1.16052 0.426421 1.20062 C0.387369 1.27236 0.336338     1.36265 0.292189 1.42858 L0.362464 1.42858 L0.362464 1.99078 L0.800334     1.99078 L0.800334 1.55832 L1.27605 1.55832 L1.27605 1.99078 L2.10854 1.99078     L2.10854 0.877194 C2.10854 0.69056 2.00226 0.552844 1.81663 0.552844 L1.77338     0.552844 C1.75376 0.479364 1.62608 0.390671 1.52471 0.390671 L1.5139 0.390671     C1.35518 0.390671 1.23821 0.537332 1.23821 0.693395 L1.23821 0.806919 L1.03278     0.709612 z" style="fill:rgb(0,0,0)"/><path d="M0.686815 1.4502 L1.38957 1.4502 L1.38957 1.88807 L1.57877 1.88807 L1.57877 1.3529     C1.57877 1.33844 1.39742 1.01778 1.38609 1.0104 C1.35823 0.992263 1.04056     0.83394 1.02738 0.83394 C1.02398 0.83394 0.700909 0.997019 0.675819 1.01215     C0.661484 1.02079 0.492205 1.32788 0.492205 1.3529 L0.492205 1.88807 L0.686815     1.88807 z" style="fill:rgb(255,255,255)"/></g></svg>