<?xml version="1.0" encoding="UTF-8" standalone="no"?>
<!--
Copyright (C) 2012 United States Government as represented by the Administrator of the
National Aeronautics and Space Administration.
All Rights Reserved.
-->

<!--
MIL-STD-2525 tactical symbol icon image. During icon composition this image is multiplied by the desired frame color 
(e.g. black), then drawn on top of the frame and fill.
-->

<svg
   xmlns:dc="http://purl.org/dc/elements/1.1/"
   xmlns:cc="http://creativecommons.org/ns#"
   xmlns:rdf="http://www.w3.org/1999/02/22-rdf-syntax-ns#"
   xmlns:svg="http://www.w3.org/2000/svg"
   xmlns="http://www.w3.org/2000/svg"
   xmlns:sodipodi="http://sodipodi.sourceforge.net/DTD/sodipodi-0.dtd"
   xmlns:inkscape="http://www.inkscape.org/namespaces/inkscape"
   height="400px"
   viewBox="0 0 400 400"
   width="400px"
   id="svg2"
   version="1.1"
   inkscape:version="0.48.2 r9819"
   sodipodi:docname="ehiadh---------.svg">
  <metadata
     id="metadata14">
    <rdf:RDF>
      <cc:Work
         rdf:about="">
        <dc:format>image/svg+xml</dc:format>
        <dc:type
           rdf:resource="http://purl.org/dc/dcmitype/StillImage" />
      </cc:Work>
    </rdf:RDF>
  </metadata>
  <defs
     id="defs12" />
  <sodipodi:namedview
     pagecolor="#ffffff"
     bordercolor="#666666"
     borderopacity="1"
     objecttolerance="10"
     gridtolerance="10"
     guidetolerance="10"
     inkscape:pageopacity="0"
     inkscape:pageshadow="2"
     inkscape:window-width="640"
     inkscape:window-height="480"
     id="namedview10"
     showgrid="false"
     inkscape:zoom="0.59"
     inkscape:cx="200"
     inkscape:cy="200"
     inkscape:window-x="188"
     inkscape:window-y="43"
     inkscape:window-maximized="0"
     inkscape:current-layer="svg2" />
  <g
     transform="matrix(110,0,0,110,60.00005,60.99995)"
     id="g4"
     style="stroke:#000000;stroke-width:0.05454545;stroke-miterlimit:4;stroke-opacity:1;stroke-dasharray:0.10909091, 0.05454545;stroke-dashoffset:0">
    <path
       inkscape:connector-curvature="0"
       d="m 1.09409,0.836276 0,1.350954 c 0,0.03101 0.10644,0.02863 0.14321,0.02863 l 0.04774,0 c 0.03676,0 0.14321,0.00238 0.14321,-0.02863 l 0,-1.350954 c 0,-0.104626 -0.33416,-0.103654 -0.33416,0 z"
       style="fill:#ffffff;stroke:#000000;stroke-width:0.05454545;stroke-miterlimit:4;stroke-opacity:1;stroke-dasharray:0.10909091, 0.05454545;stroke-dashoffset:0"
       id="path6" />
    <path
       inkscape:connector-curvature="0"
       d="m 1.09409,0.836276 c 0,-0.103654 0.33416,-0.104626 0.33416,0 l 0,1.350954 c 0,0.03101 -0.10645,0.02863 -0.14321,0.02863 l -0.04774,0 c -0.03677,0 -0.14321,0.00238 -0.14321,-0.02863 z m 0.12889,-0.501232 -0.15753,0 0,0.071602 0.15276,0 0,0.076382 -0.09071,0 0,0.047733 0.09071,0 0,0.12889 -0.1098,0 0,0.109795 C 1.08304,0.776221 1.06067,0.807969 1.06067,0.841052 l 0,1.331848 c 0,0.08016 0.09122,0.07638 0.17186,0.07638 l 0.05728,0 c 0.08179,0 0.17185,0.00503 0.17185,-0.07638 l 0,-1.322308 C 1.46166,0.782635 1.4187,0.782521 1.4187,0.759895 l 0,-0.100248 -0.11457,0 0,-0.253004 0.15276,0 0,-0.071602 -0.1623,0 0,-0.06206 -0.07161,0 0,0.06206 z"
       style="fill:#000000;stroke:#000000;stroke-width:0.05454545;stroke-miterlimit:4;stroke-opacity:1;stroke-dasharray:0.10909091, 0.05454545;stroke-dashoffset:0"
       id="path8" />
  </g>
</svg>
