<?xml version="1.0" encoding="UTF-8" standalone="no"?>
<!--
Copyright (C) 2012 United States Government as represented by the Administrator of the
National Aeronautics and Space Administration.
All Rights Reserved.
-->

<!--
MIL-STD-2525 tactical symbol icon image. During icon composition this image is multiplied by the desired frame color 
(e.g. black), then drawn on top of the frame and fill.
-->

<svg
   xmlns:dc="http://purl.org/dc/elements/1.1/"
   xmlns:cc="http://creativecommons.org/ns#"
   xmlns:rdf="http://www.w3.org/1999/02/22-rdf-syntax-ns#"
   xmlns:svg="http://www.w3.org/2000/svg"
   xmlns="http://www.w3.org/2000/svg"
   xmlns:sodipodi="http://sodipodi.sourceforge.net/DTD/sodipodi-0.dtd"
   xmlns:inkscape="http://www.inkscape.org/namespaces/inkscape"
   height="400px"
   viewBox="0 0 400 400"
   width="400px"
   id="svg2"
   version="1.1"
   inkscape:version="0.48.2 r9819"
   sodipodi:docname="ehoadea--------.svg">
  <metadata
     id="metadata38">
    <rdf:RDF>
      <cc:Work
         rdf:about="">
        <dc:format>image/svg+xml</dc:format>
        <dc:type
           rdf:resource="http://purl.org/dc/dcmitype/StillImage" />
      </cc:Work>
    </rdf:RDF>
  </metadata>
  <defs
     id="defs36" />
  <sodipodi:namedview
     pagecolor="#ffffff"
     bordercolor="#666666"
     borderopacity="1"
     objecttolerance="10"
     gridtolerance="10"
     guidetolerance="10"
     inkscape:pageopacity="0"
     inkscape:pageshadow="2"
     inkscape:window-width="705"
     inkscape:window-height="480"
     id="namedview34"
     showgrid="false"
     inkscape:zoom="0.59"
     inkscape:cx="200"
     inkscape:cy="200"
     inkscape:window-x="273"
     inkscape:window-y="96"
     inkscape:window-maximized="0"
     inkscape:current-layer="g4" />
  <g
     transform="scale(100) translate(0.68 0.69)"
     id="g4"
     style="stroke:#000000;stroke-opacity:1;stroke-width:0.06;stroke-miterlimit:4;stroke-dasharray:0.12,0.06;stroke-dashoffset:0">
    <path
       d="M1.63122 0.495039 L1.63122 0.532838 L1.92282 0.532838 L1.92282 0.516641 C1.92282     0.421354 1.86634 0.370838 1.77162 0.370838 C1.6959 0.370838 1.63122 0.418956     1.63122 0.495039 z"
       style="fill:rgb(0, 0, 0);stroke:#000000;stroke-opacity:1;stroke-width:0.06;stroke-miterlimit:4;stroke-dasharray:0.12,0.06;stroke-dashoffset:0"
       id="path6" />
    <path
       d="M1.40441 0.608441 L1.63661 0.608441 L1.63472 0.646547 L1.64741 0.732642 C1.67554     0.751476 1.67035 0.77587 1.71993 0.800524 C1.75275 0.816835 1.8007 0.814642     1.83285 0.79928 C1.89098 0.771504 1.93135 0.691418 1.91202 0.608441 L2.14962     0.608441 L2.14962 0.576039 L1.40441 0.576039 z"
       style="fill:rgb(0, 0, 0);stroke:#000000;stroke-opacity:1;stroke-width:0.06;stroke-miterlimit:4;stroke-dasharray:0.12,0.06;stroke-dashoffset:0"
       id="path8" />
    <path
       d="M0.977807 0.840646 L0.977807 0.846044 C0.977807 0.881705 1.08088 1.00453 1.10518     1.03728 C1.13677 1.07985 1.20394 1.19705 1.26401 1.19705 C1.29897 1.19705 1.46978     1.06538 1.50702 1.04045 L1.50802 1.38673 L1.86342 0.856847 C1.77414 0.856847     1.56661 0.846981 1.49823 0.864264 C1.44665 0.877303 1.31185 1.01036 1.27481     1.01344 C1.2702 0.996185 1.19799 0.903693 1.18195 0.879504 C1.16192 0.849291     1.11102 0.765043 1.06961 0.765043 L1.04801 0.765043 C1.01037 0.765043     0.977808 0.801074 0.977808 0.840645 z"
       style="fill:rgb(0, 0, 0);stroke:#000000;stroke-opacity:1;stroke-width:0.06;stroke-miterlimit:4;stroke-dasharray:0.12,0.06;stroke-dashoffset:0"
       id="path10" />
    <path
       d="M0.859004 1.38605 L0.988606 1.47245 L0.987968 1.66238 L0.859003 1.57505 zM0.610602     1.20785 L0.734803 1.29425 L0.734401 1.48382 L0.610602 1.39685 zM0.356799 1.03505     L0.48009 1.1174 L0.480999 1.30505 L0.356798 1.22405 zM0.216397 1.14845     C0.216397 1.16933 0.584779 1.41211 0.630043 1.44221 C0.703035 1.49076 0.768319     1.53894 0.840571 1.58809 C0.878004 1.61355 0.909756 1.63592 0.946488 1.66037     C0.98033 1.68291 1.03181 1.70427 1.03181 1.75326 L1.03181 2.08266 L1.32341     2.08266 L1.32341 1.78566 C1.32341 1.75657 1.36661 1.71578 1.36661 1.71006     C1.36661 1.68103 1.33851 1.70599 1.32748 1.6628 C1.31791 1.62537 1.32078     1.62972 1.29866 1.5998 C1.27392 1.56632 1.23284 1.53726 1.17761 1.53726 C1.09927     1.53726 1.12151 1.53016 1.06205 1.49081 C1.0253 1.46648 0.991346 1.44337     0.957138 1.41752 C0.893055 1.36908 0.817496 1.31846 0.74991 1.27374 C0.690071     1.23415 0.363898 0.99439 0.3298 0.986445 C0.319548 1.00582 0.216398 1.14835     0.216397 1.14845 z"
       style="fill:rgb(0, 0, 0);stroke:#000000;stroke-opacity:1;stroke-width:0.06;stroke-miterlimit:4;stroke-dasharray:0.12,0.06;stroke-dashoffset:0"
       id="path14" />
    <path
       d="M1.60422 1.38605 L1.90663 1.38605 L1.90663 1.49945 L1.50702 1.49945 L1.50702 2.08266     L1.71564 2.08248 L1.75002 1.67766 L1.80967 1.67764 L1.84182 2.08266 L2.04703     2.08266 L2.04703 0.916241 C2.04703 0.89593 1.98662 0.856844 1.96602 0.856844     C1.9445 0.856844 1.63268 1.33227 1.60422 1.38605 z"
       style="fill:rgb(0, 0, 0);stroke:#000000;stroke-opacity:1;stroke-width:0.06;stroke-miterlimit:4;stroke-dasharray:0.12,0.06;stroke-dashoffset:0"
       id="path20" />
    <line
       x1="1.63122"
       x2="1.63122"
       y1="0.532839"
       y2="0.576039"
       id="line28"
       style="stroke:#000000;stroke-opacity:1;stroke-width:0.06;stroke-miterlimit:4;stroke-dasharray:0.12,0.06;stroke-dashoffset:0" />
    <line
       x1="1.92282"
       x2="1.92282"
       y1="0.532839"
       y2="0.576039"
       id="line30"
       style="stroke:#000000;stroke-opacity:1;stroke-width:0.06;stroke-miterlimit:4;stroke-dasharray:0.12,0.06;stroke-dashoffset:0" />
  </g>
</svg>
