<?xml version="1.0" encoding="UTF-8" standalone="no"?>
<!--
Copyright (C) 2012 United States Government as represented by the Administrator of the
National Aeronautics and Space Administration.
All Rights Reserved.
-->

<!--
MIL-STD-2525 tactical symbol icon image. During icon composition this image is multiplied by the desired frame color 
(e.g. black), then drawn on top of the frame and fill.
-->

<svg
   xmlns:dc="http://purl.org/dc/elements/1.1/"
   xmlns:cc="http://creativecommons.org/ns#"
   xmlns:rdf="http://www.w3.org/1999/02/22-rdf-syntax-ns#"
   xmlns:svg="http://www.w3.org/2000/svg"
   xmlns="http://www.w3.org/2000/svg"
   xmlns:sodipodi="http://sodipodi.sourceforge.net/DTD/sodipodi-0.dtd"
   xmlns:inkscape="http://www.inkscape.org/namespaces/inkscape"
   height="400px"
   viewBox="0 0 400 400"
   width="400px"
   id="svg2"
   version="1.1"
   inkscape:version="0.48.2 r9819"
   sodipodi:docname="enfaba---------.svg">
  <metadata
     id="metadata38">
    <rdf:RDF>
      <cc:Work
         rdf:about="">
        <dc:format>image/svg+xml</dc:format>
        <dc:type
           rdf:resource="http://purl.org/dc/dcmitype/StillImage" />
      </cc:Work>
    </rdf:RDF>
  </metadata>
  <defs
     id="defs36" />
  <sodipodi:namedview
     pagecolor="#ffffff"
     bordercolor="#666666"
     borderopacity="1"
     objecttolerance="10"
     gridtolerance="10"
     guidetolerance="10"
     inkscape:pageopacity="0"
     inkscape:pageshadow="2"
     inkscape:window-width="640"
     inkscape:window-height="480"
     id="namedview34"
     showgrid="false"
     inkscape:zoom="0.59"
     inkscape:cx="200"
     inkscape:cy="200"
     inkscape:window-x="0"
     inkscape:window-y="0"
     inkscape:window-maximized="0"
     inkscape:current-layer="svg2" />
  <g
     transform="matrix(100,0,0,100,76,81)"
     id="g4"
     style="stroke:#000000;stroke-width:0.06;stroke-miterlimit:4;stroke-opacity:1;stroke-dasharray:0.12, 0.06;stroke-dashoffset:0">
    <path
       inkscape:connector-curvature="0"
       d="m 1.24424,1.01118 0,0.00472 c 0,0.02885 0.04586,0.05929 0.06837,0.06031 L 1.36697,0.949814 C 1.35556,0.944337 1.34632,0.940373 1.32921,0.940373 l -0.00472,0 c -0.0534,0 -0.08025,0.0167 -0.08025,0.070807 z"
       style="fill:#ffffff;stroke:#000000;stroke-width:0.06;stroke-miterlimit:4;stroke-opacity:1;stroke-dasharray:0.12, 0.06;stroke-dashoffset:0"
       id="path6" />
    <polygon
       points="1.94717,1.22334 1.9754,1.17294 1.83066,1.11541 1.81096,1.17177 "
       style="fill:#000000;stroke:#000000;stroke-width:0.06;stroke-miterlimit:4;stroke-opacity:1;stroke-dasharray:0.12, 0.06;stroke-dashoffset:0"
       id="polygon8" />
    <path
       inkscape:connector-curvature="0"
       d="m 1.26715,1.313 c 0.01758,0.00423 0.02287,0.00974 0.04317,0.00974 l 0.00472,0 c 0.02392,0 0.06609,-0.01682 0.06609,-0.03777 l 0,-0.06136 c 0,-0.01794 -0.03907,-0.04332 -0.0528,-0.05231 z"
       style="fill:#ffffff;stroke:#000000;stroke-width:0.06;stroke-miterlimit:4;stroke-opacity:1;stroke-dasharray:0.12, 0.06;stroke-dashoffset:0"
       id="path10" />
    <polygon
       points="1.87933,1.35281 1.90946,1.30471 1.76922,1.24758 1.74832,1.30347 "
       style="fill:#000000;stroke:#000000;stroke-width:0.06;stroke-miterlimit:4;stroke-opacity:1;stroke-dasharray:0.12, 0.06;stroke-dashoffset:0"
       id="polygon12" />
    <path
       inkscape:connector-curvature="0"
       d="m 1.32833,1.1713 c 0.01373,0.00899 0.0528,0.03437 0.0528,0.0523 l 0,0.06137 c 0,0.02095 -0.04217,0.03776 -0.06609,0.03776 l -0.00472,0 c -0.0203,0 -0.02559,-0.0055 -0.04317,-0.00973 z M 1.24423,1.01118 c 0,-0.054108 0.02685,-0.070809 0.08025,-0.070809 l 0.00472,0 c 0.01711,0 0.02635,0.003964 0.03776,0.009441 L 1.3126,1.07621 C 1.29009,1.07519 1.24423,1.04475 1.24423,1.0159 z M 1.38453,0.906587 C 1.37754,0.903343 1.35421,0.893166 1.34336,0.893166 l -0.0472,0 c -0.0169,0 -0.06245,0.013586 -0.07287,0.021543 -0.00784,0.00598 -0.0357,0.054654 -0.0357,0.063425 l 0,0.042486 c 0,0.05277 0.09441,0.10539 0.09441,0.12273 0,0.00867 -0.05526,0.11541 -0.06137,0.14162 C 1.20483,1.27661 1.15926,1.23898 1.15926,1.21888 l 0,-0.01416 C 1.15926,1.18356 1.17342,1.17046 1.17814,1.1528 1.15467,1.14732 1.12821,1.125 1.11836,1.12249 1.10862,1.12001 1.09318,1.16634 1.09318,1.18112 l 0,0.00944 c 0,0.06813 0.10385,0.13461 0.10385,0.14161 0,0.01518 -0.01048,0.03613 -0.01343,0.05041 L 1.22522,1.40293 1.23951,1.3605 c 0.03381,7.5e-4 0.04963,0.01888 0.08969,0.01888 l 0.01416,0 c 0.03471,0 0.06552,-0.01287 0.08038,-0.03291 C 1.43207,1.33524 1.46137,1.28705 1.46137,1.27081 l 0,-0.00944 c 0,-0.06435 -0.0686,-0.11957 -0.10919,-0.14662 l 0.06199,-0.141337 0.00944,0 C 1.43439,1.0032 1.46137,0.989232 1.46147,1.06287 l 0.07071,0.02855 0,-0.04248 c 0,-0.051003 -0.05131,-0.103247 -0.09629,-0.114042 L 1.45698,0.882551 1.40519,0.869819 z"
       style="fill:#000000;stroke:#000000;stroke-width:0.06;stroke-miterlimit:4;stroke-opacity:1;stroke-dasharray:0.12, 0.06;stroke-dashoffset:0"
       id="path14" />
    <polygon
       points="1.68763,1.41699 1.8235,1.47227 1.82248,1.46753 1.85323,1.42175 1.71003,1.36663 "
       style="fill:#000000;stroke:#000000;stroke-width:0.06;stroke-miterlimit:4;stroke-opacity:1;stroke-dasharray:0.12, 0.06;stroke-dashoffset:0"
       id="polygon16" />
    <path
       inkscape:connector-curvature="0"
       d="M 1.40519,0.869819 1.45698,0.882551 1.43589,0.934898 c 0.04498,0.010795 0.0963,0.063039 0.0963,0.114042 l 0,0.04249 L 1.46147,1.06287 C 1.46137,0.989232 1.43439,1.0032 1.42361,0.973413 l -0.00944,0 L 1.35219,1.11475 C 1.39278,1.1418 1.46137,1.19702 1.46137,1.26137 l 0,0.00944 c 0,0.01624 -0.02929,0.06443 -0.03762,0.07566 C 1.40888,1.36651 1.37807,1.37938 1.34336,1.37938 l -0.01416,0 C 1.28915,1.37938 1.27332,1.36125 1.23951,1.3605 L 1.22522,1.40293 1.18361,1.38258 C 1.18655,1.3683 1.19703,1.34735 1.19703,1.33217 c 0,-0.007 -0.10385,-0.07348 -0.10385,-0.14161 l 0,-0.00944 c 0,-0.01478 0.01544,-0.06111 0.02518,-0.05863 C 1.12821,1.125 1.15467,1.14732 1.17815,1.1528 1.17343,1.17046 1.15927,1.18356 1.15927,1.20472 l 0,0.01416 c 0,0.0201 0.04556,0.05773 0.06136,0.06609 C 1.22674,1.25876 1.282,1.15202 1.282,1.14335 1.282,1.12601 1.18759,1.07339 1.18759,1.02062 l 0,-0.042486 c 0,-0.008771 0.02786,-0.057445 0.0357,-0.063425 C 1.23371,0.906753 1.27927,0.893166 1.29616,0.893166 l 0.0472,0 c 0.01085,0 0.03418,0.010177 0.04117,0.013421 z M 0.860166,1.25569 1.52657,1.57724 1.80108,0.973878 1.14957,0.737248 z"
       style="fill:#ffffff;stroke:#000000;stroke-width:0.06;stroke-miterlimit:4;stroke-opacity:1;stroke-dasharray:0.12, 0.06;stroke-dashoffset:0"
       id="path18" />
    <path
       inkscape:connector-curvature="0"
       d="M 1.14957,0.737248 1.80108,0.973878 1.52657,1.57724 0.860164,1.25569 z M 0.838267,1.26609 1.53265,1.60146 1.82485,0.959252 C 1.79998,0.957185 1.53044,0.855201 1.48823,0.837988 1.45778,0.825571 1.1555,0.713787 1.14982,0.713787 1.12735,0.713787 1.0134,0.950598 0.991318,0.984846 0.970342,1.01738 0.843826,1.24223 0.838267,1.26609 z"
       style="fill:#000000;stroke:#000000;stroke-width:0.06;stroke-miterlimit:4;stroke-opacity:1;stroke-dasharray:0.12, 0.06;stroke-dashoffset:0"
       id="path20" />
    <path
       inkscape:connector-curvature="0"
       d="M 1.63132,1.54459 1.76669,1.60016 1.76469,1.59404 1.79654,1.54931 C 1.7705,1.54325 1.673,1.49266 1.65964,1.49266 c -0.00926,0 -0.0273,0.03971 -0.02832,0.05193 z"
       style="fill:#000000;stroke:#000000;stroke-width:0.06;stroke-miterlimit:4;stroke-opacity:1;stroke-dasharray:0.12, 0.06;stroke-dashoffset:0"
       id="path22" />
    <polygon
       points="0.94324,1.77708 1.09214,1.63114 0.984811,1.5591 0.792476,1.6744 "
       style="fill:#ffffff;stroke:#000000;stroke-width:0.06;stroke-miterlimit:4;stroke-opacity:1;stroke-dasharray:0.12, 0.06;stroke-dashoffset:0"
       id="polygon24" />
    <path
       inkscape:connector-curvature="0"
       d="M 0.984811,1.5591 1.09214,1.63114 0.94324,1.77708 0.792476,1.6744 z M 0.758024,1.67205 0.942622,1.79533 1.1215,1.62956 C 1.10771,1.62033 0.989213,1.53988 0.98461,1.53988 c -0.025413,0 -0.18815,0.12191 -0.226586,0.13217 z"
       style="fill:#000000;stroke:#000000;stroke-width:0.06;stroke-miterlimit:4;stroke-opacity:1;stroke-dasharray:0.12, 0.06;stroke-dashoffset:0"
       id="path26" />
    <path
       inkscape:connector-curvature="0"
       d="M 0.758024,1.67205 C 0.796461,1.66179 0.959197,1.53988 0.984611,1.53988 c 0.004602,0 0.123099,0.08045 0.136899,0.08969 L 0.942623,1.79533 z M 0.578646,1.65789 c 0.004992,0.0187 0.31502,0.2201 0.354035,0.24075 C 0.953047,1.885 1.03973,1.77033 1.07075,1.73931 1.0981,1.71197 1.21518,1.61172 1.22535,1.59652 1.18704,1.5876 1.01386,1.49267 1.00349,1.49267 c -0.029526,0 -0.297758,0.16239 -0.424844,0.16522 z"
       style="fill:#ffffff;stroke:#000000;stroke-width:0.06;stroke-miterlimit:4;stroke-opacity:1;stroke-dasharray:0.12, 0.06;stroke-dashoffset:0"
       id="path28" />
    <path
       inkscape:connector-curvature="0"
       d="M 0.578646,1.65789 C 0.705733,1.65506 0.973965,1.49267 1.00349,1.49267 c 0.01037,0 0.18355,0.09493 0.22186,0.10385 C 1.21518,1.61172 1.0981,1.71197 1.07075,1.73931 1.03973,1.77032 0.953047,1.885 0.932681,1.89863 0.893665,1.87799 0.583638,1.67659 0.578646,1.65789 z M 0.201166,1.5029 0.49841,1.44072 0.776697,1.58169 0.534599,1.65763 0.940166,1.9252 0.939087,1.9197 1.09818,1.73284 1.76993,2.05068 2.27772,0.879902 1.02237,0.449441 C 1.00936,0.505291 0.892319,0.678043 0.860386,0.745347 0.839756,0.788831 0.803461,0.855449 0.77776,0.894028 0.748426,0.938056 0.723953,0.996414 0.695807,1.04338 0.666949,1.09154 0.643181,1.13922 0.61354,1.1877 0.584618,1.23499 0.56054,1.29382 0.5315,1.33696 0.470433,1.42769 0.52467,1.40393 0.393406,1.43017 0.328186,1.44321 0.263705,1.45446 0.201,1.46907 M 1.75139,2.00605 1.12148,1.7098 1.2399,1.60987 1.42217,1.6973 1.4523,1.63827 0.854808,1.34619 0.855159,1.35226 0.82882,1.40772 0.980466,1.47966 0.823635,1.56444 0.528194,1.41886 0.523253,1.41993 1.04073,0.493719 1.04589,0.496869 2.22997,0.900377 2.23623,0.900259 z"
       style="fill:#000000;stroke:#000000;stroke-width:0.06;stroke-miterlimit:4;stroke-opacity:1;stroke-dasharray:0.12, 0.06;stroke-dashoffset:0"
       id="path30" />
    <path
       inkscape:connector-curvature="0"
       d="M 1.63132,1.54459 C 1.63234,1.53237 1.65038,1.49266 1.65964,1.49266 c 0.01336,0 0.11086,0.05059 0.1369,0.05665 l -0.03185,0.04473 0.002,0.00612 z M 1.71003,1.36663 1.85323,1.42174 1.82248,1.46752 1.8235,1.47227 1.68763,1.41699 z M 1.76922,1.24758 1.90946,1.3047 1.87934,1.35281 1.74832,1.30347 z M 1.83066,1.1154 1.9754,1.17294 1.94717,1.22334 1.81096,1.17176 z M 0.838273,1.26608 C 0.843832,1.24222 0.970348,1.01737 0.991324,0.984842 1.01341,0.950594 1.12736,0.713783 1.14983,0.713783 c 0.00568,0 0.30795,0.111783 0.3384,0.124201 0.04221,0.017213 0.31176,0.119197 0.33663,0.121264 L 1.53265,1.60145 z M 2.23623,0.900251 2.22998,0.900369 1.0459,0.496861 1.04074,0.493711 0.523259,1.41992 0.5282,1.41885 0.823641,1.56443 0.980472,1.47965 0.828826,1.40771 0.855165,1.35225 0.854814,1.34618 1.4523,1.63826 1.42218,1.69729 1.2399,1.60986 1.12148,1.70979 1.7514,2.00604 2.23623,0.900249 z"
       style="fill:#ffffff;stroke:#000000;stroke-width:0.06;stroke-miterlimit:4;stroke-opacity:1;stroke-dasharray:0.12, 0.06;stroke-dashoffset:0"
       id="path32" />
  </g>
</svg>
