<?xml version="1.0" encoding="UTF-8" standalone="no"?>
<!--
Copyright (C) 2012 United States Government as represented by the Administrator of the
National Aeronautics and Space Administration.
All Rights Reserved.
-->

<!--
MIL-STD-2525 tactical symbol icon image. During icon composition this image is multiplied by the desired frame color 
(e.g. black), then drawn on top of the frame and fill.
-->

<svg
   xmlns:dc="http://purl.org/dc/elements/1.1/"
   xmlns:cc="http://creativecommons.org/ns#"
   xmlns:rdf="http://www.w3.org/1999/02/22-rdf-syntax-ns#"
   xmlns:svg="http://www.w3.org/2000/svg"
   xmlns="http://www.w3.org/2000/svg"
   xmlns:sodipodi="http://sodipodi.sourceforge.net/DTD/sodipodi-0.dtd"
   xmlns:inkscape="http://www.inkscape.org/namespaces/inkscape"
   height="400px"
   viewBox="0 0 400 400"
   width="400px"
   id="svg2"
   version="1.1"
   inkscape:version="0.48.2 r9819"
   sodipodi:docname="enfaaa---------.svg">
  <metadata
     id="metadata106">
    <rdf:RDF>
      <cc:Work
         rdf:about="">
        <dc:format>image/svg+xml</dc:format>
        <dc:type
           rdf:resource="http://purl.org/dc/dcmitype/StillImage" />
      </cc:Work>
    </rdf:RDF>
  </metadata>
  <defs
     id="defs104" />
  <sodipodi:namedview
     pagecolor="#ffffff"
     bordercolor="#666666"
     borderopacity="1"
     objecttolerance="10"
     gridtolerance="10"
     guidetolerance="10"
     inkscape:pageopacity="0"
     inkscape:pageshadow="2"
     inkscape:window-width="640"
     inkscape:window-height="480"
     id="namedview102"
     showgrid="false"
     inkscape:zoom="0.59"
     inkscape:cx="200"
     inkscape:cy="200"
     inkscape:window-x="220"
     inkscape:window-y="77"
     inkscape:window-maximized="0"
     inkscape:current-layer="svg2" />
  <path
     style="fill:#ffffff;fill-opacity:1;stroke:#000000;stroke-width:6;stroke-miterlimit:4;stroke-opacity:1;stroke-dasharray:12, 6;stroke-dashoffset:0"
     d="m 199.54483,93.5 c -9.1012,0 -16.46875,23.2586 -16.46875,51.96875 0,1.75217 0.009,3.47988 0.0625,5.1875 -2.68098,-0.26229 -4.732,-0.54759 -6.0625,-0.6875 l -0.21875,0 c -12.574,0 -21.9375,24.31825 -21.9375,38.40625 0,5.66 1.83985,13.4255 5.03125,15.5625 1.8768,-3.547 3.2549,-7.6405 5.125,-11.3125 1.8752,-3.683 3.4954,-7.744 5.1875,-11.5 0.8303,-1.844 1.77085,-3.712 2.65625,-5.5 1.0323,-2.084 1.9407,-3.67475 4.625,-2.84375 2.346,0.725 4.7996,8.02025 5.25,11.40625 1.2704,9.546 -4e-4,22.529 1.5,31.625 1.6512,10.007 5.80595,15.94675 13.40625,19.96875 2.4174,-1.16 6.1494,-1.53525 8.375,-3.03125 2.3173,-1.557 4.45675,-3.06925 6.03125,-5.40625 3.0838,-4.577 4.90625,-10.38825 4.90625,-17.90625 l 0.125,-1.53125 -0.78125,-14.0625 0,-0.65625 c 0,-6.803 1.24225,-20.84375 7.03125,-20.84375 l 0.21875,0 c 3.622,0 5.0365,1.45325 6.5625,3.53125 1.374,1.871 3.12075,3.621 4.59375,5.5 2.931,3.741 6.40625,7.2365 6.40625,13.8125 l 0,1.5 0.875,0.25 c 0.936,-4.017 4.59375,-7.14075 4.59375,-12.96875 l 0,-3.71875 c 0,-8.762 -3.60225,-15.60125 -7.40625,-20.65625 -2.041,-2.712 -4.38475,-4.91975 -7.09375,-6.96875 -1.8,-1.362 -6.68725,-4.84375 -9.40625,-4.84375 l -2,-0.125 c -1.62347,0.40715 -3.19928,0.76989 -4.75,1.09375 0.0217,-1.09104 0.0312,-2.17298 0.0312,-3.28125 0,-28.71015 -7.36755,-51.96875 -16.46875,-51.96875 z"
     id="path98"
     inkscape:connector-curvature="0" />
  <g
     transform="matrix(100,0,0,100,117,38)"
     id="g4">
    <polygon
       points="0.761185,0.647835 0.763382,0.641252 0.737457,0.63702 0.734854,0.643449 "
       style="fill:#000000"
       id="polygon6" />
    <path
       inkscape:connector-curvature="0"
       d="M 0.772157,0.643449 0.818177,0.652213 0.833602,0.560055 C 0.824586,0.559307 0.8287,0.557862 0.820437,0.557862 c -0.040528,0 -0.034969,0.057847 -0.04828,0.085587 z"
       style="fill:#ffffff"
       id="path8" />
    <path
       inkscape:connector-curvature="0"
       d="M 0.827992,0.654181 0.87374,0.66324 0.87776,0.597043 0.884079,0.601752 C 0.883244,0.591752 0.882862,0.593567 0.875299,0.595169 L 0.87726,0.593059 0.846535,0.564531 0.845063,0.566736 z"
       style="fill:#ffffff"
       id="path10" />
    <polygon
       points="0.884429,0.606161 0.881291,0.665362 0.91811,0.671433 "
       style="fill:#ffffff"
       id="polygon12" />
    <polygon
       points="0.761185,0.647835 0.734854,0.643449 0.710732,0.709157 0.745827,0.715866 "
       style="fill:#ffffff"
       id="polygon14" />
    <polygon
       points="0.754602,0.715866 0.769878,0.650299 0.761185,0.647835 0.745827,0.715866 "
       style="fill:#000000"
       id="polygon16" />
    <polygon
       points="0.745827,0.715866 0.74363,0.722449 0.748134,0.72226 0.752409,0.724642 0.754602,0.720256 0.754602,0.715866 "
       style="fill:#ffffff"
       id="polygon18" />
    <polygon
       points="0.772157,0.650031 0.772157,0.643449 0.763382,0.641252 0.761185,0.647835 0.769878,0.650299 0.754602,0.715866 0.806996,0.724602 0.815988,0.659094 "
       style="fill:#ffffff"
       id="polygon20" />
    <polygon
       points="0.868535,0.735602 0.872984,0.67039 0.826642,0.660941 0.816012,0.726831 "
       style="fill:#ffffff"
       id="polygon22" />
    <path
       inkscape:connector-curvature="0"
       d="M 0.930161,0.757559 0.940433,0.756701 0.932354,0.746587 c 0,-0.03278 -9.88e-4,-0.031402 -0.008484,-0.05515 C 0.919535,0.677705 0.922744,0.680122 0.907323,0.67726 0.897598,0.675453 0.888464,0.672705 0.880409,0.672024 L 0.875382,0.737342 0.930161,0.746587 z"
       style="fill:#ffffff"
       id="path24" />
    <polygon
       points="0.681598,0.778661 0.68428,0.779122 0.691799,0.776941 0.708575,0.715587 0.74363,0.722449 0.745827,0.715866 0.710732,0.709157 0.734854,0.643449 0.724756,0.636465 "
       style="fill:#000000"
       id="polygon26" />
    <polygon
       points="0.74161,0.789689 0.795839,0.801386 0.804992,0.73387 0.752409,0.724642 "
       style="fill:#ffffff"
       id="polygon28" />
    <path
       inkscape:connector-curvature="0"
       d="m 0.804866,0.803614 0.057268,0.013197 c 0,-0.086185 0.03224,-0.062437 -0.047386,-0.081067 z"
       style="fill:#ffffff"
       id="path30" />
    <path
       inkscape:connector-curvature="0"
       d="M 0.925772,0.829976 0.930162,0.757559 0.8753,0.746586 c 0,0.084217 -0.031922,0.064197 0.050472,0.08339 z"
       style="fill:#ffffff"
       id="path32" />
    <path
       inkscape:connector-curvature="0"
       d="m 0.932354,0.832173 0.026335,0.00439 C 0.955063,0.820988 0.952275,0.761453 0.937319,0.759783 z"
       style="fill:#ffffff"
       id="path34" />
    <polygon
       points="0.932354,0.838756 0.932354,0.832173 0.925772,0.829976 0.925772,0.836563 "
       style="fill:#ffffff"
       id="polygon36" />
    <path
       inkscape:connector-curvature="0"
       d="M 0.719492,0.854118 C 0.739169,0.853681 0.732496,0.811122 0.73924,0.797059 L 0.728476,0.794901 z"
       style="fill:#000000"
       id="path38" />
    <polygon
       points="0.855472,0.887028 0.862181,0.823173 0.803626,0.810327 0.795555,0.871575 "
       style="fill:#ffffff"
       id="polygon40" />
    <polygon
       points="0.925772,0.836563 0.869083,0.825626 0.862437,0.887976 0.921382,0.902398 "
       style="fill:#ffffff"
       id="polygon42" />
    <polygon
       points="0.927969,0.904591 0.932354,0.838756 0.925772,0.836563 0.921382,0.902398 "
       style="fill:#000000"
       id="polygon44" />
    <polygon
       points="0.927969,0.91337 0.927969,0.904591 0.921382,0.902398 0.921382,0.91337 "
       style="fill:#ffffff"
       id="polygon46" />
    <path
       inkscape:connector-curvature="0"
       d="m 0.927969,0.904591 0.041693,0.00878 C 0.96756,0.908985 0.963969,0.873343 0.963012,0.865158 0.960174,0.840878 0.957174,0.840823 0.932355,0.838756 z"
       style="fill:#ffffff"
       id="path48" />
    <path
       inkscape:connector-curvature="0"
       d="M 0.719492,0.854118 0.717295,0.860701 C 0.687756,0.860043 0.679653,0.837972 0.674701,0.868579 0.673197,0.877874 0.666768,0.921901 0.667917,0.92939 0.668705,0.934535 0.685567,0.935539 0.691433,0.937055 0.707945,0.941327 0.707992,0.94335 0.7085,0.924323 0.709,0.905756 0.715736,0.881638 0.717295,0.862894 L 0.726771,0.862988 0.717453,0.94339 0.776547,0.95726 0.785205,0.878736 0.728268,0.86509 0.728484,0.855433 0.786819,0.86939 0.794055,0.808248 0.73924,0.797059 C 0.732496,0.811122 0.739169,0.853681 0.719492,0.854118 z"
       style="fill:#ffffff"
       id="path50" />
    <path
       inkscape:connector-curvature="0"
       d="m 0.78313,0.966035 0.002197,-0.006583 -0.00439,-0.002193 -0.00439,0 C 0.77726,0.965834 0.775221,0.963925 0.78313,0.966035 z"
       style="fill:#ffffff"
       id="path52" />
    <polygon
       points="0.846772,0.972618 0.855421,0.896327 0.794366,0.880484 0.785327,0.959453 "
       style="fill:#ffffff"
       id="polygon54" />
    <polygon
       points="0.846772,0.981398 0.846772,0.972618 0.785327,0.959453 0.78313,0.966035 "
       style="fill:#000000"
       id="polygon56" />
    <polygon
       points="0.915071,0.988004 0.921382,0.91337 0.862165,0.898012 0.855547,0.974815 "
       style="fill:#ffffff"
       id="polygon58" />
    <polygon
       points="0.976579,1.00112 0.969567,0.924728 0.928457,0.915598 0.923087,0.990142 "
       style="fill:#ffffff"
       id="polygon60" />
    <polygon
       points="0.699319,1.02086 0.706295,0.948602 0.667106,0.939728 0.660917,1.01218 "
       style="fill:#ffffff"
       id="polygon62" />
    <polygon
       points="0.715571,0.950724 0.708717,1.02217 0.767772,1.03407 0.767772,1.04504 0.776547,1.04504 0.776547,1.03626 0.769291,1.0362 0.774295,0.964098 "
       style="fill:#ffffff"
       id="polygon64" />
    <polygon
       points="0.78313,0.966035 0.778921,1.0376 0.840343,1.04944 0.846772,0.981398 "
       style="fill:#ffffff"
       id="polygon66" />
    <path
       inkscape:connector-curvature="0"
       d="m 0.846772,0.981398 0.007382,6.3e-5 -0.005189,0.070159 -0.008776,0 0,0.00878 0.006583,0.00219 c 3.54e-4,-0.00426 -1.02e-4,-0.00877 0.00439,-0.00877 0.016976,0 0.038523,0.01055 0.057055,0.01097 C 0.908394,1.05678 0.915323,1.00152 0.914666,0.999252 0.913083,0.993807 0.865422,0.983811 0.855548,0.983591 l 0,-0.008776 -0.008776,-0.002197 z"
       style="fill:#ffffff"
       id="path68" />
    <path
       inkscape:connector-curvature="0"
       d="M 0.978441,1.08015 0.978961,1.05158 0.976181,1.01021 0.921382,0.998953 c 0,0.009287 -0.003697,0.067157 -0.003689,0.067167 0.002268,0.00394 0.052811,0.01385 0.060748,0.01403 z"
       style="fill:#ffffff"
       id="path70" />
    <path
       inkscape:connector-curvature="0"
       d="m 0.66024,1.08015 c 0,0.01296 -0.005024,0.00549 0.012913,0.01122 0.007012,0.00225 0.015429,0.00559 0.024394,0.00634 l 0,-0.05267 c 0,-0.01679 0.010169,-0.01448 -0.010063,-0.01847 C 0.677464,1.02459 0.67063,1.02113 0.66024,1.0209 z"
       style="fill:#ffffff"
       id="path72" />
    <polygon
       points="0.763382,1.11965 0.767772,1.04504 0.706323,1.03187 0.706846,1.05605 0.704413,1.10116 "
       style="fill:#ffffff"
       id="polygon74" />
    <path
       inkscape:connector-curvature="0"
       d="M 0.912063,1.12838 C 0.932476,1.11791 0.949606,1.10868 0.980634,1.10868 0.97913,1.106 0.978441,1.10633 0.978441,1.10209 L 0.978323,1.09164 0.916268,1.07789 z"
       style="fill:#ffffff"
       id="path76" />
    <polygon
       points="0.829217,1.1394 0.840189,1.0604 0.776953,1.04726 0.772157,1.12184 "
       style="fill:#ffffff"
       id="polygon78" />
    <polygon
       points="0.837992,1.14159 0.846772,1.06259 0.840189,1.0604 0.829217,1.1394 "
       style="fill:#000000"
       id="polygon80" />
    <polygon
       points="0.829217,1.14818 0.833602,1.15037 0.837992,1.15037 0.837992,1.14159 0.829217,1.1394 "
       style="fill:#ffffff"
       id="polygon82" />
    <path
       inkscape:connector-curvature="0"
       d="M 0.837992,1.15037 0.879358,1.16255 0.884079,1.16134 C 0.88074,1.14884 0.849051,1.1469 0.837992,1.14159 z"
       style="fill:#000000"
       id="path84" />
    <path
       inkscape:connector-curvature="0"
       d="M 0.772157,1.12184 0.763381,1.11965 0.763236,1.12894 0.704129,1.11306 l 0,0.00878 c 0,0.00563 -5.27e-4,0.00531 -0.002196,0.00878 0.009712,0.01835 0.039503,0.06579 0.039503,0.08778 l 0.004658,-9e-5 -0.002488,-0.00864 0.019775,0.00873 0,-0.08778 0.008776,0 z"
       style="fill:#ffffff"
       id="path86" />
    <polygon
       points="0.829217,1.14818 0.772157,1.13281 0.771972,1.1394 0.772146,1.22501 0.814091,1.24477 "
       style="fill:#ffffff"
       id="polygon88" />
    <path
       inkscape:connector-curvature="0"
       d="m 0.764602,1.25832 9.72e-4,-0.01359 c 0,-0.01342 -0.004834,-0.01913 -0.016153,-0.0216 z"
       style="fill:#ffffff"
       id="path90" />
    <path
       inkscape:connector-curvature="0"
       d="M 0.837992,1.14159 C 0.849051,1.1469 0.88074,1.14884 0.884079,1.16134 L 0.879358,1.16255 0.837992,1.15037 0.822925,1.25078 0.844575,1.26229 C 0.853646,1.24515 0.863563,1.21327 0.871783,1.19294 0.880445,1.17153 0.896331,1.15056 0.908217,1.13281 L 0.902992,1.13274 0.90822,1.07574 0.846772,1.06259 z"
       style="fill:#ffffff"
       id="path92" />
    <path
       inkscape:connector-curvature="0"
       d="M 0.778469,1.28866 0.769965,1.27326 c 0,0.01496 0.008528,0.04529 0.020158,0.04812 L 0.78752,1.31496 C 0.80152,1.31122 0.810205,1.27101 0.811642,1.25355 L 0.771339,1.23387 z"
       style="fill:#ffffff"
       id="path94" />
    <path
       inkscape:connector-curvature="0"
       d="M 0.791909,1.32374 0.808204,1.37452 0.842094,1.2695 0.820437,1.2601 C 0.811661,1.27839 0.813775,1.3179 0.791909,1.32374 z"
       style="fill:#ffffff"
       id="path96" />
    <path
       inkscape:connector-curvature="0"
       d="M 0.791909,1.32374 C 0.813775,1.3179 0.811661,1.27839 0.820437,1.2601 L 0.842094,1.2695 0.808204,1.37452 z M 0.787519,1.31496 0.790122,1.32139 C 0.778492,1.31855 0.769964,1.28822 0.769964,1.27327 l 0.008504,0.0154 -0.00713,-0.0548 0.040303,0.01968 C 0.810204,1.27102 0.801519,1.31122 0.787519,1.31496 z M 0.764602,1.25833 0.749421,1.22314 C 0.76074,1.22561 0.765574,1.23131 0.765574,1.24474 z M 0.829216,1.14818 0.81409,1.24478 0.772145,1.22501 0.771972,1.1394 0.772157,1.13282 z m -0.065834,-0.02853 0.008775,0.0022 0,0.00878 -0.008775,0 0,0.08777 -0.019776,-0.00873 0.002488,0.00865 -0.004657,8e-5 C 0.741437,1.19642 0.711645,1.14898 0.701933,1.13063 0.703602,1.12715 0.70413,1.12748 0.70413,1.12185 l 0,-0.00878 0.059106,0.01588 z M 0.916268,1.0779 0.978323,1.09165 0.978441,1.1021 c 0,0.00423 6.89e-4,0.0039 0.002193,0.00658 -0.031028,0 -0.048158,0.00924 -0.068571,0.01971 z M 0.763382,1.11965 0.704413,1.10116 0.706846,1.05605 0.706322,1.03187 0.767771,1.04504 z M 0.978441,1.08015 C 0.970504,1.07998 0.91996,1.07006 0.917693,1.06612 c -8e-6,-1e-5 0.003689,-0.05788 0.003689,-0.067164 L 0.976181,1.01021 0.97896,1.05159 z M 0.66024,1.0209 c 0.010389,2.3e-4 0.017224,0.0037 0.027244,0.00567 0.020232,0.004 0.010063,0.00169 0.010063,0.01847 l 0,0.05267 C 0.688582,1.09696 0.680165,1.09362 0.673153,1.09138 0.655216,1.08564 0.66024,1.09312 0.66024,1.08015 z M 0.928457,0.915602 0.969567,0.924732 0.976579,1.00112 0.923086,0.990145 z m -0.160685,0.129438 0,-0.01097 L 0.708716,1.02218 0.715571,0.950728 0.774295,0.964102 0.769291,1.03621 l 0.007256,5e-5 0,0.00878 z M 0.667107,0.939732 0.706296,0.948606 0.699319,1.02086 0.660918,1.01218 z M 0.855548,0.974819 0.862166,0.898016 0.921382,0.913374 0.915071,0.988008 z m -0.008776,-0.002197 0.008776,0.002197 0,0.008775 C 0.865422,0.983815 0.913083,0.993811 0.914666,0.999256 0.915323,1.00152 0.908394,1.05678 0.908217,1.06479 0.889685,1.06438 0.868138,1.05382 0.851162,1.05382 c -0.004492,0 -0.004036,0.00452 -0.00439,0.00878 l 0.061449,0.01315 -0.005229,0.057 0.005225,7e-5 C 0.896331,1.15057 0.880445,1.17154 0.871784,1.19294 0.863563,1.21328 0.853646,1.24515 0.844575,1.26229 l -0.02165,-0.01151 0.015067,-0.1004 -0.004389,0 -0.004386,-0.0022 0,-0.00878 -0.057059,-0.01755 0.004795,-0.07459 0.063236,0.01314 0,-0.00877 0.008776,0 L 0.854154,0.981464 0.846772,0.981401 0.840343,1.04944 0.778921,1.0376 0.78313,0.966039 C 0.775221,0.963928 0.77726,0.965838 0.776547,0.957263 l 0.00439,0 0.00439,0.002193 0.009039,-0.078969 0.061055,0.015843 z m 0.079,-0.136055 0,-0.006587 0.006583,0.002197 0,0.006583 c 0.024819,0.002067 0.027819,0.002122 0.030657,0.026401 9.57e-4,0.008185 0.004547,0.043827 0.00665,0.048213 l -0.041693,-0.00878 0,0.00878 -0.006587,0 0,-0.010973 L 0.862437,0.88798 0.869083,0.82563 z m 0.006583,-0.00439 0.004964,-0.07239 c 0.014957,0.001669 0.017744,0.061205 0.02137,0.07678 z M 0.803627,0.81033 0.862182,0.823177 0.855473,0.887031 0.795556,0.871578 z M 0.925773,0.82998 C 0.843379,0.810787 0.8753,0.830807 0.8753,0.74659 L 0.930162,0.757563 z M 0.814749,0.735748 C 0.894375,0.754378 0.862134,0.73063 0.862134,0.816815 L 0.804867,0.803618 z M 0.75241,0.724645 0.804993,0.733874 0.795839,0.801389 0.741611,0.789693 z m 0.177752,0.032918 0,-0.010973 L 0.875383,0.737346 0.88041,0.672027 c 0.008055,6.81e-4 0.017189,0.003429 0.026913,0.005237 0.015422,0.002862 0.012213,4.44e-4 0.016548,0.014177 0.007496,0.023748 0.008484,0.02237 0.008484,0.055149 L 0.940434,0.756705 z M 0.826642,0.660945 0.872985,0.670393 0.868536,0.735606 0.816012,0.726834 z M 0.884429,0.606165 0.918111,0.671437 0.881292,0.665366 z M 0.845063,0.56674 0.846536,0.564535 0.87726,0.593063 0.8753,0.595173 C 0.882863,0.593571 0.883244,0.591756 0.884079,0.601756 L 0.87776,0.597047 0.87374,0.663244 0.827992,0.654185 z M 0.772158,0.643452 C 0.785469,0.615712 0.77991,0.557866 0.820437,0.557866 c 0.008264,0 0.00415,0.001445 0.013166,0.002193 L 0.818178,0.652216 z m -0.008776,-0.002196 0.008776,0.002196 0,0.006583 0.043831,0.009063 -0.008993,0.065508 -0.052393,-0.008736 0,0.00439 L 0.75241,0.724645 0.748134,0.722264 0.74363,0.722453 0.7303,0.786897 0.690961,0.779508 l 0,0.006582 c 0.01202,0.001 0.023748,0.006587 0.035114,0.006587 0.004291,0 -4.8e-4,-0.004087 0.013166,-0.00439 l 0,0.008776 L 0.794056,0.808252 0.786819,0.869393 0.728485,0.855437 0.728268,0.865094 0.785205,0.87874 0.776548,0.957264 0.717453,0.943393 0.726772,0.862992 0.717296,0.862897 C 0.715737,0.881641 0.709,0.90576 0.7085,0.924326 0.707993,0.943354 0.707945,0.94133 0.691434,0.937059 0.685567,0.935543 0.668705,0.934539 0.667918,0.929393 0.666768,0.921905 0.673197,0.877878 0.674701,0.868582 0.679654,0.837976 0.687756,0.860047 0.717296,0.860704 L 0.719493,0.854122 C 0.712918,0.850968 0.679989,0.846173 0.679989,0.840952 0.679989,0.821323 0.688768,0.804004 0.688768,0.783897 0.673906,0.785523 0.670949,0.842055 0.66878,0.858271 0.665953,0.879397 0.658556,0.923082 0.659709,0.940106 0.661119,0.960933 0.65365,1.00005 0.653658,1.02748 c 8e-6,0.03283 -0.002197,0.06007 -0.002197,0.09437 l 0.006587,0 2.56e-4,-0.02289 0.037047,0.00972 7.1e-5,0.02371 -0.085654,-0.01274 -0.002197,0 c -0.12574,0 -0.219449,0.24316 -0.219449,0.38404 0,0.0566 0.018563,0.13444 0.050477,0.15581 C 0.457367,1.62403 0.471107,1.58284 0.489808,1.54612 0.50856,1.50929 0.524804,1.46882 0.541725,1.43126 0.550028,1.41282 0.559217,1.39428 0.568071,1.3764 0.578394,1.35556 0.587449,1.33943 0.614292,1.34774 0.637752,1.35499 0.66256,1.4279 0.667064,1.46176 0.679768,1.55722 0.666941,1.68728 0.681945,1.77824 0.698457,1.87831 0.740044,1.93748 0.816047,1.9777 0.840221,1.9661 0.877634,1.96238 0.89989,1.94742 0.923063,1.93185 0.944236,1.91677 0.959981,1.8934 0.990819,1.84763 1.00916,1.78954 1.00916,1.71436 L 1.01043,1.69893 1.00258,1.55855 l 0,-0.00658 c 0,-0.06803 0.01233,-0.20848 0.07022,-0.20848 l 0.0022,0 c 0.03622,0 0.05057,0.01434 0.06583,0.03512 0.01374,0.01871 0.03095,0.03647 0.04568,0.05526 0.02931,0.03741 0.06405,0.07209 0.06405,0.13785 l 8e-5,0.01509 0.00869,0.00246 C 1.26869,1.5491 1.30542,1.51808 1.30542,1.4598 l 0,-0.03731 C 1.30542,1.33487 1.26921,1.2664 1.23117,1.21585 1.21076,1.18873 1.18731,1.16683 1.16022,1.14634 1.14222,1.13272 1.09341,1.09771 1.06622,1.09771 L 1.0463,1.09665 0.989414,1.10649 C 0.984429,1.0851 0.9915,1.05671 0.986343,1.02836 0.982839,1.00912 0.98204,0.966599 0.98063,0.946296 0.977012,0.89421 0.967918,0.840154 0.958524,0.792843 0.942248,0.710883 0.908748,0.588658 0.844575,0.557867 L 0.844492,0.564718 0.835319,0.562131 0.837953,0.553741 0.818244,0.551285 C 0.795197,0.547828 0.770673,0.571757 0.760614,0.583631 0.754618,0.590706 0.718035,0.632911 0.73924,0.634674 0.742795,0.619415 0.771386,0.581092 0.783468,0.573328 z"
       style="fill:#000000"
       id="path4079" />
  </g>
  <text
     style="font-size:52px;font-weight:bold;text-anchor:middle;fill:#000000;stroke:#000000;stroke-width:6;stroke-miterlimit:4;stroke-opacity:1;stroke-dasharray:12, 6;stroke-dashoffset:0;font-family:arial"
     x="200"
     y="285"
     id="text100">LAB</text>
</svg>
