<?xml version="1.0" encoding="UTF-8" standalone="no"?>
<!--
Copyright (C) 2012 United States Government as represented by the Administrator of the
National Aeronautics and Space Administration.
All Rights Reserved.
-->

<!--
MIL-STD-2525 tactical symbol icon image. During icon composition this image is multiplied by the desired frame color 
(e.g. black), then drawn on top of the frame and fill.
-->

<svg
   xmlns:dc="http://purl.org/dc/elements/1.1/"
   xmlns:cc="http://creativecommons.org/ns#"
   xmlns:rdf="http://www.w3.org/1999/02/22-rdf-syntax-ns#"
   xmlns:svg="http://www.w3.org/2000/svg"
   xmlns="http://www.w3.org/2000/svg"
   xmlns:sodipodi="http://sodipodi.sourceforge.net/DTD/sodipodi-0.dtd"
   xmlns:inkscape="http://www.inkscape.org/namespaces/inkscape"
   height="400px"
   viewBox="0 0 400 400"
   width="400px"
   id="svg2"
   version="1.1"
   inkscape:version="0.48.2 r9819"
   sodipodi:docname="enfaca---------.svg">
  <metadata
     id="metadata50">
    <rdf:RDF>
      <cc:Work
         rdf:about="">
        <dc:format>image/svg+xml</dc:format>
        <dc:type
           rdf:resource="http://purl.org/dc/dcmitype/StillImage" />
      </cc:Work>
    </rdf:RDF>
  </metadata>
  <defs
     id="defs48" />
  <sodipodi:namedview
     pagecolor="#ffffff"
     bordercolor="#666666"
     borderopacity="1"
     objecttolerance="10"
     gridtolerance="10"
     guidetolerance="10"
     inkscape:pageopacity="0"
     inkscape:pageshadow="2"
     inkscape:window-width="640"
     inkscape:window-height="480"
     id="namedview46"
     showgrid="false"
     inkscape:zoom="0.59"
     inkscape:cx="200"
     inkscape:cy="200"
     inkscape:window-x="85"
     inkscape:window-y="44"
     inkscape:window-maximized="0"
     inkscape:current-layer="svg2" />
  <g
     transform="matrix(100,0,0,100,74,63)"
     id="g4"
     style="fill:#ffffff;fill-opacity:1;stroke:#000000;stroke-width:0.06;stroke-miterlimit:4;stroke-opacity:1;stroke-dasharray:0.12, 0.06;stroke-dashoffset:0">
    <path
       inkscape:connector-curvature="0"
       d="m 1.10993,1.0681 c 0,-0.01639 0.01949,-0.03984 0.03187,-0.03984 l 0.24301,0 c 0.01146,0 0.03187,0.03551 0.03187,0.04382 l 0,0.01594 c 0,0.02232 -0.03187,0.01746 -0.03187,0.03585 l 0,0.12748 c 0,0.01208 0.24699,0.34371 0.24699,0.37048 l 0,0.08366 c 0,0.07653 -0.16854,0.14342 -0.25496,0.14342 l -0.22707,0 C 1.09872,1.84891 1.02488,1.83092 0.993583,1.80989 0.970977,1.7947 0.894811,1.73852 0.894811,1.70947 l 0,-0.03585 c 0,-0.06104 0.08963,-0.1761 0.117639,-0.22496 C 1.02936,1.41915 1.13782,1.24875 1.13782,1.23143 l 0,-0.10756 C 1.13782,1.10535 1.10993,1.1089 1.10993,1.0681 z m 0.26691,-0.099594 -0.864466,0 0,0.924224 1.501856,0 0,-0.924224 -0.16731,0 0,-0.33463 -0.11154,0 0,0.33463 -0.247,0 0,-0.33463 -0.11154,0 z"
       style="fill:#ffffff;fill-opacity:1;stroke:#000000;stroke-width:0.06;stroke-miterlimit:4;stroke-opacity:1;stroke-dasharray:0.12, 0.06;stroke-dashoffset:0"
       id="path6" />
    <path
       d="m 0.48448,1.92459 1.55763,0 0,-0.987957 -0.15935,0 0,-0.33463 -0.17926,0 0,0.33463 -0.17927,0 0,-0.33463 -0.17927,0 0,0.33463 -0.86048,0 z"
       style="fill:#ffffff;fill-opacity:1;stroke:#000000;stroke-width:0.06;stroke-miterlimit:4;stroke-opacity:1;stroke-dasharray:0.12, 0.06;stroke-dashoffset:0"
       id="path8"
       inkscape:connector-curvature="0"
       sodipodi:nodetypes="ccccccccccccc" />
  </g>
  <g
     transform="matrix(100,0,0,100,74,62)"
     id="g12">
    <path
       inkscape:connector-curvature="0"
       d="m 1.12985,1.06411 0.00797,0.02789 0.243,0 c 0.00933,0 0.01594,-0.00661 0.01594,-0.01594 0,-0.0186 -0.00929,-0.02788 -0.02789,-0.02788 l -0.21113,0 c -0.01622,0 -0.02143,0.00628 -0.02789,0.01593 z"
       style="fill:#ffffff"
       id="path14" />
    <path
       inkscape:connector-curvature="0"
       d="m 1.36887,1.82898 -0.22707,0 C 1.09613,1.82898 1.03542,1.81502 1.00709,1.79637 0.987314,1.78336 0.918893,1.71894 0.914728,1.71744 l 0,-0.03187 c 0,-0.06368 0.082949,-0.18252 0.113912,-0.22869 C 1.04112,1.43827 1.16172,1.2446 1.16172,1.24338 l 0,-0.1235 0.20317,0 0,0.13545 c 0,0.02614 0.24699,0.33254 0.24699,0.37845 l 0,0.05976 c 0,0.0749 -0.16342,0.13544 -0.24301,0.13544 z m 0,-0.7808 c 0.0186,0 0.02789,0.00928 0.02789,0.02788 0,0.00933 -0.00661,0.01594 -0.01594,0.01594 l -0.243,0 L 1.12985,1.06411 C 1.13631,1.05446 1.14152,1.04818 1.15774,1.04818 z M 1.37684,1.8489 c 0.08642,0 0.25496,-0.06689 0.25496,-0.14341 l 0,-0.08366 c 0,-0.02678 -0.24699,-0.3584 -0.24699,-0.37049 l 0,-0.12747 c 0,-0.01839 0.03187,-0.01353 0.03187,-0.03586 l 0,-0.01593 c 0,-0.00832 -0.02041,-0.04382 -0.03187,-0.04382 l -0.24301,0 c -0.01238,0 -0.03187,0.02345 -0.03187,0.03983 0,0.0408 0.02789,0.03726 0.02789,0.05578 l 0,0.10756 c 0,0.01731 -0.10846,0.18772 -0.12537,0.21723 C 0.984441,1.49752 0.894811,1.61258 0.894811,1.67362 l 0,0.03585 c 0,0.02904 0.076166,0.08522 0.098772,0.10041 C 1.02488,1.83092 1.09872,1.8489 1.14977,1.8489 z"
       style="fill:#000000"
       id="path16" />
    <path
       inkscape:connector-curvature="0"
       d="m 1.00635,1.61785 0,0.0478 c 0,0.08712 0.15113,0.10756 0.24699,0.10756 l 0.07968,0 c 0.06203,0 0.19918,-0.05411 0.19918,-0.10357 l 0,-0.01992 c 0,-0.07858 -0.16539,-0.23407 -0.18325,-0.31073 l -0.18723,0 C 1.14724,1.4011 1.00635,1.58779 1.00635,1.61785 z"
       style="fill:#000000"
       id="path18" />
    <path
       inkscape:connector-curvature="0"
       d="m 1.00635,1.61785 c 0,-0.03006 0.14089,-0.21675 0.15537,-0.27886 l 0.18723,0 C 1.36681,1.41565 1.5322,1.57114 1.5322,1.64972 l 0,0.01992 c 0,0.04946 -0.13715,0.10357 -0.19918,0.10357 l -0.07968,0 c -0.09586,0 -0.24699,-0.02044 -0.24699,-0.10756 z m 0.36252,0.21113 c 0.07959,0 0.243,-0.06053 0.243,-0.13544 l 0,-0.05976 c 0,-0.04591 -0.24698,-0.35231 -0.24698,-0.37845 l 0,-0.13544 -0.20317,0 0,0.12349 c 0,0.00122 -0.1206,0.19489 -0.13308,0.21351 -0.030967,0.04616 -0.113915,0.165 -0.113915,0.22868 l 0,0.03187 C 0.91889,1.71895 0.987312,1.78336 1.00709,1.79638 1.03542,1.81502 1.09612,1.82898 1.1418,1.82898 z"
       style="fill:#ffffff"
       id="path20" />
  </g>
  <path
     inkscape:connector-curvature="0"
     d="m 189.668,173.353 c 0,0 -0.546,6.512 0,10.197"
     style="fill:none;stroke:#000000;stroke-width:5"
     id="path22" />
  <path
     inkscape:connector-curvature="0"
     d="m 189.501,182.012 c -0.011,16.274 -25.5,30.402 -25.5,49.425"
     style="fill:none;stroke:#000000;stroke-width:5"
     id="path24" />
  <path
     inkscape:connector-curvature="0"
     d="m 211.335,172.937 c 0,0 -0.25,7 -0.334,10.416"
     style="fill:none;stroke:#000000;stroke-width:5"
     id="path26" />
  <path
     inkscape:connector-curvature="0"
     d="m 211.001,182.103 c 3.76,22.179 25.667,29.273 24.667,49.5"
     style="fill:none;stroke:#000000;stroke-width:5"
     id="path28" />
  <path
     inkscape:connector-curvature="0"
     d="m 189.234,165.906 c -6.468,-0.214 -4.446,7.365 1.333,6.556"
     style="fill:none;stroke:#000000;stroke-width:4"
     id="path30" />
  <path
     inkscape:connector-curvature="0"
     d="m 209.678,172.573 c 7.326,-1.691 7.253,-6.445 -0.222,-6.667"
     style="fill:none;stroke:#000000;stroke-width:4"
     id="path32" />
  <path
     inkscape:connector-curvature="0"
     d="m 187.456,165.906 c 0,0 17.778,0.056 23.666,0"
     style="fill:none;stroke:#000000;stroke-width:4"
     id="path34" />
  <path
     inkscape:connector-curvature="0"
     d="m 188.345,172.351 c 0,0 16.833,0 22.444,0"
     style="fill:none;stroke:#000000;stroke-width:4"
     id="path36" />
  <path
     inkscape:connector-curvature="0"
     d="m 186.122,246.128 c 0,0 20.334,0 27.112,0"
     style="fill:none;stroke:#000000;stroke-width:5"
     id="path38" />
  <path
     inkscape:connector-curvature="0"
     d="m 209.9,246.351 c 12.777,-1.475 25.056,-0.421 25.556,-16"
     style="fill:none;stroke:#000000;stroke-width:5"
     id="path40" />
  <path
     inkscape:connector-curvature="0"
     d="m 187.658,246.192 c -9.774,0.814 -23.715,-4.919 -23.715,-16.143"
     style="fill:none;stroke:#000000;stroke-width:5"
     id="path42" />
  <path
     inkscape:connector-curvature="0"
     d="m 185.978,168.758 0.5,2.083"
     style="fill:none;stroke:#000000;stroke-width:1"
     id="path44" />
</svg>
