<?xml version="1.0" encoding="UTF-8" standalone="no"?>
<!--
Copyright (C) 2012 United States Government as represented by the Administrator of the
National Aeronautics and Space Administration.
All Rights Reserved.
-->

<!--
MIL-STD-2525 tactical symbol icon image. During icon composition this image is multiplied by the desired frame color 
(e.g. black), then drawn on top of the frame and fill.
-->

<svg
   xmlns:dc="http://purl.org/dc/elements/1.1/"
   xmlns:cc="http://creativecommons.org/ns#"
   xmlns:rdf="http://www.w3.org/1999/02/22-rdf-syntax-ns#"
   xmlns:svg="http://www.w3.org/2000/svg"
   xmlns="http://www.w3.org/2000/svg"
   xmlns:sodipodi="http://sodipodi.sourceforge.net/DTD/sodipodi-0.dtd"
   xmlns:inkscape="http://www.inkscape.org/namespaces/inkscape"
   height="400px"
   viewBox="0 0 400 400"
   width="400px"
   id="svg2"
   version="1.1"
   inkscape:version="0.48.2 r9819"
   sodipodi:docname="enfabc---------.svg">
  <metadata
     id="metadata32">
    <rdf:RDF>
      <cc:Work
         rdf:about="">
        <dc:format>image/svg+xml</dc:format>
        <dc:type
           rdf:resource="http://purl.org/dc/dcmitype/StillImage" />
      </cc:Work>
    </rdf:RDF>
  </metadata>
  <defs
     id="defs30" />
  <sodipodi:namedview
     pagecolor="#ffffff"
     bordercolor="#666666"
     borderopacity="1"
     objecttolerance="10"
     gridtolerance="10"
     guidetolerance="10"
     inkscape:pageopacity="0"
     inkscape:pageshadow="2"
     inkscape:window-width="640"
     inkscape:window-height="475"
     id="namedview28"
     showgrid="false"
     inkscape:zoom="0.59"
     inkscape:cx="200"
     inkscape:cy="200"
     inkscape:window-x="201"
     inkscape:window-y="78"
     inkscape:window-maximized="0"
     inkscape:current-layer="svg2" />
  <g
     transform="matrix(120,0,0,120,60,59.000042)"
     id="g4"
     style="stroke:#000000;stroke-width:0.05;stroke-miterlimit:4;stroke-opacity:1;stroke-dasharray:0.1, 0.05;stroke-dashoffset:0">
    <path
       inkscape:connector-curvature="0"
       d="M 0.933701,1.2202 1.12894,1.21946 1.3261,0.958598 l -0.14086,0 C 1.17063,0.958598 0.952,1.19287 0.933701,1.2202 z"
       style="fill:#ffffff;stroke:#000000;stroke-width:0.05;stroke-miterlimit:4;stroke-opacity:1;stroke-dasharray:0.1, 0.05;stroke-dashoffset:0"
       id="path6" />
    <path
       inkscape:connector-curvature="0"
       d="M 1.14969,1.22497 1.33616,1.43149 C 1.34832,1.42259 1.54243,1.14197 1.54243,1.13971 1.54243,1.13261 1.37378,0.975345 1.35508,0.962687 z"
       style="fill:#ffffff;stroke:#000000;stroke-width:0.05;stroke-miterlimit:4;stroke-opacity:1;stroke-dasharray:0.1, 0.05;stroke-dashoffset:0"
       id="path8" />
    <path
       inkscape:connector-curvature="0"
       d="M 0.639425,1.43417 0.727437,1.43652 C 0.756638,1.39292 0.808968,1.32955 0.844524,1.28698 0.878496,1.24631 0.95191,1.17765 0.973949,1.14474 L 0.915657,1.14195 z"
       style="fill:#ffffff;stroke:#000000;stroke-width:0.05;stroke-miterlimit:4;stroke-opacity:1;stroke-dasharray:0.1, 0.05;stroke-dashoffset:0"
       id="path10" />
    <path
       inkscape:connector-curvature="0"
       d="m 0.752591,1.43652 0.558419,0 C 1.30615,1.4183 1.13374,1.24032 1.11984,1.24032 l -0.19117,0 c -0.017929,0 -0.160665,0.17319 -0.176079,0.1962 z"
       style="fill:#ffffff;stroke:#000000;stroke-width:0.05;stroke-miterlimit:4;stroke-opacity:1;stroke-dasharray:0.1, 0.05;stroke-dashoffset:0"
       id="path12" />
    <path
       inkscape:connector-curvature="0"
       style="fill:#ffffff;stroke:#000000;stroke-width:0.05;stroke-miterlimit:4;stroke-opacity:1;stroke-dasharray:0.1, 0.05;stroke-dashoffset:0"
       d="M 1.35992,1.43554 1.44458,1.43858 1.66317,1.14474 1.5636,1.14548 z"
       id="polygon14" />
    <path
       inkscape:connector-curvature="0"
       d="m 1.23555,1.45665 0.20123,0 c 0.0088,0 0.18774,0.19114 0.20123,0.2113 l -0.56848,0 c 0.00546,-0.02046 0.155,-0.2113 0.16602,-0.2113 z m -0.608728,0 0.206264,0 c 0.012437,0 0.170794,0.18839 0.186134,0.2113 l -0.568476,0 C 0.456461,1.64654 0.613342,1.45665 0.626823,1.45665 z M 0.866913,1.45785 1.18716,1.45801 1.04388,1.66334 z M 0.75259,1.43653 C 0.768003,1.41352 0.91074,1.24033 0.928669,1.24033 l 0.191171,0 c 0.0139,0 0.1863,0.17798 0.19117,0.1962 z M 1.6635,1.66313 1.46709,1.44668 1.68316,1.14991 1.88596,1.3268 1.66349,1.66313 z M 1.5636,1.14548 1.66317,1.14474 1.44458,1.43858 1.35992,1.43555 z M 0.915657,1.14195 0.973949,1.14474 C 0.951909,1.17765 0.878496,1.24631 0.844524,1.28698 0.808968,1.32955 0.756638,1.39292 0.727437,1.43653 L 0.639425,1.43417 z M 1.35508,0.962688 c 0.0187,0.012658 0.18735,0.169922 0.18735,0.177022 0,0.00226 -0.19411,0.28288 -0.20627,0.29179 L 1.14969,1.22497 z M 0.9337,1.2202 C 0.951999,1.19288 1.17063,0.958602 1.18524,0.958602 l 0.14086,0 -0.19716,0.260858 z m 0.06037,-0.09558 -0.095586,0 C 0.872901,1.16283 0.808999,1.22668 0.773964,1.2617 0.730188,1.30547 0.691861,1.35411 0.648196,1.39753 0.62018,1.4254 0.415566,1.66406 0.410495,1.68304 0.421778,1.68567 0.422062,1.68807 0.435652,1.68807 L 1.67102,1.6866 1.91298,1.32302 1.90626,1.32447 1.68831,1.12462 l -0.12073,0 C 1.53568,1.10326 1.36752,0.938481 1.35125,0.938481 l -0.17105,0 c -0.01821,0 -0.15708,0.166689 -0.186134,0.186139 z"
       style="fill:#000000;stroke:#000000;stroke-width:0.05;stroke-miterlimit:4;stroke-opacity:1;stroke-dasharray:0.1, 0.05;stroke-dashoffset:0"
       id="path16" />
    <path
       inkscape:connector-curvature="0"
       style="fill:#ffffff;stroke:#000000;stroke-width:0.05;stroke-miterlimit:4;stroke-opacity:1;stroke-dasharray:0.1, 0.05;stroke-dashoffset:0"
       d="M 1.04388,1.66334 1.18717,1.458 0.866913,1.45784 z"
       id="polygon18" />
    <path
       inkscape:connector-curvature="0"
       style="fill:#ffffff;stroke:#000000;stroke-width:0.05;stroke-miterlimit:4;stroke-opacity:1;stroke-dasharray:0.1, 0.05;stroke-dashoffset:0"
       d="M 1.88596,1.3268 1.68317,1.14991 1.46709,1.44668 1.6635,1.66313 z"
       id="polygon20" />
    <path
       inkscape:connector-curvature="0"
       d="m 0.626823,1.45665 c -0.01348,0 -0.170362,0.18989 -0.176079,0.2113 l 0.568476,0 C 1.00389,1.64504 0.845523,1.45665 0.833086,1.45665 l -0.206264,0 z"
       style="fill:#ffffff;stroke:#000000;stroke-width:0.05;stroke-miterlimit:4;stroke-opacity:1;stroke-dasharray:0.1, 0.05;stroke-dashoffset:0"
       id="path22" />
    <path
       inkscape:connector-curvature="0"
       d="m 1.23555,1.45665 c -0.01102,0 -0.16056,0.19084 -0.16602,0.2113 l 0.56848,0 C 1.62452,1.64779 1.44558,1.45665 1.43678,1.45665 z"
       style="fill:#ffffff;stroke:#000000;stroke-width:0.05;stroke-miterlimit:4;stroke-opacity:1;stroke-dasharray:0.1, 0.05;stroke-dashoffset:0"
       id="path24" />
  </g>
  <text
     style="font-size:52px;font-weight:bold;text-anchor:middle;fill:#000000;font-family:Arial"
     x="200"
     y="148"
     id="text26">STOR</text>
</svg>
