<?xml version="1.0" encoding="UTF-8" standalone="no"?>
<!--
Copyright (C) 2012 United States Government as represented by the Administrator of the
National Aeronautics and Space Administration.
All Rights Reserved.
-->

<!--
MIL-STD-2525 tactical symbol icon image. During icon composition this image is multiplied by the desired frame color 
(e.g. black), then drawn on top of the frame and fill.
-->

<svg
   xmlns:dc="http://purl.org/dc/elements/1.1/"
   xmlns:cc="http://creativecommons.org/ns#"
   xmlns:rdf="http://www.w3.org/1999/02/22-rdf-syntax-ns#"
   xmlns:svg="http://www.w3.org/2000/svg"
   xmlns="http://www.w3.org/2000/svg"
   xmlns:sodipodi="http://sodipodi.sourceforge.net/DTD/sodipodi-0.dtd"
   xmlns:inkscape="http://www.inkscape.org/namespaces/inkscape"
   height="400px"
   viewBox="0 0 400 400"
   width="400px"
   id="svg2"
   version="1.1"
   inkscape:version="0.48.2 r9819"
   sodipodi:docname="enfaha---------.svg">
  <metadata
     id="metadata18">
    <rdf:RDF>
      <cc:Work
         rdf:about="">
        <dc:format>image/svg+xml</dc:format>
        <dc:type
           rdf:resource="http://purl.org/dc/dcmitype/StillImage" />
      </cc:Work>
    </rdf:RDF>
  </metadata>
  <defs
     id="defs16" />
  <sodipodi:namedview
     pagecolor="#ffffff"
     bordercolor="#666666"
     borderopacity="1"
     objecttolerance="10"
     gridtolerance="10"
     guidetolerance="10"
     inkscape:pageopacity="0"
     inkscape:pageshadow="2"
     inkscape:window-width="705"
     inkscape:window-height="480"
     id="namedview14"
     showgrid="false"
     inkscape:zoom="0.59"
     inkscape:cx="200"
     inkscape:cy="216.19492"
     inkscape:window-x="84"
     inkscape:window-y="55"
     inkscape:window-maximized="0"
     inkscape:current-layer="svg2" />
  <g
     style="font-size:52px;font-weight:bold;text-anchor:middle;fill:#000000;font-family:Arial"
     id="text12">
    <path
       d="m 144.49609,110.77734 13.73633,0 c 3.09764,4e-5 5.45896,0.23702 7.08399,0.71094 2.18356,0.64327 4.054,1.78584 5.61132,3.42774 1.55726,1.64195 2.74216,3.65204 3.55469,6.03027 0.81247,2.37828 1.21872,5.31089 1.21875,8.79785 -3e-5,3.06382 -0.38089,5.70444 -1.14258,7.92188 -0.93102,2.70834 -2.25979,4.90039 -3.98632,6.57617 -1.30342,1.26953 -3.06383,2.25976 -5.28125,2.9707 C 163.63214,147.73763 161.41469,148 158.63867,148 l -14.14258,0 z m 7.51563,6.29688 0,24.6543 5.61133,0 c 2.09894,0 3.61391,-0.11849 4.54492,-0.35547 1.21873,-0.30468 2.23012,-0.82096 3.03418,-1.54883 0.80401,-0.72786 1.45993,-1.92545 1.96777,-3.59277 0.50779,-1.66731 0.76169,-3.93977 0.76172,-6.81739 -3e-5,-2.87758 -0.25393,-5.08656 -0.76172,-6.62695 -0.50784,-1.54034 -1.21877,-2.74216 -2.13281,-3.60547 -0.91409,-0.86325 -2.07359,-1.44723 -3.47852,-1.75195 -1.0495,-0.23695 -3.10613,-0.35544 -6.16992,-0.35547 z"
       style="font-size:52px;font-weight:bold;text-anchor:middle;fill:#000000;font-family:Arial"
       id="path2996" />
    <path
       d="m 181.87109,148 0,-37.22266 7.51563,0 0,37.22266 z"
       style="font-size:52px;font-weight:bold;text-anchor:middle;fill:#000000;font-family:Arial"
       id="path2998" />
    <path
       d="m 194.61719,135.88867 7.3125,-0.71094 c 0.44009,2.45444 1.33299,4.25717 2.67871,5.40821 1.34569,1.15105 3.16112,1.72657 5.44629,1.72656 2.42055,1e-5 4.24444,-0.51204 5.47168,-1.53613 1.22719,-1.02408 1.84079,-2.22167 1.84082,-3.59278 -3e-5,-0.88019 -0.25816,-1.62922 -0.77442,-2.24707 -0.5163,-0.61782 -1.41766,-1.15526 -2.7041,-1.6123 -0.88023,-0.30467 -2.88608,-0.84634 -6.01758,-1.625 -4.02865,-0.99868 -6.85547,-2.22589 -8.48047,-3.68164 -2.28516,-2.04816 -3.42773,-4.5449 -3.42773,-7.49024 0,-1.8958 0.53743,-3.66891 1.61231,-5.31933 1.07486,-1.65036 2.62369,-2.90719 4.64648,-3.77051 2.02277,-0.86324 4.4645,-1.29488 7.32519,-1.29492 4.67186,4e-5 8.18846,1.02412 10.54981,3.07226 2.3613,2.04821 3.60121,4.78193 3.71973,8.20118 l -7.51563,0.33007 c -0.32164,-1.91273 -1.01141,-3.28805 -2.06933,-4.12597 -1.05797,-0.83786 -2.64488,-1.25681 -4.76075,-1.25684 -2.18361,3e-5 -3.89324,0.4486 -5.1289,1.3457 -0.79559,0.57555 -1.19337,1.34574 -1.19336,2.31055 -1e-5,0.88024 0.37238,1.63349 1.11718,2.25977 0.94791,0.79559 3.24999,1.62502 6.90625,2.48828 3.65623,0.8633 6.36033,1.7562 8.11231,2.67871 1.75192,0.92254 3.12302,2.18361 4.11328,3.7832 0.9902,1.59963 1.48532,3.57586 1.48535,5.92871 -3e-5,2.13282 -0.59248,4.13022 -1.77734,5.99219 -1.18493,1.86198 -2.86071,3.24577 -5.02735,4.15137 -2.16668,0.9056 -4.86655,1.3584 -8.0996,1.3584 -4.70575,0 -8.31967,-1.08757 -10.8418,-3.2627 -2.52214,-2.17512 -4.02865,-5.34472 -4.51953,-9.50879 z"
       style="font-size:52px;font-weight:bold;text-anchor:middle;fill:#000000;font-family:Arial"
       id="path3000" />
    <path
       d="m 239.63477,148 0,-30.92578 -11.04493,0 0,-6.29688 29.58008,0 0,6.29688 -11.01953,0 0,30.92578 z"
       style="font-size:52px;font-weight:bold;text-anchor:middle;fill:#000000;font-family:Arial"
       id="path3002" />
  </g>
  <g
     transform="matrix(100,0,0,100,69,70)"
     id="g4"
     style="stroke:#000000;stroke-width:0.06;stroke-miterlimit:4;stroke-opacity:1;stroke-dasharray:0.12, 0.06;stroke-dashoffset:0">
    <path
       inkscape:connector-curvature="0"
       d="M 0.403118,0.916508 C 0.453039,0.928134 0.566031,0.990335 0.62385,1.0128 0.695862,1.04077 0.768748,1.07948 0.843933,1.10973 0.895051,1.1303 1.27623,1.30397 1.28876,1.30397 1.31204,1.30397 1.68565,1.13428 1.74003,1.11114 1.81733,1.07825 1.88815,1.04533 1.96508,1.01413 2.02413,0.990173 2.13818,0.928464 2.1895,0.916507 l 0,-0.080515 -1.786386,0 0,0.080515 z"
       style="fill:#ffffff;stroke:#000000;stroke-width:0.06;stroke-miterlimit:4;stroke-opacity:1;stroke-dasharray:0.12, 0.06;stroke-dashoffset:0"
       id="path6" />
    <path
       inkscape:connector-curvature="0"
       d="M 0.403118,0.966827 1.2937,1.35407 2.1895,0.966827 l 0,0.795063 -1.786386,0 0,-0.795063 z M 1.96508,1.01413 C 1.88815,1.04533 1.81733,1.07825 1.74004,1.11114 1.68565,1.13428 1.31205,1.30397 1.28877,1.30397 1.27624,1.30397 0.895054,1.1303 0.843936,1.10973 0.768751,1.07949 0.695865,1.04077 0.623853,1.0128 0.566034,0.990335 0.453042,0.928135 0.403121,0.916509 l 0,-0.080516 1.786389,0 0,0.080516 C 2.13818,0.928465 2.02414,0.990174 1.96508,1.01413 z m -1.602212,0.79305 1.866902,0 0,-1.011439 -1.866902,0 z"
       style="fill:#000000;stroke:#000000;stroke-width:0.06;stroke-miterlimit:4;stroke-opacity:1;stroke-dasharray:0.12, 0.06;stroke-dashoffset:0"
       id="path8" />
    <polygon
       points="0.403118,1.76189 2.1895,1.76189 2.1895,0.966827 1.2937,1.35407 0.403118,0.966827 "
       style="fill:#ffffff;stroke:#000000;stroke-width:0.06;stroke-miterlimit:4;stroke-opacity:1;stroke-dasharray:0.12, 0.06;stroke-dashoffset:0"
       id="polygon10" />
  </g>
</svg>
