<?xml version="1.0"?>
<!--
Copyright (C) 2012 United States Government as represented by the Administrator of the
National Aeronautics and Space Administration.
All Rights Reserved.
-->

<!DOCTYPE svg PUBLIC "-//W3C//DTD SVG 1.1//EN" "http://www.w3.org/Graphics/SVG/1.1/DTD/svg11.dtd" >
<!--
MIL-STD-2525 tactical symbol icon image. During icon composition this image is multiplied by the desired frame color 
(e.g. black), then drawn on top of the frame and fill.
-->
<svg xmlns:xlink="http://www.w3.org/1999/xlink" height="400px" viewBox="0 0 400 400" width="400px"><g transform="scale(100) translate(0.75 0.65)"><path d="M1.78808 1.5132 C1.78808 1.49337 1.78799 1.46502 1.77777 1.45649 z" style="fill:rgb(255,255,255)"/><path d="M2.19023 1.62147 C2.20045 1.61293 2.20054 1.58459 2.20054 1.56476 z" style="fill:rgb(255,255,255)"/><path d="M1.77777 1.45648 C1.78799 1.46502 1.78808 1.49336 1.78808 1.51319 L1.81386 1.71942     L1.81386 1.73489 L2.13813 1.73482 L2.17992 1.40492 L1.77227 1.40497 z" style="fill:rgb(255,255,255)"/><path d="M1.82373 0.898846 C1.74173 0.880456 1.71027 0.908405 1.65403 0.946067 L1.61794 0.946067     C1.61041 0.957307 1.60305 0.977 1.58701 0.977 L1.56123 0.977 C1.50664     0.977 1.46317 0.930598 1.41687 0.930598 L1.4014 0.930598 C1.37977 0.930598     1.34936 0.95122 1.30344 0.95122 C1.17496 0.95122 1.20547 0.957027 1.10317 0.988122     C1.05455 1.0029 0.947025 1.00793 0.880667 1.00793 L0.751773 1.00793 C0.682269     1.00793 0.627895 0.992141 0.571375 0.992413 C0.506194 0.992724 0.454529     0.997622 0.385714 0.997622 C0.373655 0.997622 0.372375 0.996078 0.365092     0.992468 C0.306214 1.02362 0.287415 1.09861 0.287749 1.18838 C0.288084 1.27726     0.272289 1.34647 0.272289 1.44102 L0.272289 1.44617 C0.272289 1.4601 0.274749     1.46039 0.277442 1.47195 L0.30232 1.46397 L0.303222 1.45133 L0.313533     1.45133 L0.320182 1.14717 L0.323844 1.14714 C0.323844 1.19714 0.326714 1.26058     0.339273 1.2967 C0.349907 1.32728 0.38056 1.39083 0.38056 1.42039 L0.38056     1.42555 L0.339785 1.75557 L0.432115 1.75552 C0.432115 1.72013 0.421804 1.72801     0.421804 1.70396 L0.421804 1.6524 C0.421804 1.61769 0.447828 1.54668 0.478517     1.54413 C0.487478 1.58259 0.561009 1.63672 0.561009 1.71427 L0.561009     1.72974 C0.561009 1.74367 0.558549 1.74396 0.555856 1.75552 C0.567419 1.75283     0.56771 1.75036 0.581631 1.75036 C0.610978 1.75036 0.669281 1.76786 0.669281     1.74005 C0.669281 1.73299 0.620879 1.66152 0.613367 1.65161 C0.604379 1.63975     0.581631 1.56131 0.581631 1.54413 L0.581631 1.53898 C0.581631 1.53387     0.612568 1.48063 0.612568 1.42039 C0.713875 1.474 0.700828 1.48747 0.860044     1.48742 C0.914292 1.4874 0.965485 1.49942 1.00965 1.49807 C1.03611 1.49727     1.09209 1.46368 1.11783 1.45133 C1.11783 1.48126 1.1265 1.51007 1.12299 1.53382     L1.09316 1.73506 C1.11707 1.74072 1.13281 1.75036 1.16423 1.75036 L1.1797     1.75036 L1.17381 1.74999 L1.19158 1.46689 C1.20633 1.47772 1.26106 1.64398     1.25704 1.67818 L1.25048 1.73473 C1.2694 1.74417 1.28663 1.75036 1.31375 1.75036     L1.33953 1.75036 L1.3111 1.56439 L1.30859 1.54413 C1.30859 1.52105 1.3493     1.52643 1.37056 1.5133 C1.38387 1.50509 1.40443 1.48383 1.41481 1.46989     C1.44226 1.43304 1.46374 1.40337 1.4911 1.36574 C1.58958 1.23035 1.57924 1.30476     1.74683 1.26572 L1.74683 1.25026 L1.78808 1.25026 C1.81356 1.25026 1.83448     1.22933 1.83448 1.20385 L1.83448 1.19354 C1.83448 1.13333 1.77261 1.13063     1.77261 1.05433 L1.68975 0.971161 z" style="fill:rgb(0,0,0)"/><path d="M1.78808 1.5132 L1.77777 1.45649 L1.77227 1.40498 L2.17992 1.40493 L2.13813 1.73483     L1.81386 1.7349 L1.81386 1.71943 zM2.19023 1.62147 L2.20054 1.56476 L2.2226     1.41032 L2.22117 1.36884 L1.73137 1.36884 L1.76565 1.63648 L1.77336 1.65179     L1.78484 1.76044 L1.78292 1.77615 L2.17476 1.77615 L2.17476 1.7349 z" style="fill:rgb(0,0,0)"/></g></svg>