<?xml version="1.0" encoding="UTF-8" standalone="no"?>
<!--
Copyright (C) 2012 United States Government as represented by the Administrator of the
National Aeronautics and Space Administration.
All Rights Reserved.
-->

<!--
MIL-STD-2525 tactical symbol icon image. During icon composition this image is multiplied by the desired frame color 
(e.g. black), then drawn on top of the frame and fill.
-->

<svg
   xmlns:dc="http://purl.org/dc/elements/1.1/"
   xmlns:cc="http://creativecommons.org/ns#"
   xmlns:rdf="http://www.w3.org/1999/02/22-rdf-syntax-ns#"
   xmlns:svg="http://www.w3.org/2000/svg"
   xmlns="http://www.w3.org/2000/svg"
   xmlns:sodipodi="http://sodipodi.sourceforge.net/DTD/sodipodi-0.dtd"
   xmlns:inkscape="http://www.inkscape.org/namespaces/inkscape"
   height="400px"
   viewBox="0 0 400 400"
   width="400px"
   id="svg2"
   version="1.1"
   inkscape:version="0.48.2 r9819"
   sodipodi:docname="eniadi---------.svg">
  <metadata
     id="metadata26">
    <rdf:RDF>
      <cc:Work
         rdf:about="">
        <dc:format>image/svg+xml</dc:format>
        <dc:type
           rdf:resource="http://purl.org/dc/dcmitype/StillImage" />
      </cc:Work>
    </rdf:RDF>
  </metadata>
  <defs
     id="defs24" />
  <sodipodi:namedview
     pagecolor="#ffffff"
     bordercolor="#666666"
     borderopacity="1"
     objecttolerance="10"
     gridtolerance="10"
     guidetolerance="10"
     inkscape:pageopacity="0"
     inkscape:pageshadow="2"
     inkscape:window-width="705"
     inkscape:window-height="480"
     id="namedview22"
     showgrid="false"
     inkscape:zoom="0.59"
     inkscape:cx="200"
     inkscape:cy="200"
     inkscape:window-x="369"
     inkscape:window-y="207"
     inkscape:window-maximized="0"
     inkscape:current-layer="g4" />
  <g
     transform="scale(110) translate(0.518182 0.472727)"
     id="g4"
     style="stroke:#000000;stroke-opacity:1;stroke-width:0.00000005;stroke-miterlimit:4;stroke-dasharray:0.00000009,0.00000005;stroke-dashoffset:0">
    <path
       d="M1.34952 1.10227 C1.21334 1.10227 1.11493 1.01818 1.11493 0.882975 L1.11493 0.857475     C1.11493 0.740916 1.33422 0.552066 1.33422 0.342384 C1.40192 0.420274 1.38902     0.528278 1.43923 0.609664 C1.46784 0.656026 1.56882 0.799436 1.56882 0.852377     L1.56882 0.877877 C1.56882 1.00607 1.47845 1.10227 1.34952 1.10227 zM1.08433     0.857475 L1.08433 0.882975 C1.08433 1.21705 1.59941 1.20369 1.59941     0.903377 L1.59941 0.852377 C1.59941 0.766317 1.48941 0.64944 1.45494 0.56846     C1.40175 0.443472 1.42892 0.35259 1.30362 0.286287 C1.30362 0.55807 1.08433     0.714716 1.08433 0.857475 z"
       style="fill:rgb(0, 0, 0);stroke:#000000;stroke-opacity:1;stroke-width:0.05454545;stroke-miterlimit:4;stroke-dasharray:0.10909091,0.05454545;stroke-dashoffset:0"
       id="path6" />
    <path
       d="M1.25541 1.46874 L1.19315 1.37274 L1.17678 1.55555 L1.05377 1.42865 L1.09449 1.57268     L0.929202 1.56935 L1.07932 1.68006 L0.829332 1.69386 C0.866143 1.71944 1.24978     1.81478 1.3296 1.81039 L1.68141 1.76903 L1.4831 1.70602 L1.7065 1.59175     L1.50136 1.61151 L1.59296 1.46709 L1.40397 1.57094 L1.46435 1.37063 L1.33249     1.53644 L1.30593 1.30699 z"
       style="fill:rgb(255, 255, 255);stroke:#000000;stroke-opacity:1;stroke-width:0.05454545;stroke-miterlimit:4;stroke-dasharray:0.10909091,0.05454545;stroke-dashoffset:0"
       id="path10" />
    <path
       d="M1.92581 1.87235 C1.91119 1.86219 1.68699 1.78129 1.67166 1.78187 C1.57885 1.78532     1.47124 1.81625 1.35462 1.81625 L1.30872 1.81625 C1.2102 1.81625 0.812908     1.7204 0.763125 1.68937 L0.808933 1.68366 L0.839531 1.68366 L0.839165 1.67483     L0.78846 1.65672 L1.00783 1.64286 C0.977704 1.59787 0.835192 1.61736 0.763035     1.61736 C0.671236 1.61736 0.579441 1.61736 0.487641 1.61736 C0.503259 1.63093     1.03757 1.89359 1.08244 1.90994 C1.12139 1.92413 1.81219 1.87235 1.92581     1.87235 z"
       style="fill:rgb(255, 255, 255);stroke:#000000;stroke-opacity:1;stroke-width:0.05454545;stroke-miterlimit:4;stroke-dasharray:0.10909091,0.05454545;stroke-dashoffset:0"
       id="path12" />
    <path
       d="M0.436642 1.73976 L1.07126 2.09673 L1.07413 2.09165 L1.07413 1.94885 C1.07413 1.92322     0.499559 1.66969 0.436642 1.62756 z"
       style="fill:rgb(255, 255, 255);stroke:#000000;stroke-opacity:1;stroke-width:0.05454545;stroke-miterlimit:4;stroke-dasharray:0.10909091,0.05454545;stroke-dashoffset:0"
       id="path14" />
    <polygon
       points="1.11504,1.94099 1.09963,1.93865 1.09969,2.10285 1.99211,2.05085 1.99219,1.89959"
       style="fill:rgb(255, 255, 255);stroke:#000000;stroke-opacity:1;stroke-width:0.05454545;stroke-miterlimit:4;stroke-dasharray:0.10909091,0.05454545;stroke-dashoffset:0"
       id="polygon16" />
  </g>
</svg>
