<?xml version="1.0" encoding="UTF-8" standalone="no"?>
<!--
Copyright (C) 2012 United States Government as represented by the Administrator of the
National Aeronautics and Space Administration.
All Rights Reserved.
-->

<!--
MIL-STD-2525 tactical symbol icon image. During icon composition this image is multiplied by the desired frame color 
(e.g. black), then drawn on top of the frame and fill.
-->

<svg
   xmlns:dc="http://purl.org/dc/elements/1.1/"
   xmlns:cc="http://creativecommons.org/ns#"
   xmlns:rdf="http://www.w3.org/1999/02/22-rdf-syntax-ns#"
   xmlns:svg="http://www.w3.org/2000/svg"
   xmlns="http://www.w3.org/2000/svg"
   xmlns:sodipodi="http://sodipodi.sourceforge.net/DTD/sodipodi-0.dtd"
   xmlns:inkscape="http://www.inkscape.org/namespaces/inkscape"
   height="400px"
   viewBox="0 0 400 400"
   width="400px"
   id="svg2"
   version="1.1"
   inkscape:version="0.48.2 r9819"
   sodipodi:docname="eniadk---------.svg">
  <metadata
     id="metadata15">
    <rdf:RDF>
      <cc:Work
         rdf:about="">
        <dc:format>image/svg+xml</dc:format>
        <dc:type
           rdf:resource="http://purl.org/dc/dcmitype/StillImage" />
      </cc:Work>
    </rdf:RDF>
  </metadata>
  <defs
     id="defs13" />
  <sodipodi:namedview
     pagecolor="#ffffff"
     bordercolor="#666666"
     borderopacity="1"
     objecttolerance="10"
     gridtolerance="10"
     guidetolerance="10"
     inkscape:pageopacity="0"
     inkscape:pageshadow="2"
     inkscape:window-width="705"
     inkscape:window-height="480"
     id="namedview11"
     showgrid="false"
     inkscape:zoom="0.59"
     inkscape:cx="200"
     inkscape:cy="200"
     inkscape:window-x="334"
     inkscape:window-y="259"
     inkscape:window-maximized="0"
     inkscape:current-layer="svg2" />
  <ellipse
     cx="200"
     cy="200"
     rx="30"
     ry="30"
     style="fill:rgb(255, 255, 255);stroke:#000000;stroke-width:6;stroke-opacity:1;stroke-miterlimit:4;stroke-dasharray:12,6;stroke-dashoffset:0"
     transform="matrix(1 0 0 1 0 0)"
     id="ellipse4" />
  <g
     transform="matrix(6.12303e-017 1 -1 6.12303e-017 393.816 6.15962) translate(-6.85714 -5.71429)"
     id="g6"
     style="stroke:#000000;stroke-opacity:1;stroke-width:6;stroke-miterlimit:4;stroke-dasharray:12,6;stroke-dashoffset:0">
    <path
       d="M114 250 C96 220 96 180 114 150 L161 177 C153 190 153 210 161 223 z"
       id="1"
       style="fill:rgb(255, 255, 255);stroke:#000000;stroke-width:6;stroke-opacity:1;stroke-miterlimit:4;stroke-dasharray:12,6;stroke-dashoffset:0" />
    <path
       d="M114 250 C96 220 96 180 114 150 L161 177 C153 190 153 210 161 223 z"
       id="2"
       style="fill:rgb(255, 255, 255);stroke:#000000;stroke-width:6;stroke-opacity:1;stroke-miterlimit:4;stroke-dasharray:12,6;stroke-dashoffset:0"
       transform="rotate(120.132 130.75 200) translate(-104.35 -60.2598) rotate(0.357613 125.778 193.304) translate(-0.861723 0.507379) translate(0.861723 -0.507379) rotate(0.574712 125.695 193.451) rotate(358.362 125.566 193.689) rotate(0.854696 126.051 193.203) rotate(359.838 125.743 193.365) rotate(359.839 125.781 193.298)" />
    <path
       d="M114 250 C96 220 96 180 114 150 L161 177 C153 190 153 210 161 223 z"
       id="3"
       style="fill:rgb(255, 255, 255);stroke:#000000;stroke-width:6;stroke-opacity:1;stroke-miterlimit:4;stroke-dasharray:12,6;stroke-dashoffset:0"
       transform="rotate(240.116 130.75 200) translate(-103.619 59.8911)" />
  </g>
</svg>
