<?xml version="1.0" encoding="UTF-8" standalone="no"?>
<!--
Copyright (C) 2012 United States Government as represented by the Administrator of the
National Aeronautics and Space Administration.
All Rights Reserved.
-->

<!--
MIL-STD-2525 tactical symbol icon image. During icon composition this image is multiplied by the desired frame color 
(e.g. black), then drawn on top of the frame and fill.
-->

<svg
   xmlns:dc="http://purl.org/dc/elements/1.1/"
   xmlns:cc="http://creativecommons.org/ns#"
   xmlns:rdf="http://www.w3.org/1999/02/22-rdf-syntax-ns#"
   xmlns:svg="http://www.w3.org/2000/svg"
   xmlns="http://www.w3.org/2000/svg"
   xmlns:sodipodi="http://sodipodi.sourceforge.net/DTD/sodipodi-0.dtd"
   xmlns:inkscape="http://www.inkscape.org/namespaces/inkscape"
   height="400px"
   viewBox="0 0 400 400"
   width="400px"
   id="svg2"
   version="1.1"
   inkscape:version="0.48.2 r9819"
   sodipodi:docname="enoadia--------.svg">
  <metadata
     id="metadata10">
    <rdf:RDF>
      <cc:Work
         rdf:about="">
        <dc:format>image/svg+xml</dc:format>
        <dc:type
           rdf:resource="http://purl.org/dc/dcmitype/StillImage" />
      </cc:Work>
    </rdf:RDF>
  </metadata>
  <defs
     id="defs8" />
  <sodipodi:namedview
     pagecolor="#ffffff"
     bordercolor="#666666"
     borderopacity="1"
     objecttolerance="10"
     gridtolerance="10"
     guidetolerance="10"
     inkscape:pageopacity="0"
     inkscape:pageshadow="2"
     inkscape:window-width="640"
     inkscape:window-height="480"
     id="namedview6"
     showgrid="false"
     inkscape:zoom="0.59"
     inkscape:cx="200"
     inkscape:cy="200"
     inkscape:window-x="0"
     inkscape:window-y="0"
     inkscape:window-maximized="0"
     inkscape:current-layer="svg2" />
  <g
     style="font-size:95px;font-weight:bold;text-anchor:middle;fill:#ffffff;stroke:#000000;stroke-width:6;stroke-miterlimit:4;stroke-opacity:1;stroke-dasharray:12, 6;stroke-dashoffset:0;font-family:arial"
     id="text4">
    <path
       inkscape:connector-curvature="0"
       d="m 130.46631,235 0,-68.00293 46.61865,0 0,11.50391 -32.88818,0 0,16.09619 28.38867,0 0,11.5039 -28.38867,0 0,28.89893 z"
       style="font-size:95px;font-weight:bold;text-anchor:middle;fill:#ffffff;stroke:#000000;stroke-width:6;stroke-miterlimit:4;stroke-opacity:1;stroke-dasharray:12, 6;stroke-dashoffset:0;font-family:arial"
       id="path2988" />
    <path
       inkscape:connector-curvature="0"
       d="m 188.49609,166.99707 27.18262,0 c 5.38082,7e-5 9.39327,0.22427 12.03735,0.67261 2.644,0.44847 5.00972,1.38393 7.09717,2.80639 2.08735,1.42259 3.82685,3.31672 5.21851,5.68238 1.39154,2.36578 2.08734,5.01755 2.0874,7.95532 -6e-5,3.18527 -0.85821,6.10763 -2.57446,8.76709 -1.71637,2.65954 -4.04343,4.65417 -6.9812,5.98389 4.14382,1.20609 7.32904,3.26256 9.55566,6.16943 2.2265,2.90693 3.33978,6.32408 3.33984,10.25146 -6e-5,3.09247 -0.71905,6.09987 -2.15698,9.02222 -1.43805,2.92237 -3.40175,5.25717 -5.89111,7.0044 -2.48948,1.74723 -5.55873,2.82186 -9.20777,3.22387 -2.28845,0.2474 -7.80846,0.40202 -16.56005,0.46387 l -23.14698,0 z m 13.73047,11.31836 0,15.7251 8.99903,0 c 5.3499,4e-5 8.67427,-0.0773 9.97314,-0.23194 2.35022,-0.27828 4.19795,-1.09004 5.54321,-2.4353 1.34517,-1.34517 2.01778,-3.11559 2.01783,-5.31128 -5e-5,-2.10281 -0.57989,-3.81139 -1.73951,-5.12573 -1.15971,-1.31424 -2.88375,-2.11054 -5.17212,-2.38892 -1.36071,-0.15456 -5.27265,-0.23187 -11.73584,-0.23193 z m 0,27.04346 0,18.18359 12.70996,0 c 4.94788,10e-6 8.08671,-0.13915 9.41651,-0.41748 2.04097,-0.37108 3.70316,-1.27562 4.98657,-2.71362 1.28332,-1.43798 1.925,-3.36302 1.92505,-5.77515 -5e-5,-2.04099 -0.49484,-3.77276 -1.48438,-5.19531 -0.98963,-1.4225 -2.41988,-2.45847 -4.29077,-3.10791 -1.87097,-0.64939 -5.9298,-0.97409 -12.17651,-0.97412 z"
       style="font-size:95px;font-weight:bold;text-anchor:middle;fill:#ffffff;stroke:#000000;stroke-width:6;stroke-miterlimit:4;stroke-opacity:1;stroke-dasharray:12, 6;stroke-dashoffset:0;font-family:arial"
       id="path2990" />
    <path
       inkscape:connector-curvature="0"
       d="m 256.68457,235 0,-68.00293 13.73047,0 0,68.00293 z"
       style="font-size:95px;font-weight:bold;text-anchor:middle;fill:#ffffff;stroke:#000000;stroke-width:6;stroke-miterlimit:4;stroke-opacity:1;stroke-dasharray:12, 6;stroke-dashoffset:0;font-family:arial"
       id="path2992" />
  </g>
</svg>
