<?xml version="1.0" encoding="UTF-8" standalone="no"?>
<!--
Copyright (C) 2012 United States Government as represented by the Administrator of the
National Aeronautics and Space Administration.
All Rights Reserved.
-->

<!--
MIL-STD-2525 tactical symbol icon image. During icon composition this image is multiplied by the desired frame color 
(e.g. black), then drawn on top of the frame and fill.
-->

<svg
   xmlns:dc="http://purl.org/dc/elements/1.1/"
   xmlns:cc="http://creativecommons.org/ns#"
   xmlns:rdf="http://www.w3.org/1999/02/22-rdf-syntax-ns#"
   xmlns:svg="http://www.w3.org/2000/svg"
   xmlns="http://www.w3.org/2000/svg"
   xmlns:sodipodi="http://sodipodi.sourceforge.net/DTD/sodipodi-0.dtd"
   xmlns:inkscape="http://www.inkscape.org/namespaces/inkscape"
   height="400px"
   viewBox="0 0 400 400"
   width="400px"
   id="svg2"
   version="1.1"
   inkscape:version="0.48.2 r9819"
   sodipodi:docname="enoad----------.svg">
  <metadata
     id="metadata22">
    <rdf:RDF>
      <cc:Work
         rdf:about="">
        <dc:format>image/svg+xml</dc:format>
        <dc:type
           rdf:resource="http://purl.org/dc/dcmitype/StillImage" />
      </cc:Work>
    </rdf:RDF>
  </metadata>
  <defs
     id="defs20" />
  <sodipodi:namedview
     pagecolor="#ffffff"
     bordercolor="#666666"
     borderopacity="1"
     objecttolerance="10"
     gridtolerance="10"
     guidetolerance="10"
     inkscape:pageopacity="0"
     inkscape:pageshadow="2"
     inkscape:window-width="705"
     inkscape:window-height="480"
     id="namedview18"
     showgrid="false"
     inkscape:zoom="0.59"
     inkscape:cx="200"
     inkscape:cy="200"
     inkscape:window-x="339"
     inkscape:window-y="185"
     inkscape:window-maximized="0"
     inkscape:current-layer="svg2" />
  <path
     style="fill:#ffffff;stroke:#000000;stroke-width:6;stroke-opacity:1;stroke-miterlimit:4;stroke-dasharray:12,6;stroke-dashoffset:0"
     d="M 199 87 C 192.37258 87 187 92.372583 187 99 C 187 103.75348 189.77287 107.86946 193.78125 109.8125 L 170.65625 149.53125 L 127 149.6875 C 126.83203 143.20652 121.52149 138 115 138 C 108.37258 138 103 143.37258 103 150 C 103 156.62742 108.37258 162 115 162 C 116.70614 162 118.31169 161.64187 119.78125 161 L 141.78125 199.5 L 119.3125 238.8125 C 117.9691 238.29243 116.527 238 115 238 C 108.37258 238 103 243.37258 103 250 C 103 256.62742 108.37258 262 115 262 C 121.62742 262 127 256.62742 127 250 C 127 249.76641 126.98192 249.54279 126.96875 249.3125 L 170.65625 249.46875 L 193.34375 288.40625 C 189.56979 290.42827 187 294.41901 187 299 C 187 305.62742 192.37258 311 199 311 C 205.62742 311 211 305.62742 211 299 C 211 294.72988 208.76557 291.00186 205.40625 288.875 L 228.34375 249.46875 L 273.03125 249.3125 C 273.01808 249.54279 273 249.76641 273 250 C 273 256.62742 278.37258 262 285 262 C 291.62742 262 297 256.62742 297 250 C 297 243.37258 291.62742 238 285 238 C 283.16068 238 281.43299 238.41664 279.875 239.15625 L 257.21875 199.5 L 279.875 159.84375 C 281.43299 160.58336 283.16068 161 285 161 C 291.62742 161 297 155.62742 297 149 C 297 142.37258 291.62742 137 285 137 C 278.37258 137 273 142.37258 273 149 C 273 149.23359 273.01808 149.45721 273.03125 149.6875 L 228.34375 149.53125 L 204.96875 109.40625 C 208.5704 107.33525 211 103.4528 211 99 C 211 92.372583 205.62742 87 199 87 z "
     id="polygon4" />
</svg>
