<?xml version="1.0" encoding="UTF-8" standalone="no"?>
<!--
Copyright (C) 2012 United States Government as represented by the Administrator of the
National Aeronautics and Space Administration.
All Rights Reserved.
-->

<!--
MIL-STD-2525 tactical symbol icon image. During icon composition this image is multiplied by the desired frame color 
(e.g. black), then drawn on top of the frame and fill.
-->

<svg
   xmlns:dc="http://purl.org/dc/elements/1.1/"
   xmlns:cc="http://creativecommons.org/ns#"
   xmlns:rdf="http://www.w3.org/1999/02/22-rdf-syntax-ns#"
   xmlns:svg="http://www.w3.org/2000/svg"
   xmlns="http://www.w3.org/2000/svg"
   xmlns:sodipodi="http://sodipodi.sourceforge.net/DTD/sodipodi-0.dtd"
   xmlns:inkscape="http://www.inkscape.org/namespaces/inkscape"
   height="400px"
   viewBox="0 0 400 400"
   width="400px"
   id="svg2"
   version="1.1"
   inkscape:version="0.48.2 r9819"
   sodipodi:docname="eufacd---------.svg">
  <metadata
     id="metadata26">
    <rdf:RDF>
      <cc:Work
         rdf:about="">
        <dc:format>image/svg+xml</dc:format>
        <dc:type
           rdf:resource="http://purl.org/dc/dcmitype/StillImage" />
      </cc:Work>
    </rdf:RDF>
  </metadata>
  <defs
     id="defs24" />
  <sodipodi:namedview
     pagecolor="#ffffff"
     bordercolor="#666666"
     borderopacity="1"
     objecttolerance="10"
     gridtolerance="10"
     guidetolerance="10"
     inkscape:pageopacity="0"
     inkscape:pageshadow="2"
     inkscape:window-width="640"
     inkscape:window-height="480"
     id="namedview22"
     showgrid="false"
     inkscape:zoom="0.59"
     inkscape:cx="200"
     inkscape:cy="200"
     inkscape:window-x="108"
     inkscape:window-y="51"
     inkscape:window-maximized="0"
     inkscape:current-layer="svg2" />
  <g
     transform="matrix(100,0,0,100,74,63)"
     id="g4"
     style="fill:#ffffff;fill-opacity:1;stroke:#000000;stroke-width:0.06;stroke-miterlimit:4;stroke-opacity:1;stroke-dasharray:0.12, 0.06;stroke-dashoffset:0">
    <path
       inkscape:connector-curvature="0"
       d="m 1.10993,1.0681 c 0,-0.01639 0.01949,-0.03984 0.03187,-0.03984 l 0.24301,0 c 0.01146,0 0.03187,0.03551 0.03187,0.04382 l 0,0.01594 c 0,0.02232 -0.03187,0.01746 -0.03187,0.03585 l 0,0.12748 c 0,0.01208 0.24699,0.34371 0.24699,0.37048 l 0,0.08366 c 0,0.07653 -0.16854,0.14342 -0.25496,0.14342 l -0.22707,0 C 1.09872,1.84891 1.02488,1.83092 0.993583,1.80989 0.970977,1.7947 0.894811,1.73852 0.894811,1.70947 l 0,-0.03585 c 0,-0.06104 0.08963,-0.1761 0.117639,-0.22496 C 1.02936,1.41915 1.13782,1.24875 1.13782,1.23143 l 0,-0.10756 C 1.13782,1.10535 1.10993,1.1089 1.10993,1.0681 z m 0.26691,-0.099594 -0.864466,0 0,0.924224 1.501856,0 0,-0.924224 -0.16731,0 0,-0.33463 -0.11154,0 0,0.33463 -0.247,0 0,-0.33463 -0.11154,0 z"
       style="fill:#ffffff;fill-opacity:1;stroke:#000000;stroke-width:0.06;stroke-miterlimit:4;stroke-opacity:1;stroke-dasharray:0.12, 0.06;stroke-dashoffset:0"
       id="path6" />
    <path
       d="m 0.48448,1.92459 1.55763,0 0,-0.987957 -0.15935,0 0,-0.33463 -0.17926,0 0,0.33463 -0.17927,0 0,-0.33463 -0.17927,0 0,0.33463 -0.86048,0 z"
       style="fill:#ffffff;fill-opacity:1;stroke:#000000;stroke-width:0.06;stroke-miterlimit:4;stroke-opacity:1;stroke-dasharray:0.12, 0.06;stroke-dashoffset:0"
       id="path8-1"
       inkscape:connector-curvature="0"
       sodipodi:nodetypes="ccccccccccccc" />
  </g>
  <path
     inkscape:connector-curvature="0"
     id="path8"
     style="fill:#ffffff"
     d="m 162.6547,197.253 0,10.719 8.9323,0 0,-19.652 c -1.1768,0.789 -8.9323,7.839 -8.9323,8.933 z" />
  <polygon
     id="polygon10"
     style="fill:#ffffff"
     points="1.20934,0.94237 1.10605,1.04457 1.10306,1.34972 1.21025,1.34972 "
     transform="matrix(100,0,0,100,72,73)" />
  <path
     inkscape:connector-curvature="0"
     id="path12"
     style="fill:#ffffff"
     d="m 205.531,207.972 10.719,0 0,-29.924 c 0,-1.102 -9.409,-9.8413 -10.719,-10.7189 z" />
  <path
     inkscape:connector-curvature="0"
     id="path14"
     style="fill:#ffffff"
     d="m 226.969,207.972 8.932,0 0,-9.826 c 0,-1.707 -0.137,-0.162 0.359,-1.25 l -9.291,-8.576 z" />
  <polygon
     id="polygon16"
     style="fill:#ffffff"
     points="1.75513,1.36312 0.790134,1.36342 1.27167,1.82876 "
     transform="matrix(100,0,0,100,72,73)" />
  <path
     inkscape:connector-curvature="0"
     id="path18"
     style="fill:#000000"
     d="m 151.0134,209.342 96.4996,-0.03 -48.346,46.564 z m 54.5176,-42.013 c 1.31,0.8776 10.719,9.617 10.719,10.719 l 0,29.924 -10.719,0 z m -12.597,-0.0917 0.091,40.7347 -10.719,0 0.299,-30.515 10.329,-10.2198 z m -30.2793,30.0157 c 0,-1.094 7.7555,-8.144 8.9323,-8.933 l 0,19.652 -8.9323,0 z m 64.3143,-8.933 9.291,8.575 c -0.496,1.089 -0.359,-0.456 -0.359,1.251 l 0,9.826 -8.932,0 z m 23.639,20.512 -51.27,-50.0507 -51.1478,49.9077 51.1448,49.81 z" />
</svg>
