<?xml version="1.0" encoding="UTF-8" standalone="no"?>
<!--
Copyright (C) 2012 United States Government as represented by the Administrator of the
National Aeronautics and Space Administration.
All Rights Reserved.
-->

<!--
MIL-STD-2525 tactical symbol icon image. During icon composition this image is multiplied by the desired frame color 
(e.g. black), then drawn on top of the frame and fill.
-->

<svg
   xmlns:dc="http://purl.org/dc/elements/1.1/"
   xmlns:cc="http://creativecommons.org/ns#"
   xmlns:rdf="http://www.w3.org/1999/02/22-rdf-syntax-ns#"
   xmlns:svg="http://www.w3.org/2000/svg"
   xmlns="http://www.w3.org/2000/svg"
   xmlns:sodipodi="http://sodipodi.sourceforge.net/DTD/sodipodi-0.dtd"
   xmlns:inkscape="http://www.inkscape.org/namespaces/inkscape"
   height="400px"
   viewBox="0 0 400 400"
   width="400px"
   id="svg2"
   version="1.1"
   inkscape:version="0.48.2 r9819"
   sodipodi:docname="eufac----------.svg">
  <metadata
     id="metadata18">
    <rdf:RDF>
      <cc:Work
         rdf:about="">
        <dc:format>image/svg+xml</dc:format>
        <dc:type
           rdf:resource="http://purl.org/dc/dcmitype/StillImage" />
      </cc:Work>
    </rdf:RDF>
  </metadata>
  <defs
     id="defs16" />
  <sodipodi:namedview
     pagecolor="#ffffff"
     bordercolor="#666666"
     borderopacity="1"
     objecttolerance="10"
     gridtolerance="10"
     guidetolerance="10"
     inkscape:pageopacity="0"
     inkscape:pageshadow="2"
     inkscape:window-width="705"
     inkscape:window-height="480"
     id="namedview14"
     showgrid="false"
     inkscape:zoom="0.834386"
     inkscape:cx="157.56775"
     inkscape:cy="187.62614"
     inkscape:window-x="87"
     inkscape:window-y="126"
     inkscape:window-maximized="0"
     inkscape:current-layer="svg2" />
  <g
     transform="scale(100) translate(0.74 0.63)"
     id="g4"
     style="stroke:#000000;stroke-opacity:1;stroke-width:0.06000000000000000;stroke-miterlimit:4;stroke-dasharray:0.12000000000000000, 0.06000000000000000;stroke-dashoffset:0;fill:#ffffff;fill-opacity:1">
    <path
       d="M1.10993 1.0681 C1.10993 1.05171 1.12942 1.02826 1.1418 1.02826 L1.38481 1.02826     C1.39627 1.02826 1.41668 1.06377 1.41668 1.07208 L1.41668 1.08802 C1.41668 1.11034     1.38481 1.10548 1.38481 1.12387 L1.38481 1.25135 C1.38481 1.26343 1.6318     1.59506 1.6318 1.62183 L1.6318 1.70549 C1.6318 1.78202 1.46326 1.84891 1.37684     1.84891 L1.14977 1.84891 C1.09872 1.84891 1.02488 1.83092 0.993583 1.80989     C0.970977 1.7947 0.894811 1.73852 0.894811 1.70947 L0.894811 1.67362 C0.894811     1.61258 0.984441 1.49752 1.01245 1.44866 C1.02936 1.41915 1.13782 1.24875     1.13782 1.23143 L1.13782 1.12387 C1.13782 1.10535 1.10993 1.1089 1.10993     1.0681 zM1.37684 0.968506 L0.512374 0.968506 L0.512374 1.89273 L2.01423     1.89273 L2.01423 0.968506 L1.84692 0.968506 L1.84692 0.633876 L1.73538 0.633876     L1.73538 0.968506 L1.48838 0.968506 L1.48838 0.633876 L1.37684 0.633876 z"
       style="fill:#ffffff;stroke:#000000;stroke-opacity:1;stroke-width:0.06000000000000000;stroke-miterlimit:4;stroke-dasharray:0.12000000000000000, 0.06000000000000000;stroke-dashoffset:0;fill-opacity:1"
       id="path6" />
    <path
       d="m 0.48448,1.92459 1.55763,0 0,-0.987957 -0.15935,0 0,-0.33463 -0.17926,0 0,0.33463 -0.17927,0 0,-0.33463 -0.17927,0 0,0.33463 -0.86048,0 z"
       style="fill:#ffffff;stroke:#000000;stroke-opacity:1;stroke-width:0.06000000000000000;stroke-miterlimit:4;stroke-dasharray:0.12000000000000000, 0.06000000000000000;stroke-dashoffset:0;fill-opacity:1"
       id="path8"
       inkscape:connector-curvature="0"
       sodipodi:nodetypes="ccccccccccccc" />
  </g>
  <text
     style="fill:rgb(0,0,0);font-family:arial;font-size:85;font-weight:bold;text-anchor:middle"
     x="200"
     y="235"
     id="text12">$</text>
</svg>
