<?xml version="1.0" encoding="UTF-8" standalone="no"?>
<!--
Copyright (C) 2012 United States Government as represented by the Administrator of the
National Aeronautics and Space Administration.
All Rights Reserved.
-->

<!--
MIL-STD-2525 tactical symbol icon image. During icon composition this image is multiplied by the desired frame color 
(e.g. black), then drawn on top of the frame and fill.
-->

<svg
   xmlns:dc="http://purl.org/dc/elements/1.1/"
   xmlns:cc="http://creativecommons.org/ns#"
   xmlns:rdf="http://www.w3.org/1999/02/22-rdf-syntax-ns#"
   xmlns:svg="http://www.w3.org/2000/svg"
   xmlns="http://www.w3.org/2000/svg"
   xmlns:sodipodi="http://sodipodi.sourceforge.net/DTD/sodipodi-0.dtd"
   xmlns:inkscape="http://www.inkscape.org/namespaces/inkscape"
   height="400px"
   viewBox="0 0 400 400"
   width="400px"
   id="svg2"
   version="1.1"
   inkscape:version="0.48.2 r9819"
   sodipodi:docname="euiacf---------.svg">
  <metadata
     id="metadata20">
    <rdf:RDF>
      <cc:Work
         rdf:about="">
        <dc:format>image/svg+xml</dc:format>
        <dc:type
           rdf:resource="http://purl.org/dc/dcmitype/StillImage" />
      </cc:Work>
    </rdf:RDF>
  </metadata>
  <defs
     id="defs18" />
  <sodipodi:namedview
     pagecolor="#ffffff"
     bordercolor="#666666"
     borderopacity="1"
     objecttolerance="10"
     gridtolerance="10"
     guidetolerance="10"
     inkscape:pageopacity="0"
     inkscape:pageshadow="2"
     inkscape:window-width="705"
     inkscape:window-height="480"
     id="namedview16"
     showgrid="false"
     inkscape:zoom="0.59"
     inkscape:cx="171.07339"
     inkscape:cy="200"
     inkscape:window-x="233"
     inkscape:window-y="178"
     inkscape:window-maximized="0"
     inkscape:current-layer="g4" />
  <g
     transform="scale(100) translate(0.68 0.76)"
     id="g4"
     style="stroke:#000000;stroke-opacity:1;stroke-width:0.06;stroke-miterlimit:4;stroke-dasharray:0.12,0.06;stroke-dashoffset:0">
    <path
       d="M1.47484 1.2428 C1.55368 1.2428 1.6489 1.32627 1.6489 1.39752 C1.6489 1.40867 1.63538     1.40695 1.62473 1.40719 C1.60862 1.33806 1.59287 1.32636 1.54345 1.29023     C1.52625 1.27765 1.49404 1.26707 1.46536 1.26679 C1.45431 1.26668 1.4269 1.26967     1.41831 1.26513 C1.40847 1.25991 1.41637 1.2428 1.43132 1.2428 zM0.831785     1.11709 C0.831785 1.01916 0.940313 0.918855 1.04452 0.918855 L1.07837 0.918855     C1.09597 0.918855 1.13639 0.926512 1.13639 0.943028 C1.13639 0.945599     1.12942 0.953642 1.12672 0.957536 C1.10846 0.95328 1.09647 0.947867 1.07353     0.947867 L1.04936 0.947867 C0.941517 0.947867 0.855958 1.04095 0.855958 1.1461     C0.855958 1.17449 0.868473 1.19471 0.870462 1.21863 C0.892816 1.20366 0.925556     1.18961 0.962328 1.18961 L0.967162 1.18961 C0.989635 1.18961 1.04936     1.1927 1.04936 1.21379 C1.04936 1.24144 0.996229 1.21863 0.967162 1.21863 L0.952659     1.21863 C0.91332 1.21863 0.864182 1.24741 0.842553 1.26808 C0.809655     1.2995 0.795139 1.34453 0.773765 1.35884 L0.759604 1.3531 C0.763269 1.30582     0.846289 1.22863 0.846289 1.2283 C0.846289 1.20603 0.831785 1.18907 0.831785     1.15577 zM1.27177 0.754465 C1.29314 0.722544 1.36792 0.686776 1.42165 0.686776     L1.45067 0.686776 C1.60423 0.686776 1.70692 0.814056 1.70692 0.97204 C1.76696     1.00381 1.8278 1.09737 1.8278 1.18961 C1.8278 1.20076 1.81428 1.19905     1.80362 1.19928 C1.78477 1.11838 1.78851 1.09368 1.74171 1.03396 C1.71897     1.00495 1.64178 0.962371 1.59088 0.962371 L1.53769 0.962371 C1.50354 0.962371     1.48991 0.976875 1.47001 0.976875 C1.45978 0.976875 1.46363 0.975142 1.45067     0.97204 C1.45337 0.939556 1.51239 0.933359 1.54737 0.933359 L1.57154 0.933359     C1.61739 0.933359 1.64348 0.951934 1.67791 0.952701 L1.67791 0.938193 C1.67791     0.816406 1.57235 0.715784 1.44583 0.715784 L1.42165 0.715784 C1.36569     0.715784 1.32374 0.749147 1.28628 0.768969 zM1.27177 0.565898 C1.24579 0.558961     1.21427 0.521666 1.16069 0.507756 C1.11023 0.494654 1.06256 0.499957 1.01961     0.516815 C0.954603 0.542339 0.880135 0.632311 0.880135 0.720618 L0.880135     0.730288 C0.880135 0.778721 0.896123 0.806359 0.904308 0.841497 C0.804194     0.81817 0.689607 0.902272 0.672229 0.976875 L0.623879 0.976875 C0.511135     0.976875 0.41597 1.07741 0.41597 1.18961 L0.41597 1.20896 C0.41597 1.33223 0.533127     1.45071 0.657722 1.45071 L0.67223 1.45071 C0.70006 1.45071 0.713682     1.43689 0.744753 1.4362 C0.755052 1.45567 0.766919 1.47911 0.780458 1.4972 C0.794482     1.51593 0.818836 1.53529 0.82706 1.54743 L0.822116 1.58609 C0.806175     1.68576 0.923647 1.79356 0.923647 1.79399 C0.923647 1.82663 0.902773 1.85674     0.908875 1.91007 C0.913402 1.94966 0.929843 1.98631 0.947706 2.01169 C0.980233     2.0579 1.04918 2.1131 1.12672 2.1131 L1.13184 2.11503 L1.20891 2.10343     L1.20891 2.09376 C1.16389 2.08174 1.1248 1.99806 1.10731 1.95362 C1.07857 1.88062     1.09771 1.81402 1.09771 1.73597 C1.13662 1.78074 1.16432 1.91841 1.23792     1.92454 L1.23792 1.90036 C1.23792 1.84769 1.22804 1.80532 1.21225 1.76649     C1.19194 1.71658 1.1798 1.69194 1.2174 1.65259 C1.25241 1.61596 1.32979 1.50825     1.32979 1.44104 C1.34537 1.45147 1.35397 1.47364 1.35397 1.49905 L1.35397     1.50873 C1.35397 1.5428 1.29595 1.61778 1.29595 1.66345 L1.29595 1.67312     C1.29595 1.70109 1.3269 1.72916 1.3443 1.74081 C1.40297 1.70976 1.40715 1.66978     1.40715 1.58125 C1.53919 1.73316 1.45067 1.70018 1.45067 1.89069 C1.54771     1.83934 1.55312 1.81303 1.58121 1.69246 C1.59578 1.70922 1.60055 1.73375     1.60055 1.76498 L1.60055 1.81333 C1.60055 1.88556 1.58234 1.91999 1.56033 1.97135     C1.5487 1.99848 1.54268 2.01241 1.52963 2.03735 C1.51283 2.06944 1.50073     2.06954 1.48451 2.09376 C1.57764 2.09376 1.62484 2.09648 1.68158 2.03941     C1.7399 1.98076 1.7456 1.94919 1.7456 1.83751 C1.81252 1.73758 1.8365 1.65181     1.76011 1.53774 C1.88091 1.53774 1.96196 1.43658 1.97701 1.32916 C1.98147     1.2974 2.00849 1.30275 2.03861 1.28438 C2.06988 1.26532 2.07284 1.26122 2.09736     1.23676 C2.1329 1.20131 2.16142 1.15674 2.16142 1.08808 L2.16142 1.05907     C2.16142 0.941401 2.04577 0.831822 1.9245 0.831822 C1.90842 0.762802 1.8521     0.691861 1.79576 0.660794 C1.74562 0.633141 1.7178 0.654361 1.70275 0.603912     C1.69135 0.565692 1.67297 0.529231 1.64774 0.504207 C1.59692 0.453806 1.53594     0.4102 1.43803 0.427538 C1.3722 0.439192 1.27674 0.506156 1.27177 0.565896     z"
       style="fill:none;stroke:#000000;stroke-opacity:1;stroke-width:0.06;stroke-miterlimit:4;stroke-dasharray:0.12,0.06;stroke-dashoffset:0"
       id="path12" />
  </g>
</svg>
