<?xml version="1.0" encoding="UTF-8" standalone="no"?>
<!--
Copyright (C) 2012 United States Government as represented by the Administrator of the
National Aeronautics and Space Administration.
All Rights Reserved.
-->

<!--
MIL-STD-2525 tactical symbol icon image. During icon composition this image is multiplied by the desired frame color 
(e.g. black), then drawn on top of the frame and fill.
-->

<svg
   xmlns:dc="http://purl.org/dc/elements/1.1/"
   xmlns:cc="http://creativecommons.org/ns#"
   xmlns:rdf="http://www.w3.org/1999/02/22-rdf-syntax-ns#"
   xmlns:svg="http://www.w3.org/2000/svg"
   xmlns="http://www.w3.org/2000/svg"
   xmlns:sodipodi="http://sodipodi.sourceforge.net/DTD/sodipodi-0.dtd"
   xmlns:inkscape="http://www.inkscape.org/namespaces/inkscape"
   height="400px"
   viewBox="0 0 400 400"
   width="400px"
   id="svg2"
   version="1.1"
   inkscape:version="0.48.2 r9819"
   sodipodi:docname="euiab----------.svg">
  <metadata
     id="metadata20">
    <rdf:RDF>
      <cc:Work
         rdf:about="">
        <dc:format>image/svg+xml</dc:format>
        <dc:type
           rdf:resource="http://purl.org/dc/dcmitype/StillImage" />
      </cc:Work>
    </rdf:RDF>
  </metadata>
  <defs
     id="defs18" />
  <sodipodi:namedview
     pagecolor="#ffffff"
     bordercolor="#666666"
     borderopacity="1"
     objecttolerance="10"
     gridtolerance="10"
     guidetolerance="10"
     inkscape:pageopacity="0"
     inkscape:pageshadow="2"
     inkscape:window-width="640"
     inkscape:window-height="480"
     id="namedview16"
     showgrid="false"
     inkscape:zoom="0.59"
     inkscape:cx="200"
     inkscape:cy="200"
     inkscape:window-x="211"
     inkscape:window-y="86"
     inkscape:window-maximized="0"
     inkscape:current-layer="svg2" />
  <g
     transform="matrix(100,0,0,100,75,80)"
     id="g4"
     style="stroke:#000000;stroke-width:0.06;stroke-miterlimit:4;stroke-opacity:1;stroke-dasharray:0.12, 0.06;stroke-dashoffset:0">
    <path
       inkscape:connector-curvature="0"
       d="m 0.864783,0.660878 0,0.01124 c 0,0.008079 0.020815,0.025284 0.028094,0.025284 l 0.005619,0 c 0.024267,0 0.027555,-0.024268 0.037173,-0.03587 C 0.942629,0.653138 0.967767,0.633457 0.978287,0.625917 L 0.929401,0.585024 C 0.926673,0.595236 0.907807,0.615957 0.900807,0.626669 0.892893,0.638776 0.864783,0.646059 0.864783,0.660878 z"
       style="fill:#ffffff;stroke:#000000;stroke-width:0.06;stroke-miterlimit:4;stroke-opacity:1;stroke-dasharray:0.12, 0.06;stroke-dashoffset:0"
       id="path6" />
    <path
       inkscape:connector-curvature="0"
       d="m 1.74133,0.658071 c 0.03428,0.007984 0.06743,0.069732 0.06743,0.112378 l 0,0.022476 c 0,0.026756 -0.01986,0.075855 -0.04214,0.075855 l -0.00843,0 c -0.03313,0 -0.06181,-0.081977 -0.06181,-0.120807 l 0,-0.011237 c 0,-0.02 0.0075,-0.034539 0.01124,-0.05057 l 0.00562,0 c 0.0018,0.006752 0.02199,0.036523 0.02809,0.036523 0.01312,0 0.01967,-0.006551 0.01967,-0.019665 l 0,-0.01124 C 1.761,0.68741 1.74471,0.664449 1.74133,0.658071 z M 1.64019,0.509169 C 1.62864,0.501433 1.62185,0.478264 1.60367,0.478264 c -0.00798,0 -0.01686,0.011712 -0.01686,0.022476 0,0.003846 0.01385,0.022402 0.01686,0.028094 C 1.59488,0.529567 1.59369,0.531645 1.584,0.531645 l -0.00843,0 c -0.0397,0 -0.11919,-0.031929 -0.12642,-0.059 l 0.04776,0 c 0.01359,0 0.02528,-0.007976 0.02528,-0.022476 0,-0.026677 -0.03749,-0.022472 -0.06461,-0.022472 0.02877,-0.025012 0.08911,-0.015957 0.12082,-2e-5 0.03624,0.018213 0.07305,0.033169 0.06179,0.081492 z m -0.5057,0.022476 c 0,-0.068791 0.12634,-0.158614 0.16295,-0.103949 -0.02689,0 -0.05619,-0.004909 -0.05619,0.022473 0,0.02026 0.0111,0.022476 0.0309,0.022476 l 0.01967,0 C 1.28055,0.521003 1.21877,0.576594 1.15696,0.576594 1.14677,0.576594 1.13449,0.561527 1.13449,0.5485 z M 1.10077,0.554122 c 0,0.026783 0.02689,0.046657 0.0531,0.050917 C 1.1834,0.609838 1.20878,0.598138 1.23098,0.585992 1.26192,0.569067 1.31931,0.513677 1.32272,0.472646 l 0.08429,0 c 0.00485,0 0.02432,0.028551 0.0316,0.035827 0.01307,0.013071 0.02006,0.018094 0.03766,0.026952 0.01658,0.008339 0.08028,0.030674 0.10492,0.027122 L 1.62343,0.557583 1.69081,0.655229 C 1.67646,0.676618 1.66547,0.701059 1.66547,0.736737 l 0,0.030901 c 0,0.042536 0.04341,0.129236 0.0871,0.129236 l 0.01405,0 c 0.04417,0 0.07023,-0.058067 0.07023,-0.103949 l 0,-0.019665 C 1.83685,0.740953 1.81953,0.694736 1.80657,0.674311 1.78239,0.636216 1.77436,0.632787 1.72447,0.632787 1.7219,0.632787 1.6632,0.546453 1.65705,0.537264 1.66431,0.528905 1.67672,0.515606 1.67672,0.50074 1.67672,0.459272 1.64848,0.433866 1.62281,0.416976 1.60424,0.40476 1.54841,0.382744 1.51938,0.382744 l -0.02528,0 c -0.03396,0 -0.07542,0.018957 -0.08148,0.044953 l -0.08709,0 C 1.31968,0.402594 1.29955,0.379933 1.26934,0.379933 l -0.01685,0 c -0.05594,0 -0.15172,0.09578 -0.15172,0.151713 z"
       style="fill:#000000;stroke:#000000;stroke-width:0.06;stroke-miterlimit:4;stroke-opacity:1;stroke-dasharray:0.12, 0.06;stroke-dashoffset:0"
       id="path8" />
    <path
       inkscape:connector-curvature="0"
       d="M 1.8762,0.995543 1.8818,1.08511 C 1.88342,1.10901 1.89804,1.10617 1.9127,1.1132 1.92531,1.10653 1.94361,1.10077 1.94361,1.0823 1.94361,1.06886 1.94042,1.06485 1.93421,1.05689 L 1.94356,0.991602 z"
       style="fill:#ffffff;stroke:#000000;stroke-width:0.06;stroke-miterlimit:4;stroke-opacity:1;stroke-dasharray:0.12, 0.06;stroke-dashoffset:0"
       id="path10" />
    <path
       inkscape:connector-curvature="0"
       d="m 1.53062,1.44191 c 0,-0.08451 0.05168,-0.16425 0.10221,-0.1984 0.07358,-0.04972 0.12479,-0.05445 0.24335,-0.05445 0.01171,0 0.07433,0.02704 0.088,0.03281 0.02129,0.00898 0.05555,0.03502 0.06881,0.052 0.01826,0.02338 0.03723,0.03924 0.05115,0.06965 0.01157,0.02527 0.02242,0.06154 0.02242,0.09839 l 0,0.03652 c 0,0.07968 -0.03486,0.12144 -0.06971,0.16628 C 1.99945,1.69283 1.93893,1.70241 1.88461,1.72847 1.87352,1.71191 1.85064,1.706 1.82281,1.706 l -0.01125,0 C 1.78631,1.706 1.77338,1.72111 1.75819,1.73128 1.62066,1.71984 1.53062,1.60353 1.53062,1.45034 z M 1.94357,0.991603 1.93421,1.05689 c 0.00622,0.00796 0.0094,0.01197 0.0094,0.02541 0,0.01847 -0.0183,0.02423 -0.0309,0.0309 C 1.89805,1.10617 1.88342,1.10901 1.8818,1.08511 L 1.8762,0.995544 z M 1.51753,1.19743 C 1.5069,1.21193 1.48889,1.23069 1.47671,1.24752 1.46802,1.25954 1.45182,1.29112 1.44542,1.30613 1.4285,1.34578 1.41824,1.40333 1.41824,1.45876 c 0,0.12007 0.03886,0.19372 0.09627,0.25773 C 1.54274,1.74797 1.57586,1.7736 1.6149,1.79309 1.63923,1.80523 1.71496,1.83733 1.74695,1.83804 1.76715,1.87621 1.81646,1.89924 1.865,1.87461 1.88539,1.86427 1.90324,1.83598 1.91311,1.83282 1.93801,1.82485 1.95511,1.82117 1.97897,1.8116 2.07438,1.77334 2.11924,1.73084 2.17061,1.64924 2.21455,1.57943 2.22572,1.45435 2.20377,1.35313 2.1921,1.2993 2.17186,1.27201 2.14644,1.23346 2.1334,1.21367 2.07783,1.15556 2.05599,1.14973 L 2.05012,0.986785 C 2.0197,0.972064 1.96305,0.949706 1.93006,0.938497 1.92671,0.93736 1.79608,0.943596 1.77213,0.944529 1.7233,0.946434 1.65725,0.946553 1.62014,0.961112 1.58647,0.974324 1.53694,0.998155 1.50625,1.01482 z"
       style="fill:#000000;stroke:#000000;stroke-width:0.06;stroke-miterlimit:4;stroke-opacity:1;stroke-dasharray:0.12, 0.06;stroke-dashoffset:0"
       id="path12" />
    <path
       inkscape:connector-curvature="0"
       d="m 0.864783,0.660878 c 0,-0.014819 0.02811,-0.022102 0.036024,-0.034209 0.007,-0.010712 0.025866,-0.031433 0.028594,-0.041645 L 0.978287,0.625917 C 0.967767,0.633457 0.942629,0.653138 0.935669,0.661532 0.926051,0.673134 0.922763,0.697402 0.898496,0.697402 l -0.005619,0 c -0.007279,0 -0.028094,-0.017205 -0.028094,-0.025284 z M 0.454602,1.01487 c 0,-0.137335 0.133504,-0.272516 0.269709,-0.272516 l 0.025283,0 c 0.09889,0 0.14835,0.067988 0.201535,0.115933 C 0.979456,0.883822 1.00574,0.907189 1.03265,0.934094 1.05287,0.954311 1.09319,0.994767 1.11482,1.00925 1.13046,0.985893 1.24406,0.880087 1.24406,0.865969 1.24406,0.85765 1.19114,0.741264 1.18439,0.734603 1.15148,0.702197 1.11813,0.673784 1.08598,0.641961 1.05616,0.612441 1.01904,0.575981 0.986161,0.550736 0.965842,0.535138 0.882944,0.510677 0.853543,0.495122 L 0.722614,0.633823 C 0.608386,0.632788 0.526708,0.685693 0.469346,0.743051 0.418905,0.793492 0.347842,0.886228 0.347842,0.983968 l 0,0.033712 c 0,0.04623 0.015504,0.09985 0.028425,0.13452 0.006961,0.01868 0.015972,0.03763 0.025902,0.05558 0.016023,0.02896 0.017252,0.01983 0.014976,0.0558 C 0.414728,1.30182 0.426058,1.28207 0.402889,1.31996 0.393436,1.33542 0.382267,1.35656 0.375015,1.37356 0.362232,1.40351 0.345035,1.46319 0.345035,1.50372 l 0,0.03652 c 0,0.16088 0.17213,0.34166 0.320276,0.35399 L 0.650807,1.93622 0.763764,1.90589 0.763642,1.95604 0.860976,1.88995 0.87441,1.92751 0.944256,1.8415 0.969252,1.87078 0.971543,1.86894 C 0.972536,1.85699 0.989291,1.82076 0.994406,1.80752 1.00283,1.78573 0.997004,1.79661 1.01259,1.78356 1.01865,1.77849 1.02492,1.76667 1.02492,1.75657 1.02492,1.73272 0.993087,1.70068 0.969882,1.6962 0.946051,1.6916 0.915047,1.72221 0.897374,1.73297 0.855169,1.75868 0.793106,1.78747 0.727118,1.78747 l -0.008429,0 c -0.129744,0 -0.261276,-0.13036 -0.261276,-0.26128 l 0,-0.01124 c 0,-0.0631 0.028606,-0.11582 0.050567,-0.15733 0.116024,0 0.127185,-0.18261 -0.002807,-0.18261 C 0.481177,1.13918 0.454602,1.0829 0.454602,1.0233 l 0,-0.00843 z"
       style="fill:#000000;stroke:#000000;stroke-width:0.06;stroke-miterlimit:4;stroke-opacity:1;stroke-dasharray:0.12, 0.06;stroke-dashoffset:0"
       id="path14" />
  </g>
</svg>
