<?xml version="1.0"?>
<!--
Copyright (C) 2012 United States Government as represented by the Administrator of the
National Aeronautics and Space Administration.
All Rights Reserved.
-->

<!DOCTYPE svg PUBLIC "-//W3C//DTD SVG 1.1//EN" "http://www.w3.org/Graphics/SVG/1.1/DTD/svg11.dtd" >
<!--
MIL-STD-2525 tactical symbol icon image. During icon composition this image is multiplied by the desired frame color 
(e.g. black), then drawn on top of the frame and fill.
-->
<svg xmlns:xlink="http://www.w3.org/1999/xlink" height="400px" viewBox="0 0 400 400" width="400px"><g transform="scale(0.7) translate(121.429 40)"><ellipse cx="223" cy="186.5" rx="27" ry="66.5" style="fill:rgb(0,0,0);stroke:rgb(0,0,0);stroke-width:1" transform="matrix(1 0 0 1 0 0) rotate(11.1596 223 186.5) translate(-5.11821 14.5181) rotate(1.60024 223 186.5) translate(-0.220866 -0.975304) translate(-0.220866 -0.975304) translate(0.975304 -0.220866) translate(0.975304 -0.220866) translate(0.975304 -0.220866) translate(-0.220866 -0.975304) translate(-0.220866 -0.975304) translate(-0.975304 0.220866) translate(-0.975304 0.220866) translate(0.975304 -0.220866) translate(0.975304 -0.220866) translate(-0.975304 0.220866) translate(-0.220866 -0.975304)"/><ellipse cx="174" cy="144" rx="34" ry="40" style="fill:rgb(0,0,0);stroke:rgb(0,0,0);stroke-width:1" transform="matrix(1 0 0 1 0 0) translate(-1 0) translate(-1 0) translate(-1 0) translate(-1 0) translate(-1 0) translate(-1 0) translate(-1 0) translate(1 0) translate(1 0) translate(1 0) translate(-1 0) translate(-1 0) translate(-1 0) translate(-1 0) translate(-1 0) translate(-9 36) translate(0 -1) translate(0 -1) translate(1 0) translate(1 0) translate(1 0) translate(0 -1) translate(0 -1) translate(-1 0) translate(-1 0) translate(1 0) translate(1 0) translate(-1 0) translate(0 -1)"/><rect height="62" style="fill:rgb(0,0,0);stroke:rgb(0,0,0);stroke-width:1" transform="matrix(1 0 0 1 0 0) rotate(25.6749 135.5 215) translate(19.6011 33.8496) translate(57.7898 195.639) scale(1.02433 1.02934) translate(-57.7898 -195.639) rotate(357.619 135.5 215) translate(-0.896588 0.383991) translate(-0.896588 0.383991) rotate(357.049 135.5 215) translate(-0.915168 0.337324) translate(-0.915168 0.337324) translate(-0.339773 -0.911094) translate(-0.339773 -0.911094) translate(-0.339773 -0.911094) translate(0.915168 -0.337324) translate(0.915168 -0.337324) translate(0.915168 -0.337324) translate(0.915168 -0.337324) translate(-0.915168 0.337324) translate(-0.339773 -0.911094) translate(-0.915168 0.337324) translate(0.339779 0.911094) translate(0.339779 0.911094) translate(0.339779 0.911094) translate(26.1133 50.4822)" width="107" x="82" y="184"/><g transform="rotate(19.629 150 240) translate(-9.37228 51.1191) translate(-0.335928 -0.941888) translate(-0.335928 -0.941888) translate(-0.335928 -0.941888) translate(0.941888 -0.335928) translate(0.941888 -0.335928) translate(-0.335928 -0.941888) translate(0.941888 -0.335928) translate(-0.335928 -0.941888) translate(-0.335928 -0.941888) translate(-0.941888 0.335928) translate(0.941888 -0.335928) translate(0.941888 -0.335928) translate(0.335928 0.941888) translate(0.335928 0.941888) translate(0.335928 0.941888) translate(26.0771 52.278)"><ellipse cx="150" cy="240" rx="56" ry="20" style="fill:rgb(255,255,255);stroke:rgb(255,255,255);stroke-width:1" transform="matrix(1 0 0 1 0 0)"/></g><g transform="rotate(19.629 150 240) translate(-9.37228 51.1191) translate(0.335928 0.941888) translate(0.335928 0.941888) translate(0.335928 0.941888) translate(26.0771 52.278)"><ellipse cx="150" cy="240" rx="56" ry="20" style="fill:rgb(0,0,0);stroke:rgb(0,0,0);stroke-width:1" transform="matrix(1 0 0 1 0 0)"/><ellipse cx="149" cy="241" rx="23" ry="7" style="fill:rgb(255,255,255);stroke:rgb(0,0,0);stroke-width:1" transform="matrix(1 0 0 1 0 0)"/></g><line style="stroke:rgb(255,255,255);stroke-width:4" transform="matrix(1 0 0 1 0 0) translate(135 240) scale(0.979798 1) translate(-135 -240) translate(126 263) scale(0.896907 0.960474) translate(-126 -263) translate(1.13793 0) translate(0 1.04115) translate(-1.13793 0) translate(0 1.04115) translate(-1.13793 0) translate(0 1.04115) translate(-1.13793 0) translate(0 1.04115) translate(0 1.04115) translate(0.142241 0.780864) translate(-0.99569 1.95216) translate(0 0.462734)" x1="135" x2="126" y1="240" y2="263"/><line style="stroke:rgb(255,255,255);stroke-width:6" transform="matrix(1 0 0 1 0 0) translate(-7 12.1667) translate(0 1) translate(-1 0) translate(1 0) translate(-1 0) translate(-1 0) translate(0 -1)" x1="207" x2="202" y1="262" y2="277"/><rect height="86" style="fill:rgb(0,0,0);stroke:rgb(0,0,0);stroke-width:1" transform="matrix(1 0 0 1 0 0) rotate(16.3693 156.5 153) translate(107.866 97.5548) rotate(1.48189 156.5 153) rotate(1.01398 156.5 153) translate(-93.6617 -91.6378) translate(-0.946282 0.323342) translate(0.323342 0.946282) translate(-0.946282 0.323342) translate(0.323342 0.946282) translate(0.323342 0.946282) translate(0.323342 0.946282) translate(25.3778 52.621) translate(-0.323342 -0.946282) translate(0.946282 -0.323342) translate(-0.323342 -0.946282) translate(-0.323342 -0.946282) translate(-0.323342 -0.946282) translate(-0.323342 -0.946282) translate(0.946282 -0.323342) translate(0.946282 -0.323342) translate(0.946282 -0.323342) translate(-0.323342 -0.946282) translate(-0.323342 -0.946282) translate(-0.946282 0.323342) translate(-0.946282 0.323342) translate(0.946282 -0.323342) translate(0.946282 -0.323342) translate(-0.946282 0.323342) translate(-0.323342 -0.946282) translate(0.323342 0.946282) translate(0.323342 0.946282) translate(0.323342 0.946282) translate(0.323342 0.946282) translate(0.323342 0.946282) translate(-0.946282 0.323342) translate(0.323342 0.946282) translate(0.323342 0.946282) translate(-0.946282 0.323342) translate(0.323342 0.946282) translate(-0.946282 0.323342) translate(0.323342 0.946282)" width="75" x="119" y="110"/><ellipse cx="193" cy="157" rx="23" ry="16" style="fill:rgb(0,0,0);stroke:rgb(0,0,0);stroke-width:1" transform="matrix(1 0 0 1 0 0) translate(0 -1) translate(0 -1) translate(1 0) translate(1 0) translate(1 0) translate(0 -1) translate(0 -1) translate(-1 0) translate(-1 0) translate(1 0) translate(1 0) translate(-1 0) translate(0 -1)"/><ellipse cx="222.5" cy="147" rx="22.5" ry="31" style="fill:rgb(255,255,255);stroke:rgb(0,0,0);stroke-width:1" transform="matrix(1 0 0 1 0 0) translate(-1 0) translate(-1 0) translate(-1 0) translate(-1 0) translate(-1 0) translate(-1 0) translate(-1 0) translate(-1 0) translate(-1 0) translate(-1 0) translate(-9 36) translate(0 1) translate(0 1) translate(0 1) translate(0 1) translate(-1 0) translate(-1 0) translate(0 -1) translate(0 -1) translate(1 0) translate(1 0) translate(1 0) translate(0 -1) translate(0 -1) translate(-1 0) translate(-1 0) translate(1 0) translate(1 0) translate(-1 0) translate(0 -1) translate(222.5 116) scale(1 0.909677) translate(-222.5 -116) translate(-4 0) translate(222.5 178) scale(1 0.929078) translate(-222.5 -178) translate(0 -1.18321) translate(-1 0) translate(-1 0) translate(-1 0) translate(-4 -3.78626) translate(0.8 5.67939)"/><ellipse cx="159.5" cy="147" rx="15.5" ry="25" style="fill:rgb(255,255,255);stroke:rgb(0,0,0);stroke-width:1" transform="matrix(1 0 0 1 0 0) translate(1 0) translate(1 0) translate(1 0) translate(-1 0) translate(-1 0) translate(-1 0) translate(0 -1) translate(0 -1) translate(-1 0) translate(-1 0) translate(-1 0) translate(-1 0) translate(-1 0) translate(-9 36) translate(144 147) scale(0.870968 1) translate(-144 -147) translate(0 -1) translate(0 -1) translate(1.14815 0) translate(1.14815 0) translate(1.14815 0) translate(0 -1) translate(0 -1) translate(-1.14815 0) translate(-1.14815 0) translate(1.14815 0) translate(1.14815 0) translate(-1.14815 0) translate(0 -1) translate(159.5 122) scale(1 0.952) translate(-159.5 -122) translate(-1.14815 0) translate(-1.14815 0) translate(-1.14815 0) translate(-1.14815 0) translate(0 -1.05042)"/><path d="M129.2 205.489 C132.328 214.872 134.4 221.657 134.4 231.489 L132.8 244.689 C159.969     264.612 155.673 220.26 134 205.089" style="fill:rgb(0,0,0);stroke:rgb(0,0,0);stroke-width:1" transform="matrix(1 0 0 1 0 0) translate(0 -1) translate(0 -1) translate(0 -1) translate(1 0) translate(1 0) translate(1 0) translate(0 -1) translate(0 -1) translate(-1 0) translate(-1 0) translate(1 0) translate(1 0) translate(-1 0) translate(0 -1)"/><path d="M135.542 147.231 C231.6 89.5958 254.689 159.341 220.482 151.448" style="fill:rgb(0,0,0);stroke:rgb(0,0,0);stroke-width:1" transform="matrix(1 0 0 1 0 0) translate(1 0) translate(0 -1) translate(0 -1) translate(1 0) translate(1 0) translate(1 0) translate(0 -1) translate(0 -1) translate(-1 0) translate(-1 0) translate(1 0) translate(1 0) translate(-1 0) translate(0 -1) translate(0 1) translate(0 1) translate(0 1) translate(0 1) translate(0 -1) translate(0 -1)"/><path d="M136 146.8 C162.222 116.208 205.075 104.193 232.8 142" style="fill:rgb(0,0,0);stroke:rgb(0,0,0);stroke-width:1" transform="matrix(1 0 0 1 0 0) translate(1 0) translate(0 -1) translate(0 -1) translate(0 -1) translate(1 0) translate(1 0) translate(1 0) translate(0 -1) translate(0 -1) translate(-1 0) translate(-1 0) translate(1 0) translate(1 0) translate(-1 0) translate(0 -1) translate(0 1) translate(1 0) translate(1 0) translate(-1 0) translate(-1 0) translate(-1 0) translate(0 1) translate(1 0) translate(0 1) translate(0 1) translate(0 1) translate(1 0) translate(-1 0) translate(-1 0) translate(-1 0) translate(-1 0) translate(-1 0) translate(0 1) translate(0 -1) translate(0 -1) translate(0 1)"/><ellipse cx="192.5" cy="222.5" rx="26.5" ry="7.5" style="fill:rgb(255,255,255);stroke-width:1" transform="matrix(1 0 0 1 0 0) rotate(15.402 192.5 222.5) translate(6.81347 -10.7677) rotate(3.11684 192.5 222.5) translate(-0.317616 -0.948219) translate(0.948219 -0.317616) translate(0.948219 -0.317616) translate(-0.948219 0.317616) translate(-0.948219 0.317616) translate(0.948219 -0.317616) translate(-0.317616 -0.948219) translate(0.948219 -0.317616) translate(262.413 -38.3316) translate(-288.249 102.88) translate(165.186 220.069) scale(1.39797 1.63751) translate(-165.186 -220.069) translate(-4.9752 0.778682) translate(164.854 219.744) scale(1.07951 1.09665) translate(-164.854 -219.744) translate(0.210464 0.528029) translate(0.210464 0.528029) translate(-0.628324 0.176869) translate(-0.628324 0.176869) translate(-0.628324 0.176869) translate(-0.210464 -0.528029) translate(-0.210464 -0.528029) translate(164.816 219.715) scale(0.963184 0.966689) translate(-164.816 -219.715) translate(0.652341 -0.182964) translate(-0.218509 -0.546225) translate(-0.218509 -0.546225) translate(-0.218509 -0.546225) translate(0.652341 -0.182964) translate(0.652341 -0.182964) translate(0.652341 -0.182964) translate(0.652341 -0.182964) translate(0.652341 -0.182964) translate(0.652341 -0.182964) translate(0.652341 -0.182964) translate(0.652341 -0.182964) translate(0.652341 -0.182964) translate(0.652341 -0.182964) translate(0.652341 -0.182964) translate(0.652341 -0.182964) translate(0.652341 -0.182964) translate(-0.652341 0.182964) translate(-0.652341 0.182964) translate(-0.652341 0.182964) translate(-6.52086 3.28695) translate(0.652341 -0.182964) translate(0.652341 -0.182964) translate(0.652341 -0.182964) translate(-0.652341 0.182964) translate(-0.218509 -0.546225) translate(0.652341 -0.182964) translate(-0.218509 -0.546225) translate(-0.652341 0.182964) translate(0.652341 -0.182964) translate(0.652341 -0.182964) translate(-0.652341 0.182964) translate(0.27234 0.227371) translate(-0.218509 -0.546225) translate(164.807 219.708) scale(0.9922 0.987671) translate(-164.807 -219.708) translate(0.657469 -0.185248) translate(-0.657469 0.185248) translate(0.281773 -0.0793919) translate(-0.220227 -0.553043)"/><g transform="rotate(19.629 150 240) translate(-9.37228 51.1191) translate(-0.335928 -0.941888) translate(-0.335928 -0.941888) translate(-0.335928 -0.941888) translate(0.941888 -0.335928) translate(0.941888 -0.335928) translate(-0.335928 -0.941888) translate(0.941888 -0.335928) translate(-0.335928 -0.941888) translate(-0.335928 -0.941888) translate(-0.941888 0.335928) translate(0.941888 -0.335928) translate(0.941888 -0.335928) translate(-1.12026 -53.747) translate(0.941888 -0.335928) translate(0.941888 -0.335928) translate(-0.335928 -0.941888) translate(0.335928 0.941888) translate(0.335928 0.941888) translate(0.335928 0.941888) translate(26.0771 52.278) translate(-0.335928 -0.941888) translate(-0.335928 -0.941888) translate(0.941888 -0.335928)"><ellipse cx="150" cy="240" rx="56" ry="20" style="fill:rgb(0,0,0);stroke:rgb(0,0,0);stroke-width:1" transform="matrix(1 0 0 1 0 0)"/></g></g></svg>