<?xml version="1.0"?>
<!--
Copyright (C) 2012 United States Government as represented by the Administrator of the
National Aeronautics and Space Administration.
All Rights Reserved.
-->

<!DOCTYPE svg PUBLIC "-//W3C//DTD SVG 1.1//EN" "http://www.w3.org/Graphics/SVG/1.1/DTD/svg11.dtd" >
<!--
MIL-STD-2525 tactical symbol icon image. During icon composition this image is multiplied by the desired frame color 
(e.g. black), then drawn on top of the frame and fill.
-->
<svg xmlns:xlink="http://www.w3.org/1999/xlink" height="400px" viewBox="0 0 400 400" width="400px"><g transform="scale(110) translate(0.518182 0.472727)"><path d="M1.34952 1.10227 C1.21334 1.10227 1.11493 1.01818 1.11493 0.882975 L1.11493 0.857475     C1.11493 0.740916 1.33422 0.552066 1.33422 0.342384 C1.40192 0.420274 1.38902     0.528278 1.43923 0.609664 C1.46784 0.656026 1.56882 0.799436 1.56882 0.852377     L1.56882 0.877877 C1.56882 1.00607 1.47845 1.10227 1.34952 1.10227 zM1.08433     0.857475 L1.08433 0.882975 C1.08433 1.21705 1.59941 1.20369 1.59941     0.903377 L1.59941 0.852377 C1.59941 0.766317 1.48941 0.64944 1.45494 0.56846     C1.40175 0.443472 1.42892 0.35259 1.30362 0.286287 C1.30362 0.55807 1.08433     0.714716 1.08433 0.857475 z" style="fill:rgb(0,0,0)"/><path d="M1.23129 0.906878 C1.24246 0.952413 1.26449 0.984866 1.30872 0.995173 C1.30472 1.01015     1.28542 1.02577 1.26792 1.02577 C1.20771 1.02577 1.19855 0.970087 1.18216     0.935571 zM1.34952 1.10227 C1.47845 1.10227 1.56882 1.00608 1.56882 0.877878     L1.56882 0.852378 C1.56882 0.799437 1.46784 0.656028 1.43923 0.609665 C1.38902     0.528279 1.40192 0.420275 1.33422 0.342385 C1.33422 0.552066 1.11493     0.740916 1.11493 0.857476 L1.11493 0.882976 C1.11493 1.01818 1.21334 1.10227     1.34952 1.10227 z" style="fill:rgb(255,255,255)"/><path d="M1.25541 1.46874 L1.19315 1.37274 L1.17678 1.55555 L1.05377 1.42865 L1.09449 1.57268     L0.929202 1.56935 L1.07932 1.68006 L0.829332 1.69386 C0.866143 1.71944 1.24978     1.81478 1.3296 1.81039 L1.68141 1.76903 L1.4831 1.70602 L1.7065 1.59175     L1.50136 1.61151 L1.59296 1.46709 L1.40397 1.57094 L1.46435 1.37063 L1.33249     1.53644 L1.30593 1.30699 z" style="fill:rgb(255,255,255)"/><path d="M1.92581 1.87235 C1.91119 1.86219 1.68699 1.78129 1.67166 1.78187 C1.57885 1.78532     1.47124 1.81625 1.35462 1.81625 L1.30872 1.81625 C1.2102 1.81625 0.812908     1.7204 0.763125 1.68937 L0.808933 1.68366 L0.839531 1.68366 L0.839165 1.67483     L0.78846 1.65672 L1.00783 1.64286 C0.977704 1.59787 0.835192 1.61736 0.763035     1.61736 C0.671236 1.61736 0.579441 1.61736 0.487641 1.61736 C0.503259 1.63093     1.03757 1.89359 1.08244 1.90994 C1.12139 1.92413 1.81219 1.87235 1.92581     1.87235 z" style="fill:rgb(255,255,255)"/><path d="M0.436642 1.73976 L1.07126 2.09673 L1.07413 2.09165 L1.07413 1.94885 C1.07413 1.92322     0.499559 1.66969 0.436642 1.62756 z" style="fill:rgb(255,255,255)"/><polygon points="1.11504,1.94099 1.09963,1.93865 1.09969,2.10285 1.99211,2.05085 1.99219,1.89959" style="fill:rgb(255,255,255)"/><path d="M1.99219 1.89959 L1.99211 2.05085 L1.09969 2.10285 L1.09963 1.93866 L1.11504 1.94099     zM0.43664 1.62757 C0.499557 1.6697 1.07413 1.92322 1.07413 1.94886 L1.07413     2.09165 L1.07126 2.09673 L0.43664 1.73976 zM1.92581 1.87236 C1.81219 1.87236     1.12139 1.92414 1.08244 1.90995 C1.03757 1.8936 0.503259 1.63094 0.487641     1.61736 C0.57944 1.61736 0.671235 1.61736 0.763035 1.61736 C0.835193 1.61736     0.977704 1.59788 1.00783 1.64286 L0.78846 1.65672 L0.839165 1.67484 L0.839531     1.68366 L0.808932 1.68366 L0.763125 1.68937 C0.812909 1.72041 1.2102 1.81626     1.30872 1.81626 L1.35462 1.81626 C1.47123 1.81626 1.57885 1.78533 1.67166     1.78187 C1.68699 1.7813 1.91119 1.8622 1.92581 1.87236 zM1.30593 1.30699     L1.33249 1.53644 L1.46435 1.37063 L1.40398 1.57094 L1.59296 1.46709 L1.50136     1.61151 L1.7065 1.59175 L1.4831 1.70602 L1.68142 1.76903 L1.3296 1.8104 C1.24979     1.81478 0.866144 1.71944 0.829333 1.69386 L1.07932 1.68007 L0.929203     1.56936 L1.09449 1.57268 L1.05377 1.42866 L1.17678 1.55555 L1.19315 1.37274     L1.25541 1.46874 zM1.32239 1.25476 L1.31892 1.23997 L1.31148 1.24079 L1.26792     1.39297 L1.25942 1.39194 L1.20162 1.30117 L1.20034 1.35301 L1.18314 1.32682     L1.16859 1.47676 L1.04859 1.34708 L1.06293 1.4093 L1.02599 1.37832 L1.06903     1.53066 L1.00774 1.53187 L0.909605 1.52746 L0.946708 1.55544 L0.888968 1.55293     L0.926231 1.58677 L0.406042 1.58677 C0.403377 1.5982 0.400944 1.59849     0.400944 1.61226 L0.400944 1.73466 C0.400944 1.77339 0.519054 1.82524 0.552184     1.84351 C0.609609 1.87519 0.663834 1.9027 0.719172 1.93662 C0.827688 2.00316     0.944936 2.05779 1.05364 2.12234 C1.09766 2.14847 1.2208 2.13487 1.28796     2.12699 C1.35733 2.11886 1.4641 2.12221 1.53108 2.11002 C1.5999 2.0975 1.7024     2.10032 1.77317 2.09201 C1.83986 2.08419 1.95483 2.07775 2.01761 2.07635     L2.01761 1.88256 C2.01761 1.85992 1.88876 1.82346 1.86143 1.81435 C1.82195 1.80118     1.72231 1.76802 1.69632 1.75003 L1.76838 1.74244 L1.56372 1.68876 L1.5647     1.68052 L1.78791 1.56527 L1.75146 1.56961 L1.79297 1.5434 L1.54895 1.56669     L1.64383 1.40579 L1.44587 1.5203 L1.51733 1.2753 L1.36188 1.47948 L1.33674     1.20857 z" style="fill:rgb(0,0,0)"/></g><ellipse cx="204" cy="151" rx="17" ry="16" style="fill:rgb(255,255,255);stroke:rgb(255,255,255);stroke-width:1" transform="matrix(1 0 0 1 0 0) translate(-1 0) translate(-1 0) translate(-1 0) translate(-1 0) translate(0 1) translate(1 0) translate(0 1)"/></svg>