<?xml version="1.0" encoding="UTF-8" standalone="no"?>
<!--
Copyright (C) 2012 United States Government as represented by the Administrator of the
National Aeronautics and Space Administration.
All Rights Reserved.
-->

<!--
MIL-STD-2525 tactical symbol icon image. During icon composition this image is multiplied by the desired frame color 
(e.g. black), then drawn on top of the frame and fill.
-->

<svg
   xmlns:dc="http://purl.org/dc/elements/1.1/"
   xmlns:cc="http://creativecommons.org/ns#"
   xmlns:rdf="http://www.w3.org/1999/02/22-rdf-syntax-ns#"
   xmlns:svg="http://www.w3.org/2000/svg"
   xmlns="http://www.w3.org/2000/svg"
   xmlns:sodipodi="http://sodipodi.sourceforge.net/DTD/sodipodi-0.dtd"
   xmlns:inkscape="http://www.inkscape.org/namespaces/inkscape"
   height="400px"
   viewBox="0 0 400 400"
   width="400px"
   id="svg2"
   version="1.1"
   inkscape:version="0.48.2 r9819"
   sodipodi:docname="sfgaucrx-------.svg">
  <metadata
     id="metadata14">
    <rdf:RDF>
      <cc:Work
         rdf:about="">
        <dc:format>image/svg+xml</dc:format>
        <dc:type
           rdf:resource="http://purl.org/dc/dcmitype/StillImage" />
      </cc:Work>
    </rdf:RDF>
  </metadata>
  <defs
     id="defs12" />
  <sodipodi:namedview
     pagecolor="#ffffff"
     bordercolor="#666666"
     borderopacity="1"
     objecttolerance="10"
     gridtolerance="10"
     guidetolerance="10"
     inkscape:pageopacity="0"
     inkscape:pageshadow="2"
     inkscape:window-width="705"
     inkscape:window-height="480"
     id="namedview10"
     showgrid="false"
     inkscape:zoom="0.59"
     inkscape:cx="200"
     inkscape:cy="200"
     inkscape:window-x="193"
     inkscape:window-y="83"
     inkscape:window-maximized="0"
     inkscape:current-layer="svg2" />
  <line
     style="stroke:rgb(255,255,255);stroke-width:10;stroke-dasharray:10"
     x1="380"
     x2="20"
     y1="80"
     y2="320"
     id="line4" />
  <g
     transform="matrix(0.7,0,0,0.7,79.999996,117)"
     id="g6"
     style="stroke:none">
    <g
       style="font-size:90px;font-weight:bold;text-anchor:middle;fill:#ffffff;stroke:none;font-family:Arial"
       id="text8">
      <path
         inkscape:connector-curvature="0"
         d="m 116.81152,232 0,-63.89648 13.00782,0 0,53.04199 32.34375,0 0,10.85449 z"
         style="font-size:90px;font-weight:bold;text-anchor:middle;fill:#ffffff;stroke:none;font-family:Arial"
         id="path2992" />
      <path
         inkscape:connector-curvature="0"
         d="m 171.52344,232 0,-64.42383 27.37793,0 c 6.88472,7e-5 11.88716,0.57868 15.00732,1.73584 3.12007,1.15729 5.61762,3.21539 7.49268,6.17432 1.87494,2.95904 2.81244,6.34282 2.8125,10.15137 -6e-5,4.83402 -1.42096,8.82572 -4.2627,11.97509 -2.84185,3.14945 -7.08989,5.13431 -12.74414,5.95459 2.81246,1.64065 5.13423,3.44241 6.96533,5.40528 1.83101,1.96291 4.29927,5.44923 7.40479,10.45898 L 229.44336,232 l -15.55664,0 -9.4043,-14.01855 c -3.33988,-5.00975 -5.62503,-8.16649 -6.85547,-9.47022 -1.2305,-1.30369 -2.53421,-2.19724 -3.91113,-2.68066 -1.37698,-0.48338 -3.5596,-0.72507 -6.54785,-0.7251 l -2.63672,0 0,26.89453 z m 13.00781,-37.17773 9.62402,0 c 6.2402,3e-5 10.13668,-0.26364 11.68946,-0.79102 1.55269,-0.52731 2.76851,-1.43551 3.64746,-2.72461 0.87886,-1.28902 1.31831,-2.90035 1.31836,-4.83398 -5e-5,-2.16792 -0.57866,-3.91841 -1.73584,-5.25147 -1.15727,-1.33295 -2.79057,-2.17524 -4.89991,-2.52685 -1.05472,-0.14643 -4.21878,-0.21968 -9.49218,-0.21973 l -10.15137,0 z"
         style="font-size:90px;font-weight:bold;text-anchor:middle;fill:#ffffff;stroke:none;font-family:Arial"
         id="path2994" />
      <path
         inkscape:connector-curvature="0"
         d="m 233.22266,211.03809 12.65625,-1.23047 c 0.7617,4.24806 2.30711,7.36818 4.63623,9.36035 2.32908,1.9922 5.47116,2.98829 9.42627,2.98828 4.18942,1e-5 7.34615,-0.88622 9.47021,-2.65869 2.12398,-1.77245 3.18599,-3.8452 3.18604,-6.21826 -5e-5,-1.52342 -0.44682,-2.81981 -1.34034,-3.88916 -0.89359,-1.06932 -2.45365,-1.99949 -4.68017,-2.79053 -1.52347,-0.52732 -4.99515,-1.46482 -10.41504,-2.8125 -6.97268,-1.72849 -11.86525,-3.85251 -14.67774,-6.37207 -3.95508,-3.54488 -5.93262,-7.86617 -5.93261,-12.96387 -1e-5,-3.2812 0.93017,-6.35004 2.79053,-9.20654 1.86034,-2.85639 4.541,-5.03168 8.04199,-6.52588 3.50095,-1.49408 7.72702,-2.24115 12.67822,-2.24121 8.0859,6e-5 14.17232,1.77252 18.25928,5.31738 4.08686,3.54498 6.23285,8.27642 6.43799,14.19434 l -13.00782,0.57129 c -0.55668,-3.3105 -1.75052,-5.69087 -3.58154,-7.14112 -1.83109,-1.45014 -4.57767,-2.17523 -8.23975,-2.17529 -3.77932,6e-5 -6.7383,0.77642 -8.87695,2.3291 -1.37697,0.99615 -2.06545,2.32915 -2.06543,3.99903 -2e-5,1.52348 0.64451,2.82719 1.93359,3.91113 1.64061,1.37699 5.62498,2.81254 11.95313,4.30664 6.32809,1.49418 11.00826,3.03959 14.04053,4.63623 3.03217,1.59671 5.40522,3.77933 7.11914,6.54785 1.71381,2.76858 2.57074,6.18899 2.5708,10.26123 -6e-5,3.69142 -1.02545,7.14845 -3.07617,10.3711 -2.05083,3.22266 -4.95122,5.61767 -8.70118,7.18505 -3.75004,1.56739 -8.42288,2.35108 -14.01855,2.35108 -8.14455,0 -14.39943,-1.88233 -18.76465,-5.64697 -4.36524,-3.76464 -6.97266,-9.25048 -7.82226,-16.45752 z"
         style="font-size:90px;font-weight:bold;text-anchor:middle;fill:#ffffff;stroke:none;font-family:Arial"
         id="path2996" />
    </g>
  </g>
</svg>
