<?xml version="1.0" encoding="UTF-8" standalone="no"?>
<!--
Copyright (C) 2012 United States Government as represented by the Administrator of the
National Aeronautics and Space Administration.
All Rights Reserved.
-->

<!--
MIL-STD-2525 tactical symbol icon image. During icon composition this image is multiplied by the desired frame color 
(e.g. black), then drawn on top of the frame and fill.
-->

<svg
   xmlns:dc="http://purl.org/dc/elements/1.1/"
   xmlns:cc="http://creativecommons.org/ns#"
   xmlns:rdf="http://www.w3.org/1999/02/22-rdf-syntax-ns#"
   xmlns:svg="http://www.w3.org/2000/svg"
   xmlns="http://www.w3.org/2000/svg"
   xmlns:sodipodi="http://sodipodi.sourceforge.net/DTD/sodipodi-0.dtd"
   xmlns:inkscape="http://www.inkscape.org/namespaces/inkscape"
   height="400px"
   viewBox="0 0 400 400"
   width="400px"
   id="svg2"
   version="1.1"
   inkscape:version="0.48.2 r9819"
   sodipodi:docname="sfgausaxc------.svg">
  <metadata
     id="metadata14">
    <rdf:RDF>
      <cc:Work
         rdf:about="">
        <dc:format>image/svg+xml</dc:format>
        <dc:type
           rdf:resource="http://purl.org/dc/dcmitype/StillImage" />
      </cc:Work>
    </rdf:RDF>
  </metadata>
  <defs
     id="defs12" />
  <sodipodi:namedview
     pagecolor="#ffffff"
     bordercolor="#666666"
     borderopacity="1"
     objecttolerance="10"
     gridtolerance="10"
     guidetolerance="10"
     inkscape:pageopacity="0"
     inkscape:pageshadow="2"
     inkscape:window-width="705"
     inkscape:window-height="480"
     id="namedview10"
     showgrid="false"
     inkscape:zoom="0.59"
     inkscape:cx="200"
     inkscape:cy="200"
     inkscape:window-x="343"
     inkscape:window-y="208"
     inkscape:window-maximized="0"
     inkscape:current-layer="svg2" />
  <polyline
     points="380,80 330,200 380,320"
     style="fill:none;stroke:rgb(255,255,255);stroke-width:10;stroke-miterlimit:4;stroke-dasharray:20,10;stroke-dashoffset:0"
     id="polyline8" />
  <g
     transform="matrix(0.8,0,0,0.8,40,40.000004)"
     id="g4"
     style="stroke:#000000;stroke-width:5;stroke-miterlimit:4;stroke-opacity:1;stroke-dasharray:10,5;stroke-dashoffset:0">
    <g
       style="font-size:90px;font-weight:bold;text-anchor:middle;fill:#ffffff;stroke:#000000;stroke-width:5;stroke-miterlimit:4;stroke-opacity:1;stroke-dasharray:10,5;stroke-dashoffset:0;font-family:Arial"
       id="text6">
      <path
         inkscape:connector-curvature="0"
         d="m 109.0332,232 0,-64.42383 27.37793,0 c 6.88473,7e-5 11.88716,0.57868 15.00733,1.73584 3.12006,1.15729 5.61762,3.21539 7.49267,6.17432 1.87494,2.95904 2.81244,6.34282 2.8125,10.15137 -6e-5,4.83402 -1.42095,8.82572 -4.26269,11.97509 -2.84185,3.14945 -7.08989,5.13431 -12.74414,5.95459 2.81245,1.64065 5.13423,3.44241 6.96533,5.40528 1.831,1.96291 4.29926,5.44923 7.40478,10.45898 L 166.95312,232 l -15.55664,0 -9.40429,-14.01855 c -3.33988,-5.00975 -5.62504,-8.16649 -6.85547,-9.47022 -1.2305,-1.30369 -2.53421,-2.19724 -3.91113,-2.68066 -1.37698,-0.48338 -3.5596,-0.72507 -6.54786,-0.7251 l -2.63671,0 0,26.89453 z m 13.00782,-37.17773 9.62402,0 c 6.2402,3e-5 10.13668,-0.26364 11.68945,-0.79102 1.55269,-0.52731 2.76851,-1.43551 3.64746,-2.72461 0.87886,-1.28902 1.31832,-2.90035 1.31836,-4.83398 -4e-5,-2.16792 -0.57866,-3.91841 -1.73584,-5.25147 -1.15727,-1.33295 -2.79057,-2.17524 -4.8999,-2.52685 -1.05473,-0.14643 -4.21878,-0.21968 -9.49219,-0.21973 l -10.15136,0 z"
         style="font-size:90px;font-weight:bold;text-anchor:middle;fill:#ffffff;stroke:#000000;stroke-width:5;stroke-miterlimit:4;stroke-opacity:1;stroke-dasharray:10,5;stroke-dashoffset:0;font-family:Arial"
         id="path2992" />
      <path
         inkscape:connector-curvature="0"
         d="m 174.07227,232 0,-64.42383 13.00781,0 0,25.35645 25.48828,0 0,-25.35645 13.00781,0 0,64.42383 -13.00781,0 0,-28.16895 -25.48828,0 0,28.16895 z"
         style="font-size:90px;font-weight:bold;text-anchor:middle;fill:#ffffff;stroke:#000000;stroke-width:5;stroke-miterlimit:4;stroke-opacity:1;stroke-dasharray:10,5;stroke-dashoffset:0;font-family:Arial"
         id="path2994" />
      <path
         inkscape:connector-curvature="0"
         d="m 238.97949,167.57617 13.00781,0 0,34.89258 c -1e-5,5.53713 0.16112,9.126 0.4834,10.7666 0.55662,2.63674 1.88231,4.75343 3.97705,6.3501 2.0947,1.59669 4.95847,2.39503 8.59131,2.39502 3.69137,1e-5 6.47457,-0.75439 8.34961,-2.26318 1.87496,-1.50878 3.00289,-3.36181 3.38379,-5.55909 0.38082,-2.19724 0.57125,-5.8447 0.57129,-10.94238 l 0,-35.63965 13.00781,0 0,33.83789 c -6e-5,7.7344 -0.35162,13.19826 -1.05469,16.3916 -0.70318,3.19337 -1.99956,5.88868 -3.88916,8.08594 -1.88969,2.19727 -4.41655,3.94776 -7.58056,5.25147 -3.16411,1.30371 -7.29496,1.95556 -12.39258,1.95556 -6.15237,0 -10.81789,-0.71045 -13.99658,-2.13134 -3.17873,-1.4209 -5.69093,-3.2666 -7.53662,-5.53711 -1.84572,-2.2705 -3.06153,-4.65087 -3.64746,-7.14112 -0.84962,-3.69139 -1.27442,-9.1406 -1.27442,-16.34765 z"
         style="font-size:90px;font-weight:bold;text-anchor:middle;fill:#ffffff;stroke:#000000;stroke-width:5;stroke-miterlimit:4;stroke-opacity:1;stroke-dasharray:10,5;stroke-dashoffset:0;font-family:Arial"
         id="path2996" />
    </g>
  </g>
</svg>
