<?xml version="1.0" encoding="UTF-8" standalone="no"?>
<!--
Copyright (C) 2012 United States Government as represented by the Administrator of the
National Aeronautics and Space Administration.
All Rights Reserved.
-->

<!--
MIL-STD-2525 tactical symbol icon image. During icon composition this image is multiplied by the desired frame color 
(e.g. black), then drawn on top of the frame and fill.
-->

<svg
   xmlns:dc="http://purl.org/dc/elements/1.1/"
   xmlns:cc="http://creativecommons.org/ns#"
   xmlns:rdf="http://www.w3.org/1999/02/22-rdf-syntax-ns#"
   xmlns:svg="http://www.w3.org/2000/svg"
   xmlns="http://www.w3.org/2000/svg"
   xmlns:sodipodi="http://sodipodi.sourceforge.net/DTD/sodipodi-0.dtd"
   xmlns:inkscape="http://www.inkscape.org/namespaces/inkscape"
   height="400px"
   viewBox="0 0 400 400"
   width="400px"
   id="svg2"
   version="1.1"
   inkscape:version="0.48.2 r9819"
   sodipodi:docname="sfgaucdo-------.svg">
  <metadata
     id="metadata14">
    <rdf:RDF>
      <cc:Work
         rdf:about="">
        <dc:format>image/svg+xml</dc:format>
        <dc:type
           rdf:resource="http://purl.org/dc/dcmitype/StillImage" />
      </cc:Work>
    </rdf:RDF>
  </metadata>
  <defs
     id="defs12" />
  <sodipodi:namedview
     pagecolor="#ffffff"
     bordercolor="#666666"
     borderopacity="1"
     objecttolerance="10"
     gridtolerance="10"
     guidetolerance="10"
     inkscape:pageopacity="0"
     inkscape:pageshadow="2"
     inkscape:window-width="640"
     inkscape:window-height="480"
     id="namedview10"
     showgrid="false"
     inkscape:zoom="0.59"
     inkscape:cx="200"
     inkscape:cy="200"
     inkscape:window-x="0"
     inkscape:window-y="0"
     inkscape:window-maximized="0"
     inkscape:current-layer="svg2" />
  <path
     d="M24 320 C100 180 300 180 376 320"
     style="fill:none;stroke:rgb(255,255,255);stroke-width:10;stroke-dasharray:10"
     id="path8" />
  <g
     transform="matrix(0.9,0,0,0.9,20,-20.000003)"
     id="g4"
     style="stroke:none">
    <g
       style="font-size:90px;font-weight:bold;text-anchor:middle;fill:#ffffff;stroke:none;font-family:Arial"
       id="text6">
      <path
         inkscape:connector-curvature="0"
         d="m 123.49121,232 0,-53.52539 -19.11621,0 0,-10.89844 51.19629,0 0,10.89844 -19.07227,0 0,53.52539 z"
         style="font-size:90px;font-weight:bold;text-anchor:middle;fill:#ffffff;stroke:none;font-family:Arial"
         id="path2992" />
      <path
         inkscape:connector-curvature="0"
         d="m 163.83301,232 0,-64.42383 19.46777,0 11.68945,43.94531 11.55762,-43.94531 19.51172,0 0,64.42383 -12.08496,0 0,-50.71289 L 201.18652,232 l -12.52441,0 -12.74414,-50.71289 0,50.71289 z"
         style="font-size:90px;font-weight:bold;text-anchor:middle;fill:#ffffff;stroke:none;font-family:Arial"
         id="path2994" />
      <path
         inkscape:connector-curvature="0"
         d="m 239.02344,167.57617 23.77441,0 c 5.36129,7e-5 9.4482,0.41022 12.26074,1.23047 3.77925,1.11334 7.01656,3.09088 9.71192,5.93262 2.69526,2.84185 4.74603,6.32085 6.15234,10.43701 1.40619,4.11625 2.10932,9.19193 2.10938,15.22705 -6e-5,5.30276 -0.65924,9.87307 -1.97754,13.71094 -1.61139,4.68751 -3.91119,8.48145 -6.89942,11.38183 -2.25591,2.19727 -5.30278,3.91114 -9.14062,5.14161 -2.87113,0.9082 -6.70902,1.3623 -11.51367,1.3623 l -24.47754,0 z m 13.00781,10.89844 0,42.6709 9.71191,0 c 3.63278,1e-5 6.25485,-0.20507 7.86621,-0.61524 2.10934,-0.52733 3.85983,-1.42088 5.25147,-2.68066 1.39156,-1.25975 2.52681,-3.3325 3.40576,-6.21826 0.87886,-2.88572 1.31831,-6.81882 1.31836,-11.79932 -5e-5,-4.98043 -0.4395,-8.80367 -1.31836,-11.46973 -0.87895,-2.66596 -2.10942,-4.74604 -3.6914,-6.24023 -1.58208,-1.49409 -3.58891,-2.50483 -6.02051,-3.03223 -1.81644,-0.4101 -5.37601,-0.61518 -10.67871,-0.61523 z"
         style="font-size:90px;font-weight:bold;text-anchor:middle;fill:#ffffff;stroke:none;font-family:Arial"
         id="path2996" />
    </g>
  </g>
</svg>
