<?xml version="1.0" encoding="UTF-8" standalone="no"?>
<!--
Copyright (C) 2012 United States Government as represented by the Administrator of the
National Aeronautics and Space Administration.
All Rights Reserved.
-->

<!--
MIL-STD-2525 tactical symbol icon image. During icon composition this image is multiplied by the desired frame color 
(e.g. black), then drawn on top of the frame and fill.
-->

<svg
   xmlns:dc="http://purl.org/dc/elements/1.1/"
   xmlns:cc="http://creativecommons.org/ns#"
   xmlns:rdf="http://www.w3.org/1999/02/22-rdf-syntax-ns#"
   xmlns:svg="http://www.w3.org/2000/svg"
   xmlns="http://www.w3.org/2000/svg"
   xmlns:sodipodi="http://sodipodi.sourceforge.net/DTD/sodipodi-0.dtd"
   xmlns:inkscape="http://www.inkscape.org/namespaces/inkscape"
   height="400px"
   viewBox="0 0 400 400"
   width="400px"
   id="svg2"
   version="1.1"
   inkscape:version="0.48.2 r9819"
   sodipodi:docname="sfgausas-------.svg">
  <metadata
     id="metadata10">
    <rdf:RDF>
      <cc:Work
         rdf:about="">
        <dc:format>image/svg+xml</dc:format>
        <dc:type
           rdf:resource="http://purl.org/dc/dcmitype/StillImage" />
      </cc:Work>
    </rdf:RDF>
  </metadata>
  <defs
     id="defs8" />
  <sodipodi:namedview
     pagecolor="#ffffff"
     bordercolor="#666666"
     borderopacity="1"
     objecttolerance="10"
     gridtolerance="10"
     guidetolerance="10"
     inkscape:pageopacity="0"
     inkscape:pageshadow="2"
     inkscape:window-width="640"
     inkscape:window-height="480"
     id="namedview6"
     showgrid="false"
     inkscape:zoom="0.59"
     inkscape:cx="200"
     inkscape:cy="200"
     inkscape:window-x="0"
     inkscape:window-y="0"
     inkscape:window-maximized="0"
     inkscape:current-layer="svg2" />
  <g
     style="font-size:90px;font-weight:bold;text-anchor:middle;fill:#ffffff;stroke:#000000;stroke-width:6;stroke-miterlimit:4;stroke-opacity:1;stroke-dasharray:12, 6;stroke-dashoffset:0;font-family:Arial"
     id="text4">
    <path
       inkscape:connector-curvature="0"
       d="m 146.43066,232 0,-64.42383 20.87403,0 c 7.91012,7e-5 13.06636,0.32233 15.46875,0.9668 3.69136,0.96686 6.78217,3.06891 9.27246,6.30615 2.49018,3.23736 3.73529,7.41948 3.73535,12.54639 -6e-5,3.95512 -0.71783,7.28031 -2.15332,9.97558 -1.4356,2.69535 -3.25933,4.81205 -5.47119,6.3501 -2.21196,1.53811 -4.46049,2.55618 -6.74561,3.0542 -3.1055,0.61526 -7.60257,0.92288 -13.49121,0.92285 l -8.48144,0 0,24.30176 z m 13.00782,-53.52539 0,18.28125 7.11914,0 c 5.12692,3e-5 8.55465,-0.33688 10.2832,-1.01074 1.72848,-0.67379 3.08346,-1.72848 4.06494,-3.16407 0.98141,-1.4355 1.47213,-3.10542 1.47217,-5.00976 -4e-5,-2.3437 -0.68852,-4.2773 -2.06543,-5.80078 -1.37699,-1.52339 -3.12015,-2.47554 -5.22949,-2.85645 -1.55277,-0.29291 -4.67288,-0.4394 -9.36035,-0.43945 z"
       style="font-size:90px;font-weight:bold;text-anchor:middle;fill:#ffffff;stroke:#000000;stroke-width:6;stroke-miterlimit:4;stroke-opacity:1;stroke-dasharray:12, 6;stroke-dashoffset:0;font-family:Arial"
       id="path2988" />
    <path
       inkscape:connector-curvature="0"
       d="m 203.25195,211.03809 12.65625,-1.23047 c 0.76171,4.24806 2.30711,7.36818 4.63623,9.36035 2.32908,1.9922 5.47117,2.98829 9.42627,2.98828 4.18942,1e-5 7.34616,-0.88622 9.47022,-2.65869 2.12398,-1.77245 3.18599,-3.8452 3.18603,-6.21826 -4e-5,-1.52342 -0.44682,-2.81981 -1.34033,-3.88916 -0.89359,-1.06932 -2.45365,-1.99949 -4.68017,-2.79053 -1.52348,-0.52732 -4.99515,-1.46482 -10.41504,-2.8125 -6.97268,-1.72849 -11.86525,-3.85251 -14.67774,-6.37207 -3.95508,-3.54488 -5.93262,-7.86617 -5.93262,-12.96387 0,-3.2812 0.93017,-6.35004 2.79053,-9.20654 1.86034,-2.85639 4.541,-5.03168 8.04199,-6.52588 3.50096,-1.49408 7.72703,-2.24115 12.67823,-2.24121 8.0859,6e-5 14.17232,1.77252 18.25927,5.31738 4.08687,3.54498 6.23286,8.27642 6.43799,14.19434 l -13.00781,0.57129 c -0.55668,-3.3105 -1.75053,-5.69087 -3.58154,-7.14112 -1.83109,-1.45014 -4.57767,-2.17523 -8.23975,-2.17529 -3.77932,6e-5 -6.7383,0.77642 -8.87695,2.3291 -1.37697,0.99615 -2.06545,2.32915 -2.06543,3.99903 -2e-5,1.52348 0.64451,2.82719 1.93359,3.91113 1.64061,1.37699 5.62498,2.81254 11.95313,4.30664 6.32808,1.49418 11.00825,3.03959 14.04052,4.63623 3.03218,1.59671 5.40523,3.77933 7.11914,6.54785 1.71382,2.76858 2.57075,6.18899 2.57081,10.26123 -6e-5,3.69142 -1.02545,7.14845 -3.07618,10.3711 -2.05083,3.22266 -4.95122,5.61767 -8.70117,7.18505 -3.75004,1.56739 -8.42289,2.35108 -14.01855,2.35108 -8.14456,0 -14.39943,-1.88233 -18.76465,-5.64697 -4.36524,-3.76464 -6.97266,-9.25048 -7.82227,-16.45752 z"
       style="font-size:90px;font-weight:bold;text-anchor:middle;fill:#ffffff;stroke:#000000;stroke-width:6;stroke-miterlimit:4;stroke-opacity:1;stroke-dasharray:12, 6;stroke-dashoffset:0;font-family:Arial"
       id="path2990" />
  </g>
</svg>
