<?xml version="1.0" encoding="UTF-8" standalone="no"?>
<!--
Copyright (C) 2012 United States Government as represented by the Administrator of the
National Aeronautics and Space Administration.
All Rights Reserved.
-->

<!--
MIL-STD-2525 tactical symbol icon image. During icon composition this image is multiplied by the desired frame color 
(e.g. black), then drawn on top of the frame and fill.
-->

<svg
   xmlns:dc="http://purl.org/dc/elements/1.1/"
   xmlns:cc="http://creativecommons.org/ns#"
   xmlns:rdf="http://www.w3.org/1999/02/22-rdf-syntax-ns#"
   xmlns:svg="http://www.w3.org/2000/svg"
   xmlns="http://www.w3.org/2000/svg"
   xmlns:sodipodi="http://sodipodi.sourceforge.net/DTD/sodipodi-0.dtd"
   xmlns:inkscape="http://www.inkscape.org/namespaces/inkscape"
   height="400px"
   viewBox="0 0 400 400"
   width="400px"
   id="svg2"
   version="1.1"
   inkscape:version="0.48.2 r9819"
   sodipodi:docname="sfgausar-------.svg">
  <metadata
     id="metadata10">
    <rdf:RDF>
      <cc:Work
         rdf:about="">
        <dc:format>image/svg+xml</dc:format>
        <dc:type
           rdf:resource="http://purl.org/dc/dcmitype/StillImage" />
      </cc:Work>
    </rdf:RDF>
  </metadata>
  <defs
     id="defs8" />
  <sodipodi:namedview
     pagecolor="#ffffff"
     bordercolor="#666666"
     borderopacity="1"
     objecttolerance="10"
     gridtolerance="10"
     guidetolerance="10"
     inkscape:pageopacity="0"
     inkscape:pageshadow="2"
     inkscape:window-width="640"
     inkscape:window-height="480"
     id="namedview6"
     showgrid="false"
     inkscape:zoom="0.59"
     inkscape:cx="200"
     inkscape:cy="200"
     inkscape:window-x="0"
     inkscape:window-y="0"
     inkscape:window-maximized="0"
     inkscape:current-layer="svg2" />
  <g
     style="font-size:90px;font-weight:bold;text-anchor:middle;fill:#ffffff;stroke:#000000;stroke-width:6;stroke-miterlimit:4;stroke-opacity:1;stroke-dasharray:12, 6;stroke-dashoffset:0;font-family:Arial"
     id="text4">
    <path
       inkscape:connector-curvature="0"
       d="m 116.50391,232 0,-64.42383 27.37793,0 c 6.88472,7e-5 11.88716,0.57868 15.00732,1.73584 3.12007,1.15729 5.61762,3.21539 7.49268,6.17432 1.87494,2.95904 2.81244,6.34282 2.8125,10.15137 -6e-5,4.83402 -1.42096,8.82572 -4.2627,11.97509 -2.84185,3.14945 -7.08989,5.13431 -12.74414,5.95459 2.81245,1.64065 5.13423,3.44241 6.96533,5.40528 1.83101,1.96291 4.29926,5.44923 7.40479,10.45898 L 174.42383,232 l -15.55664,0 -9.4043,-14.01855 c -3.33988,-5.00975 -5.62503,-8.16649 -6.85547,-9.47022 -1.2305,-1.30369 -2.53421,-2.19724 -3.91113,-2.68066 -1.37698,-0.48338 -3.5596,-0.72507 -6.54785,-0.7251 l -2.63672,0 0,26.89453 z m 13.00781,-37.17773 9.62402,0 c 6.2402,3e-5 10.13668,-0.26364 11.68946,-0.79102 1.55269,-0.52731 2.76851,-1.43551 3.64746,-2.72461 0.87886,-1.28902 1.31831,-2.90035 1.31836,-4.83398 -5e-5,-2.16792 -0.57866,-3.91841 -1.73584,-5.25147 -1.15727,-1.33295 -2.79057,-2.17524 -4.89991,-2.52685 -1.05472,-0.14643 -4.21878,-0.21968 -9.49218,-0.21973 l -10.15137,0 z"
       style="font-size:90px;font-weight:bold;text-anchor:middle;fill:#ffffff;stroke:#000000;stroke-width:6;stroke-miterlimit:4;stroke-opacity:1;stroke-dasharray:12, 6;stroke-dashoffset:0;font-family:Arial"
       id="path2988" />
    <path
       inkscape:connector-curvature="0"
       d="m 181.49902,232 0,-64.42383 47.76856,0 0,10.89844 -34.76074,0 0,14.28223 32.34375,0 0,10.85449 -32.34375,0 0,17.53418 35.99121,0 0,10.85449 z"
       style="font-size:90px;font-weight:bold;text-anchor:middle;fill:#ffffff;stroke:#000000;stroke-width:6;stroke-miterlimit:4;stroke-opacity:1;stroke-dasharray:12, 6;stroke-dashoffset:0;font-family:Arial"
       id="path2990" />
    <path
       inkscape:connector-curvature="0"
       d="m 241.96777,232 0,-63.89648 13.00782,0 0,53.04199 32.34375,0 0,10.85449 z"
       style="font-size:90px;font-weight:bold;text-anchor:middle;fill:#ffffff;stroke:#000000;stroke-width:6;stroke-miterlimit:4;stroke-opacity:1;stroke-dasharray:12, 6;stroke-dashoffset:0;font-family:Arial"
       id="path2992" />
  </g>
</svg>
