<?xml version="1.0"?>
<!--
Copyright 2006-2009, 2017, 2020 United States Government, as represented by the
Administrator of the National Aeronautics and Space Administration.
All rights reserved.

The NASA World Wind Java (WWJ) platform is licensed under the Apache License,
Version 2.0 (the "License"); you may not use this file except in compliance
with the License. You may obtain a copy of the License at
http://www.apache.org/licenses/LICENSE-2.0

Unless required by applicable law or agreed to in writing, software distributed
under the License is distributed on an "AS IS" BASIS, WITHOUT WARRANTIES OR
CONDITIONS OF ANY KIND, either express or implied. See the License for the
specific language governing permissions and limitations under the License.

NASA World Wind Java (WWJ) also contains the following 3rd party Open Source
software:

    Jackson Parser – Licensed under Apache 2.0
    GDAL – Licensed under MIT
    JOGL – Licensed under  Berkeley Software Distribution (BSD)
    Gluegen – Licensed under Berkeley Software Distribution (BSD)

A complete listing of 3rd Party software notices and licenses included in
NASA World Wind Java (WWJ)  can be found in the WorldWindJava-v2.2 3rd-party
notices and licenses PDF found in code directory.
-->
<!--
MIL-STD-2525 tactical symbol icon image. During icon composition this image is multiplied by the desired frame color 
(e.g. black), then drawn on top of the frame and fill.
-->
<!DOCTYPE svg PUBLIC "-//W3C//DTD SVG 1.1//EN" "http://www.w3.org/Graphics/SVG/1.1/DTD/svg11.dtd" >
<svg xmlns:xlink="http://www.w3.org/1999/xlink" height="400px" viewBox="0 0 400 400" width="400px"><g transform="translate(60 105) scale(0.7 0.7)"><ellipse cx="200" cy="200" rx="80" ry="80" style="fill:none;stroke:rgb(255,255,255);stroke-width:10;stroke-dasharray:10"/><line style="stroke:rgb(255,255,255);stroke-width:10;stroke-dasharray:10" x1="136" x2="264" y1="156" y2="244"/><line style="stroke:rgb(255,255,255);stroke-width:10;stroke-dasharray:10" x1="136" x2="264" y1="244" y2="156"/><line style="stroke:rgb(255,255,255);stroke-width:10;stroke-dasharray:10" x1="200" x2="200" y1="120" y2="280"/></g><g transform="translate(120 60) scale(0.4 0.4)"><ellipse cx="200" cy="104" rx="16" ry="16" style="fill:none;stroke:rgb(255,255,255);stroke-width:10;stroke-dasharray:10"/><line style="stroke:rgb(255,255,255);stroke-width:10;stroke-dasharray:10" x1="200" x2="200" y1="120" y2="280"/><line style="stroke:rgb(255,255,255);stroke-width:10;stroke-dasharray:10" x1="120" x2="280" y1="130" y2="130"/><path d="M100 200 C150 300 250 300 300 200 C250 315 150 315 100 200" style="fill:rgb(255,255,255);stroke:rgb(255,255,255);stroke-width:10;stroke-dasharray:10"/><path d="M100 200 C108 245 113 245 113 245 L128 225 C115 220 110 210 103 203" style="fill:rgb(255,255,255);stroke:rgb(255,255,255);stroke-width:10;stroke-dasharray:10"/><path d="M300 200 C292 245 287 245 287 245 L272 225 C285 220 290 210 297 203" style="fill:rgb(255,255,255);stroke:rgb(255,255,255);stroke-width:10;stroke-dasharray:10"/></g><polyline xmlns="http://www.w3.org/2000/svg" points="20,80 70,200 20,320" style="fill:none;stroke:rgb(255,255,255);stroke-width:10;stroke-miterlimit:4;stroke-dasharray:20,10;stroke-dashoffset:0"/><polyline xmlns="http://www.w3.org/2000/svg" points="380,80 330,200 380,320" style="fill:none;stroke:rgb(255,255,255);stroke-width:10;stroke-miterlimit:4;stroke-dasharray:20,10;stroke-dashoffset:0"/></svg>
