<?xml version="1.0" encoding="UTF-8" standalone="no"?>
<!--
Copyright (C) 2012 United States Government as represented by the Administrator of the
National Aeronautics and Space Administration.
All Rights Reserved.
-->

<!--
MIL-STD-2525 tactical symbol icon image. During icon composition this image is multiplied by the desired frame color 
(e.g. black), then drawn on top of the frame and fill.
-->

<svg
   xmlns:dc="http://purl.org/dc/elements/1.1/"
   xmlns:cc="http://creativecommons.org/ns#"
   xmlns:rdf="http://www.w3.org/1999/02/22-rdf-syntax-ns#"
   xmlns:svg="http://www.w3.org/2000/svg"
   xmlns="http://www.w3.org/2000/svg"
   xmlns:sodipodi="http://sodipodi.sourceforge.net/DTD/sodipodi-0.dtd"
   xmlns:inkscape="http://www.inkscape.org/namespaces/inkscape"
   height="400px"
   viewBox="0 0 400 400"
   width="400px"
   id="svg2"
   version="1.1"
   inkscape:version="0.48.2 r9819"
   sodipodi:docname="sfgaucec-------.svg">
  <metadata
     id="metadata22">
    <rdf:RDF>
      <cc:Work
         rdf:about="">
        <dc:format>image/svg+xml</dc:format>
        <dc:type
           rdf:resource="http://purl.org/dc/dcmitype/StillImage" />
      </cc:Work>
    </rdf:RDF>
  </metadata>
  <defs
     id="defs20" />
  <sodipodi:namedview
     pagecolor="#ffffff"
     bordercolor="#666666"
     borderopacity="1"
     objecttolerance="10"
     gridtolerance="10"
     guidetolerance="10"
     inkscape:pageopacity="0"
     inkscape:pageshadow="2"
     inkscape:window-width="640"
     inkscape:window-height="480"
     id="namedview18"
     showgrid="false"
     inkscape:zoom="0.59"
     inkscape:cx="200"
     inkscape:cy="200"
     inkscape:window-x="0"
     inkscape:window-y="0"
     inkscape:window-maximized="0"
     inkscape:current-layer="svg2" />
  <g
     transform="translate(40 70) scale(0.8 0.8)"
     id="g8">
    <line
       style="stroke:rgb(255,255,255);stroke-width:10;stroke-dasharray:10"
       x1="200"
       x2="200"
       y1="155"
       y2="225"
       id="line10" />
    <line
       style="stroke:rgb(255,255,255);stroke-width:10;stroke-dasharray:10"
       x1="110"
       x2="110"
       y1="155"
       y2="255"
       id="line12" />
    <line
       style="stroke:rgb(255,255,255);stroke-width:10;stroke-dasharray:10"
       x1="290"
       x2="290"
       y1="155"
       y2="255"
       id="line14" />
    <line
       style="stroke:rgb(255,255,255);stroke-width:10;stroke-dasharray:10"
       x1="105"
       x2="295"
       y1="155"
       y2="155"
       id="line16" />
  </g>
  <g
     transform="matrix(0.8,0,0,0.8,38.000004,-6.000002)"
     id="g4"
     style="stroke:none">
    <g
       style="font-size:90px;font-weight:bold;text-anchor:middle;fill:#ffffff;stroke:none;font-family:Arial"
       id="text6">
      <path
         inkscape:connector-curvature="0"
         d="m 155.21973,208.31348 12.6123,3.99902 c -1.93365,7.03126 -5.14898,12.25343 -9.64599,15.6665 -4.49712,3.41309 -10.20268,5.11963 -17.1167,5.11963 -8.55472,0 -15.58596,-2.92236 -21.09375,-8.76709 -5.50782,-5.84471 -8.26173,-13.83542 -8.26172,-23.97217 -1e-5,-10.72261 2.76854,-19.05024 8.30566,-24.98291 5.53709,-5.93255 12.81736,-8.89886 21.84082,-8.89892 7.88082,6e-5 14.28218,2.32916 19.2041,6.9873 2.92963,2.75397 5.1269,6.70904 6.5918,11.86524 l -12.87598,3.07617 c -0.76176,-3.3398 -2.35112,-5.97651 -4.76806,-7.91016 -2.41704,-1.93354 -5.35404,-2.90033 -8.81104,-2.90039 -4.77542,6e-5 -8.64993,1.71392 -11.62353,5.1416 -2.97366,3.42778 -4.46047,8.97954 -4.46045,16.65528 -2e-5,8.14455 1.46482,13.94533 4.39453,17.40234 2.92966,3.45704 6.73825,5.18556 11.42578,5.18555 3.45699,1e-5 6.43062,-1.09862 8.9209,-3.2959 2.49019,-2.19725 4.2773,-5.65428 5.36133,-10.37109 z"
         style="font-size:90px;font-weight:bold;text-anchor:middle;fill:#ffffff;stroke:none;font-family:Arial"
         id="path3000" />
      <path
         inkscape:connector-curvature="0"
         d="m 179.08203,167.57617 25.75195,0 c 5.09762,7e-5 8.89889,0.21247 11.40381,0.63721 2.50484,0.42487 4.74605,1.3111 6.72364,2.65869 1.97748,1.34772 3.62543,3.14215 4.94384,5.3833 1.31831,2.24127 1.97749,4.75347 1.97754,7.53662 -5e-5,3.01763 -0.81304,5.78618 -2.43896,8.30567 -1.62603,2.51956 -3.83062,4.40921 -6.61377,5.66894 3.92573,1.14261 6.9433,3.09085 9.05273,5.84473 2.10932,2.75393 3.164,5.99123 3.16406,9.71191 -6e-5,2.92971 -0.68121,5.77882 -2.04345,8.54737 -1.36236,2.76856 -3.22271,4.98047 -5.58106,6.63574 -2.35845,1.65527 -5.26616,2.67334 -8.72314,3.0542 -2.16801,0.23437 -7.3975,0.38086 -15.68848,0.43945 l -21.92871,0 z m 13.00781,10.72266 0,14.89746 8.52539,0 c 5.06833,4e-5 8.21774,-0.0732 9.44825,-0.21973 2.22652,-0.26363 3.97701,-1.03267 5.25146,-2.30713 1.27437,-1.27437 1.91158,-2.95161 1.91162,-5.03173 -4e-5,-1.99214 -0.54936,-3.61079 -1.64795,-4.85596 -1.09867,-1.24507 -2.73197,-1.99946 -4.8999,-2.26319 -1.2891,-0.14643 -4.99515,-0.21967 -11.11816,-0.21972 z m 0,25.62012 0,17.22656 12.04102,0 c 4.68746,1e-5 7.66109,-0.13183 8.9209,-0.39551 1.93355,-0.35155 3.50825,-1.20848 4.72412,-2.5708 1.21577,-1.36229 1.82368,-3.18602 1.82373,-5.47119 -5e-5,-1.93357 -0.4688,-3.5742 -1.40625,-4.92188 -0.93755,-1.34763 -2.29252,-2.32907 -4.06494,-2.94433 -1.7725,-0.61521 -5.61771,-0.92283 -11.53565,-0.92285 z"
         style="font-size:90px;font-weight:bold;text-anchor:middle;fill:#ffffff;stroke:none;font-family:Arial"
         id="path3002" />
      <path
         inkscape:connector-curvature="0"
         d="m 258.5791,232 0,-53.52539 -19.11621,0 0,-10.89844 51.19629,0 0,10.89844 -19.07227,0 0,53.52539 z"
         style="font-size:90px;font-weight:bold;text-anchor:middle;fill:#ffffff;stroke:none;font-family:Arial"
         id="path3004" />
    </g>
  </g>
</svg>
