<?xml version="1.0" encoding="UTF-8" standalone="no"?>
<!--
Copyright (C) 2012 United States Government as represented by the Administrator of the
National Aeronautics and Space Administration.
All Rights Reserved.
-->

<!--
MIL-STD-2525 tactical symbol icon image. During icon composition this image is multiplied by the desired frame color 
(e.g. black), then drawn on top of the frame and fill.
-->

<svg
   xmlns:dc="http://purl.org/dc/elements/1.1/"
   xmlns:cc="http://creativecommons.org/ns#"
   xmlns:rdf="http://www.w3.org/1999/02/22-rdf-syntax-ns#"
   xmlns:svg="http://www.w3.org/2000/svg"
   xmlns="http://www.w3.org/2000/svg"
   xmlns:sodipodi="http://sodipodi.sourceforge.net/DTD/sodipodi-0.dtd"
   xmlns:inkscape="http://www.inkscape.org/namespaces/inkscape"
   height="400px"
   viewBox="0 0 400 400"
   width="400px"
   id="svg2"
   version="1.1"
   inkscape:version="0.48.2 r9819"
   sodipodi:docname="sfsac----------.svg">
  <metadata
     id="metadata20">
    <rdf:RDF>
      <cc:Work
         rdf:about="">
        <dc:format>image/svg+xml</dc:format>
        <dc:type
           rdf:resource="http://purl.org/dc/dcmitype/StillImage" />
      </cc:Work>
    </rdf:RDF>
  </metadata>
  <defs
     id="defs18" />
  <sodipodi:namedview
     pagecolor="#ffffff"
     bordercolor="#666666"
     borderopacity="1"
     objecttolerance="10"
     gridtolerance="10"
     guidetolerance="10"
     inkscape:pageopacity="0"
     inkscape:pageshadow="2"
     inkscape:window-width="705"
     inkscape:window-height="480"
     id="namedview16"
     showgrid="false"
     inkscape:zoom="0.60776264"
     inkscape:cx="219.02584"
     inkscape:cy="205.8369"
     inkscape:window-x="212"
     inkscape:window-y="143"
     inkscape:window-maximized="0"
     inkscape:current-layer="g12" />
  <polyline
     points="285.387,252.533 256.054,236.089 243.609,236.089 197.831,194.311 177.831,170.311 169.387,146.756    168.498,113.422 182.72,146.756 202.72,179.2 226.72,206.756 259.165,230.756    287.165,247.2"
     style="fill:rgb(255,255,255);stroke:none;stroke-width:1"
     transform="matrix(1 0 0 1 0 0)"
     id="polyline4" />
  <polyline
     points="293.387,250.533 281.831,264.311 266.276,266.089 255.609,262.533 246.72,251.867 245.831,242.089    250.276,229.644 256.054,234.978 254.276,244.311 255.165,250.978    260.498,257.2 267.165,260.311 278.276,258.533 285.831,247.867"
     style="fill:rgb(255,255,255);stroke:none;stroke-width:1"
     transform="matrix(1 0 0 1 0 0)"
     id="polyline6" />
  <polyline
     points="106.276,251.867 116.054,264.311 133.387,266.533 144.498,262.089 153.387,252.311 153.387,240.311    146.72,229.2 140.942,234.089 145.831,243.422 147.165,249.2 141.387,254.978    127.165,259.422 117.387,254.533 112.942,250.533"
     style="fill:rgb(255,255,255);stroke:none;stroke-width:1"
     transform="matrix(1 0 0 1 0 0)"
     id="polyline8" />
  <polyline
     points="105.831,250.311 169.831,207.644 206.72,161.867 230.276,110.311 229.387,151.2 211.609,181.422    195.609,200.978 156.498,236.978 145.831,233.867 115.609,251.644"
     style="fill:rgb(255,255,255);stroke:none;stroke-width:1"
     transform="matrix(1 0 0 1 0 0)"
     id="polyline10" />
  <g
     transform="scale(5.8 5.8) translate(17.8 17)"
     id="g12">
    <path
       d="M28.584 29.23 C27.912 29.23 27.527 29.207 27.432 29.158 C26.184 28.92 25.272 28.248     24.696 27.142 C24.216 26.183 24.024 25.199 24.12 24.191 C22.391 22.992 19.895     20.759 16.634 17.496 C13.657 20.328 11.136 22.607 9.073 24.336 C9.504 27.6     7.969 29.23 4.465 29.23 C1.871 29.23 0.383 28.126 0 25.919 C6.527 22.415     11.375 18.792 14.543 15.046 C11.902 11.398 10.584 7.919 10.584 4.607 C10.584     4.271 10.68 2.951 10.871 0.646 C11.254 0.646 11.566 0.839 11.809 1.222 C12.719     5.16 14.303 8.808 16.561 12.167 C18.863 9.096 20.662 5.039 21.959 0 C22.486     1.633 22.752 3.072 22.752 4.318 C22.752 8.302 21.383 11.832 18.648 14.902     C21.623 18.695 26.47 22.369 33.191 25.92 C32.711 28.127 31.176 29.23 28.584     29.23 zM6.984 22.967 L6.912 23.039 C7.486 23.473 7.775 24.049 7.775 24.768     C7.822 27.024 6.695 28.151 4.392 28.151 C3.142 28.151 2.134 27.505 1.367 26.208     C1.271 26.257 1.176 26.306 1.08 26.353 L1.08 26.568 C1.703 27.865 2.902     28.513 4.68 28.513 C5.399 28.513 6.18 28.226 7.02 27.65 C7.86 27.074 8.28     26.353 8.28 25.488 C8.279 24.191 7.848 23.352 6.984 22.967 zM6.119 23.471 L2.16     25.631 L2.16 25.703 C3.07 25.32 4.391 24.576 6.119 23.471 zM6.912 24.84     L6.695 24.264 L2.591 26.567 C3.071 27.145 3.743 27.432 4.607 27.432 C4.847 27.432     5.316 27.217 6.011 26.784 C6.706 26.352 7.056 25.944 7.056 25.559 C7.057     25.465 7.008 25.225 6.912 24.84 zM15.049 15.84 C11.881 19.248 9.504 21.432     7.92 22.391 C8.111 22.584 8.422 22.897 8.856 23.329 C10.44 22.177 12.84 19.993     16.057 16.776 C15.768 16.439 15.432 16.129 15.049 15.84 zM11.447 3.455     L11.304 4.535 C11.304 10.633 15.743 16.873 24.622 23.256 C24.767 23.065 25.007     22.776 25.343 22.391 C18.574 17.688 13.943 11.377 11.447 3.455 zM21.816 3.814     C20.808 7.031 19.248 10.103 17.136 13.031 C17.566 13.607 17.902 14.015     18.144 14.256 C20.64 10.943 21.888 7.729 21.888 4.608 C21.889 4.512 21.863 4.248     21.816 3.814 zM26.064 22.895 C25.822 23.231 25.57 23.592 25.306 23.975     C25.042 24.36 24.911 24.745 24.911 25.127 C24.911 26.041 25.306 26.832 26.099     27.504 C26.89 28.176 27.695 28.512 28.511 28.512 C29.085 28.512 29.782 28.344     30.599 28.008 C31.703 27.576 32.255 27.049 32.255 26.424 C32.255 26.328     32.134 26.279 31.896 26.279 C31.751 26.855 31.199 27.408 30.24 27.935 C30.047     28.08 29.566 28.15 28.801 28.15 C26.543 28.15 25.416 27.119 25.416 25.054     C25.416 24.335 25.68 23.663 26.207 23.038 zM26.424 24.336 C26.233 24.672 26.137     24.936 26.137 25.127 C26.137 25.561 26.412 26.053 26.963 26.604 C27.514     27.157 28.055 27.432 28.584 27.432 C29.447 27.432 30.119 27.145 30.6 26.567     zM31.104 25.775 L27.073 23.47 L27.073 23.542 L30.96 25.847 L31.032 25.847 z"
       style="fill:rgb(0, 0, 0);stroke:#000000;stroke-opacity:1;stroke-width:0.86206897;stroke-miterlimit:4;stroke-dasharray:1.72413793,0.86206897;stroke-dashoffset:0"
       id="path14" />
  </g>
</svg>
