<?xml version="1.0" encoding="UTF-8" standalone="no"?>
<!--
Copyright (C) 2012 United States Government as represented by the Administrator of the
National Aeronautics and Space Administration.
All Rights Reserved.
-->

<!--
MIL-STD-2525 tactical symbol icon image. During icon composition this image is multiplied by the desired frame color 
(e.g. black), then drawn on top of the frame and fill.
-->

<svg
   xmlns:dc="http://purl.org/dc/elements/1.1/"
   xmlns:cc="http://creativecommons.org/ns#"
   xmlns:rdf="http://www.w3.org/1999/02/22-rdf-syntax-ns#"
   xmlns:svg="http://www.w3.org/2000/svg"
   xmlns="http://www.w3.org/2000/svg"
   xmlns:sodipodi="http://sodipodi.sourceforge.net/DTD/sodipodi-0.dtd"
   xmlns:inkscape="http://www.inkscape.org/namespaces/inkscape"
   height="400px"
   viewBox="0 0 400 400"
   width="400px"
   id="svg2"
   version="1.1"
   inkscape:version="0.48.2 r9819"
   sodipodi:docname="sfuaw----------.svg">
  <metadata
     id="metadata10">
    <rdf:RDF>
      <cc:Work
         rdf:about="">
        <dc:format>image/svg+xml</dc:format>
        <dc:type
           rdf:resource="http://purl.org/dc/dcmitype/StillImage" />
      </cc:Work>
    </rdf:RDF>
  </metadata>
  <defs
     id="defs8" />
  <sodipodi:namedview
     pagecolor="#ffffff"
     bordercolor="#666666"
     borderopacity="1"
     objecttolerance="10"
     gridtolerance="10"
     guidetolerance="10"
     inkscape:pageopacity="0"
     inkscape:pageshadow="2"
     inkscape:window-width="640"
     inkscape:window-height="480"
     id="namedview6"
     showgrid="false"
     inkscape:zoom="0.59"
     inkscape:cx="200"
     inkscape:cy="200"
     inkscape:window-x="0"
     inkscape:window-y="0"
     inkscape:window-maximized="0"
     inkscape:current-layer="svg2" />
  <g
     style="font-size:90px;font-weight:bold;text-anchor:middle;fill:#ffffff;stroke:#000000;stroke-width:6;stroke-miterlimit:4;stroke-opacity:1;stroke-dasharray:12, 6;stroke-dashoffset:0;font-family:Arial"
     id="text4">
    <path
       inkscape:connector-curvature="0"
       d="m 110.65918,232 -15.38086,-64.42383 13.31543,0 9.71191,44.25293 11.77735,-44.25293 15.46875,0 11.29394,45 9.8877,-45 13.0957,0 L 164.18457,232 150.38574,232 137.55371,183.83594 124.76563,232 z"
       style="font-size:90px;font-weight:bold;text-anchor:middle;fill:#ffffff;stroke:#000000;stroke-width:6;stroke-miterlimit:4;stroke-opacity:1;stroke-dasharray:12, 6;stroke-dashoffset:0;font-family:Arial"
       id="path2988" />
    <path
       inkscape:connector-curvature="0"
       d="m 186.4209,232 0,-64.42383 20.87402,0 c 7.91012,7e-5 13.06637,0.32233 15.46875,0.9668 3.69136,0.96686 6.78218,3.06891 9.27246,6.30615 2.49018,3.23736 3.7353,7.41948 3.73535,12.54639 -5e-5,3.95512 -0.71782,7.28031 -2.15332,9.97558 -1.4356,2.69535 -3.25932,4.81205 -5.47119,6.3501 -2.21196,1.53811 -4.46049,2.55618 -6.7456,3.0542 -3.10551,0.61526 -7.60258,0.92288 -13.49121,0.92285 l -8.48145,0 0,24.30176 z m 13.00781,-53.52539 0,18.28125 7.11914,0 c 5.12692,3e-5 8.55465,-0.33688 10.2832,-1.01074 1.72848,-0.67379 3.08346,-1.72848 4.06495,-3.16407 0.9814,-1.4355 1.47212,-3.10542 1.47216,-5.00976 -4e-5,-2.3437 -0.68851,-4.2773 -2.06543,-5.80078 -1.37699,-1.52339 -3.12015,-2.47554 -5.22949,-2.85645 -1.55277,-0.29291 -4.67288,-0.4394 -9.36035,-0.43945 z"
       style="font-size:90px;font-weight:bold;text-anchor:middle;fill:#ffffff;stroke:#000000;stroke-width:6;stroke-miterlimit:4;stroke-opacity:1;stroke-dasharray:12, 6;stroke-dashoffset:0;font-family:Arial"
       id="path2990" />
    <path
       inkscape:connector-curvature="0"
       d="m 246.66992,232 0,-64.42383 12.65625,0 26.36719,43.02246 0,-43.02246 12.08496,0 0,64.42383 -13.05176,0 -25.97168,-42.01172 0,42.01172 z"
       style="font-size:90px;font-weight:bold;text-anchor:middle;fill:#ffffff;stroke:#000000;stroke-width:6;stroke-miterlimit:4;stroke-opacity:1;stroke-dasharray:12, 6;stroke-dashoffset:0;font-family:Arial"
       id="path2992" />
  </g>
</svg>
