<?xml version="1.0" encoding="UTF-8" standalone="no"?>
<!--
Copyright (C) 2012 United States Government as represented by the Administrator of the
National Aeronautics and Space Administration.
All Rights Reserved.
-->

<!--
MIL-STD-2525 tactical symbol icon image. During icon composition this image is multiplied by the desired frame color 
(e.g. black), then drawn on top of the frame and fill.
-->

<svg
   xmlns:dc="http://purl.org/dc/elements/1.1/"
   xmlns:cc="http://creativecommons.org/ns#"
   xmlns:rdf="http://www.w3.org/1999/02/22-rdf-syntax-ns#"
   xmlns:svg="http://www.w3.org/2000/svg"
   xmlns="http://www.w3.org/2000/svg"
   xmlns:sodipodi="http://sodipodi.sourceforge.net/DTD/sodipodi-0.dtd"
   xmlns:inkscape="http://www.inkscape.org/namespaces/inkscape"
   height="400px"
   viewBox="0 0 400 400"
   width="400px"
   id="svg2"
   version="1.1"
   inkscape:version="0.48.2 r9819"
   sodipodi:docname="sfuasx---------.svg">
  <metadata
     id="metadata10">
    <rdf:RDF>
      <cc:Work
         rdf:about="">
        <dc:format>image/svg+xml</dc:format>
        <dc:type
           rdf:resource="http://purl.org/dc/dcmitype/StillImage" />
      </cc:Work>
    </rdf:RDF>
  </metadata>
  <defs
     id="defs8" />
  <sodipodi:namedview
     pagecolor="#ffffff"
     bordercolor="#666666"
     borderopacity="1"
     objecttolerance="10"
     gridtolerance="10"
     guidetolerance="10"
     inkscape:pageopacity="0"
     inkscape:pageshadow="2"
     inkscape:window-width="705"
     inkscape:window-height="480"
     id="namedview6"
     showgrid="false"
     inkscape:zoom="0.59"
     inkscape:cx="200"
     inkscape:cy="200"
     inkscape:window-x="0"
     inkscape:window-y="0"
     inkscape:window-maximized="0"
     inkscape:current-layer="svg2" />
  <g
     style="font-size:90px;font-weight:bold;text-anchor:middle;fill:#ffffff;stroke:#000000;stroke-width:4;stroke-miterlimit:4;stroke-opacity:1;stroke-dasharray:8,4;stroke-dashoffset:0;font-family:Arial"
     id="text4">
    <path
       inkscape:connector-curvature="0"
       d="m 106.66016,232 0,-64.42383 12.65625,0 26.36718,43.02246 0,-43.02246 12.08496,0 0,64.42383 -13.05175,0 -25.97168,-42.01172 0,42.01172 z"
       style="font-size:90px;font-weight:bold;text-anchor:middle;fill:#ffffff;stroke:#000000;stroke-width:4;stroke-miterlimit:4;stroke-opacity:1;stroke-dasharray:8,4;stroke-dashoffset:0;font-family:Arial"
       id="path2988" />
    <path
       inkscape:connector-curvature="0"
       d="m 168.93066,200.18359 c 0,-6.56246 0.98144,-12.07026 2.94434,-16.52343 1.46484,-3.2812 3.46435,-6.22554 5.99854,-8.83301 2.53416,-2.60736 5.31004,-4.54096 8.32763,-5.80078 4.01365,-1.69916 8.64255,-2.54877 13.88672,-2.54883 9.49214,6e-5 17.08735,2.9444 22.78565,8.83301 5.69817,5.88872 8.54729,14.07719 8.54736,24.56543 -7e-5,10.40041 -2.82721,18.53761 -8.48145,24.41162 -5.65435,5.87402 -13.21293,8.81103 -22.67578,8.81103 -9.5801,0 -17.19728,-2.92236 -22.85156,-8.76709 -5.6543,-5.84471 -8.48145,-13.89402 -8.48145,-24.14795 z m 13.40332,-0.43945 c -1e-5,7.29495 1.68456,12.82473 5.05372,16.58936 3.36911,3.76466 7.64645,5.64698 12.83203,5.64697 5.1855,1e-5 9.44087,-1.86767 12.76611,-5.60303 3.32514,-3.73533 4.98774,-9.33835 4.98779,-16.80908 -5e-5,-7.38277 -1.6187,-12.89058 -4.85595,-16.52344 -3.23735,-3.63276 -7.53667,-5.44916 -12.89795,-5.44922 -5.36136,6e-5 -9.68265,1.83843 -12.96387,5.51514 -3.28127,3.6768 -4.92189,9.22123 -4.92188,16.6333 z"
       style="font-size:90px;font-weight:bold;text-anchor:middle;fill:#ffffff;stroke:#000000;stroke-width:4;stroke-miterlimit:4;stroke-opacity:1;stroke-dasharray:8,4;stroke-dashoffset:0;font-family:Arial"
       id="path2990" />
    <path
       inkscape:connector-curvature="0"
       d="m 241.66016,232 0,-64.42383 12.65625,0 26.36718,43.02246 0,-43.02246 12.08496,0 0,64.42383 -13.05175,0 -25.97168,-42.01172 0,42.01172 z"
       style="font-size:90px;font-weight:bold;text-anchor:middle;fill:#ffffff;stroke:#000000;stroke-width:4;stroke-miterlimit:4;stroke-opacity:1;stroke-dasharray:8,4;stroke-dashoffset:0;font-family:Arial"
       id="path2992" />
  </g>
</svg>
