<?xml version="1.0" encoding="UTF-8" standalone="no"?>
<!--
Copyright (C) 2012 United States Government as represented by the Administrator of the
National Aeronautics and Space Administration.
All Rights Reserved.
-->

<!--
MIL-STD-2525 tactical symbol icon image. During icon composition this image is multiplied by the desired frame color 
(e.g. black), then drawn on top of the frame and fill.
-->

<svg
   xmlns:dc="http://purl.org/dc/elements/1.1/"
   xmlns:cc="http://creativecommons.org/ns#"
   xmlns:rdf="http://www.w3.org/1999/02/22-rdf-syntax-ns#"
   xmlns:svg="http://www.w3.org/2000/svg"
   xmlns="http://www.w3.org/2000/svg"
   xmlns:sodipodi="http://sodipodi.sourceforge.net/DTD/sodipodi-0.dtd"
   xmlns:inkscape="http://www.inkscape.org/namespaces/inkscape"
   height="400px"
   viewBox="0 0 400 400"
   width="400px"
   id="svg2"
   version="1.1"
   inkscape:version="0.48.2 r9819"
   sodipodi:docname="shaamfr--------.svg">
  <metadata
     id="metadata10">
    <rdf:RDF>
      <cc:Work
         rdf:about="">
        <dc:format>image/svg+xml</dc:format>
        <dc:type
           rdf:resource="http://purl.org/dc/dcmitype/StillImage" />
      </cc:Work>
    </rdf:RDF>
  </metadata>
  <defs
     id="defs8" />
  <sodipodi:namedview
     pagecolor="#ffffff"
     bordercolor="#666666"
     borderopacity="1"
     objecttolerance="10"
     gridtolerance="10"
     guidetolerance="10"
     inkscape:pageopacity="0"
     inkscape:pageshadow="2"
     inkscape:window-width="640"
     inkscape:window-height="480"
     id="namedview6"
     showgrid="false"
     inkscape:zoom="0.59"
     inkscape:cx="200"
     inkscape:cy="200"
     inkscape:window-x="0"
     inkscape:window-y="0"
     inkscape:window-maximized="0"
     inkscape:current-layer="svg2" />
  <g
     style="font-size:150px;font-weight:bold;text-anchor:middle;fill:#ffffff;stroke:#000000;stroke-width:6;stroke-miterlimit:4;stroke-opacity:1;stroke-dasharray:12, 6;stroke-dashoffset:0;font-family:Arial"
     id="text4">
    <path
       inkscape:connector-curvature="0"
       d="m 156.78711,230 0,-107.37305 45.62988,0 c 11.47454,1.1e-4 19.81194,0.96447 25.01221,2.89307 5.20011,1.92881 9.3627,5.35899 12.48779,10.29053 3.1249,4.93173 4.6874,10.57137 4.6875,16.91894 -1e-4,8.05671 -2.36826,14.70954 -7.10449,19.9585 -4.73642,5.24907 -11.81649,8.55718 -21.24023,9.92431 4.68742,2.73442 8.55705,5.73735 11.60888,9.00879 3.05168,3.27152 7.16544,9.08206 12.34131,17.43164 L 253.32031,230 l -25.92773,0 -15.67383,-23.36426 c -5.56647,-8.34958 -9.37506,-13.6108 -11.42578,-15.78369 -2.05083,-2.17281 -4.22368,-3.66207 -6.51856,-4.46777 -2.29496,-0.80562 -5.93266,-1.20845 -10.91308,-1.2085 l -4.39453,0 0,44.82422 z m 21.67969,-61.96289 16.04004,0 c 10.40033,6e-5 16.89446,-0.43939 19.48242,-1.31836 2.58782,-0.87884 4.61418,-2.39251 6.0791,-4.54102 1.46477,-2.14836 2.19719,-4.83391 2.19726,-8.05664 -7e-5,-3.6132 -0.96443,-6.53068 -2.89306,-8.75244 -1.92878,-2.22159 -4.65095,-3.6254 -8.16651,-4.21142 -1.75787,-0.24405 -7.0313,-0.36613 -15.82031,-0.36621 l -16.91894,0 z"
       style="font-size:150px;font-weight:bold;text-anchor:middle;fill:#ffffff;stroke:#000000;stroke-width:6;stroke-miterlimit:4;stroke-opacity:1;stroke-dasharray:12, 6;stroke-dashoffset:0;font-family:Arial"
       id="path2988" />
  </g>
</svg>
