<?xml version="1.0" encoding="UTF-8" standalone="no"?>
<!--
Copyright (C) 2012 United States Government as represented by the Administrator of the
National Aeronautics and Space Administration.
All Rights Reserved.
-->

<!--
MIL-STD-2525 tactical symbol icon image. During icon composition this image is multiplied by the desired frame color 
(e.g. black), then drawn on top of the frame and fill.
-->

<svg
   xmlns:dc="http://purl.org/dc/elements/1.1/"
   xmlns:cc="http://creativecommons.org/ns#"
   xmlns:rdf="http://www.w3.org/1999/02/22-rdf-syntax-ns#"
   xmlns:svg="http://www.w3.org/2000/svg"
   xmlns="http://www.w3.org/2000/svg"
   xmlns:sodipodi="http://sodipodi.sourceforge.net/DTD/sodipodi-0.dtd"
   xmlns:inkscape="http://www.inkscape.org/namespaces/inkscape"
   height="400px"
   viewBox="0 0 400 400"
   width="400px"
   id="svg2"
   version="1.1"
   inkscape:version="0.48.2 r9819"
   sodipodi:docname="shfag----------.svg">
  <metadata
     id="metadata14">
    <rdf:RDF>
      <cc:Work
         rdf:about="">
        <dc:format>image/svg+xml</dc:format>
        <dc:type
           rdf:resource="http://purl.org/dc/dcmitype/StillImage" />
      </cc:Work>
    </rdf:RDF>
  </metadata>
  <defs
     id="defs12" />
  <sodipodi:namedview
     pagecolor="#ffffff"
     bordercolor="#666666"
     borderopacity="1"
     objecttolerance="10"
     gridtolerance="10"
     guidetolerance="10"
     inkscape:pageopacity="0"
     inkscape:pageshadow="2"
     inkscape:window-width="705"
     inkscape:window-height="480"
     id="namedview10"
     showgrid="false"
     inkscape:zoom="0.59"
     inkscape:cx="200"
     inkscape:cy="200"
     inkscape:window-x="0"
     inkscape:window-y="0"
     inkscape:window-maximized="0"
     inkscape:current-layer="svg2" />
  <g
     transform="matrix(1 0 0 1 0 0)"
     style="font-size:90px;fill:#ffffff;stroke:#000000;font-family:Arial;fill-opacity:1;stroke-width:6;stroke-miterlimit:4;stroke-dasharray:12, 6;stroke-dashoffset:0;stroke-opacity:1"
     id="text4">
    <path
       d="m 112.04297,212.30176 8.04199,-0.70313 c 0.38085,3.22268 1.26708,5.86672 2.65869,7.93213 1.39159,2.06544 3.55223,3.73536 6.48194,5.00977 2.92966,1.27442 6.22555,1.91162 9.88769,1.91162 3.25192,0 6.12301,-0.48339 8.61328,-1.4502 2.49019,-0.96678 4.34322,-2.29247 5.55908,-3.97705 1.21578,-1.68455 1.82369,-3.52293 1.82373,-5.51513 -4e-5,-2.02147 -0.58598,-3.7866 -1.75781,-5.29541 -1.17192,-1.50877 -3.10551,-2.77586 -5.80078,-3.80127 -1.72855,-0.6738 -5.55179,-1.72117 -11.46973,-3.14209 -5.91799,-1.42087 -10.06349,-2.7612 -12.43652,-4.021 -3.07618,-1.61129 -5.36866,-3.6108 -6.87744,-5.99854 -1.5088,-2.38765 -2.26319,-5.06099 -2.26318,-8.02001 -1e-5,-3.25191 0.92284,-6.29145 2.76855,-9.11866 1.84569,-2.82709 4.541,-4.97308 8.08594,-6.43799 3.5449,-1.46477 7.48533,-2.1972 11.82129,-2.19726 4.77535,6e-5 8.98678,0.76911 12.63427,2.30713 3.64742,1.53815 6.45259,3.80133 8.41553,6.78955 1.96284,2.98833 3.01753,6.37212 3.16406,10.15137 l -8.17382,0.61523 c -0.4395,-4.07222 -1.92632,-7.14838 -4.46045,-9.22852 -2.53422,-2.08002 -6.27689,-3.12005 -11.22803,-3.12011 -5.15627,6e-5 -8.91359,0.94488 -11.27197,2.83447 -2.35842,1.8897 -3.53762,4.16753 -3.5376,6.8335 -2e-5,2.3145 0.83495,4.21879 2.50488,5.71289 1.64061,1.49418 5.92527,3.02494 12.85401,4.59228 6.92867,1.56742 11.68208,2.93705 14.26025,4.10889 3.74995,1.72855 6.5185,3.91849 8.30566,6.56982 1.78706,2.65139 2.68061,5.70559 2.68067,9.1626 -6e-5,3.42775 -0.9815,6.65773 -2.94434,9.68994 -1.96294,3.03223 -4.78276,5.39063 -8.45947,7.0752 -3.6768,1.68457 -7.81498,2.52685 -12.41455,2.52685 -5.8301,0 -10.71535,-0.84961 -14.65576,-2.54883 -3.94045,-1.69921 -7.03126,-4.25536 -9.27246,-7.66845 -2.24122,-3.41308 -3.42042,-7.27294 -3.5376,-11.57959 z"
       style="font-size:90px;fill:#ffffff;stroke:#000000;font-family:Arial;fill-opacity:1;stroke-width:6;stroke-miterlimit:4;stroke-dasharray:12, 6;stroke-dashoffset:0;stroke-opacity:1"
       id="path2992" />
    <path
       d="m 172.46777,201.62305 c 0,-10.69332 2.87109,-19.06489 8.61328,-25.11475 5.74217,-6.04974 13.15428,-9.07464 22.23633,-9.07471 5.94723,7e-5 11.30855,1.42097 16.08399,4.2627 4.77533,2.84185 8.41546,6.80425 10.92041,11.88721 2.50482,5.08305 3.75726,10.8472 3.75732,17.29248 -6e-5,6.53323 -1.31842,12.37795 -3.95508,17.53418 -2.63677,5.15626 -6.37212,9.06006 -11.20605,11.71142 -4.83403,2.65137 -10.04887,3.97705 -15.64453,3.97705 -6.06448,0 -11.4844,-1.46484 -16.25977,-4.39453 -4.7754,-2.92968 -8.39356,-6.9287 -10.85449,-11.99707 -2.46094,-5.06834 -3.69141,-10.42966 -3.69141,-16.08398 z m 8.78907,0.13183 c -2e-5,7.7637 2.08738,13.87941 6.2622,18.34717 4.17478,4.46778 9.4116,6.70167 15.71045,6.70166 6.41598,1e-5 11.69673,-2.25585 15.84229,-6.76758 4.14545,-4.5117 6.2182,-10.91306 6.21826,-19.2041 -6e-5,-5.2441 -0.88629,-9.82173 -2.65869,-13.73291 -1.77252,-3.91108 -4.36529,-6.94331 -7.77832,-9.09668 -3.41313,-2.15326 -7.24369,-3.22992 -11.4917,-3.22998 -6.03519,6e-5 -11.22805,2.07281 -15.57862,6.21826 -4.3506,4.14556 -6.52589,11.06694 -6.52587,20.76416 z"
       style="font-size:90px;fill:#ffffff;stroke:#000000;font-family:Arial;fill-opacity:1;stroke-width:6;stroke-miterlimit:4;stroke-dasharray:12, 6;stroke-dashoffset:0;stroke-opacity:1"
       id="path2994" />
    <path
       d="m 245.46094,233 0,-64.42383 43.46191,0 0,7.60254 -34.93652,0 0,19.95117 30.23437,0 0,7.60254 -30.23437,0 0,29.26758 z"
       style="font-size:90px;fill:#ffffff;stroke:#000000;font-family:Arial;fill-opacity:1;stroke-width:6;stroke-miterlimit:4;stroke-dasharray:12, 6;stroke-dashoffset:0;stroke-opacity:1"
       id="path2996" />
  </g>
  <line
     style="stroke:rgb(255,255,255);stroke-width:10;stroke-dasharray:10"
     x1="304"
     x2="96"
     y1="130"
     y2="270"
     id="line6" />
  <line
     style="stroke:rgb(255,255,255);stroke-width:10;stroke-dasharray:10"
     x1="96"
     x2="304"
     y1="130"
     y2="270"
     id="line8" />
</svg>
