<?xml version="1.0" encoding="UTF-8" standalone="no"?>
<!--
Copyright (C) 2012 United States Government as represented by the Administrator of the
National Aeronautics and Space Administration.
All Rights Reserved.
-->

<!--
MIL-STD-2525 tactical symbol icon image. During icon composition this image is multiplied by the desired frame color 
(e.g. black), then drawn on top of the frame and fill.
-->

<svg
   xmlns:dc="http://purl.org/dc/elements/1.1/"
   xmlns:cc="http://creativecommons.org/ns#"
   xmlns:rdf="http://www.w3.org/1999/02/22-rdf-syntax-ns#"
   xmlns:svg="http://www.w3.org/2000/svg"
   xmlns="http://www.w3.org/2000/svg"
   xmlns:sodipodi="http://sodipodi.sourceforge.net/DTD/sodipodi-0.dtd"
   xmlns:inkscape="http://www.inkscape.org/namespaces/inkscape"
   height="400px"
   viewBox="0 0 400 400"
   width="400px"
   id="svg2"
   version="1.1"
   inkscape:version="0.48.2 r9819"
   sodipodi:docname="shfagr---------.svg">
  <metadata
     id="metadata18">
    <rdf:RDF>
      <cc:Work
         rdf:about="">
        <dc:format>image/svg+xml</dc:format>
        <dc:type
           rdf:resource="http://purl.org/dc/dcmitype/StillImage" />
      </cc:Work>
    </rdf:RDF>
  </metadata>
  <defs
     id="defs16" />
  <sodipodi:namedview
     pagecolor="#ffffff"
     bordercolor="#666666"
     borderopacity="1"
     objecttolerance="10"
     gridtolerance="10"
     guidetolerance="10"
     inkscape:pageopacity="0"
     inkscape:pageshadow="2"
     inkscape:window-width="705"
     inkscape:window-height="480"
     id="namedview14"
     showgrid="false"
     inkscape:zoom="0.59"
     inkscape:cx="200"
     inkscape:cy="200"
     inkscape:window-x="0"
     inkscape:window-y="0"
     inkscape:window-maximized="0"
     inkscape:current-layer="svg2" />
  <line
     style="stroke:rgb(255,255,255);stroke-width:10;stroke-dasharray:10"
     x1="304"
     x2="96"
     y1="130"
     y2="270"
     id="line4" />
  <line
     style="stroke:rgb(255,255,255);stroke-width:10;stroke-dasharray:10"
     x1="96"
     x2="304"
     y1="130"
     y2="270"
     id="line6" />
  <g
     transform="scale(0.8 0.8) translate(50 100)"
     id="g10">
    <path
       d="M120 270 C120 230 200 230 200 270 C200 230 280 230 280 270"
       style="fill:none;stroke:rgb(255,255,255);stroke-width:10;stroke-dasharray:10"
       id="path12" />
  </g>
  <g
     transform="translate(0,-2e-6)"
     style="font-size:90px;fill:#ffffff;stroke:none;font-family:Arial"
     id="text8">
    <path
       inkscape:connector-curvature="0"
       d="m 175.0752,158 0,-64.423828 28.56445,0 c 5.74214,6.4e-5 10.10737,0.578677 13.0957,1.73584 2.98823,1.157288 5.37592,3.200743 7.16309,6.130368 1.78705,2.92974 2.6806,6.16705 2.68066,9.71192 -6e-5,4.57035 -1.47955,8.42289 -4.43848,11.55761 -2.95903,3.1348 -7.52934,5.12699 -13.71093,5.97657 2.25581,1.08401 3.96968,2.15334 5.1416,3.208 2.49019,2.28518 4.84858,5.14163 7.07519,8.56934 L 231.85254,158 l -10.72266,0 -8.52539,-13.40332 c -2.49027,-3.86717 -4.54105,-6.82615 -6.15234,-8.87695 -1.61137,-2.05076 -3.05424,-3.48631 -4.32861,-4.30664 -1.27445,-0.82029 -2.57084,-1.39158 -3.88917,-1.71387 -0.96682,-0.20505 -2.54885,-0.30759 -4.74609,-0.30762 l -9.88769,0 0,28.6084 z m 8.52539,-35.99121 18.32519,0 c 3.89645,4e-5 6.94332,-0.4028 9.14063,-1.2085 2.19722,-0.80562 3.86714,-2.09468 5.00976,-3.86718 1.14253,-1.77242 1.71382,-3.69869 1.71387,-5.77881 -5e-5,-3.04683 -1.10601,-5.55171 -3.31787,-7.51465 -2.21196,-1.96284 -5.70561,-2.94428 -10.48096,-2.94434 l -20.39062,0 z"
       style="font-size:90px;fill:#ffffff;stroke:none;font-family:Arial"
       id="path2996" />
  </g>
</svg>
