<?xml version="1.0" encoding="UTF-8" standalone="no"?>
<!--
Copyright (C) 2012 United States Government as represented by the Administrator of the
National Aeronautics and Space Administration.
All Rights Reserved.
-->

<!--
MIL-STD-2525 tactical symbol icon image. During icon composition this image is multiplied by the desired frame color 
(e.g. black), then drawn on top of the frame and fill.
-->

<svg
   xmlns:dc="http://purl.org/dc/elements/1.1/"
   xmlns:cc="http://creativecommons.org/ns#"
   xmlns:rdf="http://www.w3.org/1999/02/22-rdf-syntax-ns#"
   xmlns:svg="http://www.w3.org/2000/svg"
   xmlns="http://www.w3.org/2000/svg"
   xmlns:sodipodi="http://sodipodi.sourceforge.net/DTD/sodipodi-0.dtd"
   xmlns:inkscape="http://www.inkscape.org/namespaces/inkscape"
   height="400px"
   viewBox="0 0 400 400"
   width="400px"
   id="svg2"
   version="1.1"
   inkscape:version="0.48.2 r9819"
   sodipodi:docname="shgaucen-------.svg">
  <metadata
     id="metadata20">
    <rdf:RDF>
      <cc:Work
         rdf:about="">
        <dc:format>image/svg+xml</dc:format>
        <dc:type
           rdf:resource="http://purl.org/dc/dcmitype/StillImage" />
      </cc:Work>
    </rdf:RDF>
  </metadata>
  <defs
     id="defs18" />
  <sodipodi:namedview
     pagecolor="#ffffff"
     bordercolor="#666666"
     borderopacity="1"
     objecttolerance="10"
     gridtolerance="10"
     guidetolerance="10"
     inkscape:pageopacity="0"
     inkscape:pageshadow="2"
     inkscape:window-width="640"
     inkscape:window-height="480"
     id="namedview16"
     showgrid="false"
     inkscape:zoom="0.59"
     inkscape:cx="200"
     inkscape:cy="200"
     inkscape:window-x="0"
     inkscape:window-y="0"
     inkscape:window-maximized="0"
     inkscape:current-layer="svg2" />
  <g
     transform="matrix(0.7,0,0,0.7,60,110)"
     id="g4">
    <line
       style="stroke:#ffffff;stroke-width:10;stroke-dasharray:10"
       x1="200"
       x2="200"
       y1="155"
       y2="225"
       id="line6" />
    <line
       style="stroke:#ffffff;stroke-width:10;stroke-dasharray:10"
       x1="110"
       x2="110"
       y1="155"
       y2="255"
       id="line8" />
    <line
       style="stroke:#ffffff;stroke-width:10;stroke-dasharray:10"
       x1="290"
       x2="290"
       y1="155"
       y2="255"
       id="line10" />
    <line
       style="stroke:#ffffff;stroke-width:10;stroke-dasharray:10"
       x1="105"
       x2="295"
       y1="155"
       y2="155"
       id="line12" />
  </g>
  <g
     style="font-size:60px;font-weight:bold;text-anchor:middle;fill:#ffffff;stroke:none;font-family:Arial"
     id="text14">
    <path
       inkscape:connector-curvature="0"
       d="m 121.78711,184.20898 8.4082,2.66602 c -1.2891,4.68751 -3.43265,8.16895 -6.43066,10.44434 -2.99808,2.27539 -6.80179,3.41308 -11.41113,3.41308 -5.70315,0 -10.39064,-1.94824 -14.062504,-5.84472 -3.67188,-3.89648 -5.507816,-9.22362 -5.507813,-15.98145 -3e-6,-7.14841 1.845699,-12.70016 5.537109,-16.65527 3.691398,-3.95504 8.544908,-5.93258 14.560548,-5.93262 5.25388,4e-5 9.52145,1.55278 12.80273,4.6582 1.95309,1.83598 3.41793,4.47269 4.39453,7.91016 l -8.58398,2.05078 c -0.50784,-2.22653 -1.56741,-3.98434 -3.17871,-5.27344 -1.61136,-1.28902 -3.56936,-1.93355 -5.87402,-1.93359 -3.18362,4e-5 -5.76662,1.14261 -7.74903,3.42773 -1.98243,2.28519 -2.97364,5.98636 -2.97363,11.10352 -1e-5,5.4297 0.97655,9.29689 2.92969,11.60156 1.95311,2.3047 4.49217,3.45704 7.61719,3.45703 2.30466,1e-5 4.28708,-0.73241 5.94726,-2.19726 1.66013,-1.46484 2.85153,-3.76952 3.57422,-6.91407 z"
       style="font-size:60px;font-weight:bold;text-anchor:middle;fill:#ffffff;stroke:none;font-family:Arial"
       id="path2998" />
    <path
       inkscape:connector-curvature="0"
       d="m 135.9082,178.78906 c 0,-4.37497 0.6543,-8.04684 1.96289,-11.01562 0.97656,-2.18747 2.30957,-4.15036 3.99903,-5.88867 1.68944,-1.73825 3.54002,-3.02731 5.55175,-3.86719 2.67577,-1.13277 5.7617,-1.69918 9.25782,-1.69922 6.32809,4e-5 11.39156,1.96293 15.19043,5.88867 3.79878,3.92582 5.6982,9.3848 5.69824,16.37695 -4e-5,6.93361 -1.88481,12.35841 -5.6543,16.27442 -3.76956,3.91602 -8.80862,5.87402 -15.11719,5.87402 -6.38673,0 -11.46485,-1.94824 -15.23437,-5.84472 -3.76954,-3.89648 -5.6543,-9.26269 -5.6543,-16.09864 z m 8.93555,-0.29297 c -1e-5,4.8633 1.12303,8.54982 3.36914,11.05957 2.24608,2.50978 5.09764,3.76466 8.55469,3.76465 3.457,1e-5 6.29391,-1.24511 8.51074,-3.73535 2.21676,-2.49022 3.32516,-6.22557 3.3252,-11.20605 -4e-5,-4.92185 -1.07914,-8.59372 -3.23731,-11.01563 -2.15823,-2.42184 -5.02444,-3.63277 -8.59863,-3.63281 -3.57424,4e-5 -6.4551,1.22562 -8.64258,3.67676 -2.18751,2.4512 -3.28126,6.14748 -3.28125,11.08886 z"
       style="font-size:60px;font-weight:bold;text-anchor:middle;fill:#ffffff;stroke:none;font-family:Arial"
       id="path3000" />
    <path
       inkscape:connector-curvature="0"
       d="m 184.39453,200 0,-42.94922 8.4375,0 17.57813,28.68164 0,-28.68164 8.05664,0 0,42.94922 -8.70118,0 -17.31445,-28.00781 0,28.00781 z"
       style="font-size:60px;font-weight:bold;text-anchor:middle;fill:#ffffff;stroke:none;font-family:Arial"
       id="path3002" />
    <path
       inkscape:connector-curvature="0"
       d="m 225.46875,186.02539 8.4375,-0.82031 c 0.5078,2.83204 1.53807,4.91212 3.09082,6.24023 1.55272,1.32813 3.64744,1.9922 6.28418,1.99219 2.79295,1e-5 4.89744,-0.59081 6.31348,-1.77246 1.41598,-1.18163 2.12399,-2.56347 2.12402,-4.14551 -3e-5,-1.01561 -0.29788,-1.87987 -0.89355,-2.59277 -0.59573,-0.71288 -1.63577,-1.33299 -3.12012,-1.86035 -1.01565,-0.35155 -3.3301,-0.97655 -6.94336,-1.875 -4.64845,-1.15233 -7.91017,-2.56834 -9.78516,-4.24805 -2.63672,-2.36326 -3.95508,-5.24411 -3.95508,-8.64258 0,-2.18746 0.62012,-4.23336 1.86036,-6.13769 1.24022,-1.90426 3.02733,-3.35446 5.36132,-4.35059 2.33398,-0.99605 5.15136,-1.4941 8.45215,-1.49414 5.3906,4e-5 9.44822,1.18168 12.17285,3.54492 2.72458,2.36332 4.15524,5.51761 4.292,9.46289 l -8.67188,0.38086 c -0.37112,-2.207 -1.16702,-3.79391 -2.38769,-4.76074 -1.22073,-0.96676 -3.05178,-1.45016 -5.49317,-1.4502 -2.51955,4e-5 -4.4922,0.51762 -5.91797,1.55274 -0.91798,0.66409 -1.37696,1.55277 -1.37695,2.66601 -1e-5,1.01566 0.42968,1.8848 1.28906,2.60743 1.09374,0.91799 3.74999,1.87502 7.96875,2.87109 4.21873,0.99612 7.33884,2.02639 9.36035,3.09082 2.02146,1.06448 3.60349,2.51955 4.7461,4.36523 1.14254,1.84572 1.71383,4.126 1.71386,6.84082 -3e-5,2.46095 -0.68363,4.76564 -2.05078,6.91407 -1.36722,2.14844 -3.30081,3.74512 -5.80078,4.79004 -2.50002,1.04492 -5.61526,1.56738 -9.3457,1.56738 -5.4297,0 -9.59962,-1.25488 -12.50977,-3.76465 -2.91016,-2.50976 -4.64844,-6.16698 -5.21484,-10.97168 z"
       style="font-size:60px;font-weight:bold;text-anchor:middle;fill:#ffffff;stroke:none;font-family:Arial"
       id="path3004" />
    <path
       inkscape:connector-curvature="0"
       d="m 277.41211,200 0,-35.68359 -12.74414,0 0,-7.26563 34.13086,0 0,7.26563 -12.71485,0 0,35.68359 z"
       style="font-size:60px;font-weight:bold;text-anchor:middle;fill:#ffffff;stroke:none;font-family:Arial"
       id="path3006" />
  </g>
</svg>
