<?xml version="1.0" encoding="UTF-8" standalone="no"?>
<!--
Copyright (C) 2012 United States Government as represented by the Administrator of the
National Aeronautics and Space Administration.
All Rights Reserved.
-->

<!--
MIL-STD-2525 tactical symbol icon image. During icon composition this image is multiplied by the desired frame color 
(e.g. black), then drawn on top of the frame and fill.
-->

<svg
   xmlns:dc="http://purl.org/dc/elements/1.1/"
   xmlns:cc="http://creativecommons.org/ns#"
   xmlns:rdf="http://www.w3.org/1999/02/22-rdf-syntax-ns#"
   xmlns:svg="http://www.w3.org/2000/svg"
   xmlns="http://www.w3.org/2000/svg"
   xmlns:sodipodi="http://sodipodi.sourceforge.net/DTD/sodipodi-0.dtd"
   xmlns:inkscape="http://www.inkscape.org/namespaces/inkscape"
   height="400px"
   viewBox="0 0 400 400"
   width="400px"
   id="svg2"
   version="1.1"
   inkscape:version="0.48.2 r9819"
   sodipodi:docname="shgaucvv-------.svg">
  <metadata
     id="metadata14">
    <rdf:RDF>
      <cc:Work
         rdf:about="">
        <dc:format>image/svg+xml</dc:format>
        <dc:type
           rdf:resource="http://purl.org/dc/dcmitype/StillImage" />
      </cc:Work>
    </rdf:RDF>
  </metadata>
  <defs
     id="defs12" />
  <sodipodi:namedview
     pagecolor="#ffffff"
     bordercolor="#666666"
     borderopacity="1"
     objecttolerance="10"
     gridtolerance="10"
     guidetolerance="10"
     inkscape:pageopacity="0"
     inkscape:pageshadow="2"
     inkscape:window-width="705"
     inkscape:window-height="480"
     id="namedview10"
     showgrid="false"
     inkscape:zoom="0.59"
     inkscape:cx="200"
     inkscape:cy="200"
     inkscape:window-x="0"
     inkscape:window-y="0"
     inkscape:window-maximized="0"
     inkscape:current-layer="svg2" />
  <g
     transform="matrix(0.9,0,0,0.9,20,-10.000002)"
     id="g4"
     style="stroke:#000000;stroke-width:6.66666651;stroke-miterlimit:4;stroke-opacity:1;stroke-dasharray:13.33333333, 6.66666667;stroke-dashoffset:0">
    <path
       inkscape:connector-curvature="0"
       d="m 200,200 -55,-25 c -55,-25 -55,75 0,50 l 55,-25 55,-25 c 55,-25 55,75 0,50 l -55,-25"
       style="fill:#ffffff;stroke:#000000;stroke-width:6.66666651;stroke-miterlimit:4;stroke-opacity:1;stroke-dasharray:13.33333333, 6.66666667;stroke-dashoffset:0"
       id="path6" />
  </g>
  <g
     transform="translate(0,-2.4846255e-6)"
     style="font-size:60px;font-weight:bold;text-anchor:middle;fill:#ffffff;stroke:none;font-family:Arial"
     id="text8">
    <path
       inkscape:connector-curvature="0"
       d="m 115.24414,250 -15.351562,-42.94922 9.404302,0 10.86914,31.78711 10.51757,-31.78711 9.19922,0 L 124.50195,250 z"
       style="font-size:60px;font-weight:bold;text-anchor:middle;fill:#ffffff;stroke:none;font-family:Arial"
       id="path2992" />
    <path
       inkscape:connector-curvature="0"
       d="m 142.16797,236.02539 8.4375,-0.82031 c 0.5078,2.83204 1.53807,4.91212 3.09082,6.24023 1.55272,1.32813 3.64744,1.9922 6.28418,1.99219 2.79294,1e-5 4.89743,-0.59081 6.31348,-1.77246 1.41598,-1.18163 2.12399,-2.56347 2.12402,-4.14551 -3e-5,-1.01561 -0.29788,-1.87987 -0.89356,-2.59277 -0.59573,-0.71288 -1.63576,-1.33299 -3.12011,-1.86035 -1.01565,-0.35155 -3.3301,-0.97655 -6.94336,-1.875 -4.64845,-1.15233 -7.91017,-2.56834 -9.78516,-4.24805 -2.63672,-2.36326 -3.95508,-5.24411 -3.95508,-8.64258 0,-2.18746 0.62012,-4.23336 1.86035,-6.13769 1.24023,-1.90426 3.02734,-3.35446 5.36133,-4.35059 2.33397,-0.99605 5.15135,-1.4941 8.45215,-1.49414 5.3906,4e-5 9.44821,1.18168 12.17285,3.54492 2.72458,2.36332 4.15524,5.51761 4.29199,9.46289 l -8.67187,0.38086 c -0.37112,-2.207 -1.16702,-3.79391 -2.3877,-4.76074 -1.22072,-0.96676 -3.05177,-1.45016 -5.49316,-1.4502 -2.51955,4e-5 -4.4922,0.51762 -5.91797,1.55274 -0.91798,0.66409 -1.37696,1.55277 -1.37695,2.66601 -1e-5,1.01566 0.42967,1.8848 1.28906,2.60743 1.09374,0.91799 3.74998,1.87502 7.96875,2.87109 4.21873,0.99612 7.33884,2.02639 9.36035,3.09082 2.02145,1.06448 3.60348,2.51955 4.7461,4.36523 1.14254,1.84572 1.71383,4.126 1.71386,6.84082 -3e-5,2.46095 -0.68363,4.76564 -2.05078,6.91407 -1.36722,2.14844 -3.30081,3.74512 -5.80078,4.79004 -2.50003,1.04492 -5.61526,1.56738 -9.3457,1.56738 -5.4297,0 -9.59962,-1.25488 -12.50977,-3.76465 -2.91016,-2.50976 -4.64844,-6.16698 -5.21484,-10.97168 z"
       style="font-size:60px;font-weight:bold;text-anchor:middle;fill:#ffffff;stroke:none;font-family:Arial"
       id="path2994" />
    <path
       inkscape:connector-curvature="0"
       d="m 194.11133,250 0,-35.68359 -12.74414,0 0,-7.26563 34.13086,0 0,7.26563 -12.71485,0 0,35.68359 z"
       style="font-size:60px;font-weight:bold;text-anchor:middle;fill:#ffffff;stroke:none;font-family:Arial"
       id="path2996" />
    <path
       inkscape:connector-curvature="0"
       d="m 219.36523,228.78906 c 0,-4.37497 0.6543,-8.04684 1.96289,-11.01562 0.97656,-2.18747 2.30957,-4.15036 3.99903,-5.88867 1.68944,-1.73825 3.54003,-3.02731 5.55176,-3.86719 2.67576,-1.13277 5.7617,-1.69918 9.25781,-1.69922 6.32809,4e-5 11.39157,1.96293 15.19043,5.88867 3.79878,3.92582 5.6982,9.3848 5.69824,16.37695 -4e-5,6.93361 -1.88481,12.35841 -5.6543,16.27442 -3.76956,3.91602 -8.80862,5.87402 -15.11718,5.87402 -6.38674,0 -11.46486,-1.94824 -15.23438,-5.84472 -3.76953,-3.89648 -5.6543,-9.26269 -5.6543,-16.09864 z m 8.93555,-0.29297 c -1e-5,4.8633 1.12304,8.54982 3.36914,11.05957 2.24608,2.50978 5.09764,3.76466 8.55469,3.76465 3.457,1e-5 6.29391,-1.24511 8.51074,-3.73535 2.21676,-2.49022 3.32516,-6.22557 3.3252,-11.20605 -4e-5,-4.92185 -1.07914,-8.59372 -3.23731,-11.01563 -2.15823,-2.42184 -5.02444,-3.63277 -8.59863,-3.63281 -3.57424,4e-5 -6.4551,1.22562 -8.64258,3.67676 -2.18751,2.4512 -3.28126,6.14748 -3.28125,11.08886 z"
       style="font-size:60px;font-weight:bold;text-anchor:middle;fill:#ffffff;stroke:none;font-family:Arial"
       id="path2998" />
    <path
       inkscape:connector-curvature="0"
       d="m 267.99805,250 0,-42.59766 8.67187,0 0,35.36133 21.5625,0 0,7.23633 z"
       style="font-size:60px;font-weight:bold;text-anchor:middle;fill:#ffffff;stroke:none;font-family:Arial"
       id="path3000" />
  </g>
</svg>
