<?xml version="1.0" encoding="UTF-8" standalone="no"?>
<!--
Copyright (C) 2012 United States Government as represented by the Administrator of the
National Aeronautics and Space Administration.
All Rights Reserved.
-->

<!--
MIL-STD-2525 tactical symbol icon image. During icon composition this image is multiplied by the desired frame color 
(e.g. black), then drawn on top of the frame and fill.
-->

<svg
   xmlns:dc="http://purl.org/dc/elements/1.1/"
   xmlns:cc="http://creativecommons.org/ns#"
   xmlns:rdf="http://www.w3.org/1999/02/22-rdf-syntax-ns#"
   xmlns:svg="http://www.w3.org/2000/svg"
   xmlns="http://www.w3.org/2000/svg"
   xmlns:sodipodi="http://sodipodi.sourceforge.net/DTD/sodipodi-0.dtd"
   xmlns:inkscape="http://www.inkscape.org/namespaces/inkscape"
   height="400px"
   viewBox="0 0 400 400"
   width="400px"
   id="svg2"
   version="1.1"
   inkscape:version="0.48.2 r9819"
   sodipodi:docname="shgaucfta------.svg">
  <metadata
     id="metadata28">
    <rdf:RDF>
      <cc:Work
         rdf:about="">
        <dc:format>image/svg+xml</dc:format>
        <dc:type
           rdf:resource="http://purl.org/dc/dcmitype/StillImage" />
      </cc:Work>
    </rdf:RDF>
  </metadata>
  <defs
     id="defs26" />
  <sodipodi:namedview
     pagecolor="#ffffff"
     bordercolor="#666666"
     borderopacity="1"
     objecttolerance="10"
     gridtolerance="10"
     guidetolerance="10"
     inkscape:pageopacity="0"
     inkscape:pageshadow="2"
     inkscape:window-width="640"
     inkscape:window-height="480"
     id="namedview24"
     showgrid="false"
     inkscape:zoom="0.59"
     inkscape:cx="200"
     inkscape:cy="200"
     inkscape:window-x="207"
     inkscape:window-y="44"
     inkscape:window-maximized="0"
     inkscape:current-layer="svg2" />
  <line
     style="stroke:rgb(255,255,255);stroke-width:10;stroke-dasharray:10"
     x1="304"
     x2="96"
     y1="130"
     y2="270"
     id="line6" />
  <g
     transform="translate(120 51) scale(0.4 0.4)"
     id="g10">
    <ellipse
       cx="200"
       cy="104"
       rx="16"
       ry="16"
       style="fill:none;stroke:rgb(255,255,255);stroke-width:18;stroke-dasharray:10"
       id="ellipse12"
       d="m 216,104 c 0,8.83656 -7.16344,16 -16,16 -8.83656,0 -16,-7.16344 -16,-16 0,-8.836556 7.16344,-16 16,-16 8.83656,0 16,7.163444 16,16 z" />
    <line
       style="stroke:rgb(255,255,255);stroke-width:18;stroke-dasharray:10"
       x1="200"
       x2="200"
       y1="120"
       y2="280"
       id="line14" />
    <line
       style="stroke:rgb(255,255,255);stroke-width:18;stroke-dasharray:10"
       x1="120"
       x2="280"
       y1="130"
       y2="130"
       id="line16" />
    <path
       d="M100 200 C150 300 250 300 300 200 C250 315 150 315 100 200"
       style="fill:rgb(255,255,255);stroke:rgb(255,255,255);stroke-width:18;stroke-dasharray:10"
       id="path18" />
    <path
       d="M100 200 C108 245 113 245 113 245 L128 225 C115 220 110 210 103 203"
       style="fill:rgb(255,255,255);stroke:rgb(255,255,255);stroke-width:18;stroke-dasharray:10"
       id="path20" />
    <path
       d="M300 200 C292 245 287 245 287 245 L272 225 C285 220 290 210 297 203"
       style="fill:rgb(255,255,255);stroke:rgb(255,255,255);stroke-width:18;stroke-dasharray:10"
       id="path22" />
  </g>
  <ellipse
     sodipodi:ry="18"
     sodipodi:rx="18"
     sodipodi:cy="200"
     sodipodi:cx="200"
     cx="200"
     cy="200"
     rx="18"
     ry="18"
     style="fill:#ffffff;stroke:#000000;stroke-width:6;stroke-miterlimit:4;stroke-opacity:1;stroke-dasharray:12, 6;stroke-dashoffset:0"
     id="ellipse4" />
  <polyline
     points="200,200 110,150 110,250 200,200 290,150 290,250 200,200"
     style="fill:#ffffff;stroke:#000000;stroke-width:6;stroke-miterlimit:4;stroke-opacity:1;stroke-dasharray:12, 6;stroke-dashoffset:0"
     id="polyline8" />
</svg>
