<?xml version="1.0" encoding="UTF-8" standalone="no"?>
<!--
Copyright (C) 2012 United States Government as represented by the Administrator of the
National Aeronautics and Space Administration.
All Rights Reserved.
-->

<!--
MIL-STD-2525 tactical symbol icon image. During icon composition this image is multiplied by the desired frame color 
(e.g. black), then drawn on top of the frame and fill.
-->

<svg
   xmlns:dc="http://purl.org/dc/elements/1.1/"
   xmlns:cc="http://creativecommons.org/ns#"
   xmlns:rdf="http://www.w3.org/1999/02/22-rdf-syntax-ns#"
   xmlns:svg="http://www.w3.org/2000/svg"
   xmlns="http://www.w3.org/2000/svg"
   xmlns:sodipodi="http://sodipodi.sourceforge.net/DTD/sodipodi-0.dtd"
   xmlns:inkscape="http://www.inkscape.org/namespaces/inkscape"
   height="400px"
   viewBox="0 0 400 400"
   width="400px"
   id="svg2"
   version="1.1"
   inkscape:version="0.48.2 r9819"
   sodipodi:docname="shgauusf-------.svg">
  <metadata
     id="metadata14">
    <rdf:RDF>
      <cc:Work
         rdf:about="">
        <dc:format>image/svg+xml</dc:format>
        <dc:type
           rdf:resource="http://purl.org/dc/dcmitype/StillImage" />
      </cc:Work>
    </rdf:RDF>
  </metadata>
  <defs
     id="defs12" />
  <sodipodi:namedview
     pagecolor="#ffffff"
     bordercolor="#666666"
     borderopacity="1"
     objecttolerance="10"
     gridtolerance="10"
     guidetolerance="10"
     inkscape:pageopacity="0"
     inkscape:pageshadow="2"
     inkscape:window-width="640"
     inkscape:window-height="480"
     id="namedview10"
     showgrid="false"
     inkscape:zoom="0.59"
     inkscape:cx="200"
     inkscape:cy="200"
     inkscape:window-x="0"
     inkscape:window-y="0"
     inkscape:window-maximized="0"
     inkscape:current-layer="svg2" />
  <polyline
     points="96,130 200,220 200,180 304,270"
     style="fill:none;stroke:rgb(255,255,255);stroke-width:10;stroke-dasharray:10"
     id="polyline4" />
  <g
     transform="translate(65 -20) scale(0.8 0.8)"
     id="g6">
    <g
       style="font-size:65px;font-weight:bold;text-anchor:middle;fill:#ffffff;font-family:Arial"
       id="text8">
      <path
         d="m 130.77881,223 0,-46.52832 31.89697,0 0,7.87109 -22.50244,0 0,11.01319 19.42383,0 0,7.87109 -19.42383,0 0,19.77295 z"
         style="font-size:65px;font-weight:bold;text-anchor:middle;fill:#ffffff;font-family:Arial"
         id="path2992" />
      <path
         d="m 177.05322,223 -11.1084,-46.52832 9.6167,0 7.01416,31.96045 8.50586,-31.96045 11.17188,0 8.15674,32.5 7.14111,-32.5 9.45801,0 L 215.71045,223 205.74463,223 196.47705,188.21484 187.24121,223 z"
         style="font-size:65px;font-weight:bold;text-anchor:middle;fill:#ffffff;font-family:Arial"
         id="path2994" />
      <path
         d="m 231.73828,176.47168 17.17041,0 c 3.87205,5e-5 6.8237,0.29627 8.85498,0.88867 2.72946,0.80408 5.06751,2.2323 7.01416,4.28467 1.94658,2.05245 3.4277,4.56506 4.44336,7.53784 1.01558,2.97285 1.5234,6.63862 1.52344,10.99732 -4e-5,3.82977 -0.47612,7.13055 -1.42822,9.90234 -1.16378,3.38543 -2.82475,6.12549 -4.98291,8.22021 -1.62927,1.58692 -3.82979,2.82471 -6.60157,3.71338 C 255.65834,222.67204 252.88653,223 249.4165,223 l -17.67822,0 z m 9.39453,7.87109 0,30.81787 7.01416,0 c 2.62368,1e-5 4.51739,-0.1481 5.68115,-0.44433 1.52341,-0.38085 2.78765,-1.0262 3.79273,-1.93604 1.00501,-0.90982 1.82492,-2.4068 2.45972,-4.49096 0.63473,-2.08413 0.95211,-4.92471 0.95214,-8.52173 -3e-5,-3.59698 -0.31741,-6.35821 -0.95214,-8.28369 -0.6348,-1.92543 -1.52347,-3.4277 -2.66602,-4.50684 -1.14261,-1.07906 -2.59199,-1.80904 -4.34814,-2.18994 -1.31188,-0.29619 -3.88268,-0.4443 -7.71241,-0.44434 z"
         style="font-size:65px;font-weight:bold;text-anchor:middle;fill:#ffffff;font-family:Arial"
         id="path2996" />
    </g>
  </g>
</svg>
