<?xml version="1.0" encoding="UTF-8" standalone="no"?>
<!--
Copyright (C) 2012 United States Government as represented by the Administrator of the
National Aeronautics and Space Administration.
All Rights Reserved.
-->

<!--
MIL-STD-2525 tactical symbol icon image. During icon composition this image is multiplied by the desired frame color 
(e.g. black), then drawn on top of the frame and fill.
-->

<svg
   xmlns:dc="http://purl.org/dc/elements/1.1/"
   xmlns:cc="http://creativecommons.org/ns#"
   xmlns:rdf="http://www.w3.org/1999/02/22-rdf-syntax-ns#"
   xmlns:svg="http://www.w3.org/2000/svg"
   xmlns="http://www.w3.org/2000/svg"
   xmlns:sodipodi="http://sodipodi.sourceforge.net/DTD/sodipodi-0.dtd"
   xmlns:inkscape="http://www.inkscape.org/namespaces/inkscape"
   height="400px"
   viewBox="0 0 400 400"
   width="400px"
   id="svg2"
   version="1.1"
   inkscape:version="0.48.2 r9819"
   sodipodi:docname="shgaus---------.svg">
  <metadata
     id="metadata10">
    <rdf:RDF>
      <cc:Work
         rdf:about="">
        <dc:format>image/svg+xml</dc:format>
        <dc:type
           rdf:resource="http://purl.org/dc/dcmitype/StillImage" />
      </cc:Work>
    </rdf:RDF>
  </metadata>
  <defs
     id="defs8" />
  <sodipodi:namedview
     pagecolor="#ffffff"
     bordercolor="#666666"
     borderopacity="1"
     objecttolerance="10"
     gridtolerance="10"
     guidetolerance="10"
     inkscape:pageopacity="0"
     inkscape:pageshadow="2"
     inkscape:window-width="640"
     inkscape:window-height="480"
     id="namedview6"
     showgrid="false"
     inkscape:zoom="0.59"
     inkscape:cx="200"
     inkscape:cy="200"
     inkscape:window-x="215"
     inkscape:window-y="112"
     inkscape:window-maximized="0"
     inkscape:current-layer="svg2" />
  <g
     style="font-size:90px;font-weight:bold;text-anchor:middle;fill:#ffffff;stroke:#000000;stroke-width:6;stroke-miterlimit:4;stroke-opacity:1;stroke-dasharray:12, 6;stroke-dashoffset:0;font-family:Arial"
     id="text4">
    <path
       inkscape:connector-curvature="0"
       d="m 155.13184,208.31348 12.6123,3.99902 c -1.93365,7.03126 -5.14898,12.25343 -9.646,15.6665 -4.49711,3.41309 -10.20267,5.11963 -17.11669,5.11963 -8.55472,0 -15.58596,-2.92236 -21.09375,-8.76709 -5.50782,-5.84471 -8.26173,-13.83542 -8.26172,-23.97217 -1e-5,-10.72261 2.76854,-19.05024 8.30566,-24.98291 5.53709,-5.93255 12.81736,-8.89886 21.84082,-8.89892 7.88082,6e-5 14.28218,2.32916 19.2041,6.9873 2.92963,2.75397 5.1269,6.70904 6.5918,11.86524 l -12.87598,3.07617 c -0.76176,-3.3398 -2.35112,-5.97651 -4.76806,-7.91016 -2.41704,-1.93354 -5.35404,-2.90033 -8.81104,-2.90039 -4.77542,6e-5 -8.64993,1.71392 -11.62353,5.1416 -2.97366,3.42778 -4.46047,8.97954 -4.46045,16.65528 -2e-5,8.14455 1.46482,13.94533 4.39453,17.40234 2.92966,3.45704 6.73825,5.18556 11.42578,5.18555 3.45699,1e-5 6.43062,-1.09862 8.9209,-3.2959 2.49019,-2.19725 4.27729,-5.65428 5.36133,-10.37109 z"
       style="font-size:90px;font-weight:bold;text-anchor:middle;fill:#ffffff;stroke:#000000;stroke-width:6;stroke-miterlimit:4;stroke-opacity:1;stroke-dasharray:12, 6;stroke-dashoffset:0;font-family:Arial"
       id="path2988" />
    <path
       inkscape:connector-curvature="0"
       d="m 175.6543,211.03809 12.65625,-1.23047 c 0.7617,4.24806 2.30711,7.36818 4.63623,9.36035 2.32908,1.9922 5.47116,2.98829 9.42627,2.98828 4.18942,1e-5 7.34615,-0.88622 9.47021,-2.65869 2.12398,-1.77245 3.18599,-3.8452 3.18604,-6.21826 -5e-5,-1.52342 -0.44682,-2.81981 -1.34034,-3.88916 -0.89359,-1.06932 -2.45365,-1.99949 -4.68017,-2.79053 -1.52347,-0.52732 -4.99515,-1.46482 -10.41504,-2.8125 -6.97268,-1.72849 -11.86525,-3.85251 -14.67773,-6.37207 -3.95509,-3.54488 -5.93263,-7.86617 -5.93262,-12.96387 -10e-6,-3.2812 0.93017,-6.35004 2.79053,-9.20654 1.86034,-2.85639 4.541,-5.03168 8.04199,-6.52588 3.50095,-1.49408 7.72702,-2.24115 12.67822,-2.24121 8.0859,6e-5 14.17232,1.77252 18.25928,5.31738 4.08686,3.54498 6.23285,8.27642 6.43799,14.19434 l -13.00782,0.57129 c -0.55668,-3.3105 -1.75052,-5.69087 -3.58154,-7.14112 -1.83109,-1.45014 -4.57767,-2.17523 -8.23975,-2.17529 -3.77932,6e-5 -6.7383,0.77642 -8.87695,2.3291 -1.37697,0.99615 -2.06545,2.32915 -2.06543,3.99903 -2e-5,1.52348 0.64451,2.82719 1.9336,3.91113 1.6406,1.37699 5.62497,2.81254 11.95312,4.30664 6.32809,1.49418 11.00826,3.03959 14.04053,4.63623 3.03218,1.59671 5.40522,3.77933 7.11914,6.54785 1.71381,2.76858 2.57074,6.18899 2.5708,10.26123 -6e-5,3.69142 -1.02545,7.14845 -3.07617,10.3711 -2.05083,3.22266 -4.95122,5.61767 -8.70117,7.18505 -3.75004,1.56739 -8.42289,2.35108 -14.01856,2.35108 -8.14455,0 -14.39943,-1.88233 -18.76465,-5.64697 -4.36524,-3.76464 -6.97266,-9.25048 -7.82226,-16.45752 z"
       style="font-size:90px;font-weight:bold;text-anchor:middle;fill:#ffffff;stroke:#000000;stroke-width:6;stroke-miterlimit:4;stroke-opacity:1;stroke-dasharray:12, 6;stroke-dashoffset:0;font-family:Arial"
       id="path2990" />
    <path
       inkscape:connector-curvature="0"
       d="m 235.77148,211.03809 12.65625,-1.23047 c 0.76171,4.24806 2.30712,7.36818 4.63623,9.36035 2.32908,1.9922 5.47117,2.98829 9.42627,2.98828 4.18942,1e-5 7.34616,-0.88622 9.47022,-2.65869 2.12398,-1.77245 3.18599,-3.8452 3.18603,-6.21826 -4e-5,-1.52342 -0.44682,-2.81981 -1.34033,-3.88916 -0.89359,-1.06932 -2.45365,-1.99949 -4.68017,-2.79053 -1.52348,-0.52732 -4.99515,-1.46482 -10.41504,-2.8125 -6.97268,-1.72849 -11.86525,-3.85251 -14.67774,-6.37207 -3.95508,-3.54488 -5.93262,-7.86617 -5.93261,-12.96387 -1e-5,-3.2812 0.93017,-6.35004 2.79052,-9.20654 1.86034,-2.85639 4.54101,-5.03168 8.042,-6.52588 3.50095,-1.49408 7.72702,-2.24115 12.67822,-2.24121 8.0859,6e-5 14.17232,1.77252 18.25928,5.31738 4.08686,3.54498 6.23285,8.27642 6.43798,14.19434 l -13.00781,0.57129 c -0.55668,-3.3105 -1.75053,-5.69087 -3.58154,-7.14112 -1.83109,-1.45014 -4.57767,-2.17523 -8.23975,-2.17529 -3.77932,6e-5 -6.7383,0.77642 -8.87695,2.3291 -1.37697,0.99615 -2.06545,2.32915 -2.06543,3.99903 -2e-5,1.52348 0.64451,2.82719 1.93359,3.91113 1.64061,1.37699 5.62498,2.81254 11.95313,4.30664 6.32808,1.49418 11.00826,3.03959 14.04053,4.63623 3.03217,1.59671 5.40522,3.77933 7.11914,6.54785 1.71381,2.76858 2.57074,6.18899 2.5708,10.26123 -6e-5,3.69142 -1.02545,7.14845 -3.07618,10.3711 -2.05083,3.22266 -4.95121,5.61767 -8.70117,7.18505 -3.75004,1.56739 -8.42288,2.35108 -14.01855,2.35108 -8.14455,0 -14.39943,-1.88233 -18.76465,-5.64697 -4.36524,-3.76464 -6.97266,-9.25048 -7.82227,-16.45752 z"
       style="font-size:90px;font-weight:bold;text-anchor:middle;fill:#ffffff;stroke:#000000;stroke-width:6;stroke-miterlimit:4;stroke-opacity:1;stroke-dasharray:12, 6;stroke-dashoffset:0;font-family:Arial"
       id="path2992" />
  </g>
</svg>
