<?xml version="1.0" encoding="UTF-8" standalone="no"?>
<!--
Copyright (C) 2012 United States Government as represented by the Administrator of the
National Aeronautics and Space Administration.
All Rights Reserved.
-->

<!--
MIL-STD-2525 tactical symbol icon image. During icon composition this image is multiplied by the desired frame color 
(e.g. black), then drawn on top of the frame and fill.
-->

<svg
   xmlns:dc="http://purl.org/dc/elements/1.1/"
   xmlns:cc="http://creativecommons.org/ns#"
   xmlns:rdf="http://www.w3.org/1999/02/22-rdf-syntax-ns#"
   xmlns:svg="http://www.w3.org/2000/svg"
   xmlns="http://www.w3.org/2000/svg"
   xmlns:sodipodi="http://sodipodi.sourceforge.net/DTD/sodipodi-0.dtd"
   xmlns:inkscape="http://www.inkscape.org/namespaces/inkscape"
   height="400px"
   viewBox="0 0 400 400"
   width="400px"
   id="svg2"
   version="1.1"
   inkscape:version="0.48.2 r9819"
   sodipodi:docname="shgairm--------.svg">
  <metadata
     id="metadata12">
    <rdf:RDF>
      <cc:Work
         rdf:about="">
        <dc:format>image/svg+xml</dc:format>
        <dc:type
           rdf:resource="http://purl.org/dc/dcmitype/StillImage" />
      </cc:Work>
    </rdf:RDF>
  </metadata>
  <defs
     id="defs10" />
  <sodipodi:namedview
     pagecolor="#ffffff"
     bordercolor="#666666"
     borderopacity="1"
     objecttolerance="10"
     gridtolerance="10"
     guidetolerance="10"
     inkscape:pageopacity="0"
     inkscape:pageshadow="2"
     inkscape:window-width="640"
     inkscape:window-height="480"
     id="namedview8"
     showgrid="false"
     inkscape:zoom="0.59"
     inkscape:cx="-2.5423729"
     inkscape:cy="200"
     inkscape:window-x="0"
     inkscape:window-y="0"
     inkscape:window-maximized="0"
     inkscape:current-layer="svg2" />
  <g
     transform="matrix(6,0,0,6,112.56437,117.95719)"
     id="g4"
     style="fill:#ffffff">
    <path
       d="M 3.746,3.412 C 3.41,3.652 2.904,4.324 2.232,5.43 1.848,6.15 1.512,6.51 1.225,6.51 1.176,6.51 0.959,6.463 0.577,6.365 c -0.049,0 -0.24,0 -0.576,0 C 0.384,4.744 1.319,3.279 2.808,1.967 4.295,0.656 5.662,0 6.912,0 7.295,0 8.519,0.398 10.584,1.195 7.619,1.383 5.658,1.85 4.701,2.6 4.3289376,2.8834034 3.9153665,3.2144398 3.746,3.412 z"
       style="fill:#ffffff"
       id="path6"
       inkscape:connector-curvature="0"
       sodipodi:nodetypes="ccscccsccc" />
  </g>
  <path
     style="fill:none;stroke:#ffffff;stroke-width:6.9000001;stroke-linecap:butt;stroke-linejoin:miter;stroke-miterlimit:4;stroke-opacity:1;stroke-dasharray:13.8, 6.9;stroke-dashoffset:0"
     d="m 139.27625,133.88941 144.70338,144.7034"
     id="path2989"
     inkscape:connector-curvature="0" />
  <g
     style="fill:#ffffff"
     id="g3790"
     transform="matrix(-6,0,0,6,287.43563,117.95719)">
    <path
       sodipodi:nodetypes="ccscccsccc"
       inkscape:connector-curvature="0"
       id="path3792"
       style="fill:#ffffff"
       d="M 3.746,3.412 C 3.41,3.652 2.904,4.324 2.232,5.43 1.848,6.15 1.512,6.51 1.225,6.51 1.176,6.51 0.959,6.463 0.577,6.365 c -0.049,0 -0.24,0 -0.576,0 C 0.384,4.744 1.319,3.279 2.808,1.967 4.295,0.656 5.662,0 6.912,0 7.295,0 8.519,0.398 10.584,1.195 7.619,1.383 5.658,1.85 4.701,2.6 4.3289376,2.8834034 3.9153665,3.2144398 3.746,3.412 z" />
  </g>
  <path
     inkscape:connector-curvature="0"
     id="path3794"
     d="M 260.72375,133.88941 116.02037,278.59281"
     style="fill:none;stroke:#ffffff;stroke-width:6.9000001;stroke-linecap:butt;stroke-linejoin:miter;stroke-miterlimit:4;stroke-opacity:1;stroke-dasharray:13.8, 6.9;stroke-dashoffset:0" />
</svg>
