<?xml version="1.0"?>
<!--
Copyright 2006-2009, 2017, 2020 United States Government, as represented by the
Administrator of the National Aeronautics and Space Administration.
All rights reserved.

The NASA World Wind Java (WWJ) platform is licensed under the Apache License,
Version 2.0 (the "License"); you may not use this file except in compliance
with the License. You may obtain a copy of the License at
http://www.apache.org/licenses/LICENSE-2.0

Unless required by applicable law or agreed to in writing, software distributed
under the License is distributed on an "AS IS" BASIS, WITHOUT WARRANTIES OR
CONDITIONS OF ANY KIND, either express or implied. See the License for the
specific language governing permissions and limitations under the License.

NASA World Wind Java (WWJ) also contains the following 3rd party Open Source
software:

    Jackson Parser – Licensed under Apache 2.0
    GDAL – Licensed under MIT
    JOGL – Licensed under  Berkeley Software Distribution (BSD)
    Gluegen – Licensed under Berkeley Software Distribution (BSD)

A complete listing of 3rd Party software notices and licenses included in
NASA World Wind Java (WWJ)  can be found in the WorldWindJava-v2.2 3rd-party
notices and licenses PDF found in code directory.
-->

<!DOCTYPE svg PUBLIC "-//W3C//DTD SVG 1.1//EN" "http://www.w3.org/Graphics/SVG/1.1/DTD/svg11.dtd" >
<!--
MIL-STD-2525 tactical symbol icon image. During icon composition this image is multiplied by the desired frame color 
(e.g. black), then drawn on top of the frame and fill.
-->
<svg xmlns:xlink="http://www.w3.org/1999/xlink" height="400px" viewBox="0 0 400 400" width="400px"><g transform="translate(106 155) scale(5 5)"><path d="M37.656 9.836 C37.271 10.223 36.886 10.414 36.504 10.414 L30.455 9.191 C29.975 9.433     29.256 9.746 28.295 10.13 C26.807 10.419 24.576 10.948 21.6 11.718 L34.272     16.845 C33.887 17.23 33.024 17.615 31.68 17.999 L15.192 13.149 C13.321 13.583     11.448 14.038 9.577 14.516 C5.975 15.381 3.696 15.813 2.737 15.813 C0.912     15.814 0 15.504 0 14.879 C0 14.447 0.336 13.859 1.008 13.115 C1.68 12.371     2.256 11.951 2.737 11.855 C4.991 11.279 8.352 10.486 12.817 9.478 C13.249 8.134     13.944 6.046 14.905 3.214 C15.624 2.927 16.225 2.735 16.706 2.638 C16.706     4.56 16.849 6.527 17.138 8.542 C19.633 8.012 22.92 7.24 27 6.227 C27.238     6.131 27.432 5.817 27.576 5.286 C27.767 4.466 27.863 4.032 27.863 3.983 C28.152     3.936 28.535 3.815 29.015 3.62 C29.351 2.897 29.855 1.956 30.527 0.798 C30.574     0.798 31.367 0.532 32.904 0.001 L31.463 7.378 z" style="fill:rgb(255,255,255)"/></g></svg>