<?xml version="1.0"?>
<!--
Copyright 2006-2009, 2017, 2020 United States Government, as represented by the
Administrator of the National Aeronautics and Space Administration.
All rights reserved.

The NASA World Wind Java (WWJ) platform is licensed under the Apache License,
Version 2.0 (the "License"); you may not use this file except in compliance
with the License. You may obtain a copy of the License at
http://www.apache.org/licenses/LICENSE-2.0

Unless required by applicable law or agreed to in writing, software distributed
under the License is distributed on an "AS IS" BASIS, WITHOUT WARRANTIES OR
CONDITIONS OF ANY KIND, either express or implied. See the License for the
specific language governing permissions and limitations under the License.

NASA World Wind Java (WWJ) also contains the following 3rd party Open Source
software:

    Jackson Parser – Licensed under Apache 2.0
    GDAL – Licensed under MIT
    JOGL – Licensed under  Berkeley Software Distribution (BSD)
    Gluegen – Licensed under Berkeley Software Distribution (BSD)

A complete listing of 3rd Party software notices and licenses included in
NASA World Wind Java (WWJ)  can be found in the WorldWindJava-v2.2 3rd-party
notices and licenses PDF found in code directory.
-->

<!DOCTYPE svg PUBLIC "-//W3C//DTD SVG 1.1//EN" "http://www.w3.org/Graphics/SVG/1.1/DTD/svg11.dtd" >
<!--
MIL-STD-2525 tactical symbol icon image. During icon composition this image is multiplied by the desired frame color 
(e.g. black), then drawn on top of the frame and fill.
-->
<svg xmlns:xlink="http://www.w3.org/1999/xlink" height="400px" viewBox="0 0 400 400" width="400px"><g transform="translate(158 91) scale(6.5 6)"><path d="M0 7.75 L1.75 7.75 L1.75 21 L0 21 zM12.178 33.297 L10.801 34.75 L6.77 30.623 L2.592    34.75 L1.233 33.457 L6.704 27.877 zM6 13.375 L6 11.344 L1.75 11.344 L1.75    13.375 zM6 17.68 L6 15.625 L1.75 15.625 L1.75 17.68 zM7.625 0 L7.625 28.75 L5.75    28.75 L5.75 0 C6.305 -0.047 6.93 -0.047 7.625 0 zM11.5 13.375 L11.5 11.271    L7.625 11.341 L7.625 13.374 L11.5 13.374 zM11.5 17.682 L11.5 15.625 L7.625    15.625 L7.625 17.752 zM11.5 7.75 L13.375 7.75 L13.375 21 L11.5 21 z" style="fill:rgb(255,255,255)"/></g></svg>