<?xml version="1.0"?>
<!--
Copyright 2006-2009, 2017, 2020 United States Government, as represented by the
Administrator of the National Aeronautics and Space Administration.
All rights reserved.

The NASA World Wind Java (WWJ) platform is licensed under the Apache License,
Version 2.0 (the "License"); you may not use this file except in compliance
with the License. You may obtain a copy of the License at
http://www.apache.org/licenses/LICENSE-2.0

Unless required by applicable law or agreed to in writing, software distributed
under the License is distributed on an "AS IS" BASIS, WITHOUT WARRANTIES OR
CONDITIONS OF ANY KIND, either express or implied. See the License for the
specific language governing permissions and limitations under the License.

NASA World Wind Java (WWJ) also contains the following 3rd party Open Source
software:

    Jackson Parser – Licensed under Apache 2.0
    GDAL – Licensed under MIT
    JOGL – Licensed under  Berkeley Software Distribution (BSD)
    Gluegen – Licensed under Berkeley Software Distribution (BSD)

A complete listing of 3rd Party software notices and licenses included in
NASA World Wind Java (WWJ)  can be found in the WorldWindJava-v2.2 3rd-party
notices and licenses PDF found in code directory.
-->
<!--
MIL-STD-2525 tactical symbol icon image. During icon composition this image is multiplied by the desired frame color 
(e.g. black), then drawn on top of the frame and fill.
-->
<!DOCTYPE svg PUBLIC "-//W3C//DTD SVG 1.1//EN" "http://www.w3.org/Graphics/SVG/1.1/DTD/svg11.dtd" >
<svg xmlns:xlink="http://www.w3.org/1999/xlink" height="400px" viewBox="0 0 400 400" width="400px"><polygon points="180,130 180,95 220,95 220,130" style="fill:rgb(255,255,255);stroke:rgb(0,0,0);stroke-width:10;stroke-dasharray:10"/><polygon points="180,218 180,183 220,183 220,218" style="fill:rgb(255,255,255);stroke:rgb(0,0,0);stroke-width:10;stroke-dasharray:10" transform="matrix(1 0 0 1 0 0) translate(-45.4545 -54.9091) translate(-6.4 -6) rotate(315.02 200 200.5) translate(0.282134 -1.98) translate(-0.00121416 -3.39411)"/><polygon points="222,227 222,192 262,192 262,227" style="fill:rgb(255,255,255);stroke:rgb(0,0,0);stroke-width:10;stroke-dasharray:10" transform="matrix(1 0 0 1 0 0) translate(10.4 -71.6) rotate(44.8803 242 209.5) translate(0.0070909 -3.39411)"/><circle cx="200" cy="190" r="70" style="fill:rgb(255,255,255);stroke:rgb(0,0,0);stroke-width:10;stroke-dasharray:10" transform="matrix(1 0 0 1 0 0)"/><line style="stroke:rgb(0,0,0);stroke-width:10;stroke-dasharray:10" x1="270" x2="300" y1="190" y2="190"/><line style="stroke:rgb(0,0,0);stroke-width:10;stroke-dasharray:10" x1="130" x2="100" y1="190" y2="190"/></svg>
