<?xml version="1.0" encoding="UTF-8" standalone="no"?>
<!--
Copyright (C) 2012 United States Government as represented by the Administrator of the
National Aeronautics and Space Administration.
All Rights Reserved.
-->

<!--
MIL-STD-2525 tactical symbol icon image. During icon composition this image is multiplied by the desired frame color 
(e.g. black), then drawn on top of the frame and fill.
-->

<svg
   xmlns:dc="http://purl.org/dc/elements/1.1/"
   xmlns:cc="http://creativecommons.org/ns#"
   xmlns:rdf="http://www.w3.org/1999/02/22-rdf-syntax-ns#"
   xmlns:svg="http://www.w3.org/2000/svg"
   xmlns="http://www.w3.org/2000/svg"
   xmlns:sodipodi="http://sodipodi.sourceforge.net/DTD/sodipodi-0.dtd"
   xmlns:inkscape="http://www.inkscape.org/namespaces/inkscape"
   height="400px"
   viewBox="0 0 400 400"
   width="400px"
   id="svg2"
   version="1.1"
   inkscape:version="0.48.2 r9819"
   sodipodi:docname="snaamhj--------.svg">
  <metadata
     id="metadata14">
    <rdf:RDF>
      <cc:Work
         rdf:about="">
        <dc:format>image/svg+xml</dc:format>
        <dc:type
           rdf:resource="http://purl.org/dc/dcmitype/StillImage" />
      </cc:Work>
    </rdf:RDF>
  </metadata>
  <defs
     id="defs12" />
  <sodipodi:namedview
     pagecolor="#ffffff"
     bordercolor="#666666"
     borderopacity="1"
     objecttolerance="10"
     gridtolerance="10"
     guidetolerance="10"
     inkscape:pageopacity="0"
     inkscape:pageshadow="2"
     inkscape:window-width="705"
     inkscape:window-height="480"
     id="namedview10"
     showgrid="false"
     inkscape:zoom="0.59"
     inkscape:cx="200"
     inkscape:cy="200"
     inkscape:window-x="110"
     inkscape:window-y="52"
     inkscape:window-maximized="0"
     inkscape:current-layer="svg2" />
  <g
     transform="matrix(0.5,0,0,0.5,100,39.999995)"
     id="g6"
     style="stroke:none">
    <g
       style="font-size:150px;font-weight:bold;text-anchor:middle;fill:#ffffff;stroke:none;font-family:Arial"
       id="text8">
      <path
         inkscape:connector-curvature="0"
         d="m 207.91016,122.62695 21.60644,0 0,67.96875 c -7e-5,8.88675 -0.78132,15.72268 -2.34375,20.50782 -2.09967,6.25001 -5.90826,11.26709 -11.42578,15.05127 -5.51763,3.78417 -12.79301,5.67626 -21.82617,5.67626 -10.59573,0 -18.75002,-2.9663 -24.46289,-8.89892 -5.7129,-5.93261 -8.59375,-14.63621 -8.64258,-26.11084 L 181.25,194.47754 c 0.24412,6.15237 1.14744,10.49807 2.70996,13.03711 2.34372,3.85744 5.90817,5.78615 10.69336,5.78613 4.83394,2e-5 8.25191,-1.37938 10.25391,-4.13818 2.0019,-2.75877 3.00288,-8.48386 3.00293,-17.1753 z"
         style="font-size:150px;font-weight:bold;text-anchor:middle;fill:#ffffff;stroke:none;font-family:Arial"
         id="path2999" />
    </g>
  </g>
  <path
     inkscape:connector-curvature="0"
     style="fill:#ffffff;stroke:#000000;stroke-width:6;stroke-miterlimit:4;stroke-opacity:1;stroke-dasharray:12, 6;stroke-dashoffset:0"
     d="M 200,199.99999 110,150 l 0,99.99999 90,-50 L 290,150 l 0,99.99999 -90,-50"
     id="polyline4" />
</svg>
