<?xml version="1.0" encoding="UTF-8" standalone="no"?>
<!--
Copyright (C) 2012 United States Government as represented by the Administrator of the
National Aeronautics and Space Administration.
All Rights Reserved.
-->

<!--
MIL-STD-2525 tactical symbol icon image. During icon composition this image is multiplied by the desired frame color 
(e.g. black), then drawn on top of the frame and fill.
-->

<svg
   xmlns:dc="http://purl.org/dc/elements/1.1/"
   xmlns:cc="http://creativecommons.org/ns#"
   xmlns:rdf="http://www.w3.org/1999/02/22-rdf-syntax-ns#"
   xmlns:svg="http://www.w3.org/2000/svg"
   xmlns="http://www.w3.org/2000/svg"
   xmlns:sodipodi="http://sodipodi.sourceforge.net/DTD/sodipodi-0.dtd"
   xmlns:inkscape="http://www.inkscape.org/namespaces/inkscape"
   height="400px"
   viewBox="0 0 400 400"
   width="400px"
   id="svg2"
   version="1.1"
   inkscape:version="0.48.2 r9819"
   sodipodi:docname="snaamv---------.svg">
  <metadata
     id="metadata10">
    <rdf:RDF>
      <cc:Work
         rdf:about="">
        <dc:format>image/svg+xml</dc:format>
        <dc:type
           rdf:resource="http://purl.org/dc/dcmitype/StillImage" />
      </cc:Work>
    </rdf:RDF>
  </metadata>
  <defs
     id="defs8" />
  <sodipodi:namedview
     pagecolor="#ffffff"
     bordercolor="#666666"
     borderopacity="1"
     objecttolerance="10"
     gridtolerance="10"
     guidetolerance="10"
     inkscape:pageopacity="0"
     inkscape:pageshadow="2"
     inkscape:window-width="640"
     inkscape:window-height="480"
     id="namedview6"
     showgrid="false"
     inkscape:zoom="0.59"
     inkscape:cx="200"
     inkscape:cy="200"
     inkscape:window-x="183"
     inkscape:window-y="93"
     inkscape:window-maximized="0"
     inkscape:current-layer="svg2" />
  <g
     style="font-size:95px;font-weight:bold;text-anchor:middle;fill:#ffffff;stroke:#000000;stroke-width:6;stroke-miterlimit:4;stroke-opacity:1;stroke-dasharray:12, 6;stroke-dashoffset:0;font-family:arial"
     id="text3772">
    <path
       inkscape:connector-curvature="0"
       d="m 147.62939,235 -24.30664,-68.00293 14.89014,0 17.20947,50.32959 16.65284,-50.32959 14.56542,0 L 162.2876,235 z"
       style="font-size:95px;font-weight:bold;text-anchor:middle;fill:#ffffff;stroke:#000000;stroke-width:6;stroke-miterlimit:4;stroke-opacity:1;stroke-dasharray:12, 6;stroke-dashoffset:0;font-family:arial"
       id="path3781" />
    <path
       inkscape:connector-curvature="0"
       d="m 193.32031,235 0,-68.00293 13.73047,0 0,68.00293 z"
       style="font-size:95px;font-weight:bold;text-anchor:middle;fill:#ffffff;stroke:#000000;stroke-width:6;stroke-miterlimit:4;stroke-opacity:1;stroke-dasharray:12, 6;stroke-dashoffset:0;font-family:arial"
       id="path3783" />
    <path
       inkscape:connector-curvature="0"
       d="m 220.08545,235 0,-68.00293 22.03369,0 c 8.34957,7e-5 13.79228,0.34024 16.32813,1.02051 3.89643,1.02057 7.15896,3.2394 9.78759,6.65649 2.62853,3.41721 3.94282,7.83168 3.94287,13.24341 -5e-5,4.17485 -0.7577,7.68477 -2.27294,10.52979 -1.51536,2.84508 -3.44041,5.07937 -5.77515,6.70288 -2.33485,1.62356 -4.7083,2.69818 -7.12036,3.22387 -3.27804,0.64944 -8.02494,0.97415 -14.24073,0.97412 l -8.95263,0 0,25.65186 z m 13.73047,-56.49902 0,19.29687 7.51465,0 c 5.41175,4e-5 9.02991,-0.35559 10.85449,-1.06689 1.8245,-0.71123 3.25476,-1.82451 4.29077,-3.33985 1.03593,-1.51525 1.55391,-3.27795 1.55396,-5.28808 -5e-5,-2.47391 -0.72677,-4.51493 -2.18018,-6.12305 -1.45349,-1.60802 -3.2935,-2.61306 -5.52002,-3.01514 -1.63903,-0.30918 -4.93249,-0.46381 -9.88037,-0.46386 z"
       style="font-size:95px;font-weight:bold;text-anchor:middle;fill:#ffffff;stroke:#000000;stroke-width:6;stroke-miterlimit:4;stroke-opacity:1;stroke-dasharray:12, 6;stroke-dashoffset:0;font-family:arial"
       id="path3785" />
  </g>
</svg>
