<?xml version="1.0" encoding="UTF-8" standalone="no"?>
<!--
Copyright (C) 2012 United States Government as represented by the Administrator of the
National Aeronautics and Space Administration.
All Rights Reserved.
-->

<!--
MIL-STD-2525 tactical symbol icon image. During icon composition this image is multiplied by the desired frame color 
(e.g. black), then drawn on top of the frame and fill.
-->

<svg
   xmlns:dc="http://purl.org/dc/elements/1.1/"
   xmlns:cc="http://creativecommons.org/ns#"
   xmlns:rdf="http://www.w3.org/1999/02/22-rdf-syntax-ns#"
   xmlns:svg="http://www.w3.org/2000/svg"
   xmlns="http://www.w3.org/2000/svg"
   xmlns:sodipodi="http://sodipodi.sourceforge.net/DTD/sodipodi-0.dtd"
   xmlns:inkscape="http://www.inkscape.org/namespaces/inkscape"
   height="400px"
   viewBox="0 0 400 400"
   width="400px"
   id="svg2"
   version="1.1"
   inkscape:version="0.48.2 r9819"
   sodipodi:docname="snfagc---------.svg">
  <metadata
     id="metadata10">
    <rdf:RDF>
      <cc:Work
         rdf:about="">
        <dc:format>image/svg+xml</dc:format>
        <dc:type
           rdf:resource="http://purl.org/dc/dcmitype/StillImage" />
      </cc:Work>
    </rdf:RDF>
  </metadata>
  <defs
     id="defs8" />
  <sodipodi:namedview
     pagecolor="#ffffff"
     bordercolor="#666666"
     borderopacity="1"
     objecttolerance="10"
     gridtolerance="10"
     guidetolerance="10"
     inkscape:pageopacity="0"
     inkscape:pageshadow="2"
     inkscape:window-width="640"
     inkscape:window-height="480"
     id="namedview6"
     showgrid="false"
     inkscape:zoom="0.59"
     inkscape:cx="200"
     inkscape:cy="200"
     inkscape:window-x="142"
     inkscape:window-y="67"
     inkscape:window-maximized="0"
     inkscape:current-layer="svg2" />
  <g
     style="font-size:90px;fill:#ffffff;stroke:#000000;stroke-width:6;stroke-miterlimit:4;stroke-opacity:1;stroke-dasharray:12, 6;stroke-dashoffset:0;font-family:Arial"
     id="text4">
    <path
       inkscape:connector-curvature="0"
       d="m 192.91016,210.41211 8.52539,2.15332 c -1.78717,7.00197 -5.0025,12.34132 -9.646,16.01807 -4.6436,3.67675 -10.31986,5.51513 -17.02881,5.51513 -6.94339,0 -12.59035,-1.41357 -16.94092,-4.24072 -4.3506,-2.82714 -7.66114,-6.92138 -9.93164,-12.28271 -2.27051,-5.36131 -3.40576,-11.11814 -3.40576,-17.27051 0,-6.70895 1.28173,-12.56099 3.84522,-17.55615 2.56346,-4.99507 6.21092,-8.78901 10.94238,-11.38184 4.73142,-2.59271 9.93894,-3.8891 15.62256,-3.88916 6.44527,6e-5 11.86519,1.64069 16.25976,4.92187 4.39448,3.28131 7.456,7.89556 9.18457,13.84278 l -8.39355,1.97754 c -1.49419,-4.68745 -3.66216,-8.10054 -6.50391,-10.23926 -2.84184,-2.13862 -6.41605,-3.20795 -10.72265,-3.20801 -4.9512,6e-5 -9.08938,1.18658 -12.41455,3.55957 -3.32522,2.3731 -5.66164,5.55913 -7.00928,9.55811 -1.34767,3.99906 -2.0215,8.12259 -2.02149,12.3706 -1e-5,5.47855 0.79833,10.26126 2.39502,14.34815 1.59667,4.08693 4.07957,7.14112 7.44873,9.16259 3.36912,2.0215 7.01658,3.03224 10.94239,3.03223 4.77535,1e-5 8.81831,-1.37694 12.1289,-4.13086 3.3105,-2.75389 5.55171,-6.8408 6.72364,-12.26074 z"
       style="font-size:90px;fill:#ffffff;stroke:#000000;stroke-width:6;stroke-miterlimit:4;stroke-opacity:1;stroke-dasharray:12, 6;stroke-dashoffset:0;font-family:Arial"
       id="path2988" />
    <path
       inkscape:connector-curvature="0"
       d="m 204.90723,233 24.74121,-64.42383 9.18457,0 L 265.2002,233 l -9.71192,0 -7.51465,-19.51172 -26.93847,0 L 213.95996,233 z m 18.58886,-26.45508 21.84082,0 -6.72363,-17.8418 c -2.05081,-5.41987 -3.57425,-9.87299 -4.57031,-13.35937 -0.82034,4.13091 -1.97757,8.23247 -3.47168,12.30469 z"
       style="font-size:90px;fill:#ffffff;stroke:#000000;stroke-width:6;stroke-miterlimit:4;stroke-opacity:1;stroke-dasharray:12, 6;stroke-dashoffset:0;font-family:Arial"
       id="path2990" />
  </g>
</svg>
