<?xml version="1.0" encoding="UTF-8" standalone="no"?>
<!--
Copyright (C) 2012 United States Government as represented by the Administrator of the
National Aeronautics and Space Administration.
All Rights Reserved.
-->

<!--
MIL-STD-2525 tactical symbol icon image. During icon composition this image is multiplied by the desired frame color 
(e.g. black), then drawn on top of the frame and fill.
-->

<svg
   xmlns:dc="http://purl.org/dc/elements/1.1/"
   xmlns:cc="http://creativecommons.org/ns#"
   xmlns:rdf="http://www.w3.org/1999/02/22-rdf-syntax-ns#"
   xmlns:svg="http://www.w3.org/2000/svg"
   xmlns="http://www.w3.org/2000/svg"
   xmlns:sodipodi="http://sodipodi.sourceforge.net/DTD/sodipodi-0.dtd"
   xmlns:inkscape="http://www.inkscape.org/namespaces/inkscape"
   height="400px"
   viewBox="0 0 400 400"
   width="400px"
   id="svg2"
   version="1.1"
   inkscape:version="0.48.2 r9819"
   sodipodi:docname="sngaese--------.svg">
  <metadata
     id="metadata12">
    <rdf:RDF>
      <cc:Work
         rdf:about="">
        <dc:format>image/svg+xml</dc:format>
        <dc:type
           rdf:resource="http://purl.org/dc/dcmitype/StillImage" />
      </cc:Work>
    </rdf:RDF>
  </metadata>
  <defs
     id="defs10" />
  <sodipodi:namedview
     pagecolor="#ffffff"
     bordercolor="#666666"
     borderopacity="1"
     objecttolerance="10"
     gridtolerance="10"
     guidetolerance="10"
     inkscape:pageopacity="0"
     inkscape:pageshadow="2"
     inkscape:window-width="640"
     inkscape:window-height="480"
     id="namedview8"
     showgrid="false"
     inkscape:zoom="0.59"
     inkscape:cx="200"
     inkscape:cy="200"
     inkscape:window-x="265"
     inkscape:window-y="130"
     inkscape:window-maximized="0"
     inkscape:current-layer="svg2" />
  <path
     inkscape:connector-curvature="0"
     d="m 280.92,213.75 c -0.955,-0.235 -5.285,1.445 -12.96,5.04 -5.04,2.17 -10.8,5.525 -17.285,10.09 -23.515,15.605 -40.195,36.855 -50.04,63.75 -0.48,0 -1.075,-0.605 -1.795,-1.795 -8.885,-26.405 -26.885,-48.38 -53.995,-65.92 -6.005,-3.845 -14.29,-7.68 -24.845,-11.53 -0.245,-0.48 -0.245,-0.84 0,-1.075 2.635,-1.2 6.355,-2.765 11.16,-4.69 12.235,-4.315 25.315,-13.8 39.24,-28.445 13.915,-14.65 23.035,-28.33 27.365,-41.065 0.715,-1.68 1.67,-3.475 2.87,-5.4 4.08,12.735 11.76,26.055 23.045,39.98 12.235,14.885 24.715,25.33 37.44,31.33 2.635,1.445 7.19,3.615 13.67,6.485 1.92,0.245 3.96,1.33 6.13,3.245 z m -17.64,-88.595 -6.825,4.66 -10.585,-11.465 -22.55,22.735 -22.42,-22.94 -23.81,23.065 -23.895,-24.415 -12.295,12.315 -6.145,-4.315 18.36,-17.795 23.76,24.27 23.76,-23.035 23.41,23.035 22.315,-23.035 z"
     style="fill:#ffffff;stroke:#000000;stroke-width:5;stroke-miterlimit:4;stroke-opacity:1;stroke-dasharray:10, 5;stroke-dashoffset:0"
     id="path6" />
</svg>
