<?xml version="1.0" encoding="UTF-8" standalone="no"?>
<!--
Copyright (C) 2012 United States Government as represented by the Administrator of the
National Aeronautics and Space Administration.
All Rights Reserved.
-->

<!--
MIL-STD-2525 tactical symbol icon image. During icon composition this image is multiplied by the desired frame color 
(e.g. black), then drawn on top of the frame and fill.
-->

<svg
   xmlns:dc="http://purl.org/dc/elements/1.1/"
   xmlns:cc="http://creativecommons.org/ns#"
   xmlns:rdf="http://www.w3.org/1999/02/22-rdf-syntax-ns#"
   xmlns:svg="http://www.w3.org/2000/svg"
   xmlns="http://www.w3.org/2000/svg"
   xmlns:sodipodi="http://sodipodi.sourceforge.net/DTD/sodipodi-0.dtd"
   xmlns:inkscape="http://www.inkscape.org/namespaces/inkscape"
   height="400px"
   viewBox="0 0 400 400"
   width="400px"
   id="svg2"
   version="1.1"
   inkscape:version="0.48.2 r9819"
   sodipodi:docname="sngausa--------.svg">
  <metadata
     id="metadata10">
    <rdf:RDF>
      <cc:Work
         rdf:about="">
        <dc:format>image/svg+xml</dc:format>
        <dc:type
           rdf:resource="http://purl.org/dc/dcmitype/StillImage" />
      </cc:Work>
    </rdf:RDF>
  </metadata>
  <defs
     id="defs8" />
  <sodipodi:namedview
     pagecolor="#ffffff"
     bordercolor="#666666"
     borderopacity="1"
     objecttolerance="10"
     gridtolerance="10"
     guidetolerance="10"
     inkscape:pageopacity="0"
     inkscape:pageshadow="2"
     inkscape:window-width="705"
     inkscape:window-height="480"
     id="namedview6"
     showgrid="false"
     inkscape:zoom="0.59"
     inkscape:cx="200"
     inkscape:cy="200"
     inkscape:window-x="98"
     inkscape:window-y="104"
     inkscape:window-maximized="0"
     inkscape:current-layer="svg2" />
  <g
     style="font-size:90px;font-weight:bold;text-anchor:middle;fill:#ffffff;font-family:Arial;stroke:#000000;stroke-opacity:1;stroke-width:6;stroke-miterlimit:4;stroke-dasharray:12,6;stroke-dashoffset:0"
     id="text4">
    <path
       d="m 162.0752,232 -14.1504,0 -5.625,-14.63379 -25.75195,0 -5.31738,14.63379 -13.798829,0 25.092769,-64.42383 13.75489,0 z m -23.9502,-25.48828 -8.87695,-23.90625 -8.70117,23.90625 z"
       style="font-size:90px;font-weight:bold;text-anchor:middle;fill:#ffffff;font-family:Arial;stroke:#000000;stroke-opacity:1;stroke-width:6;stroke-miterlimit:4;stroke-dasharray:12,6;stroke-dashoffset:0"
       id="path2988" />
    <path
       d="m 168.97461,167.57617 23.77441,0 c 5.3613,7e-5 9.44821,0.41022 12.26075,1.23047 3.77925,1.11334 7.01655,3.09088 9.71191,5.93262 2.69526,2.84185 4.74604,6.32085 6.15234,10.43701 1.40619,4.11625 2.10932,9.19193 2.10938,15.22705 -6e-5,5.30276 -0.65924,9.87307 -1.97754,13.71094 -1.61139,4.68751 -3.91119,8.48145 -6.89941,11.38183 -2.25591,2.19727 -5.30279,3.91114 -9.14063,5.14161 C 202.09469,231.5459 198.2568,232 193.45215,232 l -24.47754,0 z m 13.00781,10.89844 0,42.6709 9.71192,0 c 3.63278,1e-5 6.25484,-0.20507 7.86621,-0.61524 2.10933,-0.52733 3.85982,-1.42088 5.25146,-2.68066 1.39156,-1.25975 2.52681,-3.3325 3.40576,-6.21826 0.87886,-2.88572 1.31832,-6.81882 1.31836,-11.79932 -4e-5,-4.98043 -0.4395,-8.80367 -1.31836,-11.46973 -0.87895,-2.66596 -2.10942,-4.74604 -3.6914,-6.24023 -1.58207,-1.49409 -3.58891,-2.50483 -6.02051,-3.03223 -1.81644,-0.4101 -5.37601,-0.61518 -10.67871,-0.61523 z"
       style="font-size:90px;font-weight:bold;text-anchor:middle;fill:#ffffff;font-family:Arial;stroke:#000000;stroke-opacity:1;stroke-width:6;stroke-miterlimit:4;stroke-dasharray:12,6;stroke-dashoffset:0"
       id="path2990" />
    <path
       d="m 233.88184,232 0,-64.42383 19.46777,0 11.68945,43.94531 11.55762,-43.94531 19.51172,0 0,64.42383 -12.08496,0 0,-50.71289 L 271.23535,232 l -12.52441,0 -12.74414,-50.71289 0,50.71289 z"
       style="font-size:90px;font-weight:bold;text-anchor:middle;fill:#ffffff;font-family:Arial;stroke:#000000;stroke-opacity:1;stroke-width:6;stroke-miterlimit:4;stroke-dasharray:12,6;stroke-dashoffset:0"
       id="path2992" />
  </g>
</svg>
