<?xml version="1.0" encoding="UTF-8" standalone="no"?>
<!--
Copyright (C) 2012 United States Government as represented by the Administrator of the
National Aeronautics and Space Administration.
All Rights Reserved.
-->

<!--
MIL-STD-2525 tactical symbol icon image. During icon composition this image is multiplied by the desired frame color 
(e.g. black), then drawn on top of the frame and fill.
-->

<svg
   xmlns:dc="http://purl.org/dc/elements/1.1/"
   xmlns:cc="http://creativecommons.org/ns#"
   xmlns:rdf="http://www.w3.org/1999/02/22-rdf-syntax-ns#"
   xmlns:svg="http://www.w3.org/2000/svg"
   xmlns="http://www.w3.org/2000/svg"
   xmlns:sodipodi="http://sodipodi.sourceforge.net/DTD/sodipodi-0.dtd"
   xmlns:inkscape="http://www.inkscape.org/namespaces/inkscape"
   height="400px"
   viewBox="0 0 400 400"
   width="400px"
   id="svg2"
   version="1.1"
   inkscape:version="0.48.2 r9819"
   sodipodi:docname="sngauuso-------.svg">
  <metadata
     id="metadata14">
    <rdf:RDF>
      <cc:Work
         rdf:about="">
        <dc:format>image/svg+xml</dc:format>
        <dc:type
           rdf:resource="http://purl.org/dc/dcmitype/StillImage" />
      </cc:Work>
    </rdf:RDF>
  </metadata>
  <defs
     id="defs12" />
  <sodipodi:namedview
     pagecolor="#ffffff"
     bordercolor="#666666"
     borderopacity="1"
     objecttolerance="10"
     gridtolerance="10"
     guidetolerance="10"
     inkscape:pageopacity="0"
     inkscape:pageshadow="2"
     inkscape:window-width="640"
     inkscape:window-height="480"
     id="namedview10"
     showgrid="false"
     inkscape:zoom="0.59"
     inkscape:cx="200"
     inkscape:cy="200"
     inkscape:window-x="0"
     inkscape:window-y="0"
     inkscape:window-maximized="0"
     inkscape:current-layer="svg2" />
  <polyline
     points="68,68 200,220 200,180 332,332"
     style="fill:none;stroke:rgb(255,255,255);stroke-width:10;stroke-dasharray:10"
     id="polyline4" />
  <g
     transform="translate(100 20) scale(0.6 0.6)"
     id="g6">
    <g
       style="font-size:90px;font-weight:bold;text-anchor:middle;fill:#ffffff;font-family:Arial"
       id="text8">
      <path
         d="m 108.81348,200.18359 c -1e-5,-6.56246 0.98144,-12.07026 2.94433,-16.52343 1.46484,-3.2812 3.46435,-6.22554 5.99854,-8.83301 2.53416,-2.60736 5.31004,-4.54096 8.32763,-5.80078 4.01365,-1.69916 8.64255,-2.54877 13.88672,-2.54883 9.49215,6e-5 17.08735,2.9444 22.78565,8.83301 5.69818,5.88872 8.54729,14.07719 8.54736,24.56543 -7e-5,10.40041 -2.82721,18.53761 -8.48144,24.41162 -5.65435,5.87402 -13.21294,8.81103 -22.67579,8.81103 -9.5801,0 -17.19728,-2.92236 -22.85156,-8.76709 -5.6543,-5.84471 -8.48145,-13.89402 -8.48144,-24.14795 z m 13.40332,-0.43945 c -2e-5,7.29495 1.68455,12.82473 5.05371,16.58936 3.36911,3.76466 7.64645,5.64698 12.83203,5.64697 5.18551,1e-5 9.44087,-1.86767 12.76611,-5.60303 3.32515,-3.73533 4.98774,-9.33835 4.9878,-16.80908 -6e-5,-7.38277 -1.61871,-12.89058 -4.85596,-16.52344 -3.23735,-3.63276 -7.53666,-5.44916 -12.89795,-5.44922 -5.36136,6e-5 -9.68264,1.83843 -12.96387,5.51514 -3.28127,3.6768 -4.92189,9.22123 -4.92187,16.6333 z"
         style="font-size:90px;font-weight:bold;text-anchor:middle;fill:#ffffff;font-family:Arial"
         id="path2992" />
      <path
         d="m 181.41113,232 0,-64.42383 20.87403,0 c 7.91012,7e-5 13.06636,0.32233 15.46875,0.9668 3.69136,0.96686 6.78217,3.06891 9.27246,6.30615 2.49018,3.23736 3.73529,7.41948 3.73535,12.54639 -6e-5,3.95512 -0.71783,7.28031 -2.15332,9.97558 -1.4356,2.69535 -3.25933,4.81205 -5.47119,6.3501 -2.21196,1.53811 -4.4605,2.55618 -6.74561,3.0542 -3.10551,0.61526 -7.60257,0.92288 -13.49121,0.92285 l -8.48144,0 0,24.30176 z m 13.00782,-53.52539 0,18.28125 7.11914,0 c 5.12692,3e-5 8.55465,-0.33688 10.2832,-1.01074 1.72848,-0.67379 3.08346,-1.72848 4.06494,-3.16407 0.9814,-1.4355 1.47213,-3.10542 1.47217,-5.00976 -4e-5,-2.3437 -0.68852,-4.2773 -2.06543,-5.80078 -1.37699,-1.52339 -3.12016,-2.47554 -5.22949,-2.85645 -1.55277,-0.29291 -4.67289,-0.4394 -9.36036,-0.43945 z"
         style="font-size:90px;font-weight:bold;text-anchor:middle;fill:#ffffff;font-family:Arial"
         id="path2994" />
      <path
         d="m 238.23242,211.03809 12.65625,-1.23047 c 0.7617,4.24806 2.30711,7.36818 4.63623,9.36035 2.32908,1.9922 5.47117,2.98829 9.42627,2.98828 4.18942,1e-5 7.34616,-0.88622 9.47022,-2.65869 2.12398,-1.77245 3.18599,-3.8452 3.18603,-6.21826 -4e-5,-1.52342 -0.44682,-2.81981 -1.34033,-3.88916 -0.8936,-1.06932 -2.45365,-1.99949 -4.68018,-2.79053 -1.52347,-0.52732 -4.99514,-1.46482 -10.41504,-2.8125 -6.97267,-1.72849 -11.86524,-3.85251 -14.67773,-6.37207 -3.95509,-3.54488 -5.93262,-7.86617 -5.93262,-12.96387 0,-3.2812 0.93017,-6.35004 2.79053,-9.20654 1.86034,-2.85639 4.541,-5.03168 8.04199,-6.52588 3.50096,-1.49408 7.72703,-2.24115 12.67823,-2.24121 8.0859,6e-5 14.17232,1.77252 18.25927,5.31738 4.08687,3.54498 6.23286,8.27642 6.43799,14.19434 l -13.00781,0.57129 c -0.55668,-3.3105 -1.75053,-5.69087 -3.58154,-7.14112 -1.83109,-1.45014 -4.57767,-2.17523 -8.23975,-2.17529 -3.77932,6e-5 -6.7383,0.77642 -8.87695,2.3291 -1.37698,0.99615 -2.06545,2.32915 -2.06543,3.99903 -2e-5,1.52348 0.64451,2.82719 1.93359,3.91113 1.6406,1.37699 5.62498,2.81254 11.95313,4.30664 6.32808,1.49418 11.00825,3.03959 14.04052,4.63623 3.03218,1.59671 5.40523,3.77933 7.11914,6.54785 1.71382,2.76858 2.57075,6.18899 2.5708,10.26123 -5e-5,3.69142 -1.02544,7.14845 -3.07617,10.3711 -2.05083,3.22266 -4.95122,5.61767 -8.70117,7.18505 -3.75004,1.56739 -8.42289,2.35108 -14.01855,2.35108 -8.14456,0 -14.39943,-1.88233 -18.76465,-5.64697 -4.36524,-3.76464 -6.97266,-9.25048 -7.82227,-16.45752 z"
         style="font-size:90px;font-weight:bold;text-anchor:middle;fill:#ffffff;font-family:Arial"
         id="path2996" />
    </g>
  </g>
</svg>
