<?xml version="1.0"?>
<!--
Copyright (C) 2012 United States Government as represented by the Administrator of the
National Aeronautics and Space Administration.
All Rights Reserved.
-->

<!DOCTYPE svg PUBLIC "-//W3C//DTD SVG 1.1//EN" "http://www.w3.org/Graphics/SVG/1.1/DTD/svg11.dtd" >
<!--
MIL-STD-2525 tactical symbol icon image. During icon composition this image is multiplied by the desired frame color 
(e.g. black), then drawn on top of the frame and fill.
-->
<svg xmlns:xlink="http://www.w3.org/1999/xlink" height="400px" viewBox="0 0 400 400" width="400px"><line style="stroke:rgb(0,0,0);stroke-width:10" x1="275" x2="300" y1="220" y2="220"/><line style="stroke:rgb(0,0,0);stroke-width:10" x1="300" x2="300" y1="245" y2="195"/><polygon points="125,250 125,200 175,200 175,150 275,150 275,250" style="fill:rgb(255,255,255);stroke:rgb(0,0,0);stroke-width:10"/><ellipse cx="250" cy="255" rx="20" ry="20" style="fill:rgb(255,255,255);stroke:rgb(0,0,0);stroke-width:10"/><ellipse cx="150" cy="255" rx="20" ry="20" style="fill:rgb(255,255,255);stroke:rgb(0,0,0);stroke-width:10"/><rect height="43" style="fill:none;stroke:rgb(0,0,0);stroke-width:5" transform="matrix(1 0 0 1 0 0)" width="31" x="185" y="160"/><line style="stroke:rgb(0,0,0);stroke-width:10" transform="matrix(1 0 0 1 0 0)" x1="200" x2="200" y1="204" y2="250"/><line style="stroke:rgb(0,0,0);stroke-width:10" transform="matrix(1 0 0 1 0 0) translate(1 0) translate(-1 0) translate(0 -1)" x1="181" x2="181" y1="205" y2="250"/><line style="stroke:rgb(0,0,0);stroke-width:10" transform="matrix(1 0 0 1 0 0) translate(0 -1)" x1="219" x2="219" y1="205" y2="250"/></svg>