<?xml version="1.0"?>
<!--
Copyright 2006-2009, 2017, 2020 United States Government, as represented by the
Administrator of the National Aeronautics and Space Administration.
All rights reserved.

The NASA World Wind Java (WWJ) platform is licensed under the Apache License,
Version 2.0 (the "License"); you may not use this file except in compliance
with the License. You may obtain a copy of the License at
http://www.apache.org/licenses/LICENSE-2.0

Unless required by applicable law or agreed to in writing, software distributed
under the License is distributed on an "AS IS" BASIS, WITHOUT WARRANTIES OR
CONDITIONS OF ANY KIND, either express or implied. See the License for the
specific language governing permissions and limitations under the License.

NASA World Wind Java (WWJ) also contains the following 3rd party Open Source
software:

    Jackson Parser – Licensed under Apache 2.0
    GDAL – Licensed under MIT
    JOGL – Licensed under  Berkeley Software Distribution (BSD)
    Gluegen – Licensed under Berkeley Software Distribution (BSD)

A complete listing of 3rd Party software notices and licenses included in
NASA World Wind Java (WWJ)  can be found in the WorldWindJava-v2.2 3rd-party
notices and licenses PDF found in code directory.
-->

<!DOCTYPE svg PUBLIC "-//W3C//DTD SVG 1.1//EN" "http://www.w3.org/Graphics/SVG/1.1/DTD/svg11.dtd" >
<!--
MIL-STD-2525 tactical symbol icon image. During icon composition this image is multiplied by the desired frame color 
(e.g. black), then drawn on top of the frame and fill.
-->
<svg xmlns:xlink="http://www.w3.org/1999/xlink" height="400px" viewBox="0 0 400 400" width="400px"><path d="M68 179 C68 178 95 173 95 200 C95 230 137 230 137 200 C137 170 179 170 179 200 C179     230 221 230 221 200 C221 170 263 170 263 200 C263 230 305 229.556 305 200     C305 173 332 178 332 179" style="fill:none;stroke:rgb(255,255,255);stroke-width:10"/><g transform="translate(0 28) scale(1 0.8)"><path d="M140 140 C80 140 80 260 140 260 L260 260 C320 260 320 140 260 140 z" style="fill:none;stroke:rgb(255,255,255);stroke-width:10"/></g><g transform="translate(0 5)"><ellipse cx="120" cy="245" rx="13" ry="13" style="fill:none;stroke:rgb(255,255,255);stroke-width:10"/><ellipse cx="200" cy="245" rx="13" ry="13" style="fill:none;stroke:rgb(255,255,255);stroke-width:10"/><ellipse cx="280" cy="245" rx="13" ry="13" style="fill:none;stroke:rgb(255,255,255);stroke-width:10"/></g><line style="stroke:rgb(255,255,255);stroke-width:10" x1="170" x2="230" y1="283" y2="283"/><path d="M155 270 C170 270 170 296 155 296" style="fill:none;stroke:rgb(255,255,255);stroke-width:10"/><path d="M245 270 C230 270 230 296 245 296" style="fill:none;stroke:rgb(255,255,255);stroke-width:10"/></svg>