<?xml version="1.0"?>
<!--
Copyright (C) 2012 United States Government as represented by the Administrator of the
National Aeronautics and Space Administration.
All Rights Reserved.
-->

<!DOCTYPE svg PUBLIC "-//W3C//DTD SVG 1.1//EN" "http://www.w3.org/Graphics/SVG/1.1/DTD/svg11.dtd" >
<!--
MIL-STD-2525 tactical symbol icon image. During icon composition this image is multiplied by the desired frame color 
(e.g. black), then drawn on top of the frame and fill.
-->
<svg xmlns:xlink="http://www.w3.org/1999/xlink" height="400px" viewBox="0 0 400 400" width="400px"><g transform="translate(122 86) scale(5.5 5.5)"><path d="M23.617 35.928 L4.896 35.928 C1.631 35.928 0 34.92 0 32.904 C0 31.513 0.816 30.625    2.449 30.24 C3.215 30.049 4.584 29.951 6.553 29.951 L24.553 29.951 C27.721    29.951 29.305 30.935 29.305 32.904 C29.305 34.92 27.408 35.928 23.617 35.928    zM4.752 30.887 C3.072 30.887 2.232 31.561 2.232 32.905 C2.232 34.249 3.671 34.921    6.552 34.921 L24.335 34.921 C26.159 34.921 27.071 34.249 27.071 32.905 C27.071    31.897 26.591 31.274 25.632 31.032 C25.296 30.985 24.407 30.96 22.968    30.96 zM8.064 6.768 L9.648 6.768 L9.648 18.288 L8.064 18.288 zM17.533 28.729    C16.644 29.497 15.527 29.879 14.183 29.879 C12.839 29.879 11.71 29.496 10.798    28.729 C9.886 27.962 9.432 27 9.432 25.848 C9.432 24.744 9.899 23.809 10.836    23.039 C11.772 22.271 12.863 21.863 14.113 21.816 C15.408 21.816 16.547 22.201    17.531 22.968 C18.515 23.735 18.982 24.695 18.935 25.847 C18.888 26.999 18.42    27.961 17.533 28.729 zM13.393 11.16 L13.393 9.576 L9.648 9.576 L9.648 11.16    zM13.393 15.119 L13.393 13.535 L9.648 13.535 L9.648 15.119 zM14.256 23.039    C13.295 23.039 12.492 23.305 11.844 23.832 C11.196 24.359 10.873 25.031 10.873    25.848 C10.873 26.618 11.195 27.278 11.844 27.828 C12.492 28.381 13.295 28.656    14.256 28.656 C15.168 28.656 15.947 28.381 16.596 27.828 C17.244 27.277    17.569 26.617 17.569 25.848 C17.569 24.985 17.233 24.299 16.561 23.795 C15.889    23.291 15.119 23.039 14.256 23.039 zM15.121 0 L15.121 21.816 L13.32 21.886    L13.32 0 zM18.432 11.16 L18.432 9.504 L15.121 9.576 L15.121 11.232 zM18.432 15.119    L18.432 13.463 L15.121 13.535 L15.121 15.191 zM18.432 6.695 L20.161 6.695    L20.161 18.215 L18.432 18.215 z" style="fill:rgb(255,255,255)"/></g></svg>