<?xml version="1.0" encoding="UTF-8" standalone="no"?>
<!--
Copyright (C) 2012 United States Government as represented by the Administrator of the
National Aeronautics and Space Administration.
All Rights Reserved.
-->

<!--
MIL-STD-2525 tactical symbol icon image. During icon composition this image is multiplied by the desired frame color 
(e.g. black), then drawn on top of the frame and fill.
-->

<svg
   xmlns:dc="http://purl.org/dc/elements/1.1/"
   xmlns:cc="http://creativecommons.org/ns#"
   xmlns:rdf="http://www.w3.org/1999/02/22-rdf-syntax-ns#"
   xmlns:svg="http://www.w3.org/2000/svg"
   xmlns="http://www.w3.org/2000/svg"
   xmlns:sodipodi="http://sodipodi.sourceforge.net/DTD/sodipodi-0.dtd"
   xmlns:inkscape="http://www.inkscape.org/namespaces/inkscape"
   height="400px"
   viewBox="0 0 400 400"
   width="400px"
   id="svg2"
   version="1.1"
   inkscape:version="0.48.2 r9819"
   sodipodi:docname="snsac----------.svg">
  <metadata
     id="metadata20">
    <rdf:RDF>
      <cc:Work
         rdf:about="">
        <dc:format>image/svg+xml</dc:format>
        <dc:type
           rdf:resource="http://purl.org/dc/dcmitype/StillImage" />
      </cc:Work>
    </rdf:RDF>
  </metadata>
  <defs
     id="defs18" />
  <sodipodi:namedview
     pagecolor="#ffffff"
     bordercolor="#666666"
     borderopacity="1"
     objecttolerance="10"
     gridtolerance="10"
     guidetolerance="10"
     inkscape:pageopacity="0"
     inkscape:pageshadow="2"
     inkscape:window-width="640"
     inkscape:window-height="480"
     id="namedview16"
     showgrid="false"
     inkscape:zoom="0.59"
     inkscape:cx="200"
     inkscape:cy="200"
     inkscape:window-x="165"
     inkscape:window-y="119"
     inkscape:window-maximized="0"
     inkscape:current-layer="svg2" />
  <path
     inkscape:connector-curvature="0"
     d="m 269.0272,268.134 c -3.8976,0 -6.1306,-0.1334 -6.6816,-0.4176 -7.2384,-1.3804 -12.528,-5.278 -15.8688,-11.6928 -2.784,-5.5622 -3.8976,-11.2694 -3.3408,-17.1158 -10.0282,-6.9542 -24.505,-19.9056 -43.4188,-38.831 -17.2666,16.4256 -31.8884,29.6438 -43.8538,39.672 2.4998,18.9312 -6.4032,28.3852 -26.7264,28.3852 -15.0452,0 -23.6756,-6.4032 -25.897,-19.2038 37.8566,-20.3232 65.975,-41.3366 84.3494,-63.0634 -15.3178,-21.1584 -22.9622,-41.3366 -22.9622,-60.5462 0,-1.9488 0.5568,-9.6048 1.6646,-22.9738 2.2214,0 4.031,1.1194 5.4404,3.3408 5.278,22.8404 14.4652,43.9988 27.5616,63.481 13.3516,-17.8118 23.7858,-41.3424 31.3084,-70.5686 3.0566,9.4714 4.5994,17.8176 4.5994,25.0444 0,23.1072 -7.9402,43.5812 -23.8032,61.3872 17.255,21.9994 45.3676,43.3086 84.3494,63.9044 -2.784,12.8006 -11.687,19.198 -26.7206,19.198 z m -125.28,-36.3254 -0.4176,0.4176 c 3.3292,2.5172 5.0054,5.858 5.0054,10.0282 0.2726,13.0848 -6.264,19.6214 -19.6214,19.6214 -7.25,0 -13.0964,-3.7468 -17.545,-11.2694 -0.5568,0.2842 -1.1078,0.5684 -1.6646,0.841 l 0,1.247 c 3.6134,7.5226 10.5676,11.281 20.88,11.281 4.1702,0 8.7,-1.6646 13.572,-5.0054 4.872,-3.3408 7.308,-7.5226 7.308,-12.5396 -0.006,-7.5226 -2.5056,-12.3888 -7.5168,-14.6218 z m -5.017,2.9232 -22.9622,12.528 0,0.4176 c 5.278,-2.2214 12.9398,-6.5366 22.9622,-12.9456 z m 4.5994,7.9402 -1.2586,-3.3408 -23.8032,13.3574 c 2.784,3.3524 6.6816,5.017 11.6928,5.017 1.392,0 4.1122,-1.247 8.1432,-3.7584 4.031,-2.5056 6.061,-4.872 6.061,-7.105 0.006,-0.5452 -0.2784,-1.9372 -0.8352,-4.1702 z m 47.1946,-52.2 c -18.3744,19.7664 -32.161,32.4336 -41.3482,37.9958 1.1078,1.1194 2.9116,2.9348 5.4288,5.4404 9.1872,-6.6816 23.1072,-19.3488 41.7658,-38.0074 -1.6762,-1.9546 -3.625,-3.7526 -5.8464,-5.4288 z m -20.8916,-71.833 -0.8294,6.264 c 0,35.3684 25.7462,71.5604 77.2444,108.5818 0.841,-1.1078 2.233,-2.784 4.1818,-5.017 -39.2602,-27.2774 -66.12,-63.8812 -80.5968,-109.8288 z m 60.1402,2.0822 c -5.8464,18.6586 -14.8944,36.4762 -27.144,53.4586 2.494,3.3408 4.4428,5.7072 5.8464,7.105 14.4768,-19.2154 21.7152,-37.8566 21.7152,-55.9584 0.006,-0.5568 -0.145,-2.088 -0.4176,-4.6052 z m 24.6384,110.6698 c -1.4036,1.9488 -2.8652,4.0426 -4.3964,6.264 -1.5312,2.233 -2.291,4.466 -2.291,6.6816 0,5.3012 2.291,9.889 6.8904,13.7866 4.5878,3.8976 9.2568,5.8464 13.9896,5.8464 3.3292,0 7.3718,-0.9744 12.1104,-2.9232 6.4032,-2.5056 9.6048,-5.5622 9.6048,-9.1872 0,-0.5568 -0.7018,-0.841 -2.0822,-0.841 -0.841,3.3408 -4.0426,6.5482 -9.6048,9.6048 -1.1194,0.841 -3.9092,1.247 -8.3462,1.247 -13.0964,0 -19.633,-5.9798 -19.633,-17.9568 0,-4.1702 1.5312,-8.0678 4.5878,-11.6928 z m 2.088,8.3578 c -1.1078,1.9488 -1.6646,3.48 -1.6646,4.5878 0,2.5172 1.595,5.3708 4.7908,8.5666 3.1958,3.2074 6.3336,4.8024 9.4018,4.8024 5.0054,0 8.903,-1.6646 11.6928,-5.017 z m 27.144,8.3462 -23.3798,-13.369 0,0.4176 22.5446,13.369 0.4176,0 z"
     style="fill:#000000;stroke:#000000;stroke-width:5;stroke-miterlimit:4;stroke-opacity:1;stroke-dasharray:9.99999999, 5.00000003;stroke-dashoffset:0"
     id="path14" />
</svg>
