<?xml version="1.0" encoding="UTF-8" standalone="no"?>
<!--
Copyright (C) 2012 United States Government as represented by the Administrator of the
National Aeronautics and Space Administration.
All Rights Reserved.
-->

<!--
MIL-STD-2525 tactical symbol icon image. During icon composition this image is multiplied by the desired frame color 
(e.g. black), then drawn on top of the frame and fill.
-->

<svg
   xmlns:dc="http://purl.org/dc/elements/1.1/"
   xmlns:cc="http://creativecommons.org/ns#"
   xmlns:rdf="http://www.w3.org/1999/02/22-rdf-syntax-ns#"
   xmlns:svg="http://www.w3.org/2000/svg"
   xmlns="http://www.w3.org/2000/svg"
   xmlns:sodipodi="http://sodipodi.sourceforge.net/DTD/sodipodi-0.dtd"
   xmlns:inkscape="http://www.inkscape.org/namespaces/inkscape"
   height="400px"
   viewBox="0 0 400 400"
   width="400px"
   id="svg2"
   version="1.1"
   inkscape:version="0.48.2 r9819"
   sodipodi:docname="snuasun--------.svg">
  <metadata
     id="metadata12">
    <rdf:RDF>
      <cc:Work
         rdf:about="">
        <dc:format>image/svg+xml</dc:format>
        <dc:type
           rdf:resource="http://purl.org/dc/dcmitype/StillImage" />
      </cc:Work>
    </rdf:RDF>
  </metadata>
  <defs
     id="defs10" />
  <sodipodi:namedview
     pagecolor="#ffffff"
     bordercolor="#666666"
     borderopacity="1"
     objecttolerance="10"
     gridtolerance="10"
     guidetolerance="10"
     inkscape:pageopacity="0"
     inkscape:pageshadow="2"
     inkscape:window-width="705"
     inkscape:window-height="480"
     id="namedview8"
     showgrid="false"
     inkscape:zoom="0.59"
     inkscape:cx="200"
     inkscape:cy="200"
     inkscape:window-x="157"
     inkscape:window-y="119"
     inkscape:window-maximized="0"
     inkscape:current-layer="svg2" />
  <g
     style="font-size:60px;font-weight:bold;text-anchor:middle;fill:#ffffff;stroke:none;font-family:Arial"
     id="text6">
    <path
       inkscape:connector-curvature="0"
       d="m 132.14844,136.02539 8.4375,-0.82031 c 0.5078,2.83204 1.53807,4.91212 3.09082,6.24023 1.55272,1.32813 3.64744,1.9922 6.28418,1.99219 2.79294,1e-5 4.89743,-0.59081 6.31347,-1.77246 1.41599,-1.18163 2.124,-2.56347 2.12403,-4.14551 -3e-5,-1.01561 -0.29788,-1.87987 -0.89356,-2.59277 -0.59573,-0.71288 -1.63577,-1.33299 -3.12011,-1.86035 -1.01565,-0.35155 -3.3301,-0.97655 -6.94336,-1.875 -4.64845,-1.15233 -7.91017,-2.56834 -9.78516,-4.24805 -2.63672,-2.36326 -3.95508,-5.24411 -3.95508,-8.64258 0,-2.18746 0.62011,-4.23336 1.86035,-6.13769 1.24023,-1.90426 3.02734,-3.35446 5.36133,-4.35059 2.33397,-0.99605 5.15135,-1.4941 8.45215,-1.49414 5.3906,4e-5 9.44821,1.18168 12.17285,3.54492 2.72458,2.36332 4.15524,5.51761 4.29199,9.46289 l -8.67187,0.38086 c -0.37112,-2.207 -1.16702,-3.79391 -2.3877,-4.76074 -1.22072,-0.96676 -3.05178,-1.45016 -5.49316,-1.4502 -2.51955,4e-5 -4.4922,0.51762 -5.91797,1.55274 -0.91798,0.66409 -1.37696,1.55277 -1.37695,2.66601 -1e-5,1.01566 0.42967,1.8848 1.28906,2.60743 1.09374,0.91799 3.74998,1.87502 7.96875,2.87109 4.21872,0.99612 7.33884,2.02639 9.36035,3.09082 2.02145,1.06448 3.60348,2.51955 4.7461,4.36523 1.14254,1.84572 1.71383,4.126 1.71386,6.84082 -3e-5,2.46095 -0.68363,4.76564 -2.05078,6.91407 -1.36722,2.14844 -3.30081,3.74512 -5.80078,4.79004 -2.50003,1.04492 -5.61526,1.56738 -9.3457,1.56738 -5.42971,0 -9.59962,-1.25488 -12.50977,-3.76465 -2.91016,-2.50976 -4.64844,-6.16698 -5.21484,-10.97168 z"
       style="font-size:60px;font-weight:bold;text-anchor:middle;fill:#ffffff;stroke:none;font-family:Arial"
       id="path3012" />
    <path
       inkscape:connector-curvature="0"
       d="m 174.36523,107.05078 8.67188,0 0,23.26172 c -1e-5,3.69142 0.10741,6.084 0.32226,7.17773 0.37109,1.75783 1.25487,3.16896 2.65137,4.2334 1.39647,1.06446 3.30565,1.59669 5.72754,1.59668 2.46091,1e-5 4.31638,-0.50292 5.56641,-1.50879 1.24997,-1.00585 2.00192,-2.2412 2.25586,-3.70605 0.25387,-1.46483 0.38083,-3.89647 0.38086,-7.29492 l 0,-23.75977 8.67187,0 0,22.55859 c -4e-5,5.15627 -0.23441,8.79884 -0.70312,10.92774 -0.46879,2.12891 -1.33305,3.92579 -2.59278,5.39062 -1.2598,1.46485 -2.94437,2.63184 -5.05371,3.50098 -2.1094,0.86914 -4.8633,1.30371 -8.26172,1.30371 -4.10158,0 -7.21193,-0.47363 -9.33105,-1.4209 -2.11915,-0.94726 -3.79396,-2.17773 -5.02442,-3.6914 -1.23047,-1.51367 -2.04102,-3.10058 -2.43164,-4.76075 -0.56641,-2.46092 -0.84961,-6.09373 -0.84961,-10.89843 z"
       style="font-size:60px;font-weight:bold;text-anchor:middle;fill:#ffffff;stroke:none;font-family:Arial"
       id="path3014" />
    <path
       inkscape:connector-curvature="0"
       d="m 223.87695,150 -10.2539,-42.94922 8.87695,0 6.47461,29.50195 7.85156,-29.50195 10.3125,0 7.5293,30 6.5918,-30 8.73046,0 L 259.56055,150 250.36133,150 241.80664,117.89063 233.28125,150 z"
       style="font-size:60px;font-weight:bold;text-anchor:middle;fill:#ffffff;stroke:none;font-family:Arial"
       id="path3016" />
  </g>
  <path
     inkscape:connector-curvature="0"
     style="fill:#ffffff;stroke:#000000;stroke-width:6;stroke-miterlimit:4;stroke-opacity:1;stroke-dasharray:12, 6;stroke-dashoffset:0"
     d="m 100,160 0,40 100,60 100,-60 0,-40 -100,60 z"
     id="polyline4" />
</svg>
