<?xml version="1.0"?>
<!--
Copyright 2006-2009, 2017, 2020 United States Government, as represented by the
Administrator of the National Aeronautics and Space Administration.
All rights reserved.

The NASA World Wind Java (WWJ) platform is licensed under the Apache License,
Version 2.0 (the "License"); you may not use this file except in compliance
with the License. You may obtain a copy of the License at
http://www.apache.org/licenses/LICENSE-2.0

Unless required by applicable law or agreed to in writing, software distributed
under the License is distributed on an "AS IS" BASIS, WITHOUT WARRANTIES OR
CONDITIONS OF ANY KIND, either express or implied. See the License for the
specific language governing permissions and limitations under the License.

NASA World Wind Java (WWJ) also contains the following 3rd party Open Source
software:

    Jackson Parser – Licensed under Apache 2.0
    GDAL – Licensed under MIT
    JOGL – Licensed under  Berkeley Software Distribution (BSD)
    Gluegen – Licensed under Berkeley Software Distribution (BSD)

A complete listing of 3rd Party software notices and licenses included in
NASA World Wind Java (WWJ)  can be found in the WorldWindJava-v2.2 3rd-party
notices and licenses PDF found in code directory.
-->

<!DOCTYPE svg PUBLIC "-//W3C//DTD SVG 1.1//EN" "http://www.w3.org/Graphics/SVG/1.1/DTD/svg11.dtd" >
<!--
MIL-STD-2525 tactical symbol icon image. During icon composition this image is multiplied by the desired frame color 
(e.g. black), then drawn on top of the frame and fill.
-->
<svg xmlns:xlink="http://www.w3.org/1999/xlink" height="400px" viewBox="0 0 400 400" width="400px"><g transform="translate(107 102) scale(5 5)"><path d="M19.656 1.01 C19.847 1.395 19.99 1.707 20.088 1.948 L20.088 9.809 L37.008 27.332     L37.008 29.928 L20.088 18.912 L20.088 33.023 L24.047 37.056 L24.047 39 L19.44     37.057 L18.504 39 L17.494 37.057 L12.959 39 L12.959 37.057 L16.848 33.024     L16.848 18.912 L0 29.928 L0 27.332 L16.848 9.809 L16.848 1.947 L17.065 1.299     C17.494 0.434 17.975 0 18.504 0 C18.887 0 19.271 0.338 19.656 1.01 z" style="fill:rgb(255,255,255)"/></g></svg>