<?xml version="1.0" encoding="UTF-8" standalone="no"?>
<!--
Copyright (C) 2012 United States Government as represented by the Administrator of the
National Aeronautics and Space Administration.
All Rights Reserved.
-->

<!--
MIL-STD-2525 tactical symbol icon image. During icon composition this image is multiplied by the desired frame color 
(e.g. black), then drawn on top of the frame and fill.
-->

<svg
   xmlns:dc="http://purl.org/dc/elements/1.1/"
   xmlns:cc="http://creativecommons.org/ns#"
   xmlns:rdf="http://www.w3.org/1999/02/22-rdf-syntax-ns#"
   xmlns:svg="http://www.w3.org/2000/svg"
   xmlns="http://www.w3.org/2000/svg"
   xmlns:sodipodi="http://sodipodi.sourceforge.net/DTD/sodipodi-0.dtd"
   xmlns:inkscape="http://www.inkscape.org/namespaces/inkscape"
   height="400px"
   viewBox="0 0 400 400"
   width="400px"
   id="svg2"
   version="1.1"
   inkscape:version="0.48.2 r9819"
   sodipodi:docname="sugausxet------.svg">
  <metadata
     id="metadata20">
    <rdf:RDF>
      <cc:Work
         rdf:about="">
        <dc:format>image/svg+xml</dc:format>
        <dc:type
           rdf:resource="http://purl.org/dc/dcmitype/StillImage" />
      </cc:Work>
    </rdf:RDF>
  </metadata>
  <defs
     id="defs18" />
  <sodipodi:namedview
     pagecolor="#ffffff"
     bordercolor="#666666"
     borderopacity="1"
     objecttolerance="10"
     gridtolerance="10"
     guidetolerance="10"
     inkscape:pageopacity="0"
     inkscape:pageshadow="2"
     inkscape:window-width="705"
     inkscape:window-height="480"
     id="namedview16"
     showgrid="false"
     inkscape:zoom="0.59"
     inkscape:cx="190.4866"
     inkscape:cy="200"
     inkscape:window-x="177"
     inkscape:window-y="110"
     inkscape:window-maximized="0"
     inkscape:current-layer="svg2" />
  <line
     style="stroke:rgb(255,255,255);stroke-width:10;stroke-dasharray:10"
     x1="140"
     x2="260"
     y1="200"
     y2="200"
     id="line4" />
  <path
     d="M285 175 C250 175 250 225 285 225"
     style="fill:none;stroke:rgb(255,255,255);stroke-width:10;stroke-dasharray:10"
     id="path6" />
  <path
     d="M115 175 C150 175 150 225 115 225"
     style="fill:none;stroke:rgb(255,255,255);stroke-width:10;stroke-dasharray:10"
     id="path8" />
  <polyline
     points="50,140 90,200 50,260"
     style="fill:none;stroke:rgb(255,255,255);stroke-width:10;stroke-dasharray:10"
     id="polyline12" />
  <polyline
     points="350,140 310,200 350,260"
     style="fill:none;stroke:rgb(255,255,255);stroke-width:10;stroke-dasharray:10"
     id="polyline14" />
  <g
     id="g3000"
     style="font-size:65px;font-weight:bold;text-anchor:middle;fill:#ffffff;stroke:none;font-family:Arial">
    <path
       id="path3002"
       style="font-size:65px;font-weight:bold;text-anchor:middle;fill:#ffffff;stroke:none;font-family:Arial"
       d="m 155.75635,180 0,-46.52832 34.49951,0 0,7.87109 -25.10498,0 0,10.31494 23.35937,0 0,7.83936 -23.35937,0 0,12.66357 25.99365,0 0,7.83936 z"
       inkscape:connector-curvature="0" />
    <path
       id="path3004"
       style="font-size:65px;font-weight:bold;text-anchor:middle;fill:#ffffff;stroke:none;font-family:Arial"
       d="m 197.27002,157.02148 c 0,-4.73955 0.70882,-8.71741 2.12646,-11.93359 1.05794,-2.36975 2.50203,-4.49622 4.33228,-6.37939 1.83023,-1.8831 3.83503,-3.27958 6.0144,-4.18946 2.89875,-1.22716 6.24184,-1.84077 10.0293,-1.84082 6.85544,5e-5 12.34086,2.12651 16.4563,6.3794 4.11535,4.25296 6.17305,10.16686 6.1731,17.7417 -5e-5,7.51141 -2.04188,13.38827 -6.12549,17.63061 -4.0837,4.24235 -9.54268,6.36353 -16.37696,6.36353 -6.91896,0 -12.42026,-2.1106 -16.5039,-6.33179 -4.08367,-4.22118 -6.12549,-10.03457 -6.12549,-17.44019 z m 9.68018,-0.31738 c -2e-5,5.26857 1.21662,9.2623 3.6499,11.9812 2.43325,2.71892 5.52244,4.07838 9.26758,4.07837 3.74508,1e-5 6.8184,-1.34887 9.21997,-4.04663 2.40149,-2.69774 3.60225,-6.74437 3.60229,-12.13989 -4e-5,-5.332 -1.16906,-9.30986 -3.50708,-11.9336 -2.33808,-2.62366 -5.44314,-3.9355 -9.31518,-3.93554 -3.8721,4e-5 -6.99302,1.32775 -9.3628,3.98315 -2.3698,2.65547 -3.5547,6.65978 -3.55468,12.01294 z"
       inkscape:connector-curvature="0" />
  </g>
</svg>
