<?xml version="1.0"?>
<!--
Copyright 2006-2009, 2017, 2020 United States Government, as represented by the
Administrator of the National Aeronautics and Space Administration.
All rights reserved.

The NASA World Wind Java (WWJ) platform is licensed under the Apache License,
Version 2.0 (the "License"); you may not use this file except in compliance
with the License. You may obtain a copy of the License at
http://www.apache.org/licenses/LICENSE-2.0

Unless required by applicable law or agreed to in writing, software distributed
under the License is distributed on an "AS IS" BASIS, WITHOUT WARRANTIES OR
CONDITIONS OF ANY KIND, either express or implied. See the License for the
specific language governing permissions and limitations under the License.

NASA World Wind Java (WWJ) also contains the following 3rd party Open Source
software:

    Jackson Parser – Licensed under Apache 2.0
    GDAL – Licensed under MIT
    JOGL – Licensed under  Berkeley Software Distribution (BSD)
    Gluegen – Licensed under Berkeley Software Distribution (BSD)

A complete listing of 3rd Party software notices and licenses included in
NASA World Wind Java (WWJ)  can be found in the WorldWindJava-v2.2 3rd-party
notices and licenses PDF found in code directory.
-->

<!DOCTYPE svg PUBLIC "-//W3C//DTD SVG 1.1//EN" "http://www.w3.org/Graphics/SVG/1.1/DTD/svg11.dtd" >
<!--
MIL-STD-2525 tactical symbol icon image. During icon composition this image is multiplied by the desired frame color 
(e.g. black), then drawn on top of the frame and fill.
-->
<svg xmlns:xlink="http://www.w3.org/1999/xlink" height="400px" viewBox="0 0 400 400" width="400px"><g transform="translate(153 91) scale(6.5 6)"><path d="M0 16.125 L2 16.125 L2 27.625 L0 27.625 zM2.586 8.023 L1.008 6.584 L7.488 0 L13.763    6.449 L12.335 7.902 L7.461 3.057 zM12.969 11.055 L11.565 12.657 L8.375 9.467    L8.375 36.375 L6.5 36.375 L6.5 9.377 L3.438 12.49 L1.956 11.181 L7.489 5.576    zM6.5 22.783 L6.5 20.767 L2.25 20.767 L2.25 22.783 zM12 22.783 L12 20.767    L8.375 20.84 L8.375 22.856 zM12 16.125 L14.125 16.125 L14.125 27.625 L12 27.625    z" style="fill:rgb(255,255,255)"/></g></svg>