<?xml version="1.0"?>
<!--
Copyright 2006-2009, 2017, 2020 United States Government, as represented by the
Administrator of the National Aeronautics and Space Administration.
All rights reserved.

The NASA World Wind Java (WWJ) platform is licensed under the Apache License,
Version 2.0 (the "License"); you may not use this file except in compliance
with the License. You may obtain a copy of the License at
http://www.apache.org/licenses/LICENSE-2.0

Unless required by applicable law or agreed to in writing, software distributed
under the License is distributed on an "AS IS" BASIS, WITHOUT WARRANTIES OR
CONDITIONS OF ANY KIND, either express or implied. See the License for the
specific language governing permissions and limitations under the License.

NASA World Wind Java (WWJ) also contains the following 3rd party Open Source
software:

    Jackson Parser – Licensed under Apache 2.0
    GDAL – Licensed under MIT
    JOGL – Licensed under  Berkeley Software Distribution (BSD)
    Gluegen – Licensed under Berkeley Software Distribution (BSD)

A complete listing of 3rd Party software notices and licenses included in
NASA World Wind Java (WWJ)  can be found in the WorldWindJava-v2.2 3rd-party
notices and licenses PDF found in code directory.
-->

<!DOCTYPE svg PUBLIC "-//W3C//DTD SVG 1.1//EN" "http://www.w3.org/Graphics/SVG/1.1/DTD/svg11.dtd" >
<!--
MIL-STD-2525 tactical symbol icon image. During icon composition this image is multiplied by the desired frame color 
(e.g. black), then drawn on top of the frame and fill.
-->
<svg xmlns:xlink="http://www.w3.org/1999/xlink" height="400px" viewBox="0 0 400 400" width="400px"><g transform="translate(147 89) scale(5.5 5.5)"><path d="M19.375 36.25 L19.375 37.625 L0 37.625 L0 36.25 C0 34.121 1.148 32.404 3.445 31.098    C5.309 30.033 7.391 29.5 9.688 29.5 C12.032 29.5 14.161 30.082 16.075 31.242    C17.317 32.015 18.132 32.67 18.514 33.201 C19.039 33.928 19.326 34.945 19.375    36.25 zM18.07 36.25 C18.07 34.508 17.062 33.127 15.047 32.109 C13.461 31.287    11.686 30.875 9.719 30.875 C7.799 30.875 6.047 31.287 4.463 32.109 C2.494    33.127 1.512 34.507 1.512 36.25 zM2.875 7.625 L4.625 7.625 L4.625 21 L2.875    21 zM8.625 14.875 L8.625 12.926 L4.625 12.926 L4.625 14.875 zM10.5 0 L10.5 29.486    L8.625 29.486 L8.625 0.072 C9.18 -0.023 9.805 -0.047 10.5 0 zM14.125 14.875    L14.125 12.926 L10.5 12.926 L10.5 14.875 zM14.125 7.625 L16 7.625 L16 21    L14.125 21 z" style="fill:rgb(255,255,255)"/></g></svg>