<?xml version="1.0"?>
<!--
Copyright (C) 2012 United States Government as represented by the Administrator of the
National Aeronautics and Space Administration.
All Rights Reserved.
-->

<!DOCTYPE svg PUBLIC "-//W3C//DTD SVG 1.1//EN" "http://www.w3.org/Graphics/SVG/1.1/DTD/svg11.dtd" >
<!--
MIL-STD-2525 tactical symbol icon image. During icon composition this image is multiplied by the desired frame color 
(e.g. black), then drawn on top of the frame and fill.
-->
<svg xmlns:xlink="http://www.w3.org/1999/xlink" height="400px" viewBox="0 0 400 400" width="400px"><g transform="translate(60 25) scale(0.7 0.7)"><path d="M190 126 L200 100 L210 126 z" style="fill:none;stroke:rgb(255,255,255);stroke-width:10"/><line style="stroke:rgb(255,255,255);stroke-width:10" x1="200" x2="200" y1="100" y2="280"/><ellipse cx="200" cy="295" rx="13" ry="13" style="fill:none;stroke:rgb(255,255,255);stroke-width:10"/></g><g transform="translate(20 60) scale(0.9 0.9)"><path d="M32 222 C50 222 53 206 53 200 C53 170 95 170 95 200 C95 230 137 230 137 200 C137    170 179 170 179 200 C179 230 221 230 221 200 C221 170 263 170 263 200 C263 230    305 230 305 200 C305 170 347 170 347 200 C347 206 350 222 368 222" style="fill:none;stroke:rgb(255,255,255);stroke-width:10"/></g></svg>