<?xml version="1.0"?>
<!--
Copyright (C) 2012 United States Government as represented by the Administrator of the
National Aeronautics and Space Administration.
All Rights Reserved.
-->

<!DOCTYPE svg PUBLIC "-//W3C//DTD SVG 1.1//EN" "http://www.w3.org/Graphics/SVG/1.1/DTD/svg11.dtd" >
<!--
MIL-STD-2525 tactical symbol icon image. During icon composition this image is multiplied by the desired frame color 
(e.g. black), then drawn on top of the frame and fill.
-->
<svg xmlns:xlink="http://www.w3.org/1999/xlink" height="400px" viewBox="0 0 400 400" width="400px"><g transform="translate(122 86) scale(5.5 5.5)"><path d="M23.615 35.93 L4.895 35.93 C1.631 35.93 0 34.922 0 32.904 C0 31.513 0.814 30.625    2.447 30.24 C3.215 30.049 4.582 29.953 6.551 29.953 L24.551 29.953 C27.719 29.953    29.303 30.937 29.303 32.904 C29.303 34.922 27.406 35.93 23.615 35.93 zM4.752    30.889 C3.07 30.889 2.231 31.561 2.231 32.905 C2.231 34.249 3.67 34.921    6.551 34.921 L24.336 34.921 C26.158 34.921 27.07 34.249 27.07 32.905 C27.07 31.897    26.59 31.274 25.631 31.034 C25.295 30.987 24.406 30.962 22.967 30.962 zM8.063    6.77 L9.647 6.77 L9.647 17.209 L8.063 17.209 zM17.531 28.729 C16.642 29.499    15.527 29.881 14.183 29.881 C12.839 29.881 11.71 29.498 10.798 28.729 C9.886    27.961 9.431 27.002 9.431 25.85 C9.431 24.746 9.898 23.811 10.833 23.041    C11.769 22.273 12.86 21.865 14.11 21.816 C15.405 21.816 16.546 22.201 17.53    22.968 C18.514 23.738 18.981 24.697 18.934 25.849 C18.887 27.002 18.418 27.961    17.531 28.729 zM13.318 12.961 L13.318 11.377 L9.646 11.377 L9.646 12.961 zM14.256    23.041 C13.295 23.041 12.49 23.307 11.842 23.834 C11.194 24.361 10.871    25.033 10.871 25.85 C10.871 26.618 11.193 27.278 11.842 27.829 C12.49 28.382    13.295 28.657 14.256 28.657 C15.166 28.657 15.945 28.382 16.594 27.829 C17.242    27.278 17.567 26.618 17.567 25.85 C17.567 24.987 17.231 24.301 16.559 23.797    C15.887 23.293 15.119 23.041 14.256 23.041 zM15.119 0 L15.119 21.816 L13.318    21.888 L13.318 0 zM18.432 12.961 L18.432 11.305 L15.119 11.377 L15.119 13.033    zM18.432 6.697 L20.161 6.697 L20.161 17.136 L18.432 17.136 z" style="fill:rgb(255,255,255)"/></g></svg>