<?xml version="1.0" encoding="UTF-8" standalone="no"?>
<!--
Copyright (C) 2012 United States Government as represented by the Administrator of the
National Aeronautics and Space Administration.
All Rights Reserved.
-->

<!--
MIL-STD-2525 tactical symbol icon image. During icon composition this image is multiplied by the desired frame color 
(e.g. black), then drawn on top of the frame and fill.
-->

<svg
   xmlns:dc="http://purl.org/dc/elements/1.1/"
   xmlns:cc="http://creativecommons.org/ns#"
   xmlns:rdf="http://www.w3.org/1999/02/22-rdf-syntax-ns#"
   xmlns:svg="http://www.w3.org/2000/svg"
   xmlns="http://www.w3.org/2000/svg"
   xmlns:sodipodi="http://sodipodi.sourceforge.net/DTD/sodipodi-0.dtd"
   xmlns:inkscape="http://www.inkscape.org/namespaces/inkscape"
   height="400px"
   viewBox="0 0 400 400"
   width="400px"
   id="svg2"
   version="1.1"
   inkscape:version="0.48.2 r9819"
   sodipodi:docname="susaclllas-----.svg">
  <metadata
     id="metadata12">
    <rdf:RDF>
      <cc:Work
         rdf:about="">
        <dc:format>image/svg+xml</dc:format>
        <dc:type
           rdf:resource="http://purl.org/dc/dcmitype/StillImage" />
      </cc:Work>
    </rdf:RDF>
  </metadata>
  <defs
     id="defs10" />
  <sodipodi:namedview
     pagecolor="#ffffff"
     bordercolor="#666666"
     borderopacity="1"
     objecttolerance="10"
     gridtolerance="10"
     guidetolerance="10"
     inkscape:pageopacity="0"
     inkscape:pageshadow="2"
     inkscape:window-width="705"
     inkscape:window-height="480"
     id="namedview8"
     showgrid="false"
     inkscape:zoom="0.59"
     inkscape:cx="200"
     inkscape:cy="200"
     inkscape:window-x="66"
     inkscape:window-y="48"
     inkscape:window-maximized="0"
     inkscape:current-layer="svg2" />
  <g
     style="font-size:140px;font-weight:bold;text-anchor:middle;fill:#ffffff;stroke:#000000;stroke-width:6;stroke-miterlimit:4;stroke-opacity:1;stroke-dasharray:12, 6;stroke-dashoffset:0;font-family:Arial"
     id="text4">
    <path
       inkscape:connector-curvature="0"
       d="m 125.14648,220 0,-99.39453 20.23438,0 0,82.50976 50.3125,0 0,16.88477 z"
       style="font-size:140px;font-weight:bold;text-anchor:middle;fill:#ffffff;stroke:#000000;stroke-width:6;stroke-miterlimit:4;stroke-opacity:1;stroke-dasharray:12, 6;stroke-dashoffset:0;font-family:Arial"
       id="path2990" />
    <path
       inkscape:connector-curvature="0"
       d="m 210.73242,220 0,-99.39453 20.23438,0 0,82.50976 50.3125,0 0,16.88477 z"
       style="font-size:140px;font-weight:bold;text-anchor:middle;fill:#ffffff;stroke:#000000;stroke-width:6;stroke-miterlimit:4;stroke-opacity:1;stroke-dasharray:12, 6;stroke-dashoffset:0;font-family:Arial"
       id="path2992" />
  </g>
  <g
     style="font-size:65px;font-weight:bold;text-anchor:middle;fill:#ffffff;stroke:none;font-family:Arial"
     id="text6">
    <path
       inkscape:connector-curvature="0"
       d="m 170.83252,277 -10.21973,0 -4.0625,-10.56885 -18.59863,0 -3.84033,10.56885 -9.96582,0 18.12256,-46.52832 9.93408,0 z m -17.29736,-18.4082 -6.41114,-17.26563 -6.28418,17.26563 z"
       style="font-size:65px;font-weight:bold;text-anchor:middle;fill:#ffffff;stroke:none;font-family:Arial"
       id="path2995" />
    <path
       inkscape:connector-curvature="0"
       d="m 173.4668,261.86084 9.14062,-0.88867 c 0.55012,3.06804 1.66625,5.32146 3.34839,6.76025 1.68211,1.43881 3.9514,2.15821 6.80786,2.1582 3.02569,10e-6 5.30556,-0.64004 6.8396,-1.92016 1.53399,-1.2801 2.301,-2.77709 2.30103,-4.49097 -3e-5,-1.10024 -0.32271,-2.03652 -0.96802,-2.80884 -0.64537,-0.77228 -1.77208,-1.44407 -3.38013,-2.01538 -1.10028,-0.38084 -3.60761,-1.05792 -7.52197,-2.03125 -5.03582,-1.24835 -8.56935,-2.78236 -10.60059,-4.60205 -2.85645,-2.56019 -4.28467,-5.68112 -4.28466,-9.36279 -1e-5,-2.36976 0.67178,-4.58614 2.01538,-6.64917 1.34358,-2.06295 3.27961,-3.63399 5.8081,-4.71314 2.52847,-1.07905 5.58063,-1.6186 9.1565,-1.61865 5.83981,5e-5 10.23556,1.28016 13.18725,3.84033 2.95163,2.56027 4.50151,5.97742 4.64966,10.25147 l -9.39453,0.4126 c -0.40205,-2.39092 -1.26427,-4.11007 -2.58667,-5.15747 -1.32245,-1.04733 -3.3061,-1.57101 -5.95093,-1.57105 -2.72951,4e-5 -4.86655,0.56075 -6.41113,1.68213 -0.99448,0.71944 -1.49171,1.68217 -1.4917,2.88818 -1e-5,1.1003 0.46548,2.04187 1.39648,2.82471 1.18488,0.9945 4.06249,2.03128 8.63282,3.11035 4.57028,1.07913 7.9504,2.19526 10.14038,3.34839 2.1899,1.15318 3.90377,2.72952 5.1416,4.72901 1.23775,1.99953 1.85665,4.46982 1.85669,7.41088 -4e-5,2.66603 -0.7406,5.16277 -2.22168,7.49024 -1.48116,2.32748 -3.57588,4.05721 -6.28418,5.18921 -2.70836,1.132 -6.0832,1.69799 -10.12451,1.698 -5.88218,-10e-6 -10.39959,-1.35946 -13.55225,-4.07837 -3.15267,-2.71891 -5.03581,-6.6809 -5.64941,-11.88599 z"
       style="font-size:65px;font-weight:bold;text-anchor:middle;fill:#ffffff;stroke:none;font-family:Arial"
       id="path2997" />
    <path
       inkscape:connector-curvature="0"
       d="m 225.8667,277 -11.1084,-46.52832 9.6167,0 7.01416,31.96045 8.50586,-31.96045 11.17187,0 8.15674,32.5 7.14112,-32.5 9.458,0 L 264.52393,277 254.55811,277 245.29053,242.21484 236.05469,277 z"
       style="font-size:65px;font-weight:bold;text-anchor:middle;fill:#ffffff;stroke:none;font-family:Arial"
       id="path2999" />
  </g>
</svg>
