<?xml version="1.0" encoding="UTF-8" standalone="no"?>
<!-- SVG content generated using Symbology Configuration Management System (SCMS) -->

<!-- Systematic Software Engineering Ltd. - www.systematic.co.uk - do not remove  -->

<svg
    xmlns:dc="http://purl.org/dc/elements/1.1/"
    xmlns:cc="http://creativecommons.org/ns#"
    xmlns:rdf="http://www.w3.org/1999/02/22-rdf-syntax-ns#"
    xmlns:svg="http://www.w3.org/2000/svg"
    xmlns="http://www.w3.org/2000/svg"
    xmlns:sodipodi="http://sodipodi.sourceforge.net/DTD/sodipodi-0.dtd"
    xmlns:inkscape="http://www.inkscape.org/namespaces/inkscape"
    id="WAS-WSR-HCP----"
    width="361"
    height="301"
    viewBox="0 0 361 301"
    version="1.1"
    inkscape:version="0.48.2 r9819"
    sodipodi:docname="was-wsr-hcp----.svg">
    <metadata
        id="metadata27">
        <rdf:RDF>
            <cc:Work
                rdf:about="">
                <dc:format>image/svg+xml</dc:format>
                <dc:type
                    rdf:resource="http://purl.org/dc/dcmitype/StillImage"/>
            </cc:Work>
        </rdf:RDF>
    </metadata>
    <defs
        id="defs25"/>
    <sodipodi:namedview
        pagecolor="#ffffff"
        bordercolor="#666666"
        borderopacity="1"
        objecttolerance="10"
        gridtolerance="10"
        guidetolerance="10"
        inkscape:pageopacity="0"
        inkscape:pageshadow="2"
        inkscape:window-width="640"
        inkscape:window-height="480"
        id="namedview23"
        showgrid="false"
        inkscape:zoom="0.59"
        inkscape:cx="180.5"
        inkscape:cy="150.5"
        inkscape:window-x="0"
        inkscape:window-y="0"
        inkscape:window-maximized="0"
        inkscape:current-layer="WAS-WSR-HCP----"/>
    <g
        transform="translate(-149.5,-49.5)"
        id="g3">
        <svg
            viewBox="0 0 400 400"
            id="_0.WAS-WSR--------"
            width="400"
            height="400"
            version="1.1"
            inkscape:version="0.48.2 r9819">
            <circle
                cx="200"
                cy="200"
                r="50"
                style="fill:#008000;stroke:#008000;stroke-width:1"
                id="circle6"
                d="m 250,200 c 0,27.61424 -22.38576,50 -50,50 -27.61424,0 -50,-22.38576 -50,-50 0,-27.61424 22.38576,-50 50,-50 27.61424,0 50,22.38576 50,50 z"
                sodipodi:cx="200"
                sodipodi:cy="200"
                sodipodi:rx="50"
                sodipodi:ry="50"/>
        </svg>
    </g>
    <g
        transform="translate(110.5,-49.5)"
        id="g8">
        <svg
            viewBox="0 0 400 400"
            id="_1.WAS-WSR--------"
            width="400"
            height="400"
            version="1.1"
            inkscape:version="0.48.2 r9819">
            <circle
                cx="200"
                cy="200"
                r="50"
                style="fill:#008000;stroke:#008000;stroke-width:1"
                id="circle11"
                d="m 250,200 c 0,27.61424 -22.38576,50 -50,50 -27.61424,0 -50,-22.38576 -50,-50 0,-27.61424 22.38576,-50 50,-50 27.61424,0 50,22.38576 50,50 z"
                sodipodi:cx="200"
                sodipodi:cy="200"
                sodipodi:rx="50"
                sodipodi:ry="50"/>
        </svg>
    </g>
    <g
        transform="translate(-19.5,50.5)"
        id="g13">
        <svg
            viewBox="0 0 400 400"
            id="_2.WAS-WSR--------"
            width="400"
            height="400"
            version="1.1"
            inkscape:version="0.48.2 r9819">
            <circle
                cx="200"
                cy="200"
                r="50"
                style="fill:#008000;stroke:#008000;stroke-width:1"
                id="circle16"
                d="m 250,200 c 0,27.61424 -22.38576,50 -50,50 -27.61424,0 -50,-22.38576 -50,-50 0,-27.61424 22.38576,-50 50,-50 27.61424,0 50,22.38576 50,50 z"
                sodipodi:cx="200"
                sodipodi:cy="200"
                sodipodi:rx="50"
                sodipodi:ry="50"/>
        </svg>
    </g>
    <g
        transform="translate(-19.5,-149.5)"
        id="g18">
        <svg
            viewBox="0 0 400 400"
            id="_3.WAS-WSR--------"
            width="400"
            height="400"
            version="1.1"
            inkscape:version="0.48.2 r9819">
            <circle
                cx="200"
                cy="200"
                r="50"
                style="fill:#008000;stroke:#008000;stroke-width:1"
                id="circle21"
                d="m 250,200 c 0,27.61424 -22.38576,50 -50,50 -27.61424,0 -50,-22.38576 -50,-50 0,-27.61424 22.38576,-50 50,-50 27.61424,0 50,22.38576 50,50 z"
                sodipodi:cx="200"
                sodipodi:cy="200"
                sodipodi:rx="50"
                sodipodi:ry="50"/>
        </svg>
    </g>
</svg>
