<?xml version="1.0" encoding="UTF-8" standalone="no"?>
<!-- SVG content generated using Symbology Configuration Management System (SCMS) -->

<!-- Systematic Software Engineering Ltd. - www.systematic.co.uk - do not remove  -->

<svg
    xmlns:dc="http://purl.org/dc/elements/1.1/"
    xmlns:cc="http://creativecommons.org/ns#"
    xmlns:rdf="http://www.w3.org/1999/02/22-rdf-syntax-ns#"
    xmlns:svg="http://www.w3.org/2000/svg"
    xmlns="http://www.w3.org/2000/svg"
    xmlns:sodipodi="http://sodipodi.sourceforge.net/DTD/sodipodi-0.dtd"
    xmlns:inkscape="http://www.inkscape.org/namespaces/inkscape"
    id="WAS-WSRFMHP----"
    width="390"
    height="190"
    viewBox="0 0 390 190"
    version="1.1"
    inkscape:version="0.48.2 r9819"
    sodipodi:docname="was-wsrfmhp----.svg">
    <metadata
        id="metadata22">
        <rdf:RDF>
            <cc:Work
                rdf:about="">
                <dc:format>image/svg+xml</dc:format>
                <dc:type
                    rdf:resource="http://purl.org/dc/dcmitype/StillImage"/>
            </cc:Work>
        </rdf:RDF>
    </metadata>
    <defs
        id="defs20"/>
    <sodipodi:namedview
        pagecolor="#ffffff"
        bordercolor="#666666"
        borderopacity="1"
        objecttolerance="10"
        gridtolerance="10"
        guidetolerance="10"
        inkscape:pageopacity="0"
        inkscape:pageshadow="2"
        inkscape:window-width="640"
        inkscape:window-height="480"
        id="namedview18"
        showgrid="false"
        inkscape:zoom="0.59"
        inkscape:cx="195"
        inkscape:cy="95"
        inkscape:window-x="0"
        inkscape:window-y="0"
        inkscape:window-maximized="0"
        inkscape:current-layer="WAS-WSRFMHP----"/>
    <g
        transform="translate(95,-105)"
        id="g3">
        <svg
            viewBox="0 0 400 400"
            id="_0.WAS-WSR--------"
            width="400"
            height="400"
            version="1.1"
            inkscape:version="0.48.2 r9819">
            <circle
                cx="200"
                cy="200"
                r="50"
                style="fill:#c61021;stroke:#c61021;stroke-width:1"
                id="circle6"
                d="m 250,200 c 0,27.61424 -22.38576,50 -50,50 -27.61424,0 -50,-22.38576 -50,-50 0,-27.61424 22.38576,-50 50,-50 27.61424,0 50,22.38576 50,50 z"
                sodipodi:cx="200"
                sodipodi:cy="200"
                sodipodi:rx="50"
                sodipodi:ry="50"/>
        </svg>
    </g>
    <g
        transform="translate(-105,-105)"
        id="g8">
        <svg
            viewBox="0 0 400 400"
            id="_1.WAS-WSR--------"
            width="400"
            height="400"
            version="1.1"
            inkscape:version="0.48.2 r9819">
            <circle
                cx="200"
                cy="200"
                r="50"
                style="fill:#c61021;stroke:#c61021;stroke-width:1"
                id="circle11"
                d="m 250,200 c 0,27.61424 -22.38576,50 -50,50 -27.61424,0 -50,-22.38576 -50,-50 0,-27.61424 22.38576,-50 50,-50 27.61424,0 50,22.38576 50,50 z"
                sodipodi:cx="200"
                sodipodi:cy="200"
                sodipodi:rx="50"
                sodipodi:ry="50"/>
        </svg>
    </g>
    <g
        id="g13"
        transform="translate(-5,-105)">
        <svg
            viewBox="0 0 400 400"
            id="_2.WAS-WSDF-------"
            width="400"
            height="400"
            version="1.1"
            inkscape:version="0.48.2 r9819">
            <path
                d="M 40,267 C 23,252 10,227 10,200 c 0,-50 40,-90 90,-90 50,0 80,40 100,90 20,50 50,90 100,90 50,0 90,-40 90,-90 0,-27 -13,-52 -30,-67"
                style="fill:none;stroke:#c61021;stroke-width:10"
                id="path16"
                inkscape:connector-curvature="0"/>
        </svg>
    </g>
</svg>
