<?xml version="1.0" encoding="UTF-8" standalone="no"?>
<!-- SVG content generated using Symbology Configuration Management System (SCMS) -->

<!-- Systematic Software Engineering Ltd. - www.systematic.co.uk - do not remove  -->

<svg
    xmlns:dc="http://purl.org/dc/elements/1.1/"
    xmlns:cc="http://creativecommons.org/ns#"
    xmlns:rdf="http://www.w3.org/1999/02/22-rdf-syntax-ns#"
    xmlns:svg="http://www.w3.org/2000/svg"
    xmlns="http://www.w3.org/2000/svg"
    xmlns:sodipodi="http://sodipodi.sourceforge.net/DTD/sodipodi-0.dtd"
    xmlns:inkscape="http://www.inkscape.org/namespaces/inkscape"
    id="WAS-WSDFL-P----"
    width="390"
    height="190"
    viewBox="0 0 390 190"
    version="1.1"
    inkscape:version="0.48.2 r9819"
    sodipodi:docname="was-wsdfl-p----.svg">
    <metadata
        id="metadata21">
        <rdf:RDF>
            <cc:Work
                rdf:about="">
                <dc:format>image/svg+xml</dc:format>
                <dc:type
                    rdf:resource="http://purl.org/dc/dcmitype/StillImage"/>
            </cc:Work>
        </rdf:RDF>
    </metadata>
    <defs
        id="defs19"/>
    <sodipodi:namedview
        pagecolor="#ffffff"
        bordercolor="#666666"
        borderopacity="1"
        objecttolerance="10"
        gridtolerance="10"
        guidetolerance="10"
        inkscape:pageopacity="0"
        inkscape:pageshadow="2"
        inkscape:window-width="640"
        inkscape:window-height="480"
        id="namedview17"
        showgrid="false"
        inkscape:zoom="0.59"
        inkscape:cx="195"
        inkscape:cy="95"
        inkscape:window-x="0"
        inkscape:window-y="0"
        inkscape:window-maximized="0"
        inkscape:current-layer="WAS-WSDFL-P----"/>
    <g
        transform="translate(-101,-111)"
        id="g3">
        <svg
            viewBox="0 0 400 400"
            id="_0.WAS-WSD--------"
            width="400"
            height="400"
            version="1.1"
            inkscape:version="0.48.2 r9819">
            <g
                transform="translate(-24,56)"
                id="g6">
                <circle
                    cx="220"
                    cy="127"
                    r="25"
                    style="fill:#c61021;stroke:#c61021;stroke-width:1"
                    id="circle8"
                    d="m 245,127 c 0,13.80712 -11.19288,25 -25,25 -13.80712,0 -25,-11.19288 -25,-25 0,-13.80712 11.19288,-25 25,-25 13.80712,0 25,11.19288 25,25 z"
                    sodipodi:cx="220"
                    sodipodi:cy="127"
                    sodipodi:rx="25"
                    sodipodi:ry="25"/>
                <path
                    d="m 220,152.5 c 2.179,12.429 -21,36 -21,36 32.107,0.179 45.902,-33.494 45.857,-58.429"
                    style="fill:#c61021;stroke:#c61021;stroke-width:1"
                    id="path10"
                    inkscape:connector-curvature="0"/>
            </g>
        </svg>
    </g>
    <g
        id="g12"
        transform="translate(-5,-105)">
        <svg
            viewBox="0 0 400 400"
            id="_1.WAS-WSDF-------"
            width="400"
            height="400"
            version="1.1"
            inkscape:version="0.48.2 r9819">
            <path
                d="M 40,267 C 23,252 10,227 10,200 c 0,-50 40,-90 90,-90 50,0 80,40 100,90 20,50 50,90 100,90 50,0 90,-40 90,-90 0,-27 -13,-52 -30,-67"
                style="fill:none;stroke:#c61021;stroke-width:10"
                id="path15"
                inkscape:connector-curvature="0"/>
        </svg>
    </g>
</svg>
