<?xml version="1.0" encoding="UTF-8" standalone="no"?>
<!-- SVG content generated using Symbology Configuration Management System (SCMS) -->

<!-- Systematic Software Engineering Ltd. - www.systematic.co.uk - do not remove  -->

<svg
   xmlns:dc="http://purl.org/dc/elements/1.1/"
   xmlns:cc="http://creativecommons.org/ns#"
   xmlns:rdf="http://www.w3.org/1999/02/22-rdf-syntax-ns#"
   xmlns:svg="http://www.w3.org/2000/svg"
   xmlns="http://www.w3.org/2000/svg"
   xmlns:sodipodi="http://sodipodi.sourceforge.net/DTD/sodipodi-0.dtd"
   xmlns:inkscape="http://www.inkscape.org/namespaces/inkscape"
   id="E-NPBB---------"
   width="341.69312"
   height="221.08257"
   viewBox="0 0 341.69312 221.08257"
   version="1.1"
   inkscape:version="0.48.2 r9819"
   sodipodi:docname="e-npbb---------.svg">
  <metadata
     id="metadata27">
    <rdf:RDF>
      <cc:Work
         rdf:about="">
        <dc:format>image/svg+xml</dc:format>
        <dc:type
           rdf:resource="http://purl.org/dc/dcmitype/StillImage" />
      </cc:Work>
    </rdf:RDF>
  </metadata>
  <defs
     id="defs25" />
  <sodipodi:namedview
     pagecolor="#ffffff"
     bordercolor="#666666"
     borderopacity="1"
     objecttolerance="10"
     gridtolerance="10"
     guidetolerance="10"
     inkscape:pageopacity="0"
     inkscape:pageshadow="2"
     inkscape:window-width="1062"
     inkscape:window-height="804"
     id="namedview23"
     showgrid="false"
     inkscape:zoom="0.59"
     inkscape:cx="169.34112"
     inkscape:cy="101.7456"
     inkscape:window-x="0"
     inkscape:window-y="0"
     inkscape:window-maximized="0"
     inkscape:current-layer="g6" />
  <g
     id="g3"
     transform="translate(-30.65888,-80.66304)">
    <svg
       viewBox="0 0 400 400"
       id="_0.DRGHT__________"
       width="400"
       height="400"
       version="1.1"
       inkscape:version="0.48.2 r9819">
      <g
         transform="scale(160,160)"
         id="g6">
        <path
           id="_65890464"
           d="m 1.42141,0.62248 c 0.02917,0.009634 0.08198,0.062965 0.11565,0.081335 0.01939,0.010582 0.04439,0.026 0.06195,0.033594 C 1.6251,0.748693 1.65583,0.7507 1.67303,0.758952 1.67942,0.753393 1.6985,0.741563 1.6985,0.733472 1.6985,0.623448 1.52557,0.629555 1.44778,0.591381 z"
           inkscape:connector-curvature="0"
           style="fill:#ffffff" />
        <path
           id="_64350592"
           d="m 1.39274,0.644291 c 0,0.043618 0.11417,0.242063 0.17199,0.242063 l 0.01911,0 c 0.00408,-0.017496 0.01275,-0.02589 0.01275,-0.038221 0,-0.06924 -0.15413,-0.205007 -0.19748,-0.216586 -10e-5,1.25e-4 -0.00637,0.011885 -0.00637,0.012744 z"
           inkscape:connector-curvature="0"
           style="fill:#ffffff" />
        <path
           id="_64327504"
           d="M 1.27924,0.692819 C 1.24598,0.736827 1.15069,0.801752 1.15069,0.879984 c 0,0.007752 0.01317,0.01911 0.02548,0.01911 0.06314,0 0.08834,-0.042567 0.11044,-0.087031 C 1.30071,0.783681 1.34204,0.69602 1.34893,0.672406 z"
           inkscape:connector-curvature="0"
           style="fill:#ffffff" />
        <path
           id="_65683056"
           d="m 1.48829,0.950051 c 0.01004,0 0.03185,-0.03876 0.03185,-0.057327 C 1.52014,0.88776 1.45856,0.820527 1.44867,0.804941 1.42746,0.771515 1.41741,0.730008 1.39274,0.701622 c 0,0.080279 0.02893,0.248429 0.09555,0.248429 z"
           inkscape:connector-curvature="0"
           style="fill:#ffffff" />
        <path
           id="_64907552"
           d="m 1.39274,0.701622 c 0.02467,0.028386 0.03472,0.069894 0.05593,0.103319 0.00989,0.015587 0.07147,0.082819 0.07147,0.087783 0,0.018567 -0.02181,0.057327 -0.03185,0.057327 -0.06662,0 -0.09555,-0.16815 -0.09555,-0.248429 z M 1.34892,0.672405 C 1.34204,0.69602 1.3007,0.783682 1.2866,0.812063 1.2645,0.856527 1.23931,0.899094 1.17616,0.899094 c -0.01231,0 -0.02548,-0.011358 -0.02548,-0.01911 0,-0.078232 0.09529,-0.143157 0.12855,-0.187165 z m 0.23492,0.213949 -0.01911,0 c -0.05782,0 -0.17199,-0.198445 -0.17199,-0.242063 0,-8.58e-4 0.00627,-0.012618 0.00637,-0.012744 0.04335,0.011579 0.19748,0.147346 0.19748,0.216587 0,0.012331 -0.00867,0.020725 -0.01275,0.03822 z M 1.59901,0.737409 C 1.58144,0.729815 1.55645,0.714398 1.53705,0.703815 1.50339,0.685445 1.45058,0.632114 1.42141,0.62248 L 1.44777,0.591382 c 0.0778,0.038173 0.25073,0.032067 0.25073,0.142091 0,0.008091 -0.01908,0.019921 -0.02547,0.02548 C 1.65583,0.750701 1.6251,0.748693 1.59901,0.737409 z m -0.620326,0.034284 -0.02548,0 C 0.977007,0.722079 0.899157,0.605969 0.844913,0.593331 0.789385,0.622705 0.740385,0.608398 0.708846,0.673847 0.696716,0.69902 0.691582,0.729421 0.670685,0.743981 0.650787,0.757843 0.609216,0.763803 0.609216,0.790799 c 0,0.038512 0.106776,0.010532 0.122791,-0.00461 0.029087,-0.027496 0.059134,-0.052716 0.112906,-0.052716 0.049646,0 0.073087,0.143799 0.076732,0.204035 C 0.9265,1.01765 0.865016,1.13044 0.867618,1.17336 L 0.889362,1.34037 0.781208,1.33226 C 0.83357,1.41046 0.99357,1.48109 1.11616,1.49168 L 1.10608,1.30038 0.965944,1.33226 c 0,-0.1088 -0.048736,-0.13719 -0.011948,-0.2349 C 0.969645,1.05579 0.979248,1.04293 0.978641,0.981862 0.978377,0.955066 0.983649,0.867248 0.993716,0.850425 1.0312,0.787787 1.04076,0.71135 1.07016,0.640212 1.09928,0.569735 1.19293,0.57346 1.27299,0.553617 L 1.30319,0.585566 1.27863,0.593097 1.29719,0.63792 C 1.25441,0.687141 1.22413,0.708444 1.18496,0.761381 1.16652,0.786298 1.08978,0.918204 1.16979,0.918204 l 0.02548,0 c 0.09685,0 0.12659,-0.177091 0.17199,-0.229323 0.0092,0.110539 0.02947,0.238579 0.10829,0.280283 0.04305,-0.010031 0.05382,-0.027657 0.0637,-0.070071 0.01708,0.004091 0.01201,0.00637 0.02548,0.00637 0.03287,0 0.05096,-0.026523 0.05096,-0.05733 l 0,-0.00637 c 0,-0.053229 -0.02849,-0.059107 -0.03822,-0.095552 0.01888,0.009981 0.05447,0.025481 0.08281,0.025481 l 0.01275,0 c 0.02994,0 0.03286,-0.014343 0.04458,-0.031851 C 1.71242,0.677432 1.68022,0.641759 1.6294,0.624207 1.5972,0.613081 1.50124,0.581443 1.46273,0.580538 L 1.47555,0.555105 1.45773,0.555692 1.47681,0.515861 1.35452,0.542369 C 1.33199,0.527282 1.32482,0.504144 1.29082,0.504144 l -0.04459,0 c -0.17713,0 -0.267545,0.090111 -0.267545,0.267547 z"
           inkscape:connector-curvature="0"
           style="fill:#ffffff;fill-opacity:1" />
        <path
           id="_65682552"
           d="m 0.373528,1.57432 c 0.031681,7e-4 0.144449,0.01761 0.172252,0.02522 0.034862,0.00955 0.115768,0.0576 0.139886,0.0576 l 0.070067,0 c 0.023142,0 0.022346,-0.00756 0.041012,-0.01348 L 0.839969,1.43886 0.709792,1.32607 0.48819,1.27493 C 0.47684,1.31744 0.426596,1.35116 0.4106,1.40118 0.404993,1.41872 0.37497,1.55702 0.373528,1.57432 z"
           inkscape:connector-curvature="0"
           style="fill:#ffffff;fill-opacity:1" />
        <path
           id="_65664272"
           d="m 1.17144,1.29616 -3e-5,0.01895 c 0,0.05645 -0.00154,0.08081 2.3e-4,0.13354 0.00276,0.08167 -0.00841,0.06198 0.07576,0.07075 0.02873,0.003 0.08574,0.02367 0.11087,0.03564 0.0182,0.00867 0.04006,0.0113 0.0525,0.01758 0.02001,0.0101 0.00661,0.01736 0.04093,0.03552 L 1.44701,1.60291 1.58547,1.4871 c 0.07749,0 0.10308,0.00879 0.14499,-0.03337 C 1.79138,1.39243 1.75081,1.41868 1.83079,1.37811 L 1.84664,1.30237 C 1.78477,1.31679 1.71028,1.35681 1.64252,1.32813 1.57904,1.30127 1.54833,1.25778 1.45807,1.25778 L 1.41893,1.25257 z"
           inkscape:connector-curvature="0"
           style="fill:#ffffff;fill-opacity:1" />
        <path
           id="_65682440"
           d="M 1.94057,1.26855 C 1.91663,1.37131 1.9234,1.35719 1.96401,1.44259 1.99187,1.50118 2.01362,1.5516 2.04249,1.60617 2.18568,1.59425 2.19722,1.59478 2.2766,1.51541 2.31566,1.47635 2.30175,1.34619 2.3272,1.30817 2.26488,1.27827 2.28567,1.2928 2.21313,1.27627 2.09935,1.25036 2.04795,1.26616 1.94057,1.26855 z"
           inkscape:connector-curvature="0"
           style="fill:#ffffff;fill-opacity:1" />
        <path
           id="_65445832"
           d="M 0.2025,1.32513 0.277976,1.62529 C 0.295476,1.55018 0.332878,1.51211 0.345689,1.44456 0.354146,1.39995 0.347224,1.37964 0.368469,1.34632 0.379721,1.32866 0.400169,1.27817 0.405378,1.25582 0.369866,1.24755 0.232008,1.2158 0.191618,1.2158 z"
           inkscape:connector-curvature="0"
           style="fill:#ffffff;fill-opacity:1" />
        <path
           id="_65907856"
           d="M 0.836291,1.63784 C 0.834527,1.68594 1.02678,1.67625 1.06787,1.67625 l 0.07007,0 C 1.13794,1.63436 1.12121,1.60668 1.11897,1.56782 1.11544,1.50679 1.10941,1.52392 1.04299,1.5164 0.942256,1.50499 0.927937,1.46478 0.852299,1.44701 z"
           inkscape:connector-curvature="0"
           style="fill:#ffffff;fill-opacity:1" />
        <path
           id="_65663696"
           d="M 2.11257,1.6444 C 2.09061,1.6444 2.0879,1.63969 2.06513,1.63921 L 2.09092,1.69933 2.15716,1.63166 C 2.13492,1.63684 2.13571,1.6444 2.11257,1.6444 z"
           inkscape:connector-curvature="0"
           style="fill:#ffffff;fill-opacity:1" />
        <path
           id="_65663792"
           d="m 1.17616,1.63166 c 0,0.0919 0.01218,0.10508 0.05413,0.18218 L 1.4423,1.63764 1.43733,1.63166 C 1.39545,1.6219 1.37732,1.59563 1.31871,1.57829 1.27891,1.56651 1.21666,1.54585 1.17616,1.54248 z"
           inkscape:connector-curvature="0"
           style="fill:#ffffff;fill-opacity:1" />
        <path
           id="_65663888"
           d="M 1.24623,1.85461 1.41262,1.84854 1.87454,1.80687 C 1.91246,1.79516 1.98603,1.79681 2.02338,1.7718 1.99225,1.70692 1.96601,1.66983 1.93201,1.60837 1.89691,1.54489 1.88625,1.48719 1.85776,1.42781 1.76553,1.4493 1.73937,1.51562 1.70246,1.52731 1.6153,1.55493 1.58184,1.53838 1.53493,1.62096 1.49236,1.69589 1.47238,1.70385 1.40293,1.75014 1.34226,1.79059 1.31214,1.81974 1.24623,1.85461 z"
           inkscape:connector-curvature="0"
           style="fill:#ffffff;fill-opacity:1" />
        <path
           id="_131168192"
           d="M 0.354417,1.70173 C 0.338968,1.74777 0.791905,1.8741 0.865645,1.88591 0.932539,1.84112 0.976299,1.8261 0.985058,1.72084 0.886444,1.72084 0.701904,1.70139 0.618133,1.68008 0.560605,1.66545 0.513314,1.65073 0.457653,1.63671 0.371645,1.61506 0.354417,1.59859 0.354417,1.70173 z"
           inkscape:connector-curvature="0"
           style="fill:#ffffff;fill-opacity:1" />
        <path
           id="_65663216"
           d="M 0.951421,1.87501 C 0.985342,1.89129 1.06279,1.87514 1.10335,1.87514 L 1.2088,1.87548 1.15693,1.72871 1.03601,1.72084 C 0.894225,1.98877 0.975925,1.82871 0.951421,1.87501 z"
           inkscape:connector-curvature="0"
           style="fill:#ffffff;fill-opacity:1" />
      </g>
    </svg>
  </g>
</svg>
