<?xml version="1.0" encoding="UTF-8" standalone="no"?>
<!-- SVG content generated using Symbology Configuration Management System (SCMS) -->

<!-- Systematic Software Engineering Ltd. - www.systematic.co.uk - do not remove  -->

<svg
   xmlns:dc="http://purl.org/dc/elements/1.1/"
   xmlns:cc="http://creativecommons.org/ns#"
   xmlns:rdf="http://www.w3.org/1999/02/22-rdf-syntax-ns#"
   xmlns:svg="http://www.w3.org/2000/svg"
   xmlns="http://www.w3.org/2000/svg"
   xmlns:sodipodi="http://sodipodi.sourceforge.net/DTD/sodipodi-0.dtd"
   xmlns:inkscape="http://www.inkscape.org/namespaces/inkscape"
   id="E-NPAC---------"
   width="192.28369"
   height="191.08154"
   viewBox="0 0 192.28369 191.08154"
   version="1.1"
   inkscape:version="0.48.2 r9819"
   sodipodi:docname="e-npac---------.svg">
  <metadata
     id="metadata16">
    <rdf:RDF>
      <cc:Work
         rdf:about="">
        <dc:format>image/svg+xml</dc:format>
        <dc:type
           rdf:resource="http://purl.org/dc/dcmitype/StillImage" />
      </cc:Work>
    </rdf:RDF>
  </metadata>
  <defs
     id="defs14" />
  <sodipodi:namedview
     pagecolor="#ffffff"
     bordercolor="#666666"
     borderopacity="1"
     objecttolerance="10"
     gridtolerance="10"
     guidetolerance="10"
     inkscape:pageopacity="0"
     inkscape:pageshadow="2"
     inkscape:window-width="721"
     inkscape:window-height="480"
     id="namedview12"
     showgrid="false"
     inkscape:zoom="0.59"
     inkscape:cx="95.915521"
     inkscape:cy="97.29469"
     inkscape:window-x="0"
     inkscape:window-y="0"
     inkscape:window-maximized="0"
     inkscape:current-layer="g6" />
  <g
     id="g3"
     transform="translate(-104.08448,-106.21314)">
    <svg
       viewBox="0 0 400 400"
       id="_0.EQKEPI_________"
       width="400"
       height="400"
       version="1.1"
       inkscape:version="0.48.2 r9819">
      <g
         transform="matrix(110,0,0,110,67.00001,64.99999)"
         id="g6">
        <path
           id="_65101984"
           d="m 1.03093,1.23772 0,0.0055 c 0,0.08547 0.07924,0.17591 0.15942,0.17591 l 0.03848,0 c 0.08871,0 0.16491,-0.08844 0.16491,-0.17591 0,-0.08982 -0.0793,-0.18141 -0.15942,-0.18141 l -0.03848,0 c -0.08036,0 -0.16491,0.09158 -0.16491,0.17591 z"
           inkscape:connector-curvature="0"
           style="fill:#ffffff;fill-opacity:1" />
        <path
           id="_64546440"
           d="M 1.20683,1.57304 C 1.0145,1.57304 0.899354,1.42587 0.880259,1.24537 0.862791,1.08024 1.0337,0.913383 1.19583,0.913383 l 0.03848,0 c 0.16713,0 0.30785,0.156207 0.30785,0.329827 0,0.1749 -0.14246,0.32983 -0.31334,0.32983 z M 0.78355,1.23772 c 0,0.26223 0.181055,0.41052 0.41823,0.43944 C 1.34222,1.69428 1.43455,1.61012 1.50919,1.55657 1.57301,1.51078 1.6411,1.369 1.6411,1.2542 l 0,-0.01648 C 1.6411,1.002 1.45354,0.814434 1.21782,0.814434 l -0.01649,0 c -0.225623,0 -0.41778,0.196396 -0.41778,0.423286 z"
           inkscape:connector-curvature="0"
           style="fill:#ffffff;fill-opacity:1" />
        <path
           id="_65585136"
           d="M 1.17385,1.8479 C 0.863752,1.8479 0.613157,1.55118 0.601893,1.23755 0.59111,0.937192 0.88494,0.638526 1.17935,0.638526 l 0.06596,0 c 0.28997,0 0.57171,0.282315 0.57171,0.571704 l 0,0.05497 c 0,0.29029 -0.28122,0.5827 -0.57171,0.5827 z M 0.558169,1.23772 c 0,0.19886 0.084803,0.36323 0.182657,0.46601 C 0.792484,1.75798 0.859098,1.80294 0.930117,1.83877 1.02651,1.88739 1.07486,1.8828 1.19153,1.90173 1.25807,1.91252 1.41975,1.87213 1.46336,1.85156 1.5685,1.80197 1.57706,1.78438 1.6598,1.72367 1.75607,1.65303 1.86649,1.44482 1.86649,1.2762 l 0,-0.07697 c 0,-0.310775 -0.30944,-0.610176 -0.62118,-0.610176 l -0.07146,0 c -0.329076,0 -0.615682,0.308949 -0.615681,0.648666 z"
           inkscape:connector-curvature="0"
           style="fill:#ffffff;fill-opacity:1" />
        <path
           id="_64132552"
           d="m 0.365772,1.23772 c 0,-0.245472 0.112114,-0.459988 0.234917,-0.584161 C 0.715488,0.537484 0.93622,0.396653 1.16286,0.396653 l 0.09345,0 c 0.11057,0 0.2393,0.04261 0.31519,0.080602 0.11315,0.05665 0.14454,0.089926 0.23557,0.160228 0.1052,0.081256 0.25182,0.350287 0.25182,0.539767 l 0,0.12093 c 0,0.39524 -0.39785,0.7861 -0.79708,0.7861 l -0.10445,0 C 0.924027,2.08428 0.717386,1.94313 0.597972,1.82459 0.474791,1.7023 0.365771,1.48224 0.365772,1.23772 z M 1.26181,2.11177 c 0.24427,0 0.45404,-0.14347 0.57856,-0.268 C 1.99341,1.69074 2.06485,1.52828 2.0838,1.24141 2.11261,0.805063 1.6804,0.374665 1.26181,0.374665 l -0.10995,0 c -0.232628,0 -0.457136,0.151303 -0.57299,0.273567 C 0.509591,0.721342 0.450543,0.800744 0.407941,0.900586 0.381158,0.96335 0.327803,1.15617 0.338539,1.24819 0.355528,1.39382 0.359717,1.48461 0.415244,1.59503 0.465862,1.69569 0.506398,1.76807 0.581409,1.84665 0.695673,1.96637 0.927051,2.11177 1.15736,2.11177 z"
           inkscape:connector-curvature="0"
           style="fill:#ffffff;fill-opacity:1" />
      </g>
    </svg>
  </g>
</svg>
