<?xml version="1.0" encoding="UTF-8" standalone="no"?>
<!--
Copyright (C) 2012 United States Government as represented by the Administrator of the
National Aeronautics and Space Administration.
All Rights Reserved.
-->

<!--
MIL-STD-2525 tactical symbol icon image. During icon composition this image is multiplied by the desired frame color 
(e.g. black), then drawn on top of the frame and fill.
-->

<svg
   xmlns:dc="http://purl.org/dc/elements/1.1/"
   xmlns:cc="http://creativecommons.org/ns#"
   xmlns:rdf="http://www.w3.org/1999/02/22-rdf-syntax-ns#"
   xmlns:svg="http://www.w3.org/2000/svg"
   xmlns="http://www.w3.org/2000/svg"
   xmlns:sodipodi="http://sodipodi.sourceforge.net/DTD/sodipodi-0.dtd"
   xmlns:inkscape="http://www.inkscape.org/namespaces/inkscape"
   height="400px"
   viewBox="0 0 400 400"
   width="400px"
   id="svg2"
   version="1.1"
   inkscape:version="0.48.2 r9819"
   sodipodi:docname="effacg---------.svg">
  <metadata
     id="metadata16">
    <rdf:RDF>
      <cc:Work
         rdf:about="">
        <dc:format>image/svg+xml</dc:format>
        <dc:type
           rdf:resource="http://purl.org/dc/dcmitype/StillImage" />
      </cc:Work>
    </rdf:RDF>
  </metadata>
  <defs
     id="defs14" />
  <sodipodi:namedview
     pagecolor="#ffffff"
     bordercolor="#666666"
     borderopacity="1"
     objecttolerance="10"
     gridtolerance="10"
     guidetolerance="10"
     inkscape:pageopacity="0"
     inkscape:pageshadow="2"
     inkscape:window-width="640"
     inkscape:window-height="480"
     id="namedview12"
     showgrid="false"
     inkscape:zoom="0.59"
     inkscape:cx="200"
     inkscape:cy="200"
     inkscape:window-x="0"
     inkscape:window-y="0"
     inkscape:window-maximized="0"
     inkscape:current-layer="svg2" />
  <g
     transform="matrix(90,0,0,90,87.00003,95.0004)"
     id="g4"
     style="stroke:#000000;stroke-width:0.04444444;stroke-miterlimit:4;stroke-opacity:1;stroke-dasharray:0.08888889, 0.04444444;stroke-dashoffset:0">
    <path
       inkscape:connector-curvature="0"
       d="m 1.90431,1.13919 0.2245,0 C 2.11658,1.12093 2.01306,0.987993 2.00052,0.987993 l -0.09621,0 z"
       style="fill:#ffffff;stroke:#000000;stroke-width:0.04444444;stroke-miterlimit:4;stroke-opacity:1;stroke-dasharray:0.08888889, 0.04444444;stroke-dashoffset:0"
       id="path6" />
    <path
       inkscape:connector-curvature="0"
       d="m 1.90431,0.987988 0.09621,0 c 0.01254,0 0.11606,0.132942 0.12829,0.151192 l -0.2245,0 z M 1.7897,0.493126 1.76951,0.457583 1.57542,0.563654 1.61408,0.661449 0.724987,1.06641 C 0.746637,1.07845 0.782015,1.18589 0.796523,1.21153 0.802511,1.22211 0.8597,1.3516 0.8597,1.35452 c 0,0.01351 -0.024941,0.0057 -0.022905,0.01833 l 0.014897,0.08686 0.095059,1.9e-4 c 0,-0.06758 0.055349,-0.13287 0.119119,-0.13287 l 0.02749,0 c 0.06601,0 0.11912,0.06427 0.11912,0.13287 l 0.01833,0 c 0,-0.06614 0.01663,-0.06406 0.04124,-0.1008 L 1.21225,1.20342 1.47775,1.08319 1.59493,1.35818 1.45073,1.3591 c 0.02432,0.03633 0.04582,0.03563 0.04582,0.1008 l 0.39859,0 0,-0.01375 c 0,-0.05667 0.07049,-0.11912 0.13287,-0.11912 l 0.01374,0 c 0.07089,0 0.12829,0.05997 0.12829,0.13287 l 0.0733,0 0,-0.08705 -0.03207,0 0,-0.20618 c 0,-0.03449 -0.16017,-0.18948 -0.16952,-0.224496 l -0.17868,0 0,0.416926 -0.11454,0 L 1.60032,1.02537 1.75193,0.962343 1.63304,0.698619 z"
       style="fill:#000000;stroke:#000000;stroke-width:0.04444444;stroke-miterlimit:4;stroke-opacity:1;stroke-dasharray:0.08888889, 0.04444444;stroke-dashoffset:0"
       id="path8" />
    <path
       inkscape:connector-curvature="0"
       d="m 1.9318,1.47822 c 0,0.06902 0.04397,0.07637 0.08247,0.1008 l -0.63227,0 C 1.4136,1.55897 1.45989,1.54561 1.45989,1.48739 l 0,-0.03208 c 0,-0.03655 -0.05239,-0.07789 -0.10079,-0.07789 -0.02828,0 -0.0504,0.01106 -0.06544,0.0262 C 1.28458,1.41276 1.26288,1.44716 1.26288,1.4599 l 0,0.03665 c 0,0.00606 0.02359,0.04835 0.02855,0.05391 0.01673,0.01872 0.03179,0.01742 0.04934,0.02855 l -0.23824,0 C 1.11839,1.568 1.1375,1.56504 1.15108,1.54969 1.16119,1.53827 1.16749,1.51093 1.18041,1.50571 l 0,-0.04581 C 1.18041,1.44874 1.15662,1.40937 1.14721,1.40146 1.12938,1.38646 1.11099,1.37742 1.07962,1.37742 l -0.00458,0 c -0.04672,0 -0.096216,0.04056 -0.096216,0.08706 l 0,0.03665 c 0,0.04156 0.055376,0.06224 0.077886,0.07788 l -0.242823,0 C 0.811887,1.48932 0.743635,1.52754 0.726458,1.49692 0.696064,1.44274 0.752147,1.43588 0.647981,1.41046 0.561544,1.38937 0.592135,1.40195 0.540217,1.34871 0.522339,1.33037 0.457662,1.29954 0.424449,1.29954 l -0.004583,0 C 0.391768,1.29954 0.366803,1.33138 0.34352,1.34231 0.312209,1.35702 0.280516,1.35185 0.253945,1.37186 0.224103,1.39434 0.190788,1.49298 0.190788,1.54237 l 0,0.01832 -0.009166,0 0,0.05956 2.002168,0 0.13745,0 0,-0.04124 -0.26573,0 C 2.07721,1.56524 2.08118,1.57422 2.10484,1.55046 2.11497,1.54028 2.12861,1.50949 2.13798,1.50571 l 0,-0.04581 C 2.13798,1.44686 2.11216,1.40769 2.10151,1.40014 2.08352,1.3874 2.06389,1.37742 2.0326,1.37742 c -0.0536,0 -0.1008,0.04237 -0.1008,0.09622 z"
       style="fill:#000000;stroke:#000000;stroke-width:0.04444444;stroke-miterlimit:4;stroke-opacity:1;stroke-dasharray:0.08888889, 0.04444444;stroke-dashoffset:0"
       id="path10" />
  </g>
</svg>
