<?xml version="1.0"?>
<!--
Copyright (C) 2012 United States Government as represented by the Administrator of the
National Aeronautics and Space Administration.
All Rights Reserved.
-->

<!DOCTYPE svg PUBLIC "-//W3C//DTD SVG 1.1//EN" "http://www.w3.org/Graphics/SVG/1.1/DTD/svg11.dtd" >
<!--
MIL-STD-2525 tactical symbol icon image. During icon composition this image is multiplied by the desired frame color 
(e.g. black), then drawn on top of the frame and fill.
-->
<svg xmlns:xlink="http://www.w3.org/1999/xlink" height="400px" viewBox="0 0 400 400" width="400px"><g transform="scale(150)"><path d="M0.908531 1.48921 L0.908531 1.44893 C0.908531 1.41202 0.951102 1.32557 0.960582 1.29225     C0.973157 1.24804 1.01284 1.19328 1.03968 1.15895 C1.09879 1.08333 1.18187     1.00949 1.31501 1.00949 L1.38825 1.00949 C1.44563 1.00949 1.53535 1.08164     1.56189 1.11783 C1.5834 1.14718 1.5988 1.16936 1.61822 1.20065 C1.62567     1.21266 1.6629 1.28685 1.6629 1.29879 L1.6629 1.30977 L1.67022 1.30977 L1.67022     1.32076 C1.67022 1.32813 1.68487 1.34557 1.68434 1.37247 L1.69219 1.38301     C1.69219 1.41743 1.71015 1.49573 1.71424 1.53308 C1.72014 1.58692 1.73604     1.62691 1.70318 1.67597 C1.70318 1.71591 1.61696 1.82143 1.60018 1.82164 L1.44684     1.79682 C1.4166 1.79192 1.33365 1.82977 1.29304 1.82977 C1.25939 1.82977     1.19979 1.80048 1.16853 1.80048 C1.14152 1.80048 1.1148 1.82245 1.07698 1.82245     L1.066 1.82245 C1.034 1.82245 0.966862 1.71998 0.948752 1.69434 C0.918799     1.65194 0.908531 1.5606 0.908531 1.48921 zM1.42033 0.972245 L1.31867 0.954564     C1.30649 0.95254 1.23222 0.972332 1.22293 0.976832 L1.11758 0.785049     L1.14656 0.793438 L1.14701 0.744679 L1.29576 0.800679 L1.30085 0.741529 L1.35511     0.782041 L1.4505 0.738509 L1.45097 0.781245 L1.57531 0.757037 L1.42034     0.972246 zM1.61647 0.732036 L1.46483 0.758804 L1.46515 0.712875 C1.45011 0.720831     1.37024 0.760477 1.35529 0.760477 C1.35444 0.760477 1.29902 0.717977 1.28937     0.712875 L1.27802 0.778717 L1.13246 0.718827 L1.13191 0.767804 L1.08106     0.751847 L1.21646 1.00365 L1.21248 1.00583 C1.13493 1.02389 1.04133 1.11846     1.00081 1.17867 C0.987784 1.19803 0.979575 1.22237 0.966556 1.23963 C0.943804     1.26978 0.951548 1.28031 0.937756 1.30604 C0.927851 1.32452 0.890225 1.42527     0.890225 1.44893 L0.890225 1.51118 C0.890225 1.52842 0.901772 1.60691     0.906359 1.62322 C0.912638 1.64554 0.911615 1.65523 0.918973 1.67652 C0.924127     1.69142 0.933772 1.70284 0.942221 1.71552 C0.964579 1.74905 1.02267 1.84076     1.06966 1.84076 C1.11124 1.84076 1.14067 1.81878 1.16487 1.81878 C1.20332     1.81878 1.25146 1.84808 1.28572 1.84808 L1.2967 1.84808 C1.33097 1.84808 1.39163     1.82429 1.43073 1.81704 C1.46019 1.81158 1.52848 1.83343 1.57135 1.83343     L1.60064 1.83343 C1.62841 1.83343 1.68097 1.76377 1.69689 1.74291 C1.71432     1.72006 1.71752 1.70659 1.72515 1.67597 C1.72702 1.66848 1.74346 1.6039 1.74346     1.60273 C1.74346 1.55248 1.72882 1.53424 1.72532 1.50369 C1.72074 1.46372     1.71942 1.43626 1.71409 1.4014 C1.70969 1.37265 1.66718 1.25795 1.65393     1.23085 C1.61384 1.14881 1.52585 1.01088 1.42132 1.00225 z" style="fill:rgb(0,0,0)"/><path d="M1.57531 0.757039 L1.45097 0.781248 L1.4505 0.738511 L1.3551 0.782043 L1.30085 0.741531     L1.29576 0.800681 L1.14701 0.744681 L1.14656 0.793441 L1.11758 0.785051     L1.22293 0.976834 C1.23222 0.972334 1.30649 0.952543 1.31867 0.954566 L1.42033     0.972247 L1.57531 0.757038 z" style="fill:rgb(255,255,255)"/><path d="M1.32966 1.394 C1.38966 1.40798 1.4798 1.43709 1.4798 1.50752 L1.4798 1.53682 C1.4798     1.61553 1.41077 1.67231 1.32966 1.67231 L1.32966 1.73822 L1.2967 1.73822     L1.2967 1.67231 C1.26269 1.67231 1.22712 1.65993 1.20581 1.64603 C1.17256     1.62433 1.17683 1.60589 1.15805 1.57706 L1.15389 1.51851 L1.20881 1.51851 C1.20881     1.57695 1.23892 1.61976 1.2967 1.62104 L1.2967 1.44527 C1.27476 1.44344     1.22767 1.42321 1.21167 1.41312 C1.19506 1.40263 1.16121 1.36327 1.16121     1.34274 L1.16121 1.29879 C1.16121 1.24018 1.2317 1.18305 1.2967 1.18161 L1.2967     1.14133 L1.32966 1.14133 L1.32966 1.18161 C1.40307 1.19871 1.46515 1.22097     1.46515 1.30977 L1.40656 1.30977 L1.40656 1.29513 C1.40656 1.26374 1.36557     1.23653 1.32966 1.23653 zM0.908534 1.48921 C0.908534 1.5606 0.918802 1.65194     0.948755 1.69434 C0.966865 1.71998 1.03401 1.82245 1.066 1.82245 L1.07698     1.82245 C1.1148 1.82245 1.14152 1.80048 1.16853 1.80048 C1.19979 1.80048 1.2594     1.82978 1.29304 1.82978 C1.33365 1.82978 1.41661 1.79193 1.44685 1.79682     L1.60018 1.82165 C1.61696 1.82143 1.70318 1.71591 1.70318 1.67597 C1.73604     1.62691 1.72014 1.58693 1.71424 1.53308 C1.71015 1.49573 1.6922 1.41743 1.6922     1.38302 L1.68434 1.37247 C1.68487 1.34557 1.67022 1.32813 1.67022 1.32076     L1.67022 1.30978 L1.6629 1.30978 L1.6629 1.29879 C1.6629 1.28685 1.62568 1.21266     1.61822 1.20065 C1.5988 1.16937 1.5834 1.14718 1.56189 1.11783 C1.53536     1.08165 1.44563 1.0095 1.38825 1.0095 L1.31501 1.0095 C1.18188 1.0095 1.0988     1.08333 1.03968 1.15895 C1.01284 1.19329 0.97316 1.24804 0.960585 1.29225     C0.951105 1.32557 0.908534 1.41202 0.908534 1.44893 z" style="fill:rgb(255,255,255)"/><path d="M1.2198 1.30978 L1.2198 1.32443 C1.2198 1.36048 1.2658 1.37948 1.2967 1.38668 L1.2967     1.23654 L1.28572 1.23654 C1.24766 1.23654 1.2198 1.27109 1.2198 1.30978 z" style="fill:rgb(255,255,255)"/><path d="M1.32966 1.62104 C1.38241 1.62104 1.41755 1.59211 1.41755 1.54048 L1.41755 1.52949     C1.41755 1.48806 1.37003 1.45715 1.32966 1.45625 z" style="fill:rgb(255,255,255)"/><path d="M1.32966 1.45626 C1.37003 1.45716 1.41755 1.48807 1.41755 1.5295 L1.41755 1.54048     C1.41755 1.59212 1.38241 1.62105 1.32966 1.62105 zM1.2198 1.30978 C1.2198 1.27109     1.24766 1.23654 1.28572 1.23654 L1.2967 1.23654 L1.2967 1.38668 C1.2658     1.37948 1.2198 1.36048 1.2198 1.32443 zM1.32966 1.23654 C1.36557 1.23654     1.40656 1.26374 1.40656 1.29513 L1.40656 1.30978 L1.46515 1.30978 C1.46515 1.22097     1.40307 1.19871 1.32966 1.18162 L1.32966 1.14133 L1.2967 1.14133 L1.2967     1.18162 C1.2317 1.18306 1.16121 1.24019 1.16121 1.2988 L1.16121 1.34274     C1.16121 1.36327 1.19506 1.40264 1.21167 1.41312 C1.22767 1.42322 1.27476 1.44345     1.2967 1.44527 L1.2967 1.62105 C1.23892 1.61976 1.20881 1.57695 1.20881     1.51851 L1.15389 1.51851 L1.15805 1.57706 C1.17683 1.6059 1.17256 1.62434     1.20581 1.64603 C1.22712 1.65994 1.26269 1.67232 1.2967 1.67232 L1.2967 1.73823     L1.32966 1.73823 L1.32966 1.67232 C1.41077 1.67232 1.4798 1.61554 1.4798     1.53682 L1.4798 1.50753 C1.4798 1.4371 1.38966 1.40799 1.32966 1.39401 z" style="fill:rgb(0,0,0)"/></g></svg>