<?xml version="1.0"?>
<!--
Copyright 2006-2009, 2017, 2020 United States Government, as represented by the
Administrator of the National Aeronautics and Space Administration.
All rights reserved.

The NASA World Wind Java (WWJ) platform is licensed under the Apache License,
Version 2.0 (the "License"); you may not use this file except in compliance
with the License. You may obtain a copy of the License at
http://www.apache.org/licenses/LICENSE-2.0

Unless required by applicable law or agreed to in writing, software distributed
under the License is distributed on an "AS IS" BASIS, WITHOUT WARRANTIES OR
CONDITIONS OF ANY KIND, either express or implied. See the License for the
specific language governing permissions and limitations under the License.

NASA World Wind Java (WWJ) also contains the following 3rd party Open Source
software:

    Jackson Parser – Licensed under Apache 2.0
    GDAL – Licensed under MIT
    JOGL – Licensed under  Berkeley Software Distribution (BSD)
    Gluegen – Licensed under Berkeley Software Distribution (BSD)

A complete listing of 3rd Party software notices and licenses included in
NASA World Wind Java (WWJ)  can be found in the WorldWindJava-v2.2 3rd-party
notices and licenses PDF found in code directory.
-->

<!DOCTYPE svg PUBLIC "-//W3C//DTD SVG 1.1//EN" "http://www.w3.org/Graphics/SVG/1.1/DTD/svg11.dtd" >
<!--
MIL-STD-2525 tactical symbol icon image. During icon composition this image is multiplied by the desired frame color 
(e.g. black), then drawn on top of the frame and fill.
-->
<svg xmlns:xlink="http://www.w3.org/1999/xlink" height="400px" viewBox="0 0 400 400" width="400px"><g transform="scale(100) translate(0.74 0.77)"><path d="M1.00841 1.14135 L1.19449 1.14135 C1.22522 1.14135 1.28526 1.10079 1.28526 1.06873     L1.28526 1.00519 C1.28526 0.981665 1.2296 0.937114 1.19903 0.937114 L1.00841     0.937114 z" style="fill:rgb(255,255,255)"/><path d="M1.00841 0.93711 L1.19903 0.93711 C1.2296 0.93711 1.28526 0.981661 1.28526 1.00519     L1.28526 1.06873 C1.28526 1.10079 1.22522 1.14135 1.19449 1.14135 L1.00841     1.14135 zM0.885867 1.59974 L1.00841 1.59974 L1.00841 1.27296 L1.05159 1.27465     L1.2409 1.52341 L1.02202 1.79944 L1.16917 1.80112 L1.31704 1.62698 C1.34797     1.63524 1.42075 1.77468 1.45773 1.79944 L1.61204 1.79944 C1.58966 1.75715     1.40327 1.54024 1.40327 1.52259 C1.40327 1.5145 1.58927 1.27974 1.6075 1.26389     L1.45597 1.26231 L1.31481 1.41642 L1.20811 1.27296 C1.3392 1.24242 1.41689     1.18959 1.41689 1.02788 L1.41689 1.01427 C1.41689 0.964388 1.37524 0.896553     1.34779 0.870046 C1.32199 0.845137 1.24613 0.810027 1.19449 0.810027 L0.885868     0.810027 z" style="fill:rgb(0,0,0)"/><path d="M0.885862 0.810028 L1.19449 0.810028 C1.24612 0.810028 1.32198 0.845138 1.34778 0.870048     C1.37523 0.896556 1.41688 0.96439 1.41688 1.01427 L1.41688 1.02788 C1.41688     1.18959 1.3392 1.24242 1.2081 1.27296 L1.31481 1.41643 L1.45596 1.26231     L1.6075 1.26389 C1.58926 1.27974 1.40326 1.5145 1.40326 1.52259 C1.40326     1.54024 1.58966 1.75715 1.61204 1.79945 L1.45773 1.79945 C1.42074 1.77468 1.34797     1.63524 1.31703 1.62698 L1.16917 1.80112 L1.02202 1.79945 L1.2409 1.52341     L1.05159 1.27465 L1.0084 1.27297 L1.0084 1.59975 L0.885861 1.59975 zM1.38057     0.773721 L0.395693 0.773721 L0.395693 1.82668 L2.10675 1.82668 L2.10675     0.773721 L1.91613 0.773721 L1.91613 0.392477 L1.78905 0.392477 L1.78905 0.773721     L1.50766 0.773721 L1.50766 0.392477 L1.38057 0.392477 z" style="fill:rgb(255,255,255)"/><path d="M1.38057 0.392476 L1.50765 0.392476 L1.50765 0.77372 L1.78904 0.77372 L1.78904 0.392476     L1.91613 0.392476 L1.91613 0.77372 L2.10675 0.77372 L2.10675 1.82668     L0.395688 1.82668 L0.395688 0.77372 L1.38057 0.77372 zM0.36392 1.86299 L2.13851     1.86299 L2.13851 0.741946 L1.95697 0.741946 L1.95697 0.356166 L1.75273 0.356166     L1.75273 0.741946 L1.5485 0.741946 L1.5485 0.356166 L1.34426 0.356166     L1.34426 0.741946 L0.36392 0.741946 z" style="fill:rgb(0,0,0)"/></g></svg>