<?xml version="1.0"?>
<!--
Copyright (C) 2012 United States Government as represented by the Administrator of the
National Aeronautics and Space Administration.
All Rights Reserved.
-->

<!DOCTYPE svg PUBLIC "-//W3C//DTD SVG 1.1//EN" "http://www.w3.org/Graphics/SVG/1.1/DTD/svg11.dtd" >
<!--
MIL-STD-2525 tactical symbol icon image. During icon composition this image is multiplied by the desired frame color 
(e.g. black), then drawn on top of the frame and fill.
-->
<svg xmlns:xlink="http://www.w3.org/1999/xlink" height="400px" viewBox="0 0 400 400" width="400px"><rect height="50" style="fill:rgb(255,255,255);stroke:none;stroke-width:1" transform="matrix(1 0 0 1 0 0)" width="21" x="268" y="180"/><rect height="26" style="fill:rgb(255,255,255);stroke:none;stroke-width:1" transform="matrix(1 0 0 1 0 0)" width="48" x="239" y="174"/><rect height="49" style="fill:rgb(255,255,255);stroke:none;stroke-width:1" transform="matrix(1 0 0 1 0 0)" width="23" x="109" y="181"/><rect height="24" style="fill:rgb(255,255,255);stroke:none;stroke-width:1" transform="matrix(1 0 0 1 0 0)" width="48" x="112" y="175"/><line style="stroke:rgb(0,0,0);stroke-width:6" transform="matrix(1 0 0 1 0 0) translate(0 -1) translate(0 -1) translate(0 -1) translate(0 -1) translate(0 -1) translate(0 -1) translate(0 -1) translate(0 -1) translate(1 0) translate(0 -1) translate(-1 0) translate(1 0) translate(-1 0)" x1="99" x2="301" y1="240" y2="240"/><rect height="74" style="fill:rgb(255,255,255);stroke:rgb(0,0,0);stroke-width:6" transform="matrix(1 0 0 1 0 0) translate(0 1) translate(0 -1) translate(0 1) translate(0 1) translate(0 1) translate(0 -1) translate(0 -1)" width="78" x="161" y="155"/><line style="stroke:rgb(0,0,0);stroke-width:6" transform="matrix(1 0 0 1 0 0)" x1="159" x2="128" y1="173" y2="173"/><line style="stroke:rgb(0,0,0);stroke-width:6" transform="matrix(1 0 0 1 0 0)" x1="161" x2="134" y1="200" y2="200"/><line style="stroke:rgb(0,0,0);stroke-width:6" transform="matrix(1 0 0 1 0 0)" x1="239" x2="266" y1="200" y2="200"/><line style="stroke:rgb(0,0,0);stroke-width:6" transform="matrix(1 0 0 1 0 0)" x1="239" x2="272" y1="173" y2="173"/><line style="stroke:rgb(0,0,0);stroke-width:6" transform="matrix(1 0 0 1 0 0)" x1="132" x2="132" y1="229" y2="206"/><line style="stroke:rgb(0,0,0);stroke-width:6" transform="matrix(1 0 0 1 0 0)" x1="268" x2="268" y1="229" y2="207"/><line style="stroke:rgb(0,0,0);stroke-width:6" transform="matrix(1 0 0 1 0 0)" x1="109" x2="109" y1="229" y2="189"/><line style="stroke:rgb(0,0,0);stroke-width:6" transform="matrix(1 0 0 1 0 0)" x1="291" x2="291" y1="229" y2="189"/><path d="M108.947 192.666 C108.751 175.653 114.679 172.888 129.614 172.888" style="fill:none;stroke:rgb(0,0,0);stroke-width:6" transform="matrix(1 0 0 1 0 0)"/><path d="M138.947 199.999 C131.137 199.372 132.058 200.715 132.058 206.888" style="fill:none;stroke:rgb(0,0,0);stroke-width:6" transform="matrix(1 0 0 1 0 0)"/><path d="M263.621 200.027 C269.109 199.027 267.985 202.458 268.066 208.055" style="fill:none;stroke:rgb(0,0,0);stroke-width:6" transform="matrix(1 0 0 1 0 0)"/><path d="M291.01 192.971 C291.378 175.91 287.23 172.842 270.26 172.916" style="fill:none;stroke:rgb(0,0,0);stroke-width:6" transform="matrix(1 0 0 1 0 0)"/><path d="M114.501 175.638 L120.279 173.86" style="fill:none;stroke:rgb(0,0,0);stroke-width:1" transform="matrix(1 0 0 1 0 0)"/><path d="M267.549 201.513 L268.799 205.263" style="fill:none;stroke:rgb(0,0,0);stroke-width:1" transform="matrix(1 0 0 1 0 0)"/></svg>