<?xml version="1.0"?>
<!--
Copyright (C) 2012 United States Government as represented by the Administrator of the
National Aeronautics and Space Administration.
All Rights Reserved.
-->

<!DOCTYPE svg PUBLIC "-//W3C//DTD SVG 1.1//EN" "http://www.w3.org/Graphics/SVG/1.1/DTD/svg11.dtd" >
<!--
MIL-STD-2525 tactical symbol icon image. During icon composition this image is multiplied by the desired frame color 
(e.g. black), then drawn on top of the frame and fill.
-->
<svg xmlns:xlink="http://www.w3.org/1999/xlink" height="400px" viewBox="0 0 400 400" width="400px"><g transform="scale(100) translate(0.74 0.73)"><polygon points="0.336484,0.677425 0.336484,1.01246 0.824142,1.01246 0.824142,1.04224 0.891146,1.04224     0.891146,0.647642 0.824142,0.647642 0.824142,0.677425" style="fill:rgb(255,255,255)"/><path d="M1.63939 0.971508 C1.69156 0.99911 1.76223 1.14364 1.76223 1.22837 C1.76223 1.2824     1.74379 1.32143 1.6915 1.32143 L1.68406 1.32143 C1.65136 1.32143 1.6375 1.28128     1.62454 1.26186 L1.62078 1.19858 C1.63024 1.20493 1.64208 1.21347 1.658     1.21347 C1.68948 1.21347 1.70639 1.18915 1.70639 1.15763 L1.70639 1.12785     C1.70639 1.09894 1.65307 1.00211 1.63939 0.971508 zM0.999138 0.789902 L0.999107     0.792823 C1.20158 0.792823 1.40334 0.822827 1.51384 0.914646 C1.5853 0.974024     1.591 1.0269 1.591 1.15391 C1.591 1.25602 1.60422 1.36238 1.70267 1.36238     L1.72128 1.36238 C1.76406 1.36238 1.79202 1.29764 1.79202 1.25442 L1.79202     1.23209 C1.79202 1.10453 1.70919 0.964659 1.64404 0.899852 C1.60492 0.860946     1.55558 0.82456 1.49273 0.80919 C1.4386 0.79595 1.3417 0.781655 1.2783 0.781655     L1.23357 0.780269 z" style="fill:rgb(255,255,255)"/><g transform="scale(1.1) translate(-0.156364 -0.116364)"><path d="M1.63939 0.971508 C1.65307 1.00211 1.70639 1.09895 1.70639 1.12785 L1.70639 1.15763      C1.70639 1.18915 1.68948 1.21347 1.658 1.21347 C1.64208 1.21347 1.63024      1.20492 1.62078 1.19858 L1.62454 1.26186 C1.6375 1.28128 1.65136 1.32143 1.68406      1.32143 L1.6915 1.32143 C1.74379 1.32143 1.76223 1.2824 1.76223 1.22837      C1.76223 1.14364 1.69156 0.99911 1.63939 0.971508 z" style="fill:rgb(255,255,255)"/></g><path d="M0.336484 1.55223 L0.336484 1.88726 L2.17543 1.88726 L2.17543 1.55967 L2.09757 1.5729     L2.0712 1.57084 C2.0156 1.57084 1.98037 1.55347 1.94833 1.52992 C1.93347     1.519 1.9208 1.50225 1.91045 1.48591 C1.90053 1.47026 1.90365 1.43311 1.88507     1.43311 L1.8739 1.43311 C1.85428 1.43311 1.85575 1.47165 1.84421 1.48904     C1.83329 1.5055 1.82206 1.51992 1.80548 1.5322 C1.77333 1.55601 1.73103 1.57084     1.67661 1.57084 L1.65427 1.57084 C1.57536 1.57084 1.48303 1.51806 1.48303     1.44428 C1.47536 1.43914 1.47337 1.43311 1.46442 1.43311 L1.45698 1.43311     C1.43912 1.43311 1.4374 1.47023 1.42856 1.48659 C1.42028 1.50191 1.40356 1.52047     1.39069 1.53061 C1.36073 1.55423 1.32331 1.57084 1.27085 1.57084 L1.24851     1.57084 C1.16084 1.57084 1.0661 1.51813 1.0661 1.43683 C1.05776 1.43488     1.05754 1.43311 1.04749 1.43311 L1.04005 1.43311 C1.02592 1.43311 1.02513 1.47041     1.0133 1.48826 C0.999634 1.50886 0.994965 1.51636 0.974591 1.53145 C0.943111     1.55476 0.906823 1.57084 0.853918 1.57084 L0.827859 1.57084 C0.74015     1.57084 0.659516 1.51637 0.652898 1.43683 C0.644547 1.43488 0.644339 1.43311     0.634284 1.43311 L0.630563 1.43311 C0.614043 1.43311 0.611323 1.47092 0.600685     1.48885 C0.590815 1.50548 0.578461 1.52019 0.562134 1.53219 C0.527654 1.55753     0.494992 1.57084 0.436988 1.57084 L0.410933 1.57084 C0.382488 1.57084     0.355004 1.56203 0.33648 1.55223 z" style="fill:rgb(255,255,255)"/></g><ellipse cx="239" cy="181.5" rx="5" ry="14.5" style="fill:rgb(255,255,255);stroke:rgb(255,255,255);stroke-width:1" transform="matrix(1 0 0 1 0 0) rotate(349.131 239 181.5) translate(0.982062 0.188557) translate(-0.188557 0.982062) translate(-0.188557 0.982062) translate(0.982062 0.188557) translate(0.982062 0.188557)"/></svg>