<?xml version="1.0" encoding="UTF-8" standalone="no"?>
<!--
Copyright (C) 2012 United States Government as represented by the Administrator of the
National Aeronautics and Space Administration.
All Rights Reserved.
-->

<!--
MIL-STD-2525 tactical symbol icon image. During icon composition this image is multiplied by the desired frame color 
(e.g. black), then drawn on top of the frame and fill.
-->

<svg
   xmlns:dc="http://purl.org/dc/elements/1.1/"
   xmlns:cc="http://creativecommons.org/ns#"
   xmlns:rdf="http://www.w3.org/1999/02/22-rdf-syntax-ns#"
   xmlns:svg="http://www.w3.org/2000/svg"
   xmlns="http://www.w3.org/2000/svg"
   xmlns:sodipodi="http://sodipodi.sourceforge.net/DTD/sodipodi-0.dtd"
   xmlns:inkscape="http://www.inkscape.org/namespaces/inkscape"
   height="400px"
   viewBox="0 0 400 400"
   width="400px"
   id="svg2"
   version="1.1"
   inkscape:version="0.48.2 r9819"
   sodipodi:docname="efiacg---------.svg">
  <metadata
     id="metadata22">
    <rdf:RDF>
      <cc:Work
         rdf:about="">
        <dc:format>image/svg+xml</dc:format>
        <dc:type
           rdf:resource="http://purl.org/dc/dcmitype/StillImage" />
      </cc:Work>
    </rdf:RDF>
  </metadata>
  <defs
     id="defs20" />
  <sodipodi:namedview
     pagecolor="#ffffff"
     bordercolor="#666666"
     borderopacity="1"
     objecttolerance="10"
     gridtolerance="10"
     guidetolerance="10"
     inkscape:pageopacity="0"
     inkscape:pageshadow="2"
     inkscape:window-width="640"
     inkscape:window-height="480"
     id="namedview18"
     showgrid="false"
     inkscape:zoom="0.59"
     inkscape:cx="200"
     inkscape:cy="200"
     inkscape:window-x="0"
     inkscape:window-y="0"
     inkscape:window-maximized="0"
     inkscape:current-layer="svg2" />
  <path
     inkscape:connector-curvature="0"
     d="m 119.4839,197.602 2.4138,4.373 c 11.8417,-6.266 25.7539,-16.204 37.4893,-23.634 6.267,-3.967 12.089,-7.8741 18.28,-12.03 3.213,-2.1575 5.972,-3.8181 9.194,-5.9606 4.179,-2.778 4.486,-4.4394 5.702,-9.9882 z"
     style="fill:#ffffff;stroke:#000000;stroke-width:6;stroke-miterlimit:4;stroke-opacity:1;stroke-dasharray:12, 6;stroke-dashoffset:0"
     id="path6" />
  <polygon
     transform="matrix(100,0,0,100,56,71)"
     points="2.15957,1.30993 2.18322,1.26641 2.10557,1.22 2.07781,1.26387 "
     style="fill:#ffffff"
     id="polygon8" />
  <path
     inkscape:connector-curvature="0"
     d="m 217.372,173.687 -0.025,2.45 -0.985,0.581 c -7.545,-5.052 -17.176,-13.4188 -17.176,-25.7629 -3.087,2.0673 -5.051,9.4453 -5.051,14.6496 l 0,2.5256 c 0,10.5707 7.141,25.0447 11.748,31.1897 6.563,8.754 17.335,11.102 27.149,16.295 3.736,-1.977 21.856,-12.532 23.55,-14.842 2.945,-4.013 9.79,-22.79 9.79,-29.106 0,-4.4634 -0.785,-19.0669 -3.031,-20.7118 -1.506,6.4673 -1.738,11.0496 -5.346,15.8705 -2.473,3.3043 -7.649,8.2713 -11.758,9.3783 l -0.576,-5.548 0,-0.5047 c 0,-6.9335 4.546,-12.5575 4.546,-20.7118 0,-2.328 -7.925,-14.2028 -9.598,-14.6496 0,4.2307 -0.602,9.5086 -1.397,12.748 -0.598,2.4405 -4.393,7.9634 -6.685,7.9634 l -1.516,0 c -0.841,-3.1516 -4.546,-3.9599 -4.546,-11.1134 l 0,-2.5256 c 0,-5.3748 6.062,-12.811 6.062,-18.1858 l 0.114,-1.5295 -0.619,-5.5426 c -2.341,0.6248 -2.428,4.5237 -3.371,6.7331 -1.044,2.4472 -2.327,4.7969 -3.839,6.7693 -3.126,4.0791 -6.097,7.8791 -9.166,12.0504 -4.707,6.3988 -4.946,6.2051 -2.251,14.2906 1.514,4.5421 3.977,11.2823 3.977,17.2392 z"
     style="fill:#ffffff;stroke:#000000;stroke-width:6;stroke-miterlimit:4;stroke-opacity:1;stroke-dasharray:12, 6;stroke-dashoffset:0"
     id="path10" />
  <path
     inkscape:connector-curvature="0"
     d="m 170.898,190.862 0,1.011 c 0,1.909 1.232,3.369 1.913,4.556 l 3.139,34.34 26.457,0.133 9.982,23.814 14.528,-4.732 -2.408,-6.875 -8.147,2.31 c -0.675,-2.896 -8.353,-22.227 -10.103,-22.227 l -23.237,0 c -0.132,-1.58 -0.505,-1.794 -0.505,-3.536 l 0,-2.526 17.68,0 0,-5.557 -18.6,-0.007 -0.596,-8.58 0,-5.052 c 8.065,-1.879 6.373,-14.649 -2.526,-14.649 -4.312,0 -7.577,3.264 -7.577,7.577 z"
     style="fill:#ffffff"
     id="path12" />
  <path
     inkscape:connector-curvature="0"
     d="m 180.496,264.11 4.546,0 c 9.918,0 17.743,-5.677 21.726,-11.621 l -3.035,-8.08 c -2.829,0.755 -4.858,12.123 -20.206,12.123 l -2.021,0 c -7.856,0 -14.699,-7.696 -16.869,-13.945 -1.382,-3.979 -1.411,-8.461 0,-12.522 2.013,-5.796 3.737,-5.629 6.061,-9.379 l -0.81,-8.102 c -7.432,1.984 -16.4968,18.653 -13.346,30.015 2.687,9.686 12.576,21.511 23.954,21.511 z"
     style="fill:#ffffff"
     id="path14" />
  <path
     inkscape:connector-curvature="0"
     d="m 139.0732,275.224 115.6808,0 0,-67.691 c -1.357,0.909 -5.556,2.926 -5.556,4.547 l 0,58.092 -105.0735,0 0,-70.216 -5.0512,0 0,75.268 z"
     style="fill:#ffffff;stroke:#000000;stroke-width:6;stroke-miterlimit:4;stroke-opacity:1;stroke-dasharray:12, 6;stroke-dashoffset:0"
     id="path16" />
</svg>
