<?xml version="1.0" encoding="UTF-8" standalone="no"?>
<!--
Copyright (C) 2012 United States Government as represented by the Administrator of the
National Aeronautics and Space Administration.
All Rights Reserved.
-->

<!--
MIL-STD-2525 tactical symbol icon image. During icon composition this image is multiplied by the desired frame color 
(e.g. black), then drawn on top of the frame and fill.
-->

<svg
   xmlns:dc="http://purl.org/dc/elements/1.1/"
   xmlns:cc="http://creativecommons.org/ns#"
   xmlns:rdf="http://www.w3.org/1999/02/22-rdf-syntax-ns#"
   xmlns:svg="http://www.w3.org/2000/svg"
   xmlns="http://www.w3.org/2000/svg"
   xmlns:sodipodi="http://sodipodi.sourceforge.net/DTD/sodipodi-0.dtd"
   xmlns:inkscape="http://www.inkscape.org/namespaces/inkscape"
   height="400px"
   viewBox="0 0 400 400"
   width="400px"
   id="svg2"
   version="1.1"
   inkscape:version="0.48.2 r9819"
   sodipodi:docname="efiacd---------.svg">
  <metadata
     id="metadata18">
    <rdf:RDF>
      <cc:Work
         rdf:about="">
        <dc:format>image/svg+xml</dc:format>
        <dc:type
           rdf:resource="http://purl.org/dc/dcmitype/StillImage" />
      </cc:Work>
    </rdf:RDF>
  </metadata>
  <defs
     id="defs16" />
  <sodipodi:namedview
     pagecolor="#ffffff"
     bordercolor="#666666"
     borderopacity="1"
     objecttolerance="10"
     gridtolerance="10"
     guidetolerance="10"
     inkscape:pageopacity="0"
     inkscape:pageshadow="2"
     inkscape:window-width="705"
     inkscape:window-height="480"
     id="namedview14"
     showgrid="false"
     inkscape:zoom="0.59"
     inkscape:cx="200"
     inkscape:cy="200"
     inkscape:window-x="160"
     inkscape:window-y="111"
     inkscape:window-maximized="0"
     inkscape:current-layer="svg2" />
  <g
     transform="matrix(100,0,0,100,72.6667,70)"
     id="g4"
     style="fill:#ffffff;stroke:#ffffff;stroke-width:0.06;stroke-miterlimit:4;stroke-opacity:1;stroke-dasharray:0.12, 0.06;stroke-dashoffset:0">
    <path
       inkscape:connector-curvature="0"
       d="m 1.33207,0.741839 c 0,0.021232 0.04982,0.12589 0.05939,0.16461 C 1.40204,0.949288 1.42727,1.05242 1.42727,1.09463 1.25835,1.05528 1.26136,0.857339 1.18087,0.803437 1.13937,0.981575 1.19885,1.16411 1.26935,1.26935 1.32783,1.35663 1.33061,1.35144 1.41142,1.41287 1.42234,1.42117 1.60032,1.51462 1.60086,1.51462 1.6497,1.51462 1.8286,1.34613 1.86554,1.30891 1.908,1.26613 1.99845,1.05167 1.99845,0.965834 l 0,-0.145598 C 1.99845,0.77548 1.99215,0.743315 1.96485,0.725039 1.96378,0.77313 1.92102,0.891574 1.90335,0.926736 1.8825,0.968248 1.80132,1.02715 1.75206,1.03863 l 0,-0.039197 c 0,-0.106028 0.05599,-0.163539 0.05599,-0.240795 0,-0.047185 -0.09651,-0.172524 -0.12319,-0.190394 0,0.127957 -0.01749,0.191114 -0.1008,0.235193 C 1.55711,0.78539 1.51126,0.73928 1.51126,0.697043 l 0,-0.022401 C 1.51126,0.63861 1.55555,0.54628 1.57098,0.515969 1.61856,0.422547 1.58217,0.426642 1.56167,0.349851 l -0.01121,0 C 1.51989,0.481091 1.53231,0.46604 1.4609,0.562682 1.43699,0.595044 1.33207,0.703493 1.33207,0.741839 z"
       style="fill:#ffffff;stroke:#ffffff;stroke-width:0.06;stroke-miterlimit:4;stroke-opacity:1;stroke-dasharray:0.12, 0.06;stroke-dashoffset:0"
       id="path6" />
    <polygon
       points="1.06887,1.60981 0.861681,1.60981 0.861681,1.80581 1.06887,1.80581 "
       style="fill:#ffffff;stroke:#ffffff;stroke-width:0.06;stroke-miterlimit:4;stroke-opacity:1;stroke-dasharray:0.12, 0.06;stroke-dashoffset:0"
       id="polygon8" />
    <polygon
       points="1.71285,1.60421 1.51686,1.60421 1.51686,1.80581 1.71285,1.80581 "
       style="fill:#ffffff;stroke:#ffffff;stroke-width:0.06;stroke-miterlimit:4;stroke-opacity:1;stroke-dasharray:0.12, 0.06;stroke-dashoffset:0"
       id="polygon10" />
    <path
       inkscape:connector-curvature="0"
       d="M 1.05573,0.935543 1.03972,0.86535 0.321655,1.46691 l 0.372031,0.00291 0,0.61038 1.203964,0 0,-0.61038 0.29679,0 c -0.00885,-0.01208 -0.18209,-0.14 -0.1904,-0.14 -0.00663,0 -0.02892,0.03782 -0.0336,0.0448 l 0.03368,0.03351 -0.05608,9e-5 C 1.93095,1.41967 1.83045,1.48167 1.83045,1.49782 l 0,0.53198 -0.43679,0 0,-0.30799 -0.20719,0 0,0.30799 -0.43119,0 0,-0.55998 0.53758,0 L 1.2406,1.40411 0.507911,1.40147 z"
       style="fill:#ffffff;stroke:#ffffff;stroke-width:0.06;stroke-miterlimit:4;stroke-opacity:1;stroke-dasharray:0.12, 0.06;stroke-dashoffset:0"
       id="path12" />
  </g>
</svg>
