<?xml version="1.0" encoding="UTF-8" standalone="no"?>
<!--
Copyright (C) 2012 United States Government as represented by the Administrator of the
National Aeronautics and Space Administration.
All Rights Reserved.
-->

<!--
MIL-STD-2525 tactical symbol icon image. During icon composition this image is multiplied by the desired frame color 
(e.g. black), then drawn on top of the frame and fill.
-->

<svg
   xmlns:dc="http://purl.org/dc/elements/1.1/"
   xmlns:cc="http://creativecommons.org/ns#"
   xmlns:rdf="http://www.w3.org/1999/02/22-rdf-syntax-ns#"
   xmlns:svg="http://www.w3.org/2000/svg"
   xmlns="http://www.w3.org/2000/svg"
   xmlns:sodipodi="http://sodipodi.sourceforge.net/DTD/sodipodi-0.dtd"
   xmlns:inkscape="http://www.inkscape.org/namespaces/inkscape"
   height="400px"
   viewBox="0 0 400 400"
   width="400px"
   id="svg2"
   version="1.1"
   inkscape:version="0.48.2 r9819"
   sodipodi:docname="efiadg---------.svg">
  <metadata
     id="metadata22">
    <rdf:RDF>
      <cc:Work
         rdf:about="">
        <dc:format>image/svg+xml</dc:format>
        <dc:type
           rdf:resource="http://purl.org/dc/dcmitype/StillImage" />
      </cc:Work>
    </rdf:RDF>
  </metadata>
  <defs
     id="defs20" />
  <sodipodi:namedview
     pagecolor="#ffffff"
     bordercolor="#666666"
     borderopacity="1"
     objecttolerance="10"
     gridtolerance="10"
     guidetolerance="10"
     inkscape:pageopacity="0"
     inkscape:pageshadow="2"
     inkscape:window-width="640"
     inkscape:window-height="480"
     id="namedview18"
     showgrid="false"
     inkscape:zoom="0.59"
     inkscape:cx="200"
     inkscape:cy="200"
     inkscape:window-x="0"
     inkscape:window-y="0"
     inkscape:window-maximized="0"
     inkscape:current-layer="svg2" />
  <path
     inkscape:connector-curvature="0"
     d="m 182.08531,200.59358 0.002,-49.89578 49.918,-1.03895 0.01,48.48283 z m -34.72106,-18.9233 0.1122,-42.0717 27.01666,10.06027 0,49.37383 c -3.0921,-1.6357 -27.12886,-15.6255 -27.12886,-17.3624 z m 3.79808,-46.11838 c 14.28526,0 28.57998,0.0528 42.86348,-4.4e-4 5.1755,-0.0195 30.2192,7.76666 33.088,9.66999 l -9.2147,0.63921 -37.4374,0 c -2.321,0 -27.68282,-9.18577 -29.29938,-10.30876 z m -8.67878,-3.67026 0.12903,36.77234 -0.67342,16.8135 c 5.60571,2.9678 13.26622,7.5526 18.66711,11.1749 4.74254,3.1801 13.64374,9.9968 20.39774,9.9902 18.9343,-0.0176 38.3229,-2.717 57.6906,-2.7148 l -0.1782,-59.14238 c -2.5344,-1.21572 -36.9919,-13.56421 -37.9797,-13.56421 l -9.7691,-0.13431 z"
     style="fill:#000000;stroke:#000000;stroke-width:5.99999952;stroke-miterlimit:4;stroke-opacity:1;stroke-dasharray:12.0000001, 5.9999995;stroke-dashoffset:0"
     id="path6" />
  <path
     inkscape:connector-curvature="0"
     d="m 151.16255,135.5519 c 1.61667,1.12299 26.97816,10.30887 29.29916,10.30887 l 37.4374,0 9.2158,-0.63932 c -2.8699,-1.90333 -27.9136,-9.68946 -33.088,-9.66999 -14.2846,0.0532 -28.57899,4.4e-4 -42.86436,4.4e-4 z"
     style="fill:#ffffff;stroke:#000000;stroke-width:5.99999952;stroke-miterlimit:4;stroke-opacity:1;stroke-dasharray:12.0000001, 5.9999995;stroke-dashoffset:0"
     id="path8" />
  <path
     inkscape:connector-curvature="0"
     d="m 147.36458,181.67028 c 0,1.7358 24.03643,15.7256 27.12853,17.3624 l 0,-49.37405 -27.01633,-10.06027 z"
     style="fill:#ffffff;stroke:#000000;stroke-width:5.99999952;stroke-miterlimit:4;stroke-opacity:1;stroke-dasharray:12.0000001, 5.9999995;stroke-dashoffset:0"
     id="path10" />
  <polygon
     transform="matrix(110,0,0,110,56.00001,52.99998)"
     points="1.60006,0.878717 1.14626,0.888161 1.14623,1.34176 1.60014,1.31947 "
     style="fill:#ffffff;stroke:#000000;stroke-width:0.05454545;stroke-miterlimit:4;stroke-opacity:1;stroke-dasharray:0.10909091, 0.05454545;stroke-dashoffset:0"
     id="polygon12" />
  <path
     inkscape:connector-curvature="0"
     d="m 271.07091,195.77668 c 0,-4.323 5.4263,-11.1958 5.4263,-15.7344 0,-1.8194 -0.5093,-4.0634 -1.628,-4.8829 -2.1978,9.4358 -14.6498,22.2739 -14.6498,25.5002 l 0,1.0857 c 0,4.708 3.7983,9.3786 3.7983,15.1921 l 0,5.4252 c -5.8289,-1.5554 -13.9315,-12.2188 -14.1064,-20.075 -2.6279,1.76 -3.7983,7.5427 -3.7983,11.9372 l 0,2.7126 c 0,6.9817 6.2623,19.3435 9.4314,23.6654 4.9148,6.7056 15.9544,7.8001 20.9528,12.144 5.1799,-2.7412 7.8254,-4.4132 12.6984,-7.3755 6.5417,-3.9765 5.5275,-3.8478 8.8319,-10.7008 1.6566,-3.4386 4.2163,-11.3344 4.5177,-15.5584 0.2739,-3.8346 -0.2805,-15.9786 -2.1758,-17.3668 -2.0669,8.8737 -5.2558,17.8574 -13.563,20.075 -0.1419,-1.6962 -0.5434,-1.9272 -0.5434,-3.7983 l 0,-0.5423 c 0,-4.3901 4.2086,-12.3101 3.6256,-16.0622 -0.3278,-2.1054 -6.2568,-11.8393 -7.4239,-12.694 0,7.0708 -1.3442,16.6804 -7.5955,16.8201 -0.8954,-3.3528 -3.7983,-2.5454 -3.7983,-9.7669 z"
     style="fill:#000000;stroke:#000000;stroke-width:5.99999952;stroke-miterlimit:4;stroke-opacity:1;stroke-dasharray:12.0000001, 5.9999995;stroke-dashoffset:0"
     id="path14" />
  <path
     inkscape:connector-curvature="0"
     d="m 120.23616,196.86238 c 0,-4.906 4.88334,-10.5358 4.88334,-15.7344 l 0,-3.7983 c 0,-1.5499 -0.17061,-0.9922 -1.08526,-1.628 -2.12729,9.1322 -15.19166,22.7821 -15.19166,26.0436 0,4.0777 4.88323,11.4114 4.88323,20.6173 -6.43324,-0.5346 -14.64947,-12.2958 -14.64947,-20.075 -2.06789,2.3793 -3.79797,6.5857 -3.79797,10.8515 0,10.989 4.16009,20.119 8.66921,26.598 2.07702,2.9843 17.66842,13.0097 21.71466,13.0097 2.72052,0 16.87675,-9.3599 18.14263,-11.1562 2.20693,-3.1306 7.90042,-17.0093 7.90042,-21.3983 0,-4.0656 -0.11561,-16.3999 -2.17008,-17.9047 -2.76122,11.8514 -3.57753,14.7906 -13.56377,20.075 0,-10.7129 3.25501,-14.344 3.25501,-20.6173 l 0,-1.0857 c 0,-0.3531 -6.97422,-10.9769 -7.59605,-11.3938 0,6.0962 -1.63614,16.8201 -6.51079,16.8201 -2.27238,0 -4.88334,-6.0841 -4.88345,-9.2235 z"
     style="fill:#000000;stroke:#000000;stroke-width:5.99999952;stroke-miterlimit:4;stroke-opacity:1;stroke-dasharray:12.0000001, 5.9999995;stroke-dashoffset:0"
     id="path16" />
</svg>
