<?xml version="1.0"?>
<!--
Copyright 2006-2009, 2017, 2020 United States Government, as represented by the
Administrator of the National Aeronautics and Space Administration.
All rights reserved.

The NASA World Wind Java (WWJ) platform is licensed under the Apache License,
Version 2.0 (the "License"); you may not use this file except in compliance
with the License. You may obtain a copy of the License at
http://www.apache.org/licenses/LICENSE-2.0

Unless required by applicable law or agreed to in writing, software distributed
under the License is distributed on an "AS IS" BASIS, WITHOUT WARRANTIES OR
CONDITIONS OF ANY KIND, either express or implied. See the License for the
specific language governing permissions and limitations under the License.

NASA World Wind Java (WWJ) also contains the following 3rd party Open Source
software:

    Jackson Parser – Licensed under Apache 2.0
    GDAL – Licensed under MIT
    JOGL – Licensed under  Berkeley Software Distribution (BSD)
    Gluegen – Licensed under Berkeley Software Distribution (BSD)

A complete listing of 3rd Party software notices and licenses included in
NASA World Wind Java (WWJ)  can be found in the WorldWindJava-v2.2 3rd-party
notices and licenses PDF found in code directory.
-->

<!DOCTYPE svg PUBLIC "-//W3C//DTD SVG 1.1//EN" "http://www.w3.org/Graphics/SVG/1.1/DTD/svg11.dtd" >
<!--
MIL-STD-2525 tactical symbol icon image. During icon composition this image is multiplied by the desired frame color 
(e.g. black), then drawn on top of the frame and fill.
-->
<svg xmlns:xlink="http://www.w3.org/1999/xlink" height="400px" viewBox="0 0 400 400" width="400px"><g transform="scale(100) translate(0.726667 0.7)"><path d="M1.33207 0.741839 C1.33207 0.763071 1.38189 0.867729 1.39146 0.906449 C1.40204 0.949288     1.42727 1.05242 1.42727 1.09463 C1.25835 1.05528 1.26136 0.857339 1.18087     0.803437 C1.13937 0.981575 1.19885 1.16411 1.26935 1.26935 C1.32783 1.35663     1.33061 1.35144 1.41142 1.41287 C1.42234 1.42117 1.60032 1.51462 1.60086     1.51462 C1.6497 1.51462 1.8286 1.34613 1.86554 1.30891 C1.908 1.26613 1.99845     1.05167 1.99845 0.965834 L1.99845 0.820236 C1.99845 0.77548 1.99215 0.743315     1.96485 0.725039 C1.96378 0.77313 1.92102 0.891574 1.90335 0.926736 C1.8825     0.968248 1.80132 1.02715 1.75206 1.03863 L1.75206 0.999433 C1.75206 0.893405     1.80805 0.835894 1.80805 0.758638 C1.80805 0.711453 1.71154 0.586114 1.68486     0.568244 C1.68486 0.696201 1.66737 0.759358 1.58406 0.803437 C1.55711     0.78539 1.51126 0.73928 1.51126 0.697043 L1.51126 0.674642 C1.51126 0.63861     1.55555 0.54628 1.57098 0.515969 C1.61856 0.422547 1.58217 0.426642 1.56167     0.349851 L1.55046 0.349851 C1.51989 0.481091 1.53231 0.46604 1.4609 0.562682     C1.43699 0.595044 1.33207 0.703493 1.33207 0.741839 z" style="fill:rgb(255,255,255)"/><polygon points="0.861681,1.80581 1.06887,1.80581 1.06887,1.60981 0.861681,1.60981" style="fill:rgb(255,255,255)"/><polygon points="1.51686,1.80581 1.71285,1.80581 1.71285,1.60421 1.51686,1.60421" style="fill:rgb(255,255,255)"/><path d="M1.05573 0.935543 L1.03972 0.86535 L0.321655 1.46691 L0.693686 1.46982 L0.693686     2.0802 L1.89765 2.0802 L1.89765 1.46982 L2.19444 1.46982 C2.18559 1.45774 2.01235     1.32982 2.00404 1.32982 C1.99741 1.32982 1.97512 1.36764 1.97044 1.37462     L2.00412 1.40813 L1.94804 1.40822 C1.93095 1.41967 1.83045 1.48167 1.83045     1.49782 L1.83045 2.0298 L1.39366 2.0298 L1.39366 1.72181 L1.18647 1.72181     L1.18647 2.0298 L0.75528 2.0298 L0.75528 1.46982 L1.29286 1.46982 L1.2406 1.40411     L0.507911 1.40147 z" style="fill:rgb(255,255,255)"/></g></svg>