<?xml version="1.0"?>
<!--
Copyright (C) 2012 United States Government as represented by the Administrator of the
National Aeronautics and Space Administration.
All Rights Reserved.
-->

<!DOCTYPE svg PUBLIC "-//W3C//DTD SVG 1.1//EN" "http://www.w3.org/Graphics/SVG/1.1/DTD/svg11.dtd" >
<!--
MIL-STD-2525 tactical symbol icon image. During icon composition this image is multiplied by the desired frame color 
(e.g. black), then drawn on top of the frame and fill.
-->
<svg xmlns:xlink="http://www.w3.org/1999/xlink" height="400px" viewBox="0 0 400 400" width="400px"><g transform="scale(110) translate(0.509091 0.481818)"><path d="M1.14623 1.34176 L1.14625 0.888162 L1.60005 0.878717 L1.60014 1.31947 zM0.830584     1.16973 L0.831604 0.78726 L1.07721 0.878717 L1.07721 1.32757 C1.0491 1.3127     0.830584 1.18552 0.830584 1.16973 zM0.865112 0.750472 C0.994978 0.750472 1.12493     0.750952 1.25478 0.750468 C1.30183 0.750291 1.5295 0.821074 1.55558 0.838377     L1.47181 0.844188 L1.13147 0.844188 C1.11037 0.844188 0.879808 0.760681     0.865112 0.750472 zM0.786214 0.717106 L0.787387 1.0514 L0.781265 1.20425 C0.832226     1.23123 0.901867 1.27291 0.950966 1.30584 C0.99408 1.33475 1.075 1.39672     1.1364 1.39666 C1.30853 1.3965 1.48479 1.37196 1.66086 1.37198 L1.65924     0.834322 C1.6362 0.82327 1.32295 0.711011 1.31397 0.711011 L1.22516 0.70979     z" style="fill:rgb(0,0,0)"/><path d="M0.865114 0.750472 C0.879811 0.760681 1.11037 0.844189 1.13147 0.844189 L1.47181     0.844189 L1.55559 0.838377 C1.5295 0.821074 1.30183 0.750291 1.25479 0.750468     C1.12493 0.750952 0.994981 0.750472 0.865114 0.750472 z" style="fill:rgb(255,255,255)"/><path d="M0.830587 1.16973 C0.830587 1.18551 1.0491 1.31269 1.07721 1.32757 L1.07721 0.878715     L0.831607 0.787258 z" style="fill:rgb(255,255,255)"/><polygon points="1.60014,1.31947 1.60006,0.878717 1.14626,0.888161 1.14623,1.34176" style="fill:rgb(255,255,255)"/><path d="M1.95519 1.29797 C1.95519 1.25867 2.00452 1.19619 2.00452 1.15493 C2.00452 1.13839     1.99989 1.11799 1.98972 1.11054 C1.96974 1.19632 1.85654 1.31303 1.85654 1.34236     L1.85654 1.35223 C1.85654 1.39503 1.89107 1.43749 1.89107 1.49034 L1.89107     1.53966 C1.83808 1.52552 1.76442 1.42858 1.76283 1.35716 C1.73894 1.37316     1.7283 1.42573 1.7283 1.46568 L1.7283 1.49034 C1.7283 1.55381 1.78523 1.66619     1.81404 1.70548 C1.85872 1.76644 1.95908 1.77639 2.00452 1.81588 C2.05161     1.79096 2.07566 1.77576 2.11996 1.74883 C2.17943 1.71268 2.17021 1.71385     2.20025 1.65155 C2.21531 1.62029 2.23858 1.54851 2.24132 1.51011 C2.24381 1.47525     2.23877 1.36485 2.22154 1.35223 C2.20275 1.4329 2.17376 1.51457 2.09824     1.53473 C2.09695 1.51931 2.0933 1.51721 2.0933 1.5002 L2.0933 1.49527 C2.0933     1.45536 2.13156 1.38336 2.12626 1.34925 C2.12328 1.33011 2.06938 1.24162     2.05877 1.23385 C2.05877 1.29813 2.04655 1.38549 1.98972 1.38676 C1.98158     1.35628 1.95519 1.36362 1.95519 1.29797 z" style="fill:rgb(0,0,0)"/><path d="M0.583965 1.30784 C0.583965 1.26324 0.628359 1.21206 0.628359 1.1648 L0.628359 1.13027     C0.628359 1.11618 0.626808 1.12125 0.618493 1.11547 C0.599154 1.19849     0.480387 1.32258 0.480387 1.35223 C0.480387 1.3893 0.52478 1.45597 0.52478 1.53966     C0.466296 1.5348 0.391603 1.42788 0.391603 1.35716 C0.372804 1.37879     0.357076 1.41703 0.357076 1.45581 C0.357076 1.55571 0.394895 1.63871 0.435887     1.69761 C0.454769 1.72474 0.596509 1.81588 0.633293 1.81588 C0.658025 1.81588     0.786718 1.73079 0.798226 1.71446 C0.818289 1.686 0.870048 1.55983 0.870048     1.51993 C0.870048 1.48297 0.868997 1.37084 0.85032 1.35716 C0.825218 1.4649     0.817797 1.49162 0.727013 1.53966 C0.727013 1.44227 0.756604 1.40926 0.756604     1.35223 L0.756604 1.34236 C0.756604 1.33915 0.693202 1.24257 0.687549     1.23878 C0.687549 1.2942 0.672675 1.39169 0.62836 1.39169 C0.607702 1.39169     0.583966 1.33638 0.583965 1.30784 z" style="fill:rgb(0,0,0)"/></g></svg>