<?xml version="1.0" encoding="UTF-8" standalone="no"?>
<!--
Copyright (C) 2012 United States Government as represented by the Administrator of the
National Aeronautics and Space Administration.
All Rights Reserved.
-->

<!--
MIL-STD-2525 tactical symbol icon image. During icon composition this image is multiplied by the desired frame color 
(e.g. black), then drawn on top of the frame and fill.
-->

<svg
   xmlns:dc="http://purl.org/dc/elements/1.1/"
   xmlns:cc="http://creativecommons.org/ns#"
   xmlns:rdf="http://www.w3.org/1999/02/22-rdf-syntax-ns#"
   xmlns:svg="http://www.w3.org/2000/svg"
   xmlns="http://www.w3.org/2000/svg"
   xmlns:sodipodi="http://sodipodi.sourceforge.net/DTD/sodipodi-0.dtd"
   xmlns:inkscape="http://www.inkscape.org/namespaces/inkscape"
   height="400px"
   viewBox="0 0 400 400"
   width="400px"
   id="svg2"
   version="1.1"
   inkscape:version="0.48.2 r9819"
   sodipodi:docname="efoaeb---------.svg">
  <metadata
     id="metadata14">
    <rdf:RDF>
      <cc:Work
         rdf:about="">
        <dc:format>image/svg+xml</dc:format>
        <dc:type
           rdf:resource="http://purl.org/dc/dcmitype/StillImage" />
      </cc:Work>
    </rdf:RDF>
  </metadata>
  <defs
     id="defs12" />
  <sodipodi:namedview
     pagecolor="#ffffff"
     bordercolor="#666666"
     borderopacity="1"
     objecttolerance="10"
     gridtolerance="10"
     guidetolerance="10"
     inkscape:pageopacity="0"
     inkscape:pageshadow="2"
     inkscape:window-width="640"
     inkscape:window-height="480"
     id="namedview10"
     showgrid="false"
     inkscape:zoom="0.59"
     inkscape:cx="200"
     inkscape:cy="200"
     inkscape:window-x="0"
     inkscape:window-y="0"
     inkscape:window-maximized="0"
     inkscape:current-layer="svg2" />
  <g
     transform="matrix(5,0,0,5,110,141)"
     id="g4"
     style="stroke:#000000;stroke-width:1.20000005;stroke-miterlimit:4;stroke-opacity:1;stroke-dasharray:2.4, 1.2;stroke-dashoffset:0">
    <path
       inkscape:connector-curvature="0"
       d="m 35.928,17.965 c -0.24,-0.047 -1.225,0.338 -2.951,1.15 -1.105,0.48 -2.377,1.223 -3.816,2.229 -5.281,3.498 -9,8.217 -11.16,14.156 -0.098,0 -0.24,-0.119 -0.432,-0.359 C 16.753,32.555 15.288,29.967 13.176,27.379 10.967,24.602 8.424,22.301 5.545,20.481 4.199,19.619 2.352,18.758 0,17.895 -0.039,17.799 -0.039,17.727 0,17.678 0.623,17.391 1.463,17.032 2.52,16.6 5.254,15.69 8.17,13.606 11.268,10.348 14.364,7.09 16.391,4.026 17.352,1.151 17.496,0.768 17.711,0.383 18,0 c 0.91,2.828 2.639,5.773 5.184,8.84 2.688,3.305 5.447,5.652 8.279,7.041 0.625,0.289 1.633,0.744 3.025,1.365 0.43,0.049 0.91,0.289 1.44,0.719 z"
       style="fill:#ffffff;stroke:#000000;stroke-width:1.20000005;stroke-miterlimit:4;stroke-opacity:1;stroke-dasharray:2.4, 1.2;stroke-dashoffset:0"
       id="path6" />
  </g>
  <g
     transform="translate(1.9209295e-8,2e-6)"
     style="font-size:52px;font-weight:bold;text-anchor:middle;fill:#ffffff;font-family:Arial"
     id="text8">
    <path
       inkscape:connector-curvature="0"
       d="m 208.81055,121.31445 7.28711,2.31055 c -1.11723,4.06251 -2.97497,7.07976 -5.57325,9.05176 -2.59833,1.972 -5.89488,2.958 -9.88964,2.95801 -4.94273,-1e-5 -9.00522,-1.68848 -12.1875,-5.06543 -3.1823,-3.37695 -4.77344,-7.99381 -4.77344,-13.85059 0,-6.19529 1.5996,-11.00681 4.79883,-14.43457 3.1992,-3.427699 7.40558,-5.141564 12.61914,-5.141602 4.55336,3.8e-5 8.25192,1.34574 11.0957,4.037112 1.69268,1.59118 2.96221,3.87633 3.80859,6.85547 l -7.43945,1.77734 c -0.44013,-1.92966 -1.35842,-3.4531 -2.75488,-4.57031 -1.39651,-1.11716 -3.09345,-1.67575 -5.09082,-1.67578 -2.75913,3e-5 -4.99774,0.99026 -6.71582,2.9707 -1.71811,1.98049 -2.57716,5.18817 -2.57715,9.62305 -1e-5,4.70574 0.84634,8.0573 2.53906,10.05468 1.6927,1.99741 3.89321,2.9961 6.60156,2.9961 1.99738,0 3.71548,-0.63476 5.1543,-1.9043 1.43878,-1.26952 2.47133,-3.26692 3.09766,-5.99219 z"
       style="font-size:52px;font-weight:bold;text-anchor:middle;fill:#ffffff;font-family:Arial"
       id="path2992" />
  </g>
</svg>
