<?xml version="1.0" encoding="UTF-8" standalone="no"?>
<!--
Copyright (C) 2012 United States Government as represented by the Administrator of the
National Aeronautics and Space Administration.
All Rights Reserved.
-->

<!--
MIL-STD-2525 tactical symbol icon image. During icon composition this image is multiplied by the desired frame color 
(e.g. black), then drawn on top of the frame and fill.
-->

<svg
   xmlns:dc="http://purl.org/dc/elements/1.1/"
   xmlns:cc="http://creativecommons.org/ns#"
   xmlns:rdf="http://www.w3.org/1999/02/22-rdf-syntax-ns#"
   xmlns:svg="http://www.w3.org/2000/svg"
   xmlns="http://www.w3.org/2000/svg"
   xmlns:sodipodi="http://sodipodi.sourceforge.net/DTD/sodipodi-0.dtd"
   xmlns:inkscape="http://www.inkscape.org/namespaces/inkscape"
   height="400px"
   viewBox="0 0 400 400"
   width="400px"
   id="svg2"
   version="1.1"
   inkscape:version="0.48.2 r9819"
   sodipodi:docname="efoadga--------.svg">
  <metadata
     id="metadata10">
    <rdf:RDF>
      <cc:Work
         rdf:about="">
        <dc:format>image/svg+xml</dc:format>
        <dc:type
           rdf:resource="http://purl.org/dc/dcmitype/StillImage" />
      </cc:Work>
    </rdf:RDF>
  </metadata>
  <defs
     id="defs8" />
  <sodipodi:namedview
     pagecolor="#ffffff"
     bordercolor="#666666"
     borderopacity="1"
     objecttolerance="10"
     gridtolerance="10"
     guidetolerance="10"
     inkscape:pageopacity="0"
     inkscape:pageshadow="2"
     inkscape:window-width="640"
     inkscape:window-height="480"
     id="namedview6"
     showgrid="false"
     inkscape:zoom="0.59"
     inkscape:cx="200"
     inkscape:cy="200"
     inkscape:window-x="0"
     inkscape:window-y="0"
     inkscape:window-maximized="0"
     inkscape:current-layer="svg2" />
  <g
     style="font-size:95px;font-weight:bold;text-anchor:middle;fill:#ffffff;stroke:#000000;stroke-width:6;stroke-miterlimit:4;stroke-opacity:1;stroke-dasharray:12, 6;stroke-dashoffset:0;font-family:arial"
     id="text4">
    <path
       inkscape:connector-curvature="0"
       d="m 106.48438,166.99707 25.09521,0 c 5.65914,7e-5 9.9731,0.43301 12.94189,1.29883 3.98921,1.17519 7.40636,3.26259 10.25147,6.26221 2.84499,2.99973 5.0097,6.67201 6.49414,11.01684 1.48431,4.34494 2.2265,9.7026 2.22656,16.073 -6e-5,5.59736 -0.69586,10.42157 -2.0874,14.47266 -1.70091,4.94793 -4.12848,8.95264 -7.28271,12.01416 -2.38124,2.31934 -5.59738,4.12842 -9.64844,5.42724 C 141.44446,234.52067 137.39335,235 132.32178,235 l -25.8374,0 z m 13.73046,11.50391 0,45.0415 10.25147,0 c 3.8346,10e-6 6.60234,-0.21646 8.30322,-0.64941 2.22652,-0.55663 4.07426,-1.49983 5.54321,-2.82959 1.46887,-1.32974 2.66719,-3.51764 3.59497,-6.56372 0.92769,-3.04604 1.39156,-7.19765 1.39161,-12.45484 -5e-5,-5.25712 -0.46392,-9.29276 -1.39161,-12.10693 -0.92778,-2.81408 -2.2266,-5.00972 -3.89648,-6.58692 -1.66996,-1.57709 -3.78829,-2.64398 -6.35498,-3.20068 -1.91735,-0.43289 -5.67467,-0.64936 -11.27197,-0.64941 z"
       style="font-size:95px;font-weight:bold;text-anchor:middle;fill:#ffffff;stroke:#000000;stroke-width:6;stroke-miterlimit:4;stroke-opacity:1;stroke-dasharray:12, 6;stroke-dashoffset:0;font-family:arial"
       id="path2988" />
    <path
       inkscape:connector-curvature="0"
       d="m 175.18311,235 0,-68.00293 50.42236,0 0,11.50391 -36.6919,0 0,15.07568 34.14063,0 0,11.45752 -34.14063,0 0,18.5083 37.99073,0 0,11.45752 z"
       style="font-size:95px;font-weight:bold;text-anchor:middle;fill:#ffffff;stroke:#000000;stroke-width:6;stroke-miterlimit:4;stroke-opacity:1;stroke-dasharray:12, 6;stroke-dashoffset:0;font-family:arial"
       id="path2990" />
    <path
       inkscape:connector-curvature="0"
       d="m 299.96338,235 -14.93652,0 -5.9375,-15.44678 -27.18262,0 -5.61279,15.44678 -14.56543,0 26.48681,-68.00293 14.51904,0 z m -25.28076,-26.9043 -9.37012,-25.23437 -9.18457,25.23437 z"
       style="font-size:95px;font-weight:bold;text-anchor:middle;fill:#ffffff;stroke:#000000;stroke-width:6;stroke-miterlimit:4;stroke-opacity:1;stroke-dasharray:12, 6;stroke-dashoffset:0;font-family:arial"
       id="path2992" />
  </g>
</svg>
