<?xml version="1.0"?>
<!--
Copyright (C) 2012 United States Government as represented by the Administrator of the
National Aeronautics and Space Administration.
All Rights Reserved.
-->

<!DOCTYPE svg PUBLIC "-//W3C//DTD SVG 1.1//EN" "http://www.w3.org/Graphics/SVG/1.1/DTD/svg11.dtd" >
<!--
MIL-STD-2525 tactical symbol icon image. During icon composition this image is multiplied by the desired frame color 
(e.g. black), then drawn on top of the frame and fill.
-->
<svg xmlns:xlink="http://www.w3.org/1999/xlink" height="400px" viewBox="0 0 400 400" width="400px"><polygon points="199.5,100 228.355,149.522 285.67,149.75 257.21,199.5 285.67,249.25 228.355,249.478 199.5,299 170.645,249.478 113.33,249.25 141.79,199.5 113.33,149.75 170.645,149.522" style="fill:rgb(255,255,255);stroke:rgb(255,255,255);stroke-width:1" transform="matrix(1 0 0 1 0 0)"/><ellipse cx="199" cy="99" rx="12" ry="12" style="fill:rgb(255,255,255);stroke:rgb(255,255,255);stroke-width:1" transform="matrix(1 0 0 1 0 0)"/><ellipse cx="199" cy="299" rx="12" ry="12" style="fill:rgb(255,255,255);stroke:rgb(255,255,255);stroke-width:1" transform="matrix(1 0 0 1 0 0)"/><ellipse cx="115" cy="150" rx="12" ry="12" style="fill:rgb(255,255,255);stroke:rgb(255,255,255);stroke-width:1" transform="matrix(1 0 0 1 0 0)"/><ellipse cx="285" cy="149" rx="12" ry="12" style="fill:rgb(255,255,255);stroke:rgb(255,255,255);stroke-width:1" transform="matrix(1 0 0 1 0 0)"/><ellipse cx="285" cy="250" rx="12" ry="12" style="fill:rgb(255,255,255);stroke:rgb(255,255,255);stroke-width:1" transform="matrix(1 0 0 1 0 0)"/><ellipse cx="115" cy="250" rx="12" ry="12" style="fill:rgb(255,255,255);stroke:rgb(255,255,255);stroke-width:1" transform="matrix(1 0 0 1 0 0)"/></svg>