<?xml version="1.0" encoding="UTF-8" standalone="no"?>
<!--
Copyright (C) 2012 United States Government as represented by the Administrator of the
National Aeronautics and Space Administration.
All Rights Reserved.
-->

<!--
MIL-STD-2525 tactical symbol icon image. During icon composition this image is multiplied by the desired frame color 
(e.g. black), then drawn on top of the frame and fill.
-->

<svg
   xmlns:dc="http://purl.org/dc/elements/1.1/"
   xmlns:cc="http://creativecommons.org/ns#"
   xmlns:rdf="http://www.w3.org/1999/02/22-rdf-syntax-ns#"
   xmlns:svg="http://www.w3.org/2000/svg"
   xmlns="http://www.w3.org/2000/svg"
   xmlns:sodipodi="http://sodipodi.sourceforge.net/DTD/sodipodi-0.dtd"
   xmlns:inkscape="http://www.inkscape.org/namespaces/inkscape"
   height="400px"
   viewBox="0 0 400 400"
   width="400px"
   id="svg2"
   version="1.1"
   inkscape:version="0.48.2 r9819"
   sodipodi:docname="ehfaid---------.svg">
  <metadata
     id="metadata20">
    <rdf:RDF>
      <cc:Work
         rdf:about="">
        <dc:format>image/svg+xml</dc:format>
        <dc:type
           rdf:resource="http://purl.org/dc/dcmitype/StillImage" />
      </cc:Work>
    </rdf:RDF>
  </metadata>
  <defs
     id="defs18" />
  <sodipodi:namedview
     pagecolor="#ffffff"
     bordercolor="#666666"
     borderopacity="1"
     objecttolerance="10"
     gridtolerance="10"
     guidetolerance="10"
     inkscape:pageopacity="0"
     inkscape:pageshadow="2"
     inkscape:window-width="640"
     inkscape:window-height="480"
     id="namedview16"
     showgrid="false"
     inkscape:zoom="0.59"
     inkscape:cx="200"
     inkscape:cy="200"
     inkscape:window-x="0"
     inkscape:window-y="0"
     inkscape:window-maximized="0"
     inkscape:current-layer="svg2" />
  <path
     inkscape:connector-curvature="0"
     d="m 184.50084,215.3028 -1.0932,0 c -1.2756,0 -2.7348,-1.4592 -2.7348,-2.7348 l 0,-31.176 c 0,-1.2804 0.9072,-2.1864 2.1876,-2.1864 l 1.6404,0 c 1.2804,0 2.1876,0.906 2.1876,2.1864 l 0,29.5356 c 0,1.9488 -0.2664,4.3752 -2.1876,4.3752 z m -59.61636,-37.1916 0,89.1516 71.64876,0 0,-159.70728 c -19.3644,0 -42.52512,8.8842 -52.3698,18.73176 -10.73388,10.73712 -19.27884,30.72312 -19.27896,51.82392 z"
     style="fill:#ffffff;stroke:#000000;stroke-width:6;stroke-miterlimit:4;stroke-opacity:1;stroke-dasharray:12, 6;stroke-dashoffset:0"
     id="path6" />
  <path
     inkscape:connector-curvature="0"
     d="m 184.50084,215.3028 c 1.9212,0 2.1876,-2.4264 2.1876,-4.3752 l 0,-29.5356 c 0,-1.2804 -0.9072,-2.1864 -2.1876,-2.1864 l -1.6404,0 c -1.2804,0 -2.1876,0.906 -2.1876,2.1864 l 0,31.176 c 0,1.2756 1.4592,2.7348 2.7348,2.7348 z"
     style="fill:#000000;stroke:#000000;stroke-width:6;stroke-miterlimit:4;stroke-opacity:1;stroke-dasharray:12, 6;stroke-dashoffset:0"
     id="path8" />
  <path
     inkscape:connector-curvature="0"
     d="m 212.39604,181.392 0,31.176 c 0,1.2744 1.4592,2.7348 2.7348,2.7348 l 1.0932,0 c 1.7688,0 2.7348,-1.986 2.7348,-3.8292 l 0,-29.5344 c 0,-1.2756 -1.4592,-2.7348 -2.7348,-2.7348 l -1.6404,0 c -1.2804,0 -2.1876,0.9072 -2.1876,2.1876 z"
     style="fill:#000000;stroke:#000000;stroke-width:6;stroke-miterlimit:4;stroke-opacity:1;stroke-dasharray:12, 6;stroke-dashoffset:0"
     id="path10" />
  <path
     inkscape:connector-curvature="0"
     d="m 212.39604,181.392 c 0,-1.2804 0.9072,-2.1876 2.1876,-2.1876 l 1.6404,0 c 1.2756,0 2.7348,1.4592 2.7348,2.7348 l 0,29.5344 c 0,1.8432 -0.966,3.8292 -2.7348,3.8292 l -1.0932,0 c -1.2756,0 -2.7348,-1.4592 -2.7348,-2.7348 z m -9.8448,85.8696 71.6484,0 0,-82.5876 c 0,-26.1864 -4.9032,-42.89616 -17.3496,-57.03432 -9.2688,-10.52976 -34.596,-20.0844 -54.2988,-20.0844 z"
     style="fill:#ffffff;stroke:#000000;stroke-width:6;stroke-miterlimit:4;stroke-opacity:1;stroke-dasharray:12, 6;stroke-dashoffset:0"
     id="path12" />
</svg>
