<?xml version="1.0"?>
<!--
Copyright 2006-2009, 2017, 2020 United States Government, as represented by the
Administrator of the National Aeronautics and Space Administration.
All rights reserved.

The NASA World Wind Java (WWJ) platform is licensed under the Apache License,
Version 2.0 (the "License"); you may not use this file except in compliance
with the License. You may obtain a copy of the License at
http://www.apache.org/licenses/LICENSE-2.0

Unless required by applicable law or agreed to in writing, software distributed
under the License is distributed on an "AS IS" BASIS, WITHOUT WARRANTIES OR
CONDITIONS OF ANY KIND, either express or implied. See the License for the
specific language governing permissions and limitations under the License.

NASA World Wind Java (WWJ) also contains the following 3rd party Open Source
software:

    Jackson Parser – Licensed under Apache 2.0
    GDAL – Licensed under MIT
    JOGL – Licensed under  Berkeley Software Distribution (BSD)
    Gluegen – Licensed under Berkeley Software Distribution (BSD)

A complete listing of 3rd Party software notices and licenses included in
NASA World Wind Java (WWJ)  can be found in the WorldWindJava-v2.2 3rd-party
notices and licenses PDF found in code directory.
-->

<!DOCTYPE svg PUBLIC "-//W3C//DTD SVG 1.1//EN" "http://www.w3.org/Graphics/SVG/1.1/DTD/svg11.dtd" >
<!--
MIL-STD-2525 tactical symbol icon image. During icon composition this image is multiplied by the desired frame color 
(e.g. black), then drawn on top of the frame and fill.
-->
<svg xmlns:xlink="http://www.w3.org/1999/xlink" height="400px" viewBox="0 0 400 400" width="400px"><g transform="scale(120) translate(0.366667 0.3)"><path d="M1.17084 1.49419 L1.16173 1.49419 C1.1511 1.49419 1.13894 1.48203 1.13894 1.4714     L1.13894 1.2116 C1.13894 1.20093 1.1465 1.19338 1.15717 1.19338 L1.17084 1.19338     C1.18151 1.19338 1.18907 1.20093 1.18907 1.2116 L1.18907 1.45773 C1.18907     1.47397 1.18685 1.49419 1.17084 1.49419 zM0.674037 1.18426 L0.674037 1.92719     L1.27111 1.92719 L1.27111 0.596296 C1.10974 0.596296 0.916734 0.670331 0.834695     0.752394 C0.745246 0.84187 0.674038 1.00842 0.674037 1.18426 z" style="fill:rgb(255,255,255)"/><path d="M1.17084 1.49419 C1.18685 1.49419 1.18907 1.47397 1.18907 1.45773 L1.18907 1.2116     C1.18907 1.20093 1.18151 1.19338 1.17084 1.19338 L1.15717 1.19338 C1.1465 1.19338     1.13894 1.20093 1.13894 1.2116 L1.13894 1.4714 C1.13894 1.48203 1.1511     1.49419 1.16173 1.49419 z" style="fill:rgb(0,0,0)"/><path d="M1.4033 1.2116 L1.4033 1.4714 C1.4033 1.48202 1.41546 1.49419 1.42609 1.49419 L1.4352     1.49419 C1.44994 1.49419 1.45799 1.47764 1.45799 1.46228 L1.45799 1.21616     C1.45799 1.20553 1.44583 1.19337 1.4352 1.19337 L1.42153 1.19337 C1.41086     1.19337 1.4033 1.20093 1.4033 1.2116 z" style="fill:rgb(0,0,0)"/><path d="M1.4033 1.2116 C1.4033 1.20093 1.41086 1.19337 1.42153 1.19337 L1.4352 1.19337 C1.44583     1.19337 1.45799 1.20553 1.45799 1.21616 L1.45799 1.46228 C1.45799 1.47764     1.44994 1.49419 1.4352 1.49419 L1.42609 1.49419 C1.41546 1.49419 1.4033     1.48203 1.4033 1.4714 zM1.32126 1.92718 L1.91833 1.92718 L1.91833 1.23895 C1.91833     1.02073 1.87747 0.881482 1.77375 0.763664 C1.69651 0.675916 1.48545     0.596294 1.32126 0.596294 z" style="fill:rgb(255,255,255)"/><path d="M1.32125 0.596291 C1.48544 0.596291 1.6965 0.675913 1.77375 0.763661 C1.87746 0.88148     1.91833 1.02072 1.91833 1.23895 L1.91833 1.92718 L1.32125 1.92718 zM0.674037     1.18425 C0.674037 1.00842 0.745246 0.841866 0.834694 0.75239 C0.916733     0.670327 1.10974 0.596292 1.27111 0.596292 L1.27111 1.92718 L0.674036 1.92718     zM0.619344 1.98187 L1.97302 1.98187 L1.97302 1.24806 C1.97302 1.02226 1.91991     0.837177 1.80552 0.72278 C1.70481 0.622063 1.4928 0.541599 1.29391 0.541599     C1.12067 0.541599 0.888894 0.619902 0.802788 0.706808 C0.735713 0.774505     0.712914 0.810855 0.673111 0.905296 C0.652552 0.954075 0.619347 1.11318 0.619347     1.1797 L0.619347 1.98188 z" style="fill:rgb(0,0,0)"/></g></svg>