<?xml version="1.0" encoding="UTF-8" standalone="no"?>
<!--
Copyright (C) 2012 United States Government as represented by the Administrator of the
National Aeronautics and Space Administration.
All Rights Reserved.
-->

<!--
MIL-STD-2525 tactical symbol icon image. During icon composition this image is multiplied by the desired frame color 
(e.g. black), then drawn on top of the frame and fill.
-->

<svg
   xmlns:dc="http://purl.org/dc/elements/1.1/"
   xmlns:cc="http://creativecommons.org/ns#"
   xmlns:rdf="http://www.w3.org/1999/02/22-rdf-syntax-ns#"
   xmlns:svg="http://www.w3.org/2000/svg"
   xmlns="http://www.w3.org/2000/svg"
   xmlns:sodipodi="http://sodipodi.sourceforge.net/DTD/sodipodi-0.dtd"
   xmlns:inkscape="http://www.inkscape.org/namespaces/inkscape"
   height="400px"
   viewBox="0 0 400 400"
   width="400px"
   id="svg2"
   version="1.1"
   inkscape:version="0.48.2 r9819"
   sodipodi:docname="ehiach---------.svg">
  <metadata
     id="metadata14">
    <rdf:RDF>
      <cc:Work
         rdf:about="">
        <dc:format>image/svg+xml</dc:format>
        <dc:type
           rdf:resource="http://purl.org/dc/dcmitype/StillImage" />
      </cc:Work>
    </rdf:RDF>
  </metadata>
  <defs
     id="defs12" />
  <sodipodi:namedview
     pagecolor="#ffffff"
     bordercolor="#666666"
     borderopacity="1"
     objecttolerance="10"
     gridtolerance="10"
     guidetolerance="10"
     inkscape:pageopacity="0"
     inkscape:pageshadow="2"
     inkscape:window-width="640"
     inkscape:window-height="480"
     id="namedview10"
     showgrid="false"
     inkscape:zoom="0.59"
     inkscape:cx="200"
     inkscape:cy="200"
     inkscape:window-x="168"
     inkscape:window-y="58"
     inkscape:window-maximized="0"
     inkscape:current-layer="svg2" />
  <path
     inkscape:connector-curvature="0"
     d="m 222.444,294.386 c 0.608,-1.149 16.309,-15.39 18.478,-17.537 6.611,-6.543 13.891,-13.008 19.389,-20.322 9.723,-12.937 19.939,-37.414 19.939,-59.992 l 0,-17.31 c 0,-2.563 0.077,-5.545 -2.036,-6.109 -1.972,8.463 -8.192,19.205 -12.866,25.318 -1.186,1.55 -19.718,21.806 -19.718,15.411 0,-11.801 6.242,-20.971 7.129,-33.6 0.506,-7.197 -1.896,-28.4786 -3.565,-35.6397 -2.223,1.6288 -2.928,10.5177 -4.13,14.1976 -1.386,4.2406 -2.932,8.9437 -5.327,12.4921 -1.79,2.65 -15.317,18.112 -17.526,18.112 -1.836,0 -4.073,-7.332 -4.073,-10.182 0,-11.8517 8.146,-24.3501 8.146,-33.6017 l 0,-1.5271 c 0,-5.9146 -4.811,-9.0736 -7.463,-13.9201 -1.401,-2.5595 -6.727,-11.7594 -9.338,-12.0449 l 0,7.1275 c 0,5.5737 -1.354,13.9157 -3.202,17.672 -1.013,2.0603 -8.002,10.3295 -10.035,10.3295 -2.584,0 -9.673,-9.789 -9.673,-14.2555 l 0,-8.6547 c 0,-10.1323 10.183,-21.6012 10.183,-31.5654 l 0,-0.509 c 0,-3.6839 -0.086,-9.893 -3.565,-10.1823 -1.669,20.0622 -31.5646,46.7642 -31.5646,54.4752 0,10.9953 9.6736,22.9461 9.6736,39.7105 l 0,5.601 c 0,1.755 -0.377,1.971 -0.509,3.564 -1.9599,-0.524 -3.3879,-3.369 -4.7131,-4.961 -1.6291,-1.957 -3.4964,-2.808 -5.4767,-4.196 -3.7052,-2.597 -6.7189,-5.636 -9.5284,-9.31 -4.6941,-6.1381 -10.3201,-16.792 -10.3201,-27.3538 -4.4819,1.1968 -8.1457,15.7882 -8.1457,21.8921 l 0,8.6547 c 0,20.728 14.7642,37.727 14.7642,45.311 -7.9003,-4.18 -15.098,-9.787 -21.2602,-15.905 -3.0204,-2.998 -13.765,-21.334 -15.3961,-21.769 0,14.206 4.1449,25.872 6.4957,37.797 1.1343,5.754 2.8854,12.834 4.6327,17.769 2.4311,6.864 4.6697,8.188 8.5169,13.374 7.3807,9.951 12.1469,15.038 20.7012,23.592 3.7713,3.771 7.1969,7.153 10.9461,10.946 l 11.8235,8.585 14.778,7.07 0,-32.583 -32.5827,0 24.6377,-28.846 -18.5286,-0.174 24.6006,-27.856 -16.454,-0.146 27.217,-43.1266 0.312,-0.498 27.96,43.6276 -15.269,-0.003 23.483,27.436 -18.902,0.057 25.213,29.299 -32.849,0.229 0,32.584 z"
     style="fill:#ffffff;stroke:#000000;stroke-width:6;stroke-miterlimit:4;stroke-opacity:1;stroke-dasharray:12, 6;stroke-dashoffset:0"
     id="path8" />
</svg>
