<?xml version="1.0" encoding="UTF-8" standalone="no"?>
<!--
Copyright (C) 2012 United States Government as represented by the Administrator of the
National Aeronautics and Space Administration.
All Rights Reserved.
-->

<!--
MIL-STD-2525 tactical symbol icon image. During icon composition this image is multiplied by the desired frame color 
(e.g. black), then drawn on top of the frame and fill.
-->

<svg
   xmlns:dc="http://purl.org/dc/elements/1.1/"
   xmlns:cc="http://creativecommons.org/ns#"
   xmlns:rdf="http://www.w3.org/1999/02/22-rdf-syntax-ns#"
   xmlns:svg="http://www.w3.org/2000/svg"
   xmlns="http://www.w3.org/2000/svg"
   xmlns:sodipodi="http://sodipodi.sourceforge.net/DTD/sodipodi-0.dtd"
   xmlns:inkscape="http://www.inkscape.org/namespaces/inkscape"
   height="400px"
   viewBox="0 0 400 400"
   width="400px"
   id="svg2"
   version="1.1"
   inkscape:version="0.48.2 r9819"
   sodipodi:docname="ehiadm---------.svg">
  <metadata
     id="metadata50">
    <rdf:RDF>
      <cc:Work
         rdf:about="">
        <dc:format>image/svg+xml</dc:format>
        <dc:type
           rdf:resource="http://purl.org/dc/dcmitype/StillImage" />
      </cc:Work>
    </rdf:RDF>
  </metadata>
  <defs
     id="defs48" />
  <sodipodi:namedview
     pagecolor="#ffffff"
     bordercolor="#666666"
     borderopacity="1"
     objecttolerance="10"
     gridtolerance="10"
     guidetolerance="10"
     inkscape:pageopacity="0"
     inkscape:pageshadow="2"
     inkscape:window-width="640"
     inkscape:window-height="444"
     id="namedview46"
     showgrid="false"
     inkscape:zoom="0.59"
     inkscape:cx="200"
     inkscape:cy="200"
     inkscape:window-x="0"
     inkscape:window-y="36"
     inkscape:window-maximized="0"
     inkscape:current-layer="svg2" />
  <g
     transform="matrix(0.7,0,0,0.7,85.000299,28)"
     id="g4"
     style="stroke:#000000;stroke-width:8.5714283;stroke-miterlimit:4;stroke-opacity:1;stroke-dasharray:17.14285714, 8.57142857;stroke-dashoffset:0">
    <ellipse
       sodipodi:ry="66.5"
       sodipodi:rx="27"
       sodipodi:cy="186.5"
       sodipodi:cx="223"
       cx="223"
       cy="186.5"
       rx="27"
       ry="66.5"
       style="fill:#000000;stroke:#000000;stroke-width:8.5714283;stroke-miterlimit:4;stroke-opacity:1;stroke-dasharray:17.14285714, 8.57142857;stroke-dashoffset:0"
       transform="matrix(0.9753044,0.22086494,-0.22086494,0.9753044,40.867118,-36.394156)"
       id="ellipse6"
       d="m 250,186.5 c 0,36.72694 -12.08831,66.5 -27,66.5 -14.91169,0 -27,-29.77306 -27,-66.5 0,-36.72694 12.08831,-66.5 27,-66.5 14.91169,0 27,29.77306 27,66.5 z" />
    <ellipse
       sodipodi:ry="40"
       sodipodi:rx="34"
       sodipodi:cy="144"
       sodipodi:cx="174"
       cx="174"
       cy="144"
       rx="34"
       ry="40"
       style="fill:#000000;stroke:#000000;stroke-width:8.5714283;stroke-miterlimit:4;stroke-opacity:1;stroke-dasharray:17.14285714, 8.57142857;stroke-dashoffset:0"
       transform="translate(-16,31)"
       id="ellipse8"
       d="m 208,144 c 0,22.09139 -15.22232,40 -34,40 -18.77768,0 -34,-17.90861 -34,-40 0,-22.09139 15.22232,-40 34,-40 18.77768,0 34,17.90861 34,40 z" />
    <rect
       height="62"
       style="fill:#000000;stroke:#000000;stroke-width:8.34745026;stroke-miterlimit:4;stroke-opacity:1;stroke-dasharray:16.6949005, 8.34745025;stroke-dashoffset:0"
       transform="matrix(0.96064313,0.35567623,-0.35825708,0.96493723,91.816011,56.675512)"
       width="107"
       x="82"
       y="184"
       id="rect10" />
    <g
       transform="matrix(0.94188754,0.33592834,-0.33592834,0.94188754,74.339719,63.557802)"
       id="g12"
       style="stroke:#000000;stroke-width:8.5714283;stroke-miterlimit:4;stroke-opacity:1;stroke-dasharray:17.14285714, 8.57142857;stroke-dashoffset:0">
      <ellipse
         sodipodi:ry="20"
         sodipodi:rx="56"
         sodipodi:cy="240"
         sodipodi:cx="150"
         cx="150"
         cy="240"
         rx="56"
         ry="20"
         style="fill:#ffffff;stroke:#000000;stroke-width:8.5714283;stroke-miterlimit:4;stroke-opacity:1;stroke-dasharray:17.14285714, 8.57142857;stroke-dashoffset:0"
         id="ellipse14"
         d="m 206,240 c 0,11.04569 -25.07205,20 -56,20 -30.92795,0 -56,-8.95431 -56,-20 0,-11.04569 25.07205,-20 56,-20 30.92795,0 56,8.95431 56,20 z" />
    </g>
    <g
       transform="matrix(0.94188754,0.33592834,-0.33592834,0.94188754,70.339715,69.557802)"
       id="g16"
       style="stroke:#000000;stroke-width:8.5714283;stroke-miterlimit:4;stroke-opacity:1;stroke-dasharray:17.14285714, 8.57142857;stroke-dashoffset:0">
      <ellipse
         sodipodi:ry="20"
         sodipodi:rx="56"
         sodipodi:cy="240"
         sodipodi:cx="150"
         cx="150"
         cy="240"
         rx="56"
         ry="20"
         style="fill:#000000;stroke:#000000;stroke-width:8.5714283;stroke-miterlimit:4;stroke-opacity:1;stroke-dasharray:17.14285714, 8.57142857;stroke-dashoffset:0"
         id="ellipse18"
         d="m 206,240 c 0,11.04569 -25.07205,20 -56,20 -30.92795,0 -56,-8.95431 -56,-20 0,-11.04569 25.07205,-20 56,-20 30.92795,0 56,8.95431 56,20 z" />
      <ellipse
         sodipodi:ry="7"
         sodipodi:rx="23"
         sodipodi:cy="241"
         sodipodi:cx="149"
         cx="149"
         cy="241"
         rx="23"
         ry="7"
         style="fill:#ffffff;stroke:#000000;stroke-width:8.5714283;stroke-miterlimit:4;stroke-opacity:1;stroke-dasharray:17.14285714, 8.57142857;stroke-dashoffset:0"
         id="ellipse20"
         d="m 172,241 c 0,3.86599 -10.29745,7 -23,7 -12.70255,0 -23,-3.13401 -23,-7 0,-3.86599 10.29745,-7 23,-7 12.70255,0 23,3.13401 23,7 z" />
    </g>
    <line
       style="stroke:#000000;stroke-width:9.32971573;stroke-miterlimit:4;stroke-opacity:1;stroke-dasharray:18.65943195, 9.32971598;stroke-dashoffset:0"
       transform="matrix(0.87878768,0,0,0.960474,12.704572,18.464768)"
       x1="135"
       x2="126"
       y1="240"
       y2="263"
       id="line22" />
    <line
       style="stroke:#000000;stroke-width:8.5714283;stroke-miterlimit:4;stroke-opacity:1;stroke-dasharray:17.14285714, 8.57142857;stroke-dashoffset:0"
       transform="translate(-9,12.1667)"
       x1="207"
       x2="202"
       y1="262"
       y2="277"
       id="line24" />
    <rect
       height="86"
       style="fill:#000000;stroke:#000000;stroke-width:8.5714283;stroke-miterlimit:4;stroke-opacity:1;stroke-dasharray:17.14285714, 8.57142857;stroke-dashoffset:0"
       transform="matrix(0.94628209,0.32334223,-0.32334223,0.94628209,79.87821,27.615833)"
       width="75"
       x="119"
       y="110"
       id="rect26" />
    <ellipse
       sodipodi:ry="16"
       sodipodi:rx="23"
       sodipodi:cy="157"
       sodipodi:cx="193"
       cx="193"
       cy="157"
       rx="23"
       ry="16"
       style="fill:#000000;stroke:#000000;stroke-width:8.5714283;stroke-miterlimit:4;stroke-opacity:1;stroke-dasharray:17.14285714, 8.57142857;stroke-dashoffset:0"
       transform="translate(2,-5)"
       id="ellipse28"
       d="m 216,157 c 0,8.83656 -10.29745,16 -23,16 -12.70255,0 -23,-7.16344 -23,-16 0,-8.83656 10.29745,-16 23,-16 12.70255,0 23,7.16344 23,16 z" />
    <ellipse
       sodipodi:ry="31"
       sodipodi:rx="22.5"
       sodipodi:cy="147"
       sodipodi:cx="222.5"
       cx="222.5"
       cy="147"
       rx="22.5"
       ry="31"
       style="fill:#ffffff;stroke:#000000;stroke-width:9.32359791;stroke-miterlimit:4;stroke-opacity:1;stroke-dasharray:18.64719493, 9.32359746;stroke-dashoffset:0"
       transform="matrix(1,0,0,0.84516089,-29.2,57.561333)"
       id="ellipse30"
       d="m 245,147 c 0,17.12083 -10.07359,31 -22.5,31 -12.42641,0 -22.5,-13.87917 -22.5,-31 0,-17.12083 10.07359,-31 22.5,-31 12.42641,0 22.5,13.87917 22.5,31 z" />
    <ellipse
       sodipodi:ry="25"
       sodipodi:rx="15.5"
       sodipodi:cy="147"
       sodipodi:cx="159.5"
       cx="159.5"
       cy="147"
       rx="15.5"
       ry="25"
       style="fill:#ffffff;stroke:#000000;stroke-width:9.41312122;stroke-miterlimit:4;stroke-opacity:1;stroke-dasharray:18.8262418, 9.4131209;stroke-dashoffset:0"
       transform="matrix(0.870968,0,0,0.952,2.5806042,33.856)"
       id="ellipse32"
       d="m 175,147 c 0,13.80712 -6.93959,25 -15.5,25 -8.56041,0 -15.5,-11.19288 -15.5,-25 0,-13.80712 6.93959,-25 15.5,-25 8.56041,0 15.5,11.19288 15.5,25 z" />
    <path
       inkscape:connector-curvature="0"
       d="m 129.2,205.489 c 3.128,9.383 5.2,16.168 5.2,26 l -1.6,13.2 c 27.169,19.923 22.873,-24.429 1.2,-39.6"
       style="fill:#000000;stroke:#000000;stroke-width:8.5714283;stroke-miterlimit:4;stroke-opacity:1;stroke-dasharray:17.14285714, 8.57142857;stroke-dashoffset:0"
       transform="translate(2,-6)"
       id="path34" />
    <path
       inkscape:connector-curvature="0"
       d="m 135.542,147.231 c 96.058,-57.6352 119.147,12.11 84.94,4.217"
       style="fill:#000000;stroke:#000000;stroke-width:8.5714283;stroke-miterlimit:4;stroke-opacity:1;stroke-dasharray:17.14285714, 8.57142857;stroke-dashoffset:0"
       transform="translate(3,-3)"
       id="path36" />
    <path
       inkscape:connector-curvature="0"
       d="m 136,146.8 c 26.222,-30.592 69.075,-42.607 96.8,-4.8"
       style="fill:#000000;stroke:#000000;stroke-width:8.5714283;stroke-miterlimit:4;stroke-opacity:1;stroke-dasharray:17.14285714, 8.57142857;stroke-dashoffset:0"
       transform="translate(-1,-1)"
       id="path38" />
    <ellipse
       sodipodi:ry="7.5"
       sodipodi:rx="26.5"
       sodipodi:cy="222.5"
       sodipodi:cx="192.5"
       cx="192.5"
       cy="222.5"
       rx="26.5"
       ry="7.5"
       style="fill:#ffffff;stroke:#000000;stroke-width:5.45081139;stroke-miterlimit:4;stroke-opacity:1;stroke-dasharray:10.90162309, 5.45081154;stroke-dashoffset:0"
       transform="matrix(1.3675455,0.45807439,-0.54457048,1.6257728,21.627731,-184.5763)"
       id="ellipse40"
       d="m 219,222.5 c 0,4.14214 -11.86445,7.5 -26.5,7.5 -14.63555,0 -26.5,-3.35786 -26.5,-7.5 0,-4.14214 11.86445,-7.5 26.5,-7.5 14.63555,0 26.5,3.35786 26.5,7.5 z" />
    <g
       transform="matrix(0.94188754,0.33592834,-0.33592834,0.94188754,94.339703,9.5578452)"
       id="g42"
       style="stroke:#000000;stroke-width:8.5714283;stroke-miterlimit:4;stroke-opacity:1;stroke-dasharray:17.14285714, 8.57142857;stroke-dashoffset:0">
      <ellipse
         sodipodi:ry="20"
         sodipodi:rx="56"
         sodipodi:cy="240"
         sodipodi:cx="150"
         cx="150"
         cy="240"
         rx="56"
         ry="20"
         style="fill:#000000;stroke:#000000;stroke-width:8.5714283;stroke-miterlimit:4;stroke-opacity:1;stroke-dasharray:17.14285714, 8.57142857;stroke-dashoffset:0"
         id="ellipse44"
         d="m 206,240 c 0,11.04569 -25.07205,20 -56,20 -30.92795,0 -56,-8.95431 -56,-20 0,-11.04569 25.07205,-20 56,-20 30.92795,0 56,8.95431 56,20 z" />
    </g>
  </g>
</svg>
