<?xml version="1.0"?>
<!--
Copyright (C) 2012 United States Government as represented by the Administrator of the
National Aeronautics and Space Administration.
All Rights Reserved.
-->

<!DOCTYPE svg PUBLIC "-//W3C//DTD SVG 1.1//EN" "http://www.w3.org/Graphics/SVG/1.1/DTD/svg11.dtd" >
<!--
MIL-STD-2525 tactical symbol icon image. During icon composition this image is multiplied by the desired frame color 
(e.g. black), then drawn on top of the frame and fill.
-->
<svg xmlns:xlink="http://www.w3.org/1999/xlink" height="400px" viewBox="0 0 400 400" width="400px"><g transform="scale(100) translate(0.56 0.71)"><path d="M0.634839 1.26602 L0.658977 1.30975 C0.777394 1.24709 0.916516 1.14771 1.03387 1.07341     C1.09654 1.03374 1.15476 0.994669 1.21667 0.95311 C1.2488 0.931535 1.27639     0.914929 1.30861 0.893504 C1.3504 0.865724 1.35347 0.84911 1.36563 0.793622     z" style="fill:rgb(255,255,255)"/><polygon points="2.07781,1.26387 2.15957,1.30993 2.18322,1.26641 2.10557,1.22" style="fill:rgb(255,255,255)"/><path d="M1.61372 1.02687 L1.61347 1.05137 L1.60362 1.05718 C1.52817 1.00666 1.43186 0.922992     1.43186 0.799551 C1.40099 0.820224 1.38135 0.894004 1.38135 0.946047 L1.38135     0.971303 C1.38135 1.07701 1.45276 1.22175 1.49883 1.2832 C1.56446 1.37074     1.67218 1.39422 1.77032 1.44615 C1.80768 1.42638 1.98888 1.32083 2.00582     1.29773 C2.03527 1.2576 2.10372 1.06983 2.10372 1.00667 C2.10372 0.962036 2.09587     0.816001 2.07341 0.799552 C2.05835 0.864225 2.05603 0.910048 2.01995     0.958257 C1.99522 0.9913 1.94346 1.04097 1.90237 1.05204 L1.89661 0.99656 L1.89661     0.991513 C1.89661 0.922178 1.94207 0.865938 1.94207 0.784395 C1.94207     0.761115 1.86282 0.642367 1.84609 0.637899 C1.84609 0.680206 1.84007 0.732985     1.83212 0.765379 C1.82614 0.789784 1.78819 0.845013 1.76527 0.845013 L1.75011     0.845013 C1.7417 0.813497 1.70465 0.805414 1.70465 0.733879 L1.70465 0.708623     C1.70465 0.654875 1.76527 0.580513 1.76527 0.526765 L1.76641 0.51147     L1.76022 0.456044 C1.73681 0.462292 1.73594 0.501281 1.72651 0.523375 C1.71607     0.547847 1.70324 0.571344 1.68812 0.591068 C1.65686 0.631859 1.62715 0.669859     1.59646 0.711572 C1.54939 0.77556 1.547 0.773623 1.57395 0.854478 C1.58909     0.899899 1.61372 0.967301 1.61372 1.02687 z" style="fill:rgb(255,255,255)"/><path d="M1.14898 1.19862 L1.14898 1.20873 C1.14898 1.22782 1.1613 1.24242 1.16811 1.25429     L1.1995 1.59769 L1.46407 1.59902 L1.56389 1.83716 L1.70917 1.78984 L1.68509     1.72109 L1.60362 1.74419 C1.59687 1.71523 1.52009 1.52192 1.50259 1.52192 L1.27022     1.52192 C1.2689 1.50612 1.26517 1.50398 1.26517 1.48656 L1.26517 1.4613     L1.44197 1.4613 L1.44197 1.40573 L1.25597 1.40566 L1.25001 1.31986 L1.25001     1.26934 C1.33066 1.25055 1.31374 1.12285 1.22475 1.12285 C1.18163 1.12285     1.14898 1.15549 1.14898 1.19862 z" style="fill:rgb(255,255,255)"/><path d="M1.24496 1.9311 L1.29042 1.9311 C1.3896 1.9311 1.46785 1.87433 1.50768 1.81489 L1.47733     1.73409 C1.44904 1.74164 1.42875 1.85532 1.27527 1.85532 L1.25506 1.85532     C1.1765 1.85532 1.10807 1.77836 1.08637 1.71587 C1.07255 1.67608 1.07226     1.63126 1.08637 1.59065 C1.1065 1.53269 1.12374 1.53436 1.14698 1.49686 L1.13888     1.41584 C1.06456 1.43568 0.973912 1.60237 1.00542 1.71599 C1.03229 1.81285     1.13118 1.9311 1.24496 1.9311 z" style="fill:rgb(255,255,255)"/><path d="M0.830732 2.04224 L1.98754 2.04224 L1.98754 1.36533 C1.97397 1.37442 1.93198 1.39459     1.93198 1.4108 L1.93198 1.99172 L0.881245 1.99172 L0.881245 1.28956 L0.830733     1.28956 L0.830733 2.04224 z" style="fill:rgb(255,255,255)"/></g></svg>