<?xml version="1.0"?>
<!--
Copyright (C) 2012 United States Government as represented by the Administrator of the
National Aeronautics and Space Administration.
All Rights Reserved.
-->

<!DOCTYPE svg PUBLIC "-//W3C//DTD SVG 1.1//EN" "http://www.w3.org/Graphics/SVG/1.1/DTD/svg11.dtd" >
<!--
MIL-STD-2525 tactical symbol icon image. During icon composition this image is multiplied by the desired frame color 
(e.g. black), then drawn on top of the frame and fill.
-->
<svg xmlns:xlink="http://www.w3.org/1999/xlink" height="400px" viewBox="0 0 400 400" width="400px"><g transform="scale(100) translate(0.75 0.76)"><path d="M1.14307 0.953626 C1.14638 0.997276 1.1822 1.04938 1.22324 1.05841 L1.19159 0.933007     z" style="fill:rgb(255,255,255)"/><path d="M1.19158 0.933008 L1.22323 1.05841 C1.1822 1.04938 1.14637 0.997276 1.14306 0.953627     zM1.09343 0.850425 L1.09343 0.884504 C1.09343 0.99437 1.14555 1.10109 1.23659     1.1203 C1.32789 1.13956 1.41151 1.00668 1.41151 0.918582 L1.41151 0.880716     C1.41151 0.806547 1.35957 0.665492 1.33721 0.599066 C1.32539 0.563956 1.26121     0.335432 1.24111 0.335432 C1.22037 0.335432 1.21885 0.447897 1.2131 0.470243     C1.19934 0.52364 1.19059 0.55066 1.1744 0.598164 C1.15481 0.655648 1.09343     0.787849 1.09343 0.850424 z" style="fill:rgb(255,255,255)"/><polygon points="1.06614,1.18322 1.05099,1.14613 0.495134,1.14579 0.495134,1.4563 1.97573,1.4563 1.97573,1.14579     1.41152,1.14579 1.41152,1.21773 1.33584,1.21313 1.35932,1.28181     1.33192,1.28543 1.29058,1.26276 1.28249,1.33888 1.25612,1.30113 1.17269,1.32669     1.1572,1.24815 1.10598,1.28026 1.08967,1.24044 1.02829,1.25139" style="fill:rgb(255,255,255)"/><path d="M1.29413 1.55096 C1.29413 1.60084 1.37754 1.59775 1.37539 1.54783 C1.37289 1.48958     1.29413 1.50207 1.29413 1.5396 z" style="fill:rgb(255,255,255)"/><path d="M1.19189 1.64184 C1.20798 1.64184 1.22597 1.62118 1.22597 1.60397 L1.22597 1.60019     C1.22597 1.54464 1.14645 1.55571 1.14645 1.59262 L1.14645 1.61155 C1.14645     1.62835 1.17254 1.64184 1.19189 1.64184 z" style="fill:rgb(255,255,255)"/><path d="M1.26005 1.72894 C1.26005 1.74484 1.27684 1.76681 1.29035 1.76681 L1.30928 1.76681     C1.32038 1.76681 1.33957 1.74761 1.33957 1.73651 L1.33957 1.71758 C1.33957     1.7029 1.31876 1.68729 1.3017 1.68729 L1.29792 1.68729 C1.27888 1.68729 1.26005     1.70612 1.26005 1.72515 z" style="fill:rgb(255,255,255)"/><path d="M1.19946 1.7971 C1.21414 1.7971 1.22976 1.77629 1.22976 1.75923 C1.22976 1.73547     1.21187 1.71758 1.1881 1.71758 C1.17353 1.71758 1.15023 1.73382 1.15023 1.74787     L1.15023 1.76302 C1.15023 1.78014 1.16778 1.7971 1.18053 1.7971 z" style="fill:rgb(255,255,255)"/><path d="M1.21461 1.89934 C1.21461 1.91391 1.23085 1.93721 1.24491 1.93721 L1.26005 1.93721     C1.27877 1.93721 1.29413 1.92184 1.29413 1.90313 L1.29413 1.88798 C1.29413     1.87524 1.27717 1.85769 1.26005 1.85769 L1.25248 1.85769 C1.2309 1.85769 1.21461     1.87761 1.21461 1.89934 z" style="fill:rgb(255,255,255)"/><path d="M1.36986 2.00915 C1.40299 2.00915 1.42411 1.96491 1.39828 1.93908 C1.37245 1.91324     1.32821 1.93437 1.32821 1.9675 C1.32821 1.98762 1.34974 2.00915 1.36986 2.00915     z" style="fill:rgb(255,255,255)"/><path d="M1.15781 2.03187 C1.15781 2.04893 1.17342 2.06974 1.18811 2.06974 L1.20325 2.06974     C1.22367 2.06974 1.23733 2.05101 1.23733 2.03187 L1.23733 2.02808 C1.23733     2.01102 1.22172 1.99022 1.20704 1.99022 L1.18811 1.99022 C1.1746 1.99022 1.15781     2.01218 1.15781 2.02808 z" style="fill:rgb(255,255,255)"/><path d="M1.30928 2.10382 C1.3297 2.10382 1.34336 2.0851 1.34336 2.06595 C1.34336 2.0489 1.32775     2.02809 1.31307 2.02809 L1.29413 2.02809 C1.28139 2.02809 1.26384 2.04505     1.26384 2.06217 L1.26384 2.06974 C1.26384 2.08846 1.27921 2.10382 1.29792     2.10382 z" style="fill:rgb(255,255,255)"/></g><ellipse cx="195.5" cy="175.5" rx="6.5" ry="8.5" style="fill:rgb(255,255,255);stroke:rgb(255,255,255);stroke-width:1" transform="matrix(1 0 0 1 0 0) translate(0.375 0) translate(-1 0) translate(-1 0) translate(-1 0) translate(1 0) translate(1 0) rotate(333.155 195.5 175.5) translate(185.737 179.671) scale(1.15563 1.05381) translate(-185.737 -179.671) translate(-0.772071 -0.428519)"/></svg>