<?xml version="1.0" encoding="UTF-8" standalone="no"?>
<!--
Copyright (C) 2012 United States Government as represented by the Administrator of the
National Aeronautics and Space Administration.
All Rights Reserved.
-->

<!--
MIL-STD-2525 tactical symbol icon image. During icon composition this image is multiplied by the desired frame color 
(e.g. black), then drawn on top of the frame and fill.
-->

<svg
   xmlns:dc="http://purl.org/dc/elements/1.1/"
   xmlns:cc="http://creativecommons.org/ns#"
   xmlns:rdf="http://www.w3.org/1999/02/22-rdf-syntax-ns#"
   xmlns:svg="http://www.w3.org/2000/svg"
   xmlns="http://www.w3.org/2000/svg"
   xmlns:sodipodi="http://sodipodi.sourceforge.net/DTD/sodipodi-0.dtd"
   xmlns:inkscape="http://www.inkscape.org/namespaces/inkscape"
   height="400px"
   viewBox="0 0 400 400"
   width="400px"
   id="svg2"
   version="1.1"
   inkscape:version="0.48.2 r9819"
   sodipodi:docname="ehoadc---------.svg">
  <metadata
     id="metadata22">
    <rdf:RDF>
      <cc:Work
         rdf:about="">
        <dc:format>image/svg+xml</dc:format>
        <dc:type
           rdf:resource="http://purl.org/dc/dcmitype/StillImage" />
      </cc:Work>
    </rdf:RDF>
  </metadata>
  <defs
     id="defs20" />
  <sodipodi:namedview
     pagecolor="#ffffff"
     bordercolor="#666666"
     borderopacity="1"
     objecttolerance="10"
     gridtolerance="10"
     guidetolerance="10"
     inkscape:pageopacity="0"
     inkscape:pageshadow="2"
     inkscape:window-width="640"
     inkscape:window-height="480"
     id="namedview18"
     showgrid="false"
     inkscape:zoom="0.59"
     inkscape:cx="200"
     inkscape:cy="200"
     inkscape:window-x="0"
     inkscape:window-y="0"
     inkscape:window-maximized="0"
     inkscape:current-layer="svg2" />
  <path
     inkscape:connector-curvature="0"
     style="fill:#ffffff;stroke:#000000;stroke-width:6;stroke-miterlimit:4;stroke-opacity:1;stroke-dasharray:12, 6;stroke-dashoffset:0"
     d="m 199,87 c -6.62742,0 -12,5.372583 -12,12 0,4.75348 2.77287,8.86946 6.78125,10.8125 l -23.125,39.71875 L 127,149.6875 C 126.83203,143.20652 121.52149,138 115,138 c -6.62742,0 -12,5.37258 -12,12 0,6.62742 5.37258,12 12,12 1.70614,0 3.31169,-0.35813 4.78125,-1 l 22,38.5 -22.46875,39.3125 C 117.9691,238.29243 116.527,238 115,238 c -6.62742,0 -12,5.37258 -12,12 0,6.62742 5.37258,12 12,12 6.62742,0 12,-5.37258 12,-12 0,-0.23359 -0.0181,-0.45721 -0.0312,-0.6875 l 43.6875,0.15625 22.6875,38.9375 C 189.56979,290.42827 187,294.41901 187,299 c 0,6.62742 5.37258,12 12,12 6.62742,0 12,-5.37258 12,-12 0,-4.27012 -2.23443,-7.99814 -5.59375,-10.125 l 22.9375,-39.40625 44.6875,-0.15625 C 273.01808,249.54279 273,249.76641 273,250 c 0,6.62742 5.37258,12 12,12 6.62742,0 12,-5.37258 12,-12 0,-6.62742 -5.37258,-12 -12,-12 -1.83932,0 -3.56701,0.41664 -5.125,1.15625 L 257.21875,199.5 279.875,159.84375 C 281.43299,160.58336 283.16068,161 285,161 c 6.62742,0 12,-5.37258 12,-12 0,-6.62742 -5.37258,-12 -12,-12 -6.62742,0 -12,5.37258 -12,12 0,0.23359 0.0181,0.45721 0.0312,0.6875 l -44.6875,-0.15625 -23.375,-40.125 C 208.5704,107.33525 211,103.4528 211,99 211,92.372583 205.62742,87 199,87 z"
     id="polygon4" />
</svg>
