<?xml version="1.0" encoding="UTF-8" standalone="no"?>
<!--
Copyright (C) 2012 United States Government as represented by the Administrator of the
National Aeronautics and Space Administration.
All Rights Reserved.
-->

<!--
MIL-STD-2525 tactical symbol icon image. During icon composition this image is multiplied by the desired frame color 
(e.g. black), then drawn on top of the frame and fill.
-->

<svg
   xmlns:dc="http://purl.org/dc/elements/1.1/"
   xmlns:cc="http://creativecommons.org/ns#"
   xmlns:rdf="http://www.w3.org/1999/02/22-rdf-syntax-ns#"
   xmlns:svg="http://www.w3.org/2000/svg"
   xmlns="http://www.w3.org/2000/svg"
   xmlns:sodipodi="http://sodipodi.sourceforge.net/DTD/sodipodi-0.dtd"
   xmlns:inkscape="http://www.inkscape.org/namespaces/inkscape"
   height="400px"
   viewBox="0 0 400 400"
   width="400px"
   id="svg2"
   version="1.1"
   inkscape:version="0.48.2 r9819"
   sodipodi:docname="ehoadhb--------.svg">
  <metadata
     id="metadata12">
    <rdf:RDF>
      <cc:Work
         rdf:about="">
        <dc:format>image/svg+xml</dc:format>
        <dc:type
           rdf:resource="http://purl.org/dc/dcmitype/StillImage" />
      </cc:Work>
    </rdf:RDF>
  </metadata>
  <defs
     id="defs10" />
  <sodipodi:namedview
     pagecolor="#ffffff"
     bordercolor="#666666"
     borderopacity="1"
     objecttolerance="10"
     gridtolerance="10"
     guidetolerance="10"
     inkscape:pageopacity="0"
     inkscape:pageshadow="2"
     inkscape:window-width="640"
     inkscape:window-height="480"
     id="namedview8"
     showgrid="false"
     inkscape:zoom="0.59"
     inkscape:cx="200"
     inkscape:cy="200"
     inkscape:window-x="0"
     inkscape:window-y="0"
     inkscape:window-maximized="0"
     inkscape:current-layer="svg2" />
  <g
     transform="matrix(100,0,0,100,73,69)"
     id="g4"
     style="stroke:#000000;stroke-width:0.06;stroke-miterlimit:4;stroke-opacity:1;stroke-dasharray:0.12, 0.06;stroke-dashoffset:0">
    <path
       inkscape:connector-curvature="0"
       d="M 1.88928,0.768492 2.16865,1.53824 1.60576,1.53813 z M 0.66984,0.768622 0.948895,1.53827 0.392974,1.53695 z m 0.015638,-0.084421 -0.020327,0 0,-0.005083 z m 0,0 0.075945,0.012145 0.015531,-0.00198 0.238406,-0.033634 0.02585,0.003142 c 0.07864,0 0.08161,0.091472 0.10164,0.091472 l 0.07115,0 0,1.163774 -0.274423,0 0,0.05589 -0.111803,0 0,0.06099 -0.091476,0 0,0.09656 1.087542,0 0,-0.10164 -0.09656,0 0,-0.05591 -0.1118,0 0,-0.05589 -0.28459,0 0,-1.163774 0.08131,0 c 0.02354,0 0.01476,-0.091472 0.1118,-0.091472 l 0.01525,0 0.23389,0.029669 0.02529,8.23e-4 0.0764,-0.008984 C 1.84655,0.742787 1.81765,0.839862 1.79398,0.903358 1.76635,0.977499 1.74428,1.04998 1.71509,1.1243 1.68591,1.19859 1.66292,1.26977 1.63517,1.34422 1.62279,1.37744 1.60685,1.41838 1.59579,1.45221 1.58892,1.4732 1.58148,1.48896 1.57548,1.50813 1.56617,1.53795 1.57221,1.53797 1.53417,1.53797 1.58534,1.61438 1.72568,1.71075 1.85433,1.71075 l 0.06098,0 c 0.12855,0 0.27464,-0.0972 0.32525,-0.17278 l -0.02541,0 -0.317,-0.858148 c 0.0243,-0.002567 0.06798,-0.020878 0.06798,-0.041359 0,-0.020362 -0.03612,0.005079 -0.06098,0.005079 l -0.01016,0 c -0.13133,0 -0.23137,-0.10672 -0.36591,-0.10672 l -0.03049,0 c -0.06969,0 -0.12972,0.033055 -0.1677,0.066067 C 1.31194,0.593798 1.3004,0.596873 1.3004,0.567314 1.3004,0.557613 1.32616,0.4857 1.33089,0.475842 L 1.28316,0.329094 1.27499,0.328464 C 1.27311,0.350995 1.24714,0.425369 1.23875,0.449783 1.21829,0.509389 1.25466,0.512428 1.25466,0.567314 l 0,0.015248 c 0,0.018102 -0.01117,0.013492 -0.02541,0.020327 C 1.19015,0.568904 1.13333,0.536822 1.06154,0.536822 l -0.03049,0 c -0.138068,0 -0.235989,0.10672 -0.365895,0.10672 l -0.015248,0 c -0.039418,0 -0.057666,-0.034784 -0.060981,0.005082 L 0.658261,0.682837 C 0.59917,0.806038 0.555111,0.980262 0.499033,1.11775 0.469277,1.19069 0.447119,1.26299 0.418167,1.33671 0.403293,1.37459 0.394139,1.40775 0.378982,1.44491 0.366895,1.47454 0.363218,1.53711 0.324663,1.53797 c 0.050787,0.07584 0.184524,0.17278 0.31,0.17278 l 0.066063,0 c 0.133402,0 0.266906,-0.09325 0.320164,-0.17278 l -0.030491,0 -0.304917,-0.853771 z"
       style="fill:#ffffff;stroke:#000000;stroke-width:0.06;stroke-miterlimit:4;stroke-opacity:1;stroke-dasharray:0.12, 0.06;stroke-dashoffset:0"
       id="path6" />
  </g>
</svg>
