<?xml version="1.0" encoding="UTF-8" standalone="no"?>
<!--
Copyright (C) 2012 United States Government as represented by the Administrator of the
National Aeronautics and Space Administration.
All Rights Reserved.
-->

<!--
MIL-STD-2525 tactical symbol icon image. During icon composition this image is multiplied by the desired frame color 
(e.g. black), then drawn on top of the frame and fill.
-->

<svg
   xmlns:dc="http://purl.org/dc/elements/1.1/"
   xmlns:cc="http://creativecommons.org/ns#"
   xmlns:rdf="http://www.w3.org/1999/02/22-rdf-syntax-ns#"
   xmlns:svg="http://www.w3.org/2000/svg"
   xmlns="http://www.w3.org/2000/svg"
   xmlns:sodipodi="http://sodipodi.sourceforge.net/DTD/sodipodi-0.dtd"
   xmlns:inkscape="http://www.inkscape.org/namespaces/inkscape"
   height="400px"
   viewBox="0 0 400 400"
   width="400px"
   id="svg2"
   version="1.1"
   inkscape:version="0.48.2 r9819"
   sodipodi:docname="ehoadk---------.svg">
  <metadata
     id="metadata28">
    <rdf:RDF>
      <cc:Work
         rdf:about="">
        <dc:format>image/svg+xml</dc:format>
        <dc:type
           rdf:resource="http://purl.org/dc/dcmitype/StillImage" />
      </cc:Work>
    </rdf:RDF>
  </metadata>
  <defs
     id="defs26" />
  <sodipodi:namedview
     pagecolor="#ffffff"
     bordercolor="#666666"
     borderopacity="1"
     objecttolerance="10"
     gridtolerance="10"
     guidetolerance="10"
     inkscape:pageopacity="0"
     inkscape:pageshadow="2"
     inkscape:window-width="640"
     inkscape:window-height="480"
     id="namedview24"
     showgrid="false"
     inkscape:zoom="0.59"
     inkscape:cx="200"
     inkscape:cy="200"
     inkscape:window-x="0"
     inkscape:window-y="0"
     inkscape:window-maximized="0"
     inkscape:current-layer="svg2" />
  <g
     transform="matrix(90,0,0,90,86.00004,86.00004)"
     id="g4">
    <path
       inkscape:connector-curvature="0"
       d="m 1.23112,1.42641 0.04533,0 c 0.08648,0 0.17001,-0.13809 0.17001,-0.23234 l 0,-0.03967 c 0,-0.10147 -0.08832,-0.232345 -0.18701,-0.232345 l -0.02266,0 c -0.11161,0 -0.1866,0.137635 -0.19108,0.250145 -0.00443,0.11154 0.07902,0.25421 0.18541,0.25421 z"
       style="fill:#ffffff"
       id="path6" />
    <path
       inkscape:connector-curvature="0"
       d="m 0.647421,1.59642 0,-0.017 c 0,-0.05337 -0.042205,-0.11334 -0.096335,-0.11334 -0.089212,0 -0.117594,0.13936 -0.071547,0.20756 0.056748,0.08404 0.167882,0.02872 0.167882,-0.07722 z"
       style="fill:#ffffff"
       id="path8" />
    <path
       inkscape:connector-curvature="0"
       d="M 1.87148,1.59075 1.87538,1.64313 1.92815,1.71118 2.00182,1.70976 C 2.0265,1.6729 2.05849,1.67377 2.05849,1.59641 l 0,-0.00566 c 0,-0.05615 -0.03738,-0.12467 -0.09068,-0.12467 -0.05506,0 -0.10415,0.07252 -0.09633,0.12467 z"
       style="fill:#ffffff"
       id="path10" />
    <path
       inkscape:connector-curvature="0"
       d="m 1.99049,1.76076 0.04929,-0.01692 0.00738,0.16426 -0.05667,0 z M 1.58247,1.53408 c 0.06951,0.03678 0.07325,0.06264 0.11141,0.13228 0.027,0.04927 0.06427,0.10672 0.06427,0.1794 0.00428,0.0064 0.0133,0.02267 0.02266,0.02267 0.03251,0 0.06793,-0.12085 0.09634,-0.14167 l 0,0.01133 0.01134,0 0,0.17001 -0.30602,0 z m -0.53836,-0.017 c 0,-0.03433 0.12168,-0.02837 0.16434,-0.02833 0.06413,5e-5 0.1319,-0.017 0.17568,-0.017 0.03082,0 0.0717,0.02127 0.102,0.02833 l 0,0.40802 -0.44202,0 z M 0.641758,1.72676 c 0.03226,0.01168 0.069087,0.15301 0.096339,0.15301 0.048,0 0.050161,-0.13764 0.079484,-0.18686 C 0.848128,1.64163 0.875093,1.56103 0.942109,1.54542 l 0,0.36268 -0.30035,0 z M 0.490199,1.7495 c 0.013748,0.00347 0.043886,0.01044 0.043886,0.02826 l 0,0.13034 -0.052051,-5e-5 z M 1.87149,1.59075 C 1.86367,1.5386 1.91276,1.46608 1.96782,1.46608 c 0.0533,0 0.09068,0.06852 0.09068,0.12467 l 0,0.00567 c 0,0.07735 -0.032,0.07648 -0.05667,0.11334 L 1.92816,1.71118 1.87539,1.64313 z M 0.647429,1.59642 c 0,0.10594 -0.111134,0.16126 -0.167882,0.07721 C 0.4335,1.60544 0.461882,1.46608 0.551094,1.46608 c 0.05413,0 0.096335,0.05996 0.096335,0.11334 z m -0.005665,-0.94638 0.30035,0 0,0.82737 c 0,0.01916 -0.056134,0.02996 -0.078174,0.05217 C 0.8462,1.54746 0.825362,1.57897 0.810637,1.60095 0.785011,1.63921 0.739385,1.72008 0.738102,1.77776 L 0.68059,1.68187 C 0.688519,1.66665 0.698433,1.62484 0.698433,1.60209 l 0,-0.034 c 0,-0.06469 -0.05667,-0.10198 -0.05667,-0.13601 z m 0.940716,0 0.30601,0 0,0.78204 c 0,0.00999 -0.05603,0.0645 -0.06596,0.10972 -0.01604,0.07304 0.002,0.08401 0.01496,0.13963 L 1.7951,1.75676 C 1.78217,1.71226 1.73456,1.63444 1.71056,1.59868 1.67769,1.54972 1.65548,1.49482 1.58248,1.48875 z M 1.04412,1.36407 1.11077,1.43895 1.04412,1.45474 z M 1.4885,1.29187 1.48614,1.44341 1.40408,1.42824 z M 1.23113,1.42641 C 1.12474,1.42641 1.04128,1.28374 1.04572,1.1722 1.0502,1.05969 1.12518,0.922054 1.23679,0.922054 l 0.02267,0 c 0.09868,0 0.18701,0.130876 0.18701,0.232346 l 0,0.03967 c 0,0.09424 -0.08353,0.23234 -0.17001,0.23234 z m -0.18701,-0.776371 0.44202,0 0,0.413691 C 1.45912,1.03264 1.45421,0.989259 1.4054,0.940452 1.37297,0.908011 1.32719,0.876716 1.26513,0.876716 l -0.01134,0 c -0.04964,0 -0.10032,0.013736 -0.12892,0.035417 C 1.10948,0.923798 1.09508,0.934035 1.08122,0.947818 1.06601,0.962932 1.06075,0.978916 1.04412,0.990058 z m -0.685702,0 0.175673,0 0,0.770701 C 0.461012,1.43777 0.403752,1.50631 0.403752,1.59642 c 0,0.06237 0.031578,0.0825 0.034193,0.11882 C 0.4412,1.76051 0.432086,1.80994 0.432086,1.86277 l 0,0.04533 -0.073669,0 0,0.13034 1.773753,0 0,-0.13034 -0.03456,3e-5 L 2.08683,1.69276 C 2.1516,1.59603 2.09267,1.44455 1.99049,1.42074 l 0,-0.770702 0.14168,0 0,-0.130339 -1.773753,0 z"
       style="fill:#000000;stroke:#000000;stroke-width:0.06666667;stroke-miterlimit:4;stroke-opacity:1;stroke-dasharray:0.13333333, 0.06666667;stroke-dashoffset:0"
       id="path12" />
    <path
       inkscape:connector-curvature="0"
       d="m 0.482031,1.90805 0.052051,6e-5 0,-0.13035 c 0,-0.01782 -0.030138,-0.02479 -0.043886,-0.02826 z"
       style="fill:#ffffff"
       id="path14" />
    <path
       inkscape:connector-curvature="0"
       d="m 0.641756,1.9081 0.30035,0 0,-0.36268 C 0.87509,1.56103 0.848126,1.64162 0.817578,1.6929 0.788255,1.74213 0.786094,1.87977 0.738094,1.87977 0.710842,1.87977 0.674015,1.73843 0.641755,1.72676 z"
       style="fill:#ffffff"
       id="path16" />
    <path
       inkscape:connector-curvature="0"
       d="m 1.04411,1.9081 0.44202,0 0,-0.40802 C 1.45583,1.49302 1.41495,1.47175 1.38413,1.47175 c -0.04378,0 -0.11155,0.01705 -0.17568,0.017 -0.04266,-4e-5 -0.16434,-0.006 -0.16434,0.02833 z"
       style="fill:#ffffff"
       id="path18" />
    <path
       inkscape:connector-curvature="0"
       d="m 1.58247,1.9081 0.30602,0 0,-0.17001 -0.01134,0 0,-0.01133 C 1.84874,1.74757 1.81332,1.86843 1.78081,1.86843 1.77145,1.86843 1.76243,1.85215 1.75815,1.84576 1.75815,1.77307 1.72088,1.71563 1.69388,1.66635 1.65572,1.59671 1.65198,1.57086 1.58247,1.53408 z"
       style="fill:#ffffff"
       id="path20" />
    <polygon
       points="2.04716,1.9081 2.03978,1.74384 1.99049,1.76076 1.99049,1.9081 "
       style="fill:#ffffff"
       id="polygon22" />
  </g>
</svg>
