<?xml version="1.0" encoding="UTF-8" standalone="no"?>
<!--
Copyright (C) 2012 United States Government as represented by the Administrator of the
National Aeronautics and Space Administration.
All Rights Reserved.
-->

<!--
MIL-STD-2525 tactical symbol icon image. During icon composition this image is multiplied by the desired frame color 
(e.g. black), then drawn on top of the frame and fill.
-->

<svg
   xmlns:dc="http://purl.org/dc/elements/1.1/"
   xmlns:cc="http://creativecommons.org/ns#"
   xmlns:rdf="http://www.w3.org/1999/02/22-rdf-syntax-ns#"
   xmlns:svg="http://www.w3.org/2000/svg"
   xmlns="http://www.w3.org/2000/svg"
   xmlns:sodipodi="http://sodipodi.sourceforge.net/DTD/sodipodi-0.dtd"
   xmlns:inkscape="http://www.inkscape.org/namespaces/inkscape"
   height="400px"
   viewBox="0 0 400 400"
   width="400px"
   id="svg2"
   version="1.1"
   inkscape:version="0.48.2 r9819"
   sodipodi:docname="ehoabg---------.svg">
  <metadata
     id="metadata18">
    <rdf:RDF>
      <cc:Work
         rdf:about="">
        <dc:format>image/svg+xml</dc:format>
        <dc:type
           rdf:resource="http://purl.org/dc/dcmitype/StillImage" />
      </cc:Work>
    </rdf:RDF>
  </metadata>
  <defs
     id="defs16" />
  <sodipodi:namedview
     pagecolor="#ffffff"
     bordercolor="#666666"
     borderopacity="1"
     objecttolerance="10"
     gridtolerance="10"
     guidetolerance="10"
     inkscape:pageopacity="0"
     inkscape:pageshadow="2"
     inkscape:window-width="640"
     inkscape:window-height="480"
     id="namedview14"
     showgrid="false"
     inkscape:zoom="0.59"
     inkscape:cx="200"
     inkscape:cy="200"
     inkscape:window-x="0"
     inkscape:window-y="0"
     inkscape:window-maximized="0"
     inkscape:current-layer="svg2" />
  <g
     transform="translate(0,-30)"
     id="g4"
     style="stroke:#000000;stroke-width:6;stroke-miterlimit:4;stroke-opacity:1;stroke-dasharray:12, 6;stroke-dashoffset:0">
    <ellipse
       sodipodi:ry="80"
       sodipodi:rx="80"
       sodipodi:cy="230"
       sodipodi:cx="200"
       cx="200"
       cy="230"
       rx="80"
       ry="80"
       style="fill:#000000;stroke:#000000;stroke-width:6;stroke-miterlimit:4;stroke-opacity:1;stroke-dasharray:12, 6;stroke-dashoffset:0"
       id="ellipse6"
       d="m 280,230 c 0,44.18278 -35.81722,80 -80,80 -44.18278,0 -80,-35.81722 -80,-80 0,-44.18278 35.81722,-80 80,-80 44.18278,0 80,35.81722 80,80 z" />
    <polygon
       points="131,270 200,150 269,270 "
       style="fill:#ffffff;stroke:#000000;stroke-width:6;stroke-linejoin:bevel;stroke-miterlimit:4;stroke-opacity:1;stroke-dasharray:12, 6;stroke-dashoffset:0"
       id="polygon8" />
  </g>
  <g
     transform="translate(0,-30)"
     id="g10">
    <g
       style="font-size:80px;font-weight:bold;text-anchor:middle;fill:#000000;font-family:Times New Roman"
       id="text12">
      <path
         inkscape:connector-curvature="0"
         d="m 200.39062,195.78125 c 1.6927,5e-5 3.12499,0.5925 4.29688,1.77734 1.17186,1.18495 1.75779,2.61073 1.75781,4.27735 -2e-5,1.66671 -0.59246,3.08598 -1.77734,4.25781 -1.18491,1.17192 -2.61069,1.75785 -4.27735,1.75781 -1.66667,4e-5 -3.08594,-0.58589 -4.25781,-1.75781 -1.17188,-1.17183 -1.75782,-2.5911 -1.75781,-4.25781 -1e-5,-1.66662 0.58593,-3.0924 1.75781,-4.27735 1.17187,-1.18484 2.59114,-1.77729 4.25781,-1.77734 z m 5.46875,17.69531 0,28.94531 c -1e-5,2.57813 0.29947,4.22527 0.89844,4.94141 0.59894,0.71615 1.77082,1.1263 3.51563,1.23047 l 0,1.40625 -19.72657,0 0,-1.40625 c 1.61459,-0.0521 2.8125,-0.52083 3.59375,-1.40625 0.52083,-0.59895 0.78125,-2.1875 0.78125,-4.76563 l 0,-21.32812 c 0,-2.57809 -0.29948,-4.22523 -0.89843,-4.94141 -0.59897,-0.71611 -1.75782,-1.12626 -3.47657,-1.23047 l 0,-1.44531 z"
         style="font-size:80px;font-weight:bold;text-anchor:middle;fill:#000000;font-family:Times New Roman"
         id="path2996" />
    </g>
  </g>
</svg>
