<?xml version="1.0"?>
<!--
Copyright 2006-2009, 2017, 2020 United States Government, as represented by the
Administrator of the National Aeronautics and Space Administration.
All rights reserved.

The NASA World Wind Java (WWJ) platform is licensed under the Apache License,
Version 2.0 (the "License"); you may not use this file except in compliance
with the License. You may obtain a copy of the License at
http://www.apache.org/licenses/LICENSE-2.0

Unless required by applicable law or agreed to in writing, software distributed
under the License is distributed on an "AS IS" BASIS, WITHOUT WARRANTIES OR
CONDITIONS OF ANY KIND, either express or implied. See the License for the
specific language governing permissions and limitations under the License.

NASA World Wind Java (WWJ) also contains the following 3rd party Open Source
software:

    Jackson Parser – Licensed under Apache 2.0
    GDAL – Licensed under MIT
    JOGL – Licensed under  Berkeley Software Distribution (BSD)
    Gluegen – Licensed under Berkeley Software Distribution (BSD)

A complete listing of 3rd Party software notices and licenses included in
NASA World Wind Java (WWJ)  can be found in the WorldWindJava-v2.2 3rd-party
notices and licenses PDF found in code directory.
-->
<!--
MIL-STD-2525 tactical symbol icon image. During icon composition this image is multiplied by the desired frame color 
(e.g. black), then drawn on top of the frame and fill.
-->
<!DOCTYPE svg PUBLIC "-//W3C//DTD SVG 1.1//EN" "http://www.w3.org/Graphics/SVG/1.1/DTD/svg11.dtd" >
<svg xmlns:xlink="http://www.w3.org/1999/xlink" height="400px" viewBox="0 0 400 400" width="400px"><rect height="36" style="fill:rgb(255,255,255);stroke:rgb(0,0,0);stroke-width:4;stroke-dasharray:10" transform="matrix(1 0 0 1 0 0)" width="137" x="122" y="128"/><rect height="23" style="fill:rgb(0,0,0);stroke:rgb(0,0,0);stroke-width:1;stroke-dasharray:10" transform="matrix(1 0 0 1 0 0)" width="89" x="146" y="140"/><path d="M152 163.628 C154.493 191.055 183.848 188.218 197 205.128 C203.056 212.914 197.505    224.839 209 229.628 C220.715 234.509 283.501 251.804 291 245.628 C316.771 224.405    287.314 221.849 279.5 210.128 C269.277 194.793 260.484 171.225 235.5 163.628" style="fill:rgb(255,255,255);stroke:rgb(0,0,0);stroke-width:3;stroke-dasharray:10" transform="matrix(1 0 0 1 0 0)"/></svg>
