<?xml version="1.0" encoding="UTF-8" standalone="no"?>
<!--
Copyright (C) 2012 United States Government as represented by the Administrator of the
National Aeronautics and Space Administration.
All Rights Reserved.
-->

<!--
MIL-STD-2525 tactical symbol icon image. During icon composition this image is multiplied by the desired frame color 
(e.g. black), then drawn on top of the frame and fill.
-->

<svg
   xmlns:dc="http://purl.org/dc/elements/1.1/"
   xmlns:cc="http://creativecommons.org/ns#"
   xmlns:rdf="http://www.w3.org/1999/02/22-rdf-syntax-ns#"
   xmlns:svg="http://www.w3.org/2000/svg"
   xmlns="http://www.w3.org/2000/svg"
   xmlns:sodipodi="http://sodipodi.sourceforge.net/DTD/sodipodi-0.dtd"
   xmlns:inkscape="http://www.inkscape.org/namespaces/inkscape"
   height="400px"
   viewBox="0 0 400 400"
   width="400px"
   id="svg2"
   version="1.1"
   inkscape:version="0.48.2 r9819"
   sodipodi:docname="enfabd---------.svg">
  <metadata
     id="metadata32">
    <rdf:RDF>
      <cc:Work
         rdf:about="">
        <dc:format>image/svg+xml</dc:format>
        <dc:type
           rdf:resource="http://purl.org/dc/dcmitype/StillImage" />
      </cc:Work>
    </rdf:RDF>
  </metadata>
  <defs
     id="defs30" />
  <sodipodi:namedview
     pagecolor="#ffffff"
     bordercolor="#666666"
     borderopacity="1"
     objecttolerance="10"
     gridtolerance="10"
     guidetolerance="10"
     inkscape:pageopacity="0"
     inkscape:pageshadow="2"
     inkscape:window-width="640"
     inkscape:window-height="480"
     id="namedview28"
     showgrid="false"
     inkscape:zoom="0.59"
     inkscape:cx="200"
     inkscape:cy="200"
     inkscape:window-x="117"
     inkscape:window-y="44"
     inkscape:window-maximized="0"
     inkscape:current-layer="svg2" />
  <path
     inkscape:connector-curvature="0"
     d="m 121.84815,148.41755 158.41154,0.0486 c -1.03075,-0.89576 -17.3166,-8.42811 -20.17895,-9.85939 -6.7203,-3.35977 -13.16985,-6.8172 -19.87305,-10.16613 -6.76305,-3.37925 -12.99885,-6.72895 -19.8721,-10.16652 -3.401,-1.70145 -17.917,-8.7438 -19.6574,-10.18486 l -78.82976,40.32826 z"
     style="fill:#ffffff"
     id="path6" />
  <polygon
     transform="matrix(95,0,0,95,81.000045,84.000045)"
     points="2.16454,0.84148 2.16454,0.721709 0.353591,0.721709 0.353591,0.84148 "
     style="fill:#ffffff"
     id="polygon8" />
  <path
     inkscape:connector-curvature="0"
     d="m 202.88694,226.74894 0,-20.026 c 4.2769,0.99655 10.013,2.58495 10.013,7.73775 l 0,3.6404 c 0,3.63185 -5.69905,8.64785 -10.013,8.64785 z m -14.1094,-35.04549 0,-5.0065 c 0,-3.2224 5.85675,-6.0705 9.1029,-6.82671 l 0,18.6599 c -3.62614,-0.30115 -9.1029,-2.9108 -9.1029,-6.8267 z m 9.1029,-16.83989 -1.8202,0 c -7.48885,0 -15.47454,5.72869 -15.47454,13.19949 l 0,4.5505 c 0,6.35265 11.57005,12.61694 17.29474,12.74424 l 0,21.39115 c -5.8634,0 -10.9231,-6.327 -10.89364,-12.1201 l -7.7672,1.197 0,2.27525 c 0,3.32975 4.00709,8.6526 6.03345,10.35215 2.51654,2.109 8.39135,4.11825 12.62739,4.2123 l 0,6.37165 5.00651,0 0,-6.37165 c 9.72799,0 18.20484,-6.83525 18.20484,-16.8397 l 0,-2.73125 c 0,-7.4062 -10.66945,-12.57134 -18.20485,-13.19834 l 0,-19.57095 c 2.0102,0.1672 4.70726,1.5732 5.74655,2.9013 0.8645,1.1058 2.89655,5.81685 3.3801,5.90045 l 7.258,-1.064 c 0,-7.3663 -7.8147,-13.19949 -15.0195,-13.19949 l -1.36515,0 0,-3.64107 -5.0065,0 z"
     style="fill:#ffffff"
     id="path10" />
  <path
     inkscape:connector-curvature="0"
     d="m 188.77754,191.70345 c 0,3.91589 5.47676,6.52554 9.1029,6.82669 l 0,-18.6599 c -3.24615,0.75621 -9.1029,3.6043 -9.1029,6.82671 z"
     style="fill:#000000"
     id="path12" />
  <path
     inkscape:connector-curvature="0"
     d="m 202.88694,226.74894 c 4.31395,0 10.013,-5.016 10.013,-8.64785 l 0,-3.6404 c 0,-5.1528 -5.7361,-6.7412 -10.013,-7.73775 z"
     style="fill:#000000"
     id="path14" />
  <path
     inkscape:connector-curvature="0"
     d="m 114.59119,245.86484 172.04015,0 0,10.9231 -172.04015,0 z m 145.18745,-78.28294 13.1993,0 0,74.64159 -13.1993,0 z m -26.39765,0 12.74425,0 0,74.64159 -12.74425,0 z m -78.28284,0 13.19901,0 0,74.64159 -13.19901,0 z m -26.39765,0 12.74387,0 0,74.64159 -12.74387,0 z m 69.17995,3.64107 5.0065,0 0,3.64106 1.3661,0 c 7.20384,0 15.01949,5.83366 15.01949,13.19902 l -7.25895,1.06399 c -0.4826,-0.0836 -2.51465,-4.7937 -3.3801,-5.90045 -1.03929,-1.3281 -3.73634,-2.73409 -5.74654,-2.9013 l 0,19.57095 c 7.53539,0.627 18.20579,5.7931 18.20579,13.1993 l 0,2.7303 c 0,10.00445 -8.47685,16.8397 -18.20579,16.8397 l 0,6.3726 -5.0065,0 0,-6.3726 c -4.23605,-0.0941 -10.11085,-2.1033 -12.62645,-4.2123 -2.0273,-1.6986 -6.03345,-7.02145 -6.03345,-10.3512 l 0,-2.2762 7.76625,-1.197 c -0.0294,5.79405 5.03025,12.1201 10.89365,12.1201 l 0,-21.39115 c -5.72375,-0.1273 -17.29475,-6.39065 -17.29475,-12.7433 l 0,-4.55145 c 0,-7.46985 7.98665,-13.19901 15.47455,-13.19901 l 1.8202,0 z m -83.28888,-18.66 172.03977,0 0,11.37834 -172.03977,0 z m 86.08663,-44.47349 c 1.74039,1.44106 16.25639,8.48341 19.65739,10.18486 6.87325,3.43757 13.10905,6.78727 19.8721,10.16651 6.7032,3.34895 13.15275,6.80628 19.87305,10.16614 2.86235,1.43137 19.1482,8.96363 20.17895,9.85939 l -158.41135,-0.0486 78.8289,-40.32826 z m -89.72769,42.65272 0,15.01931 c 0,1.06514 0.75515,1.8203 1.82029,1.8203 l 12.28863,0 0,74.64168 -14.10902,0 0,18.66085 179.32228,0 0,-18.66085 -13.65435,0 0,-74.64168 12.2892,0 c 1.04785,0 1.36515,-0.31645 1.36515,-1.36515 l 0,-16.84008 c -5.00935,-1.81327 -16.6611,-8.56007 -22.30125,-11.37834 -7.4841,-3.73939 -14.76205,-7.61121 -22.3022,-11.37834 -4.142,-2.06977 -44.42485,-22.75659 -44.6025,-22.75659 -0.99465,0 -40.67577,20.56712 -45.35993,22.90992 -5.01809,2.50999 -44.75659,21.61886 -44.75659,23.96878 l 3.8e-4,0 z"
     style="fill:#000000;stroke:#000000;stroke-width:6;stroke-miterlimit:4;stroke-opacity:1;stroke-dasharray:12.00000005, 5.99999955;stroke-dashoffset:0"
     id="path16" />
  <polygon
     transform="matrix(95,0,0,95,81.000045,84.000045)"
     points="0.636252,1.66551 0.636252,0.879807 0.502106,0.879807 0.502106,1.66551 "
     style="fill:#ffffff"
     id="polygon18" />
  <polygon
     transform="matrix(95,0,0,95,81.000045,84.000045)"
     points="0.918913,1.66551 0.918913,0.879807 0.779976,0.879807 0.779976,1.66551 "
     style="fill:#ffffff"
     id="polygon20" />
  <polygon
     transform="matrix(95,0,0,95,81.000045,84.000045)"
     points="1.73815,1.66551 1.73815,0.879807 1.60401,0.879807 1.60401,1.66551 "
     style="fill:#ffffff"
     id="polygon22" />
  <polygon
     transform="matrix(95,0,0,95,81.000045,84.000045)"
     points="2.02081,1.66551 2.02081,0.879807 1.88188,0.879807 1.88188,1.66551 "
     style="fill:#ffffff"
     id="polygon24" />
  <polygon
     transform="matrix(95,0,0,95,81.000045,84.000045)"
     points="2.16454,1.81882 2.16454,1.70384 0.353591,1.70384 0.353591,1.81882 "
     style="fill:#ffffff"
     id="polygon26" />
</svg>
