<?xml version="1.0" encoding="UTF-8" standalone="no"?>
<!--
Copyright (C) 2012 United States Government as represented by the Administrator of the
National Aeronautics and Space Administration.
All Rights Reserved.
-->

<!--
MIL-STD-2525 tactical symbol icon image. During icon composition this image is multiplied by the desired frame color 
(e.g. black), then drawn on top of the frame and fill.
-->

<svg
   xmlns:dc="http://purl.org/dc/elements/1.1/"
   xmlns:cc="http://creativecommons.org/ns#"
   xmlns:rdf="http://www.w3.org/1999/02/22-rdf-syntax-ns#"
   xmlns:svg="http://www.w3.org/2000/svg"
   xmlns="http://www.w3.org/2000/svg"
   xmlns:sodipodi="http://sodipodi.sourceforge.net/DTD/sodipodi-0.dtd"
   xmlns:inkscape="http://www.inkscape.org/namespaces/inkscape"
   height="400px"
   viewBox="0 0 400 400"
   width="400px"
   id="svg2"
   version="1.1"
   inkscape:version="0.48.2 r9819"
   sodipodi:docname="enfaag---------.svg">
  <metadata
     id="metadata30">
    <rdf:RDF>
      <cc:Work
         rdf:about="">
        <dc:format>image/svg+xml</dc:format>
        <dc:type
           rdf:resource="http://purl.org/dc/dcmitype/StillImage" />
      </cc:Work>
    </rdf:RDF>
  </metadata>
  <defs
     id="defs28" />
  <sodipodi:namedview
     pagecolor="#ffffff"
     bordercolor="#666666"
     borderopacity="1"
     objecttolerance="10"
     gridtolerance="10"
     guidetolerance="10"
     inkscape:pageopacity="0"
     inkscape:pageshadow="2"
     inkscape:window-width="640"
     inkscape:window-height="480"
     id="namedview26"
     showgrid="false"
     inkscape:zoom="0.59"
     inkscape:cx="200"
     inkscape:cy="200"
     inkscape:window-x="0"
     inkscape:window-y="0"
     inkscape:window-maximized="0"
     inkscape:current-layer="svg2" />
  <g
     transform="matrix(80,0,0,80,102,136)"
     id="g4">
    <path
       inkscape:connector-curvature="0"
       d="m 0.66924,0.345992 0,0.04335 c 0,0.040776 0.07539,0.165425 0.105283,0.173409 0,-0.039578 0.01239,-0.04713 0.01239,-0.086704 l 0,-0.130055 c 0,-0.01913 -0.025551,-0.068126 -0.043354,-0.068126 l -0.018579,0 c -0.024831,0 -0.05574,0.038315 -0.05574,0.068126 z"
       style="fill:#ffffff"
       id="path6" />
    <path
       inkscape:connector-curvature="0"
       d="m 1.66015,0.432693 0,0.111476 C 1.70286,0.528712 1.7964,0.377921 1.7964,0.315023 c 0,-0.02087 -0.01095,-0.04335 -0.03097,-0.04335 l -0.01858,0 c -0.08785,0 -0.0867,0.0747 -0.0867,0.16102 z"
       style="fill:#ffffff"
       id="path8" />
    <path
       inkscape:connector-curvature="0"
       d="M 0.824071,0.568945 C 0.839925,0.628311 1.10078,0.668036 1.19566,0.668036 l 0.03097,0 c 0.09732,0 0.39065,-0.04289 0.39636,-0.111476 C 1.49559,0.526879 1.41924,0.500819 1.2514,0.500819 l -0.04335,0 c -0.07509,0 -0.137,0.010874 -0.20419,0.018764 C 0.914638,0.530064 0.886799,0.552197 0.824071,0.568945 z"
       style="fill:#000000"
       id="path10" />
    <path
       inkscape:connector-curvature="0"
       d="m 0.464866,0.599909 0,0.024776 c 0,0.024618 0.045209,0.061929 0.074319,0.061929 l 0.012386,0 c 0.061193,0 0.181736,-0.059091 0.204374,-0.092898 C 0.694764,0.57946 0.676027,0.574299 0.601075,0.568984 0.479197,0.560342 0.532283,0.581909 0.464866,0.599909 z"
       style="fill:#ffffff"
       id="path12" />
    <path
       inkscape:connector-curvature="0"
       d="m 1.69067,0.572087 c 0.02307,0.036835 0.16094,0.12072 0.21721,0.12072 l 0.01858,0 c 0.01902,0 0.03716,-0.005732 0.03716,-0.024772 l 0,-0.018578 c 0,-0.068992 -0.07991,-0.103035 -0.14904,-0.095646 L 1.69067,0.572086 z"
       style="fill:#ffffff"
       id="path14" />
    <path
       inkscape:connector-curvature="0"
       d="M 1.39384,1.19445 1.42951,1.15759 1.43719,1.19445 1.45844,1.25221 1.50532,1.18826 C 1.50118,1.18044 1.49293,1.16778 1.49293,1.15729 c 0,-0.01473 0.01858,-0.02376 0.01858,-0.06812 L 1.5163,1.08934 1.52871,1.16014 1.63478,0.981005 1.62918,0.97769 C 1.67003,0.988599 1.61766,1.05143 1.60556,1.07174 1.58632,1.10408 1.56522,1.13841 1.54947,1.17188 L 1.59202,1.15729 C 1.56636,1.19562 1.56404,1.21069 1.51847,1.20739 L 1.47429,1.26806 1.56106,1.26258 C 1.55172,1.26906 1.49703,1.29973 1.48674,1.29973 1.47001,1.29973 1.46966,1.29678 1.45572,1.29352 L 1.41243,1.3803 1.51207,1.37521 1.41843,1.41775 1.39273,1.40459 1.35652,1.50258 1.46816,1.49172 C 1.46001,1.49689 1.37629,1.53508 1.36907,1.53508 1.35302,1.53508 1.36271,1.53093 1.3381,1.52888 1.33036,1.62192 1.23901,1.78672 1.23901,1.91286 l -0.0014,0.03114 0.0076,0.06795 -0.04336,0 C 1.20185,1.88824 1.16498,1.58727 1.12753,1.5165 L 1.09633,1.51684 1.02854,1.46647 1.12134,1.48553 C 1.12085,1.46344 1.09711,1.37928 1.08582,1.37735 1.04604,1.37059 1.01393,1.36161 0.991577,1.32893 L 1.08176,1.34159 1.04703,1.25638 C 0.999147,1.26037 0.96925,1.23613 0.935619,1.20647 L 1.03537,1.22507 1.00367,1.15729 C 0.996407,1.15922 0.986789,1.16348 0.985092,1.16348 0.96434,1.16348 0.923714,1.13138 0.910989,1.1189 L 0.991482,1.13239 0.972706,1.10155 0.942552,1.10104 0.91195,1.04363 0.952974,1.06491 0.874202,0.887276 0.886466,0.881469 0.972706,1.06439 0.982178,1.06372 1.00367,0.990075 c 0,0.040445 0.01239,0.039335 0.01239,0.074315 l 0,0.0062 c 0,0.02191 -0.018582,0.01872 -0.018582,0.03096 0,0.01342 0.016242,0.03091 0.022452,0.03613 l 0.0209,-0.05471 0.01238,0 0,0.04955 c 0,0.01489 -0.01003,0.0182 -0.01857,0.03096 0.00642,0.0276 0.01612,0.06705 0.03953,0.07209 L 1.11515,1.16968 c 0,0.04839 0.00104,0.08215 -0.03091,0.09907 L 1.10508,1.32026 1.13992,1.28115 1.14097,1.34404 1.12191,1.36769 1.14741,1.45565 1.18327,1.41741 1.18433,1.48029 1.16523,1.50396 1.20185,1.61559 c 0,-0.08668 0.01387,-0.12436 0.02748,-0.19548 C 1.23707,1.37972 1.26965,1.24622 1.26867,1.23439 L 1.24049,1.21912 1.23543,1.14296 1.28252,1.20068 1.2996,1.11608 1.27967,1.10097 1.26581,1.01339 1.31926,1.08289 1.3443,1.00866 C 1.31128,0.991186 1.31952,0.982493 1.3224,0.932253 L 1.35352,0.976182 1.38145,0.909564 C 1.36765,0.905879 1.36288,0.908119 1.36288,0.890985 c 0,-0.02533 0.01238,-0.026602 0.01238,-0.074315 L 1.3788,0.817324 1.39384,0.884792 1.40338,0.883706 1.46816,0.698997 1.49236,0.70119 1.41979,0.89317 1.46197,0.872406 C 1.45467,0.899729 1.44128,0.927363 1.40673,0.928378 L 1.38135,0.989406 1.45577,0.977689 C 1.43369,0.996882 1.40746,1.02104 1.36729,1.02038 L 1.34449,1.09606 1.43719,1.07059 C 1.43005,1.08034 1.36194,1.13252 1.35049,1.13252 1.3363,1.13252 1.34329,1.13042 1.32532,1.1262 L 1.30067,1.21159 z M 0.824068,0.568942 C 0.886796,0.552194 0.914635,0.53006 1.00385,0.51958 1.07104,0.51169 1.13295,0.500816 1.20804,0.500816 l 0.04336,0 c 0.16784,0 0.24419,0.026059 0.37159,0.05574 C 1.61728,0.625143 1.32394,0.668032 1.22662,0.668032 l -0.03096,0 c -0.09488,0 -0.355737,-0.039724 -0.371592,-0.09909 z m -0.179602,1.046648 0,0.07432 c 0,0.17194 -0.00224,0.37159 0.167217,0.37159 l 0.823697,0 c 0.08719,0 0.12032,-0.05376 0.15382,-0.10542 l 0.01339,-0.11134 0,-0.26011 C 1.80259,1.30343 1.77825,1.08724 1.73998,0.848321 1.68935,0.532211 1.65873,0.494628 1.29475,0.494628 l -0.13625,0 c -0.417158,0 -0.360934,0.054185 -0.44845,0.369043 C 0.696416,0.91271 0.699176,0.989962 0.685349,1.04335 0.669632,1.10404 0.678195,1.16619 0.66677,1.22914 0.648065,1.33218 0.644467,1.49869 0.644466,1.61559 z"
       style="fill:#ffffff"
       id="path16" />
    <path
       inkscape:connector-curvature="0"
       d="M 1.39384,1.19445 C 1.38408,1.20294 1.32385,1.25019 1.31333,1.25019 1.29914,1.25019 1.30613,1.24809 1.28856,1.244 1.28752,1.29073 1.25399,1.37838 1.24581,1.4304 1.23785,1.48108 1.21424,1.58143 1.21424,1.62797 L 1.21194,1.68399 1.22768,1.81411 1.32548,1.51106 1.30036,1.50418 1.28886,1.39248 1.33637,1.48745 1.37393,1.39396 1.35668,1.37406 1.35971,1.3103 1.39131,1.3638 1.44339,1.26877 1.43041,1.26876 1.43719,1.19445 1.42951,1.15759 z"
       style="fill:#ffffff"
       id="path18" />
    <path
       inkscape:connector-curvature="0"
       d="m 0.644469,1.61559 c 0,-0.11691 0.003598,-0.28341 0.022303,-0.38645 C 0.678197,1.16619 0.669634,1.10404 0.685351,1.04335 0.699178,0.98996 0.696418,0.912708 0.710052,0.863669 0.797567,0.548811 0.741343,0.494626 1.1585,0.494626 l 0.13625,0 c 0.36399,0 0.3946,0.037583 0.44523,0.353693 C 1.77825,1.08724 1.80259,1.30343 1.80259,1.58463 l 0,0.26011 L 1.7892,1.95608 C 1.7557,2.00774 1.72257,2.0615 1.63538,2.0615 l -0.823695,0 C 0.642228,2.0615 0.644468,1.86185 0.644468,1.68991 z M 0.464867,0.59991 C 0.532284,0.58191 0.479198,0.560343 0.601076,0.568985 0.676029,0.5743 0.694765,0.579461 0.755946,0.593717 0.733308,0.627524 0.612765,0.686615 0.551572,0.686615 l -0.012386,0 c -0.02911,0 -0.074319,-0.037311 -0.074319,-0.061929 z M 1.81458,0.553812 C 1.8837,0.546422 1.96362,0.580465 1.96362,0.649457 l 0,0.018579 c 0,0.019039 -0.01815,0.024772 -0.03716,0.024772 l -0.01858,0 c -0.05627,0 -0.19414,-0.083886 -0.21721,-0.12072 z M 0.669247,0.345993 c 0,-0.029811 0.030909,-0.068126 0.05574,-0.068126 l 0.018579,0 c 0.017803,0 0.043354,0.048996 0.043354,0.068126 l 0,0.130055 c 0,0.039574 -0.01239,0.047126 -0.01239,0.086704 C 0.744637,0.554768 0.669247,0.430118 0.669247,0.389343 z m 0.990913,0.0867 c 0,-0.086318 -0.00116,-0.16102 0.0867,-0.16102 l 0.01858,0 c 0.02002,0 0.03097,0.022481 0.03097,0.043351 0,0.062897 -0.09354,0.213689 -0.13625,0.229146 z M 1.70351,0.550366 C 1.71856,0.493996 1.82118,0.394004 1.82118,0.327409 l 0,-0.04335 C 1.80089,0.27587 1.8001,0.246898 1.77163,0.246898 l -0.01858,0 c -0.08005,0 -0.11767,0.063137 -0.11767,0.142445 l 0,0.130055 C 1.57246,0.502598 1.56398,0.488909 1.47446,0.482138 1.41282,0.477472 1.35918,0.469854 1.28857,0.469854 l -0.11148,0 C 1.0267,0.469854 0.898817,0.47913 0.799306,0.531783 0.804468,0.509618 0.811692,0.502685 0.811692,0.476047 l 0,-0.105283 c 0,-0.044941 -0.030712,-0.117673 -0.068126,-0.117673 l -0.024771,0 c -0.025489,0 -0.080512,0.058166 -0.080512,0.092902 0,0.061043 0.066197,0.170693 0.092897,0.210567 L 0.551782,0.541694 C 0.513621,0.541032 0.446294,0.576351 0.446294,0.606103 l 0,0.018583 c 0,0.042016 0.053185,0.086701 0.092898,0.086701 l 0.006193,0 c 0.091177,0 0.141866,-0.061197 0.198181,-0.074319 C 0.685404,0.746989 0.625897,1.32467 0.625897,1.5165 l 0,0.1858 c 0,0.18469 0.00898,0.38397 0.191988,0.38397 l 0.817495,0 c 0.12786,0 0.19199,-0.11886 0.19199,-0.24773 l 0,-0.32823 c 0,-0.0706 -0.00461,-0.17112 -0.01282,-0.2411 C 1.80803,1.21367 1.79024,1.08995 1.79021,1.03963 1.79017,0.959076 1.76696,0.891891 1.75872,0.817194 1.75155,0.752123 1.71706,0.682859 1.70351,0.624686 1.73981,0.643894 1.85603,0.717579 1.8955,0.717579 l 0.03716,0 c 0.03061,0 0.05574,-0.025126 0.05574,-0.055736 l 0,-0.006193 c 0,-0.068224 -0.04586,-0.117669 -0.11768,-0.117669 l -0.08051,0 z"
       style="fill:#000000;stroke:#000000;stroke-width:0.075;stroke-miterlimit:4;stroke-opacity:1;stroke-dasharray:0.15, 0.075;stroke-dashoffset:0"
       id="path20" />
    <path
       inkscape:connector-curvature="0"
       d="M 1.4372,1.19445 1.43041,1.26876 1.44339,1.26877 1.39132,1.3638 1.35972,1.3103 1.35669,1.37406 1.37394,1.39396 1.33637,1.48745 1.28886,1.39248 1.30037,1.50418 1.32548,1.51106 1.22768,1.81411 1.21194,1.68399 1.21424,1.62797 c 0,-0.04654 0.02361,-0.14689 0.03158,-0.19757 0.00817,-0.05202 0.0417,-0.13967 0.04274,-0.1864 0.01757,0.00409 0.01059,0.00619 0.02477,0.00619 0.01053,0 0.07075,-0.04725 0.08052,-0.05574 L 1.30068,1.2116 1.32532,1.1262 c 0.01797,0.00422 0.01099,0.00632 0.02518,0.00632 0.01145,0 0.07955,-0.05218 0.0867,-0.06193 L 1.34449,1.09606 1.3673,1.02038 C 1.40747,1.02104 1.4337,0.996882 1.45578,0.977689 L 1.38135,0.989406 1.40674,0.928378 C 1.44129,0.927363 1.45468,0.899729 1.46197,0.872406 L 1.41979,0.89317 1.49237,0.70119 1.46816,0.698997 1.40339,0.883706 1.39385,0.884792 1.37881,0.817324 1.37527,0.81667 c 0,0.047713 -0.01239,0.048985 -0.01239,0.074315 0,0.017134 0.00478,0.014894 0.01858,0.018579 L 1.35353,0.976182 1.3224,0.932253 C 1.31953,0.982493 1.31128,0.991186 1.3443,1.00866 L 1.31926,1.08289 1.26581,1.01339 1.27967,1.10097 1.29961,1.11608 1.28253,1.20068 1.23544,1.14296 1.2405,1.21912 1.26867,1.23439 C 1.26966,1.24622 1.23707,1.37972 1.22934,1.42011 1.21572,1.49123 1.20186,1.52891 1.20186,1.61559 L 1.16524,1.50396 1.18433,1.48029 1.18328,1.41741 1.14741,1.45565 1.12192,1.36769 1.14098,1.34404 1.13992,1.28115 1.10509,1.32026 1.08424,1.26875 C 1.1162,1.25183 1.11515,1.21808 1.11515,1.16968 L 1.07417,1.23557 C 1.05077,1.23053 1.04107,1.19108 1.03464,1.16348 1.04319,1.15072 1.05322,1.14741 1.05322,1.13252 l 0,-0.04955 -0.01238,0 -0.0209,0.05471 C 1.01373,1.13246 0.997484,1.11497 0.997484,1.10155 0.997484,1.08931 1.01606,1.0925 1.01606,1.07059 l 0,-0.0062 c 0,-0.03498 -0.01238,-0.03387 -0.01238,-0.074315 L 0.982184,1.06372 0.972712,1.06439 0.886472,0.881469 0.874208,0.887276 0.95298,1.06491 0.911956,1.04363 0.942558,1.10104 0.972712,1.10155 0.991488,1.13239 0.910995,1.1189 c 0.012725,0.01248 0.053351,0.04458 0.074103,0.04458 0.001697,0 0.011315,-0.00426 0.018582,-0.00619 l 0.0317,0.06778 -0.099755,-0.0186 c 0.03363,0.02966 0.063528,0.0539 0.111405,0.04991 L 1.08176,1.34159 0.991583,1.32893 C 1.01394,1.36161 1.04605,1.37059 1.08583,1.37735 1.09711,1.37928 1.12085,1.46344 1.12135,1.48553 L 1.02855,1.46647 1.09634,1.51684 1.12754,1.5165 c 0.03745,0.07077 0.07432,0.37174 0.07432,0.49545 l 0.04335,0 L 1.23761,1.944 1.23902,1.91286 c 0,-0.12614 0.09135,-0.29094 0.09909,-0.38398 0.0246,0.00205 0.01492,0.0062 0.03096,0.0062 0.00722,0 0.09095,-0.03819 0.0991,-0.04336 L 1.35653,1.50258 1.39274,1.40459 1.41844,1.41775 1.51208,1.37521 1.41243,1.3803 1.45573,1.29352 c 0.01394,0.00326 0.01429,0.00621 0.03101,0.00621 0.01029,0 0.06498,-0.03067 0.07432,-0.03715 L 1.4743,1.26806 1.51848,1.20739 C 1.56405,1.21069 1.56637,1.19562 1.59203,1.15729 L 1.54947,1.17188 C 1.56522,1.13841 1.58633,1.10408 1.60557,1.07174 1.61766,1.05143 1.67004,0.988599 1.62919,0.97769 L 1.63478,0.981005 1.52872,1.16014 1.5163,1.08934 1.51152,1.08917 c 0,0.04436 -0.01858,0.05339 -0.01858,0.06812 0,0.01049 0.00824,0.02315 0.01238,0.03097 L 1.45844,1.25221 z"
       style="fill:#000000"
       id="path22" />
  </g>
  <g
     style="font-size:52px;font-weight:bold;text-anchor:middle;fill:#000000;font-family:Arial"
     id="text24">
    <path
       inkscape:connector-curvature="0"
       d="m 129.61719,135.88867 7.3125,-0.71094 c 0.44009,2.45444 1.33299,4.25717 2.67871,5.40821 1.34569,1.15105 3.16112,1.72657 5.44629,1.72656 2.42055,1e-5 4.24444,-0.51204 5.47168,-1.53613 1.22719,-1.02408 1.84079,-2.22167 1.84082,-3.59278 -3e-5,-0.88019 -0.25816,-1.62922 -0.77442,-2.24707 -0.5163,-0.61782 -1.41766,-1.15526 -2.7041,-1.6123 -0.88023,-0.30467 -2.88608,-0.84634 -6.01758,-1.625 -4.02865,-0.99868 -6.85547,-2.22589 -8.48047,-3.68164 -2.28516,-2.04816 -3.42773,-4.5449 -3.42773,-7.49024 0,-1.8958 0.53743,-3.66891 1.61231,-5.31933 1.07486,-1.65036 2.62369,-2.90719 4.64648,-3.77051 2.02277,-0.86324 4.4645,-1.29488 7.32519,-1.29492 4.67186,4e-5 8.18846,1.02412 10.54981,3.07226 2.3613,2.04821 3.60121,4.78193 3.71973,8.20118 l -7.51563,0.33007 c -0.32164,-1.91273 -1.01141,-3.28805 -2.06933,-4.12597 -1.05797,-0.83786 -2.64488,-1.25681 -4.76075,-1.25684 -2.18361,3e-5 -3.89324,0.4486 -5.1289,1.3457 -0.79559,0.57555 -1.19337,1.34574 -1.19336,2.31055 -1e-5,0.88024 0.37238,1.63349 1.11718,2.25977 0.94791,0.79559 3.24999,1.62502 6.90625,2.48828 3.65623,0.8633 6.36033,1.7562 8.11231,2.67871 1.75192,0.92254 3.12302,2.18361 4.11328,3.7832 0.9902,1.59963 1.48532,3.57586 1.48535,5.92871 -3e-5,2.13282 -0.59248,4.13022 -1.77734,5.99219 -1.18493,1.86198 -2.86071,3.24577 -5.02735,4.15137 -2.16668,0.9056 -4.86655,1.3584 -8.0996,1.3584 -4.70575,0 -8.31967,-1.08757 -10.8418,-3.2627 -2.52214,-2.17512 -4.02865,-5.34472 -4.51953,-9.50879 z"
       style="font-size:52px;font-weight:bold;text-anchor:middle;fill:#000000;font-family:Arial"
       id="path3008" />
    <path
       inkscape:connector-curvature="0"
       d="m 174.63477,148 0,-30.92578 -11.04493,0 0,-6.29688 29.58008,0 0,6.29688 -11.01953,0 0,30.92578 z"
       style="font-size:52px;font-weight:bold;text-anchor:middle;fill:#000000;font-family:Arial"
       id="path3010" />
    <path
       inkscape:connector-curvature="0"
       d="m 196.52148,129.61719 c 0,-3.79165 0.56706,-6.97394 1.70118,-9.54688 0.84635,-1.8958 2.00162,-3.59697 3.46582,-5.10351 1.46418,-1.50648 3.06802,-2.62367 4.81152,-3.35157 2.319,-0.98173 4.99347,-1.47261 8.02344,-1.47265 5.48435,4e-5 9.87269,1.70121 13.16504,5.10351 3.29228,3.40238 4.93843,8.13349 4.93847,14.19336 -4e-5,6.00913 -1.6335,10.71062 -4.90039,14.1045 -3.26695,3.39388 -7.63414,5.09081 -13.10156,5.09082 -5.53517,-1e-5 -9.93621,-1.68848 -13.20313,-5.06543 -3.26693,-3.37695 -4.90039,-8.02766 -4.90039,-13.95215 z m 7.74414,-0.25391 c -1e-5,4.21486 0.9733,7.40984 2.91993,9.58496 1.9466,2.17514 4.41795,3.2627 7.41406,3.2627 2.99607,0 5.45473,-1.0791 7.37598,-3.23731 1.92119,-2.15819 2.8818,-5.39549 2.88183,-9.71191 -3e-5,-4.2656 -0.93525,-7.44789 -2.80566,-9.54688 -1.87047,-2.09892 -4.35452,-3.1484 -7.45215,-3.14843 -3.09767,3e-5 -5.59442,1.0622 -7.49024,3.18652 -1.89584,2.12437 -2.84376,5.32782 -2.84375,9.61035 z"
       style="font-size:52px;font-weight:bold;text-anchor:middle;fill:#000000;font-family:Arial"
       id="path3012" />
    <path
       inkscape:connector-curvature="0"
       d="m 238.49219,148 0,-37.22266 15.81836,0 c 3.97784,4e-5 6.86813,0.33435 8.6709,1.00293 1.8027,0.66866 3.24573,1.85779 4.3291,3.56739 1.0833,1.70966 1.62496,3.66474 1.625,5.86523 -4e-5,2.79299 -0.821,5.09931 -2.46289,6.91895 -1.64196,1.81968 -4.09639,2.96648 -7.36329,3.44043 1.62498,0.94793 2.96645,1.98894 4.02442,3.12304 1.05791,1.13413 2.48402,3.14845 4.27832,6.04297 l 4.54492,7.26172 -8.98828,0 -5.43359,-8.09961 c -1.92971,-2.89452 -3.25002,-4.71841 -3.96094,-5.47168 -0.71096,-0.75324 -1.46421,-1.26952 -2.25977,-1.54883 -0.79559,-0.27928 -2.05665,-0.41893 -3.7832,-0.41894 l -1.52344,0 0,15.53906 z m 7.51562,-21.48047 5.56055,0 c 3.60545,2e-5 5.85675,-0.15232 6.75391,-0.45703 0.89711,-0.30467 1.59958,-0.8294 2.10742,-1.57422 0.50778,-0.74477 0.76169,-1.67575 0.76172,-2.79297 -3e-5,-1.25257 -0.33434,-2.26397 -1.00293,-3.03418 -0.66865,-0.77015 -1.61233,-1.2568 -2.83106,-1.45996 -0.6094,-0.0846 -2.43752,-0.12692 -5.48437,-0.12695 l -5.86524,0 z"
       style="font-size:52px;font-weight:bold;text-anchor:middle;fill:#000000;font-family:Arial"
       id="path3014" />
  </g>
</svg>
