<?xml version="1.0" encoding="UTF-8" standalone="no"?>
<!--
Copyright (C) 2012 United States Government as represented by the Administrator of the
National Aeronautics and Space Administration.
All Rights Reserved.
-->

<!--
MIL-STD-2525 tactical symbol icon image. During icon composition this image is multiplied by the desired frame color 
(e.g. black), then drawn on top of the frame and fill.
-->

<svg
   xmlns:dc="http://purl.org/dc/elements/1.1/"
   xmlns:cc="http://creativecommons.org/ns#"
   xmlns:rdf="http://www.w3.org/1999/02/22-rdf-syntax-ns#"
   xmlns:svg="http://www.w3.org/2000/svg"
   xmlns="http://www.w3.org/2000/svg"
   xmlns:sodipodi="http://sodipodi.sourceforge.net/DTD/sodipodi-0.dtd"
   xmlns:inkscape="http://www.inkscape.org/namespaces/inkscape"
   height="400px"
   viewBox="0 0 400 400"
   width="400px"
   id="svg2"
   version="1.1"
   inkscape:version="0.48.2 r9819"
   sodipodi:docname="enface---------.svg">
  <metadata
     id="metadata24">
    <rdf:RDF>
      <cc:Work
         rdf:about="">
        <dc:format>image/svg+xml</dc:format>
        <dc:type
           rdf:resource="http://purl.org/dc/dcmitype/StillImage" />
      </cc:Work>
    </rdf:RDF>
  </metadata>
  <defs
     id="defs22" />
  <sodipodi:namedview
     pagecolor="#ffffff"
     bordercolor="#666666"
     borderopacity="1"
     objecttolerance="10"
     gridtolerance="10"
     guidetolerance="10"
     inkscape:pageopacity="0"
     inkscape:pageshadow="2"
     inkscape:window-width="640"
     inkscape:window-height="480"
     id="namedview20"
     showgrid="false"
     inkscape:zoom="0.59"
     inkscape:cx="200"
     inkscape:cy="200"
     inkscape:window-x="225"
     inkscape:window-y="76"
     inkscape:window-maximized="0"
     inkscape:current-layer="svg2" />
  <g
     transform="matrix(150,0,0,150,8.9999999,28.5)"
     id="g4"
     style="stroke:#000000;stroke-width:0.04;stroke-miterlimit:4;stroke-opacity:1;stroke-dasharray:0.08, 0.04;stroke-dashoffset:0">
    <path
       inkscape:connector-curvature="0"
       d="m 0.906547,1.24253 0,0.10719 0.089323,0 0,-0.19652 C 0.984102,1.16109 0.906547,1.23159 0.906547,1.24253 z"
       style="fill:#ffffff;stroke:#000000;stroke-width:0.04;stroke-miterlimit:4;stroke-opacity:1;stroke-dasharray:0.08, 0.04;stroke-dashoffset:0"
       id="path6" />
    <polygon
       points="1.10306,1.34972 1.21025,1.34972 1.20934,0.94237 1.10605,1.04457 "
       style="fill:#ffffff;stroke:#000000;stroke-width:0.04;stroke-miterlimit:4;stroke-opacity:1;stroke-dasharray:0.08, 0.04;stroke-dashoffset:0"
       id="polygon8" />
    <path
       inkscape:connector-curvature="0"
       d="m 1.33531,1.34972 0.10719,0 0,-0.29924 c 0,-0.01102 -0.09409,-0.098413 -0.10719,-0.107189 z"
       style="fill:#ffffff;stroke:#000000;stroke-width:0.04;stroke-miterlimit:4;stroke-opacity:1;stroke-dasharray:0.08, 0.04;stroke-dashoffset:0"
       id="path10" />
    <path
       inkscape:connector-curvature="0"
       d="m 1.54969,1.34972 0.08932,0 0,-0.09826 c 0,-0.01707 -0.00137,-0.00162 0.00359,-0.0125 L 1.54969,1.1532 z"
       style="fill:#ffffff;stroke:#000000;stroke-width:0.04;stroke-miterlimit:4;stroke-opacity:1;stroke-dasharray:0.08, 0.04;stroke-dashoffset:0"
       id="path12" />
    <polygon
       points="0.790134,1.36342 1.27167,1.82876 1.75513,1.36312 "
       style="fill:#ffffff;stroke:#000000;stroke-width:0.04;stroke-miterlimit:4;stroke-opacity:1;stroke-dasharray:0.08, 0.04;stroke-dashoffset:0"
       id="polygon14" />
    <path
       inkscape:connector-curvature="0"
       d="M 0.790134,1.36342 1.75513,1.36312 1.27167,1.82876 z M 1.33531,0.94329 C 1.34841,0.952066 1.4425,1.03946 1.4425,1.05048 l 0,0.29924 -0.10719,0 z m -0.12597,-9.17e-4 9.1e-4,0.407347 -0.10719,0 L 1.10605,1.04457 1.20934,0.942372 z M 0.906547,1.24253 c 0,-0.01094 0.077555,-0.08144 0.089323,-0.08933 l 0,0.19652 -0.089323,0 z M 1.54969,1.1532 1.6426,1.23895 C 1.63764,1.24984 1.63901,1.23439 1.63901,1.25146 l 0,0.09826 -0.08932,0 z M 1.78608,1.35832 1.27338,0.857813 0.761902,1.35689 1.27335,1.85499 z"
       style="fill:#000000;stroke:#000000;stroke-width:0.04;stroke-miterlimit:4;stroke-opacity:1;stroke-dasharray:0.08, 0.04;stroke-dashoffset:0"
       id="path16" />
  </g>
  <g
     style="font-size:52px;font-weight:bold;text-anchor:middle;fill:#000000;font-family:Arial"
     id="text18">
    <path
       inkscape:connector-curvature="0"
       d="m 129.61719,135.88867 7.3125,-0.71094 c 0.44009,2.45444 1.33299,4.25717 2.67871,5.40821 1.34569,1.15105 3.16112,1.72657 5.44629,1.72656 2.42055,1e-5 4.24444,-0.51204 5.47168,-1.53613 1.22719,-1.02408 1.84079,-2.22167 1.84082,-3.59278 -3e-5,-0.88019 -0.25816,-1.62922 -0.77442,-2.24707 -0.5163,-0.61782 -1.41766,-1.15526 -2.7041,-1.6123 -0.88023,-0.30467 -2.88608,-0.84634 -6.01758,-1.625 -4.02865,-0.99868 -6.85547,-2.22589 -8.48047,-3.68164 -2.28516,-2.04816 -3.42773,-4.5449 -3.42773,-7.49024 0,-1.8958 0.53743,-3.66891 1.61231,-5.31933 1.07486,-1.65036 2.62369,-2.90719 4.64648,-3.77051 2.02277,-0.86324 4.4645,-1.29488 7.32519,-1.29492 4.67186,4e-5 8.18846,1.02412 10.54981,3.07226 2.3613,2.04821 3.60121,4.78193 3.71973,8.20118 l -7.51563,0.33007 c -0.32164,-1.91273 -1.01141,-3.28805 -2.06933,-4.12597 -1.05797,-0.83786 -2.64488,-1.25681 -4.76075,-1.25684 -2.18361,3e-5 -3.89324,0.4486 -5.1289,1.3457 -0.79559,0.57555 -1.19337,1.34574 -1.19336,2.31055 -1e-5,0.88024 0.37238,1.63349 1.11718,2.25977 0.94791,0.79559 3.24999,1.62502 6.90625,2.48828 3.65623,0.8633 6.36033,1.7562 8.11231,2.67871 1.75192,0.92254 3.12302,2.18361 4.11328,3.7832 0.9902,1.59963 1.48532,3.57586 1.48535,5.92871 -3e-5,2.13282 -0.59248,4.13022 -1.77734,5.99219 -1.18493,1.86198 -2.86071,3.24577 -5.02735,4.15137 -2.16668,0.9056 -4.86655,1.3584 -8.0996,1.3584 -4.70575,0 -8.31967,-1.08757 -10.8418,-3.2627 -2.52214,-2.17512 -4.02865,-5.34472 -4.51953,-9.50879 z"
       style="font-size:52px;font-weight:bold;text-anchor:middle;fill:#000000;font-family:Arial"
       id="path3770" />
    <path
       inkscape:connector-curvature="0"
       d="m 174.63477,148 0,-30.92578 -11.04493,0 0,-6.29688 29.58008,0 0,6.29688 -11.01953,0 0,30.92578 z"
       style="font-size:52px;font-weight:bold;text-anchor:middle;fill:#000000;font-family:Arial"
       id="path3772" />
    <path
       inkscape:connector-curvature="0"
       d="m 196.52148,129.61719 c 0,-3.79165 0.56706,-6.97394 1.70118,-9.54688 0.84635,-1.8958 2.00162,-3.59697 3.46582,-5.10351 1.46418,-1.50648 3.06802,-2.62367 4.81152,-3.35157 2.319,-0.98173 4.99347,-1.47261 8.02344,-1.47265 5.48435,4e-5 9.87269,1.70121 13.16504,5.10351 3.29228,3.40238 4.93843,8.13349 4.93847,14.19336 -4e-5,6.00913 -1.6335,10.71062 -4.90039,14.1045 -3.26695,3.39388 -7.63414,5.09081 -13.10156,5.09082 -5.53517,-1e-5 -9.93621,-1.68848 -13.20313,-5.06543 -3.26693,-3.37695 -4.90039,-8.02766 -4.90039,-13.95215 z m 7.74414,-0.25391 c -1e-5,4.21486 0.9733,7.40984 2.91993,9.58496 1.9466,2.17514 4.41795,3.2627 7.41406,3.2627 2.99607,0 5.45473,-1.0791 7.37598,-3.23731 1.92119,-2.15819 2.8818,-5.39549 2.88183,-9.71191 -3e-5,-4.2656 -0.93525,-7.44789 -2.80566,-9.54688 -1.87047,-2.09892 -4.35452,-3.1484 -7.45215,-3.14843 -3.09767,3e-5 -5.59442,1.0622 -7.49024,3.18652 -1.89584,2.12437 -2.84376,5.32782 -2.84375,9.61035 z"
       style="font-size:52px;font-weight:bold;text-anchor:middle;fill:#000000;font-family:Arial"
       id="path3774" />
    <path
       inkscape:connector-curvature="0"
       d="m 238.49219,148 0,-37.22266 15.81836,0 c 3.97784,4e-5 6.86813,0.33435 8.6709,1.00293 1.8027,0.66866 3.24573,1.85779 4.3291,3.56739 1.0833,1.70966 1.62496,3.66474 1.625,5.86523 -4e-5,2.79299 -0.821,5.09931 -2.46289,6.91895 -1.64196,1.81968 -4.09639,2.96648 -7.36329,3.44043 1.62498,0.94793 2.96645,1.98894 4.02442,3.12304 1.05791,1.13413 2.48402,3.14845 4.27832,6.04297 l 4.54492,7.26172 -8.98828,0 -5.43359,-8.09961 c -1.92971,-2.89452 -3.25002,-4.71841 -3.96094,-5.47168 -0.71096,-0.75324 -1.46421,-1.26952 -2.25977,-1.54883 -0.79559,-0.27928 -2.05665,-0.41893 -3.7832,-0.41894 l -1.52344,0 0,15.53906 z m 7.51562,-21.48047 5.56055,0 c 3.60545,2e-5 5.85675,-0.15232 6.75391,-0.45703 0.89711,-0.30467 1.59958,-0.8294 2.10742,-1.57422 0.50778,-0.74477 0.76169,-1.67575 0.76172,-2.79297 -3e-5,-1.25257 -0.33434,-2.26397 -1.00293,-3.03418 -0.66865,-0.77015 -1.61233,-1.2568 -2.83106,-1.45996 -0.6094,-0.0846 -2.43752,-0.12692 -5.48437,-0.12695 l -5.86524,0 z"
       style="font-size:52px;font-weight:bold;text-anchor:middle;fill:#000000;font-family:Arial"
       id="path3776" />
  </g>
</svg>
