<?xml version="1.0" encoding="UTF-8" standalone="no"?>
<!--
Copyright (C) 2012 United States Government as represented by the Administrator of the
National Aeronautics and Space Administration.
All Rights Reserved.
-->

<!--
MIL-STD-2525 tactical symbol icon image. During icon composition this image is multiplied by the desired frame color 
(e.g. black), then drawn on top of the frame and fill.
-->

<svg
   xmlns:dc="http://purl.org/dc/elements/1.1/"
   xmlns:cc="http://creativecommons.org/ns#"
   xmlns:rdf="http://www.w3.org/1999/02/22-rdf-syntax-ns#"
   xmlns:svg="http://www.w3.org/2000/svg"
   xmlns="http://www.w3.org/2000/svg"
   xmlns:sodipodi="http://sodipodi.sourceforge.net/DTD/sodipodi-0.dtd"
   xmlns:inkscape="http://www.inkscape.org/namespaces/inkscape"
   height="400px"
   viewBox="0 0 400 400"
   width="400px"
   id="svg2"
   version="1.1"
   inkscape:version="0.48.2 r9819"
   sodipodi:docname="enfag----------.svg">
  <metadata
     id="metadata22">
    <rdf:RDF>
      <cc:Work
         rdf:about="">
        <dc:format>image/svg+xml</dc:format>
        <dc:type
           rdf:resource="http://purl.org/dc/dcmitype/StillImage" />
      </cc:Work>
    </rdf:RDF>
  </metadata>
  <defs
     id="defs20" />
  <sodipodi:namedview
     pagecolor="#ffffff"
     bordercolor="#666666"
     borderopacity="1"
     objecttolerance="10"
     gridtolerance="10"
     guidetolerance="10"
     inkscape:pageopacity="0"
     inkscape:pageshadow="2"
     inkscape:window-width="640"
     inkscape:window-height="480"
     id="namedview18"
     showgrid="false"
     inkscape:zoom="0.59"
     inkscape:cx="200"
     inkscape:cy="200"
     inkscape:window-x="105"
     inkscape:window-y="58"
     inkscape:window-maximized="0"
     inkscape:current-layer="svg2" />
  <path
     inkscape:connector-curvature="0"
     d="m 259.5576,228.80796 -12.5388,39.2556 -94.2768,-0.1128 -21.8754,-65.6124 c 0,-5.7684 -7.36584,-20.6676 -7.36584,-23.2308 l 0,-1.6992 c 2.35236,-0.6288 33.05808,-23.76204 37.96956,-27.18912 3.53052,-2.46336 37.76208,-27.771 37.95408,-27.771 1.7028,0 68.946,50.09532 76.7016,55.41012 z m -146.8224,-53.6664 c 0,0.0228 15.16824,46.6656 16.59972,50.2596 2.40144,6.0276 15.90144,46.818 16.26288,51.162 l 107.6538,0 c 1.6392,-7.0392 5.7684,-17.5692 8.286,-25.1436 2.9064,-8.7432 5.2332,-17.0856 8.3736,-25.6224 1.56,-4.2408 16.77,-50.5404 16.77,-50.6556 0,-1.1652 -38.9244,-28.85352 -43.2156,-32.1426 -4.2708,-3.27348 -42.5772,-31.31628 -44.0412,-31.31628 -0.1992,0 -39.5088,28.50708 -43.39368,31.39704 -4.35552,3.24 -43.2954,30.85464 -43.29552,32.06184 z"
     style="fill:#ffffff"
     id="path6" />
  <path
     inkscape:connector-curvature="0"
     d="m 150.13044,185.90676 2.10708,9.2616 0.72564,-0.1956 c 0,4.0344 6.16824,20.4744 7.71828,25.7112 1.31484,4.4424 2.8134,8.4276 4.25244,12.7452 0.64212,1.926 3.19092,11.97 5.02692,11.97 l 59.4924,0 c 2.3652,0 8.1624,-21.5112 9.4116,-25.1508 1.6068,-4.674 8.154,-22.4988 8.154,-26.4096 1.1808,-1.7628 2.2656,-3.9 2.2656,-6.7992 0,-2.0748 -21.1992,-16.218 -24.252,-18.2424 -2.568,-1.7016 -24.8964,-18.0192 -25.0416,-18.0192 -1.2756,0 -22.1184,15.588 -24.9384,17.5572 -3.4056,2.3784 -22.923,17.0376 -24.92196,17.5716 z"
     style="fill:#ffffff"
     id="path8" />
  <path
     inkscape:connector-curvature="0"
     d="m 150.13044,185.90676 c 1.99896,-0.534 21.51636,-15.1932 24.92196,-17.5716 2.82,-1.9692 23.6628,-17.5572 24.9384,-17.5572 0.1452,0 22.4736,16.3176 25.0416,18.0204 3.0528,2.0232 24.252,16.1664 24.252,18.2424 0,2.898 -1.0848,5.0352 -2.2656,6.798 0,3.9108 -6.5472,21.7356 -8.154,26.4096 -1.2492,3.6396 -7.0476,25.1508 -9.4116,25.1508 l -59.4924,0 c -1.836,0 -4.38492,-10.044 -5.02704,-11.97 -1.43904,-4.3176 -2.9376,-8.3028 -4.25244,-12.7452 -1.55004,-5.2368 -7.71816,-21.6768 -7.71816,-25.7112 l -0.72576,0.1956 z m -7.93224,-1.7004 22.09704,67.4256 70.57596,-0.0804 21.78,-67.9116 c -8.082,-4.2756 -54.336,-40.79484 -57.2268,-40.79484 -0.8124,0 -51.47088,37.50804 -57.2262,41.36124 z"
     style="fill:#000000"
     id="path10" />
  <path
     inkscape:connector-curvature="0"
     d="m 142.19808,184.20756 c 5.75532,-3.8532 56.41392,-41.36172 57.22632,-41.36172 2.8908,0 49.1448,36.51972 57.2268,40.79532 l -21.78,67.9104 -70.57608,0.0816 z m -8.90832,-3.1824 2.13216,8.4624 8.47548,24.1836 c 0,3.894 5.63532,18.9336 7.1514,23.4444 1.10124,3.276 6.49656,21.8832 8.71368,21.8832 l 81.39312,-0.0648 13.7952,-43.5636 c 1.0668,-1.5936 11.3316,-31.5108 11.3316,-33.4296 0,-2.4456 -59.7204,-43.01532 -66.5544,-49.089 z"
     style="fill:#ffffff"
     id="path12" />
  <path
     inkscape:connector-curvature="0"
     d="m 199.728,132.85164 c 6.834,6.07368 66.5544,46.64352 66.5544,49.08912 0,1.9188 -10.2648,31.836 -11.3316,33.4296 l -13.7964,43.5636 -81.39216,0.0648 c -2.21724,0 -7.61244,-18.6072 -8.71368,-21.8832 -1.51608,-4.5108 -7.1514,-19.5504 -7.1514,-23.4444 l -8.4756,-24.1836 -2.13204,-8.4624 z m 76.398,45.00792 c -7.7556,-5.316 -75,-55.41108 -76.7016,-55.41108 -0.1932,0 -34.42404,25.30776 -37.95456,27.771 -4.91148,3.42708 -35.61732,26.56008 -37.96956,27.18888 l 0,1.7004 c 0,2.562 7.36584,17.4612 7.36584,23.2296 l 21.8754,65.6136 94.27728,0.1116 12.5388,-39.2556 z"
     style="fill:#000000"
     id="path14" />
  <path
     inkscape:connector-curvature="0"
     d="m 112.73484,175.14156 c 0,-1.2072 38.94,-28.82172 43.2954,-32.06172 3.88488,-2.88996 43.19496,-31.39704 43.39416,-31.39704 1.464,0 39.7692,28.04268 44.0412,31.31628 4.29,3.28908 43.2144,30.97728 43.2144,32.14248 0,0.1152 -15.2088,46.4148 -16.7688,50.6556 -3.1404,8.5368 -5.4684,16.8792 -8.3736,25.6224 -2.5176,7.5744 -6.6468,18.1044 -8.286,25.1436 l -107.65428,0 c -0.36144,-4.344 -13.86144,-45.1344 -16.26288,-51.162 -1.43148,-3.594 -16.59972,-50.2368 -16.5996,-50.2596 z m 20.89368,96.1596 5.00736,15.324 122.54772,0.1368 21.1056,-65.8644 16.566,-51.3324 -99.2952,-71.66664 -99.1638,72.10224 33.23244,101.3004 z"
     style="fill:#000000;stroke:#000000;stroke-width:6;stroke-miterlimit:4;stroke-opacity:1;stroke-dasharray:12, 6;stroke-dashoffset:0"
     id="path16" />
</svg>
