<?xml version="1.0"?>
<!--
Copyright (C) 2012 United States Government as represented by the Administrator of the
National Aeronautics and Space Administration.
All Rights Reserved.
-->

<!DOCTYPE svg PUBLIC "-//W3C//DTD SVG 1.1//EN" "http://www.w3.org/Graphics/SVG/1.1/DTD/svg11.dtd" >
<!--
MIL-STD-2525 tactical symbol icon image. During icon composition this image is multiplied by the desired frame color 
(e.g. black), then drawn on top of the frame and fill.
-->
<svg xmlns:xlink="http://www.w3.org/1999/xlink" height="400px" viewBox="0 0 400 400" width="400px"><g transform="scale(110) translate(0.572727 0.818182)"><path d="M0.777744 0.92185 L0.777744 0.989334 C0.777744 1.03328 0.783209 1.05965 0.797216     1.09133 C0.801181 1.10029 0.831661 1.18194 0.831732 1.18279 L0.839327 1.18212     L0.872224 1.11531 C0.852815 1.08633 0.840728 1.02144 0.840728 0.971338 L0.840728     0.930846 C0.840728 0.845385 0.893571 0.742566 0.936232 0.697917 C0.975752     0.656554 1.06959 0.572543 1.14355 0.570661 L1.13317 0.507936 C0.973307     0.521239 0.777744 0.74118 0.777744 0.92185 z" style="fill:rgb(255,255,255)"/><path d="M0.534795 0.92185 L0.534795 1.03882 C0.534795 1.13531 0.656716 1.41024 0.714756 1.42574     C0.718043 1.41343 0.737252 1.37591 0.737252 1.36725 C0.737252 1.3672     0.690626 1.30059 0.684736 1.28929 C0.669091 1.25931 0.654579 1.23544 0.640819     1.20274 C0.615977 1.14371 0.597784 1.0664 0.597784 0.984833 L0.597784 0.930845     C0.597784 0.748542 0.673977 0.636979 0.75441 0.534093 C0.7855 0.494317     0.860528 0.434105 0.906737 0.407483 C0.938934 0.388932 0.96317 0.375593 0.999563     0.360837 C1.01148 0.35601 1.10259 0.332097 1.10271 0.323369 L1.09717 0.264991     C1.0436 0.266184 0.916926 0.324254 0.878485 0.347739 C0.806615 0.391644     0.768489 0.429794 0.711343 0.486526 C0.629209 0.568061 0.534796 0.758278     0.534796 0.921849 z" style="fill:rgb(255,255,255)"/><path d="M1.34347 0.570811 C1.48076 0.582252 1.64606 0.77839 1.64606 0.935346 L1.64606 0.984834     C1.64606 1.01889 1.61456 1.10952 1.61456 1.11081 C1.61456 1.11574 1.64223     1.17557 1.64606 1.18279 L1.65035 1.18454 L1.68655 1.10631 L1.6898 1.09325     L1.70454 0.957838 L1.70814 0.948248 L1.68655 0.81387 C1.67046 0.807377 1.67264     0.781807 1.66149 0.762444 C1.65106 0.744326 1.64288 0.725893 1.63263 0.710318     C1.60814 0.673074 1.59068 0.653039 1.55946 0.621527 C1.51038 0.571992     1.42835 0.526397 1.34966 0.507992 z" style="fill:rgb(255,255,255)"/><path d="M1.37933 0.327764 C1.53721 0.364461 1.62707 0.431599 1.72373 0.52924 C1.79203 0.598232     1.889 0.779264 1.889 0.91285 L1.889 1.00283 C1.889 1.04942 1.8557 1.17671     1.83759 1.20786 C1.82189 1.23488 1.8107 1.26261 1.79439 1.29063 C1.7889     1.30007 1.74054 1.36558 1.74054 1.36725 C1.74054 1.38187 1.76243 1.40385 1.76753     1.42574 C1.80537 1.41563 1.87543 1.28133 1.89599 1.23927 C1.92362 1.18272     1.95649 1.06144 1.95649 0.980334 L1.95649 0.899354 C1.95649 0.897445 1.93595     0.787338 1.93309 0.774291 C1.92869 0.754259 1.90226 0.691295 1.89248 0.666421     C1.87295 0.616732 1.80982 0.52122 1.77322 0.484252 C1.69212 0.402319 1.53378     0.276988 1.3897 0.265004 z" style="fill:rgb(255,255,255)"/><path d="M1.46587 1.40738 L1.55915 1.71273 L1.55455 1.71592 L1.27794 1.52599 zM1.01884 1.40855     L1.20025 1.52534 L0.924409 1.71762 zM1.24086 1.18699 L1.4414 1.37379 C1.40237     1.38481 1.25821 1.50222 1.24115 1.50222 C1.23713 1.50222 1.0538 1.38009     1.04638 1.37036 zM1.36037 1.07684 L1.43111 1.29944 L1.27558 1.15408 zM1.12151     1.07991 L1.20704 1.15376 L1.05027 1.29914 zM1.16807 1.05791 L1.31313 1.05682     L1.24006 1.12989 zM1.22765 0.683399 C1.22648 0.69747 1.22315 0.699379     1.22315 0.714891 L1.22315 0.759879 L1.15567 0.759879 C1.14513 0.759879 1.13767     0.767344 1.13767 0.777876 C1.13767 0.790029 1.13982 0.790281 1.14217 0.800372     C1.15226 0.802722 1.15251 0.804872 1.16466 0.804872 L1.22315 0.804872 L1.22315     0.867856 L1.11967 0.867856 C1.10586 0.867856 1.09268 0.872025 1.09268     0.885856 C1.09268 0.896384 1.10014 0.903852 1.11067 0.903852 L1.22315 0.903852     L1.22315 1.01632 L1.11967 1.01632 C1.10752 1.01632 1.10727 1.01847 1.09926     1.02149 L1.04223 1.20195 L1.01984 1.27392 L0.925249 1.57537 L0.899222 1.64619     C0.899222 1.69234 0.86773 1.72512 0.86773 1.77216 C0.86773 1.78247 0.869253     1.77739 0.87223 1.79016 L0.885726 1.79016 C0.898773 1.79016 1.22823 1.55621     1.23665 1.55621 C1.25098 1.55621 1.55886 1.76941 1.59657 1.79466 C1.6063     1.78951 1.61906 1.78682 1.61906 1.77216 L1.61906 1.75866 C1.61906 1.75723     1.58459 1.65757 1.58022 1.64454 C1.5718 1.61941 1.54708 1.5474 1.54473 1.52549     L1.52112 1.45381 L1.42735 1.15216 L1.40761 1.07481 C1.38587 1.06604 1.40185     1.01633 1.37162 1.01633 L1.26364 1.01633 L1.26364 0.903853 L1.37162 0.903853     C1.38215 0.903853 1.38962 0.896385 1.38962 0.885857 C1.38962 0.875326 1.38215     0.867857 1.37162 0.867857 L1.26364 0.867857 L1.26364 0.804873 L1.31763     0.804873 C1.33279 0.804873 1.34912 0.79692 1.34912 0.782377 L1.34912 0.777877     C1.34912 0.767345 1.34166 0.759881 1.33113 0.759881 L1.26364 0.759881 L1.26364     0.701396 C1.26364 0.692058 1.25048 0.6789 1.24565 0.6789 C1.24451 0.6789     1.22909 0.682841 1.22765 0.683399 z" style="fill:rgb(255,255,255)"/></g></svg>