<?xml version="1.0"?>
<!--
Copyright (C) 2012 United States Government as represented by the Administrator of the
National Aeronautics and Space Administration.
All Rights Reserved.
-->

<!DOCTYPE svg PUBLIC "-//W3C//DTD SVG 1.1//EN" "http://www.w3.org/Graphics/SVG/1.1/DTD/svg11.dtd" >
<!--
MIL-STD-2525 tactical symbol icon image. During icon composition this image is multiplied by the desired frame color 
(e.g. black), then drawn on top of the frame and fill.
-->
<svg xmlns:xlink="http://www.w3.org/1999/xlink" height="400px" viewBox="0 0 400 400" width="400px"><g transform="scale(100) translate(1.17 0.38)"><polygon points="0.734854,0.643449 0.761185,0.647835 0.763382,0.641252 0.737457,0.63702" style="fill:rgb(0,0,0)"/><path d="M0.772157 0.643449 L0.818177 0.652213 L0.833602 0.560055 C0.824586 0.559307 0.8287     0.557862 0.820437 0.557862 C0.779909 0.557862 0.785468 0.615709 0.772157 0.643449     z" style="fill:rgb(255,255,255)"/><path d="M0.827992 0.654181 L0.87374 0.66324 L0.87776 0.597043 L0.884079 0.601752 C0.883244     0.591752 0.882862 0.593567 0.875299 0.595169 L0.87726 0.593059 L0.846535 0.564531     L0.845063 0.566736 z" style="fill:rgb(255,255,255)"/><polygon points="0.881291,0.665362 0.91811,0.671433 0.884429,0.606161" style="fill:rgb(255,255,255)"/><polygon points="0.745827,0.715866 0.761185,0.647835 0.734854,0.643449 0.710732,0.709157" style="fill:rgb(255,255,255)"/><polygon points="0.745827,0.715866 0.754602,0.715866 0.769878,0.650299 0.761185,0.647835" style="fill:rgb(0,0,0)"/><polygon points="0.74363,0.722449 0.748134,0.72226 0.752409,0.724642 0.754602,0.720256 0.754602,0.715866     0.745827,0.715866" style="fill:rgb(255,255,255)"/><polygon points="0.761185,0.647835 0.769878,0.650299 0.754602,0.715866 0.806996,0.724602 0.815988,0.659094     0.772157,0.650031 0.772157,0.643449 0.763382,0.641252" style="fill:rgb(255,255,255)"/><polygon points="0.816012,0.726831 0.868535,0.735602 0.872984,0.67039 0.826642,0.660941" style="fill:rgb(255,255,255)"/><path d="M0.930161 0.757559 L0.940433 0.756701 L0.932354 0.746587 C0.932354 0.713807 0.931366     0.715185 0.92387 0.691437 C0.919535 0.677705 0.922744 0.680122 0.907323     0.67726 C0.897598 0.675453 0.888464 0.672705 0.880409 0.672024 L0.875382 0.737342     L0.930161 0.746587 z" style="fill:rgb(255,255,255)"/><polygon points="0.74363,0.722449 0.745827,0.715866 0.710732,0.709157 0.734854,0.643449 0.724756,0.636465     0.681598,0.778661 0.68428,0.779122 0.691799,0.776941 0.708575,0.715587" style="fill:rgb(0,0,0)"/><polygon points="0.752409,0.724642 0.74161,0.789689 0.795839,0.801386 0.804992,0.73387" style="fill:rgb(255,255,255)"/><path d="M0.804866 0.803614 L0.862134 0.816811 C0.862134 0.730626 0.894374 0.754374 0.814748     0.735744 z" style="fill:rgb(255,255,255)"/><path d="M0.925772 0.829976 L0.930162 0.757559 L0.8753 0.746586 C0.8753 0.830803 0.843378     0.810783 0.925772 0.829976 z" style="fill:rgb(255,255,255)"/><path d="M0.932354 0.832173 L0.958689 0.836563 C0.955063 0.820988 0.952275 0.761453 0.937319     0.759783 z" style="fill:rgb(255,255,255)"/><polygon points="0.925772,0.836563 0.932354,0.838756 0.932354,0.832173 0.925772,0.829976" style="fill:rgb(255,255,255)"/><path d="M0.719492 0.854118 C0.739169 0.853681 0.732496 0.811122 0.73924 0.797059 L0.728476     0.794901 z" style="fill:rgb(0,0,0)"/><polygon points="0.795555,0.871575 0.855472,0.887028 0.862181,0.823173 0.803626,0.810327" style="fill:rgb(255,255,255)"/><polygon points="0.921382,0.902398 0.925772,0.836563 0.869083,0.825626 0.862437,0.887976" style="fill:rgb(255,255,255)"/><polygon points="0.921382,0.902398 0.927969,0.904591 0.932354,0.838756 0.925772,0.836563" style="fill:rgb(0,0,0)"/><polygon points="0.921382,0.91337 0.927969,0.91337 0.927969,0.904591 0.921382,0.902398" style="fill:rgb(255,255,255)"/><path d="M0.927969 0.904591 L0.969662 0.913371 C0.96756 0.908985 0.963969 0.873343 0.963012     0.865158 C0.960174 0.840878 0.957174 0.840823 0.932355 0.838756 z" style="fill:rgb(255,255,255)"/><path d="M0.719492 0.854118 L0.717295 0.860701 C0.687756 0.860043 0.679653 0.837972 0.674701     0.868579 C0.673197 0.877874 0.666768 0.921901 0.667917 0.92939 C0.668705     0.934535 0.685567 0.935539 0.691433 0.937055 C0.707945 0.941327 0.707992 0.94335     0.7085 0.924323 C0.709 0.905756 0.715736 0.881638 0.717295 0.862894 L0.726771     0.862988 L0.717453 0.94339 L0.776547 0.95726 L0.785205 0.878736 L0.728268     0.86509 L0.728484 0.855433 L0.786819 0.86939 L0.794055 0.808248 L0.73924     0.797059 C0.732496 0.811122 0.739169 0.853681 0.719492 0.854118 z" style="fill:rgb(255,255,255)"/><path d="M0.78313 0.966035 L0.785327 0.959452 L0.780937 0.957259 L0.776547 0.957259 C0.77726     0.965834 0.775221 0.963925 0.78313 0.966035 z" style="fill:rgb(255,255,255)"/><polygon points="0.785327,0.959453 0.846772,0.972618 0.855421,0.896327 0.794366,0.880484" style="fill:rgb(255,255,255)"/><polygon points="0.78313,0.966035 0.846772,0.981398 0.846772,0.972618 0.785327,0.959453" style="fill:rgb(0,0,0)"/><polygon points="0.855547,0.974815 0.915071,0.988004 0.921382,0.91337 0.862165,0.898012" style="fill:rgb(255,255,255)"/><polygon points="0.923087,0.990142 0.976579,1.00112 0.969567,0.924728 0.928457,0.915598" style="fill:rgb(255,255,255)"/><polygon points="0.660917,1.01218 0.699319,1.02086 0.706295,0.948602 0.667106,0.939728" style="fill:rgb(255,255,255)"/><polygon points="0.767772,1.04504 0.776547,1.04504 0.776547,1.03626 0.769291,1.0362 0.774295,0.964098     0.715571,0.950724 0.708717,1.02217 0.767772,1.03407" style="fill:rgb(255,255,255)"/><polygon points="0.846772,0.981398 0.78313,0.966035 0.778921,1.0376 0.840343,1.04944" style="fill:rgb(255,255,255)"/><path d="M0.846772 0.981398 L0.854154 0.981461 L0.848965 1.05162 L0.840189 1.05162 L0.840189     1.0604 L0.846772 1.06259 C0.847126 1.05833 0.84667 1.05382 0.851162 1.05382     C0.868138 1.05382 0.889685 1.06437 0.908217 1.06479 C0.908394 1.05678 0.915323     1.00152 0.914666 0.999252 C0.913083 0.993807 0.865422 0.983811 0.855548     0.983591 L0.855548 0.974815 L0.846772 0.972618 z" style="fill:rgb(255,255,255)"/><path d="M0.978441 1.08015 L0.978961 1.05158 L0.976181 1.01021 L0.921382 0.998953 C0.921382     1.00824 0.917685 1.06611 0.917693 1.06612 C0.919961 1.07006 0.970504 1.07997     0.978441 1.08015 z" style="fill:rgb(255,255,255)"/><path d="M0.66024 1.08015 C0.66024 1.09311 0.655216 1.08564 0.673153 1.09137 C0.680165 1.09362     0.688582 1.09696 0.697547 1.09771 L0.697547 1.04504 C0.697547 1.02825 0.707716     1.03056 0.687484 1.02657 C0.677464 1.02459 0.67063 1.02113 0.66024 1.0209 z" style="fill:rgb(255,255,255)"/><polygon points="0.763382,1.11965 0.767772,1.04504 0.706323,1.03187 0.706846,1.05605 0.704413,1.10116" style="fill:rgb(255,255,255)"/><path d="M0.912063 1.12838 C0.932476 1.11791 0.949606 1.10868 0.980634 1.10868 C0.97913 1.106     0.978441 1.10633 0.978441 1.10209 L0.978323 1.09164 L0.916268 1.07789 z" style="fill:rgb(255,255,255)"/><polygon points="0.772157,1.12184 0.829217,1.1394 0.840189,1.0604 0.776953,1.04726" style="fill:rgb(255,255,255)"/><polygon points="0.829217,1.1394 0.837992,1.14159 0.846772,1.06259 0.840189,1.0604" style="fill:rgb(0,0,0)"/><polygon points="0.829217,1.14818 0.833602,1.15037 0.837992,1.15037 0.837992,1.14159 0.829217,1.1394" style="fill:rgb(255,255,255)"/><path d="M0.837992 1.15037 L0.879358 1.16255 L0.884079 1.16134 C0.88074 1.14884 0.849051 1.1469     0.837992 1.14159 z" style="fill:rgb(0,0,0)"/><path d="M0.772157 1.12184 L0.763381 1.11965 L0.763236 1.12894 L0.704129 1.11306 L0.704129     1.12184 C0.704129 1.12747 0.703602 1.12715 0.701933 1.13062 C0.711645 1.14897     0.741436 1.19641 0.741436 1.2184 L0.746094 1.21831 L0.743606 1.20967 L0.763381     1.2184 L0.763381 1.13062 L0.772157 1.13062 z" style="fill:rgb(255,255,255)"/><polygon points="0.829217,1.14818 0.772157,1.13281 0.771972,1.1394 0.772146,1.22501 0.814091,1.24477" style="fill:rgb(255,255,255)"/><path d="M0.764602 1.25832 L0.765574 1.24473 C0.765574 1.23131 0.76074 1.2256 0.749421 1.22313     z" style="fill:rgb(255,255,255)"/><path d="M0.837992 1.14159 C0.849051 1.1469 0.88074 1.14884 0.884079 1.16134 L0.879358 1.16255     L0.837992 1.15037 L0.822925 1.25078 L0.844575 1.26229 C0.853646 1.24515     0.863563 1.21327 0.871783 1.19294 C0.880445 1.17153 0.896331 1.15056 0.908217     1.13281 L0.902992 1.13274 L0.90822 1.07574 L0.846772 1.06259 z" style="fill:rgb(255,255,255)"/><path d="M0.778469 1.28866 L0.769965 1.27326 C0.769965 1.28822 0.778493 1.31855 0.790123 1.32138     L0.78752 1.31496 C0.80152 1.31122 0.810205 1.27101 0.811642 1.25355 L0.771339     1.23387 z" style="fill:rgb(255,255,255)"/><path d="M0.791909 1.32374 L0.808204 1.37452 L0.842094 1.2695 L0.820437 1.2601 C0.811661 1.27839     0.813775 1.3179 0.791909 1.32374 z" style="fill:rgb(255,255,255)"/><path d="M0.791909 1.32374 C0.813775 1.3179 0.811661 1.27839 0.820437 1.2601 L0.842094 1.2695     L0.808204 1.37452 zM0.787519 1.31496 L0.790122 1.32139 C0.778492 1.31855     0.769964 1.28822 0.769964 1.27327 L0.778468 1.28867 L0.771338 1.23387 L0.811641     1.25355 C0.810204 1.27102 0.801519 1.31122 0.787519 1.31496 zM0.764602     1.25833 L0.749421 1.22314 C0.76074 1.22561 0.765574 1.23131 0.765574 1.24474     zM0.829216 1.14818 L0.81409 1.24478 L0.772145 1.22501 L0.771972 1.1394 L0.772157     1.13282 zM0.763382 1.11965 L0.772157 1.12185 L0.772157 1.13063 L0.763382     1.13063 L0.763382 1.2184 L0.743606 1.20967 L0.746094 1.21832 L0.741437 1.2184     C0.741437 1.19642 0.711645 1.14898 0.701933 1.13063 C0.703602 1.12715 0.70413     1.12748 0.70413 1.12185 L0.70413 1.11307 L0.763236 1.12895 zM0.916268     1.0779 L0.978323 1.09165 L0.978441 1.1021 C0.978441 1.10633 0.97913 1.106 0.980634     1.10868 C0.949606 1.10868 0.932476 1.11792 0.912063 1.12839 zM0.763382     1.11965 L0.704413 1.10116 L0.706846 1.05605 L0.706322 1.03187 L0.767771 1.04504     zM0.978441 1.08015 C0.970504 1.07998 0.91996 1.07006 0.917693 1.06612     C0.917685 1.06611 0.921382 1.00824 0.921382 0.998956 L0.976181 1.01021 L0.97896     1.05159 zM0.66024 1.0209 C0.670629 1.02113 0.677464 1.0246 0.687484 1.02657     C0.707716 1.03057 0.697547 1.02826 0.697547 1.04504 L0.697547 1.09771 C0.688582     1.09696 0.680165 1.09362 0.673153 1.09138 C0.655216 1.08564 0.66024     1.09312 0.66024 1.08015 zM0.928457 0.915602 L0.969567 0.924732 L0.976579 1.00112     L0.923086 0.990145 zM0.767772 1.04504 L0.767772 1.03407 L0.708716 1.02218     L0.715571 0.950728 L0.774295 0.964102 L0.769291 1.03621 L0.776547 1.03626     L0.776547 1.04504 zM0.667107 0.939732 L0.706296 0.948606 L0.699319 1.02086     L0.660918 1.01218 zM0.855548 0.974819 L0.862166 0.898016 L0.921382 0.913374     L0.915071 0.988008 zM0.846772 0.972622 L0.855548 0.974819 L0.855548 0.983594     C0.865422 0.983815 0.913083 0.993811 0.914666 0.999256 C0.915323 1.00152 0.908394     1.05678 0.908217 1.06479 C0.889685 1.06438 0.868138 1.05382 0.851162     1.05382 C0.84667 1.05382 0.847126 1.05834 0.846772 1.0626 L0.908221 1.07575     L0.902992 1.13275 L0.908217 1.13282 C0.896331 1.15057 0.880445 1.17154 0.871784     1.19294 C0.863563 1.21328 0.853646 1.24515 0.844575 1.26229 L0.822925 1.25078     L0.837992 1.15038 L0.833603 1.15038 L0.829217 1.14818 L0.829217 1.1394     L0.772158 1.12185 L0.776953 1.04726 L0.840189 1.0604 L0.840189 1.05163 L0.848965     1.05163 L0.854154 0.981464 L0.846772 0.981401 L0.840343 1.04944 L0.778921     1.0376 L0.78313 0.966039 C0.775221 0.963928 0.77726 0.965838 0.776547 0.957263     L0.780937 0.957263 L0.785327 0.959456 L0.794366 0.880487 L0.855421 0.89633     zM0.925772 0.836567 L0.925772 0.82998 L0.932355 0.832177 L0.932355 0.83876     C0.957174 0.840827 0.960174 0.840882 0.963012 0.865161 C0.963969 0.873346     0.967559 0.908988 0.969662 0.913374 L0.927969 0.904594 L0.927969 0.913374     L0.921382 0.913374 L0.921382 0.902401 L0.862437 0.88798 L0.869083 0.82563     zM0.932355 0.832177 L0.937319 0.759787 C0.952276 0.761456 0.955063 0.820992     0.958689 0.836567 zM0.803627 0.81033 L0.862182 0.823177 L0.855473 0.887031 L0.795556     0.871578 zM0.925773 0.82998 C0.843379 0.810787 0.8753 0.830807 0.8753     0.74659 L0.930162 0.757563 zM0.814749 0.735748 C0.894375 0.754378 0.862134     0.73063 0.862134 0.816815 L0.804867 0.803618 zM0.75241 0.724645 L0.804993     0.733874 L0.795839 0.801389 L0.741611 0.789693 zM0.930162 0.757563 L0.930162     0.74659 L0.875383 0.737346 L0.88041 0.672027 C0.888465 0.672708 0.897599 0.675456     0.907323 0.677264 C0.922745 0.680126 0.919536 0.677708 0.923871 0.691441     C0.931367 0.715189 0.932355 0.713811 0.932355 0.74659 L0.940434 0.756705     zM0.826642 0.660945 L0.872985 0.670393 L0.868536 0.735606 L0.816012 0.726834     zM0.884429 0.606165 L0.918111 0.671437 L0.881292 0.665366 zM0.845063 0.56674     L0.846536 0.564535 L0.87726 0.593063 L0.8753 0.595173 C0.882863 0.593571     0.883244 0.591756 0.884079 0.601756 L0.87776 0.597047 L0.87374 0.663244 L0.827992     0.654185 zM0.772158 0.643452 C0.785469 0.615712 0.77991 0.557866 0.820437     0.557866 C0.828701 0.557866 0.824587 0.559311 0.833603 0.560059 L0.818178     0.652216 zM0.763382 0.641256 L0.772158 0.643452 L0.772158 0.650035 L0.815989     0.659098 L0.806996 0.724606 L0.754603 0.71587 L0.754603 0.72026 L0.75241     0.724645 L0.748134 0.722264 L0.74363 0.722453 L0.7303 0.786897 L0.690961 0.779508     L0.690961 0.78609 C0.702981 0.78709 0.714709 0.792677 0.726075 0.792677     C0.730366 0.792677 0.725595 0.78859 0.739241 0.788287 L0.739241 0.797063 L0.794056     0.808252 L0.786819 0.869393 L0.728485 0.855437 L0.728268 0.865094 L0.785205     0.87874 L0.776548 0.957264 L0.717453 0.943393 L0.726772 0.862992 L0.717296     0.862897 C0.715737 0.881641 0.709 0.90576 0.7085 0.924326 C0.707993     0.943354 0.707945 0.94133 0.691434 0.937059 C0.685567 0.935543 0.668705 0.934539     0.667918 0.929393 C0.666768 0.921905 0.673197 0.877878 0.674701 0.868582     C0.679654 0.837976 0.687756 0.860047 0.717296 0.860704 L0.719493 0.854122     C0.712918 0.850968 0.679989 0.846173 0.679989 0.840952 C0.679989 0.821323 0.688768     0.804004 0.688768 0.783897 C0.673906 0.785523 0.670949 0.842055 0.66878     0.858271 C0.665953 0.879397 0.658556 0.923082 0.659709 0.940106 C0.661119     0.960933 0.65365 1.00005 0.653658 1.02748 C0.653666 1.06031 0.651461 1.08755     0.651461 1.12185 L0.658048 1.12185 L0.658304 1.09896 L0.695351 1.10868 L0.695422     1.13239 L0.609768 1.11965 L0.607571 1.11965 C0.481831 1.11965 0.388122     1.36281 0.388122 1.50369 C0.388122 1.56029 0.406685 1.63813 0.438599 1.6595     C0.457367 1.62403 0.471107 1.58284 0.489808 1.54612 C0.50856 1.50929 0.524804     1.46882 0.541725 1.43126 C0.550028 1.41282 0.559217 1.39428 0.568071 1.3764     C0.578394 1.35556 0.587449 1.33943 0.614292 1.34774 C0.637752 1.35499 0.66256     1.4279 0.667064 1.46176 C0.679768 1.55722 0.666941 1.68728 0.681945 1.77824     C0.698457 1.87831 0.740044 1.93748 0.816047 1.9777 C0.840221 1.9661 0.877634     1.96238 0.89989 1.94742 C0.923063 1.93185 0.944236 1.91677 0.959981 1.8934     C0.990819 1.84763 1.00916 1.78954 1.00916 1.71436 L1.01043 1.69893 L1.00258     1.55855 L1.00258 1.55197 C1.00258 1.48394 1.01491 1.34349 1.0728 1.34349     L1.075 1.34349 C1.11122 1.34349 1.12557 1.35783 1.14083 1.37861 C1.15457     1.39732 1.17178 1.41508 1.18651 1.43387 C1.21582 1.47128 1.25056 1.50596 1.25056     1.57172 L1.25064 1.58681 L1.25933 1.58927 C1.26869 1.5491 1.30542 1.51808     1.30542 1.4598 L1.30542 1.42249 C1.30542 1.33487 1.26921 1.2664 1.23117 1.21585     C1.21076 1.18873 1.18731 1.16683 1.16022 1.14634 C1.14222 1.13272 1.09341     1.09771 1.06622 1.09771 L1.0463 1.09665 L0.989414 1.10649 C0.984429 1.0851     0.9915 1.05671 0.986343 1.02836 C0.982839 1.00912 0.98204 0.966599 0.98063     0.946296 C0.977012 0.89421 0.967918 0.840154 0.958524 0.792843 C0.942248     0.710883 0.908748 0.588658 0.844575 0.557867 L0.844492 0.564718 L0.835319 0.562131     L0.837953 0.553741 L0.818244 0.551285 C0.795197 0.547828 0.770673 0.571757     0.760614 0.583631 C0.754618 0.590706 0.718035 0.632911 0.73924 0.634674     C0.742795 0.619415 0.771386 0.581092 0.783468 0.573328 z" style="fill:rgb(0,0,0)"/></g><text style="fill:rgb(0,0,0);font-family:arial;font-size:52;font-weight:bold;text-anchor:middle" x="200" y="285">LAB</text></svg>