<?xml version="1.0"?>
<!--
Copyright (C) 2012 United States Government as represented by the Administrator of the
National Aeronautics and Space Administration.
All Rights Reserved.
-->

<!DOCTYPE svg PUBLIC "-//W3C//DTD SVG 1.1//EN" "http://www.w3.org/Graphics/SVG/1.1/DTD/svg11.dtd" >
<!--
MIL-STD-2525 tactical symbol icon image. During icon composition this image is multiplied by the desired frame color 
(e.g. black), then drawn on top of the frame and fill.
-->
<svg xmlns:xlink="http://www.w3.org/1999/xlink" height="400px" viewBox="0 0 400 400" width="400px"><g transform="scale(100) translate(0.76 0.65)"><polygon points="1.0541,1.0038 1.06469,0.993213 1.0541,0.987917" style="fill:rgb(255,255,255)"/><path d="M1.3125 1.73072 L1.61117 1.52926 L1.68174 1.75998 L1.71438 1.86033 L1.76781 2.03254     zM0.736839 2.03157 L0.821623 1.73816 L0.871103 1.59069 L0.890965 1.5265 L1.18819     1.73175 zM1.24826 1.16608 L1.57297 1.46973 C1.53537 1.49491 1.26589     1.68151 1.24471 1.68151 C1.24159 1.68151 0.956028 1.48914 0.926233 1.46888 L1.24826     1.16608 zM1.4414 0.988405 L1.44777 0.992629 L1.49236 1.13489 L1.5555     1.35217 L1.30174 1.119 L1.4414 0.988406 zM1.0541 1.00381 L1.0541 0.987921 L1.06469     0.993216 L1.19827 1.11901 L0.94893 1.35402 L1.01376 1.12987 zM1.12746     0.962295 L1.37178 0.961452 L1.24639 1.07079 zM1.21823 0.384342 L1.21823 0.47435     L1.10705 0.47435 C1.0947 0.47435 1.08058 0.488476 1.08058 0.500822 L1.08058     0.516708 C1.08058 0.533822 1.09979 0.54318 1.11764 0.54318 L1.21823 0.54318     L1.21823 0.64907 L1.03822 0.64907 C1.02587 0.64907 1.01174 0.6632 1.01174     0.675543 L1.01174 0.680838 C1.01174 0.705554 1.02409 0.717901 1.04881 0.717901     L1.21823 0.717901 L1.21823 0.892621 L1.04881 0.892621 C1.02937 0.892621     1.02321 0.900826 1.01551 0.909861 L1.00034 0.957554 L0.87843 1.34932 L0.804319     1.58759 L0.725839 1.82446 L0.72443 1.84519 L0.651713 2.06272 L0.648851     2.083 L0.635831 2.13684 C0.660158 2.14334 0.649197 2.15273 0.667599 2.15273     L0.672894 2.15273 C0.693457 2.15273 1.17611 1.81061 1.25 1.77152 C1.31246 1.81334     1.81009 2.15273 1.8377 2.15273 C1.85272 2.15273 1.86417 2.13445 1.86417     2.12096 C1.86417 2.11813 1.8303 2.01983 1.82711 2.01507 L1.82377 1.99494     L1.74736 1.75208 L1.67526 1.51851 L1.55709 1.12558 C1.54307 1.10465 1.52343     1.0325 1.51278 1.00047 C1.49741 0.954256 1.5003 0.892623 1.45119 0.892623 L1.28177     0.892623 L1.28177 0.717903 L1.46178 0.717903 C1.47413 0.717903 1.48826     0.703777 1.48826 0.69143 L1.48826 0.68084 C1.48826 0.664584 1.48335 0.649072     1.46708 0.649072 L1.28177 0.649072 L1.28177 0.543182 L1.38236 0.543182 C1.40021     0.543182 1.41943 0.533824 1.41943 0.51671 L1.41943 0.500824 C1.41943     0.48371 1.40021 0.474351 1.38236 0.474351 L1.28177 0.474351 L1.28177 0.373757     C1.28177 0.358734 1.26349 0.347285 1.25 0.347285 C1.22976 0.347285 1.21823     0.362958 1.21823 0.384344 z" style="fill:rgb(255,255,255)"/></g></svg>