<?xml version="1.0" encoding="UTF-8" standalone="no"?>
<!--
Copyright (C) 2012 United States Government as represented by the Administrator of the
National Aeronautics and Space Administration.
All Rights Reserved.
-->

<!--
MIL-STD-2525 tactical symbol icon image. During icon composition this image is multiplied by the desired frame color 
(e.g. black), then drawn on top of the frame and fill.
-->

<svg
   xmlns:dc="http://purl.org/dc/elements/1.1/"
   xmlns:cc="http://creativecommons.org/ns#"
   xmlns:rdf="http://www.w3.org/1999/02/22-rdf-syntax-ns#"
   xmlns:svg="http://www.w3.org/2000/svg"
   xmlns="http://www.w3.org/2000/svg"
   xmlns:sodipodi="http://sodipodi.sourceforge.net/DTD/sodipodi-0.dtd"
   xmlns:inkscape="http://www.inkscape.org/namespaces/inkscape"
   height="400px"
   viewBox="0 0 400 400"
   width="400px"
   id="svg2"
   version="1.1"
   inkscape:version="0.48.2 r9819"
   sodipodi:docname="eniacf---------.svg">
  <metadata
     id="metadata20">
    <rdf:RDF>
      <cc:Work
         rdf:about="">
        <dc:format>image/svg+xml</dc:format>
        <dc:type
           rdf:resource="http://purl.org/dc/dcmitype/StillImage" />
      </cc:Work>
    </rdf:RDF>
  </metadata>
  <defs
     id="defs18" />
  <sodipodi:namedview
     pagecolor="#ffffff"
     bordercolor="#666666"
     borderopacity="1"
     objecttolerance="10"
     gridtolerance="10"
     guidetolerance="10"
     inkscape:pageopacity="0"
     inkscape:pageshadow="2"
     inkscape:window-width="640"
     inkscape:window-height="480"
     id="namedview16"
     showgrid="false"
     inkscape:zoom="0.59"
     inkscape:cx="200"
     inkscape:cy="200"
     inkscape:window-x="213"
     inkscape:window-y="99"
     inkscape:window-maximized="0"
     inkscape:current-layer="svg2" />
  <path
     inkscape:connector-curvature="0"
     d="m 215.484,200.28 c 7.884,0 17.406,8.347 17.406,15.472 0,1.115 -1.352,0.943 -2.417,0.967 -1.611,-6.913 -3.186,-8.083 -8.128,-11.696 -1.72,-1.258 -4.941,-2.316 -7.809,-2.344 -1.105,-0.011 -3.846,0.288 -4.705,-0.166 -0.984,-0.522 -0.194,-2.233 1.301,-2.233 z m -64.3055,-12.571 c 0,-9.793 10.8528,-19.8235 21.2735,-19.8235 l 3.385,0 c 1.76,0 5.802,0.7657 5.802,2.4173 0,0.2571 -0.697,1.0614 -0.967,1.4508 -1.826,-0.4256 -3.025,-0.9669 -5.319,-0.9669 l -2.417,0 c -10.7843,0 -19.3402,9.3083 -19.3402,19.8233 0,2.839 1.2515,4.861 1.4504,7.253 2.2354,-1.497 5.5094,-2.902 9.1866,-2.902 l 0.4834,0 c 2.2473,0 8.2198,0.309 8.2198,2.418 0,2.765 -5.3131,0.484 -8.2198,0.484 l -1.4503,0 c -3.9339,0 -8.8477,2.878 -11.0106,4.945 -3.2898,3.142 -4.7414,7.645 -6.8788,9.076 l -1.4161,-0.574 c 0.3665,-4.728 8.6685,-12.447 8.6685,-12.48 0,-2.227 -1.4504,-3.923 -1.4504,-7.253 z m 43.9985,-36.2625 c 2.137,-3.1921 9.615,-6.7689 14.988,-6.7689 l 2.902,0 c 15.356,0 25.625,12.728 25.625,28.5264 6.004,3.177 12.088,12.533 12.088,21.757 0,1.115 -1.352,0.944 -2.418,0.967 -1.885,-8.09 -1.511,-10.56 -6.191,-16.532 -2.274,-2.901 -9.993,-7.1589 -15.083,-7.1589 l -5.319,0 c -3.415,0 -4.778,1.4504 -6.768,1.4504 -1.023,0 -0.638,-0.1733 -1.934,-0.4835 0.27,-3.2484 6.172,-3.8681 9.67,-3.8681 l 2.417,0 c 4.585,0 7.194,1.8575 10.637,1.9342 l 0,-1.4508 c 0,-12.1787 -10.556,-22.2409 -23.208,-22.2409 l -2.418,0 c -5.596,0 -9.791,3.3363 -13.537,5.3185 z m 0,-18.8567 c -2.598,-0.6937 -5.75,-4.4232 -11.108,-5.8142 -5.046,-1.3102 -9.813,-0.7799 -14.108,0.9059 -6.5007,2.5524 -13.9475,11.5496 -13.9475,20.3803 l 0,0.967 c 0,4.8433 1.5988,7.6071 2.4173,11.1209 -10.0114,-2.3327 -21.4701,6.0775 -23.2079,13.5378 l -4.835,0 c -11.2744,0 -20.7909,10.0535 -20.7909,21.2735 l 0,1.935 c 0,12.327 11.7157,24.175 24.1752,24.175 l 1.4508,0 c 2.783,0 4.1452,-1.382 7.2523,-1.451 1.0299,1.947 2.2166,4.291 3.5705,6.1 1.4024,1.873 3.8378,3.809 4.6602,5.023 l -0.4944,3.866 c -1.5941,9.967 10.1531,20.747 10.1531,20.79 0,3.264 -2.0874,6.275 -1.4772,11.608 0.4527,3.959 2.0968,7.624 3.8831,10.162 3.2527,4.621 10.1474,10.141 17.9014,10.141 l 0.512,0.193 7.707,-1.16 0,-0.967 c -4.502,-1.202 -8.411,-9.57 -10.16,-14.014 -2.874,-7.3 -0.96,-13.96 -0.96,-21.765 3.891,4.477 6.661,18.244 14.021,18.857 l 0,-2.418 c 0,-5.267 -0.988,-9.504 -2.567,-13.387 -2.031,-4.991 -3.245,-7.455 0.515,-11.39 3.501,-3.663 11.239,-14.434 11.239,-21.155 1.558,1.043 2.418,3.26 2.418,5.801 l 0,0.968 c 0,3.407 -5.802,10.905 -5.802,15.472 l 0,0.967 c 0,2.797 3.095,5.604 4.835,6.769 5.867,-3.105 6.285,-7.103 6.285,-15.956 13.204,15.191 4.352,11.893 4.352,30.944 9.704,-5.135 10.245,-7.766 13.054,-19.823 1.457,1.676 1.934,4.129 1.934,7.252 l 0,4.835 c 0,7.223 -1.821,10.666 -4.022,15.802 -1.163,2.713 -1.765,4.106 -3.07,6.6 -1.68,3.209 -2.89,3.219 -4.512,5.641 9.313,0 14.033,0.272 19.707,-5.435 5.832,-5.865 6.402,-9.022 6.402,-20.19 6.692,-9.993 9.09,-18.57 1.451,-29.977 12.08,0 20.185,-10.116 21.69,-20.858 0.446,-3.176 3.148,-2.641 6.16,-4.478 3.127,-1.906 3.423,-2.316 5.875,-4.762 3.554,-3.545 6.406,-8.002 6.406,-14.868 l 0,-2.901 c 0,-11.7669 -11.565,-22.7248 -23.692,-22.7248 -1.608,-6.902 -7.24,-13.9961 -12.874,-17.1028 -5.014,-2.7653 -7.796,-0.6433 -9.301,-5.6882 -1.14,-3.822 -2.978,-7.4681 -5.501,-9.9705 -5.082,-5.0401 -11.18,-9.4007 -20.971,-7.6669 -6.583,1.1654 -16.129,7.8618 -16.626,13.8358 z"
     style="fill:none;stroke:#000000;stroke-width:6;stroke-miterlimit:4;stroke-opacity:1;stroke-dasharray:12, 6;stroke-dashoffset:0"
     id="path12" />
</svg>
