<?xml version="1.0" encoding="UTF-8" standalone="no"?>
<!--
Copyright (C) 2012 United States Government as represented by the Administrator of the
National Aeronautics and Space Administration.
All Rights Reserved.
-->

<!--
MIL-STD-2525 tactical symbol icon image. During icon composition this image is multiplied by the desired frame color 
(e.g. black), then drawn on top of the frame and fill.
-->

<svg
   xmlns:dc="http://purl.org/dc/elements/1.1/"
   xmlns:cc="http://creativecommons.org/ns#"
   xmlns:rdf="http://www.w3.org/1999/02/22-rdf-syntax-ns#"
   xmlns:svg="http://www.w3.org/2000/svg"
   xmlns="http://www.w3.org/2000/svg"
   xmlns:sodipodi="http://sodipodi.sourceforge.net/DTD/sodipodi-0.dtd"
   xmlns:inkscape="http://www.inkscape.org/namespaces/inkscape"
   height="400px"
   viewBox="0 0 400 400"
   width="400px"
   id="svg2"
   version="1.1"
   inkscape:version="0.48.2 r9819"
   sodipodi:docname="eniach---------.svg">
  <metadata
     id="metadata14">
    <rdf:RDF>
      <cc:Work
         rdf:about="">
        <dc:format>image/svg+xml</dc:format>
        <dc:type
           rdf:resource="http://purl.org/dc/dcmitype/StillImage" />
      </cc:Work>
    </rdf:RDF>
  </metadata>
  <defs
     id="defs12" />
  <sodipodi:namedview
     pagecolor="#ffffff"
     bordercolor="#666666"
     borderopacity="1"
     objecttolerance="10"
     gridtolerance="10"
     guidetolerance="10"
     inkscape:pageopacity="0"
     inkscape:pageshadow="2"
     inkscape:window-width="705"
     inkscape:window-height="480"
     id="namedview10"
     showgrid="false"
     inkscape:zoom="0.59"
     inkscape:cx="200"
     inkscape:cy="200"
     inkscape:window-x="188"
     inkscape:window-y="79"
     inkscape:window-maximized="0"
     inkscape:current-layer="g4" />
  <g
     transform="scale(100) translate(0.7 0.71)"
     id="g4"
     style="stroke:#000000;stroke-opacity:1;stroke-width:0.06;stroke-miterlimit:4;stroke-dasharray:0.12,0.06;stroke-dashoffset:0">
    <path
       d="M1.52444 2.23386 C1.53052 2.22237 1.68753 2.07996 1.70922 2.05849 C1.77533 1.99306     1.84813 1.92841 1.90311 1.85527 C2.00034 1.7259 2.1025 1.48113 2.1025 1.25535     L2.1025 1.08225 C2.1025 1.05662 2.10327 1.0268 2.08214 1.02116 C2.06242     1.10579 2.00022 1.21321 1.95348 1.27434 C1.94162 1.28984 1.7563 1.4924 1.7563     1.42845 C1.7563 1.31044 1.81872 1.21874 1.82759 1.09245 C1.83265 1.02048 1.80863     0.807664 1.79194 0.736053 C1.76971 0.752341 1.76266 0.84123 1.75064 0.878029     C1.73678 0.920435 1.72132 0.967466 1.69737 1.00295 C1.67947 1.02945     1.5442 1.18407 1.52211 1.18407 C1.50375 1.18407 1.48138 1.11075 1.48138 1.08225     C1.48138 0.963733 1.56284 0.838749 1.56284 0.746233 L1.56284 0.730962 C1.56284     0.671816 1.51473 0.640226 1.48821 0.591761 C1.4742 0.566166 1.42094 0.474167     1.39483 0.471312 L1.39483 0.542587 C1.39483 0.598324 1.38129 0.681744     1.36281 0.719307 C1.35268 0.73991 1.28279 0.822602 1.26246 0.822602 C1.23662     0.822602 1.16573 0.724712 1.16573 0.680047 L1.16573 0.5935 C1.16573 0.492177     1.26756 0.377488 1.26756 0.277846 L1.26756 0.272756 C1.26756 0.235917 1.2667     0.173826 1.23191 0.170933 C1.21522 0.371555 0.916264 0.638575 0.916264     0.715685 C0.916264 0.825638 1.013 0.945146 1.013 1.11279 L1.013 1.1688 C1.013     1.18635 1.00923 1.18851 1.00791 1.20444 C0.988311 1.1992 0.974031 1.17075     0.960779 1.15483 C0.944488 1.13526 0.925815 1.12675 0.906012 1.11287 C0.86896     1.0869 0.838823 1.05651 0.810728 1.01977 C0.763787 0.958389 0.707527 0.85185     0.707527 0.746232 C0.662708 0.7582 0.62607 0.904114 0.62607 0.965153 L0.62607     1.0517 C0.62607 1.25898 0.773712 1.42897 0.773712 1.50481 C0.694709 1.46301     0.622732 1.40694 0.56111 1.34576 C0.530906 1.31578 0.42346 1.13242 0.407149     1.12807 C0.407149 1.27013 0.448598 1.38679 0.472106 1.50604 C0.483449 1.56358     0.50096 1.63438 0.518433 1.68373 C0.542744 1.75237 0.56513 1.76561 0.603602     1.81747 C0.677409 1.91698 0.725071 1.96785 0.810614 2.05339 C0.848327     2.0911 0.882583 2.12492 0.920075 2.16285 L1.03831 2.2487 L1.18609 2.3194 L1.18609     1.99357 L0.860263 1.99357 L1.10664 1.70511 L0.921354 1.70337 L1.16736     1.42481 L1.00282 1.42335 L1.27499 0.992084 L1.27811 0.987104 L1.55771 1.42338     L1.40502 1.42335 L1.63985 1.69771 L1.45083 1.69828 L1.70296 1.99127 L1.37447     1.99356 L1.37447 2.3194 z"
       style="fill:rgb(255, 255, 255);stroke:#000000;stroke-opacity:1;stroke-width:0.06;stroke-miterlimit:4;stroke-dasharray:0.12,0.06;stroke-dashoffset:0"
       id="path8" />
  </g>
</svg>
