<?xml version="1.0" encoding="UTF-8" standalone="no"?>
<!--
Copyright (C) 2012 United States Government as represented by the Administrator of the
National Aeronautics and Space Administration.
All Rights Reserved.
-->

<!--
MIL-STD-2525 tactical symbol icon image. During icon composition this image is multiplied by the desired frame color 
(e.g. black), then drawn on top of the frame and fill.
-->

<svg
   xmlns:dc="http://purl.org/dc/elements/1.1/"
   xmlns:cc="http://creativecommons.org/ns#"
   xmlns:rdf="http://www.w3.org/1999/02/22-rdf-syntax-ns#"
   xmlns:svg="http://www.w3.org/2000/svg"
   xmlns="http://www.w3.org/2000/svg"
   xmlns:sodipodi="http://sodipodi.sourceforge.net/DTD/sodipodi-0.dtd"
   xmlns:inkscape="http://www.inkscape.org/namespaces/inkscape"
   height="400px"
   viewBox="0 0 400 400"
   width="400px"
   id="svg2"
   version="1.1"
   inkscape:version="0.48.2 r9819"
   sodipodi:docname="eniad----------.svg">
  <metadata
     id="metadata26">
    <rdf:RDF>
      <cc:Work
         rdf:about="">
        <dc:format>image/svg+xml</dc:format>
        <dc:type
           rdf:resource="http://purl.org/dc/dcmitype/StillImage" />
      </cc:Work>
    </rdf:RDF>
  </metadata>
  <defs
     id="defs24" />
  <sodipodi:namedview
     pagecolor="#ffffff"
     bordercolor="#666666"
     borderopacity="1"
     objecttolerance="10"
     gridtolerance="10"
     guidetolerance="10"
     inkscape:pageopacity="0"
     inkscape:pageshadow="2"
     inkscape:window-width="640"
     inkscape:window-height="480"
     id="namedview22"
     showgrid="false"
     inkscape:zoom="0.59"
     inkscape:cx="200"
     inkscape:cy="200"
     inkscape:window-x="160"
     inkscape:window-y="54"
     inkscape:window-maximized="0"
     inkscape:current-layer="svg2" />
  <path
     inkscape:connector-curvature="0"
     d="m 102.3465,202.074 196.2225,-0.093 -98.157,98.158 z M 269.596,170.0358 c 1.549,1.0378 15.229,14.7132 15.229,15.6012 l 0,14.858 -15.229,0 z m -30.831,-30.8307 c 1.549,1.0374 15.229,14.7134 15.229,15.6012 l 0,45.6887 -15.229,0 z m -61.291,-14.8583 c 0,-0.8882 13.68,-14.5638 15.23,-15.6016 l 0,91.7498 -15.23,0 z m -30.4595,30.4594 c 0,-0.8878 13.6807,-14.5638 15.2299,-15.6012 l 0,61.29 -15.2299,0 z m -15.6906,15.1402 0.0894,30.5486 -14.8583,0 0,-14.486 c 0,-0.718 -0.117,-0.662 -0.2823,-1.025 z m 76.9811,-61.2012 15.512,15.3197 c -0.396,0.8894 -0.282,-0.3957 -0.282,1.0244 l 0,75.4057 -15.23,0 z M 92.318,200.403 200.598,308.683 308.692,200.403 200.412,92.3087 z"
     style="fill:#000000;stroke:#000000;stroke-width:6;stroke-miterlimit:4;stroke-opacity:1;stroke-dasharray:12, 6;stroke-dashoffset:0"
     id="path20" />
</svg>
