<?xml version="1.0"?>
<!--
Copyright (C) 2012 United States Government as represented by the Administrator of the
National Aeronautics and Space Administration.
All Rights Reserved.
-->

<!DOCTYPE svg PUBLIC "-//W3C//DTD SVG 1.1//EN" "http://www.w3.org/Graphics/SVG/1.1/DTD/svg11.dtd" >
<!--
MIL-STD-2525 tactical symbol icon image. During icon composition this image is multiplied by the desired frame color 
(e.g. black), then drawn on top of the frame and fill.
-->
<svg xmlns:xlink="http://www.w3.org/1999/xlink" height="400px" viewBox="0 0 400 400" width="400px"><g transform="scale(100) translate(0.68 0.76)"><path d="M1.27177 0.754461 L1.28628 0.768965 C1.32374 0.749142 1.36569 0.71578 1.42166 0.71578     L1.44583 0.71578 C1.57235 0.71578 1.67791 0.816402 1.67791 0.938189 L1.67791     0.952697 C1.64348 0.951929 1.6174 0.933354 1.57154 0.933354 L1.54737 0.933354     C1.51239 0.933354 1.45337 0.939551 1.45067 0.972035 C1.46363 0.975138     1.45978 0.97687 1.47001 0.97687 C1.48992 0.97687 1.50354 0.962366 1.5377 0.962366     L1.59088 0.962366 C1.64178 0.962366 1.71898 1.00494 1.74171 1.03395     C1.78851 1.09367 1.78477 1.11838 1.80362 1.19928 C1.81428 1.19904 1.8278 1.20076     1.8278 1.18961 C1.8278 1.09736 1.76696 1.0038 1.70692 0.972035 C1.70692     0.814051 1.60423 0.686771 1.45067 0.686771 L1.42166 0.686771 C1.36792 0.686771     1.29314 0.722539 1.27177 0.754461 z" style="fill:rgb(255,255,255)"/><path d="M0.831787 1.11709 L0.831787 1.15577 C0.831787 1.18907 0.846291 1.20603 0.846291 1.22829     C0.846291 1.22863 0.763271 1.30582 0.759606 1.3531 L0.773767 1.35884     C0.795141 1.34453 0.809657 1.2995 0.842555 1.26807 C0.864185 1.24741 0.913322     1.21863 0.952661 1.21863 L0.967165 1.21863 C0.996232 1.21863 1.04936 1.24144     1.04936 1.21379 C1.04936 1.1927 0.989637 1.18961 0.967165 1.18961 L0.96233     1.18961 C0.925558 1.18961 0.892818 1.20366 0.870464 1.21863 C0.868476 1.19471     0.85596 1.17449 0.85596 1.1461 C0.85596 1.04094 0.941519 0.947866 1.04936     0.947866 L1.07354 0.947866 C1.09648 0.947866 1.10846 0.953279 1.12672 0.957535     C1.12942 0.953641 1.13639 0.945598 1.13639 0.943027 C1.13639 0.926511 1.09597     0.918854 1.07837 0.918854 L1.04453 0.918854 C0.940314 0.918854 0.831787     1.01916 0.831787 1.11709 z" style="fill:rgb(255,255,255)"/><path d="M1.62473 1.40719 C1.63539 1.40695 1.64891 1.40867 1.64891 1.39752 C1.64891 1.32626     1.55369 1.2428 1.47484 1.2428 L1.43133 1.2428 C1.41638 1.2428 1.40847 1.25991     1.41831 1.26512 C1.42691 1.26967 1.45432 1.26668 1.46536 1.26679 C1.49405     1.26707 1.52625 1.27765 1.54345 1.29023 C1.59288 1.32636 1.60862 1.33806 1.62473     1.40719 z" style="fill:rgb(255,255,255)"/><path d="M1.47484 1.2428 C1.55368 1.2428 1.6489 1.32627 1.6489 1.39752 C1.6489 1.40867 1.63538     1.40695 1.62473 1.40719 C1.60862 1.33806 1.59287 1.32636 1.54345 1.29023     C1.52625 1.27765 1.49404 1.26707 1.46536 1.26679 C1.45431 1.26668 1.4269 1.26967     1.41831 1.26513 C1.40847 1.25991 1.41637 1.2428 1.43132 1.2428 zM0.831785     1.11709 C0.831785 1.01916 0.940313 0.918855 1.04452 0.918855 L1.07837 0.918855     C1.09597 0.918855 1.13639 0.926512 1.13639 0.943028 C1.13639 0.945599     1.12942 0.953642 1.12672 0.957536 C1.10846 0.95328 1.09647 0.947867 1.07353     0.947867 L1.04936 0.947867 C0.941517 0.947867 0.855958 1.04095 0.855958 1.1461     C0.855958 1.17449 0.868473 1.19471 0.870462 1.21863 C0.892816 1.20366 0.925556     1.18961 0.962328 1.18961 L0.967162 1.18961 C0.989635 1.18961 1.04936     1.1927 1.04936 1.21379 C1.04936 1.24144 0.996229 1.21863 0.967162 1.21863 L0.952659     1.21863 C0.91332 1.21863 0.864182 1.24741 0.842553 1.26808 C0.809655     1.2995 0.795139 1.34453 0.773765 1.35884 L0.759604 1.3531 C0.763269 1.30582     0.846289 1.22863 0.846289 1.2283 C0.846289 1.20603 0.831785 1.18907 0.831785     1.15577 zM1.27177 0.754465 C1.29314 0.722544 1.36792 0.686776 1.42165 0.686776     L1.45067 0.686776 C1.60423 0.686776 1.70692 0.814056 1.70692 0.97204 C1.76696     1.00381 1.8278 1.09737 1.8278 1.18961 C1.8278 1.20076 1.81428 1.19905     1.80362 1.19928 C1.78477 1.11838 1.78851 1.09368 1.74171 1.03396 C1.71897     1.00495 1.64178 0.962371 1.59088 0.962371 L1.53769 0.962371 C1.50354 0.962371     1.48991 0.976875 1.47001 0.976875 C1.45978 0.976875 1.46363 0.975142 1.45067     0.97204 C1.45337 0.939556 1.51239 0.933359 1.54737 0.933359 L1.57154 0.933359     C1.61739 0.933359 1.64348 0.951934 1.67791 0.952701 L1.67791 0.938193 C1.67791     0.816406 1.57235 0.715784 1.44583 0.715784 L1.42165 0.715784 C1.36569     0.715784 1.32374 0.749147 1.28628 0.768969 zM1.27177 0.565898 C1.24579 0.558961     1.21427 0.521666 1.16069 0.507756 C1.11023 0.494654 1.06256 0.499957 1.01961     0.516815 C0.954603 0.542339 0.880135 0.632311 0.880135 0.720618 L0.880135     0.730288 C0.880135 0.778721 0.896123 0.806359 0.904308 0.841497 C0.804194     0.81817 0.689607 0.902272 0.672229 0.976875 L0.623879 0.976875 C0.511135     0.976875 0.41597 1.07741 0.41597 1.18961 L0.41597 1.20896 C0.41597 1.33223 0.533127     1.45071 0.657722 1.45071 L0.67223 1.45071 C0.70006 1.45071 0.713682     1.43689 0.744753 1.4362 C0.755052 1.45567 0.766919 1.47911 0.780458 1.4972 C0.794482     1.51593 0.818836 1.53529 0.82706 1.54743 L0.822116 1.58609 C0.806175     1.68576 0.923647 1.79356 0.923647 1.79399 C0.923647 1.82663 0.902773 1.85674     0.908875 1.91007 C0.913402 1.94966 0.929843 1.98631 0.947706 2.01169 C0.980233     2.0579 1.04918 2.1131 1.12672 2.1131 L1.13184 2.11503 L1.20891 2.10343     L1.20891 2.09376 C1.16389 2.08174 1.1248 1.99806 1.10731 1.95362 C1.07857 1.88062     1.09771 1.81402 1.09771 1.73597 C1.13662 1.78074 1.16432 1.91841 1.23792     1.92454 L1.23792 1.90036 C1.23792 1.84769 1.22804 1.80532 1.21225 1.76649     C1.19194 1.71658 1.1798 1.69194 1.2174 1.65259 C1.25241 1.61596 1.32979 1.50825     1.32979 1.44104 C1.34537 1.45147 1.35397 1.47364 1.35397 1.49905 L1.35397     1.50873 C1.35397 1.5428 1.29595 1.61778 1.29595 1.66345 L1.29595 1.67312     C1.29595 1.70109 1.3269 1.72916 1.3443 1.74081 C1.40297 1.70976 1.40715 1.66978     1.40715 1.58125 C1.53919 1.73316 1.45067 1.70018 1.45067 1.89069 C1.54771     1.83934 1.55312 1.81303 1.58121 1.69246 C1.59578 1.70922 1.60055 1.73375     1.60055 1.76498 L1.60055 1.81333 C1.60055 1.88556 1.58234 1.91999 1.56033 1.97135     C1.5487 1.99848 1.54268 2.01241 1.52963 2.03735 C1.51283 2.06944 1.50073     2.06954 1.48451 2.09376 C1.57764 2.09376 1.62484 2.09648 1.68158 2.03941     C1.7399 1.98076 1.7456 1.94919 1.7456 1.83751 C1.81252 1.73758 1.8365 1.65181     1.76011 1.53774 C1.88091 1.53774 1.96196 1.43658 1.97701 1.32916 C1.98147     1.2974 2.00849 1.30275 2.03861 1.28438 C2.06988 1.26532 2.07284 1.26122 2.09736     1.23676 C2.1329 1.20131 2.16142 1.15674 2.16142 1.08808 L2.16142 1.05907     C2.16142 0.941401 2.04577 0.831822 1.9245 0.831822 C1.90842 0.762802 1.8521     0.691861 1.79576 0.660794 C1.74562 0.633141 1.7178 0.654361 1.70275 0.603912     C1.69135 0.565692 1.67297 0.529231 1.64774 0.504207 C1.59692 0.453806 1.53594     0.4102 1.43803 0.427538 C1.3722 0.439192 1.27674 0.506156 1.27177 0.565896     z" style="fill:none"/><path d="M1.27177 0.565894 C1.27674 0.506154 1.3722 0.439189 1.43803 0.427536 C1.53594 0.410197     1.59692 0.453804 1.64774 0.504205 C1.67297 0.529229 1.69135 0.56569 1.70275     0.60391 C1.7178 0.654359 1.74562 0.633138 1.79576 0.660792 C1.8521 0.691859     1.90842 0.7628 1.9245 0.83182 C2.04577 0.83182 2.16142 0.941399 2.16142     1.05907 L2.16142 1.08808 C2.16142 1.15674 2.1329 1.20131 2.09736 1.23676 C2.07284     1.26121 2.06988 1.26532 2.03861 1.28438 C2.00849 1.30275 1.98147 1.2974     1.97701 1.32916 C1.96196 1.43658 1.88091 1.53773 1.76011 1.53773 C1.8365     1.65181 1.81252 1.73758 1.7456 1.83751 C1.7456 1.94919 1.7399 1.98075 1.68158     2.03941 C1.62484 2.09648 1.57764 2.09376 1.48451 2.09376 C1.50073 2.06954     1.51283 2.06944 1.52963 2.03734 C1.54268 2.01241 1.5487 1.99848 1.56033 1.97134     C1.58234 1.91999 1.60055 1.88556 1.60055 1.81333 L1.60055 1.76498 C1.60055     1.73375 1.59578 1.70921 1.58121 1.69245 C1.55312 1.81303 1.54771 1.83934     1.45067 1.89069 C1.45067 1.70017 1.53919 1.73316 1.40715 1.58125 C1.40715 1.66978     1.40297 1.70976 1.3443 1.7408 C1.3269 1.72915 1.29595 1.70109 1.29595     1.67312 L1.29595 1.66345 C1.29595 1.61778 1.35397 1.54279 1.35397 1.50873 L1.35397     1.49905 C1.35397 1.47364 1.34537 1.45147 1.32979 1.44103 C1.32979 1.50825     1.25241 1.61596 1.2174 1.65259 C1.1798 1.69193 1.19194 1.71658 1.21225     1.76649 C1.22805 1.80532 1.23792 1.84768 1.23792 1.90036 L1.23792 1.92454 C1.16432     1.91841 1.13662 1.78073 1.09771 1.73597 C1.09771 1.81402 1.07857 1.88062     1.10731 1.95362 C1.1248 1.99806 1.16389 2.08174 1.20891 2.09376 L1.20891     2.10343 L1.13184 2.11503 L1.12672 2.1131 C1.04918 2.1131 0.980234 2.0579 0.947706     2.01169 C0.929843 1.98631 0.913403 1.94966 0.908875 1.91007 C0.902773     1.85674 0.923647 1.82663 0.923647 1.79399 C0.923647 1.79355 0.806175 1.68576     0.822116 1.58608 L0.827061 1.54742 C0.818836 1.53529 0.794482 1.51593 0.780458     1.4972 C0.766919 1.47911 0.755053 1.45566 0.744753 1.4362 C0.713683 1.43689     0.700061 1.45071 0.67223 1.45071 L0.657722 1.45071 C0.533128 1.45071 0.41597     1.33223 0.41597 1.20896 L0.41597 1.18961 C0.41597 1.07741 0.511135 0.976873     0.623879 0.976873 L0.672229 0.976873 C0.689607 0.90227 0.804194 0.818168     0.904308 0.841495 C0.896123 0.806357 0.880135 0.778719 0.880135 0.730286     L0.880135 0.720616 C0.880135 0.632309 0.954604 0.542336 1.01962 0.516813 C1.06256     0.499955 1.11023 0.494652 1.16069 0.507754 C1.21427 0.521664 1.24579     0.558959 1.27177 0.565896 zM1.2621 0.522378 C1.23227 0.519898 1.19642 0.474028     1.12672 0.474028 L1.0832 0.474028 C0.96764 0.474028 0.839262 0.608654 0.854278     0.735343 L0.865628 0.812481 L0.851125 0.812481 C0.752455 0.812481 0.687617     0.887063 0.652889 0.952698 C0.599144 0.92691 0.496397 0.980765 0.470322     1.00705 C0.433262 1.0444 0.386963 1.10385 0.386963 1.17511 L0.386963 1.20895     C0.386963 1.29281 0.441991 1.37694 0.491388 1.41397 C0.531585 1.4441 0.538408     1.45001 0.591797 1.46828 C0.652553 1.48907 0.67714 1.47004 0.727262 1.47249     L0.797939 1.55708 C0.783589 1.58698 0.808302 1.66981 0.818747 1.69582 C0.829979     1.72379 0.835191 1.72875 0.850144 1.75146 C0.856113 1.76052 0.889806     1.79797 0.889806 1.79882 C0.889806 1.82475 0.880136 1.83214 0.880136 1.86168     L0.880136 1.86652 C0.880136 2.01142 0.989506 2.14211 1.12672 2.14211 C1.1756     2.14211 1.20995 2.13368 1.24276 2.11794 C1.30316 2.1499 1.40692 2.18565 1.45505     2.11578 L1.53286 2.12761 C1.59484 2.13798 1.68979 2.07678 1.71468 2.0435     C1.73877 2.01127 1.8004 1.90615 1.76978 1.84234 C1.79516 1.82535 1.82909     1.75665 1.83254 1.71654 C1.83596 1.67665 1.83796 1.6734 1.83077 1.63146 C1.82523     1.59906 1.81045 1.58098 1.80846 1.55708 C1.90116 1.54936 2.00186 1.43751     2.00186 1.33466 C2.0587 1.2966 2.07885 1.30801 2.13118 1.2464 C2.16024 1.21218     2.19042 1.14462 2.19042 1.08324 C2.19042 0.937648 2.08268 0.807648 1.94384     0.807648 C1.9229 0.717751 1.83263 0.617861 1.7311 0.609412 C1.72266 0.507991     1.59986 0.391833 1.48451 0.391833 C1.38909 0.391833 1.28017 0.454688 1.2621     0.52238 z" style="fill:rgb(255,255,255)"/></g></svg>