<?xml version="1.0"?>
<!--
Copyright 2006-2009, 2017, 2020 United States Government, as represented by the
Administrator of the National Aeronautics and Space Administration.
All rights reserved.

The NASA World Wind Java (WWJ) platform is licensed under the Apache License,
Version 2.0 (the "License"); you may not use this file except in compliance
with the License. You may obtain a copy of the License at
http://www.apache.org/licenses/LICENSE-2.0

Unless required by applicable law or agreed to in writing, software distributed
under the License is distributed on an "AS IS" BASIS, WITHOUT WARRANTIES OR
CONDITIONS OF ANY KIND, either express or implied. See the License for the
specific language governing permissions and limitations under the License.

NASA World Wind Java (WWJ) also contains the following 3rd party Open Source
software:

    Jackson Parser – Licensed under Apache 2.0
    GDAL – Licensed under MIT
    JOGL – Licensed under  Berkeley Software Distribution (BSD)
    Gluegen – Licensed under Berkeley Software Distribution (BSD)

A complete listing of 3rd Party software notices and licenses included in
NASA World Wind Java (WWJ)  can be found in the WorldWindJava-v2.2 3rd-party
notices and licenses PDF found in code directory.
-->

<!DOCTYPE svg PUBLIC "-//W3C//DTD SVG 1.1//EN" "http://www.w3.org/Graphics/SVG/1.1/DTD/svg11.dtd" >
<!--
MIL-STD-2525 tactical symbol icon image. During icon composition this image is multiplied by the desired frame color 
(e.g. black), then drawn on top of the frame and fill.
-->
<svg xmlns:xlink="http://www.w3.org/1999/xlink" height="400px" viewBox="0 0 400 400" width="400px"><g transform="scale(100) translate(0.74 0.77)"><path d="M1.07278 1.03405 L1.49261 1.03405 L1.49261 1.26657 C1.42874 1.26657 1.30946 1.306     1.26737 1.2919 C1.20893 1.27233 1.13267 1.24177 1.07278 1.22782 zM0.323544     1.03405 L0.975898 1.03405 L0.975898 1.27303 C0.975898 1.29539 1.07774 1.32318     1.09945 1.33033 C1.14686 1.34597 1.18847 1.36417 1.23665 1.38046 C1.28689     1.39744 1.32082 1.39004 1.38539 1.37895 C1.4248 1.37218 1.52742 1.36818 1.55074     1.35699 C1.56625 1.42357 1.667 1.70605 1.667 1.73807 C1.667 1.7784 1.63568     1.83669 1.63471 1.88017 L2.17264 1.87959 L1.96898 1.23269 L2.16434 1.04051     C2.14488 0.999954 2.06161 0.704644 2.03516 0.704644 L0.323542 0.704644 L0.323542     1.03405 z" style="fill:rgb(255,255,255)"/></g></svg>