<?xml version="1.0" encoding="UTF-8" standalone="no"?>
<!--
Copyright (C) 2012 United States Government as represented by the Administrator of the
National Aeronautics and Space Administration.
All Rights Reserved.
-->

<!--
MIL-STD-2525 tactical symbol icon image. During icon composition this image is multiplied by the desired frame color 
(e.g. black), then drawn on top of the frame and fill.
-->

<svg
   xmlns:dc="http://purl.org/dc/elements/1.1/"
   xmlns:cc="http://creativecommons.org/ns#"
   xmlns:rdf="http://www.w3.org/1999/02/22-rdf-syntax-ns#"
   xmlns:svg="http://www.w3.org/2000/svg"
   xmlns="http://www.w3.org/2000/svg"
   xmlns:sodipodi="http://sodipodi.sourceforge.net/DTD/sodipodi-0.dtd"
   xmlns:inkscape="http://www.inkscape.org/namespaces/inkscape"
   height="400px"
   viewBox="0 0 400 400"
   width="400px"
   id="svg2"
   version="1.1"
   inkscape:version="0.48.2 r9819"
   sodipodi:docname="enoacc---------.svg">
  <metadata
     id="metadata32">
    <rdf:RDF>
      <cc:Work
         rdf:about="">
        <dc:format>image/svg+xml</dc:format>
        <dc:type
           rdf:resource="http://purl.org/dc/dcmitype/StillImage" />
      </cc:Work>
    </rdf:RDF>
  </metadata>
  <defs
     id="defs30" />
  <sodipodi:namedview
     pagecolor="#ffffff"
     bordercolor="#666666"
     borderopacity="1"
     objecttolerance="10"
     gridtolerance="10"
     guidetolerance="10"
     inkscape:pageopacity="0"
     inkscape:pageshadow="2"
     inkscape:window-width="705"
     inkscape:window-height="480"
     id="namedview28"
     showgrid="false"
     inkscape:zoom="0.59"
     inkscape:cx="215.25031"
     inkscape:cy="200"
     inkscape:window-x="192"
     inkscape:window-y="105"
     inkscape:window-maximized="0"
     inkscape:current-layer="svg2" />
  <g
     transform="scale(140) translate(0.185714 0.185714)"
     id="g4">
    <path
       d="M1.21083 0.670409 L1.17467 0.670409 L1.17467 0.70657 L1.1602 0.70657 C1.06713 0.70657     0.983035 0.79659 0.975594 0.880428 L1.13841 0.871188 L1.13489 0.872913     L1.31211 0.872023 L1.4965 0.876527 C1.49304 0.834928 1.45506 0.781393 1.43059     0.758019 C1.3926 0.721731 1.35544 0.716424 1.29761 0.702956 L1.29761 0.670409     L1.26146 0.670409 L1.26146 0.601704 L1.21083 0.601704 z"
       style="fill:rgb(255, 255, 255);stroke-width:0.04285714;stroke-miterlimit:4;stroke-dasharray:0.08571429,0.04285714;stroke:#000000;stroke-opacity:1;stroke-dashoffset:0"
       id="path6" />
    <path
       d="M1.22891 0.97778 L1.25785 0.976867 L1.53989 0.981394 C1.56482 0.964709 1.56063 0.969918     1.55798 0.938 C1.47794 0.919355 1.14953 0.909622 1.05611 0.924304 C1.02061     0.929886 0.970673 0.925689 0.932603 0.930981 C0.902677 0.935138 0.886772     0.981559 0.964933 0.981394 C1.05585 0.981205 1.13646 0.97778 1.22891 0.97778     z"
       style="fill:rgb(255, 255, 255);stroke-width:0.04285714;stroke-miterlimit:4;stroke-dasharray:0.08571429,0.04285714;stroke:#000000;stroke-opacity:1;stroke-dashoffset:0"
       id="path8" />
    <path
       d="M1.19637 1.30323 C1.20276 1.31277 1.21079 1.33577 1.22168 1.33577 L1.247 1.33577     C1.25624 1.33577 1.27231 1.30786 1.27231 1.30684 C1.27231 1.29417 1.25864 1.27068     1.247 1.27068 L1.22168 1.27068 C1.21079 1.27068 1.20276 1.29369 1.19637     1.30323 z"
       style="fill:rgb(255, 255, 255);stroke-width:0.04285714;stroke-miterlimit:4;stroke-dasharray:0.08571429,0.04285714;stroke:#000000;stroke-opacity:1;stroke-dashoffset:0"
       id="path10" />
    <path
       d="M1.19637 1.30323 C1.20276 1.29369 1.21079 1.27068 1.22168 1.27068 L1.247 1.27068     C1.25864 1.27068 1.27231 1.29417 1.27231 1.30684 C1.27231 1.30786 1.25624 1.33577     1.247 1.33577 L1.22168 1.33577 C1.21079 1.33577 1.20276 1.31277 1.19637     1.30323 zM1.14574 1.30323 L1.18552 1.37917 L1.27592 1.37917 C1.28845 1.37917     1.31849 1.31527 1.32662 1.30319 L1.28316 1.22367 L1.19637 1.22367 C1.18247     1.22367 1.15304 1.28944 1.14574 1.30323 z"
       style="fill:rgb(0, 0, 0);stroke-width:0.04285714;stroke-miterlimit:4;stroke-dasharray:0.08571429,0.04285714;stroke:#000000;stroke-opacity:1;stroke-dashoffset:0"
       id="path12" />
    <polygon
       points="0.762437,1.24537 0.700965,1.24537 0.700965,1.31407 0.762437,1.31407 0.762437,1.43341     0.813063,1.43341 0.813063,1.12604 0.762437,1.12604"
       style="fill:rgb(255, 255, 255);stroke-width:0.04285714;stroke-miterlimit:4;stroke-dasharray:0.08571429,0.04285714;stroke:#000000;stroke-opacity:1;stroke-dashoffset:0"
       id="polygon14" />
    <polygon
       points="1.65561,1.43341 1.70985,1.43341 1.70985,1.31407 1.76771,1.31407 1.76771,1.24537 1.70985,1.24537     1.70985,1.12604 1.65561,1.12604"
       style="fill:rgb(255, 255, 255);stroke-width:0.04285714;stroke-miterlimit:4;stroke-dasharray:0.08571429,0.04285714;stroke:#000000;stroke-opacity:1;stroke-dashoffset:0"
       id="polygon16" />
    <path
       d="M1.14574 1.30323 C1.15304 1.28944 1.18247 1.22367 1.19637 1.22367 L1.28315 1.22367     L1.32662 1.30319 C1.31848 1.31527 1.28844 1.37917 1.27592 1.37917 L1.18552     1.37917 zM1.21444 1.46595 L1.25784 1.46595 C1.3298 1.46595 1.40197 1.37909     1.40197 1.30323 C1.40197 1.22493 1.32925 1.14051 1.25422 1.14051 L1.21806 1.14051     C1.14433 1.14051 1.07237 1.22225 1.06964 1.29972 C1.0669 1.37737 1.14388     1.46595 1.21444 1.46595 z"
       style="fill:rgb(255, 255, 255);stroke-width:0.04285714;stroke-miterlimit:4;stroke-dasharray:0.08571429,0.04285714;stroke:#000000;stroke-opacity:1;stroke-dashoffset:0"
       id="path18" />
    <path
       d="M1.21445 1.46595 C1.14388 1.46595 1.06691 1.37736 1.06964 1.29972 C1.07237 1.22225     1.14434 1.1405 1.21807 1.1405 L1.25423 1.1405 C1.32925 1.1405 1.40198 1.22492     1.40198 1.30323 C1.40198 1.37908 1.32981 1.46595 1.25784 1.46595 zM1.02642     1.28876 L1.02642 1.3213 C1.02642 1.41359 1.12271 1.51296 1.21445 1.51296     L1.25784 1.51296 C1.35761 1.51296 1.4495 1.40874 1.4495 1.30323 C1.4495 1.19588     1.35579 1.09349 1.25423 1.09349 L1.21807 1.09349 C1.12157 1.09349 1.02641     1.19122 1.02641 1.28876 z"
       style="fill:rgb(0, 0, 0);stroke-width:0.04285714;stroke-miterlimit:4;stroke-dasharray:0.08571429,0.04285714;stroke:#000000;stroke-opacity:1;stroke-dashoffset:0"
       id="path20" />
    <path
       d="M1.02641 1.28876 C1.02641 1.19122 1.12156 1.09349 1.21806 1.09349 L1.25422 1.09349     C1.35578 1.09349 1.44949 1.19588 1.44949 1.30322 C1.44949 1.40874 1.35761     1.51296 1.25784 1.51296 L1.21445 1.51296 C1.1227 1.51296 1.02641 1.41359 1.02641     1.3213 zM0.975768 1.02796 L0.975784 1.17666 L0.863686 1.17666 L0.863686     1.39001 L0.975784 1.39001 L0.974804 1.69805 L0.892615 1.72631 C0.911426 1.75198     1.11516 1.78417 1.17828 1.78417 L1.294 1.78417 C1.35826 1.78417 1.55612     1.75352 1.57651 1.72493 L1.4965 1.70099 L1.4965 1.39001 L1.6086 1.39001 L1.6086     1.17666 L1.4965 1.17666 L1.49652 1.02796 L1.27592 1.02117 L1.19631 1.01973     L0.975769 1.02796 z"
       style="fill:rgb(255, 255, 255);stroke-width:0.04285714;stroke-miterlimit:4;stroke-dasharray:0.08571429,0.04285714;stroke:#000000;stroke-opacity:1;stroke-dashoffset:0"
       id="path22" />
    <path
       d="M1.17829 1.83479 C1.11914 1.83479 1.06557 1.82632 1.01582 1.81646 C0.980605 1.80948     0.90129 1.77886 0.878157 1.77694 L0.878157 1.79501 C0.878157 1.84581 1.10527     1.87457 1.17829 1.87457 L1.29401 1.87457 C1.36728 1.87457 1.59053 1.84632     1.59053 1.79501 L1.59053 1.77694 C1.56851 1.77877 1.48921 1.80923 1.45287     1.81646 C1.40308 1.82637 1.35369 1.83479 1.29401 1.83479 z"
       style="fill:rgb(255, 255, 255);stroke-width:0.04285714;stroke-miterlimit:4;stroke-dasharray:0.08571429,0.04285714;stroke:#000000;stroke-opacity:1;stroke-dashoffset:0"
       id="path26" />
  </g>
</svg>
