<?xml version="1.0" encoding="UTF-8" standalone="no"?>
<!--
Copyright (C) 2012 United States Government as represented by the Administrator of the
National Aeronautics and Space Administration.
All Rights Reserved.
-->

<!--
MIL-STD-2525 tactical symbol icon image. During icon composition this image is multiplied by the desired frame color 
(e.g. black), then drawn on top of the frame and fill.
-->

<svg
   xmlns:dc="http://purl.org/dc/elements/1.1/"
   xmlns:cc="http://creativecommons.org/ns#"
   xmlns:rdf="http://www.w3.org/1999/02/22-rdf-syntax-ns#"
   xmlns:svg="http://www.w3.org/2000/svg"
   xmlns="http://www.w3.org/2000/svg"
   xmlns:sodipodi="http://sodipodi.sourceforge.net/DTD/sodipodi-0.dtd"
   xmlns:inkscape="http://www.inkscape.org/namespaces/inkscape"
   height="400px"
   viewBox="0 0 400 400"
   width="400px"
   id="svg2"
   version="1.1"
   inkscape:version="0.48.2 r9819"
   sodipodi:docname="enoadfb--------.svg">
  <metadata
     id="metadata34">
    <rdf:RDF>
      <cc:Work
         rdf:about="">
        <dc:format>image/svg+xml</dc:format>
        <dc:type
           rdf:resource="http://purl.org/dc/dcmitype/StillImage" />
      </cc:Work>
    </rdf:RDF>
  </metadata>
  <defs
     id="defs32" />
  <sodipodi:namedview
     pagecolor="#ffffff"
     bordercolor="#666666"
     borderopacity="1"
     objecttolerance="10"
     gridtolerance="10"
     guidetolerance="10"
     inkscape:pageopacity="0"
     inkscape:pageshadow="2"
     inkscape:window-width="640"
     inkscape:window-height="480"
     id="namedview30"
     showgrid="false"
     inkscape:zoom="0.59"
     inkscape:cx="200"
     inkscape:cy="200"
     inkscape:window-x="0"
     inkscape:window-y="0"
     inkscape:window-maximized="0"
     inkscape:current-layer="svg2" />
  <g
     transform="matrix(100,0,0,100,66,74)"
     id="g4"
     style="stroke:#000000;stroke-width:0.06;stroke-miterlimit:4;stroke-opacity:1;stroke-dasharray:0.12, 0.06;stroke-dashoffset:0">
    <path
       inkscape:connector-curvature="0"
       d="m 1.62516,0.507937 0.27422,0 0,-0.07761 -0.32596,0 c 0.00792,0.014968 0.03532,0.07761 0.05174,0.07761 z"
       style="fill:#000000;stroke:#000000;stroke-width:0.06;stroke-miterlimit:4;stroke-opacity:1;stroke-dasharray:0.12, 0.06;stroke-dashoffset:0"
       id="path6" />
    <path
       inkscape:connector-curvature="0"
       d="m 1.57859,0.59072 0.03622,0 0,0.01552 c 0,0.073941 0.0683,0.129346 0.14486,0.129346 0.09501,0 0.1397,-0.080851 0.1397,-0.181083 l -0.27939,0 c -0.01467,0 -0.03473,0.026275 -0.04139,0.036217 z"
       style="fill:#000000;stroke:#000000;stroke-width:0.06;stroke-miterlimit:4;stroke-opacity:1;stroke-dasharray:0.12, 0.06;stroke-dashoffset:0"
       id="path8" />
    <path
       inkscape:connector-curvature="0"
       d="m 0.802516,1.29437 0,0.01035 c 0,0.01621 0.045461,0.06726 0.072433,0.06726 l 0.01552,0 c 0.036653,0 0.492271,-0.33946 0.574301,-0.38287 l 0.00267,0.34848 0.37502,-0.555433 -0.37769,0 C 1.44532,0.782157 1.16144,0.99324 1.11917,1.0212 1.06275,1.05853 0.9993,1.10175 0.945977,1.14292 0.896949,1.18077 0.802516,1.21498 0.802516,1.29437 z"
       style="fill:#000000;stroke:#000000;stroke-width:0.06;stroke-miterlimit:4;stroke-opacity:1;stroke-dasharray:0.12, 0.06;stroke-dashoffset:0"
       id="path10" />
    <path
       inkscape:connector-curvature="0"
       d="m 0.626602,1.47028 0,-0.688122 -0.082784,0 c -0.0202,0 -0.046563,0.01974 -0.046563,0.036217 l 0,0.610515 c 0,0.02298 0.012174,0.03222 0.025871,0.04139 z"
       style="fill:#000000;stroke:#000000;stroke-width:0.06;stroke-miterlimit:4;stroke-opacity:1;stroke-dasharray:0.12, 0.06;stroke-dashoffset:0"
       id="path12" />
    <path
       inkscape:connector-curvature="0"
       d="m 1.57342,1.33576 0.31043,0 0,0.12935 -0.41391,0 0,0.62604 0.20696,0 c 0.02704,0 0.03772,-0.17612 0.04345,-0.21007 C 1.73199,1.8122 1.74902,1.72245 1.75451,1.65654 l 0.00826,3.1e-4 0.06417,0.4343 0.2173,0 0,-1.231385 c 0,-0.026327 -0.05128,-0.077606 -0.08278,-0.077606 l -0.00517,0 C 1.93338,0.782159 1.78471,1.01881 1.76175,1.05327 1.73586,1.09209 1.57886,1.3154 1.57342,1.33576 z"
       style="fill:#000000;stroke:#000000;stroke-width:0.06;stroke-miterlimit:4;stroke-opacity:1;stroke-dasharray:0.12, 0.06;stroke-dashoffset:0"
       id="path14" />
    <polygon
       points="1.3199,2.10149 1.3199,1.47028 0.626602,1.47028 0.626602,2.10149 "
       style="fill:#000000;stroke:#000000;stroke-width:0.06;stroke-miterlimit:4;stroke-opacity:1;stroke-dasharray:0.12, 0.06;stroke-dashoffset:0"
       id="polygon16" />
    <line
       x1="1.46744"
       x2="1.4699399"
       y1="1.33759"
       y2="1.4651099"
       id="line18"
       style="stroke:#000000;stroke-width:0.06;stroke-miterlimit:4;stroke-opacity:1;stroke-dasharray:0.12, 0.06;stroke-dashoffset:0" />
    <line
       x1="1.84246"
       x2="1.95629"
       y1="0.782157"
       y2="0.782157"
       id="line20"
       style="stroke:#000000;stroke-width:0.06;stroke-miterlimit:4;stroke-opacity:1;stroke-dasharray:0.12, 0.06;stroke-dashoffset:0" />
    <line
       x1="1.62516"
       x2="1.61998"
       y1="0.50793701"
       y2="0.55450398"
       id="line24"
       style="stroke:#000000;stroke-width:0.06;stroke-miterlimit:4;stroke-opacity:1;stroke-dasharray:0.12, 0.06;stroke-dashoffset:0" />
  </g>
</svg>
