<?xml version="1.0" encoding="UTF-8" standalone="no"?>
<!--
Copyright (C) 2012 United States Government as represented by the Administrator of the
National Aeronautics and Space Administration.
All Rights Reserved.
-->

<!--
MIL-STD-2525 tactical symbol icon image. During icon composition this image is multiplied by the desired frame color 
(e.g. black), then drawn on top of the frame and fill.
-->

<svg
   xmlns:dc="http://purl.org/dc/elements/1.1/"
   xmlns:cc="http://creativecommons.org/ns#"
   xmlns:rdf="http://www.w3.org/1999/02/22-rdf-syntax-ns#"
   xmlns:svg="http://www.w3.org/2000/svg"
   xmlns="http://www.w3.org/2000/svg"
   xmlns:sodipodi="http://sodipodi.sourceforge.net/DTD/sodipodi-0.dtd"
   xmlns:inkscape="http://www.inkscape.org/namespaces/inkscape"
   height="400px"
   viewBox="0 0 400 400"
   width="400px"
   id="svg2"
   version="1.1"
   inkscape:version="0.48.2 r9819"
   sodipodi:docname="eufaag---------.svg">
  <metadata
     id="metadata30">
    <rdf:RDF>
      <cc:Work
         rdf:about="">
        <dc:format>image/svg+xml</dc:format>
        <dc:type
           rdf:resource="http://purl.org/dc/dcmitype/StillImage" />
      </cc:Work>
    </rdf:RDF>
  </metadata>
  <defs
     id="defs28" />
  <sodipodi:namedview
     pagecolor="#ffffff"
     bordercolor="#666666"
     borderopacity="1"
     objecttolerance="10"
     gridtolerance="10"
     guidetolerance="10"
     inkscape:pageopacity="0"
     inkscape:pageshadow="2"
     inkscape:window-width="1163"
     inkscape:window-height="643"
     id="namedview26"
     showgrid="false"
     inkscape:zoom="0.834386"
     inkscape:cx="194.9152"
     inkscape:cy="110.23278"
     inkscape:window-x="89"
     inkscape:window-y="75"
     inkscape:window-maximized="0"
     inkscape:current-layer="svg2" />
  <g
     transform="scale(80) translate(1.275 1.7)"
     id="g4">
    <path
       d="M0.66924 0.345992 L0.66924 0.389342 C0.66924 0.430118 0.74463 0.554767 0.774523 0.562751     C0.774523 0.523173 0.786913 0.515621 0.786913 0.476047 L0.786913 0.345992     C0.786913 0.326862 0.761362 0.277866 0.743559 0.277866 L0.72498 0.277866     C0.700149 0.277866 0.66924 0.316181 0.66924 0.345992 z"
       style="fill:rgb(255,255,255)"
       id="path6" />
    <path
       d="M1.66015 0.432693 L1.66015 0.544169 C1.70286 0.528712 1.7964 0.377921 1.7964 0.315023     C1.7964 0.294153 1.78545 0.271673 1.76543 0.271673 L1.74685 0.271673 C1.659     0.271673 1.66015 0.346373 1.66015 0.432693 z"
       style="fill:rgb(255,255,255)"
       id="path8" />
    <path
       d="M0.824071 0.568945 C0.839925 0.628311 1.10078 0.668036 1.19566 0.668036 L1.22663     0.668036 C1.32395 0.668036 1.61728 0.625146 1.62299 0.55656 C1.49559 0.526879     1.41924 0.500819 1.2514 0.500819 L1.20805 0.500819 C1.13296 0.500819 1.07105     0.511693 1.00386 0.519583 C0.914638 0.530064 0.886799 0.552197 0.824071 0.568945     z"
       style="fill:rgb(0,0,0)"
       id="path10" />
    <path
       d="M0.464866 0.599909 L0.464866 0.624685 C0.464866 0.649303 0.510075 0.686614 0.539185     0.686614 L0.551571 0.686614 C0.612764 0.686614 0.733307 0.627523 0.755945     0.593716 C0.694764 0.57946 0.676027 0.574299 0.601075 0.568984 C0.479197 0.560342     0.532283 0.581909 0.464866 0.599909 z"
       style="fill:rgb(255,255,255)"
       id="path12" />
    <path
       d="M1.69067 0.572087 C1.71374 0.608922 1.85161 0.692807 1.90788 0.692807 L1.92646 0.692807     C1.94548 0.692807 1.96362 0.687075 1.96362 0.668035 L1.96362 0.649457     C1.96362 0.580465 1.88371 0.546422 1.81458 0.553811 L1.69067 0.572086 z"
       style="fill:rgb(255,255,255)"
       id="path14" />
    <path
       d="M1.39384 1.19445 L1.42951 1.15759 L1.43719 1.19445 L1.45844 1.25221 L1.50532 1.18826     C1.50118 1.18044 1.49293 1.16778 1.49293 1.15729 C1.49293 1.14256 1.51151     1.13353 1.51151 1.08917 L1.5163 1.08934 L1.52871 1.16014 L1.63478 0.981005     L1.62918 0.97769 C1.67003 0.988599 1.61766 1.05143 1.60556 1.07174 C1.58632     1.10408 1.56522 1.13841 1.54947 1.17188 L1.59202 1.15729 C1.56636 1.19562 1.56404     1.21069 1.51847 1.20739 L1.47429 1.26806 L1.56106 1.26258 C1.55172 1.26906     1.49703 1.29973 1.48674 1.29973 C1.47001 1.29973 1.46966 1.29678 1.45572     1.29352 L1.41243 1.3803 L1.51207 1.37521 L1.41843 1.41775 L1.39273 1.40459     L1.35652 1.50258 L1.46816 1.49172 C1.46001 1.49689 1.37629 1.53508 1.36907     1.53508 C1.35302 1.53508 1.36271 1.53093 1.3381 1.52888 C1.33036 1.62192 1.23901     1.78672 1.23901 1.91286 L1.23761 1.944 L1.24521 2.01195 L1.20185 2.01195     C1.20185 1.88824 1.16498 1.58727 1.12753 1.5165 L1.09633 1.51684 L1.02854     1.46647 L1.12134 1.48553 C1.12085 1.46344 1.09711 1.37928 1.08582 1.37735 C1.04604     1.37059 1.01393 1.36161 0.991577 1.32893 L1.08176 1.34159 L1.04703 1.25638     C0.999147 1.26037 0.96925 1.23613 0.935619 1.20647 L1.03537 1.22507 L1.00367     1.15729 C0.996407 1.15922 0.986789 1.16348 0.985092 1.16348 C0.96434     1.16348 0.923714 1.13138 0.910989 1.1189 L0.991482 1.13239 L0.972706 1.10155     L0.942552 1.10104 L0.91195 1.04363 L0.952974 1.06491 L0.874202 0.887276 L0.886466     0.881469 L0.972706 1.06439 L0.982178 1.06372 L1.00367 0.990075 C1.00367     1.03052 1.01606 1.02941 1.01606 1.06439 L1.01606 1.07059 C1.01606 1.0925     0.997478 1.08931 0.997478 1.10155 C0.997478 1.11497 1.01372 1.13246 1.01993     1.13768 L1.04083 1.08297 L1.05321 1.08297 L1.05321 1.13252 C1.05321 1.14741     1.04318 1.15072 1.03464 1.16348 C1.04106 1.19108 1.05076 1.23053 1.07417 1.23557     L1.11515 1.16968 C1.11515 1.21807 1.11619 1.25183 1.08424 1.26875 L1.10508     1.32026 L1.13992 1.28115 L1.14097 1.34404 L1.12191 1.36769 L1.14741 1.45565     L1.18327 1.41741 L1.18433 1.48029 L1.16523 1.50396 L1.20185 1.61559 C1.20185     1.52891 1.21572 1.49123 1.22933 1.42011 C1.23707 1.37972 1.26965 1.24622     1.26867 1.23439 L1.24049 1.21912 L1.23543 1.14296 L1.28252 1.20068 L1.2996     1.11608 L1.27967 1.10097 L1.26581 1.01339 L1.31926 1.08289 L1.3443 1.00866     C1.31128 0.991186 1.31952 0.982493 1.3224 0.932253 L1.35352 0.976182 L1.38145     0.909564 C1.36765 0.905879 1.36288 0.908119 1.36288 0.890985 C1.36288 0.865655     1.37526 0.864383 1.37526 0.81667 L1.3788 0.817324 L1.39384 0.884792 L1.40338     0.883706 L1.46816 0.698997 L1.49236 0.70119 L1.41979 0.89317 L1.46197     0.872406 C1.45467 0.899729 1.44128 0.927363 1.40673 0.928378 L1.38135 0.989406     L1.45577 0.977689 C1.43369 0.996882 1.40746 1.02104 1.36729 1.02038 L1.34449     1.09606 L1.43719 1.07059 C1.43005 1.08034 1.36194 1.13252 1.35049 1.13252     C1.3363 1.13252 1.34329 1.13042 1.32532 1.1262 L1.30067 1.21159 zM0.824068     0.568942 C0.886796 0.552194 0.914635 0.53006 1.00385 0.51958 C1.07104 0.51169     1.13295 0.500816 1.20804 0.500816 L1.2514 0.500816 C1.41924 0.500816 1.49559     0.526875 1.62299 0.556556 C1.61728 0.625143 1.32394 0.668032 1.22662 0.668032     L1.19566 0.668032 C1.10078 0.668032 0.839923 0.628308 0.824068 0.568942     zM0.644466 1.61559 L0.644466 1.68991 C0.644466 1.86185 0.642226 2.0615 0.811683     2.0615 L1.63538 2.0615 C1.72257 2.0615 1.7557 2.00774 1.7892 1.95608     L1.80259 1.84474 L1.80259 1.58463 C1.80259 1.30343 1.77825 1.08724 1.73998 0.848321     C1.68935 0.532211 1.65873 0.494628 1.29475 0.494628 L1.1585 0.494628     C0.741342 0.494628 0.797566 0.548813 0.71005 0.863671 C0.696416 0.91271 0.699176     0.989962 0.685349 1.04335 C0.669632 1.10404 0.678195 1.16619 0.66677 1.22914     C0.648065 1.33218 0.644467 1.49869 0.644466 1.61559 z"
       style="fill:rgb(255,255,255)"
       id="path16" />
    <path
       d="M1.39384 1.19445 C1.38408 1.20294 1.32385 1.25019 1.31333 1.25019 C1.29914 1.25019     1.30613 1.24809 1.28856 1.244 C1.28752 1.29073 1.25399 1.37838 1.24581 1.4304     C1.23785 1.48108 1.21424 1.58143 1.21424 1.62797 L1.21194 1.68399 L1.22768     1.81411 L1.32548 1.51106 L1.30036 1.50418 L1.28886 1.39248 L1.33637 1.48745     L1.37393 1.39396 L1.35668 1.37406 L1.35971 1.3103 L1.39131 1.3638 L1.44339     1.26877 L1.43041 1.26876 L1.43719 1.19445 L1.42951 1.15759 z"
       style="fill:rgb(255,255,255)"
       id="path18" />
    <path
       d="M0.644469 1.61559 C0.644469 1.49868 0.648067 1.33218 0.666772 1.22914 C0.678197 1.16619     0.669634 1.10404 0.685351 1.04335 C0.699178 0.98996 0.696418 0.912708     0.710052 0.863669 C0.797567 0.548811 0.741343 0.494626 1.1585 0.494626 L1.29475     0.494626 C1.65874 0.494626 1.68935 0.532209 1.73998 0.848319 C1.77825 1.08724     1.80259 1.30343 1.80259 1.58463 L1.80259 1.84474 L1.7892 1.95608 C1.7557     2.00774 1.72257 2.0615 1.63538 2.0615 L0.811685 2.0615 C0.642228 2.0615     0.644468 1.86185 0.644468 1.68991 zM0.464867 0.59991 C0.532284 0.58191 0.479198     0.560343 0.601076 0.568985 C0.676029 0.5743 0.694765 0.579461 0.755946 0.593717     C0.733308 0.627524 0.612765 0.686615 0.551572 0.686615 L0.539186 0.686615     C0.510076 0.686615 0.464867 0.649304 0.464867 0.624686 zM1.81458 0.553812     C1.8837 0.546422 1.96362 0.580465 1.96362 0.649457 L1.96362 0.668036 C1.96362     0.687075 1.94547 0.692808 1.92646 0.692808 L1.90788 0.692808 C1.85161     0.692808 1.71374 0.608922 1.69067 0.572088 zM0.669247 0.345993 C0.669247 0.316182     0.700156 0.277867 0.724987 0.277867 L0.743566 0.277867 C0.761369 0.277867     0.78692 0.326863 0.78692 0.345993 L0.78692 0.476048 C0.78692 0.515622 0.77453     0.523174 0.77453 0.562752 C0.744637 0.554768 0.669247 0.430118 0.669247     0.389343 zM1.66016 0.432693 C1.66016 0.346375 1.659 0.271673 1.74686 0.271673     L1.76544 0.271673 C1.78546 0.271673 1.79641 0.294154 1.79641 0.315024 C1.79641     0.377921 1.70287 0.528713 1.66016 0.54417 zM1.70351 0.550366 C1.71856     0.493996 1.82118 0.394004 1.82118 0.327409 L1.82118 0.284059 C1.80089 0.27587     1.8001 0.246898 1.77163 0.246898 L1.75305 0.246898 C1.673 0.246898 1.63538     0.310035 1.63538 0.389343 L1.63538 0.519398 C1.57246 0.502598 1.56398 0.488909     1.47446 0.482138 C1.41282 0.477472 1.35918 0.469854 1.28857 0.469854 L1.17709     0.469854 C1.0267 0.469854 0.898817 0.47913 0.799306 0.531783 C0.804468     0.509618 0.811692 0.502685 0.811692 0.476047 L0.811692 0.370764 C0.811692     0.325823 0.78098 0.253091 0.743566 0.253091 L0.718795 0.253091 C0.693306 0.253091     0.638283 0.311257 0.638283 0.345993 C0.638283 0.407036 0.70448 0.516686     0.73118 0.55656 L0.551782 0.541694 C0.513621 0.541032 0.446294 0.576351 0.446294     0.606103 L0.446294 0.624686 C0.446294 0.666702 0.499479 0.711387 0.539192     0.711387 L0.545385 0.711387 C0.636562 0.711387 0.687251 0.65019 0.743566     0.637068 C0.685404 0.746989 0.625897 1.32467 0.625897 1.5165 L0.625897 1.7023     C0.625897 1.88699 0.634877 2.08627 0.817885 2.08627 L1.63538 2.08627 C1.76324     2.08627 1.82737 1.96741 1.82737 1.83854 L1.82737 1.51031 C1.82737 1.43971     1.82276 1.33919 1.81455 1.26921 C1.80803 1.21367 1.79024 1.08995 1.79021     1.03963 C1.79017 0.959076 1.76696 0.891891 1.75872 0.817194 C1.75155 0.752123     1.71706 0.682859 1.70351 0.624686 C1.73981 0.643894 1.85603 0.717579 1.8955     0.717579 L1.93266 0.717579 C1.96327 0.717579 1.9884 0.692453 1.9884 0.661843     L1.9884 0.65565 C1.9884 0.587426 1.94254 0.537981 1.87072 0.537981 L1.79021     0.537981 z"
       style="fill:rgb(0, 0, 0);stroke:#000000;stroke-opacity:1;stroke-width:0.075;stroke-miterlimit:4;stroke-dasharray:0.15,0.075;stroke-dashoffset:0"
       id="path20" />
    <path
       d="M1.4372 1.19445 L1.43041 1.26876 L1.44339 1.26877 L1.39132 1.3638 L1.35972 1.3103     L1.35669 1.37406 L1.37394 1.39396 L1.33637 1.48745 L1.28886 1.39248 L1.30037     1.50418 L1.32548 1.51106 L1.22768 1.81411 L1.21194 1.68399 L1.21424 1.62797     C1.21424 1.58143 1.23785 1.48108 1.24582 1.4304 C1.25399 1.37838 1.28752 1.29073     1.28856 1.244 C1.30613 1.24809 1.29915 1.25019 1.31333 1.25019 C1.32386     1.25019 1.38408 1.20294 1.39385 1.19445 L1.30068 1.2116 L1.32532 1.1262 C1.34329     1.13042 1.33631 1.13252 1.3505 1.13252 C1.36195 1.13252 1.43005 1.08034     1.4372 1.07059 L1.34449 1.09606 L1.3673 1.02038 C1.40747 1.02104 1.4337     0.996882 1.45578 0.977689 L1.38135 0.989406 L1.40674 0.928378 C1.44129 0.927363     1.45468 0.899729 1.46197 0.872406 L1.41979 0.89317 L1.49237 0.70119 L1.46816     0.698997 L1.40339 0.883706 L1.39385 0.884792 L1.37881 0.817324 L1.37527     0.81667 C1.37527 0.864383 1.36288 0.865655 1.36288 0.890985 C1.36288 0.908119     1.36766 0.905879 1.38146 0.909564 L1.35353 0.976182 L1.3224 0.932253 C1.31953     0.982493 1.31128 0.991186 1.3443 1.00866 L1.31926 1.08289 L1.26581 1.01339     L1.27967 1.10097 L1.29961 1.11608 L1.28253 1.20068 L1.23544 1.14296 L1.2405     1.21912 L1.26867 1.23439 C1.26966 1.24622 1.23707 1.37972 1.22934 1.42011     C1.21572 1.49123 1.20186 1.52891 1.20186 1.61559 L1.16524 1.50396 L1.18433     1.48029 L1.18328 1.41741 L1.14741 1.45565 L1.12192 1.36769 L1.14098 1.34404     L1.13992 1.28115 L1.10509 1.32026 L1.08424 1.26875 C1.1162 1.25183 1.11515     1.21808 1.11515 1.16968 L1.07417 1.23557 C1.05077 1.23053 1.04107 1.19108 1.03464     1.16348 C1.04319 1.15072 1.05322 1.14741 1.05322 1.13252 L1.05322 1.08297     L1.04084 1.08297 L1.01994 1.13768 C1.01373 1.13246 0.997484 1.11497 0.997484     1.10155 C0.997484 1.08931 1.01606 1.0925 1.01606 1.07059 L1.01606 1.06439     C1.01606 1.02941 1.00368 1.03052 1.00368 0.990075 L0.982184 1.06372 L0.972712     1.06439 L0.886472 0.881469 L0.874208 0.887276 L0.95298 1.06491 L0.911956     1.04363 L0.942558 1.10104 L0.972712 1.10155 L0.991488 1.13239 L0.910995 1.1189     C0.92372 1.13138 0.964346 1.16348 0.985098 1.16348 C0.986795 1.16348 0.996413     1.15922 1.00368 1.15729 L1.03538 1.22507 L0.935625 1.20647 C0.969255     1.23613 0.999153 1.26037 1.04703 1.25638 L1.08176 1.34159 L0.991583 1.32893     C1.01394 1.36161 1.04605 1.37059 1.08583 1.37735 C1.09711 1.37928 1.12085 1.46344     1.12135 1.48553 L1.02855 1.46647 L1.09634 1.51684 L1.12754 1.5165 C1.16499     1.58727 1.20186 1.88824 1.20186 2.01195 L1.24521 2.01195 L1.23761 1.944     L1.23902 1.91286 C1.23902 1.78672 1.33037 1.62192 1.33811 1.52888 C1.36271     1.53093 1.35303 1.53508 1.36907 1.53508 C1.37629 1.53508 1.46002 1.49689 1.46817     1.49172 L1.35653 1.50258 L1.39274 1.40459 L1.41844 1.41775 L1.51208 1.37521     L1.41243 1.3803 L1.45573 1.29352 C1.46967 1.29678 1.47002 1.29973 1.48674     1.29973 C1.49703 1.29973 1.55172 1.26906 1.56106 1.26258 L1.4743 1.26806     L1.51848 1.20739 C1.56405 1.21069 1.56637 1.19562 1.59203 1.15729 L1.54947 1.17188     C1.56522 1.13841 1.58633 1.10408 1.60557 1.07174 C1.61766 1.05143 1.67004     0.988599 1.62919 0.97769 L1.63478 0.981005 L1.52872 1.16014 L1.5163 1.08934     L1.51152 1.08917 C1.51152 1.13353 1.49294 1.14256 1.49294 1.15729 C1.49294     1.16778 1.50118 1.18044 1.50532 1.18826 L1.45844 1.25221 z"
       style="fill:rgb(0,0,0)"
       id="path22" />
  </g>
  <g
     style="font-size:52px;font-weight:bold;text-anchor:middle;fill:#000000;font-family:Arial"
     id="text24">
    <path
       d="m 129.61719,135.88867 7.3125,-0.71094 c 0.44009,2.45444 1.33299,4.25717 2.67871,5.40821 1.34569,1.15105 3.16112,1.72657 5.44629,1.72656 2.42055,1e-5 4.24444,-0.51204 5.47168,-1.53613 1.22719,-1.02408 1.84079,-2.22167 1.84082,-3.59278 -3e-5,-0.88019 -0.25816,-1.62922 -0.77442,-2.24707 -0.5163,-0.61782 -1.41766,-1.15526 -2.7041,-1.6123 -0.88023,-0.30467 -2.88608,-0.84634 -6.01758,-1.625 -4.02865,-0.99868 -6.85547,-2.22589 -8.48047,-3.68164 -2.28516,-2.04816 -3.42773,-4.5449 -3.42773,-7.49024 0,-1.8958 0.53743,-3.66891 1.61231,-5.31933 1.07486,-1.65036 2.62369,-2.90719 4.64648,-3.77051 2.02277,-0.86324 4.4645,-1.29488 7.32519,-1.29492 4.67186,4e-5 8.18846,1.02412 10.54981,3.07226 2.3613,2.04821 3.60121,4.78193 3.71973,8.20118 l -7.51563,0.33007 c -0.32164,-1.91273 -1.01141,-3.28805 -2.06933,-4.12597 -1.05797,-0.83786 -2.64488,-1.25681 -4.76075,-1.25684 -2.18361,3e-5 -3.89324,0.4486 -5.1289,1.3457 -0.79559,0.57555 -1.19337,1.34574 -1.19336,2.31055 -1e-5,0.88024 0.37238,1.63349 1.11718,2.25977 0.94791,0.79559 3.24999,1.62502 6.90625,2.48828 3.65623,0.8633 6.36033,1.7562 8.11231,2.67871 1.75192,0.92254 3.12302,2.18361 4.11328,3.7832 0.9902,1.59963 1.48532,3.57586 1.48535,5.92871 -3e-5,2.13282 -0.59248,4.13022 -1.77734,5.99219 -1.18493,1.86198 -2.86071,3.24577 -5.02735,4.15137 -2.16668,0.9056 -4.86655,1.3584 -8.0996,1.3584 -4.70575,0 -8.31967,-1.08757 -10.8418,-3.2627 -2.52214,-2.17512 -4.02865,-5.34472 -4.51953,-9.50879 z"
       style="font-size:52px;font-weight:bold;text-anchor:middle;fill:#000000;font-family:Arial"
       id="path3008" />
    <path
       d="m 174.63477,148 0,-30.92578 -11.04493,0 0,-6.29688 29.58008,0 0,6.29688 -11.01953,0 0,30.92578 z"
       style="font-size:52px;font-weight:bold;text-anchor:middle;fill:#000000;font-family:Arial"
       id="path3010" />
    <path
       d="m 196.52148,129.61719 c 0,-3.79165 0.56706,-6.97394 1.70118,-9.54688 0.84635,-1.8958 2.00162,-3.59697 3.46582,-5.10351 1.46418,-1.50648 3.06802,-2.62367 4.81152,-3.35157 2.319,-0.98173 4.99347,-1.47261 8.02344,-1.47265 5.48435,4e-5 9.87269,1.70121 13.16504,5.10351 3.29228,3.40238 4.93843,8.13349 4.93847,14.19336 -4e-5,6.00913 -1.6335,10.71062 -4.90039,14.1045 -3.26695,3.39388 -7.63414,5.09081 -13.10156,5.09082 -5.53517,-1e-5 -9.93621,-1.68848 -13.20313,-5.06543 -3.26693,-3.37695 -4.90039,-8.02766 -4.90039,-13.95215 z m 7.74414,-0.25391 c -1e-5,4.21486 0.9733,7.40984 2.91993,9.58496 1.9466,2.17514 4.41795,3.2627 7.41406,3.2627 2.99607,0 5.45473,-1.0791 7.37598,-3.23731 1.92119,-2.15819 2.8818,-5.39549 2.88183,-9.71191 -3e-5,-4.2656 -0.93525,-7.44789 -2.80566,-9.54688 -1.87047,-2.09892 -4.35452,-3.1484 -7.45215,-3.14843 -3.09767,3e-5 -5.59442,1.0622 -7.49024,3.18652 -1.89584,2.12437 -2.84376,5.32782 -2.84375,9.61035 z"
       style="font-size:52px;font-weight:bold;text-anchor:middle;fill:#000000;font-family:Arial"
       id="path3012" />
    <path
       d="m 238.49219,148 0,-37.22266 15.81836,0 c 3.97784,4e-5 6.86813,0.33435 8.6709,1.00293 1.8027,0.66866 3.24573,1.85779 4.3291,3.56739 1.0833,1.70966 1.62496,3.66474 1.625,5.86523 -4e-5,2.79299 -0.821,5.09931 -2.46289,6.91895 -1.64196,1.81968 -4.09639,2.96648 -7.36329,3.44043 1.62498,0.94793 2.96645,1.98894 4.02442,3.12304 1.05791,1.13413 2.48402,3.14845 4.27832,6.04297 l 4.54492,7.26172 -8.98828,0 -5.43359,-8.09961 c -1.92971,-2.89452 -3.25002,-4.71841 -3.96094,-5.47168 -0.71096,-0.75324 -1.46421,-1.26952 -2.25977,-1.54883 -0.79559,-0.27928 -2.05665,-0.41893 -3.7832,-0.41894 l -1.52344,0 0,15.53906 z m 7.51562,-21.48047 5.56055,0 c 3.60545,2e-5 5.85675,-0.15232 6.75391,-0.45703 0.89711,-0.30467 1.59958,-0.8294 2.10742,-1.57422 0.50778,-0.74477 0.76169,-1.67575 0.76172,-2.79297 -3e-5,-1.25257 -0.33434,-2.26397 -1.00293,-3.03418 -0.66865,-0.77015 -1.61233,-1.2568 -2.83106,-1.45996 -0.6094,-0.0846 -2.43752,-0.12692 -5.48437,-0.12695 l -5.86524,0 z"
       style="font-size:52px;font-weight:bold;text-anchor:middle;fill:#000000;font-family:Arial"
       id="path3014" />
  </g>
</svg>
