<?xml version="1.0" encoding="UTF-8" standalone="no"?>
<!--
Copyright (C) 2012 United States Government as represented by the Administrator of the
National Aeronautics and Space Administration.
All Rights Reserved.
-->

<!--
MIL-STD-2525 tactical symbol icon image. During icon composition this image is multiplied by the desired frame color 
(e.g. black), then drawn on top of the frame and fill.
-->

<svg
   xmlns:dc="http://purl.org/dc/elements/1.1/"
   xmlns:cc="http://creativecommons.org/ns#"
   xmlns:rdf="http://www.w3.org/1999/02/22-rdf-syntax-ns#"
   xmlns:svg="http://www.w3.org/2000/svg"
   xmlns="http://www.w3.org/2000/svg"
   xmlns:sodipodi="http://sodipodi.sourceforge.net/DTD/sodipodi-0.dtd"
   xmlns:inkscape="http://www.inkscape.org/namespaces/inkscape"
   height="400px"
   viewBox="0 0 400 400"
   width="400px"
   id="svg2"
   version="1.1"
   inkscape:version="0.48.2 r9819"
   sodipodi:docname="eufabe---------.svg">
  <metadata
     id="metadata16">
    <rdf:RDF>
      <cc:Work
         rdf:about="">
        <dc:format>image/svg+xml</dc:format>
        <dc:type
           rdf:resource="http://purl.org/dc/dcmitype/StillImage" />
      </cc:Work>
    </rdf:RDF>
  </metadata>
  <defs
     id="defs14" />
  <sodipodi:namedview
     pagecolor="#ffffff"
     bordercolor="#666666"
     borderopacity="1"
     objecttolerance="10"
     gridtolerance="10"
     guidetolerance="10"
     inkscape:pageopacity="0"
     inkscape:pageshadow="2"
     inkscape:window-width="640"
     inkscape:window-height="480"
     id="namedview12"
     showgrid="false"
     inkscape:zoom="0.59"
     inkscape:cx="200"
     inkscape:cy="200"
     inkscape:window-x="195"
     inkscape:window-y="129"
     inkscape:window-maximized="0"
     inkscape:current-layer="svg2" />
  <g
     transform="matrix(100,0,0,100,75,75)"
     id="g4"
     style="fill:#ffffff;fill-opacity:1;stroke:#ffffff;stroke-width:0.06;stroke-miterlimit:4;stroke-opacity:1;stroke-dasharray:0.12, 0.06;stroke-dashoffset:0">
    <path
       inkscape:connector-curvature="0"
       d="m 1.42396,1.14687 0,-0.184169 C 1.47683,0.963882 1.52584,0.998744 1.52584,1.05283 l 0,0.00391 c 0,0.05375 -0.04677,0.09013 -0.10188,0.09013 z M 1.3064,0.805964 c 0,-0.050673 0.02546,-0.086205 0.07445,-0.086205 l 0.01176,0 0,0.164575 C 1.34848,0.88335 1.30641,0.851917 1.3064,0.805964 z m 0.08621,-0.141063 -0.02351,0 c -0.06538,0 -0.12931,0.072154 -0.12931,0.141063 l 0,0.023508 c 0,0.028039 0.03306,0.070366 0.0532,0.083949 0.02843,0.019181 0.06249,0.028874 0.09962,0.037523 l 0,0.195926 C 1.32904,1.13206 1.29073,1.10611 1.29073,1.02931 l -0.05958,8e-5 0.00472,0.06262 c 0.02287,0.03415 0.01435,0.05289 0.05407,0.07917 0.02674,0.01769 0.0598,0.03055 0.10267,0.03055 l 0,0.07053 0.03135,0 0,-0.07053 c 0.07642,0 0.16066,-0.05722 0.16066,-0.12539 l 0,-0.0627 c 0,-0.072145 -0.09989,-0.107314 -0.16066,-0.121471 l 0,-0.172409 c 0.04896,0 0.08512,0.033547 0.0862,0.082287 l 0.06662,0 c 0,-0.080897 -0.06956,-0.137146 -0.15282,-0.137146 l 0,-0.047023 -0.03135,0 z"
       style="fill:#ffffff;fill-opacity:1;stroke:#ffffff;stroke-width:0.06;stroke-miterlimit:4;stroke-opacity:1;stroke-dasharray:0.12, 0.06;stroke-dashoffset:0"
       id="path6" />
    <path
       inkscape:connector-curvature="0"
       d="M 1.35341,1.63275 1.10879,1.11252 0.960288,1.47313 0.828249,1.31134 0.494836,1.62138 l 0.022067,0.02526 -3.9e-5,0.00395 0.310453,-0.28347 0.138169,0.17551 0.007838,0 C 0.973895,1.517 1.03008,1.40372 1.04162,1.36798 1.04995,1.34215 1.06911,1.30703 1.07866,1.28355 1.08627,1.26483 1.10167,1.20616 1.11619,1.2027 L 1.35196,1.70998 1.3538,1.71385 1.78796,1.03049 1.79185,1.03345 1.99285,1.42291 2.02692,1.40964 1.79228,0.958779 C 1.78891,0.971389 1.59943,1.26203 1.5752,1.29812 1.54868,1.33763 1.36999,1.62833 1.35341,1.63275 z"
       style="fill:#ffffff;fill-opacity:1;stroke:#ffffff;stroke-width:0.06;stroke-miterlimit:4;stroke-opacity:1;stroke-dasharray:0.12, 0.06;stroke-dashoffset:0"
       id="path8" />
    <polygon
       points="0.428665,0.637469 0.405154,0.637469 0.405154,1.84827 2.09009,1.84827 2.09009,1.813 0.420831,1.813 0.428665,1.813 "
       style="fill:#ffffff;fill-opacity:1;stroke:#ffffff;stroke-width:0.06;stroke-miterlimit:4;stroke-opacity:1;stroke-dasharray:0.12, 0.06;stroke-dashoffset:0"
       id="polygon10" />
  </g>
</svg>
