<?xml version="1.0" encoding="UTF-8" standalone="no"?>
<!--
Copyright (C) 2012 United States Government as represented by the Administrator of the
National Aeronautics and Space Administration.
All Rights Reserved.
-->

<!--
MIL-STD-2525 tactical symbol icon image. During icon composition this image is multiplied by the desired frame color 
(e.g. black), then drawn on top of the frame and fill.
-->

<svg
   xmlns:dc="http://purl.org/dc/elements/1.1/"
   xmlns:cc="http://creativecommons.org/ns#"
   xmlns:rdf="http://www.w3.org/1999/02/22-rdf-syntax-ns#"
   xmlns:svg="http://www.w3.org/2000/svg"
   xmlns="http://www.w3.org/2000/svg"
   xmlns:sodipodi="http://sodipodi.sourceforge.net/DTD/sodipodi-0.dtd"
   xmlns:inkscape="http://www.inkscape.org/namespaces/inkscape"
   height="400px"
   viewBox="0 0 400 400"
   width="400px"
   id="svg2"
   version="1.1"
   inkscape:version="0.48.2 r9819"
   sodipodi:docname="eufada---------.svg">
  <metadata
     id="metadata14">
    <rdf:RDF>
      <cc:Work
         rdf:about="">
        <dc:format>image/svg+xml</dc:format>
        <dc:type
           rdf:resource="http://purl.org/dc/dcmitype/StillImage" />
      </cc:Work>
    </rdf:RDF>
  </metadata>
  <defs
     id="defs12" />
  <sodipodi:namedview
     pagecolor="#ffffff"
     bordercolor="#666666"
     borderopacity="1"
     objecttolerance="10"
     gridtolerance="10"
     guidetolerance="10"
     inkscape:pageopacity="0"
     inkscape:pageshadow="2"
     inkscape:window-width="705"
     inkscape:window-height="480"
     id="namedview10"
     showgrid="false"
     inkscape:zoom="0.59"
     inkscape:cx="200"
     inkscape:cy="200"
     inkscape:window-x="79"
     inkscape:window-y="38"
     inkscape:window-maximized="0"
     inkscape:current-layer="svg2" />
  <g
     transform="scale(75) translate(1.38667 1.89333)"
     id="g4"
     style="stroke:#000000;stroke-opacity:1;stroke-width:0.08;stroke-miterlimit:4;stroke-dasharray:0.16,0.08;stroke-dashoffset:0">
    <path
       d="M1.22798 1.08246 L0.735185 1.08246 L0.735185 2.13762 L1.80194 2.13762 L1.80194 1.08246     L1.30915 1.08246 L1.30915 0.68822 C1.30915 0.666893 1.52657 0.587563 1.56021     0.574039 C1.60391 0.556468 1.79167 0.474456 1.82513 0.473708 C1.81582     0.460995 1.33568 0.264995 1.30335 0.264995 L1.22798 0.264995 z"
       style="fill:rgb(255, 255, 255);stroke:#000000;stroke-opacity:1;stroke-width:0.08;stroke-miterlimit:4;stroke-dasharray:0.16,0.08;stroke-dashoffset:0"
       id="path6" />
  </g>
  <g
     style="font-size:52px;font-weight:bold;text-anchor:middle;fill:#ffffff;font-family:Arial"
     id="text8">
    <path
       d="m 172.70508,134.31445 7.28711,2.31055 c -1.11722,4.06251 -2.97497,7.07976 -5.57324,9.05176 -2.59834,1.972 -5.89488,2.958 -9.88965,2.95801 -4.94273,-1e-5 -9.00522,-1.68848 -12.1875,-5.06543 -3.1823,-3.37695 -4.77344,-7.99381 -4.77344,-13.85059 0,-6.19529 1.5996,-11.00681 4.79883,-14.43457 3.19921,-3.4277 7.40558,-5.14156 12.61914,-5.1416 4.55336,4e-5 8.25192,1.34574 11.0957,4.03711 1.69268,1.59118 2.96221,3.87633 3.80859,6.85547 l -7.43945,1.77734 c -0.44013,-1.92966 -1.35842,-3.4531 -2.75488,-4.57031 -1.39651,-1.11716 -3.09345,-1.67575 -5.09082,-1.67578 -2.75913,3e-5 -4.99774,0.99026 -6.71582,2.9707 -1.71811,1.98049 -2.57716,5.18817 -2.57715,9.62305 -1e-5,4.70574 0.84634,8.0573 2.53906,10.05468 1.6927,1.99741 3.89322,2.9961 6.60156,2.9961 1.99738,0 3.71548,-0.63476 5.1543,-1.9043 1.43878,-1.26952 2.47133,-3.26692 3.09766,-5.99219 z"
       style="font-size:52px;font-weight:bold;text-anchor:middle;fill:#ffffff;font-family:Arial"
       id="path2992" />
    <path
       d="m 184.94336,129.61719 c 0,-3.79165 0.56705,-6.97394 1.70117,-9.54688 0.84635,-1.8958 2.00162,-3.59697 3.46582,-5.10351 1.46419,-1.50648 3.06802,-2.62367 4.81152,-3.35157 2.319,-0.98173 4.99348,-1.47261 8.02344,-1.47265 5.48435,4e-5 9.87269,1.70121 13.16504,5.10351 3.29228,3.40238 4.93844,8.13349 4.93848,14.19336 -4e-5,6.00913 -1.6335,10.71062 -4.90039,14.1045 -3.26696,3.39388 -7.63414,5.09081 -13.10157,5.09082 -5.53517,-1e-5 -9.9362,-1.68848 -13.20312,-5.06543 -3.26693,-3.37695 -4.90039,-8.02766 -4.90039,-13.95215 z m 7.74414,-0.25391 c -1e-5,4.21486 0.9733,7.40984 2.91992,9.58496 1.9466,2.17514 4.41795,3.2627 7.41406,3.2627 2.99607,0 5.45473,-1.0791 7.37598,-3.23731 1.9212,-2.15819 2.88181,-5.39549 2.88184,-9.71191 -3e-5,-4.2656 -0.93525,-7.44789 -2.80567,-9.54688 -1.87047,-2.09892 -4.35451,-3.1484 -7.45215,-3.14843 -3.09767,3e-5 -5.59441,1.0622 -7.49023,3.18652 -1.89584,2.12437 -2.84376,5.32782 -2.84375,9.61035 z"
       style="font-size:52px;font-weight:bold;text-anchor:middle;fill:#ffffff;font-family:Arial"
       id="path2994" />
    <path
       d="m 227.0918,148 0,-36.91797 7.51562,0 0,30.64649 18.6875,0 0,6.27148 z"
       style="font-size:52px;font-weight:bold;text-anchor:middle;fill:#ffffff;font-family:Arial"
       id="path2996" />
  </g>
</svg>
