<?xml version="1.0"?>
<!--
Copyright (C) 2012 United States Government as represented by the Administrator of the
National Aeronautics and Space Administration.
All Rights Reserved.
-->
<!--
MIL-STD-2525 tactical symbol icon image. During icon composition this image is multiplied by the desired frame color 
(e.g. black), then drawn on top of the frame and fill.
-->
<!DOCTYPE svg PUBLIC "-//W3C//DTD SVG 1.1//EN" "http://www.w3.org/Graphics/SVG/1.1/DTD/svg11.dtd" >
<svg xmlns:xlink="http://www.w3.org/1999/xlink" height="400px" viewBox="0 0 400 400" width="400px"><g transform="translate(0 -9.5)"><line style="stroke:rgb(255,255,255);stroke-width:15;stroke-dasharray:10" transform="matrix(1 0 0 1 0 0)" x1="200" x2="200" y1="300" y2="126"/><line style="stroke:rgb(255,255,255);stroke-width:15;stroke-dasharray:10" transform="matrix(1 0 0 1 0 0)" x1="160" x2="240" y1="293" y2="293"/><line style="stroke:rgb(255,255,255);stroke-width:15;stroke-dasharray:10" transform="matrix(1 0 0 1 0 0)" x1="212" x2="160" y1="130" y2="130"/><line style="stroke:rgb(255,255,255);stroke-width:15;stroke-dasharray:10" transform="matrix(1 0 0 1 0 0)" x1="170" x2="140" y1="130" y2="228"/><line style="stroke:rgb(255,255,255);stroke-linecap:round;stroke-width:15;stroke-dasharray:10" transform="matrix(1 0 0 1 0 0)" x1="200" x2="252" y1="177" y2="177"/><line style="stroke:rgb(255,255,255);stroke-width:15;stroke-dasharray:10" transform="matrix(1 0 0 1 0 0)" x1="252" x2="252" y1="177" y2="195"/></g></svg>
