<?xml version="1.0" encoding="UTF-8" standalone="no"?>
<!--
Copyright (C) 2012 United States Government as represented by the Administrator of the
National Aeronautics and Space Administration.
All Rights Reserved.
-->

<!--
MIL-STD-2525 tactical symbol icon image. During icon composition this image is multiplied by the desired frame color 
(e.g. black), then drawn on top of the frame and fill.
-->

<svg
   xmlns:dc="http://purl.org/dc/elements/1.1/"
   xmlns:cc="http://creativecommons.org/ns#"
   xmlns:rdf="http://www.w3.org/1999/02/22-rdf-syntax-ns#"
   xmlns:svg="http://www.w3.org/2000/svg"
   xmlns="http://www.w3.org/2000/svg"
   xmlns:sodipodi="http://sodipodi.sourceforge.net/DTD/sodipodi-0.dtd"
   xmlns:inkscape="http://www.inkscape.org/namespaces/inkscape"
   height="400px"
   viewBox="0 0 400 400"
   width="400px"
   id="svg2"
   version="1.1"
   inkscape:version="0.48.2 r9819"
   sodipodi:docname="euiadc---------.svg">
  <metadata
     id="metadata38">
    <rdf:RDF>
      <cc:Work
         rdf:about="">
        <dc:format>image/svg+xml</dc:format>
        <dc:type
           rdf:resource="http://purl.org/dc/dcmitype/StillImage" />
      </cc:Work>
    </rdf:RDF>
  </metadata>
  <defs
     id="defs36" />
  <sodipodi:namedview
     pagecolor="#ffffff"
     bordercolor="#666666"
     borderopacity="1"
     objecttolerance="10"
     gridtolerance="10"
     guidetolerance="10"
     inkscape:pageopacity="0"
     inkscape:pageshadow="2"
     inkscape:window-width="705"
     inkscape:window-height="480"
     id="namedview34"
     showgrid="false"
     inkscape:zoom="0.59"
     inkscape:cx="200"
     inkscape:cy="200"
     inkscape:window-x="350"
     inkscape:window-y="190"
     inkscape:window-maximized="0"
     inkscape:current-layer="g4" />
  <g
     transform="scale(100) translate(0.72 0.79) translate(-0.04 -0.02) translate(0.03 0)"
     id="g4">
    <path
       d="M1.62046 1.60677 C1.62418 1.64706 1.64343 1.63449 1.65809 1.65639 L1.63945 1.66369     C1.61282 1.6576 1.59742 1.64538 1.59509 1.61595 zM1.66924 1.32946 C1.6618     1.41876 1.61256 1.46785 1.5776 1.53132 C1.5354 1.60792 1.5692 1.70097 1.65809     1.70097 L1.69152 1.70097 C1.74589 1.70097 1.7844 1.65797 1.7844 1.60438 L1.7844     1.58209 C1.7844 1.54627 1.73716 1.48686 1.72038 1.46035 C1.69802 1.42502     1.70198 1.3514 1.66924 1.32946 z"
       style="fill:rgb(0,0,0);stroke-width:4"
       id="path18" />
    <path
       d="M1.66924 1.32946 C1.70199 1.35139 1.69803 1.42502 1.72039 1.46035 C1.73716 1.48686     1.7844 1.54627 1.7844 1.58209 L1.7844 1.60437 C1.7844 1.65797 1.7459 1.70096     1.69153 1.70096 L1.65809 1.70096 C1.5692 1.70096 1.53541 1.60791 1.5776 1.53131     C1.61257 1.46785 1.66181 1.41876 1.66924 1.32946 zM1.54664 1.57466 L1.54664     1.60809 C1.54664 1.65983 1.60325 1.71583 1.65438 1.71583 L1.69524 1.71583     C1.75088 1.71583 1.79926 1.65368 1.79926 1.59694 L1.79926 1.58209 C1.79926     1.54812 1.74661 1.47308 1.72998 1.43962 C1.70215 1.38362 1.71133 1.33359     1.65438 1.30346 C1.65438 1.43345 1.54664 1.51796 1.54664 1.57466 z"
       style="fill:rgb(0,0,0)"
       id="path20" />
    <path
       d="M0.869646 1.60659 C0.880335 1.62857 0.881126 1.64277 0.907658 1.64895 L0.893827 1.665     C0.85252 1.65443 0.862552 1.64911 0.848071 1.61898 zM0.91137 1.70096 L0.948524     1.70096 C1.00532 1.70096 1.0414 1.64461 1.0414 1.5858 C1.0414 1.55439     0.993213 1.48889 0.977484 1.46396 C0.954603 1.4277 0.948453 1.34683 0.92252     1.32946 C0.916221 1.40514 0.865977 1.47713 0.832551 1.52927 C0.786406 1.60126     0.824433 1.70096 0.91137 1.70096 z"
       style="fill:rgb(0,0,0)"
       id="path22" />
    <path
       d="M0.91137 1.70096 C0.824433 1.70096 0.786405 1.60125 0.832551 1.52927 C0.865976 1.47713     0.91622 1.40513 0.92252 1.32946 C0.948453 1.34683 0.954602 1.42769 0.977484     1.46396 C0.993213 1.48888 1.0414 1.55439 1.0414 1.5858 C1.0414 1.64461     1.00532 1.70096 0.948524 1.70096 zM0.799921 1.57465 L0.799921 1.59694 C0.799921     1.65661 0.853712 1.71582 0.91137 1.71582 L0.948523 1.71582 C1.00452 1.71582     1.05254 1.65779 1.05254 1.60066 L1.05254 1.5858 C1.05254 1.53703 1.00039     1.48483 0.982453 1.44413 C0.954961 1.38175 0.970811 1.33687 0.907658 1.30346     C0.907658 1.43958 0.799922 1.51584 0.799922 1.57465 z"
       style="fill:rgb(0,0,0)"
       id="path24" />
    <path
       d="M1.24565 1.86799 C1.25184 1.89439 1.26032 1.9066 1.28659 1.91272 L1.26741 1.92665     C1.23461 1.91155 1.23389 1.92412 1.22352 1.87944 zM1.18629 1.84214 C1.18629     1.91531 1.21901 1.96473 1.29031 1.96473 L1.3126 1.96473 C1.36006 1.96473 1.3866     1.93996 1.40307 1.9066 C1.4255 1.86117 1.41621 1.82985 1.39561 1.79256     C1.3772 1.75924 1.35504 1.73613 1.34008 1.69949 C1.32732 1.6682 1.31921 1.60525     1.29774 1.58951 C1.28943 1.68929 1.18629 1.80007 1.18629 1.84214 z"
       style="fill:rgb(0,0,0)"
       id="path26" />
    <path
       d="M1.18629 1.84214 C1.18629 1.80007 1.28943 1.6893 1.29774 1.58952 C1.31921 1.60525     1.32732 1.66821 1.34008 1.69949 C1.35503 1.73614 1.3772 1.75924 1.39561 1.79256     C1.41621 1.82986 1.4255 1.86117 1.40307 1.9066 C1.3866 1.93996 1.36006     1.96473 1.3126 1.96473 L1.29031 1.96473 C1.21901 1.96473 1.18629 1.91531 1.18629     1.84214 zM1.17514 1.83843 L1.17514 1.86815 C1.17514 2.0022 1.42777 2.03114     1.42777 1.84957 L1.42777 1.84214 C1.42777 1.79249 1.36889 1.74249 1.35492     1.70323 C1.33307 1.64185 1.33838 1.59288 1.28288 1.56351 C1.28288 1.70106     1.17514 1.76623 1.17514 1.83843 z"
       style="fill:rgb(0,0,0)"
       id="path28" />
    <path
       d="M0.312327 1.24866 L2.28222 1.24773 L1.29681 2.23314 zM1.98874 0.931959 C2.00423 0.942333     2.14105 1.07911 2.14105 1.08799 L2.14105 1.23288 L1.98874 1.23288 zM1.68039     0.623609 C1.69588 0.633987 1.83271 0.770759 1.83271 0.77964 L1.83271     1.23288 L1.68039 1.23288 zM1.06741 0.475011 C1.06741 0.466129 1.20423 0.329354     1.21973 0.31898 L1.21973 1.23288 L1.06741 1.23288 zM0.762777 0.779641 C0.762777     0.770759 0.8996 0.633987 0.915092 0.62361 L0.915092 1.23288 L0.762777     1.23288 zM0.605848 0.931062 L0.606746 1.23288 L0.458144 1.23288 L0.458144     1.0917 C0.458144 1.08453 0.456974 1.08509 0.455325 1.08146 zM1.37576 0.318979     L1.53089 0.472188 C1.52693 0.481086 1.52808 0.468235 1.52808 0.48244 L1.52808     1.23288 L1.37576 1.23288 zM0.215737 1.23566 L1.29867 2.31859 L2.37974 1.23566     L1.29681 0.154594 z"
       style="fill:rgb(0, 0, 0);stroke:#000000;stroke-opacity:1;stroke-width:0.06;stroke-miterlimit:4;stroke-dasharray:0.12,0.06;stroke-dashoffset:0"
       id="path32" />
  </g>
</svg>
