<?xml version="1.0" encoding="UTF-8" standalone="no"?>
<!--
Copyright 2006-2009, 2017, 2020 United States Government, as represented by the
Administrator of the National Aeronautics and Space Administration.
All rights reserved.

The NASA World Wind Java (WWJ) platform is licensed under the Apache License,
Version 2.0 (the "License"); you may not use this file except in compliance
with the License. You may obtain a copy of the License at
http://www.apache.org/licenses/LICENSE-2.0

Unless required by applicable law or agreed to in writing, software distributed
under the License is distributed on an "AS IS" BASIS, WITHOUT WARRANTIES OR
CONDITIONS OF ANY KIND, either express or implied. See the License for the
specific language governing permissions and limitations under the License.

NASA World Wind Java (WWJ) also contains the following 3rd party Open Source
software:

    Jackson Parser – Licensed under Apache 2.0
    GDAL – Licensed under MIT
    JOGL – Licensed under  Berkeley Software Distribution (BSD)
    Gluegen – Licensed under Berkeley Software Distribution (BSD)

A complete listing of 3rd Party software notices and licenses included in
NASA World Wind Java (WWJ)  can be found in the WorldWindJava-v2.2 3rd-party
notices and licenses PDF found in code directory.
-->

<!--
MIL-STD-2525 tactical symbol icon image. During icon composition this image is multiplied by the desired frame color 
(e.g. black), then drawn on top of the frame and fill.
-->

<svg
   xmlns:dc="http://purl.org/dc/elements/1.1/"
   xmlns:cc="http://creativecommons.org/ns#"
   xmlns:rdf="http://www.w3.org/1999/02/22-rdf-syntax-ns#"
   xmlns:svg="http://www.w3.org/2000/svg"
   xmlns="http://www.w3.org/2000/svg"
   xmlns:sodipodi="http://sodipodi.sourceforge.net/DTD/sodipodi-0.dtd"
   xmlns:inkscape="http://www.inkscape.org/namespaces/inkscape"
   height="400px"
   viewBox="0 0 400 400"
   width="400px"
   id="svg2"
   version="1.1"
   inkscape:version="0.48.2 r9819"
   sodipodi:docname="euiadh---------.svg">
  <metadata
     id="metadata14">
    <rdf:RDF>
      <cc:Work
         rdf:about="">
        <dc:format>image/svg+xml</dc:format>
        <dc:type
           rdf:resource="http://purl.org/dc/dcmitype/StillImage" />
      </cc:Work>
    </rdf:RDF>
  </metadata>
  <defs
     id="defs12" />
  <sodipodi:namedview
     pagecolor="#ffffff"
     bordercolor="#666666"
     borderopacity="1"
     objecttolerance="10"
     gridtolerance="10"
     guidetolerance="10"
     inkscape:pageopacity="0"
     inkscape:pageshadow="2"
     inkscape:window-width="705"
     inkscape:window-height="480"
     id="namedview10"
     showgrid="false"
     inkscape:zoom="0.59"
     inkscape:cx="200"
     inkscape:cy="200"
     inkscape:window-x="352"
     inkscape:window-y="186"
     inkscape:window-maximized="0"
     inkscape:current-layer="svg2" />
  <g
     transform="scale(110) translate(0.545455 0.554545)"
     id="g4"
     style="stroke:#000000;stroke-opacity:1;stroke-width:0.05454545;stroke-miterlimit:4;stroke-dasharray:0.10909091,0.05454545;stroke-dashoffset:0">
    <path
       d="M1.09409 0.836276 L1.09409 2.18723 C1.09409 2.21824 1.20053 2.21586 1.2373 2.21586     L1.28504 2.21586 C1.3218 2.21586 1.42825 2.21824 1.42825 2.18723 L1.42825     0.836276 C1.42825 0.73165 1.09409 0.732622 1.09409 0.836276 z"
       style="fill:rgb(255, 255, 255);stroke:#000000;stroke-opacity:1;stroke-width:0.05454545;stroke-miterlimit:4;stroke-dasharray:0.10909091,0.05454545;stroke-dashoffset:0"
       id="path6" />
    <path
       d="M1.09409 0.836276 C1.09409 0.732622 1.42825 0.73165 1.42825 0.836276 L1.42825 2.18723     C1.42825 2.21824 1.3218 2.21586 1.28504 2.21586 L1.2373 2.21586 C1.20053     2.21586 1.09409 2.21824 1.09409 2.18723 zM1.22298 0.335044 L1.06545 0.335044     L1.06545 0.406646 L1.21821 0.406646 L1.21821 0.483028 L1.1275 0.483028 L1.1275     0.530761 L1.21821 0.530761 L1.21821 0.659651 L1.10841 0.659651 L1.10841     0.769446 C1.08304 0.776221 1.06067 0.807969 1.06067 0.841052 L1.06067 2.1729     C1.06067 2.25306 1.15189 2.24928 1.23253 2.24928 L1.28981 2.24928 C1.3716     2.24928 1.46166 2.25431 1.46166 2.1729 L1.46166 0.850592 C1.46166 0.782635     1.4187 0.782521 1.4187 0.759895 L1.4187 0.659647 L1.30413 0.659647 L1.30413     0.406643 L1.45689 0.406643 L1.45689 0.335041 L1.29459 0.335041 L1.29459 0.272981     L1.22298 0.272981 L1.22298 0.335041 z"
       style="fill:rgb(0, 0, 0);stroke:#000000;stroke-opacity:1;stroke-width:0.05454545;stroke-miterlimit:4;stroke-dasharray:0.10909091,0.05454545;stroke-dashoffset:0"
       id="path8" />
  </g>
</svg>
