<?xml version="1.0"?>
<!--
Copyright (C) 2012 United States Government as represented by the Administrator of the
National Aeronautics and Space Administration.
All Rights Reserved.
-->

<!DOCTYPE svg PUBLIC "-//W3C//DTD SVG 1.1//EN" "http://www.w3.org/Graphics/SVG/1.1/DTD/svg11.dtd" >
<!--
MIL-STD-2525 tactical symbol icon image. During icon composition this image is multiplied by the desired frame color 
(e.g. black), then drawn on top of the frame and fill.
-->
<svg xmlns:xlink="http://www.w3.org/1999/xlink" height="400px" viewBox="0 0 400 400" width="400px"><g transform="scale(100) translate(0.87 0.88) translate(-0.13 -0.06) translate(0.01 -0.06)"><path d="M0.412724 1.08984 C0.414378 1.09347 0.415547 1.09291 0.415547 1.10009 L0.415547 1.24495     L0.56413 1.24495 L0.563236 0.939466 z" style="fill:rgb(255,255,255)"/><path d="M0.720142 0.788063 L0.720142 1.24495 L0.872441 1.24495 L0.872441 0.632051 C0.856949     0.642425 0.720142 0.779185 0.720142 0.788063 z" style="fill:rgb(255,255,255)"/><path d="M1.02474 0.483469 L1.02474 1.24495 L1.17704 1.24495 L1.17704 0.327453 C1.16154 0.337831     1.02474 0.474587 1.02474 0.483469 z" style="fill:rgb(255,255,255)"/><path d="M1.33305 1.24495 L1.48535 1.24495 L1.48535 0.490891 C1.48535 0.47669 1.48421 0.489541     1.48817 0.480647 L1.33305 0.32745 z" style="fill:rgb(255,255,255)"/><path d="M1.63765 1.24495 L1.78995 1.24495 L1.78995 0.78806 C1.78995 0.779182 1.65314 0.642422     1.63765 0.632048 z" style="fill:rgb(255,255,255)"/><path d="M1.94595 1.24495 L2.09825 1.24495 L2.09825 1.09637 C2.09825 1.08749 1.96145 0.950733     1.94595 0.940355 z" style="fill:rgb(255,255,255)"/><polygon points="1.25412,2.24139 2.23569,1.25981 0.273465,1.26074" style="fill:rgb(255,255,255)"/><path d="M0.273465 1.26074 L2.23569 1.25981 L1.25412 2.24139 zM1.94596 0.940358 C1.96145 0.950736     2.09825 1.08749 2.09825 1.09637 L2.09825 1.24495 L1.94596 1.24495 zM1.63765     0.632051 C1.65314 0.642425 1.78994 0.779185 1.78994 0.788063 L1.78994     1.24495 L1.63765 1.24495 zM1.02474 0.483468 C1.02474 0.474586 1.16154 0.33783     1.17704 0.327452 L1.17704 1.24495 L1.02474 1.24495 zM0.720145 0.788062 C0.720145     0.779184 0.856952 0.642424 0.872444 0.63205 L0.872444 1.24495 L0.720145     1.24495 zM0.563239 0.939464 L0.564133 1.24495 L0.41555 1.24495 L0.41555     1.10009 C0.41555 1.09291 0.41438 1.09347 0.412727 1.08984 zM1.33305 0.327452     L1.48817 0.480649 C1.48421 0.489543 1.48535 0.476692 1.48535 0.490893 L1.48535     1.24495 L1.33305 1.24495 zM0.17318 1.24403 L1.25598 2.32683 L2.33692 1.24403     L1.25412 0.163087 z" style="fill:rgb(0,0,0)"/></g></svg>