<?xml version="1.0" encoding="UTF-8" standalone="no"?>
<!--
Copyright (C) 2012 United States Government as represented by the Administrator of the
National Aeronautics and Space Administration.
All Rights Reserved.
-->

<!--
MIL-STD-2525 tactical symbol icon image. During icon composition this image is multiplied by the desired frame color 
(e.g. black), then drawn on top of the frame and fill.
-->

<svg
   xmlns:dc="http://purl.org/dc/elements/1.1/"
   xmlns:cc="http://creativecommons.org/ns#"
   xmlns:rdf="http://www.w3.org/1999/02/22-rdf-syntax-ns#"
   xmlns:svg="http://www.w3.org/2000/svg"
   xmlns="http://www.w3.org/2000/svg"
   xmlns:sodipodi="http://sodipodi.sourceforge.net/DTD/sodipodi-0.dtd"
   xmlns:inkscape="http://www.inkscape.org/namespaces/inkscape"
   height="400px"
   viewBox="0 0 400 400"
   width="400px"
   id="svg2"
   version="1.1"
   inkscape:version="0.48.2 r9819"
   sodipodi:docname="euoaee---------.svg">
  <metadata
     id="metadata14">
    <rdf:RDF>
      <cc:Work
         rdf:about="">
        <dc:format>image/svg+xml</dc:format>
        <dc:type
           rdf:resource="http://purl.org/dc/dcmitype/StillImage" />
      </cc:Work>
    </rdf:RDF>
  </metadata>
  <defs
     id="defs12" />
  <sodipodi:namedview
     pagecolor="#ffffff"
     bordercolor="#666666"
     borderopacity="1"
     objecttolerance="10"
     gridtolerance="10"
     guidetolerance="10"
     inkscape:pageopacity="0"
     inkscape:pageshadow="2"
     inkscape:window-width="640"
     inkscape:window-height="480"
     id="namedview10"
     showgrid="false"
     inkscape:zoom="0.59"
     inkscape:cx="200"
     inkscape:cy="200"
     inkscape:window-x="210"
     inkscape:window-y="75"
     inkscape:window-maximized="0"
     inkscape:current-layer="svg2" />
  <g
     transform="matrix(5,0,0,5,110,141)"
     id="g4"
     style="stroke:#000000;stroke-width:1.20000005;stroke-miterlimit:4;stroke-opacity:1;stroke-dasharray:2.4, 1.2;stroke-dashoffset:0">
    <path
       inkscape:connector-curvature="0"
       d="m 35.928,17.965 c -0.24,-0.047 -1.225,0.338 -2.951,1.15 -1.105,0.48 -2.377,1.223 -3.816,2.229 -5.281,3.498 -9,8.217 -11.16,14.156 -0.098,0 -0.24,-0.119 -0.432,-0.359 C 16.753,32.555 15.288,29.967 13.176,27.379 10.967,24.602 8.424,22.301 5.545,20.481 4.199,19.619 2.352,18.758 0,17.895 -0.039,17.799 -0.039,17.727 0,17.678 0.623,17.391 1.463,17.032 2.52,16.6 5.254,15.69 8.17,13.606 11.268,10.348 14.364,7.09 16.391,4.026 17.352,1.151 17.496,0.768 17.711,0.383 18,0 c 0.91,2.828 2.639,5.773 5.184,8.84 2.688,3.305 5.447,5.652 8.279,7.041 0.625,0.289 1.633,0.744 3.025,1.365 0.43,0.049 0.91,0.289 1.44,0.719 z"
       style="fill:#ffffff;stroke:#000000;stroke-width:1.20000005;stroke-miterlimit:4;stroke-opacity:1;stroke-dasharray:2.4, 1.2;stroke-dashoffset:0"
       id="path6" />
  </g>
  <g
     transform="translate(1.9209295e-8,-4e-6)"
     style="font-size:52px;font-weight:bold;text-anchor:middle;fill:#ffffff;font-family:Arial"
     id="text8">
    <path
       inkscape:connector-curvature="0"
       d="m 185.01953,135 0,-37.222656 15.81836,0 c 3.97784,3.7e-5 6.86814,0.334347 8.6709,1.002929 1.8027,0.668656 3.24574,1.857787 4.3291,3.567387 1.0833,1.70966 1.62497,3.66474 1.625,5.86523 -3e-5,2.79299 -0.821,5.09931 -2.46289,6.91895 -1.64196,1.81968 -4.09638,2.96648 -7.36328,3.44043 1.62497,0.94793 2.96644,1.98894 4.02441,3.12304 1.05792,1.13413 2.48402,3.14845 4.27832,6.04297 l 4.54492,7.26172 -8.98828,0 -5.43359,-8.09961 c -1.92971,-2.89452 -3.25002,-4.71841 -3.96094,-5.47168 -0.71095,-0.75324 -1.46421,-1.26952 -2.25976,-1.54883 -0.79559,-0.27928 -2.05666,-0.41893 -3.78321,-0.41894 l -1.52343,0 0,15.53906 z m 7.51563,-21.48047 5.56054,0 c 3.60545,2e-5 5.85675,-0.15232 6.75391,-0.45703 0.89711,-0.30467 1.59958,-0.8294 2.10742,-1.57422 0.50779,-0.74477 0.76169,-1.67575 0.76172,-2.79297 -3e-5,-1.25257 -0.33434,-2.26397 -1.00293,-3.03418 -0.66864,-0.77015 -1.61233,-1.2568 -2.83105,-1.45996 -0.6094,-0.0846 -2.43752,-0.12692 -5.48438,-0.12695 l -5.86523,0 z"
       style="font-size:52px;font-weight:bold;text-anchor:middle;fill:#ffffff;font-family:Arial"
       id="path3768" />
  </g>
</svg>
