<?xml version="1.0" encoding="UTF-8" standalone="no"?>
<!--
Copyright (C) 2012 United States Government as represented by the Administrator of the
National Aeronautics and Space Administration.
All Rights Reserved.
-->

<!--
MIL-STD-2525 tactical symbol icon image. During icon composition this image is multiplied by the desired frame color 
(e.g. black), then drawn on top of the frame and fill.
-->

<svg
   xmlns:dc="http://purl.org/dc/elements/1.1/"
   xmlns:cc="http://creativecommons.org/ns#"
   xmlns:rdf="http://www.w3.org/1999/02/22-rdf-syntax-ns#"
   xmlns:svg="http://www.w3.org/2000/svg"
   xmlns="http://www.w3.org/2000/svg"
   xmlns:sodipodi="http://sodipodi.sourceforge.net/DTD/sodipodi-0.dtd"
   xmlns:inkscape="http://www.inkscape.org/namespaces/inkscape"
   height="400px"
   viewBox="0 0 400 400"
   width="400px"
   id="svg2"
   version="1.1"
   inkscape:version="0.48.2 r9819"
   sodipodi:docname="euoaam---------.svg">
  <metadata
     id="metadata18">
    <rdf:RDF>
      <cc:Work
         rdf:about="">
        <dc:format>image/svg+xml</dc:format>
        <dc:type
           rdf:resource="http://purl.org/dc/dcmitype/StillImage" />
      </cc:Work>
    </rdf:RDF>
  </metadata>
  <defs
     id="defs16" />
  <sodipodi:namedview
     pagecolor="#ffffff"
     bordercolor="#666666"
     borderopacity="1"
     objecttolerance="10"
     gridtolerance="10"
     guidetolerance="10"
     inkscape:pageopacity="0"
     inkscape:pageshadow="2"
     inkscape:window-width="640"
     inkscape:window-height="480"
     id="namedview14"
     showgrid="false"
     inkscape:zoom="0.59"
     inkscape:cx="200"
     inkscape:cy="200"
     inkscape:window-x="242"
     inkscape:window-y="127"
     inkscape:window-maximized="0"
     inkscape:current-layer="svg2" />
  <g
     transform="matrix(110,0,0,110,60.99995,39.99996)"
     id="g4"
     style="stroke:#000000;stroke-width:0.05454545;stroke-miterlimit:4;stroke-opacity:1;stroke-dasharray:0.10909091, 0.05454545;stroke-dashoffset:0">
    <path
       inkscape:connector-curvature="0"
       d="M 1.18879,1.00789 1.26721,0.954567 c 0.00957,0.008319 0.06682,0.043532 0.06682,0.052503 0,0.02544 -0.01846,0.04366 -0.02386,0.06682 l 0.00371,-0.00371 0.01909,0.01909 -0.00361,0.0043 -0.03351,0.00419 0,0.01909 C 1.34942,1.11239 1.4485,1.04526 1.50587,1.04526 l 0.02386,0 c 0.03464,0 0.1014,0.03877 0.12884,0.05253 0.02913,0.0146 0.10891,0.03116 0.10982,0.07156 l -0.39617,0 c -0.03472,0 -0.04976,-0.00811 -0.07637,-0.01431 l 0,0.27206 C 1.32883,1.42435 1.36959,1.41151 1.39802,1.4004 1.43481,1.38602 1.46768,1.38628 1.46768,1.33641 1.46768,1.32401 1.45064,1.31255 1.44381,1.31255 1.40792,1.31255 1.3816,1.3439 1.34688,1.30447 1.31968,1.27359 1.34709,1.23141 1.38176,1.23141 l 0.04774,0 c 0.06674,0 0.13364,0.02019 0.13364,0.08591 l 0,0.00477 c 0,0.08171 -0.12056,0.13842 -0.20047,0.13842 l 0,0.00955 c 0.03848,0.00896 0.09546,0.04654 0.09546,0.09069 0,0.09723 -0.10796,0.09859 -0.13364,0.13364 C 1.336,1.69708 1.43687,1.74992 1.45061,1.75919 1.48555,1.78276 1.52496,1.82437 1.52496,1.88054 1.50074,1.87407 1.50308,1.84348 1.48752,1.82729 1.47594,1.81524 1.4464,1.79917 1.42798,1.79137 1.38245,1.7721 1.33854,1.75306 1.29585,1.73257 l 0,0.15274 -0.0716,0 0,-0.14796 C 1.19829,1.7434 1.13229,1.77759 1.10496,1.78988 1.06935,1.8059 1.02281,1.83485 1.01901,1.88054 1.01185,1.87883 1.00469,1.87949 1.00469,1.871 1.00469,1.75209 1.19082,1.72068 1.20039,1.68485 1.15346,1.67391 1.06674,1.62597 1.06674,1.57029 1.06674,1.5154 1.11659,1.48068 1.1622,1.47006 l 0,-0.00955 c -0.07311,0 -0.195693,-0.0559 -0.195693,-0.1241 l 0,-0.03341 c 0,-0.05333 0.079883,-0.07159 0.138423,-0.07159 l 0.03818,0 c 0.02429,0 0.04773,0.02062 0.04773,0.04295 0,0.07512 -0.07866,0.03819 -0.10023,0.03819 -0.01997,0 -0.02668,0.01591 -0.0318,0.0284 L 1.06197,1.36982 C 1.10419,1.39809 1.16798,1.41399 1.22425,1.4271 l 5e-4,-0.26921 -0.08164,0.01146 -0.377072,0 c -0.014429,0 -0.013197,-0.00561 -0.014319,-0.01909 0.052756,-0.01229 0.190811,-0.105 0.238654,-0.105 l 0.023867,0 c 0.04764,0 0.1571,0.05926 0.21001,0.07159 l 0,-0.01909 -0.01432,0 c -0.00781,0 -0.01432,-0.00286 -0.01432,-0.00955 0,-0.01493 0.00857,-0.01352 0.01781,-0.01858 z m -0.15546,-0.291976 0.45822,0 0,0.167059 -0.45822,0 z m -0.143194,-0.014319 0,0.181378 -0.071595,0 c -0.147843,0 -0.155701,0.108165 -0.209886,0.186277 -0.04394,0.06335 -0.18628,0.06561 -0.18628,0.21466 l 0,0.68255 1.680125,0 0,-0.64436 C 2.1025,1.2511 2.08549,1.20161 2.05127,1.1633 2.01704,1.12498 1.96141,1.11662 1.92468,1.07988 1.85252,1.00772 1.87435,0.882974 1.69678,0.882974 l -0.06682,0 0,-0.176606 c 0,-0.096299 -0.0763,-0.147965 -0.1766,-0.147965 l -0.38185,0 c -0.09684,0 -0.181376,0.056145 -0.181376,0.143193 l 4e-6,0 z"
       style="fill:#000000;stroke:#000000;stroke-width:0.05454545;stroke-miterlimit:4;stroke-opacity:1;stroke-dasharray:0.10909091, 0.05454545;stroke-dashoffset:0"
       id="path6" />
  </g>
  <rect
     height="106"
     style="fill:#000000;stroke:#000000;stroke-width:1"
     width="118"
     x="141"
     y="144"
     id="rect8" />
  <g
     transform="matrix(50,0,0,50,138,136)"
     id="g10">
    <polygon
       points="1.45818,2.06367 1.45818,1.62378 1.84395,1.84453 2.07512,1.45213 1.69273,1.224 2.07748,1.0002 1.84487,0.604256 1.45919,0.826213 1.45818,0.379213 1.0022,0.379213 1.0022,0.824465 0.616413,0.60372 0.388524,0.999752 0.770457,1.22326 0.388244,1.44798 0.615421,1.84402 1.00096,1.62164 1.0022,2.06367 "
       style="fill:#ffffff"
       id="polygon12" />
  </g>
</svg>
